<svg width="23" height="20" viewBox="0 0 23 20" fill="none" xmlns="http://www.w3.org/2000/svg">
<g id="Vector">
<path fill-rule="evenodd" clip-rule="evenodd" d="M0.18113 13.3148C-0.0878205 14.0034 -0.0878205 14.5455 0.390313 15.029C0.853506 15.4979 1.51094 15.4686 2.33273 15.4686H11.9104C12.6425 15.4686 13.6286 15.5272 14.316 15.4686C15.0033 15.4246 14.5999 14.0181 14.5849 13.7104C14.4206 13.5639 14.316 13.3441 14.1815 13.1829C13.5539 12.5236 12.8218 12.6262 12.0299 12.6262C10.8346 12.6262 9.63922 12.6408 8.44388 12.6262L10.6702 8.81679C11.8058 6.95605 12.8965 4.99276 14.0171 3.13202C14.3608 2.57527 14.9734 1.82804 14.7194 1.02221C14.5102 0.377549 13.7781 -0.237813 12.8069 0.128474C12.2092 0.348246 11.7759 1.19803 11.477 1.78409C11.223 1.57897 11.0736 1.15408 10.8794 0.831744C10.0277 -0.574796 8.48871 0.0112623 8.18987 1.05152C7.96575 1.82804 8.60824 2.64853 8.93696 3.17598C9.77369 4.55322 9.90817 4.49461 9.54957 5.05136L7.30831 8.86075C6.83018 9.69588 5.39578 12.0255 5.11189 12.6262C4.15562 12.6262 3.21429 12.6262 2.25802 12.6262C1.01786 12.6262 0.823622 12.5676 0.18113 13.3001V13.3148Z" fill="#FDFEFF"/>
<path fill-rule="evenodd" clip-rule="evenodd" d="M15.0929 13.6664C16.0193 15.2341 16.9905 16.8458 17.9169 18.4574C18.3353 19.19 18.8582 20.3328 20.1133 19.9079C20.5765 19.7468 20.9202 19.4391 21.0397 18.9409C21.219 18.2377 20.8903 17.93 20.6662 17.4612L19.5157 15.4979C20.2926 15.4099 21.6075 15.6297 22.2201 15.322C22.7879 15.029 23.2511 14.2818 22.8477 13.432C22.4741 12.6701 21.8017 12.6555 20.7409 12.6555C19.7996 12.6555 18.8433 12.6555 17.902 12.6555C17.6928 12.5383 15.9894 9.53471 15.7205 9.08052L13.5689 5.49091C12.6425 6.01836 12.0598 8.30399 12.9264 9.94495C13.2551 10.575 13.6436 11.205 14.0022 11.8057L15.0929 13.6664Z" fill="#FDFEFF"/>
<path fill-rule="evenodd" clip-rule="evenodd" d="M5.90379 16.8897C5.6199 16.5967 5.29119 16.2451 4.70846 16.0693C4.24527 15.9227 3.27406 15.8641 3.00511 16.2011C2.88557 16.3623 2.73616 16.67 2.61662 16.8458C2.16837 17.593 1.6753 18.2377 1.91437 18.9849C2.24308 20.0252 3.73725 20.3475 4.43951 19.4098L5.91874 16.8751L5.90379 16.8897Z" fill="#FDFEFF"/>
</g>
</svg>
