<svg width="28" height="28" viewBox="0 0 28 28" fill="none" xmlns="http://www.w3.org/2000/svg">
<g id="Vector">
<path d="M13.9992 27.9984C21.7307 27.9984 27.9984 21.7307 27.9984 13.9992C27.9984 6.26765 21.7307 0 13.9992 0C6.26765 0 0 6.26765 0 13.9992C0 21.7307 6.26765 27.9984 13.9992 27.9984Z" fill="#124285"/>
<path fill-rule="evenodd" clip-rule="evenodd" d="M8.98107 13.8834C8.90931 14.1704 8.97129 14.477 9.10175 14.7135C9.2469 14.9761 9.36595 15.0429 9.63341 15.2044C10.8745 15.9529 12.2265 16.6884 13.5132 17.4484C13.9437 17.7028 14.3596 17.9409 14.8097 18.1954C15.4131 18.5362 15.8551 18.4351 16.2498 18.0029C16.6036 17.6148 16.4895 16.7961 16.4895 16.2008C16.4895 15.1408 16.5824 10.5875 16.3786 10.1879C16.1764 9.78997 15.6284 9.4214 15.0136 9.69864L11.2496 12.0617C10.8272 12.3178 10.413 12.5803 10.0003 12.8543C9.56002 13.1446 9.12948 13.2996 8.98107 13.885V13.8834Z" fill="white"/>
</g>
</svg>
