<svg width="28" height="28" viewBox="0 0 28 28" fill="none" xmlns="http://www.w3.org/2000/svg">
<g id="Vector">
<path d="M13.9992 -7.62939e-05C6.26769 -7.62939e-05 4.57764e-05 6.26757 4.57764e-05 13.9991C4.57764e-05 21.7306 6.26769 27.9983 13.9992 27.9983C21.7308 27.9983 27.9984 21.7306 27.9984 13.9991C27.9984 6.26757 21.7308 -7.62939e-05 13.9992 -7.62939e-05Z" fill="#124285"/>
<path fill-rule="evenodd" clip-rule="evenodd" d="M19.0173 14.1149C19.0891 13.8279 19.0271 13.5213 18.8967 13.2848C18.7515 13.0222 18.6325 12.9554 18.365 12.7939C17.1239 12.0454 15.772 11.3098 14.4852 10.5499C14.0547 10.2955 13.6388 10.0573 13.1887 9.80294C12.5853 9.46209 12.1433 9.5632 11.7487 9.99538C11.3948 10.3835 11.5089 11.2022 11.5089 11.7975C11.5089 12.8575 11.416 17.4108 11.6198 17.8104C11.822 18.2083 12.37 18.5769 12.9848 18.2996L16.7488 15.9366C17.1712 15.6805 17.5855 15.4179 17.9981 15.144C18.4384 14.8537 18.8689 14.6987 19.0173 14.1133V14.1149Z" fill="white"/>
</g>
</svg>
