<svg width="42" height="47" viewBox="0 0 42 47" fill="none" xmlns="http://www.w3.org/2000/svg">
<path id="5 bagage" fill-rule="evenodd" clip-rule="evenodd" d="M29.5373 28.5505H33.0019V30.7193H29.5373V28.5505ZM8.91012 31.471C8.91012 31.746 8.99298 31.8298 9.12504 32.0027C9.27523 32.1965 9.33996 32.3039 9.65069 32.3039H17.4888C18.4779 32.3039 18.4779 30.7193 17.4888 30.7193H9.65069C9.23898 30.7193 8.90753 31.1279 8.90753 31.471H8.91012ZM24.752 35.6435C24.752 36.1987 25.2622 36.479 25.4123 36.479H34.2396C34.2396 37.4429 34.0273 38.4827 35.0656 38.4827C36.0237 38.4827 35.8088 37.0657 35.8088 36.479C36.5571 36.479 37.7897 36.6781 37.7897 35.6435C37.7897 35.2296 37.4556 34.8917 37.0465 34.8917H25.4952C25.0861 34.8917 24.752 35.2296 24.752 35.6435ZM6.84637 23.5849H17.3257C17.3257 24.2083 17.1988 25.5048 18.1517 25.5048C19.1382 25.5048 18.9777 24.2869 18.9777 23.5849C20.0057 23.5849 21.2046 23.8154 21.2046 22.7494C21.2046 22.2936 20.912 21.9977 20.4614 21.9977H6.68324C6.21715 21.9977 5.9375 22.3879 5.96339 22.8253C5.98669 23.2208 6.40618 23.5849 6.84637 23.5849ZM5.11407 27.3823V42.2387C5.11407 42.7338 5.62936 42.9905 5.94009 42.9905H20.4614C20.4614 45.0047 20.653 44.4494 20.8731 45.4107C17.2972 45.4107 13.7212 45.4107 10.1479 45.4107C8.67449 45.4107 6.0592 45.5861 4.93799 45.2561C3.73651 44.9025 2.6412 43.6165 2.6412 42.0711V21.9165C2.6412 20.8373 3.16166 19.8865 3.75981 19.3758C4.54699 18.7026 5.20729 18.4957 6.60297 18.4957C8.74181 18.4957 20.9664 18.3517 22.1368 18.6398C23.3512 18.9384 24.5061 20.3737 24.5061 21.5V30.7219C23.1984 30.7219 23.1155 30.604 22.1135 31.1383C22.1135 30.6119 22.173 27.6311 22.0694 27.2618C22.0021 27.0261 21.9633 26.9947 21.8027 26.8637C21.7173 26.793 21.4868 26.6332 21.3703 26.6332H15.3474C14.322 26.6332 14.2624 28.2179 15.2645 28.2179H20.4614V41.4058H6.68324V28.2179H11.8802C12.9573 28.2179 12.7424 26.6332 11.963 26.6332H5.94009C5.69668 26.6332 5.5698 26.7196 5.40408 26.8401C5.20729 26.9842 5.11666 27.0785 5.11666 27.3823H5.11407ZM17.4914 15.6306C17.9342 15.5259 18.452 15.484 18.8948 15.3792L18.8948 16.9085H17.4914L17.4914 15.6306ZM11.3027 15.7983H15.8419L15.8419 16.9111H11.3027L11.3027 15.7983ZM8.24981 15.3818C8.71332 15.4918 9.26745 15.5232 9.73613 15.6333L9.73614 16.9111H8.24983L8.24981 15.3818ZM5.85721 10.3738H21.2046C21.7017 10.3738 24.5501 12.1287 25.2466 12.2937C25.055 12.5583 25.1275 12.4168 24.7261 12.519L20.0005 13.5824C15.7228 14.376 11.6445 14.4782 7.36165 13.6086L1.9783 12.3775C2.18545 12.092 4.36313 11.1648 4.84994 10.8584C4.94834 10.7955 5.80284 10.3738 5.85721 10.3738ZM20.13 6.78543C20.306 7.15736 20.4277 8.2103 20.5417 8.70534H6.68064C6.68064 8.14744 6.89815 7.26999 7.0095 6.78543H20.13ZM8.4984 2.52914H18.7291C19.5707 2.52914 19.4567 3.52184 19.6561 4.34428C19.7131 4.58525 19.8011 4.75813 19.8011 5.11696H7.34353L7.65167 3.59256C7.76042 3.00061 7.84328 2.52914 8.4984 2.52914ZM0 12.2937C0 13.8469 0.98656 13.8495 1.97571 14.0512L5.82614 14.9156C6.16276 14.9811 6.68582 14.9784 6.68582 15.298L6.68583 16.9111C4.9587 16.9111 3.96697 17.008 2.58941 18.2757C1.83589 18.9698 1.07461 20.3737 1.07461 21.4188V42.4928C1.07461 44.5987 3.28596 47.0005 5.61382 47.0005H21.6215C22.0979 47.0005 22.0953 46.9193 22.4811 46.8879C22.7634 46.8643 22.9265 47.0005 23.3538 47.0005H39.1957C40.5888 47.0005 42 45.56 42 44.1639V41.2434C42 40.2848 40.4826 40.1695 40.4283 41.4058C40.3687 42.7312 40.9358 45.4159 38.9471 45.4159H23.5998C22.7246 45.4159 22.1135 44.6144 22.1135 44.0801V33.6476C22.1135 33.2049 22.7038 32.3118 23.7629 32.3118H38.7788C39.5064 32.3118 39.8845 32.6078 40.1978 33.0452C40.5733 33.5716 40.4308 36.3376 40.4283 37.1522C40.4257 37.4822 40.3169 38.5718 41.1714 38.5718C41.6245 38.5718 41.9974 38.281 41.9974 37.8201V33.6476C41.9974 32.8749 41.508 32.0184 41.1144 31.6203C40.726 31.2274 39.856 30.7271 39.1102 30.7271H34.571V28.3069C34.571 27.7333 33.8175 26.9711 33.2504 26.9711H29.2913C28.6336 26.9711 27.8878 27.8093 27.8878 28.6396V30.7271H26.1555C26.1555 28.5008 26.2643 22.6289 26.0701 21.0914C25.8862 19.6377 24.7313 18.0504 23.3486 17.4166C22.1523 16.8692 21.9218 16.9137 20.4614 16.9137L20.4614 15.3006C20.4614 14.9287 21.4816 14.9365 22.2947 14.7349C22.6546 14.6458 22.81 14.5803 23.2191 14.4991L25.1741 14.0565C25.5392 13.9884 25.8655 13.9622 26.2021 13.8443C26.5076 13.7395 26.6941 13.5824 26.8753 13.3571C27.5589 12.5111 27.1265 11.4294 26.2591 11.0181C25.894 10.8453 25.7645 10.806 25.4279 10.6069L22.9369 9.37063C21.6758 8.64509 22.3672 8.94369 21.8079 6.84043C21.5127 5.72987 21.1631 2.5239 20.565 1.83766C20.2051 1.42644 19.6975 0.941876 18.9751 0.941876H8.33268C6.62885 0.941876 6.25339 2.39818 6.0307 3.53755L5.03379 8.62152C4.93021 9.13489 4.88101 9.04322 4.43046 9.26324L1.12898 10.9317C0.598151 11.1962 0.0025894 11.542 0.0025894 12.2963L0 12.2937Z" fill="#FAC06C"/>
</svg>
