<svg width="21" height="16" viewBox="0 0 21 16" fill="none" xmlns="http://www.w3.org/2000/svg">
<path id="Vector" fill-rule="evenodd" clip-rule="evenodd" d="M5.90606 12.709C5.30351 12.709 3.65054 12.6016 3.13289 12.46C2.73741 12.3518 2.47447 12.1179 2.26059 11.8467C1.87807 11.3615 1.92755 10.7701 1.92755 10.1361C1.92755 7.9574 4.18814 8.59326 5.74798 8.42649C6.12617 8.38602 6.4573 8.46071 6.84938 8.45984C8.0652 8.45723 9.79975 8.31575 9.80257 9.9802C9.80291 10.2024 9.85845 10.2969 9.83924 10.4798C9.8217 10.6465 9.8128 10.7782 9.80291 10.9942C9.77663 11.5674 9.42621 12.0565 8.94465 12.3226C8.34643 12.653 6.66627 12.709 5.90606 12.709ZM20.9998 7.0687V9.66294C20.9905 9.84204 20.9558 9.90851 20.958 10.1354C20.9615 10.4947 20.901 10.789 20.8781 11.1119C20.7492 12.9263 20.3106 14.2825 18.567 15.2697C18.0897 15.5399 17.5297 15.7401 16.8869 15.817C16.7027 15.839 16.5286 15.8617 16.3649 15.8665C16.1346 15.8733 16.0733 15.9018 15.8736 15.9063C15.6319 15.9118 15.5308 15.935 15.3398 15.9448C14.9525 15.9644 14.0742 15.9544 13.7574 16L7.20745 15.9942C6.88929 15.9527 6.45181 15.9829 6.1463 15.9503C5.50042 15.8814 4.91068 15.9366 4.04179 15.8064C2.34624 15.5525 0.944484 14.4694 0.414449 12.8997C0.0740918 11.8919 0.00989554 9.90575 0 8.31188V6.7833C0 6.06762 0.0620342 5.44986 0.126813 4.79867C0.310421 2.95141 0.773515 1.74649 2.48403 0.76271C3.19842 0.351795 4.30606 0.153411 5.16755 0.155625L9.43353 0C10.056 0.00221305 13.38 0.00727143 13.7575 0.0616491C14.0408 0.102353 15.0606 0.0942125 15.3788 0.119109C16.4707 0.204707 17.5189 0.200755 18.5156 0.763184C20.2587 1.74688 20.7106 3.00271 20.8758 4.83519C20.9363 5.5059 20.9778 6.28252 21 7.06862L20.9998 7.0687ZM11.4432 9.55127C11.4432 8.96623 11.8899 8.65459 12.5095 8.65459H14.9705C16.455 8.65459 16.234 10.3699 15.2165 10.3699H12.2634C11.8283 10.3699 11.4432 9.96756 11.4432 9.55127ZM12.2224 5.69187H17.9646C18.9685 5.69187 19.2125 7.40714 17.7185 7.40714H12.5505C11.9389 7.40714 11.5797 7.16679 11.4769 6.67012C11.3627 6.11812 11.8969 5.69187 12.2224 5.69187ZM3.44515 5.65291C3.44515 5.34032 3.54751 4.9358 3.65021 4.71726C4.17459 3.60086 5.5899 3.02342 6.79533 3.56024C8.33246 4.24486 8.6739 6.0873 7.51604 7.18307C5.84602 8.76358 3.44515 7.40216 3.44515 5.65291Z" fill="#CBD1DC"/>
</svg>
