<svg width="73" height="73" viewBox="0 0 73 73" fill="none" xmlns="http://www.w3.org/2000/svg">
<g id="4 1" clip-path="url(#clip0_16_55)">
<g id="&#208;&#161;&#208;&#187;&#208;&#190;&#208;&#185;_x0020_1">
<path id="Vector" fill-rule="evenodd" clip-rule="evenodd" d="M56.8796 64.4046C56.8796 64.2816 56.9014 64.2787 56.9253 64.1768H67.3667C67.4686 64.6141 67.4124 65.9666 67.4124 66.5023H56.8796V64.4046ZM39.6897 42.5146C39.4514 42.5146 39.1724 42.3839 39.0269 42.2658C38.8526 42.1237 38.6867 41.6801 38.6867 41.6478V39.4587C38.6867 39.356 38.7338 39.3307 38.8181 39.1339C39.1028 38.4682 40.2928 38.3557 40.6133 39.219C40.6541 39.3279 40.7384 39.4629 40.7384 39.5958V41.5114C40.7384 41.7265 40.5121 42.2496 40.1396 42.4169C40.0777 42.445 39.7677 42.5146 39.6897 42.5146ZM36.4522 39.1402V41.9677C36.4522 42.187 36.6673 42.7839 36.8079 43.0257C37.179 43.664 37.5663 44.0971 38.2488 44.457C38.3303 44.4999 38.3191 44.4893 38.3767 44.5111C38.6754 44.625 38.1644 44.4211 38.4442 44.535C38.4547 44.5392 38.4667 44.5435 38.4765 44.5484L39.3699 44.7951C40.1269 44.7951 40.4896 44.7804 41.1883 44.4254C41.4448 44.2946 41.4765 44.2749 41.6894 44.1055C41.8806 43.9536 41.9481 43.8812 42.1105 43.7062L42.3642 43.413C42.4036 43.3554 42.4254 43.3252 42.4563 43.2767L42.542 43.134C42.547 43.1255 42.554 43.1143 42.5589 43.1058C42.8872 42.5533 42.9715 41.9838 42.9715 41.3301C42.9715 40.5659 43.0017 39.7441 42.9237 39.0066L42.5413 37.9753L42.199 37.4966C42.1927 37.4896 42.1836 37.4797 42.1772 37.4727C42.1709 37.4657 42.1618 37.4558 42.1547 37.4495C42.1484 37.4425 42.1386 37.4333 42.1323 37.4263C42.1259 37.4193 42.1168 37.4094 42.1105 37.4031C41.9123 37.1887 41.5819 36.8766 41.3113 36.743L40.9999 36.5982C40.3532 36.3486 40.1838 36.3142 39.4599 36.3142C39.0445 36.3142 38.189 36.6291 37.825 36.9138L37.7757 36.956C37.7687 36.9623 37.7589 36.9715 37.7518 36.9778C37.6837 37.0382 37.7385 36.9947 37.6541 37.0629L37.2781 37.4165C36.9794 37.768 37.1052 37.5775 36.8226 38.0555C36.5935 38.4428 36.6511 38.4267 36.571 38.7156C36.5239 38.885 36.4494 38.9026 36.4494 39.1416L36.4522 39.1402ZM39.7354 22.0841C39.5639 22.0841 39.4528 22.0412 39.3305 21.9871C39.0951 21.883 38.913 21.7375 38.8125 21.502C38.7746 21.4134 38.6867 21.244 38.6867 21.1259V18.9824C38.6867 18.8784 38.9025 18.4903 39.0979 18.3448C39.4388 18.091 39.365 18.1613 39.9631 18.1613L40.3947 18.4137C40.465 18.4819 40.4397 18.4489 40.5051 18.5311C40.6168 18.671 40.5852 18.6724 40.6485 18.8439C40.8214 19.3107 40.7377 20.5213 40.7377 21.0802C40.7377 21.2208 40.5943 21.5962 40.4158 21.7614C40.2752 21.8914 39.9941 22.0834 39.7347 22.0834L39.7354 22.0841ZM36.4522 18.7554C36.4522 19.2201 36.4044 21.4816 36.4972 21.7656C36.5464 21.9168 36.5155 21.8022 36.5499 21.8957C36.5541 21.9062 36.559 21.9182 36.5626 21.9287C36.5661 21.94 36.5703 21.9519 36.5738 21.9632C36.5773 21.9751 36.5801 21.9871 36.5836 21.999C36.5872 22.011 36.5893 22.0236 36.5921 22.0356C36.6293 22.1783 36.6286 22.1797 36.687 22.3055C36.732 22.4018 36.7615 22.4995 36.8093 22.5937C37.0862 23.1421 37.6113 23.6377 38.1525 23.9407L38.3078 24.0131C38.3177 24.0173 38.3296 24.0222 38.3402 24.0265C38.3528 24.0321 38.3887 24.0504 38.4013 24.056C38.854 24.2697 39.152 24.3182 39.6897 24.3182C40.4966 24.3182 40.9584 24.146 41.6002 23.7206C42.0824 23.4008 42.6355 22.7027 42.7866 22.1705C42.8105 22.0862 42.807 22.0623 42.8316 21.9871C43.0741 21.2348 42.9736 20.148 42.9736 19.3473C42.9736 19.0309 42.9434 18.8826 42.9293 18.6162C42.9111 18.2689 42.6693 17.7199 42.4844 17.4197L42.3213 17.1722C41.9249 16.645 41.3781 16.2485 40.7553 16.0474C40.0988 15.8358 40.4643 15.9827 39.9491 15.8928C39.7516 15.8583 38.9981 15.9089 38.8013 15.994C38.3992 16.1676 38.1019 16.1796 37.5817 16.6443C36.8564 17.2917 36.7762 17.6664 36.5105 18.4004C36.4635 18.5304 36.4529 18.5909 36.4529 18.7533L36.4522 18.7554ZM9.86892 52.9127V50.7235C9.86892 50.41 10.0917 50.159 10.2984 50.0128C10.5303 49.849 10.9254 49.8546 11.2121 49.927C11.2269 49.9312 11.2691 49.9425 11.2831 49.9474L11.4005 50.0121C11.4082 50.0177 11.4188 50.0261 11.4258 50.0325C11.5755 50.1478 11.8293 50.4515 11.8293 50.6778V52.9127C11.8293 53.2002 11.6796 53.3703 11.5221 53.5179C11.4624 53.5742 11.4708 53.5742 11.3998 53.6234C11.1454 53.802 10.7876 53.7977 10.4861 53.7092L10.2977 53.6234C10.0953 53.4821 9.86822 53.2283 9.86822 52.9127H9.86892ZM7.54376 50.9063V52.7306L7.71386 53.7464C7.7715 53.9025 7.72792 53.7549 7.77642 53.8666C7.78064 53.8765 7.78626 53.8884 7.79048 53.8983L7.93598 54.254C7.9409 54.2631 7.94582 54.2758 7.95003 54.2849L8.21432 54.7046C8.24525 54.7482 8.23962 54.744 8.26985 54.7862L8.54187 55.1067C8.59669 55.1594 8.58685 55.1482 8.63887 55.1918C8.71689 55.2572 8.78507 55.3134 8.8659 55.3753L9.39658 55.7106C9.40572 55.7155 9.41696 55.7218 9.4261 55.7261C9.43875 55.7324 9.4753 55.7493 9.48866 55.7549L9.92023 55.9159C10.1304 55.9552 10.091 55.9538 10.2436 56.003C10.4994 56.0853 10.8234 56.0586 11.1004 56.0586C11.4413 56.0586 11.96 55.8807 12.2728 55.7268L12.4506 55.6305C12.5104 55.5988 12.5174 55.5981 12.5694 55.5665L13.1338 55.1278C13.1437 55.1187 13.1711 55.0927 13.1802 55.0828C13.2344 55.0287 13.2084 55.0554 13.2463 55.0125C13.3574 54.8874 13.4902 54.7285 13.5837 54.5746L13.7327 54.313C13.9141 53.9658 13.9689 53.8104 14.0307 53.4258C14.0673 53.2009 14.1544 53.0582 14.1544 52.7292V50.9049C14.1544 50.5921 14.0884 50.4972 14.0378 50.2462C14.0054 50.088 14.0371 50.0297 13.985 49.8891L13.8128 49.4687C13.8065 49.456 13.7861 49.423 13.7791 49.411L13.5197 48.9864C13.1493 48.417 12.62 48.095 12.0085 47.8075L11.778 47.7189C11.1313 47.5987 11.4343 47.5755 10.5992 47.5755C10.2801 47.5755 9.66227 47.7969 9.37268 47.9453L8.8912 48.2391C8.78858 48.3151 8.76046 48.3404 8.66347 48.4219C8.34717 48.689 8.11381 49.0511 7.91981 49.411C7.73143 49.7604 7.54376 50.5316 7.54376 50.9049V50.9063ZM61.1658 52.9127V50.7235C61.1658 50.41 61.3886 50.159 61.5953 50.0128C61.8272 49.849 62.2222 49.8546 62.509 49.927C62.5238 49.9312 62.566 49.9425 62.58 49.9474L62.6974 50.0121C62.7051 50.0177 62.7157 50.0261 62.7227 50.0325C62.8724 50.1478 63.1262 50.4515 63.1262 50.6778V52.9127C63.1262 53.2002 62.9764 53.3703 62.819 53.5179C62.7593 53.5742 62.7677 53.5742 62.6967 53.6234C62.4423 53.802 62.0845 53.7977 61.7829 53.7092L61.5946 53.6234C61.3921 53.4821 61.1651 53.2283 61.1651 52.9127H61.1658ZM58.8406 50.9063V52.7306L59.0107 53.7464C59.0684 53.9025 59.0248 53.7549 59.0733 53.8666C59.0775 53.8765 59.0831 53.8884 59.0867 53.8983L59.2322 54.254C59.2371 54.2631 59.242 54.2758 59.2462 54.2849L59.5105 54.7046C59.5414 54.7482 59.5358 54.744 59.566 54.7862L59.838 55.1067C59.8929 55.1594 59.883 55.1482 59.935 55.1918C60.0131 55.2572 60.0812 55.3134 60.1621 55.3753L60.6928 55.7106C60.7019 55.7155 60.7131 55.7218 60.7223 55.7261C60.7349 55.7324 60.7715 55.7493 60.7848 55.7549L61.2164 55.9159C61.4266 55.9552 61.3872 55.9538 61.5397 56.003C61.7956 56.0853 62.1196 56.0586 62.3966 56.0586C62.7375 56.0586 63.2562 55.8807 63.569 55.7268L63.7468 55.6305C63.8066 55.5988 63.8136 55.5981 63.8656 55.5665L64.43 55.1278C64.4399 55.1187 64.4673 55.0927 64.4764 55.0828C64.5305 55.0287 64.5045 55.0554 64.5425 55.0125C64.6535 54.8874 64.7864 54.7285 64.8799 54.5746L65.0289 54.313C65.2102 53.9658 65.2651 53.8104 65.3269 53.4258C65.3635 53.2009 65.4506 53.0582 65.4506 52.7292V50.9049C65.4506 50.5921 65.3846 50.4972 65.3339 50.2462C65.3016 50.088 65.3332 50.0297 65.2812 49.8891L65.109 49.4687C65.1027 49.456 65.0823 49.423 65.0753 49.411L64.8159 48.9864C64.4455 48.417 63.9162 48.095 63.3047 47.8075L63.0742 47.7189C62.4275 47.5987 62.7304 47.5755 61.8954 47.5755C61.5763 47.5755 60.9585 47.7969 60.6689 47.9453L60.1874 48.2391C60.0848 48.3151 60.0566 48.3404 59.9596 48.4219C59.6433 48.689 59.41 49.0511 59.216 49.411C59.0276 49.7604 58.8399 50.5316 58.8399 50.9049L58.8406 50.9063ZM40.2373 63.8576L40.4432 63.2432C40.5613 63.0211 40.7314 62.8193 40.9198 62.671C41.106 62.5248 41.1581 62.5142 41.3738 62.4411C41.9439 62.2478 42.4584 62.2843 42.9877 62.6569L43.5507 63.3705C43.796 63.9153 43.7025 65.8703 43.7025 66.5023H40.2373V63.8569V63.8576ZM29.294 64.0854C29.294 63.9631 29.4107 63.4401 29.4957 63.284C29.5744 63.1406 29.5618 63.1026 29.6602 62.9923L30.1508 62.5712C30.1592 62.5662 30.1698 62.5585 30.1782 62.5529C30.6738 62.2506 31.4012 62.252 31.8813 62.5458L32.0465 62.6548C32.2714 62.8081 32.3614 62.9402 32.4949 63.1638C32.4999 63.1722 32.5069 63.1842 32.5118 63.1926L32.6454 63.5146C32.6953 63.6706 32.7585 63.6903 32.7585 63.8576V66.503H29.2933V64.0861L29.294 64.0854ZM5.5834 64.4046C5.5834 64.2816 5.60519 64.2787 5.62909 64.1768H16.0705C16.1724 64.6141 16.1162 65.9666 16.1162 66.5023H5.5834V64.4046ZM56.8796 60.072C56.8796 59.9673 56.9112 59.9349 57.0166 59.9349H67.276C67.3808 59.9349 67.4131 59.9665 67.4131 60.072V61.942H56.8803V60.072H56.8796ZM5.5834 60.072C5.5834 59.9673 5.61503 59.9349 5.72047 59.9349H15.9798C16.0846 59.9349 16.1169 59.9665 16.1169 60.072V61.942H5.58411V60.072H5.5834ZM27.0595 63.5378V66.5023H18.3964V58.7954C18.4983 58.7715 18.5011 58.7497 18.6241 58.7497H54.3717C54.4947 58.7497 54.4975 58.7715 54.5994 58.7954V66.5023H45.9363C45.9363 65.9238 46.0059 63.6411 45.8688 63.2404C45.7999 63.0394 45.8337 63.0724 45.7866 62.8664L45.2201 61.7458C44.7779 61.1687 44.2817 60.6667 43.5669 60.3898L43.5008 60.3644C43.0643 60.1739 43.2864 60.3012 43.0516 60.221C42.9532 60.1873 42.9666 60.1662 42.8619 60.1374C42.5596 60.0537 41.3218 60.0305 40.9134 60.2006C40.6977 60.2906 40.7448 60.2175 40.529 60.3173L40.1276 60.5086C40.0784 60.5325 40.0819 60.5247 40.032 60.5493C39.8001 60.6625 39.3334 61.0414 39.1773 61.1996C38.9461 61.433 38.7521 61.6509 38.5876 61.9321C38.5827 61.9406 38.5763 61.9525 38.5707 61.961C38.1799 62.6211 38.0035 63.1877 38.0035 63.9926V66.5009H34.9944C34.9944 65.9779 35.0415 63.5132 34.9171 63.1118C34.8187 62.794 34.6648 62.3638 34.4968 62.0727C34.4918 62.0643 34.4848 62.053 34.4792 62.0446L34.4265 61.9603C34.4216 61.9518 34.4152 61.9399 34.4096 61.9314C34.3499 61.8302 34.371 61.8569 34.3042 61.7634C34.0764 61.4471 33.8916 61.2594 33.6097 60.9986L33.1058 60.6365C33.0242 60.5782 33.1114 60.633 33.0263 60.5796L32.6243 60.3883C32.0219 60.1542 31.8096 60.0706 31.0273 60.0706C30.7433 60.0706 30.2654 60.0713 30.0011 60.1845C29.8675 60.2421 29.9898 60.2077 29.8338 60.2449C29.585 60.3047 29.6981 60.2731 29.495 60.3623L29.1892 60.5128C29.0705 60.5817 29.0156 60.6077 28.8983 60.6773L28.3479 61.0843C28.1806 61.239 28.0421 61.3641 27.9107 61.5588C27.903 61.5701 27.8819 61.6024 27.8741 61.6137L27.3498 62.503C27.2739 62.7033 27.0609 63.3775 27.0609 63.5364L27.0595 63.5378ZM5.5834 57.5637V46.0718C5.5834 45.967 5.61503 45.9347 5.72047 45.9347H15.9798C16.0846 45.9347 16.1169 45.9663 16.1169 46.0718V57.5637C16.1169 57.6684 16.0853 57.7008 15.9798 57.7008H5.72047C5.61574 57.7008 5.5834 57.6692 5.5834 57.5637ZM18.3964 56.4234V54.5078H54.6001V56.4234C54.6001 56.5282 54.5685 56.5605 54.463 56.5605H18.5327C18.428 56.5605 18.3957 56.5289 18.3957 56.4234H18.3964ZM22.5455 52.1366V48.488C22.5455 48.3832 22.5772 48.3509 22.6826 48.3509H28.6101L28.6558 52.2729H22.6826C22.5779 52.2729 22.5455 52.2413 22.5455 52.1358V52.1366ZM18.3964 52.1366V45.9797C18.3964 45.7013 18.5623 45.6908 18.6874 45.6324L19.5864 44.9814C19.5927 44.9751 19.6025 44.9653 19.6096 44.9589C19.6159 44.9519 19.6257 44.9428 19.6321 44.9357C19.8127 44.7473 20.1149 44.3663 20.1747 44.1104L20.2661 52.2736H18.5334C18.4287 52.2736 18.3964 52.242 18.3964 52.1366ZM30.8446 48.6708H48.5363C48.5363 49.842 48.4449 51.0054 48.4449 52.2736H30.9816C30.9816 51.9165 30.9345 51.7155 30.9345 51.4089C30.9338 51.0891 30.9359 50.7692 30.9359 50.4494L30.8881 49.1291C30.8734 48.9485 30.8453 48.9084 30.8453 48.6708H30.8446ZM48.5363 46.4359H31.8476C31.416 46.4359 30.8446 46.5231 30.8446 46.2989V42.8788C30.8446 41.8559 30.9324 40.8682 30.9338 39.7307C30.9345 39.4566 30.9795 39.4003 30.983 39.1409C30.9886 38.7128 30.957 38.2355 30.9795 37.8151C30.9915 37.5852 31.0779 37.5107 31.1081 37.3054L31.118 34.0772C31.1166 33.5746 31.2094 33.2828 31.2094 32.8463H48.1715C48.1912 33.0867 48.2615 33.2983 48.2643 33.5739L48.3535 35.9929C48.4667 36.9841 48.4449 38.1293 48.4449 39.2309C48.4449 40.3283 48.5363 41.3905 48.5363 42.4689C48.5363 42.9301 48.6495 46.1829 48.5363 46.4366V46.4359ZM22.5462 46.0254V44.1097H28.6108V46.1618H22.6833C22.5786 46.1618 22.5462 46.1301 22.5462 46.0247V46.0254ZM17.3941 43.6999H4.35335C4.13826 43.6999 3.83602 43.5304 3.67787 43.3266C3.45154 43.0341 3.38828 42.7902 3.49442 42.3403C3.52534 42.2088 3.5626 42.187 3.64694 42.0823L3.855 41.8798C4.06305 41.7265 4.44261 41.6478 4.71744 41.6478H16.9829C17.6605 41.6478 17.917 41.9079 18.0864 42.1406C18.3106 42.4485 18.2656 42.9582 18.1581 43.1431L18.0035 43.3533C17.9409 43.4299 17.9845 43.3793 17.9381 43.425C17.8045 43.5558 17.4889 43.7013 17.3934 43.7013L17.3941 43.6999ZM20.2211 36.7683C20.3314 37.2421 20.2668 40.4077 20.2668 41.1466C20.2668 41.2752 20.2471 41.2309 20.1754 41.2837C20.077 40.8605 19.5899 40.3684 19.256 40.1054C19.1021 39.9838 19.2511 40.0246 19.0353 40.0063L19.3495 39.3624C19.3959 39.271 19.3537 39.3666 19.3973 39.2731C19.436 39.1894 19.4345 39.1655 19.4725 39.0748L19.7241 38.5054C19.9118 37.8938 20.0341 37.7834 20.1543 37.0207C20.1543 37.0193 20.1754 36.9068 20.1754 36.9054L20.2211 36.769V36.7683ZM12.561 39.4587C8.55452 39.4587 9.7178 39.6035 9.39939 38.8808C9.2307 38.4984 9.38744 38.542 9.2792 38.1799C9.2314 38.0203 9.20329 38.0414 9.18712 37.8615C9.16182 37.5718 9.20891 37.555 9.1337 37.0938C9.10488 36.9145 9.04935 36.9405 9.04935 36.7676V35.0347C9.04935 34.866 9.17658 34.5588 9.18571 34.0765L9.35511 33.1057C9.45914 32.8027 9.39447 33.1514 9.46687 32.6698C9.4978 32.4617 9.55754 32.5004 9.59479 32.2508C9.63626 31.9746 9.6679 32.0259 9.72131 31.8304L10.006 30.9756C10.0362 30.8821 10.0278 30.8645 10.065 30.7605L10.4896 29.6807C10.6091 29.4058 11.0357 28.3415 11.0554 28.1031C11.2951 28.3787 11.1559 28.2339 11.3492 28.7218C11.3865 28.8153 11.3928 28.8673 11.4293 28.9608C11.4722 29.0691 11.4321 28.9608 11.4715 29.0557L11.9474 30.267C11.9607 30.3084 11.9656 30.3345 11.9797 30.371L12.8253 33.0818C12.8646 33.3194 12.9152 33.3468 12.9525 33.5929C13.0994 34.5672 13.1521 34.7198 13.1521 35.8558C13.1521 36.5349 13.1233 37.1528 12.989 37.7905C12.9581 37.9367 12.9701 38.092 12.9455 38.2488L12.7747 39.1269C12.7437 39.2646 12.7107 39.458 12.5589 39.458L12.561 39.4587ZM26.8325 36.9961V34.8983C26.8325 34.7683 26.8957 34.667 26.952 34.5616C27.3168 33.879 28.2664 33.8593 28.6839 34.5061C28.9116 34.859 28.745 36.2403 28.7478 36.9047C28.7485 37.0087 28.7598 37.2674 28.7415 37.3546L28.2516 37.8678C27.5494 38.1595 26.8332 37.6288 26.8332 36.9961H26.8325ZM55.7409 32.8463H68.5539L69.0143 32.9791C69.3615 33.131 69.5309 33.4944 69.5386 33.8558C69.5414 33.9647 69.5232 34.2073 69.4494 34.3345C69.4494 34.3352 69.398 34.4097 69.3938 34.4154L69.2237 34.6101C69.2167 34.6164 69.2062 34.6249 69.1991 34.6312C69.0761 34.7338 68.7612 34.8983 68.5996 34.8983H55.6959C55.4956 34.8983 55.1441 34.7022 55.0218 34.5693C54.7941 34.3233 54.7505 34.1742 54.7576 33.8551C54.7695 33.2758 55.0486 33.0537 55.5251 32.9025C55.6369 32.8667 55.5989 32.8463 55.7423 32.8463H55.7409ZM24.553 35.0811V36.9054L24.6985 37.9001C24.8285 38.182 24.7484 38.1075 24.9269 38.4471L25.0788 38.7058C25.2488 38.987 25.4632 39.2365 25.7128 39.4397C25.7149 39.4411 25.762 39.4784 25.7641 39.4798L25.9468 39.6161C26.1514 39.7638 26.6476 40.0401 26.8458 40.085C27.5522 40.2453 27.3364 40.2348 28.1553 40.2348C28.428 40.2348 28.4273 40.1469 28.6115 40.0977C28.6501 40.561 28.6115 41.3701 28.6115 41.8763H22.684C22.5793 41.8763 22.5469 41.8447 22.5469 41.7392V30.2473C22.5469 30.1425 22.5786 30.1102 22.684 30.1102H26.2406C26.4311 30.1102 26.3194 30.132 26.3679 30.2107C26.3742 30.2206 26.4058 30.3028 26.4072 30.3077C26.4164 30.3316 26.436 30.3879 26.4431 30.409C26.5091 30.6241 26.4937 30.6234 26.5815 30.8181L26.9829 31.512C27.2282 31.829 27.1987 31.635 27.1663 31.7777C27.1319 31.9296 27.0588 31.8206 26.5921 32.0118C26.4852 32.0554 26.507 32.0357 26.3967 32.0898L26.0508 32.2916C25.6509 32.5756 25.5174 32.6867 25.2313 33.0677L24.8299 33.7152C24.6521 34.1222 24.669 34.3345 24.6205 34.6003C24.5818 34.8105 24.5544 34.8428 24.5544 35.0811H24.553ZM14.2936 29.8824L15.6495 31.2624C15.9433 31.5661 16.59 32.3225 16.7931 32.6719C16.8472 32.7647 16.8107 32.7162 16.8788 32.8139C16.9505 32.9173 17.0124 32.9827 17.0728 33.0762L17.3983 33.6632C17.5382 33.9162 17.9037 34.7493 17.9367 34.9946C17.9564 35.1409 17.9423 35.2639 17.9662 35.4214C18.0597 36.0358 17.9711 35.9901 17.9423 36.6326C17.9339 36.8238 17.5803 37.8024 17.477 38.0365C17.4327 38.1363 17.3688 38.253 17.309 38.3704C17.2577 38.4717 17.2113 38.5701 17.1572 38.6741L16.8247 39.2541C16.7347 39.3933 16.7418 39.4587 16.5281 39.4587H15.0232C15.0232 38.9856 15.1483 39.1437 15.1603 38.729C15.1701 38.3831 15.2285 38.4 15.2798 38.1188C15.3205 37.8973 15.2833 37.6639 15.3212 37.4305C15.362 37.1782 15.4337 37.008 15.4337 36.7676C15.4337 35.7904 15.5054 35.1971 15.3297 34.3176C15.2903 34.1194 15.3233 33.8059 15.2699 33.602C15.0921 32.9285 15.2221 33.3995 15.1497 32.9468C15.1336 32.8463 15.0851 32.7725 15.0555 32.6761C15.0085 32.5243 15.0408 32.4695 15.0056 32.3162C14.9649 32.1384 14.9339 32.1777 14.903 32.054C14.8601 31.886 14.9009 31.8818 14.8334 31.713C14.7624 31.5352 14.7913 31.6983 14.7435 31.4382C14.6823 31.1049 14.5593 30.8547 14.4602 30.5355C14.4096 30.3724 14.4145 30.3731 14.3534 30.2318C14.2789 30.0596 14.2936 30.1116 14.2936 29.881V29.8824ZM6.81557 34.7619C6.81557 35.3651 6.78183 37.0136 6.86758 37.5824C6.89008 37.7293 6.91608 37.7131 6.93998 37.8298C6.97934 38.0239 6.95685 38.3676 7.02081 38.6151C7.06228 38.7754 7.05736 38.6741 7.08829 38.8667C7.10094 38.9448 7.16209 39.368 7.16139 39.3715C7.12765 39.51 6.89008 39.4615 6.67921 39.4594C6.28418 39.4559 5.88846 39.4587 5.49343 39.4587L4.88684 38.3325C4.88192 38.3226 4.877 38.3107 4.87278 38.3015C4.86786 38.2924 4.86224 38.2805 4.85732 38.2713L4.47003 37.2906C4.40817 37.0685 4.39622 37.1711 4.35194 36.9525C4.32382 36.814 4.32664 36.7156 4.28446 36.5637C4.18114 36.1947 4.17762 35.7806 4.21909 35.3567L4.98946 33.3454C5.25164 32.8653 5.45337 32.6614 5.72539 32.2572C5.73312 32.2459 5.7535 32.2129 5.76123 32.2016L7.17615 30.6072C7.20848 30.5742 7.20708 30.577 7.24504 30.539L7.95566 29.836C7.95566 30.1074 7.96058 29.9696 7.88466 30.1299L7.26823 32.1587C7.22817 32.4329 7.16983 32.4906 7.12133 32.7415L6.98989 33.3855C6.92381 33.7538 6.99832 33.7173 6.8957 34.0667C6.83174 34.2832 6.81627 34.5011 6.81627 34.7619H6.81557ZM49.4486 30.6121H29.9329C29.7206 30.6121 29.5976 30.5854 29.4149 30.5376C29.114 30.4582 28.8505 30.3408 28.7197 30.0476C28.5074 29.5724 28.5264 29.571 28.667 29.2097C28.745 29.0093 28.7717 28.8617 29.0747 28.7056C29.1386 28.6726 29.3509 28.5608 29.3861 28.5608H50.0412L50.5234 28.8539C50.6696 28.9981 50.7497 29.2026 50.8094 29.3924C50.8671 29.5745 50.8551 29.6371 50.7869 29.8065C50.7335 29.9394 50.6984 30.0413 50.6239 30.1468L50.3497 30.4202C50.2359 30.4863 50.0707 30.5116 49.9301 30.5475C49.7481 30.5939 49.6532 30.6135 49.4486 30.6135V30.6121ZM68.0063 30.6121H65.2636H65.2468L57.6007 30.6213C56.8522 30.6431 56.8332 30.6768 56.6631 30.383C55.4373 28.7787 55.1449 27.1689 55.7859 25.5541C55.8238 25.4254 55.8021 25.4936 55.8295 25.4486C55.9047 25.2701 55.9911 25.0915 56.0895 24.9129L56.169 24.7484C56.1739 24.7386 56.1788 24.7266 56.183 24.7168L56.8156 23.7073C56.8212 23.6996 56.8297 23.689 56.8353 23.6813C56.8409 23.6735 56.8494 23.663 56.855 23.6553C56.8606 23.6475 56.8683 23.6363 56.874 23.6286C57.1867 23.185 57.5558 22.7962 57.9079 22.3828L58.298 21.9519C58.3247 21.9252 58.3325 21.9175 58.3662 21.8837L60.8931 19.1666C61.1897 18.7708 61.4463 18.368 61.636 17.9033L61.6796 17.8098C61.7773 17.606 61.7274 17.6285 61.7928 17.4211C61.9945 16.7778 61.8012 16.7567 61.9692 16.503C62.1274 16.2646 62.315 16.2928 62.58 16.2928C62.8401 16.2928 62.9026 16.7638 62.9322 16.9894C62.9814 17.3733 63.0657 17.677 63.2056 17.9947C63.4312 18.406 63.6702 18.7933 63.9218 19.1561L63.9478 19.1652L63.9394 19.1814C64.4701 19.942 65.0591 20.5958 65.7058 21.1421C65.7205 21.1533 65.7339 21.1653 65.7479 21.1772L65.7486 21.1779C65.7676 21.1948 65.7859 21.2124 65.8035 21.2299C67.2085 22.5727 68.201 23.8303 68.7809 25.0022L68.7915 25.024C68.8498 25.1421 68.9032 25.2595 68.9531 25.3762C69.0965 25.7087 69.2146 26.0546 69.2413 26.4117C69.3214 27.4718 69.3109 27.4191 69.0874 28.4096L68.362 30.0104C68.3571 30.0188 68.35 30.0308 68.3451 30.0392L68.0056 30.6114L68.0063 30.6121ZM36.727 11.9145C37.2317 11.7971 41.5931 11.8688 42.4725 11.8688C42.7417 11.8688 42.7719 12.1191 42.8562 12.3061C42.8604 12.3159 42.8654 12.3286 42.8696 12.3384L43.4474 13.5848C43.4902 13.691 43.5036 13.717 43.5437 13.8077L44.049 14.9894C44.2775 15.5181 44.5368 16.0537 44.7161 16.6028L45.3894 18.3919C45.4309 18.4995 45.4204 18.5283 45.459 18.6415C45.5012 18.7645 45.516 18.742 45.5462 18.8278C45.587 18.9438 45.5638 18.967 45.608 19.0858C45.6572 19.2179 45.6516 19.1406 45.6952 19.2721C45.7311 19.381 45.7191 19.4085 45.7641 19.5223L46.0094 20.1895C46.0249 20.2535 46.0185 20.257 46.0291 20.3069C46.0319 20.3202 46.0326 20.3329 46.0361 20.3456L46.0698 20.4489C46.1043 20.5318 46.124 20.5248 46.1535 20.6387L46.4332 21.5906C46.4649 21.7783 46.4178 21.6925 46.4888 21.8542C46.59 22.0841 46.5548 22.1607 46.6307 22.3505L47.4426 25.7797C47.4545 25.9871 47.4651 26.1826 47.534 26.3267H31.894L31.9924 25.5583C32.0198 25.3924 32.0191 25.4964 32.0767 25.3235C32.1372 25.1428 32.0971 24.9875 32.1533 24.8075C32.2363 24.5432 32.2278 24.662 32.2609 24.3217C32.2862 24.0616 32.3628 24.127 32.393 23.8612C32.4085 23.7284 32.3839 23.7509 32.4232 23.618L32.7599 22.4039C32.826 22.2338 32.8197 22.1009 32.8773 21.9287L33.1402 21.0057C33.1788 20.863 33.1859 20.9536 33.2393 20.7856L34.1285 18.0721C34.1819 17.9097 34.1734 17.9975 34.2297 17.8541C34.2669 17.7592 34.2564 17.7367 34.2922 17.6425L34.6254 16.7905C34.6683 16.697 34.6711 16.6569 34.709 16.555L35.5841 14.4207C35.6326 14.3258 35.5862 14.4298 35.6354 14.3349C35.6404 14.3258 35.6467 14.3145 35.6509 14.3047L36.4325 12.5781C36.4888 12.4663 36.4923 12.4663 36.5337 12.3602L36.6687 12.0846C36.6729 12.0748 36.6778 12.0621 36.6813 12.0523C36.7017 11.9996 36.6898 11.9925 36.7263 11.9152L36.727 11.9145ZM26.6954 27.8761H21.3605C21.2375 27.8761 21.1566 27.8248 21.0449 27.7819C20.8396 27.7031 20.7061 27.6047 20.5922 27.4142L20.5423 27.327C20.5374 27.3186 20.5296 27.3073 20.5247 27.2989C20.3982 27.0775 20.4488 27.0993 20.4488 26.6001C20.4488 26.4848 20.7159 26.108 20.9366 25.9934C21.0877 25.9147 21.1215 25.8704 21.2241 25.8704H29.6138V26.281C29.4008 26.3302 29.3692 26.3161 29.1119 26.326C28.9123 26.3337 28.828 26.3752 28.6684 26.4293C28.201 26.5875 27.7786 26.8005 27.413 27.1344L27.2472 27.2884C26.9639 27.5829 26.8613 27.8768 26.6954 27.8768V27.8761ZM36.1338 7.99246C36.1338 7.67682 36.4213 6.99913 36.609 6.68911C36.6139 6.68067 36.6216 6.66942 36.6265 6.66098L36.713 6.51968C36.7186 6.51195 36.7263 6.5007 36.732 6.49297L39.2026 3.71964C39.4542 3.38642 39.4535 3.33721 39.6194 3.04195C39.7178 2.8662 39.5723 3.00469 39.7361 2.88518C39.7516 3.07148 39.7361 2.95759 39.7832 3.06655C39.8233 3.15935 39.7748 3.05249 39.8317 3.15513L40.2576 3.77799C40.7869 4.45709 41.0189 4.63776 41.655 5.29928C41.6592 5.3042 41.7056 5.34989 41.7232 5.36747L41.9291 5.57204C41.965 5.6093 41.953 5.59665 41.9952 5.64304L42.3705 6.08804C42.6032 6.36994 43.0938 7.0856 43.155 7.44694C43.1782 7.58191 43.1683 7.57277 43.1957 7.67963C43.3096 8.12393 43.1648 8.63993 42.9912 9.05962C42.987 9.06946 42.9813 9.08071 42.9764 9.09055C42.9082 9.23607 42.736 9.63467 42.5624 9.63467H36.9084C36.6898 9.63467 36.656 9.51797 36.5815 9.36894C36.2744 8.75522 36.339 8.87402 36.2048 8.24133C36.1858 8.15205 36.1338 8.05784 36.1338 7.99317V7.99246ZM33.8993 7.58191C33.8993 7.96716 33.8417 8.42621 33.978 8.77982C34.0399 8.94081 34.0181 9.11586 34.0842 9.2663L34.437 10.145C34.4743 10.221 34.468 10.2182 34.5122 10.2976C34.5987 10.4537 34.799 10.6913 34.7365 10.8762L34.0708 12.2674C33.9562 12.5092 33.8937 12.7707 33.7524 12.9978C33.7053 13.0737 33.8143 13.0997 33.6259 13.0997C33.4867 13.0997 33.214 12.7567 33.1128 12.6555C32.5582 12.1008 31.9425 11.5524 31.4891 10.905L30.9303 9.95875C30.7497 9.55804 30.9275 9.53976 30.7237 8.88879L30.3982 8.21039C30.2084 7.92427 29.8711 7.56293 29.5583 7.40898C29.197 7.23112 29.2434 7.26767 29.2476 6.76151C29.2525 6.14217 29.3284 4.20822 29.2279 3.81665C29.1506 3.51577 28.9981 3.25566 28.7521 3.06163C28.2382 2.65671 27.5466 2.81558 27.1741 3.31893C26.798 3.8272 26.9224 4.61948 26.9224 5.25639C26.9224 5.83074 26.9365 6.42126 26.9259 6.9935C26.9189 7.37804 26.7572 7.30845 26.5239 7.45748C26.339 7.57559 26.1956 7.73728 26.0501 7.89545L25.7106 8.33131C25.5898 8.5169 25.7936 8.19212 25.6748 8.38685L25.6411 8.44449C25.4225 8.83536 25.3557 9.21287 25.3262 9.68036C25.3093 9.94539 25.3107 9.78652 25.2313 9.99601L24.3632 11.3162C24.3569 11.3233 24.3477 11.3331 24.3414 11.3394L24.2746 11.4097C24.2318 11.4561 24.2184 11.4723 24.1657 11.5293C24.1566 11.5391 24.1306 11.5665 24.1214 11.5764C23.9288 11.7809 23.8389 11.9271 23.7482 12.2062C23.718 12.2983 23.6125 12.3384 23.7285 12.7356L23.8628 13.1033C23.8684 13.111 23.8768 13.1215 23.8824 13.1293L24.4082 13.5616C24.643 13.6544 25.078 13.6347 25.2924 13.5237L26.3763 12.4185C26.41 12.3778 26.4402 12.3426 26.4789 12.2927L27.1628 11.2438C27.1677 11.2347 27.1748 11.2234 27.179 11.215L27.2113 11.156C27.2162 11.1468 27.2226 11.1356 27.2268 11.1264C27.2373 11.1046 27.2591 11.0519 27.2683 11.0308C27.2739 11.0175 27.2893 10.9795 27.295 10.9669L27.4489 10.5275C27.4939 10.3904 27.5438 10.377 27.5585 10.1816C27.5691 10.0424 27.5438 9.86244 27.5621 9.72887C27.6253 9.27333 28.2284 9.10531 28.5025 9.46595C28.6438 9.65224 28.5967 9.75488 28.6073 10.0452C28.6178 10.3292 28.7071 10.5661 28.8055 10.8045C28.8097 10.8143 28.8153 10.8255 28.8202 10.8354C28.8244 10.8452 28.8308 10.8565 28.8357 10.8656L29.1576 11.5011C29.1625 11.5096 29.1696 11.5208 29.1745 11.5293C29.1794 11.5377 29.1864 11.5496 29.1914 11.5581L29.2947 11.7289C29.4887 12.053 29.727 12.4031 29.9863 12.6794C30.0988 12.7989 30.1831 12.8973 30.29 13.014L30.3343 13.0611C30.3406 13.0681 30.3497 13.078 30.356 13.085L30.86 13.6298C30.9085 13.679 30.905 13.6748 30.9514 13.7212L31.6662 14.42C31.6726 14.4263 31.6824 14.4361 31.6887 14.4425C31.7351 14.4889 31.7316 14.4832 31.7801 14.5332C31.9945 14.7518 32.5202 15.2066 32.6186 15.4239C32.7227 15.6537 32.4282 16.1494 32.3473 16.3863L32.0247 17.2495C31.9727 17.4007 32.017 17.2756 31.9727 17.3796L31.0505 20.1058C31.0393 20.1515 31.0294 20.2169 31.0189 20.2563L30.7504 21.1737C30.7054 21.3895 30.5318 21.8521 30.4699 22.2162C30.4355 22.4201 30.3806 22.4454 30.3328 22.7632C30.3075 22.9319 30.2829 22.8918 30.2351 23.0303C30.167 23.2278 30.2028 23.4001 30.1114 23.5906C29.5976 23.7101 23.7088 23.6363 22.6791 23.6363C22.4612 23.6363 22.4359 23.5161 22.3459 23.3762L22.2264 23.1765C22.0015 22.8032 21.7625 22.373 21.6114 21.9674C21.4603 21.5617 21.312 21.1863 21.2628 20.7203C21.2157 20.2816 21.1032 19.9477 21.2255 19.4914L22.1238 17.2432L22.4577 16.7567C22.4633 16.749 22.4717 16.7385 22.4774 16.7307C22.483 16.723 22.4914 16.7125 22.497 16.7047C22.7894 16.3125 22.9757 15.8689 22.7501 15.4021C22.6411 15.1764 22.4577 14.943 22.2215 14.8362C22.1048 14.7827 22.1428 14.813 22.0106 14.7736C21.8012 14.7103 21.9959 14.6984 21.6297 14.6984C21.5355 14.6984 21.1665 14.8376 20.9725 14.9985L20.394 15.7423C20.3884 15.7508 20.382 15.7627 20.3771 15.7711L20.3441 15.8295C20.3392 15.8379 20.3328 15.8499 20.3272 15.8583L20.2928 15.9153C20.2879 15.9237 20.2801 15.9349 20.2752 15.9434L20.2408 16.0003C20.2358 16.0088 20.2288 16.0207 20.2239 16.0291L19.1991 18.1965C19.1682 18.3097 19.1105 18.4158 19.088 18.541C18.8652 19.7888 18.939 19.1905 18.939 20.7638L19.2258 22.0271C19.2525 22.1424 19.2708 22.1312 19.3087 22.2183L19.3347 22.2837C19.3382 22.295 19.3411 22.3076 19.3446 22.3196L19.4535 22.6212C19.4577 22.631 19.4627 22.643 19.4669 22.6535C19.4711 22.664 19.4746 22.6767 19.4788 22.6872C19.4943 22.7322 19.4901 22.7386 19.5098 22.7927L20.0341 23.9105C19.8598 23.9512 19.7171 24.0736 19.5709 24.1769L19.1407 24.5221C19.1056 24.5572 19.1021 24.5607 19.0719 24.5903C19.0655 24.5966 19.0557 24.6064 19.0487 24.6128L19.0037 24.6584C18.9973 24.6655 18.9882 24.6753 18.9819 24.6824C18.5461 25.1688 18.2523 25.7685 18.2073 26.4159C18.1939 26.6079 18.1131 26.7597 18.1447 26.9397C18.182 27.1513 18.17 27.5049 18.2635 27.7341C18.3106 27.8508 18.2692 27.7299 18.3071 27.8269L18.5447 28.4096C18.5883 28.4989 18.6185 28.5474 18.6593 28.6142L19.6658 29.6139C19.6742 29.6195 19.6855 29.6265 19.6939 29.6315L19.9786 29.803C20.0791 29.8515 20.1171 29.8367 20.2162 29.8845C20.3349 30.3956 20.2618 33.8705 20.2618 34.6727C20.2618 34.7957 20.2401 34.7985 20.2162 34.9004C20.2098 34.8906 20.2049 34.8618 20.2028 34.8681C20.2014 34.8744 20.193 34.8428 20.1902 34.8351L19.8239 33.5141C19.8197 33.5036 19.8148 33.4923 19.8106 33.4818L19.5351 32.8456C19.4908 32.7626 19.5322 32.847 19.483 32.7605C19.4781 32.7521 19.4711 32.7401 19.4662 32.7317C19.4613 32.7225 19.4549 32.7113 19.45 32.7022L17.5135 29.9422C17.4868 29.9098 17.4798 29.9 17.451 29.8677C17.4447 29.8606 17.4355 29.8508 17.4292 29.8438L14.3463 26.5425C13.6744 25.6567 14.0132 25.5836 13.7981 24.9474C13.6505 24.5115 13.6617 24.3351 13.3053 23.8901L13.176 23.746C13.1697 23.7389 13.1599 23.7298 13.1528 23.7235C13.1233 23.6939 13.1191 23.6904 13.0839 23.6553L12.9926 23.5646C12.7592 23.3481 12.516 23.1927 12.2363 23.0444C12.2363 22.0567 12.2363 21.0682 12.2363 20.0798C12.2363 19.6433 12.2644 18.9838 12.1154 18.6956L11.8068 18.3202C11.4877 18.0692 11.0287 17.9687 10.6442 18.1691C10.6351 18.174 10.6238 18.1803 10.6147 18.1845C10.6056 18.1895 10.5936 18.1951 10.5845 18.2C10.5753 18.2049 10.5627 18.2098 10.5535 18.2148L10.3848 18.3195C10.3778 18.3251 10.3673 18.3343 10.3602 18.3406L10.0784 18.7427C10.0742 18.7526 10.0699 18.7652 10.065 18.7751L9.97576 18.9592C9.89352 19.2334 9.95608 22.7125 9.95608 23.0437C9.8401 23.1048 9.34035 23.3811 9.00437 23.779C8.83286 23.9822 8.67401 24.1888 8.56787 24.437L8.45119 24.7309C8.37598 24.927 8.37809 25.1597 8.36122 25.4156C8.35349 25.5281 8.36333 25.4767 8.33592 25.5723C8.18128 26.1144 7.87061 26.5973 7.49737 27.0135C7.49105 27.0205 7.48191 27.0304 7.47558 27.0367L7.40881 27.1063C7.3821 27.1358 7.35539 27.1689 7.32516 27.2047L7.0426 27.5154C6.32636 28.2887 5.52155 28.9791 4.84326 29.7847L4.73291 29.9021C4.65207 29.99 4.62888 30.0357 4.54875 30.1285L4.50517 30.1763C4.49885 30.1833 4.489 30.1925 4.48268 30.1995C4.47635 30.2065 4.46651 30.2157 4.46019 30.222C3.94567 30.7366 3.49863 31.4058 3.1268 32.035L2.88642 32.4329C2.83721 32.518 2.79153 32.6185 2.74795 32.705C2.70156 32.7964 2.65446 32.8906 2.61018 32.9777C2.56309 33.0712 2.53146 33.1689 2.48717 33.2653L2.14838 34.1581C2.09285 34.3071 2.13362 34.3556 2.09356 34.5138C2.02397 34.7908 1.97407 34.8393 1.97828 35.1732C1.9825 35.4839 1.90729 35.6765 1.93822 35.9409C1.97617 36.265 1.92908 36.7268 2.05701 37.0558C2.12238 37.2245 2.16314 37.6695 2.35644 38.1244L3.02699 39.7335L2.06544 40.459C1.74141 40.781 1.30983 41.4988 1.25501 41.9283C1.24095 42.0394 1.2536 42.0612 1.22619 42.1737C1.18331 42.3501 1.15731 42.2222 1.15731 42.4239C1.15731 43.032 1.21776 43.342 1.40402 43.9101C1.45674 44.0703 1.43495 44.0085 1.50102 44.1322L2.3473 45.2015L2.77677 45.5017C2.98763 45.6437 3.30042 45.6528 3.30042 45.9811V66.503C2.49912 66.503 1.78077 66.7231 1.16785 67.2433C0.83187 67.5287 0.557743 67.805 0.358122 68.212L0.0811835 68.8925C-0.0193297 69.1913 -0.0137066 70.0707 0.0165176 70.4272C0.0376043 70.6739 0.0425246 70.5467 0.0755604 70.6423C0.228087 71.0901 0.417868 71.4753 0.721516 71.8662C1.05469 72.295 1.58748 72.6388 2.0788 72.8342C2.16455 72.8687 2.17861 72.8631 2.25452 72.8863C2.66641 73.0121 2.89134 72.979 3.34751 72.979C4.63591 72.979 18.343 73.0388 18.6065 72.9629C18.6178 72.9594 18.6297 72.9551 18.6403 72.9509L18.8645 72.8103C19.5878 72.2521 19.3825 71.2328 18.6016 70.856C18.435 70.7759 18.3022 70.7878 18.0759 70.7892C13.1662 70.8244 8.25579 70.7674 3.3454 70.792C3.03051 70.7934 3.09658 70.7892 2.88782 70.702C2.67695 70.6142 2.66009 70.5361 2.48085 70.5164C2.45414 70.2732 2.47382 70.4715 2.40986 70.3597C2.40213 70.3463 2.20742 69.9765 2.20742 69.6953C2.20742 69.5533 2.31497 69.3171 2.39439 69.1983C2.54762 68.972 2.93562 68.7372 3.21045 68.7372H69.7818C70.0806 68.7372 70.5135 69.0219 70.6401 69.2925C70.8087 69.6532 70.8214 69.8233 70.671 70.1741L70.6288 70.269C70.5613 70.3948 70.5262 70.3294 70.5107 70.5157C70.3533 70.5291 70.4186 70.5382 70.3744 70.5621C69.9062 70.8103 69.8071 70.7899 69.2343 70.7899H23.9569C23.3412 70.7899 22.703 70.6634 22.237 70.9853C21.6824 71.3685 21.5713 72.2388 22.083 72.7098C22.1463 72.7682 22.2602 72.8518 22.3459 72.9031L22.5048 72.972C22.8639 73.0451 66.2266 72.9558 70.1016 72.979C70.4974 72.9812 70.742 72.8947 71.1012 72.7471C71.4807 72.591 71.8104 72.3414 72.0971 72.056C72.2595 71.8936 72.3931 71.7151 72.5252 71.5267C72.7108 71.2616 72.7923 70.9875 72.9034 70.6739C73.0369 70.2992 73.0193 69.2152 72.9111 68.8918L72.8007 68.5459C72.7811 68.5031 72.7375 68.411 72.7122 68.3611L71.7745 67.2011C71.1799 66.7139 70.4664 66.503 69.6912 66.503V45.4342C69.6912 45.2465 69.4234 44.8387 69.2111 44.6827L68.944 44.5399C68.9187 44.5301 68.8674 44.509 68.8449 44.502C68.5841 44.4127 68.3999 44.4682 68.1715 44.554C67.9269 44.6461 67.7828 44.7487 67.6233 44.9639C67.5368 45.0799 67.5804 44.9751 67.5227 45.1375C67.5017 45.1987 67.5101 45.193 67.4939 45.2458C67.3913 45.5888 67.4103 45.9649 67.4103 46.3474V56.7904C67.4103 56.9844 67.5143 57.7022 67.2732 57.7022H57.0138C56.9091 57.7022 56.8768 57.6706 56.8768 57.5651V37.2716C56.8768 37.1669 56.9084 37.1346 57.0138 37.1346H67.2732C67.4925 37.1346 67.4103 37.5641 67.4103 37.7729C67.4096 38.2966 67.3548 40.9244 67.4236 41.2253C67.5241 41.6598 67.8376 41.9782 68.2502 42.1315C68.433 42.1997 68.2144 42.1962 68.6867 42.1962L69.1717 41.9972L69.5302 41.626C69.6195 41.4833 69.5745 41.5213 69.6286 41.3596C69.6321 41.3483 69.637 41.3371 69.6413 41.3265C69.8395 40.7367 69.5414 37.1824 69.7579 36.9279C69.8338 36.8386 69.9336 36.833 70.0285 36.788L70.0883 36.7564C70.0967 36.7514 70.108 36.7437 70.1164 36.7388L70.231 36.6706C70.5353 36.4878 70.7834 36.2593 71.0189 35.9992C71.0252 35.9922 71.0351 35.9823 71.0414 35.976C71.0477 35.969 71.0576 35.9599 71.0639 35.9528C71.241 35.7637 71.3844 35.5282 71.4948 35.2892L71.6459 34.9384C71.6881 34.8435 71.719 34.7598 71.733 34.6607C71.7921 34.2431 71.8357 34.0758 71.8357 33.6231L71.6346 32.7753C71.4695 32.35 71.234 31.9141 70.9064 31.5879C70.7806 31.4628 70.496 31.2041 70.3308 31.1598C70.3926 31.0431 70.425 30.9524 70.491 30.8188L70.7652 30.2726C70.8151 30.1735 70.8066 30.2107 70.8551 30.0891L70.9339 29.8944C70.9943 29.7671 70.9697 29.8339 71.0105 29.6975C71.014 29.6856 71.0161 29.6729 71.0196 29.661L71.2122 29.1239C71.2677 28.991 71.2537 29.0606 71.2818 28.92L71.4027 28.4933C71.5243 28.0342 71.5412 27.5583 71.5875 27.0817C71.6304 26.6465 71.4835 26.0954 71.428 25.6834C71.3858 25.3727 71.2755 25.1309 71.1721 24.8447L70.5845 23.5625C70.5353 23.4718 70.5374 23.4725 70.4861 23.3867C70.4081 23.2553 70.3561 23.1625 70.2809 23.0451C70.2408 22.9818 70.2303 22.972 70.1881 22.9094L69.5084 21.9477C69.5028 21.94 69.4936 21.9301 69.488 21.9224C69.4796 21.9118 69.4543 21.8837 69.4458 21.8732L67.3463 19.5955C67.34 19.5891 67.3301 19.5793 67.3238 19.573L66.907 19.1687C66.8676 19.1322 66.8838 19.1476 66.8367 19.1019L66.0143 18.1916C66.008 18.1845 65.9989 18.1747 65.9933 18.167C65.9869 18.1599 65.9785 18.1494 65.9722 18.1424L65.5476 17.5638C65.5047 17.4991 65.5329 17.5469 65.4921 17.4822L65.4246 17.3677C65.0387 16.7251 65.2904 16.6211 65.1062 16.136L64.7555 15.3015L64.2613 14.7012C64.2557 14.6963 64.1995 14.647 64.1875 14.6379C64.0842 14.5543 63.976 14.484 63.8635 14.4151C63.4783 14.1796 63.5324 14.2787 63.5352 13.6945C63.5444 12.008 63.5816 9.9475 63.5367 8.31163C63.5254 7.91162 63.4319 7.60371 63.2 7.37172C63.1908 7.36258 63.1634 7.33586 63.1536 7.32743C62.8506 7.06029 62.1843 6.95343 61.8336 7.2044L61.5376 7.45537C61.3689 7.64659 61.2586 7.85679 61.253 8.12885C61.2129 10.164 61.2558 12.2069 61.2558 14.2428C61.0815 14.2892 61.2544 14.2337 61.1321 14.3019L60.3385 14.9219C60.0995 15.1701 59.9294 15.4499 59.8177 15.769C59.7776 15.8836 59.7656 15.8675 59.7432 15.923C59.5998 16.2759 59.7108 16.787 59.4571 17.2327L58.4168 18.6091C58.3395 18.6879 58.2875 18.7336 58.2109 18.8137C58.1645 18.8622 58.1701 18.8573 58.1251 18.91L58.0422 19.0099C57.7301 19.3839 56.6617 20.3856 56.2336 20.8489L55.8477 21.2841C55.8365 21.296 55.7739 21.3656 55.762 21.3804C55.7142 21.4359 55.7015 21.4521 55.6573 21.5034L55.2116 22.0609C55.2053 22.0679 55.1969 22.0784 55.1905 22.0855C55.173 22.1059 55.1631 22.1157 55.1273 22.1586C55.0289 22.276 55.0345 22.2837 54.96 22.4018L54.7301 22.7196C54.6922 22.7807 54.6859 22.8039 54.6479 22.8651L54.2922 23.4212C54.2852 23.4331 54.2662 23.4676 54.2599 23.4802L53.4523 25.3172L53.2752 26.326C53.2794 26.6451 53.2077 26.8209 53.2316 27.0986C53.2541 27.3537 53.2618 27.5703 53.2752 27.8782C53.2871 28.1566 53.3876 28.2831 53.415 28.5587C53.4382 28.7907 53.512 28.7724 53.5472 28.9735C53.5697 29.1042 53.5352 29.0332 53.583 29.1654C53.6407 29.3228 53.5957 29.1731 53.6449 29.2856L53.6976 29.4606C53.7377 29.6167 53.7602 29.6343 53.8129 29.7559L53.9359 30.0434C53.9907 30.1671 54.002 30.2178 54.0596 30.3295L54.3239 30.8863L53.9949 31.1049C53.8811 31.1724 53.7595 31.2694 53.6533 31.3559C53.2752 31.6638 52.9968 32.0582 52.7719 32.4807C52.7185 32.5812 52.7937 32.4104 52.7255 32.5714C52.516 33.0642 52.4542 33.5907 52.4542 34.1243L52.9406 35.5528C53.0003 35.6442 52.9469 35.5598 52.9926 35.6379L53.2471 35.976C53.2534 35.9831 53.2632 35.9922 53.2695 35.9992L54.0863 36.6875C54.0947 36.6924 54.1067 36.6994 54.1151 36.7043C54.2494 36.7845 54.3527 36.7908 54.475 36.8913C54.5362 36.9412 54.5966 37.0017 54.5966 37.0889V52.138C54.5966 52.2427 54.565 52.275 54.4595 52.275H50.7659V39.5515C50.7659 38.542 50.6288 37.6892 50.6288 36.6783C50.6288 36.22 50.6625 35.6168 50.6267 35.176C50.5669 34.4498 50.3673 33.4424 50.5381 32.7113C50.6674 32.7113 50.6724 32.7134 50.7876 32.6874C50.9915 32.641 51.0751 32.5798 51.2403 32.5018C51.2874 32.4793 51.3057 32.4645 51.3275 32.4519L52.1147 31.8712C52.121 31.8649 52.1309 31.855 52.1372 31.8487L52.6489 31.1745C52.6538 31.1661 52.6608 31.1549 52.6665 31.1464L52.8 30.8701C53.1381 30.1693 53.0453 29.8079 53.0453 28.972L52.8823 28.4054C52.5231 27.3671 51.5707 26.6522 50.5494 26.3611C50.3884 26.3154 50.0862 26.3274 49.8535 26.3274C49.7579 26.1284 49.7916 26.0391 49.7558 25.7868C49.7305 25.6089 49.6447 25.5133 49.6286 25.2757C49.6201 25.1513 49.6363 25.1006 49.6054 24.9797C49.5787 24.8757 49.5506 24.8764 49.5161 24.7498C49.4536 24.5214 49.5182 24.4433 49.424 24.2036C49.3256 23.9533 49.391 23.876 49.32 23.6686L48.7788 21.611C48.7781 21.6053 48.7549 21.4978 48.7549 21.4978L48.3423 20.0861C48.2966 19.8977 48.3057 20.0194 48.2467 19.8626C48.2003 19.7396 48.2256 19.7276 48.1898 19.6004L47.858 18.6555C47.6731 18.2569 47.4925 17.464 47.2648 16.9691L46.9625 16.1768C46.933 16.1001 46.9456 16.1093 46.9225 16.0348L46.4698 14.891C46.429 14.7961 46.4255 14.8038 46.3714 14.6702C46.3552 14.6302 46.3376 14.5838 46.3187 14.5409L45.1779 11.9426C45.1216 11.8308 45.1181 11.8308 45.0767 11.7247C45.0549 11.6684 45.0647 11.6825 45.0387 11.6263L44.9157 11.3844C44.9108 11.3746 44.9059 11.3626 44.9009 11.3535L44.7695 11.0744C44.5987 10.6498 44.6113 10.8157 44.8707 10.3545C45.0626 10.0136 45.2137 9.59671 45.3304 9.21849C45.374 9.0786 45.3698 8.9844 45.4084 8.84028C45.5061 8.47683 45.5567 7.96997 45.4977 7.56434C45.4928 7.532 45.4808 7.43499 45.4752 7.40476C45.4408 7.21635 45.4541 7.3218 45.4246 7.2276L45.3571 6.88454C45.2664 6.53445 45.0942 6.21177 44.9389 5.88909L44.5621 5.26272C44.191 4.65182 43.6702 4.14214 43.1922 3.62333L42.3797 2.79379C42.3544 2.76919 42.3087 2.72419 42.2883 2.7031C42.282 2.69607 42.2721 2.68693 42.2658 2.67991L41.998 2.35512C41.8272 2.11469 41.8202 2.02752 41.7773 1.70906C41.7471 1.4841 41.636 1.20291 41.5193 1.00958C41.3436 0.717133 41.0807 0.408517 40.7764 0.24753L40.6548 0.186369C40.5732 0.145595 40.5732 0.143486 40.4973 0.116069C40.0503 -0.0442142 39.7923 0.0155406 39.2757 0.0155406C39.1372 0.0155406 39.1007 0.0612355 38.9868 0.0914645C38.7654 0.151922 38.6206 0.222925 38.44 0.365634C38.4252 0.376882 38.3634 0.433825 38.3437 0.452103L37.9142 0.93436C37.8615 1.01942 37.9009 0.956856 37.8664 1.02364L37.8046 1.14385C37.6823 1.38428 37.6408 1.6929 37.5972 1.94035C37.5579 2.16461 37.4616 2.30942 37.3104 2.47463C37.3041 2.48166 37.2943 2.4908 37.2879 2.49783L36.034 3.79767C36.0277 3.804 36.0178 3.81384 36.0115 3.82017C36.0052 3.8265 35.9953 3.83634 35.989 3.84266L34.0961 6.73761L33.8958 7.58613L33.8993 7.58191Z" fill="#124285"/>
</g>
</g>
<defs>
<clipPath id="clip0_16_55">
<rect width="73" height="73" fill="white"/>
</clipPath>
</defs>
</svg>
