<svg width="76" height="72" viewBox="0 0 76 72" fill="none" xmlns="http://www.w3.org/2000/svg">
<g id="3 1" clip-path="url(#clip0_16_51)">
<g id="&#208;&#161;&#208;&#187;&#208;&#190;&#208;&#185;_x0020_1">
<path id="Vector" fill-rule="evenodd" clip-rule="evenodd" d="M14.8841 62.6736C14.8841 62.4338 15.0338 62.1867 15.229 62.0671L16.5197 61.3136C16.8767 61.0976 17.3761 60.8469 17.7368 61.241C18.1029 61.64 17.8487 62.0946 17.6066 62.2617C17.5981 62.2672 17.5865 62.2746 17.5774 62.28C17.5652 62.2874 17.5281 62.3063 17.5154 62.313C17.4095 62.3703 17.3858 62.3819 17.3019 62.4326C17.1583 62.5186 17.0373 62.5973 16.8871 62.6833C16.7989 62.734 16.7575 62.745 16.6657 62.795L15.9072 63.2251C15.7861 63.2953 15.6967 63.4143 15.4236 63.3252C15.1992 63.252 14.8829 62.9493 14.8829 62.6742L14.8841 62.6736ZM30.4087 30.3371V34.1473C30.4087 34.5005 30.7426 34.9569 31.0492 35.1241L31.2334 35.2248C31.6829 35.4444 32.2595 35.1924 32.5478 34.8166C32.7589 34.542 32.8343 34.262 32.8313 33.8623L32.8295 32.0033C32.827 31.7763 32.7601 31.4798 32.9724 31.4798H43.0374C43.1469 31.4798 43.1798 31.5128 43.1798 31.6226V41.4809C43.1798 41.7341 42.7023 41.5651 42.4286 41.6799C42.3197 41.7256 42.3757 41.7232 42.2619 41.7512L40.8107 42.2009C40.4111 42.3675 39.9938 42.5432 39.6222 42.7708L39.5024 42.8415C39.4933 42.847 39.4817 42.8537 39.4726 42.8592L38.7366 43.3589C38.4812 43.5493 38.2512 43.7689 37.9575 43.9105C37.6716 43.7183 37.4326 43.4431 37.1357 43.2589C37.0214 43.1881 37.0074 43.1716 36.9137 43.1008L34.0453 41.7872C33.9261 41.7604 33.8598 41.7793 33.7479 41.7525C33.6244 41.7226 33.6573 41.6866 33.4772 41.6432C32.6993 41.4565 32.8307 42.1673 32.8307 40.0063C32.8307 39.3394 32.8605 38.7775 32.3781 38.412C32.0357 38.1527 31.5619 38.074 31.155 38.2302L30.8612 38.412C30.8533 38.4181 30.8417 38.4267 30.8344 38.4328C30.8265 38.4389 30.8156 38.448 30.8083 38.4541C30.6648 38.5792 30.5972 38.6951 30.5443 38.8562L30.5218 38.9288C30.5176 38.9398 30.5127 38.952 30.5084 38.963C30.4634 39.0789 30.4081 39.171 30.4081 39.3388C30.4081 39.9337 30.329 42.5261 30.461 42.9056C30.4835 42.9703 30.5267 43.0978 30.5626 43.1844C30.627 43.3382 30.7754 43.4907 30.9038 43.6042C31.346 43.9947 32.2194 43.8525 32.7504 43.9428C33.1676 44.0136 33.5216 44.138 33.9164 44.2491C34.6359 44.4516 35.7624 45.0978 36.2909 45.5816L36.6473 45.9385C36.8018 46.0837 36.8815 46.1661 37.0263 46.3204C37.1643 46.4675 37.2458 46.581 37.4216 46.6859L38.0043 46.8635L38.5572 46.7036C38.7828 46.5846 38.9611 46.3638 39.1216 46.1746L39.6003 45.7024C39.9586 45.39 40.3393 45.0874 40.7541 44.8598L42.0192 44.2717C42.1312 44.2289 42.195 44.2338 42.3148 44.1868C42.959 43.9343 43.198 43.9794 43.8841 43.9037C44.7904 43.8037 45.2173 43.7994 45.5342 42.9398C45.5811 42.8135 45.6005 42.7805 45.6005 42.6249V30.3377C45.6005 30.0692 45.4868 29.7959 45.3396 29.5994C45.0562 29.2217 44.5909 29.0991 44.1292 29.0991H31.88C31.1574 29.0991 30.7244 29.345 30.4744 30.0228C30.4275 30.1491 30.4081 30.1821 30.4081 30.3377L30.4087 30.3371ZM61.9334 62.7218C61.9334 62.3386 61.9523 62.3264 62.156 61.9451L62.1895 61.8835C62.1943 61.8731 62.1992 61.8609 62.2041 61.8505C62.2083 61.8401 62.2126 61.8267 62.2169 61.8157C62.3428 61.5015 62.7868 60.4594 63.0215 60.2898C63.2436 60.1294 63.2594 60.1501 63.5471 60.1501C63.749 60.1501 63.5434 60.1385 63.676 60.2111C63.9528 60.363 63.8865 60.3118 63.9819 60.4753C64.0744 60.6333 64.1036 60.8694 64.0622 61.047L63.5793 62.0872C63.5744 62.0964 63.5665 62.1074 63.5611 62.1165C63.5063 62.2184 63.5568 62.1092 63.5136 62.2117L63.1456 62.9853C62.9023 63.3301 62.3087 63.3032 62.0861 62.9963C62.0776 62.9847 62.0557 62.9512 62.0478 62.9396C61.9346 62.7663 61.9328 62.8548 61.9328 62.7218H61.9334ZM59.2748 61.7218C58.9592 61.7218 58.4422 61.3557 58.6088 60.8158C58.7183 60.4613 59.436 58.8213 59.7146 58.6864C59.9688 58.5638 60.6993 58.5339 60.6993 59.2929C60.6993 59.5882 60.4682 59.9622 60.3526 60.2313L59.8539 61.3026C59.7255 61.5034 59.4135 61.7218 59.2748 61.7218ZM13.0801 59.4356C13.0801 58.9164 13.4907 58.7676 14.0381 58.4436L14.3148 58.2923C14.324 58.2874 14.3361 58.2807 14.3459 58.2758L14.9462 57.9256C15.3519 57.7352 15.0307 57.7688 15.5021 57.7688C15.5952 57.7688 15.5927 57.8017 15.7503 57.9006C16.1128 58.1282 16.1237 58.7023 15.8068 58.9793C15.6225 59.1404 15.0216 59.4436 14.7637 59.5998L14.5855 59.7072C14.577 59.7126 14.5648 59.72 14.5563 59.7255L14.3197 59.8694C13.5527 60.3148 13.0807 59.9701 13.0807 59.4363L13.0801 59.4356ZM48.4975 56.5784C48.809 56.5784 49.2816 56.3698 49.5638 56.2197L50.4913 55.6736C50.5491 55.6303 50.5856 55.6059 50.6586 55.5559L51.1281 55.1697C51.1798 55.1251 51.2267 55.0757 51.2753 55.0318C51.4925 54.8365 51.6573 54.9567 51.8599 55.0629L53.7575 56.1117C53.8068 56.1392 53.8044 56.1343 53.8518 56.1599C53.9224 56.1983 53.867 56.1666 53.9424 56.2118L55.4722 57.0586C55.581 57.1154 55.7027 57.2032 55.8286 57.2728C55.9034 57.3136 55.9216 57.3167 55.9879 57.3509L56.778 57.7962C56.9429 57.8957 57.1229 57.939 57.2318 58.1025C57.1898 58.2606 57.1965 58.1745 57.1411 58.2972L56.8565 58.9164C56.823 58.9915 56.8121 59.0458 56.7762 59.1214L56.6911 59.274C56.6862 59.2837 56.6807 59.2965 56.6758 59.3063C56.671 59.3167 56.6667 59.3295 56.6619 59.3399L56.4721 59.7688C56.3973 59.7187 56.3711 59.687 56.2592 59.6492C56.1953 59.6278 56.1966 59.6358 56.1455 59.6205L52.9011 58.3508C52.805 58.3069 52.8975 58.3399 52.7637 58.2984C52.67 58.2697 52.7144 58.2941 52.6165 58.2557L50.9895 57.6016C50.8697 57.5498 50.8478 57.5601 50.7352 57.5229C50.7237 57.5193 50.7109 57.515 50.7 57.5107L50.2334 57.3118C50.0783 57.2392 50.1379 57.2801 49.9841 57.2282L48.9701 56.817C48.7956 56.7566 48.5997 56.7188 48.4963 56.5778L48.4975 56.5784ZM19.3467 59.4832C19.1132 59.3264 18.8942 59.1257 18.6448 58.9964L18.3973 58.864C18.4782 58.5156 18.3973 58.1611 18.3973 57.8164C18.4806 57.7761 18.5013 57.7871 18.5743 57.7554L20.3814 56.8536C20.3905 56.8487 20.4026 56.842 20.4124 56.8371L22.8934 55.6108C22.9025 55.6059 22.9493 55.5766 22.9846 55.5595L24.2303 54.9519C24.403 54.8646 24.3203 54.9793 24.3793 54.8158C24.5946 54.8335 24.5794 54.9085 24.7266 55.0391C24.8056 55.1087 24.8008 55.0952 24.8811 55.1697C24.8884 55.1764 24.8981 55.1861 24.9054 55.1929L25.2855 55.5254C25.558 55.778 26.1711 56.1215 26.5385 56.2691L27.0567 56.4637C27.0677 56.468 27.0792 56.4735 27.0896 56.4784C27.2319 56.5412 27.2465 56.5784 27.4648 56.5784C27.3779 56.698 27.1832 56.7572 27.0245 56.8036L25.1104 57.4552C24.9717 57.5199 25.1085 57.4729 24.9808 57.5156L21.9141 58.5827C21.7888 58.6156 21.7827 58.6138 21.6641 58.6651L21.1453 58.8591C21.0139 58.8957 21.0218 58.8792 20.8892 58.936L19.3461 59.4838L19.3467 59.4832ZM65.969 59.1977C65.8784 59.0263 65.8857 59.0891 65.7592 58.9317L64.7641 58.1202C64.7258 58.1013 64.6832 58.0739 64.6735 58.0684C64.4631 57.9549 64.1985 57.8817 63.943 57.8487C63.5331 57.7956 63.0957 57.864 62.6931 57.864C62.6603 57.7236 62.6 57.6358 62.5191 57.5144C62.4419 57.3984 62.5009 57.4784 62.4133 57.3826L62.2363 57.1794C62.2296 57.1721 62.2205 57.1611 62.2144 57.1538L62.0447 56.9909C61.5861 56.5992 61.1093 56.4094 60.54 56.2618C60.1963 56.1733 59.8891 56.2142 59.5613 56.2532C59.5096 56.0275 59.5157 55.1562 59.585 54.936L60.4067 53.2838C60.4128 53.2758 60.4213 53.2643 60.4274 53.2569L61.7516 52.2045C61.8324 52.1581 61.788 52.1727 61.9091 52.1239L61.9796 52.0995C63.0404 51.6889 63.0215 51.8152 64.3074 51.8152C64.4637 51.8152 64.4862 51.8689 64.5926 51.9098C64.8134 51.9952 65.0494 51.9921 65.4381 52.2045C65.775 52.3881 66.1089 52.609 66.3924 52.8665L66.441 52.9128C66.4483 52.9195 66.4581 52.9293 66.4648 52.9366C66.6977 53.166 66.9136 53.4253 67.0706 53.7096C67.1143 53.789 67.1539 53.8768 67.1977 53.9635L67.2847 54.1148C67.4276 54.3722 67.4428 54.5693 67.531 54.8201C67.604 55.0263 67.6052 54.867 67.6301 55.1013C67.6739 55.5028 67.6721 56.5315 67.5559 56.8359L67.087 57.9848L65.9684 59.1965L65.969 59.1977ZM31.596 62.8645V63.0549C31.0869 63.0549 30.9658 62.9951 30.5176 62.8981C30.4142 62.8755 30.4026 62.8542 30.3126 62.8182L29.2032 62.2642C29.191 62.2538 29.0347 62.1647 28.8668 61.8871C28.6977 61.6077 28.6047 61.3222 28.6047 60.9597C28.6047 60.8884 28.7062 60.0909 28.7257 60.0336C28.7719 59.8957 28.7464 60.0317 28.8054 59.8755C28.8534 59.7493 28.823 59.7657 28.8583 59.6431L29.6447 58.0037C29.6867 57.9311 29.6545 57.9909 29.6995 57.9158L29.8941 57.587C29.9294 57.5272 29.8996 57.5711 29.9476 57.4979C30.0304 57.3734 30.0723 57.3185 30.1551 57.1825L30.8284 56.2392C30.8716 56.1788 30.891 56.144 30.9239 56.0971L31.0492 55.9372C31.2304 55.7182 31.3423 55.54 31.529 55.3234C31.5382 55.313 31.5643 55.2831 31.5728 55.2722L32.3733 54.3124C32.4274 54.2533 32.456 54.2154 32.5047 54.1587C32.5138 54.1483 32.5399 54.1178 32.5491 54.1081C32.5557 54.1007 32.5655 54.091 32.5722 54.0836L34.5739 51.9482C34.7594 51.7621 34.9102 51.6108 35.0963 51.4241C35.2898 51.2301 35.4217 50.9665 35.7253 50.9598C35.763 51.102 35.8797 51.1715 35.9825 51.2734C36.016 51.3064 36.0269 51.318 36.0537 51.3448L36.9162 52.1941C36.9229 52.2008 36.9332 52.2112 36.9399 52.2179C36.9466 52.2246 36.9569 52.235 36.9636 52.2417C37.2185 52.4992 37.424 52.6541 37.778 52.7585C38.0724 52.8451 38.1527 52.7878 38.4197 52.7103C38.5475 52.673 38.6399 52.6096 38.7506 52.5181L39.0687 52.2179C39.0754 52.2112 39.0857 52.2008 39.0924 52.1941L39.211 52.0751C39.2177 52.0684 39.2281 52.058 39.2348 52.0513C39.2621 52.0239 39.2706 52.0153 39.3059 51.9799L39.638 51.6462C39.6873 51.598 39.6696 51.6145 39.711 51.5767L40.0023 51.2978C40.009 51.2911 40.0194 51.2807 40.0261 51.274C40.1447 51.1551 40.2846 50.9879 40.4257 50.9128C40.6903 51.0904 41.2042 51.6712 41.4895 51.9409L41.8641 52.3271C41.9213 52.3899 41.945 52.4137 42.004 52.4729L42.7242 53.227C42.7595 53.2618 42.7686 53.271 42.796 53.2978L42.9389 53.4406C42.9456 53.4479 42.9553 53.4577 42.962 53.465L43.2266 53.7707C43.2309 53.7755 43.2898 53.8408 43.2947 53.8457L45.5196 56.6144L46.2878 57.7962C46.2927 57.8054 46.2988 57.8182 46.3042 57.8274C46.3432 57.8981 46.3468 57.8963 46.3584 57.9158L46.8158 58.7908C46.8681 58.8933 46.9599 59.0824 46.9976 59.18C47.0287 59.2605 47.0232 59.2807 47.0548 59.3606C47.2318 59.809 47.261 59.9268 47.3364 60.4112C47.3979 60.8017 47.3972 61.0268 47.3322 61.4112C47.317 61.4997 47.3133 61.5723 47.2835 61.648L46.7811 62.2868C46.7732 62.2929 46.7616 62.3014 46.7537 62.3069L46.4697 62.4979C46.1054 62.723 45.6972 62.8401 45.283 62.9268C44.8153 63.0244 45.0896 63.0555 44.4145 63.0555C44.4145 62.8096 44.367 62.6504 44.305 62.4509C44.2436 62.2532 44.2971 62.1678 44.2156 61.9689C44.1712 61.8591 44.1748 61.9176 44.145 61.8011L44.027 61.3478C43.9771 61.216 44.0051 61.266 43.9735 61.1159L43.8719 60.8371C43.6791 60.3563 43.4608 60.1837 42.9961 60.0012C42.8805 59.9555 43.1062 59.9604 42.8945 59.9604C42.6701 59.9604 42.4821 59.986 42.2504 60.0763C42.0892 60.1397 42.0028 60.2319 41.8927 60.3368L41.709 60.5815C41.5479 60.9207 41.5649 60.9183 41.5649 61.3417C41.5649 61.4228 42.1196 63.0854 42.1342 63.723C42.1427 64.0866 42.2765 64.2282 42.2765 64.5802C42.2765 65.4191 42.4012 65.7437 41.6914 66.2794L39.7049 67.3349C39.2901 67.6314 38.8783 67.9261 38.5146 68.2837L38.2938 68.4905C38.0718 68.7297 38.0025 68.823 37.7574 68.5424L35.1286 66.7028C35.1188 66.6979 35.1073 66.6912 35.0976 66.6863L34.9315 66.6144C34.625 66.482 34.3245 66.3276 34.0733 66.0939C33.6348 65.6851 33.7309 65.1696 33.7309 64.6278L34.2199 62.0232C34.2606 61.8951 34.2618 61.9609 34.3166 61.7871C34.3519 61.6736 34.3482 61.6309 34.3884 61.5259L34.6158 60.9445C34.6201 60.9329 34.6225 60.9195 34.6268 60.9079L34.9315 60.2136C35.2533 59.5375 35.4601 59.1885 35.9162 58.6297C36.1772 58.31 36.5208 57.9189 36.8766 57.6883L37.4897 57.3984C37.6394 57.335 37.4143 57.3417 37.6235 57.3417H38.3832L38.885 57.5528C39.4318 57.8603 39.6861 58.1257 40.3685 57.9049C40.5206 57.8554 40.6215 57.7761 40.7389 57.6578C41.1379 57.2551 41.2066 56.8676 41.0005 56.3356C40.9214 56.1324 40.7493 55.9763 40.5869 55.8457L40.0103 55.4717C39.7676 55.3405 39.5571 55.227 39.2816 55.155C39.1447 55.1196 39.2457 55.1538 39.1362 55.1105C38.865 55.0019 38.9817 55.0251 38.621 55.0086C38.042 54.9824 38.3522 54.817 37.556 54.9891C37.3456 55.0348 37.05 54.9738 36.4752 55.2386L34.7667 56.382C34.2959 56.8072 33.9377 57.3326 33.5672 57.8457L33.4529 58.0171C33.4073 58.0934 33.4322 58.0513 33.3854 58.1397L33.2625 58.3496C33.2546 58.3612 33.2321 58.3948 33.2242 58.4064L32.9517 58.8951C32.9468 58.9048 32.9414 58.9177 32.9371 58.928L32.7948 59.2142C32.7711 59.2642 32.7771 59.2612 32.751 59.3136L32.4007 60.105C32.3964 60.1153 32.3897 60.1269 32.3854 60.1373L32.0138 61.2404C31.9755 61.4051 32.0089 61.2752 31.9499 61.4149L31.748 62.1171C31.7133 62.3203 31.7541 62.3075 31.6902 62.4875C31.6391 62.6309 31.5941 62.6602 31.5941 62.867L31.596 62.8645ZM9.23426 52.3393C8.11755 52.3393 8.66131 52.3954 8.08896 52.2026L8.01536 52.1813C7.87182 52.1276 7.67171 51.9537 7.5531 51.8354L7.25994 51.4626C7.25446 51.4534 7.24716 51.4418 7.2423 51.4327C7.23743 51.4229 7.23074 51.4113 7.22648 51.4009C7.22162 51.3906 7.21675 51.3784 7.21249 51.3674L7.14376 51.1508C6.99779 50.7756 7.05131 50.814 7.05131 50.2435L7.27332 49.7048C7.85114 48.8421 8.75558 48.5443 9.66002 49.0556L10.0213 49.3125C10.0949 49.3759 10.0523 49.3314 10.1174 49.4064L10.3127 49.6871C10.5231 50.0123 10.4909 49.9043 10.5201 50.1459C10.5803 50.6493 10.5821 50.4418 10.5274 50.9214C10.4915 51.2338 10.4112 51.4052 10.2001 51.6883C10.1941 51.6962 10.1855 51.7078 10.1795 51.7152C9.95988 51.997 9.36746 52.3399 9.23548 52.3399L9.23426 52.3393ZM42.3732 49.4345L43.0289 49.0922C43.0386 49.0874 43.0496 49.0794 43.0587 49.0745L45.1742 48.4345C45.4856 48.4345 45.4241 49.4632 45.387 49.6956C45.3585 49.8775 45.3639 49.8653 45.3098 49.9995C44.8676 51.094 44.3865 51.0391 44.3196 51.2917L43.2552 50.3588C43.2108 50.3143 43.2053 50.3088 43.1603 50.2637L42.6622 49.7634C42.622 49.7249 42.6396 49.7414 42.5879 49.695L42.3732 49.4339V49.4345ZM31.6908 51.2917C31.6483 51.1734 31.2061 50.925 30.9451 50.5163C30.8454 50.3601 30.7718 50.1752 30.7006 49.9995C30.5504 49.6285 30.5437 48.4345 30.7888 48.4345C30.9847 48.4345 30.9348 48.5022 31.1714 48.5273C31.7079 48.5834 31.4688 48.5828 31.9475 48.7011L33.3665 49.2777C33.3769 49.2826 33.3896 49.2875 33.4 49.2924L33.4973 49.3375C33.611 49.3967 33.5216 49.3912 33.6852 49.4351C33.6202 49.6792 32.4493 50.7261 32.1829 51.0239L32.0716 51.1502C31.9639 51.2728 32.0211 51.2923 31.6908 51.2923V51.2917ZM47.8802 48.5297L48.5912 48.8165C48.6259 48.8335 48.6794 48.8543 48.7214 48.8769C48.7305 48.8817 48.7427 48.8885 48.7518 48.8939L49.3479 49.2966C49.3552 49.3033 49.3649 49.3131 49.3722 49.3198C49.5924 49.5273 49.6349 49.526 49.8576 49.7853C50.3539 50.3643 50.346 50.515 50.4822 51.1111C50.5929 51.5962 50.4481 52.3064 50.1604 52.7212L49.8101 53.1794C49.638 53.3661 49.5717 53.4369 49.3661 53.5913L47.7099 54.4058C47.5548 54.4516 47.4848 54.4204 47.3237 54.4473C46.8383 54.5266 47.1126 54.6877 46.6747 54.216L46.4697 53.9458C46.4101 53.8585 46.4478 53.9104 46.3882 53.8372C46.1972 53.5998 45.8961 53.3149 45.8396 53.1014C45.9162 52.9867 45.8925 53.0251 46.0026 52.9311C46.432 52.5657 46.7069 52.2954 47.0238 51.8128C47.2914 51.4058 47.4301 51.0995 47.5651 50.6413C47.6034 50.5114 47.553 50.6596 47.6241 50.5102L47.8334 49.2435C47.8334 49.0507 47.8066 48.9934 47.7792 48.8134C47.7537 48.645 47.691 48.5291 47.8808 48.5291L47.8802 48.5297ZM28.1771 49.149C28.1771 49.3412 28.2014 49.62 28.2391 49.8012C28.2701 49.9501 28.2993 49.9031 28.317 50.1038C28.3754 50.7579 28.3717 50.3466 28.4544 50.6804L29.0438 51.8988C29.3954 52.4302 29.5413 52.5327 29.9549 52.8903C30.059 52.9799 30.079 53.0165 30.2189 53.0538C30.2128 53.3222 30.0291 53.4034 29.7779 53.7542L29.503 54.0971C29.4969 54.1044 29.4872 54.1148 29.4811 54.1227L29.4373 54.1746C29.1156 54.5724 29.2543 54.5876 28.7646 54.465C28.4909 54.3966 28.3267 54.4589 27.7361 54.2106L27.1467 53.9445C26.9205 53.8219 26.3591 53.3991 26.1438 53.141C26.0951 53.083 26.0817 53.0605 26.041 53.0062L25.6012 52.2094C25.437 51.767 25.454 51.0617 25.6371 50.6468L25.8542 50.1978C25.8591 50.188 25.8652 50.1758 25.87 50.166C26.0702 49.7951 26.3773 49.4974 26.7021 49.2387L28.1309 48.5291C28.3802 48.5291 28.1783 48.9013 28.1783 49.1484L28.1771 49.149ZM49.5893 46.6249C49.6295 46.4522 49.6416 46.4571 49.7116 46.3186L49.7815 46.1502C50.1033 45.3021 50.0644 44.5749 50.0644 43.6243C50.0644 42.4498 50.0644 41.2747 50.0644 40.1002L52.7436 43.0319C52.7503 43.0392 52.76 43.049 52.7667 43.0563L53.9139 44.3345C53.9868 44.4138 54.0355 44.4724 54.1194 44.5572L54.7119 45.2015C54.7356 45.2271 54.7502 45.2442 54.78 45.2765C54.943 45.4553 55.0348 45.5779 55.2051 45.7549L56.7963 47.5407C57.0444 48.0312 56.4636 47.9977 56.1327 48.044C55.3761 48.1502 55.581 48.1966 54.4333 48.1966L53.2521 48.1435C53.0909 48.1209 53.1146 48.0904 52.9157 48.052C52.4754 47.9678 52.7892 48.0684 52.2966 47.911C52.184 47.875 52.0928 47.8805 51.9803 47.8476L50.7529 47.3168C50.6805 47.2808 50.6531 47.271 50.5923 47.2399L50.0692 46.955C49.832 46.8116 49.7304 46.8146 49.5918 46.6243L49.5893 46.6249ZM21.4829 48.1966C21.2025 48.1966 20.3996 48.163 20.2007 48.1014C20.0499 48.0544 19.7962 48.0251 19.6253 48.0117C19.2008 47.9769 19.0025 47.8091 19.2707 47.4541C19.4124 47.2661 19.5146 47.2277 19.6989 46.9788L20.1283 46.5047C20.1375 46.4943 20.1648 46.4657 20.1739 46.4553L20.3953 46.2009C20.402 46.1935 20.4118 46.1832 20.4185 46.1765L24.223 41.9916C24.2734 41.9349 24.2613 41.9471 24.3099 41.8885C24.3124 41.8855 24.3507 41.8391 24.3525 41.836L25.3494 40.7409C25.3585 40.7305 25.3841 40.7 25.3932 40.689L25.9455 40.1002C25.9455 40.9569 25.9041 44.6029 25.9953 45.2893L26.2161 46.1154C26.2569 46.221 26.2368 46.1923 26.2818 46.2875C26.3487 46.4278 26.3731 46.4199 26.4205 46.6249L26.3049 46.7469C26.297 46.753 26.2861 46.7616 26.2776 46.7671L24.743 47.5614C24.6749 47.584 24.6651 47.5767 24.5934 47.6017L22.6951 48.1264L21.4829 48.1966ZM28.3668 44.8629V28.0991C28.3668 27.8398 28.3991 27.6531 28.5402 27.4634L28.6697 27.3072C28.7811 27.1955 28.8759 27.1406 29.0341 27.101C29.1977 27.0601 29.3406 27.0033 29.5061 27.0033H46.5025C46.9362 27.0033 47.3754 27.2132 47.5633 27.6061C47.6229 27.7306 47.6424 27.9258 47.6424 28.0985C47.6424 29.8593 47.7147 44.8543 47.6016 45.2497L47.4404 45.5639C47.3936 45.6322 47.4374 45.5895 47.3528 45.6664C46.9818 46.0056 46.553 45.9599 46.0281 45.9568C45.5835 45.9544 45.5786 46.0001 45.2295 46.0605C45.0014 46.1002 44.6444 46.0953 44.4412 46.1752C44.2509 46.2503 44.2989 46.2204 44.0836 46.2454L43.0137 46.5529C42.886 46.5926 42.9219 46.5993 42.8525 46.6292C42.8422 46.6334 42.83 46.6395 42.8197 46.6438C42.8087 46.6481 42.796 46.6524 42.7844 46.656C42.7315 46.6737 42.7224 46.6694 42.6695 46.6835C42.1227 46.8342 41.3392 47.2722 40.8441 47.5675L40.27 47.9446C40.2158 47.9812 40.1812 48.0032 40.1276 48.0404C40.1191 48.0459 40.1076 48.0538 40.0997 48.0599L40.0176 48.1203C40.0096 48.1264 39.9987 48.1349 39.9908 48.1411L39.4793 48.5328C39.4008 48.6066 39.3424 48.6548 39.2579 48.739L38.7445 49.224C38.6946 49.2734 38.7129 49.2557 38.6715 49.2942L38.188 49.7615C38.1053 49.8592 38.1387 49.7628 38.0992 49.9104H37.9094C37.8814 49.8061 37.7951 49.7365 37.7245 49.6676C37.7148 49.6578 37.6862 49.6304 37.6765 49.6206L36.8924 48.883C36.8852 48.8763 36.8754 48.8665 36.8681 48.8598C36.8657 48.8579 36.8146 48.8049 36.7976 48.7878L35.4595 47.7487C35.4509 47.7433 35.4394 47.7353 35.4309 47.7298L33.6165 46.7878C33.6062 46.7835 33.594 46.7774 33.5843 46.7725C33.2066 46.5987 32.7729 46.4596 32.3684 46.3729C32.2346 46.3442 32.1872 46.2838 32.057 46.257L31.2626 46.1014C30.7925 46.0788 30.5072 45.9544 30.0298 45.9574C29.5334 45.9599 28.9021 46.0081 28.5889 45.5932L28.4812 45.4156C28.4021 45.2716 28.3675 45.0679 28.3675 44.8629H28.3668ZM50.0637 33.8141C50.262 33.8306 50.2705 33.9051 50.4378 33.9624C50.8611 34.1082 51.2723 34.3413 51.6877 34.5182L52.1859 34.7324C52.1968 34.7367 52.209 34.7415 52.2199 34.7458L52.816 35.0051C52.8269 35.0094 52.8397 35.0136 52.8501 35.0185L52.9443 35.0673C52.9535 35.0722 52.9644 35.0801 52.9741 35.085C52.9839 35.0899 52.9948 35.0972 53.0046 35.1021L53.1803 35.1643C53.8609 35.4261 54.5057 35.7873 55.1899 36.0539L55.5901 36.2241C55.7088 36.2803 55.6224 36.2461 55.7112 36.2931C55.7209 36.298 55.7325 36.3047 55.7422 36.3095L55.9703 36.4139C56.0725 36.4621 56.0226 36.4413 56.1041 36.47L61.6737 38.9312C61.7856 38.9868 61.7078 38.9532 61.8039 38.9916L65.8644 40.7763C66.0323 40.8483 66.1582 40.8635 66.1582 41.1008C66.1582 41.2973 65.7543 41.5127 65.6108 41.5993L65.2824 41.7939C65.2732 41.7994 65.2617 41.8061 65.2525 41.8116L64.1595 42.3821C64.0288 42.437 64.0695 42.4315 63.9704 42.4779L63.7009 42.5883C63.6815 42.5975 63.6833 42.6048 63.6054 42.6353L62.4376 42.988C62.1749 43.0648 62.389 43.0679 62.0326 43.1057C61.7053 43.1405 61.7826 43.1905 61.181 43.2515C61.0588 43.2637 60.8708 43.2771 60.7048 43.2979C60.5181 43.3205 60.4949 43.387 60.2711 43.387H58.989C58.756 43.387 58.6672 43.3278 58.5024 43.3034C58.1618 43.254 57.7652 43.2851 57.4897 43.1759C57.2543 43.0831 57.2445 43.1356 57.0019 43.0935L55.7112 42.6737C55.5275 42.6255 55.4849 42.5529 55.3517 42.415L54.9241 41.9392C54.915 41.9288 54.887 41.9007 54.8779 41.8903L53.999 40.9148C53.9351 40.8489 53.9199 40.8263 53.8634 40.7647C53.8232 40.7207 53.8415 40.7415 53.7934 40.6921L52.0137 38.7153C51.9785 38.6805 51.9791 38.6823 51.9414 38.6451C51.9347 38.6384 51.9243 38.628 51.9176 38.6213L51.5472 38.1832C51.4359 38.0679 51.3757 38.0197 51.2693 37.8904C51.1896 37.7934 51.2261 37.8306 51.1354 37.7391L50.4299 36.9703C50.1367 36.661 50.0564 36.625 50.0613 36.1491C50.0698 35.3724 50.0619 34.5914 50.0619 33.8148L50.0637 33.8141ZM17.0203 43.3864H15.7381C15.5295 43.3864 15.4942 43.3278 15.3464 43.3034C15.2089 43.2802 14.9681 43.2692 14.8701 43.257C14.6767 43.2326 14.5673 43.2631 14.3939 43.2106L13.6069 43.0002C13.4895 42.9587 13.5497 42.9819 13.4086 42.9611C13.1872 42.9282 13.3447 42.9739 13.1841 42.9007L12.897 42.808C12.8843 42.8049 12.8709 42.8025 12.8587 42.7988L12.0717 42.4931C11.9445 42.4382 12.0291 42.4663 11.9154 42.412L11.3643 42.1551C11.3071 42.1258 11.2828 42.1124 11.2068 42.0746L10.6965 41.7769C10.5997 41.7195 10.6405 41.7464 10.5499 41.686C10.326 41.5371 9.85101 41.34 9.85101 41.0533C9.85101 40.8983 9.89237 41.0173 9.94589 40.8153C10.1606 40.8153 10.1065 40.8257 10.2549 40.7439L13.1853 39.445C13.3252 39.3846 13.2729 39.3894 13.442 39.3211L14.2054 38.991C14.2163 38.9868 14.2285 38.9819 14.2394 38.9776L15.3221 38.492C15.423 38.4444 15.3148 38.4889 15.4553 38.4352C15.5879 38.384 15.5702 38.3901 15.6846 38.3321C16.3415 38.0008 17.0355 37.7549 17.696 37.4444L18.1935 37.229C18.2872 37.1942 18.2014 37.2345 18.3243 37.1698L19.1771 36.7873C19.2476 36.7598 19.2506 36.7629 19.3145 36.7342C19.4641 36.6665 19.233 36.772 19.3778 36.7025L21.422 35.8001C21.5279 35.7519 21.582 35.7446 21.6915 35.6891L22.1787 35.4639C22.3192 35.4102 22.3253 35.4078 22.4445 35.3492L22.6726 35.2449C22.7723 35.1924 22.6641 35.2333 22.7954 35.1778L25.409 34.0374C25.5599 33.9581 25.7983 33.827 25.9467 33.8148C25.9467 34.1906 26.0209 36.3919 25.8889 36.6146C25.8877 36.6164 25.7739 36.7635 25.7642 36.7751L25.2162 37.3681C25.1529 37.4432 25.128 37.4743 25.0623 37.5469L24.9936 37.6207C24.9881 37.6262 24.9407 37.6732 24.9218 37.6915L20.5182 42.5609C20.4154 42.6579 20.2926 42.675 20.1666 42.7317L19.0481 43.0856C18.845 43.1344 18.7635 43.0831 18.5536 43.1612C18.4089 43.2155 18.5086 43.2094 18.3438 43.2369C18.2574 43.2509 18.1601 43.2412 18.0695 43.2479L17.0209 43.387L17.0203 43.3864ZM63.9747 37.1954C63.5939 37.1954 63.3269 37.0899 63.0045 36.9307C62.8835 36.8709 62.7594 36.8111 62.6511 36.7617L62.3501 36.6354C62.257 36.5914 62.3501 36.6305 62.2521 36.5908L59.5108 35.3876C59.4536 35.3657 59.4731 35.3785 59.4062 35.3498C59.287 35.298 59.3192 35.2992 59.2177 35.2534C59.1538 35.2247 59.1106 35.215 59.0467 35.1863C58.9452 35.1406 58.9774 35.1412 58.8582 35.0899C58.7913 35.0612 58.8107 35.074 58.7536 35.0521L53.9388 32.9289C53.9291 32.924 53.9175 32.9173 53.9078 32.9124L51.7978 31.9807C51.6074 31.8819 51.7577 32.0362 51.6306 31.8624C52.4565 31.7934 53.1633 31.7196 54.0994 31.7196C55.0117 31.7196 55.8328 31.7049 56.6552 31.6165C57.4051 31.5359 58.4014 31.6708 59.1994 31.5494C60.0418 31.4219 61.4791 31.4469 62.3622 31.4359C62.9084 31.4292 63.7374 31.2949 64.21 31.2895C64.6516 31.284 65.0993 31.2913 65.5415 31.2913C66.0347 31.2913 66.3382 31.2406 66.8242 31.2443C67.3011 31.2474 67.5797 31.1449 68.0571 31.1479C68.5005 31.1503 68.9451 31.151 69.3885 31.1503C69.6738 31.1497 69.7328 31.1028 70.0022 31.0991C70.2236 31.0967 70.4487 31.1028 70.6707 31.1028C71.1068 31.1021 71.4237 31.0057 71.9036 31.0057C72.2381 31.0057 72.9193 30.9051 73.162 31.1247C73.311 31.2596 73.2806 31.4682 73.2806 31.6726C73.2806 31.8569 72.1444 33.4072 71.8695 33.7336L71.386 34.2486C71.3477 34.2852 71.361 34.273 71.3118 34.3175C71.2467 34.3767 71.2473 34.3724 71.1871 34.431L70.8112 34.7684C70.72 34.8379 70.6652 34.8892 70.574 34.9593L69.6361 35.6378C69.5771 35.675 69.5455 35.6921 69.4889 35.7287L69.3429 35.8202C69.3003 35.844 69.2395 35.8733 69.1866 35.9014C69.1507 35.9203 69.0747 35.9606 69.0327 35.9856C68.5626 36.2656 68.0723 36.4279 67.5845 36.628L67.2263 36.7452C67.0602 36.7976 67.0906 36.8275 66.9112 36.858C66.5061 36.927 66.5651 36.9709 66.1168 37.0142C65.966 37.0289 65.876 37.0777 65.7452 37.118C65.5256 37.1851 64.3086 37.1985 63.974 37.1985L63.9747 37.1954ZM2.72982 31.6708C2.72982 31.4859 2.70427 31.2748 2.82409 31.1461C3.05583 30.8971 3.77537 31.0039 4.10685 31.0039C4.57155 31.0039 4.88114 31.096 5.29169 31.1009C5.51309 31.1034 5.73814 31.0973 5.96014 31.0973C6.2454 31.0979 6.3044 31.1449 6.57385 31.1485C7.01421 31.154 7.4643 31.1485 7.90527 31.1461C8.39733 31.1436 8.67773 31.2449 9.13816 31.2425C9.61927 31.24 9.90697 31.2901 10.3735 31.2888C10.8169 31.2876 11.2603 31.2895 11.7043 31.2876C12.1672 31.2858 12.4451 31.3889 12.9378 31.3834L14.2193 31.4316C14.6469 31.4316 15.0745 31.4322 15.5021 31.4304C16.0112 31.4286 17.0519 31.5744 18.0172 31.5744C18.8979 31.5744 19.6849 31.5805 20.5736 31.6769C20.9671 31.7196 21.4001 31.7171 21.8624 31.7171C22.8192 31.7171 23.5363 31.7898 24.3787 31.8599C24.2716 32.0063 24.0168 32.0619 23.8458 32.1351C23.7905 32.1589 23.7613 32.1772 23.7504 32.1821L22.1008 32.9087C22.0911 32.9136 22.0789 32.9203 22.0692 32.9246C22.0388 32.9392 22.0163 32.9508 21.9725 32.9703L19.9963 33.8453C19.9866 33.8501 19.9744 33.8562 19.9647 33.8611C19.913 33.8855 19.9148 33.8813 19.8644 33.9032L19.4982 34.0594C19.4027 34.1003 19.4222 34.0997 19.3023 34.1485L18.8377 34.3492C18.7391 34.3889 18.8328 34.3498 18.7397 34.3938C18.64 34.4407 18.6448 34.4365 18.5402 34.4792L14.1956 36.4078C14.1445 36.4285 14.1372 36.4261 14.0904 36.445L13.6348 36.6549C13.5552 36.6958 13.6281 36.6652 13.5375 36.7L13.3313 36.7787C12.9189 36.9904 12.5139 37.193 12.0352 37.193C11.7006 37.193 10.4836 37.1796 10.264 37.1125C9.9611 37.0197 9.61866 37.0045 9.5104 36.9636C9.43559 36.9349 9.50918 36.9374 9.34678 36.8898C9.05848 36.8044 8.83587 36.8056 8.46363 36.6323L8.10295 36.5182C8.01536 36.4834 8.033 36.481 7.94237 36.4413L5.53742 35.0435L4.70414 34.3077C4.69745 34.301 4.68711 34.2906 4.68042 34.2839L4.22911 33.8312C4.22242 33.8239 4.21269 33.8141 4.206 33.8068L4.0065 33.578C3.98217 33.5518 3.98034 33.5536 3.93777 33.5042L3.25959 32.5652C3.19268 32.4548 3.14645 32.3822 3.0759 32.2736C3.00413 32.1631 2.97311 32.0826 2.90499 31.9691C2.83991 31.8605 2.72921 31.758 2.72921 31.6696L2.72982 31.6708ZM2.58749 19.0504C2.86971 19.0504 3.03393 19.1303 3.26202 19.231L3.58317 19.3853C3.59351 19.3896 3.60689 19.3939 3.61723 19.3988L4.08861 19.6404C4.09834 19.6453 4.11111 19.6507 4.12145 19.6556L4.28203 19.7325C4.29115 19.7374 4.30271 19.7453 4.31183 19.7502L4.88357 20.0339C4.99366 20.0906 4.83491 20.0113 4.94439 20.0681L6.50998 20.8313C6.56229 20.8576 6.55925 20.8515 6.60913 20.8753L6.79525 20.9747C6.80498 20.9796 6.81775 20.9851 6.82809 20.99L8.19722 21.6642C8.24953 21.6904 8.27934 21.7093 8.35354 21.7453L10.8017 22.9564C10.812 22.9613 10.8248 22.9662 10.8351 22.971C10.8449 22.9759 10.8576 22.9814 10.868 22.9863C10.9063 23.0052 10.944 23.029 10.9598 23.0375L12.4226 23.7605C12.495 23.7978 12.5418 23.8228 12.6118 23.8563L13.8264 24.4475C13.8982 24.4817 13.852 24.4573 13.9207 24.4957L16.2746 25.6586C16.3573 25.7013 16.2581 25.6562 16.3646 25.7111L16.6851 25.8655C16.6942 25.8703 16.7058 25.8777 16.7149 25.8832L20.975 27.9911C21.0297 28.0149 21.02 28.0064 21.0753 28.0338L21.225 28.1217C21.2688 28.1455 21.273 28.1461 21.3199 28.1693L22.6288 28.8093C22.6987 28.8447 22.6914 28.8447 22.7887 28.8874L23.4572 29.2169C23.546 29.2596 23.5417 29.2486 23.6172 29.295C23.6178 29.2956 23.6828 29.3395 23.6999 29.3554C23.7771 29.428 23.7126 29.309 23.7631 29.4347C23.0764 29.4347 22.4585 29.4103 21.8563 29.3468C21.245 29.2822 20.5882 29.2882 19.9167 29.2925C19.5475 29.295 19.3583 29.2425 18.9678 29.2443L14.1457 29.0338C13.8234 28.9868 13.5114 29.0186 13.1744 29.0082L12.2262 28.9588C11.52 28.9588 10.9361 28.9746 10.3084 28.8825C9.89784 28.8227 8.3657 28.8862 8.12667 28.7855L7.98373 28.6909C7.86391 28.6092 7.7745 28.5677 7.66259 28.4896C7.0653 28.0723 6.76423 27.8783 6.25574 27.4243C6.15174 27.331 6.07449 27.2864 5.96683 27.1906L5.84458 27.0753C5.83789 27.0686 5.82755 27.0583 5.82086 27.0515L4.89513 26.0278C4.41705 25.5043 3.911 24.6794 3.59776 24.043L3.27662 23.3652C3.23161 23.2627 3.25046 23.32 3.20241 23.2017C3.17443 23.1327 3.15497 23.0748 3.11726 23.0009L2.73833 21.9045C2.7213 21.8063 2.73711 21.7996 2.70853 21.6965C2.67386 21.569 2.65865 21.6056 2.62155 21.4976C2.56498 21.331 2.60756 21.2511 2.56985 21.0736C2.52606 20.8673 2.46584 20.8948 2.44699 20.6727C2.41718 20.3146 2.43117 20.0827 2.3448 19.7746C2.31682 19.6752 2.26756 19.4726 2.31865 19.3085C2.3223 19.2969 2.32716 19.2847 2.33203 19.2737C2.33629 19.2633 2.34298 19.2517 2.34845 19.242C2.39833 19.1498 2.47192 19.054 2.5887 19.054L2.58749 19.0504ZM51.4408 17.4311C50.4992 17.4311 48.6198 17.2926 47.7847 17.6209C47.5627 17.7081 47.5773 17.6318 46.9094 17.9333C46.4898 18.1224 46.1078 18.3872 45.7611 18.6861C45.7538 18.6929 45.7429 18.7014 45.7356 18.7081L45.3353 19.1163C45.3286 19.1236 45.3189 19.1334 45.3122 19.1407L44.5142 20.3408C44.1371 21.4378 43.9808 21.8899 44.0799 23.101C44.1018 23.3713 44.1517 23.4256 44.1973 23.6977C44.308 24.3603 44.631 24.6702 44.367 24.6702H39.3345C39.225 24.6702 39.1922 24.6373 39.1922 24.5275C39.1922 23.6416 39.0906 21.0479 39.3242 20.3262C39.3838 20.1425 39.3552 20.1022 39.3899 19.9155L39.7408 18.8863L40.5893 17.4043C40.669 17.2981 40.7128 17.2304 40.7924 17.1322C40.7985 17.1242 40.8076 17.1132 40.8137 17.1059L40.8581 17.0553C41.3088 16.5574 41.7845 16.0614 42.3556 15.7002L42.8312 15.4153C42.8404 15.4098 42.8519 15.4025 42.861 15.3976C42.8769 15.3884 42.9419 15.3549 42.9541 15.3482L43.4072 15.1358C43.6998 14.987 43.6128 15.0626 44.0933 14.8717C44.4668 14.7234 44.7922 14.6593 45.2088 14.6099C45.4618 14.58 45.7599 14.48 46.0287 14.48H48.6873C48.8874 14.48 49.0662 14.591 49.2609 14.6191C49.5571 14.6618 49.6806 14.7484 49.9007 14.882C49.9099 14.8875 49.9214 14.8942 49.9305 14.8997L50.7346 15.5696C50.7413 15.577 50.751 15.5867 50.7577 15.594C50.7644 15.6014 50.7742 15.6111 50.7808 15.6184L51.1056 16.1023C51.279 16.4098 51.4079 16.7771 51.4529 17.1389C51.4688 17.267 51.4949 17.3109 51.4408 17.433V17.4311ZM27.3225 14.4781H29.9811C30.2414 14.4781 30.5139 14.5794 30.7529 14.6087C30.8892 14.6252 31.0333 14.6075 31.1568 14.6325L31.6829 14.7716C31.9737 14.8259 32.9043 15.2463 33.1786 15.4141L33.7108 15.7374C33.7187 15.7435 33.729 15.7527 33.7369 15.7588C33.7935 15.8045 33.8105 15.8295 33.8628 15.8704C33.9699 15.954 33.9151 15.9052 34.007 15.9638L34.0928 16.0205C34.1007 16.0266 34.1116 16.0352 34.1195 16.0413L34.4978 16.3762C34.5891 16.4604 34.6517 16.5129 34.7417 16.6075L35.8548 18.0626L36.3158 18.9808C36.3201 18.9918 36.3244 19.0046 36.328 19.0162L36.5166 19.6367C36.5616 19.7789 36.5652 19.7398 36.5889 19.8027L36.7599 20.5842C36.8541 21.1443 36.8182 23.9448 36.8182 24.5256C36.8182 24.6355 36.7854 24.6684 36.6759 24.6684H31.6434C31.3879 24.6684 31.6416 24.2987 31.6933 24.1474C31.6969 24.1358 31.7012 24.1229 31.7054 24.112C31.7097 24.101 31.714 24.0882 31.7182 24.0772C31.8697 23.6654 31.9755 22.968 31.9755 22.5256C31.9755 21.8197 31.7754 20.9814 31.4938 20.3414C31.4475 20.2359 31.4141 20.1694 31.3496 20.0571L31.0194 19.5312C31.0133 19.5232 31.0054 19.5116 30.9993 19.5037L30.1976 18.641C29.7542 18.2645 29.3607 18.0858 28.9994 17.8905C27.8091 17.2475 25.8244 17.4293 24.569 17.4293C24.493 17.1029 24.6578 16.63 24.802 16.3292L25.9017 15.0034C25.9138 14.9961 25.9485 14.9748 25.9607 14.9674C26.6382 14.5568 26.4746 14.7362 27.0281 14.5617C27.1449 14.5251 27.1717 14.4769 27.3231 14.4769L27.3225 14.4781ZM51.8203 26.9082C51.8866 26.6592 52.9522 25.7306 53.1986 25.4329L56.5317 22.0613C56.5773 22.0119 56.5968 21.9857 56.6436 21.9357L57.7822 20.7923C57.7889 20.7856 57.7993 20.7758 57.8059 20.7685C57.8126 20.7618 57.823 20.7514 57.8297 20.7447L57.972 20.6019C58.0249 20.5488 58.0456 20.5281 58.0906 20.483L58.7238 19.832C58.7305 19.8252 58.7408 19.8149 58.7475 19.8082C58.7542 19.8014 58.7645 19.7911 58.7712 19.7844L59.2779 19.292C59.2846 19.2853 59.2949 19.2749 59.3016 19.2682L59.6732 18.8789C59.6799 18.8722 59.6902 18.8619 59.6969 18.8551C59.731 18.821 59.7292 18.8234 59.7687 18.7844L60.7182 17.832C60.7717 17.7783 60.7911 17.7581 60.8368 17.713L61.1676 17.3786C61.1743 17.3713 61.1835 17.361 61.1902 17.3536C61.754 16.7301 62.378 16.1633 62.9656 15.5629C63.0167 15.5105 63.0325 15.4915 63.0799 15.4397L63.4321 15.0785C63.4388 15.0718 63.4491 15.0614 63.4558 15.0547L63.8123 14.6978C63.822 14.688 63.8506 14.6599 63.8597 14.6502C63.9053 14.6032 63.8956 14.613 63.929 14.577C64.0276 14.4702 64.0653 14.4391 64.1681 14.3408L64.8803 13.6264C64.887 13.6197 64.8973 13.6093 64.904 13.6026L65.0232 13.4842C65.0299 13.4775 65.0403 13.4672 65.047 13.4604C65.0536 13.4537 65.0634 13.4434 65.0707 13.4366L66.6722 11.8046C66.7196 11.7515 66.7324 11.7326 66.7889 11.6838C67.0888 11.4202 67.5085 11.3586 67.6356 11.8082L67.8229 12.6203C67.8546 12.746 67.8643 12.7252 67.8917 12.8369L67.9695 13.4733C67.9957 13.6319 67.9981 13.5477 68.0346 13.6941C68.2013 14.3616 68.1021 16.3805 68.0583 17.1486C68.0413 17.4531 67.9726 17.5891 67.9349 17.882C67.9069 18.0986 67.7852 18.8887 67.6727 19.0479C67.5584 19.2096 67.3388 19.2566 67.163 19.3463L63.5136 21.1626C63.5045 21.1675 63.4935 21.1761 63.4844 21.1809L63.229 21.306C63.2198 21.3109 63.2083 21.3188 63.1992 21.3237L63.0386 21.4006C63.0288 21.4055 63.0161 21.411 63.0063 21.4158L62.2394 21.7892C62.1195 21.8496 62.0672 21.8765 61.9547 21.9326L60.2687 22.7654C60.1823 22.8106 60.262 22.7795 60.147 22.8338C60.0698 22.8704 60.0546 22.8655 59.9779 22.9021L58.461 23.6666C58.3643 23.716 58.4689 23.6733 58.3351 23.7306L57.3455 24.2139C57.2646 24.2468 57.2476 24.2492 57.1782 24.284L53.847 25.9429C53.8342 25.9497 53.7983 25.9698 53.7849 25.9765L52.9851 26.3645C52.976 26.3694 52.9644 26.3774 52.9553 26.3822L52.6402 26.5427C52.6305 26.5476 52.6183 26.5537 52.6086 26.5586L52.4097 26.6452C52.198 26.7495 52.0563 26.8557 51.8197 26.9106L51.8203 26.9082ZM36.1054 8.62033H39.9032C40.2146 8.62033 39.8965 9.15236 40.155 10.0346C40.2031 10.1993 40.1714 10.2091 40.1945 10.3763L40.5291 11.3262C40.5637 11.4098 40.6142 11.4818 40.6659 11.5703L41.9925 13.1926C41.8258 13.2371 41.5473 13.4269 41.3776 13.5282L39.2974 15.2518L38.8698 15.7752C38.8637 15.7826 38.8546 15.7936 38.8479 15.8009L38.2762 16.6081C38.2707 16.6172 38.2652 16.63 38.2604 16.6398C38.2549 16.6489 38.2494 16.6618 38.2439 16.6709C38.2391 16.6801 38.2318 16.6923 38.2269 16.7014L38.1904 16.76C38.1314 16.86 38.1326 16.8112 38.0992 16.9546H37.9094C37.8425 16.6654 37.3857 16.0669 37.1826 15.8265L35.9673 14.5214C35.6535 14.2548 34.4528 13.3091 34.0167 13.192L34.8378 12.3488C34.8981 12.2689 34.9425 12.2109 35.0002 12.131C35.0452 12.0688 35.0343 12.0803 35.0775 12.0181L35.5847 11.0511C35.5933 11.0328 35.6042 11.0444 35.6462 10.9223C35.6809 10.821 35.6644 10.8272 35.6912 10.7289C35.7253 10.6026 35.7855 10.5337 35.808 10.4178C35.8402 10.253 35.8037 10.2036 35.8536 10.0346C36.0701 9.29574 35.822 8.62033 36.1054 8.62033ZM45.9332 10.0017H48.5918C48.7895 10.0017 48.5942 9.9864 48.722 10.0621C48.7469 10.0767 48.8199 10.1292 48.8333 10.1408C49.1447 10.4062 48.8704 11.0077 48.815 11.2731C48.7706 11.4861 48.8187 11.4714 48.7281 11.71C48.7165 11.7405 48.6849 11.7979 48.6648 11.8845C48.6362 12.0059 48.6393 12.0077 48.6393 12.1444H45.8858C45.8858 11.8583 45.7933 11.8021 45.7562 11.5599C45.6839 11.0828 45.6455 11.1792 45.6127 10.9894C45.5275 10.4928 45.4856 10.2463 45.8031 10.0614C45.932 9.9864 45.7349 10.0017 45.9332 10.0017ZM30.1234 12.145H27.37C27.37 11.962 27.3511 11.8882 27.2957 11.7436C27.2209 11.5489 27.0379 10.6893 27.0379 10.4306C27.0379 10.2402 27.2495 10.0017 27.4174 10.0017H29.9811C30.5267 10.0017 30.4659 10.5514 30.402 10.948C30.3539 11.2457 30.3211 10.9608 30.2578 11.5178C30.2268 11.7936 30.1228 11.8454 30.1228 12.1444L30.1234 12.145ZM34.4911 5.0017C34.4911 4.66552 34.4723 4.42757 34.802 4.07492C34.9358 3.93154 35.2271 3.76314 35.3457 3.76314C36.2362 3.76314 35.4935 3.75277 36.2897 3.91202C36.5087 3.95594 36.5421 4.03953 36.817 4.0499C37.4812 4.07492 37.9283 4.27199 38.6022 4.12434C38.7275 4.09688 38.7427 4.06943 38.8649 4.05417C38.972 4.04075 39.0851 4.05417 39.1928 4.0499C39.385 4.04258 40.2359 3.76314 40.2365 3.76314C40.7006 3.76314 40.6519 3.72593 41.0266 3.923C41.175 4.00109 41.3113 4.18169 41.383 4.32751C41.5582 4.68443 41.5187 4.51238 41.5187 5.00108C41.5187 5.14629 41.5029 5.01268 41.3757 5.3336L41.2255 5.61182C41.22 5.62097 41.2133 5.63256 41.2079 5.64171C40.9719 6.02975 40.981 6.23963 40.7115 6.23963H35.2995C35.1784 6.23963 35.187 6.23902 35.1158 6.18594C35.1079 6.18045 35.0982 6.17008 35.0915 6.16276L34.493 5.00108L34.4911 5.0017ZM36.8176 1.04871V1.5728C36.5172 1.5728 36.432 1.43003 36.1054 1.43003C35.1882 1.43003 34.4991 1.36841 33.7382 1.91264L33.6566 1.97365C33.6019 2.01331 33.5916 2.0188 33.5441 2.05114C32.9481 2.45931 32.4931 3.11092 32.3015 3.80463L32.2668 3.91263C32.1263 4.29639 32.1117 5.04379 32.1896 5.45319L32.5272 6.4001C32.532 6.40986 32.5387 6.42145 32.5442 6.4306L33.3349 7.87598C33.4188 8.06207 33.282 7.73322 33.3617 7.94432C33.3647 7.95286 33.3878 8.02791 33.3969 8.0517C33.6639 8.75761 33.6268 9.47024 33.3842 10.1768L33.2917 10.4171C33.2905 10.419 33.2491 10.4849 33.237 10.505C33.1324 10.6795 33.0302 10.9004 32.8301 10.9541C32.8301 10.6148 32.8593 10.2304 32.7583 9.93088C32.65 9.60873 32.5831 9.26523 32.394 8.96261L32.3562 8.90526C32.3508 8.89672 32.3417 8.88635 32.3362 8.87781C32.3301 8.86987 32.3216 8.85889 32.3155 8.85096L32.237 8.7387C32.0552 8.48184 31.8186 8.30917 31.5698 8.12247L31.0729 7.8589C30.6812 7.72406 30.3284 7.66793 29.8862 7.66793C29.8862 7.13896 29.989 6.83878 29.7542 6.41962C29.6587 6.2494 29.5255 6.1292 29.3747 6.03829L29.2865 5.98399C29.2622 5.96996 29.2415 5.95227 29.1947 5.93335C28.8461 5.79546 28.376 5.85648 28.0865 6.05294L27.8176 6.30736C27.5074 6.69113 27.5603 7.18777 27.5603 7.66854C26.9326 7.66854 26.3469 7.80338 25.8439 8.18532C25.6815 8.30856 25.6036 8.36164 25.4589 8.51295C25.3847 8.59044 25.3731 8.60203 25.3026 8.68928L24.8732 9.4019C24.8689 9.41227 24.8628 9.42448 24.858 9.43424C24.802 9.55382 24.8519 9.39885 24.7935 9.56053C24.743 9.69964 24.774 9.69659 24.7442 9.84424C24.6822 10.1499 24.5569 10.4599 24.6518 10.8241L24.7649 11.3775C24.7825 11.5306 24.8221 11.555 24.8622 11.6612L25.0526 12.5257C25.0745 12.6978 25.0952 12.6862 25.0149 12.782C24.9236 12.8918 24.9048 12.8656 24.8075 12.9077C24.7965 12.9125 24.7837 12.9162 24.7728 12.9211C24.7625 12.926 24.7497 12.9302 24.7393 12.9351C24.4523 13.0736 24.1877 13.3171 23.9572 13.5312C23.3203 14.1218 22.7936 14.8698 22.5114 15.7008L22.3824 16.0949C22.3405 16.3402 22.3587 16.1737 22.2839 16.3774L22.1525 17.6617L22.3368 18.8612C22.3648 18.94 22.3806 19.0431 22.4122 19.1187C22.4761 19.2712 22.619 19.4061 22.7328 19.5116L23.06 19.7075C23.2638 19.788 23.2705 19.8143 23.5223 19.8155C24.1481 19.8179 27.1662 19.7209 27.6218 19.8942L28.7148 20.4647C28.7227 20.4708 28.7342 20.4793 28.7415 20.4854C28.7494 20.4915 28.7598 20.5006 28.7677 20.5074L29.3935 21.4036C29.6192 21.8917 29.5176 22.5073 29.5085 23.0052L29.1983 24.1229C29.1588 24.2395 29.1569 24.2145 29.1235 24.2865C28.8413 24.9002 28.6947 24.6568 28.0925 24.9192C28.0275 24.9472 28.0159 24.9442 27.9539 24.971C27.9435 24.9753 27.9307 24.9802 27.9204 24.9851C27.9107 24.9899 27.8985 24.996 27.8888 25.0009L27.7708 25.0729C27.7617 25.0784 27.7501 25.0851 27.741 25.0906C27.4971 25.2376 27.2787 25.3652 27.0725 25.5628C26.9168 25.7123 26.8371 25.8966 26.6109 25.957C26.558 25.8099 26.4126 25.7215 26.2976 25.6043L25.42 24.7227C25.4133 24.716 25.4029 24.7056 25.3962 24.6989C25.3895 24.6922 25.3792 24.6818 25.3725 24.6751L24.5976 23.8807C24.5179 23.8026 24.5283 23.8154 24.4492 23.7441C24.4389 23.7349 24.4097 23.7081 24.3993 23.6989L23.9091 23.1907C23.8994 23.1809 23.8714 23.1529 23.8617 23.1431L22.6981 21.9765C22.6914 21.9698 22.6817 21.9595 22.6744 21.9527L22.5083 21.7862C22.5017 21.7795 22.4913 21.7691 22.4846 21.7624L20.506 19.7465C20.4994 19.7392 20.4896 19.7295 20.4829 19.7221L20.3637 19.6032C20.354 19.5934 20.326 19.5653 20.3163 19.5556L19.7074 18.9278C19.6411 18.86 19.629 18.8503 19.5645 18.7856L19.0359 18.2682C19.0286 18.2615 19.0177 18.2523 19.011 18.2456C18.4952 17.7533 18.3675 17.3365 17.4959 17.3365C17.3329 17.3365 17.2173 17.3524 17.0993 17.4146L16.8189 17.6093C16.4284 17.9455 16.4516 18.2292 16.4516 18.7173C16.4516 18.8844 16.4643 18.8301 16.5166 18.9381C16.5215 18.9479 16.5288 18.9595 16.5337 18.9686L17.2392 19.785C17.2459 19.7917 17.2563 19.8021 17.2629 19.8088L18.1333 20.6977C18.14 20.7044 18.1504 20.7148 18.157 20.7215C18.1637 20.7282 18.1741 20.7386 18.1808 20.7453L18.6315 21.198C18.6382 21.2053 18.6479 21.2151 18.6552 21.2224C18.6649 21.2322 18.6929 21.2603 18.7026 21.27L22.4141 25.0241C22.4493 25.0595 22.4579 25.068 22.4852 25.0955L22.7468 25.3572C22.9767 25.6074 24.139 26.7166 24.1907 26.9094C23.8963 26.8404 23.6415 26.6794 23.3702 26.5415L22.3247 26.0186C22.276 25.9954 22.2766 26.0003 22.2255 25.9753L21.8204 25.7624C21.8113 25.7575 21.7998 25.7501 21.79 25.7453L18.3176 24.0375C18.3073 24.0327 18.2951 24.0278 18.2848 24.0229L18.1929 23.9716C18.1802 23.9649 18.1443 23.9448 18.1309 23.9381L17.7149 23.7367C17.7051 23.7319 17.693 23.7258 17.6838 23.7203L17.6242 23.6849C17.6115 23.6782 17.5756 23.658 17.5628 23.6513C17.5038 23.6239 17.519 23.6342 17.46 23.6117C17.3651 23.5744 17.2867 23.5324 17.2015 23.4896C17.0823 23.4305 17.0111 23.3926 16.9169 23.3463L16.0635 22.9161C15.9656 22.8661 16.0307 22.9015 15.9309 22.8588C15.9206 22.8545 15.9072 22.8502 15.8968 22.8454C15.8865 22.8411 15.8737 22.8356 15.864 22.8307L15.2947 22.5446C15.257 22.5256 15.2181 22.5012 15.2029 22.4933L13.2249 21.5244C13.2145 21.5202 13.2012 21.5159 13.1908 21.511C13.1805 21.5067 13.1677 21.5012 13.158 21.4964L12.9725 21.3969C12.9208 21.3719 12.9579 21.3933 12.9062 21.3682L11.6125 20.713C11.6033 20.7075 11.5924 20.6995 11.5839 20.6941L8.64671 19.2584C8.47884 19.181 8.39125 19.1578 8.30366 18.9833C8.22642 18.8289 8.19418 18.4726 8.13518 18.2951C8.05794 18.0608 8.09261 17.8192 8.03422 17.5391C7.96062 17.1859 7.90588 16.7984 7.90588 16.3817C7.90588 15.627 7.82377 14.4537 7.9667 13.7283L8.43139 11.6703C8.70571 11.239 9.13999 11.5843 9.38328 11.8522L9.59555 12.0675C9.63083 12.1029 9.63934 12.1115 9.66671 12.1389L9.83276 12.3055C9.83945 12.3122 9.84979 12.3226 9.85648 12.3293L10.3948 12.8845C10.469 12.9546 10.4702 12.9498 10.5444 13.0199L11.2962 13.7893C11.3314 13.8247 11.34 13.8332 11.3673 13.8607L12.1501 14.6471C12.217 14.7161 12.2274 14.724 12.2931 14.7893C12.3283 14.8247 12.3369 14.8332 12.3642 14.8607C12.374 14.8704 12.4019 14.8985 12.4117 14.9083L12.8855 15.386C13.029 15.5434 13.1787 15.7124 13.3739 15.8009C13.4232 15.8234 13.4244 15.821 13.473 15.8442C13.7626 15.9833 14.1366 15.9906 14.4359 15.8356C15.021 15.5324 15.2923 14.7167 14.9407 14.1816L10.885 10.0114C10.8193 9.94552 10.7859 9.9083 10.7184 9.84546L10.0146 9.36041C10.0043 9.35553 9.99212 9.35065 9.98117 9.34638C9.34253 9.07427 8.77505 9.07244 8.09565 9.1908C7.82924 9.23717 8.07558 9.1725 7.88338 9.26401C7.76599 9.31954 7.80674 9.29757 7.68205 9.3476L7.48924 9.43973C7.00022 9.68012 6.60122 10.0913 6.3409 10.5739L6.2898 10.6655C6.15478 10.9205 6.10673 11.1896 6.038 11.4605C5.99785 11.6179 5.93216 11.7069 5.91209 11.9052C5.88411 12.1822 5.84944 12.1115 5.79531 12.3592C5.75395 12.5495 5.7868 12.6899 5.74057 12.8759C5.5952 13.4598 5.6767 13.3805 5.62136 13.8991C5.58425 14.2469 5.4845 14.5105 5.4845 14.9528C5.4845 15.5751 5.46139 16.2243 5.5581 16.8314C5.61345 17.1785 5.62683 17.3128 5.62683 17.7148C5.34035 17.6477 5.10983 17.4879 4.83613 17.3652L4.35562 17.1328C4.29297 17.1004 4.25283 17.0803 4.19748 17.0535L3.70968 16.8289C3.64886 16.8003 3.14463 16.6197 2.96885 16.6197C2.17267 16.6197 2.57715 16.5855 2.00237 16.746C1.88194 16.7795 1.89106 16.7539 1.77002 16.7984L0.955599 17.2676C0.929445 17.2896 0.908765 17.3103 0.880786 17.3353L0.594308 17.6196C0.431302 17.8173 0.257955 18.0833 0.162462 18.3292C0.13935 18.389 0.115628 18.4628 0.0852168 18.5373L0.0213523 18.8063C0.00553825 19.2133 -0.0376463 20.3207 0.0864333 20.7008L0.65209 23.1339L1.00791 24.0625C1.02676 24.1095 1.02494 24.1175 1.04501 24.1681L1.31202 24.7575C1.34548 24.8264 1.37163 24.8758 1.40752 24.9472C1.47807 25.0869 1.52977 25.1846 1.60398 25.3218L2.25843 26.4274C2.3296 26.5464 2.41414 26.6537 2.49078 26.766C2.50903 26.7922 2.52545 26.8197 2.54795 26.8514L2.71035 27.0692C2.71643 27.0772 2.72495 27.0888 2.73042 27.0967L2.85207 27.2602C2.85815 27.2681 2.86667 27.2791 2.87275 27.287L3.93594 28.5061C4.00406 28.5762 4.04482 28.6141 4.10685 28.6678C3.231 28.6678 2.90681 28.5427 2.23228 28.7873C1.92269 28.8996 1.69703 29.0228 1.4288 29.2199L1.22991 29.4017C1.1849 29.4469 1.18247 29.4481 1.13442 29.4969L0.778603 29.9496C0.773129 29.9582 0.766438 29.9704 0.760964 29.9795L0.726295 30.0405C0.720821 30.0497 0.71413 30.0619 0.708656 30.0704C0.703182 30.0796 0.695883 30.0912 0.691017 30.1003L0.445291 30.6635C0.366221 30.9954 0.308438 31.3151 0.308438 31.669C0.308438 31.8502 0.480568 32.3962 0.56937 32.5976L0.661214 32.791C0.66608 32.8001 0.673987 32.8117 0.679461 32.8203L1.34852 33.9587C1.38684 34.0161 1.40752 34.046 1.44462 34.1003L2.83626 35.8001C3.26019 36.2247 3.71394 36.6469 4.20052 37.0033C4.20843 37.0094 4.21999 37.0173 4.22789 37.0234L5.21931 37.6957C5.22844 37.7012 5.23999 37.708 5.24912 37.7134C5.25824 37.7189 5.2698 37.7263 5.27831 37.7317L8.04517 39.0045C8.15708 39.0276 8.17776 39.0258 8.2842 39.0508C8.26656 39.2613 7.87364 39.6152 7.73922 39.8849C7.31893 40.7274 7.34022 41.75 7.89676 42.5352L8.25561 42.9373C8.63576 43.3217 9.57061 43.8494 10.0274 44.113L12.2402 45.0843C12.3934 45.1319 12.4701 45.1331 12.6124 45.1874L14.094 45.5584C14.2504 45.5834 14.355 45.5633 14.5028 45.5767C14.8975 45.6121 14.8379 45.7189 15.7862 45.7183C16.4035 45.7183 17.0203 45.7183 17.6376 45.7183C17.4405 46.0129 17.2039 46.2088 17.0397 46.5474C16.9266 46.7805 16.9327 46.8128 16.8487 47.0703C16.7976 47.2271 16.8141 47.1008 16.7782 47.3326C16.6851 47.9299 16.8402 48.5108 17.1243 49.0428L17.3846 49.401C17.648 49.7066 17.9582 49.9116 18.3073 50.0947L18.8717 50.2905C19.0183 50.3393 19.1916 50.3271 19.3954 50.3363C19.6357 50.3479 19.6363 50.4077 19.8936 50.4552C20.2463 50.5211 21.7462 50.5602 22.1014 50.5291C22.4852 50.4955 22.7966 50.4803 23.2394 50.4803C23.0527 50.8701 23.1446 51.6554 23.1446 52.0995C23.1446 52.4711 23.5417 52.6907 22.973 52.9275L19.6046 54.5968C19.5773 54.6102 19.542 54.6285 19.5098 54.6444C19.5 54.6492 19.4885 54.6559 19.4781 54.6608C19.4684 54.6657 19.4562 54.6718 19.4459 54.6761L18.9952 54.8908C18.9575 54.9098 18.9186 54.9342 18.9033 54.9421C18.8942 54.947 18.8827 54.9543 18.8729 54.9592L18.0099 55.3796C17.7964 55.4894 17.137 55.7487 17.019 55.9097C16.3548 55.4637 15.7344 55.4143 14.9255 55.4766C14.6561 55.4973 14.5466 55.5547 14.3081 55.6193C14.1178 55.6712 14.2443 55.6285 14.1068 55.7035L13.7431 55.8622C13.5272 55.4528 12.8563 54.5644 12.5516 54.1044L12.1203 53.4418C11.8928 53.08 12.3302 52.9458 12.6373 52.1343L12.7936 51.72C12.8289 51.609 12.8216 51.5407 12.8472 51.393C12.8794 51.2094 12.9348 51.2277 12.9348 51.0526V50.1002C12.9348 49.9165 12.7231 49.2484 12.6367 49.0178C12.5978 48.9141 12.5485 48.8293 12.4822 48.6969C12.4257 48.584 12.3843 48.4827 12.3229 48.3802L11.5535 47.4852C11.5182 47.4522 11.4677 47.4059 11.4282 47.3729L9.86378 46.5608L9.04206 46.4327C8.51959 46.4327 8.0184 46.5071 7.52269 46.6231C7.40287 46.3961 6.83296 45.5425 6.62677 45.3308L6.57872 45.2838C6.07388 44.8324 5.08003 44.8232 4.68042 45.8683C4.63237 45.9934 4.62568 45.786 4.62568 46.3375C4.62568 46.5529 4.62203 46.3174 4.66704 46.4388L4.80085 46.7811C4.89452 46.9293 4.96446 47.0416 5.06726 47.1807L5.36955 47.6395C5.44983 47.764 5.5064 47.8781 5.62318 47.9568L4.94987 49.091C4.8416 49.3259 4.71995 49.7085 4.71935 50.0025C4.71813 50.5181 4.65427 50.8463 4.73151 51.3759C4.77044 51.6432 4.99062 52.213 5.12747 52.4552C5.17978 52.5474 5.20472 52.5797 5.25702 52.6584L6.24054 53.8152C6.24844 53.8213 6.25939 53.8298 6.2673 53.8359L6.71009 54.1538C7.1316 54.4082 7.63582 54.5846 8.1066 54.6584C8.91737 54.7847 8.64367 54.7822 9.42342 54.6742C9.63874 54.6444 9.84493 54.6224 10.039 54.5772C10.1211 54.7328 10.1424 54.745 10.25 54.8896C10.2981 54.9543 10.3035 54.9604 10.3461 55.0318L11.0906 56.1422C11.177 56.2593 11.211 56.335 11.2943 56.4613L11.5504 56.8237C11.5559 56.8329 11.5626 56.8451 11.5674 56.8542C11.5729 56.8634 11.5796 56.8756 11.5851 56.8841C11.5906 56.8933 11.5979 56.9049 11.6027 56.914C11.6684 57.0257 11.7006 56.9683 11.7006 57.1019C11.7006 57.2929 11.7165 57.1178 11.6331 57.2252L11.0517 57.9756C11.0468 57.9848 11.0395 57.997 11.0346 58.0061C10.7506 58.543 10.5584 59.2935 10.7098 59.9054C10.8065 60.2935 10.9051 60.676 11.1368 61.0012C11.1423 61.0092 11.1514 61.0201 11.1575 61.0281C11.1636 61.036 11.1721 61.047 11.1782 61.0549C11.1843 61.0628 11.1928 61.0738 11.1982 61.0824C11.2043 61.0903 11.2128 61.1019 11.2183 61.1098L11.7195 61.7023C11.8053 61.7828 11.7256 61.7138 11.8217 61.7907C11.9464 61.8908 12.051 61.9555 12.1957 62.0348C12.2785 62.0799 12.3095 62.0872 12.3861 62.1293C12.5291 62.2074 12.4293 62.1989 12.6027 62.2453C12.571 62.6278 12.5424 63.194 12.6957 63.5808C12.7365 63.6839 12.7085 63.6187 12.7401 63.7266L13.0844 64.3813C13.0905 64.3892 13.0984 64.4008 13.1044 64.4088C13.2766 64.6473 13.4682 64.87 13.7078 65.0415L13.9627 65.2141C13.9712 65.2196 13.9827 65.2275 13.9913 65.2336C13.9998 65.2391 14.0107 65.2477 14.0192 65.2532C14.2625 65.4173 14.625 65.5576 14.9231 65.6327C15.2576 65.7169 15.8354 65.7175 16.1699 65.6327L17.0403 65.3154C17.2088 65.2398 17.0245 65.2947 17.2082 65.2452C17.2794 65.4417 17.2289 65.2733 17.3219 65.4167L19.1272 67.9871C19.3048 68.1415 19.3753 68.1628 19.6156 68.2129C19.938 68.28 19.8808 68.2654 20.2001 68.1988C20.7633 68.0817 21.006 67.5784 21.006 67.0067C21.006 66.5265 20.489 65.8602 20.1849 65.4496L19.4848 64.3898C19.1746 63.9024 19.1734 64.0073 19.6016 63.5497C19.6083 63.5424 19.6186 63.5326 19.6247 63.5253C19.8796 63.2483 20.0261 62.903 20.1216 62.5473L20.1995 62.3398C20.2652 62.1391 20.2463 61.8499 20.2463 61.6254C20.6058 61.6254 20.84 61.4314 21.1562 61.3478C21.2085 61.3337 21.214 61.3411 21.2736 61.3228L22.7413 60.7944C22.8477 60.7523 22.9025 60.7511 22.9992 60.72C23.1464 60.673 23.0819 60.6827 23.1993 60.6352C23.307 60.5918 23.3404 60.5955 23.4523 60.5558C23.5618 60.5174 23.5533 60.5064 23.6524 60.471C23.7315 60.443 23.692 60.46 23.7631 60.4393L24.9151 60.0232C24.9772 60.0049 24.9796 60.0128 25.0343 60L26.1955 59.5821C26.6115 59.4552 26.3001 60.0677 26.2703 60.335C26.1608 61.3099 26.3226 62.2447 26.8183 63.0811C26.8566 63.1452 26.8517 63.1452 26.8876 63.2025C26.9314 63.2721 26.9795 63.3301 27.0318 63.3917L27.9514 64.2788L28.8248 64.7834C29.2603 64.9768 29.6758 65.1238 30.1411 65.2251C30.3029 65.2605 30.312 65.2886 30.4288 65.3178C30.6848 65.3819 31.0565 65.3325 31.304 65.4875C31.4725 65.5924 31.4348 65.8426 31.45 66.0555C31.4725 66.3685 31.6483 66.6851 31.79 66.953L31.998 67.2678C32.0284 67.3123 32.026 67.3129 32.0546 67.3538L32.3161 67.6632C32.6987 68.0542 33.1421 68.391 33.6481 68.6131C34.1743 68.8444 34.6961 69.0957 35.1596 69.4301L36.0361 70.1702C36.0427 70.1769 36.0531 70.1866 36.0598 70.1939L36.2891 70.4398C36.2958 70.4472 36.3055 70.4569 36.3122 70.4642L37.0171 71.4715C37.3955 71.9877 38.0901 72.1787 38.6533 71.8041C39.0553 71.5362 39.2548 71.028 39.5407 70.6467L40.1343 70.0036C40.141 69.9969 40.1508 69.9865 40.1581 69.9798L40.8125 69.4459C40.8989 69.3916 40.9627 69.3361 41.0363 69.2891C41.0893 69.2556 41.071 69.2696 41.1264 69.2367L42.0375 68.7693C42.0478 68.7644 42.0606 68.7602 42.0716 68.7559L42.5101 68.5289C42.5198 68.524 42.532 68.5179 42.5417 68.5131L43.2911 68.0262C43.2984 68.0195 43.3087 68.0103 43.316 68.0036L43.7278 67.607C44.0112 67.3075 44.2825 66.9145 44.4072 66.5259L44.5708 65.7852C44.6365 65.2825 45.0659 65.4502 45.7879 65.2434L47.2799 64.7401C47.6922 64.5351 48.0998 64.266 48.4483 63.9597C48.4556 63.953 48.4665 63.9438 48.4738 63.9377C48.4811 63.931 48.4915 63.9219 48.4988 63.9152L48.6654 63.7492C48.6721 63.7419 48.6818 63.7321 48.6885 63.7248C48.7177 63.6931 48.7506 63.6553 48.7779 63.6235L49.1526 63.1421C49.6672 62.2654 49.9141 61.2166 49.7231 60.2044C49.6793 59.9738 49.6349 59.8597 49.6349 59.626L49.981 59.7554C49.9914 59.7596 50.0035 59.7663 50.0133 59.7706L51.0789 60.1782C51.1859 60.219 51.116 60.2038 51.2382 60.2563L51.9243 60.5204C52.0283 60.5705 51.9414 60.5381 52.094 60.5888C52.1542 60.6089 52.1883 60.6144 52.2698 60.6504L52.577 60.7712C52.7126 60.8176 52.7801 60.8554 52.9206 60.9024L53.881 61.2727C54.0185 61.3374 54.0817 61.3453 54.2192 61.4094L54.5689 61.5351C54.6608 61.5754 54.6231 61.5729 54.7283 61.6132C54.7958 61.6394 54.8511 61.6492 54.9089 61.6705L56.3425 62.2325C56.5013 62.2874 56.4873 62.3075 56.5317 62.3758C56.5828 62.4545 56.8297 62.892 57.0596 63.1318C57.3741 63.4594 57.7889 63.7657 58.2238 63.8694L58.5383 63.9829C58.815 64.0714 59.6246 64.0079 59.9378 64.0079C60.0503 64.2208 60.189 64.4106 60.3496 64.5948L61.5265 65.4142L62.3111 65.6272C62.9066 65.6272 63.3938 65.5875 63.9394 65.3081C64.0026 65.2757 63.943 65.3032 64.0294 65.2556L64.6425 64.823C64.6498 64.8163 64.6595 64.8059 64.6662 64.7992C64.6729 64.7925 64.6826 64.7822 64.6899 64.7755L64.7848 64.6803C64.7915 64.6736 64.8018 64.6638 64.8085 64.6565L65.092 64.3221C65.1005 64.3111 65.1254 64.28 65.1333 64.2684C65.196 64.1781 65.1741 64.1964 65.2179 64.1147L65.4119 63.7376C65.4168 63.7285 65.4247 63.7169 65.4295 63.7077L66.0518 62.3795C66.0876 62.2996 66.0962 62.2605 66.1333 62.1757C66.3522 61.6779 66.2732 61.8005 66.7524 61.5107L67.7512 60.7981C68.0802 60.4893 68.1313 60.4808 68.4427 60.1104C68.4439 60.1092 68.5102 60.0366 68.5108 60.036C68.5589 59.9841 68.5328 60.0165 68.5808 59.9628L69.3733 58.7102C69.4195 58.6114 69.4123 58.6407 69.4524 58.5516C69.79 57.7956 69.689 57.8701 69.8526 57.3814L70.0497 56.2453C70.0497 55.3735 70.0223 55.4711 69.9493 54.7267L69.1112 52.5199C69.0504 52.418 68.9993 52.3729 68.9324 52.271L68.3697 51.5498C67.826 50.9757 67.2439 50.4589 66.5231 50.116L66.2713 49.9879C66.205 49.9568 66.1661 49.9501 66.0998 49.9214L65.1127 49.5779C64.4813 49.3674 64.7945 49.6011 64.7362 48.6218C64.7161 48.2802 64.2642 47.7201 63.8785 47.7201C63.1912 47.7201 62.9692 47.7054 62.5751 48.2698C62.431 48.4766 62.4504 48.4937 62.4529 48.814C62.4547 49.0367 62.4541 49.2594 62.4541 49.4821L61.6628 49.6889C61.56 49.7176 61.5496 49.7445 61.389 49.7951C61.2279 49.8463 61.2869 49.8146 61.1439 49.883L59.1854 51.1569L58.7426 51.6175C58.711 51.6535 58.7134 51.6517 58.6769 51.695L57.9039 52.8244L57.3187 54.3332C57.2518 54.5211 57.2525 54.7572 57.2245 54.9531C57.2014 55.1154 57.1728 55.0873 57.1363 55.2453L52.9541 52.9641C52.4657 52.6822 52.8634 52.4131 52.8634 51.864V50.9116C52.8634 50.6725 52.8209 50.6981 52.816 50.4827C53.246 50.4827 53.2953 50.5535 53.5763 50.5773C54.0507 50.6169 54.6565 50.6474 55.1553 50.5437C55.5239 50.4674 55.8553 50.5236 56.2093 50.4577C56.4465 50.4138 56.466 50.3588 56.6631 50.3412C56.9362 50.3174 56.9696 50.3546 57.2044 50.2655L57.7317 50.08C58.0255 49.9287 58.2524 49.7866 58.4859 49.5504L58.6891 49.3253C58.7384 49.2667 58.7092 49.3064 58.7542 49.2478C58.7986 49.1905 58.8235 49.1532 58.8673 49.0751L59.127 48.4785C59.2566 47.9348 59.3162 47.5535 59.1593 47.0715C58.8247 46.0465 58.7913 46.3491 58.3704 45.7195C59.169 45.7195 60.2717 45.7921 61.0387 45.6816C61.136 45.6676 61.1506 45.6725 61.2425 45.6475C61.3477 45.6194 61.3361 45.6066 61.4219 45.5895C61.5648 45.5608 61.7193 45.5852 61.8732 45.5657C61.8811 45.5645 62.0076 45.5413 62.0326 45.5352L64.4162 44.8305C64.4691 44.8128 64.4771 44.8171 64.5294 44.8012L65.446 44.387C65.5396 44.3491 65.508 44.3705 65.6151 44.3186L66.1953 43.9959C66.2646 43.9568 66.292 43.9458 66.3528 43.9159L66.9319 43.5444C67.2092 43.3638 67.4933 43.1905 67.7287 42.9629L67.7761 42.9153C68.1483 42.5426 68.3631 42.1533 68.4786 41.6201C68.5473 41.3028 68.5784 41.2796 68.5784 40.9581C68.5784 40.7641 68.506 40.628 68.464 40.4059C68.3983 40.0581 68.225 39.7403 68.0078 39.4822C67.8959 39.3492 67.742 39.2802 67.7232 39.0533L69.0327 38.6048C69.0875 38.581 69.0832 38.5871 69.1367 38.5658C69.2128 38.5359 69.2201 38.5304 69.3009 38.4926C69.3143 38.4865 69.352 38.4682 69.3654 38.4621L71.7795 37.0258L72.6304 36.3083C72.6408 36.2992 72.6712 36.2735 72.6821 36.2644C72.6894 36.2583 72.7004 36.2491 72.7083 36.243C72.7156 36.2369 72.7265 36.2278 72.7344 36.2217C73.1754 35.8513 73.5318 35.4078 73.9028 34.9654C73.912 34.9551 73.9381 34.9252 73.9472 34.9148C73.9539 34.9075 73.9637 34.8977 73.9704 34.8904C73.9795 34.88 74.0075 34.852 74.0172 34.8422C74.3389 34.4932 74.907 33.6775 75.1157 33.2296L75.2981 32.8892C75.6053 32.3846 75.7865 31.5756 75.6357 31.0204C75.601 30.8947 75.5876 30.7751 75.5621 30.6659C75.4617 30.2455 75.1704 29.8026 74.8736 29.4994C74.8669 29.4926 74.8566 29.4823 74.8499 29.4756L74.7027 29.3377C73.7483 28.5012 73.1401 28.6714 71.9011 28.6714C72.0824 28.3999 73.1833 27.4432 73.1833 27.0522C73.1833 26.7038 73.221 26.5409 73.0671 26.2639L72.67 25.8051L72.2399 25.6171C72.1238 25.5714 72.3512 25.5757 72.139 25.5757L71.3908 25.7776C71.1554 25.932 70.2467 27.0229 69.5558 27.6037C69.5065 27.6452 69.5181 27.6342 69.4786 27.669L69.4037 27.7367C69.0595 28.0326 68.6666 28.2828 68.2913 28.5256C67.7518 28.874 67.8594 28.816 67.1058 28.813L65.7014 28.8807C65.4533 28.9173 65.2872 28.9582 65.0196 28.9588C64.5476 28.9594 64.0099 28.9319 63.5458 28.957L62.1414 29.0247C60.782 29.2217 59.2505 29.0326 57.9106 29.2095C57.4672 29.2681 55.592 29.2931 55.0476 29.2901C54.3536 29.2864 53.6736 29.4268 53.0082 29.4353C52.7564 29.4383 52.4991 29.4335 52.2467 29.4335C52.3136 29.2669 53.4784 28.7611 53.6645 28.6653L57.6727 26.6855C57.722 26.6617 57.7202 26.6678 57.7719 26.6415C57.8789 26.5878 57.8187 26.6074 57.9252 26.5573L59.7346 25.658C59.7444 25.6531 59.7565 25.647 59.7663 25.6422C59.8095 25.6214 59.8216 25.6202 59.8672 25.6001C59.9816 25.55 59.9615 25.5549 60.0582 25.5061L61.0788 25.0058C61.0886 25.0009 61.1007 24.9948 61.1105 24.9899L64.9557 23.0845C64.9655 23.0796 64.9782 23.0741 64.9886 23.0693L69.214 20.9735C69.2237 20.9686 69.2359 20.9625 69.2456 20.957L69.5722 20.8081C69.6458 20.774 69.6507 20.7648 69.7279 20.7264L72.6183 19.292C72.9868 19.0955 73.7429 18.7679 73.7113 19.5232C73.696 19.8808 73.5726 20.1334 73.5653 20.5275C73.5598 20.8161 73.4576 20.8618 73.4284 21.1523C73.4096 21.3402 73.443 21.3261 73.3822 21.4872L73.2508 22.1181C73.235 22.2907 73.2612 22.5952 73.3481 22.7429L73.676 23.1284C73.6833 23.1352 73.6924 23.1455 73.6997 23.1522C73.9637 23.3896 74.3037 23.3841 74.6552 23.3841C74.8529 23.3841 75.2032 23.0961 75.3158 22.9509C75.6539 22.5141 75.8492 21.3085 75.8918 20.7667C75.9094 20.5391 75.9848 20.5287 75.9848 20.2883C75.9848 19.1504 76.132 18.5507 75.4569 17.6746C75.4021 17.6032 75.3869 17.5843 75.3255 17.5208C75.3188 17.5135 75.3085 17.5037 75.3018 17.497L74.4326 16.8924C74.4223 16.8881 74.4095 16.8832 74.3985 16.879C74.3882 16.8747 74.376 16.8686 74.3663 16.8637C73.8901 16.6428 73.2174 16.494 72.701 16.7087C72.5726 16.7618 72.6858 16.7258 72.5185 16.7636L72.0009 16.9589C71.9273 16.9931 71.9224 17.0022 71.8452 17.0406L71.0174 17.4482C70.7984 17.5617 70.6214 17.6611 70.383 17.7167C70.383 17.0693 70.5253 16.6654 70.5253 16.0022C70.5253 14.9504 70.5326 14.9461 70.3939 13.943C70.3374 13.5324 70.4049 13.3579 70.2802 12.9144C70.2279 12.7289 70.2607 12.6148 70.2224 12.4007C70.1823 12.1725 70.1263 12.1737 70.1008 11.9516L69.7815 10.7954C69.7596 10.7375 69.7571 10.7381 69.7371 10.6972C69.4962 10.2189 69.1702 9.8601 68.7359 9.55809L67.9549 9.19873C67.2482 9.04559 66.4343 9.09684 65.8158 9.46841C65.7635 9.49952 65.7714 9.49281 65.7264 9.52149L65.4995 9.67463C65.4417 9.71612 65.4861 9.68195 65.4186 9.73625C65.3401 9.7997 65.3365 9.80458 65.2677 9.87048L63.3688 11.7753C63.2691 11.8753 63.2046 11.9394 63.1122 12.0413C63.0903 12.0657 63.0696 12.0883 63.0434 12.1151L62.285 12.8784C62.2315 12.9321 62.2132 12.9498 62.1658 12.9967L61.3586 13.8064C61.3246 13.8405 61.327 13.8387 61.2881 13.8784L60.8696 14.3158C60.8599 14.3256 60.8319 14.3537 60.8222 14.3634L60.7267 14.4586C60.72 14.4653 60.7096 14.4757 60.703 14.4824L60.4177 14.7679C60.3879 14.7972 60.3794 14.8052 60.3459 14.8387L60.2991 14.8869C60.2924 14.8942 60.2827 14.9046 60.276 14.9113C59.1441 16.145 57.8826 17.2835 56.7288 18.497C56.7032 18.5239 56.6765 18.5513 56.6588 18.5696L56.3255 18.9021C56.3188 18.9088 56.3085 18.9186 56.3018 18.9259L56.0968 19.1492C56.0901 19.1565 56.0804 19.1663 56.0731 19.173C56.0664 19.1797 56.0561 19.1901 56.0494 19.1968L52.1482 23.1413C52.1208 23.1687 52.1123 23.1773 52.077 23.2126L49.5194 25.7904C49.3971 25.9198 49.4549 25.799 49.3983 25.9551C49.2493 25.9155 48.8692 25.4506 48.3278 25.1242L47.9854 24.9436C47.8905 24.9057 47.8102 24.8539 47.7208 24.8283C46.8267 24.5677 47.0414 24.6214 46.6947 23.81L46.5038 23.1919C46.4508 22.7258 46.3633 21.9125 46.5804 21.5098L46.6947 21.2432C46.7039 21.223 46.7969 21.0662 46.82 21.0351C46.9587 20.8502 47.0822 20.6324 47.2671 20.4836C47.275 20.4775 47.2859 20.4689 47.2938 20.4628L47.7385 20.1468C47.7798 20.1248 47.8072 20.1157 47.8358 20.1016C47.9325 20.0546 47.8923 20.0723 47.9611 20.037C48.191 19.9186 48.5061 19.8106 48.8254 19.8088L52.3896 19.8124C52.7552 19.8155 52.9474 19.763 53.1974 19.5751L53.5441 19.2084C53.6858 18.9918 53.7661 18.6459 53.7654 18.3347C53.7636 17.7191 53.8993 17.843 53.7995 17.0626C53.7849 16.9473 53.774 16.5306 53.7375 16.4104C53.6815 16.228 53.6754 16.317 53.6402 16.1749C53.5945 15.9943 53.6468 16.0333 53.5739 15.8607C53.5228 15.7405 53.572 15.8777 53.524 15.7673L53.2539 15.1334C52.9571 14.5562 52.5818 14.0516 52.1244 13.5995L52.0764 13.5526C51.8209 13.3091 51.5265 13.0474 51.2011 12.9064C50.7139 12.6953 51.0546 12.3323 51.099 11.9449C51.1251 11.7161 51.085 11.8082 51.1616 11.627L51.3921 10.4293C51.3921 10.1359 51.2358 9.64107 51.1221 9.36652L50.998 9.10965C50.9785 9.07671 50.9682 9.0584 50.9451 9.01997L50.7687 8.76798C50.4506 8.35188 50.0169 7.99496 49.5139 7.83633C49.405 7.80155 49.3552 7.77592 49.2688 7.74847C49.031 7.67281 48.7202 7.66671 48.4483 7.66671C48.4483 7.23414 48.5036 6.74482 48.2536 6.38545C48.2025 6.31224 48.2622 6.39278 48.191 6.30492L47.7786 5.95654C47.3924 5.75886 46.8559 5.85648 46.5153 6.10907C45.9953 6.49467 46.1212 7.08649 46.1212 7.66671C45.8353 7.66671 45.5056 7.66793 45.2532 7.74847L44.7076 7.96323C44.3214 8.15481 43.9613 8.47451 43.7126 8.8229L43.5617 9.05291C43.4231 9.30611 43.2053 9.89488 43.1779 10.192C43.1585 10.4049 43.1773 10.7283 43.1773 10.9534C43.0058 10.9077 42.9492 10.7936 42.8586 10.6539C42.802 10.566 42.8452 10.6325 42.8051 10.5648C42.7996 10.5556 42.7929 10.5434 42.7881 10.5343C42.7826 10.5251 42.7759 10.5129 42.7704 10.5044C42.7649 10.4952 42.7576 10.4837 42.7522 10.4745C42.7467 10.466 42.7388 10.4544 42.7339 10.4452C42.3824 9.84729 42.3094 8.85035 42.5393 8.21704L42.8592 7.53798C42.8665 7.52577 42.8975 7.47879 42.9146 7.45073L43.4802 6.39888C43.4851 6.38911 43.4918 6.37752 43.4966 6.36776C43.5325 6.29455 43.5283 6.29333 43.5538 6.23475C43.6128 6.0987 43.6116 6.13591 43.6578 6.00535C43.687 5.92115 43.6943 5.84672 43.7284 5.74238C43.8579 5.34763 43.9188 4.47943 43.8075 4.08285C43.6858 3.64905 43.5143 3.19817 43.2467 2.83576C42.9316 2.40928 42.5539 2.03162 42.0618 1.78635L41.5223 1.56548C41.5095 1.56182 41.4974 1.55877 41.4852 1.55511L41.4153 1.53009C40.97 1.36597 40.3874 1.4282 39.9026 1.4282C39.576 1.4282 39.4908 1.57097 39.1904 1.57097V1.04688C39.1904 0.835165 39.1867 1.0725 39.1228 0.876043C38.9927 0.475192 38.7932 0.223211 38.3978 0.0792223C38.2993 0.043225 38.3917 0.078002 38.2944 0.0395643C38.1789 -0.00619494 38.4045 -0.00131395 38.1929 -0.00131395C37.5828 -0.00131395 37.8383 -0.00619494 37.6436 0.0664097C37.092 0.272021 37.0451 0.447126 36.8578 0.944987C36.8122 1.0664 36.8164 0.830894 36.8164 1.04627L36.8176 1.04871Z" fill="#124285"/>
</g>
</g>
<defs>
<clipPath id="clip0_16_51">
<rect width="76" height="72" fill="white"/>
</clipPath>
</defs>
</svg>
