<svg width="74" height="72" viewBox="0 0 74 72" fill="none" xmlns="http://www.w3.org/2000/svg">
<path id="Vector" fill-rule="evenodd" clip-rule="evenodd" d="M7.26108 64.4208C7.26108 64.2746 7.26877 64.3305 7.30781 64.2414L7.58784 63.8842C7.83252 63.6653 8.23091 63.5661 8.55582 63.5661H65.4431C65.8633 63.5661 66.376 63.7245 66.6038 64.1015C66.6054 64.1042 66.6435 64.176 66.6512 64.1903C66.7037 64.2908 66.7379 64.2686 66.7379 64.3757V65.59H7.26078V64.4205L7.26108 64.4208ZM20.5349 55.3351V53.356C20.5349 52.9721 20.6972 52.7641 20.9702 52.565C21.2013 52.3964 21.5668 52.391 21.8675 52.4651C21.9246 52.4792 21.9652 52.4896 22.0344 52.5279C22.2317 52.6373 22.524 52.9446 22.524 53.1763C22.524 53.5964 22.5914 55.3892 22.4764 55.649L22.4444 55.7079C22.4395 55.7168 22.4327 55.7279 22.4278 55.7366C22.3381 55.8992 22.1788 56.0944 21.9981 56.173C21.9627 56.1886 21.9292 56.1951 21.8911 56.2044C21.6268 56.2678 21.3627 56.2798 21.0947 56.1856C20.9305 56.1279 20.7018 55.8872 20.6216 55.7461C20.5552 55.6295 20.5352 55.5085 20.5352 55.3354L20.5349 55.3351ZM18.1763 53.4908V55.2451C18.1763 55.5697 18.2648 55.7102 18.302 55.9324C18.3666 56.3183 18.2762 56.0206 18.4259 56.3969C18.4941 56.5685 18.4099 56.4723 18.5605 56.7159L19.3674 57.7306L20.2558 58.2612L20.8866 58.4573C21.1648 58.5416 21.6895 58.55 21.9849 58.4995L22.9372 58.2113C23.0199 58.1721 23.0983 58.1267 23.2092 58.0708C23.6159 57.8669 24.0244 57.4492 24.275 57.0833L24.7569 55.933C24.7914 55.6968 24.8827 55.5189 24.8827 55.2005V53.4463C24.8827 53.0869 24.6982 52.3267 24.492 51.9372L24.3592 51.7064C24.0905 51.3001 23.9411 51.1399 23.5679 50.8565C23.4831 50.7922 23.4315 50.756 23.3574 50.7016L22.979 50.4849C22.8818 50.4367 22.9569 50.4738 22.8493 50.4311C22.3076 50.2155 22.4715 50.336 22.213 50.2403C21.9046 50.1261 21.1893 50.1106 20.8783 50.2269C20.5272 50.3581 20.751 50.2024 20.2761 50.4059L19.0766 51.2185C18.8615 51.4624 18.555 51.8702 18.4575 52.1907L18.4382 52.2618C18.4345 52.2726 18.4305 52.2846 18.4262 52.295L18.3487 52.4445C18.2949 52.5865 18.3303 52.6403 18.2922 52.7943C18.2304 53.0448 18.1763 53.1207 18.1763 53.4911V53.4908ZM51.4761 53.176C51.4761 53.0289 51.5231 52.9853 51.5938 52.8857C51.6461 52.8122 51.6363 52.8242 51.6925 52.7569L51.7346 52.7079C52.0863 52.3354 52.7463 52.3312 53.0798 52.6062C53.1151 52.6355 53.1219 52.6415 53.1533 52.6699C53.3509 52.849 53.4649 53.0005 53.4649 53.3563C53.4649 53.9369 53.5605 55.443 53.3537 55.767C53.2535 55.924 53.1204 56.0803 52.9319 56.1664C52.8665 56.1963 52.6089 56.2525 52.5286 56.257C52.1671 56.2771 51.8084 56.1389 51.6209 55.8244C51.5493 55.704 51.4761 55.6113 51.4761 55.4705V53.176ZM49.1175 53.4457V55.1999C49.1175 55.5228 49.2512 56.1153 49.3665 56.3969L49.5048 56.7123C49.5306 56.7629 49.5242 56.7599 49.5466 56.8065L49.6118 56.9231C50.19 57.8065 50.9652 58.3004 51.9759 58.492C52.2265 58.5395 52.6746 58.5419 52.9255 58.4989L53.9986 58.1482C54.2734 58.0155 54.5845 57.8008 54.8012 57.5793C54.8018 57.5787 54.8534 57.5216 54.8663 57.5078C54.9475 57.4217 54.9915 57.391 55.0631 57.2944L55.5743 56.3969C55.7658 55.9276 55.6262 56.2681 55.7049 55.8944C55.9103 54.9189 55.8233 54.5972 55.8233 53.4905L55.6198 52.3841C55.4968 52.1297 55.5721 52.1991 55.4329 51.9363L55.3871 51.846C55.3151 51.7177 55.3539 51.7901 55.2955 51.7103L54.7867 51.0807C54.7797 51.0744 54.7695 51.0654 54.7628 51.0592L53.7564 50.4185C53.2233 50.2009 53.4437 50.3473 53.1536 50.24C52.8452 50.1258 52.1299 50.1103 51.8189 50.2266C51.4884 50.35 51.4165 50.2586 50.9351 50.5366C50.7245 50.658 50.6379 50.7022 50.4577 50.837C49.823 51.3118 49.5684 51.7369 49.3013 52.4113C49.2358 52.5772 49.2755 52.565 49.2426 52.7593C49.2051 52.9817 49.1169 53.1222 49.1169 53.4466L49.1175 53.4457ZM44.6775 61.2722V43.1904C44.6775 43.0867 44.7098 43.0556 44.8162 43.0556H60.4022C60.5088 43.0556 60.5408 43.087 60.5408 43.1904V61.2722C60.5408 61.376 60.5085 61.4071 60.4022 61.4071H44.8162C44.7095 61.4071 44.6775 61.3757 44.6775 61.2722ZM31.6813 61.2722V53.7605L31.9186 52.8669C31.9404 52.8134 31.9275 52.8565 31.9533 52.7659L32.7381 51.3252C32.8321 51.2119 32.9065 51.1121 33.0101 51.005C33.0682 50.9453 33.0848 50.9285 33.1438 50.8651L33.9468 50.2065C34.0574 50.1312 34.1942 50.0517 34.3132 49.9781L34.4865 49.8768C34.5148 49.861 34.5259 49.8505 34.5754 49.8281C34.6387 49.7994 34.6439 49.805 34.71 49.779L35.1284 49.6012C35.385 49.484 35.7776 49.4071 36.0893 49.3662C36.8212 49.2696 36.0352 49.2619 37.4157 49.2619L38.8706 49.6012C39.6194 49.9429 39.8367 49.9713 40.6249 50.6388L41.0119 51.0272C41.2541 51.2828 41.4404 51.573 41.6325 51.863L41.7398 52.0735C41.8707 52.3716 41.9374 52.4068 42.0462 52.765L42.2125 53.368C42.2691 53.556 42.3183 53.6023 42.3183 53.8499V61.2716C42.3183 61.3754 42.286 61.4065 42.1796 61.4065H31.8196C31.7129 61.4065 31.681 61.3751 31.681 61.2716L31.6813 61.2722ZM31.6813 49.1276V43.0553H42.3189V49.1276C42.2202 49.0634 42.1867 49.0179 42.0939 48.9417L41.4816 48.4577C41.4736 48.4523 41.4622 48.4448 41.4542 48.4394C41.4462 48.4341 41.4348 48.4263 41.4271 48.4209L41.322 48.3435C41.314 48.3378 41.3033 48.33 41.2953 48.3246C41.2842 48.3169 41.2525 48.2947 41.2409 48.2876C41.1662 48.2388 41.227 48.275 41.1557 48.2353L40.4835 47.8544C39.9535 47.5581 39.0138 47.2493 38.4365 47.1913C38.2438 47.1719 38.2794 47.1501 38.1073 47.1064C37.7996 47.0287 36.2141 47.0332 35.9304 47.0977C35.7502 47.1387 35.7588 47.1659 35.6061 47.1871C35.3343 47.2248 34.8013 47.3115 34.5867 47.4104L33.0273 48.1429C32.9585 48.1835 32.9471 48.1805 32.8746 48.2191L32.6262 48.3823C32.6185 48.388 32.6077 48.3964 32.6001 48.4018C32.5921 48.4075 32.5813 48.4152 32.5733 48.4209L31.9263 48.916C31.8233 49.0068 31.7913 49.0562 31.6816 49.1276H31.6813ZM46.3888 40.5815L46.4552 38.847C46.485 38.7435 46.5206 38.7358 46.5514 38.6258L46.7724 37.9412C46.7736 37.9391 46.8077 37.887 46.8231 37.8556C46.9448 37.6051 46.8428 37.7163 47.0629 37.4144L47.5194 36.8237C47.9986 36.2718 48.4818 35.9878 49.1396 35.7005C49.2491 35.6527 49.2202 35.6524 49.3677 35.6075L50.4187 35.3702C50.9738 35.2808 55.8608 35.2826 56.3873 35.3552L58.0568 35.8007L58.6414 36.1316C58.647 36.1352 58.714 36.1785 58.7244 36.1857L58.8028 36.2446C58.9218 36.3376 58.9925 36.3974 59.0961 36.499L60.0926 37.7788C60.0972 37.7884 60.1025 37.8003 60.1071 37.8096C60.6552 38.8787 60.5408 39.5698 60.5408 40.8511H46.3885V40.5812L46.3888 40.5815ZM29.9239 39.9068C29.9239 39.2727 29.9021 39.1313 30.0622 38.647C30.1806 38.2885 30.0032 38.6147 30.2743 37.9985C30.3232 37.8873 30.3927 37.7441 30.4517 37.6311L31.4686 36.4159C31.4784 36.4069 31.5061 36.3809 31.5159 36.372L32.6019 35.7187C32.7172 35.6619 32.6489 35.6784 32.7916 35.6332C32.8678 35.609 32.9256 35.6039 33.0126 35.5782L33.9953 35.3645C34.5637 35.2826 39.406 35.2832 39.9643 35.3597C40.2984 35.4054 41.0017 35.5373 41.3014 35.6784L41.9749 36.0129C42.318 36.2117 42.634 36.4873 42.9039 36.7737L43.0376 36.9137C43.4808 37.418 43.5233 37.574 43.7895 38.1615C43.969 38.5576 43.8429 38.296 43.9112 38.5827C43.9435 38.7178 43.9831 38.7364 44.0059 38.8057C44.0916 39.0679 44.0766 40.4718 44.0766 40.8508H29.9242V39.9062L29.9239 39.9068ZM13.459 39.3668C13.459 38.8416 13.6309 38.4781 13.7627 38.0879L13.9306 37.7116C13.9767 37.6261 13.9751 37.6386 14.0345 37.5426L14.4261 36.9788C14.96 36.3839 15.1832 36.2177 15.8558 35.8503C15.9385 35.8051 15.8819 35.8308 15.9434 35.8004C16.3144 35.6159 16.699 35.4829 17.1102 35.4509C17.3592 35.4314 17.5452 35.3184 18.0841 35.3184H22.9867C23.5513 35.3184 24.0567 35.4404 24.5599 35.5875L25.3026 35.8996C25.3115 35.9044 25.3235 35.911 25.3321 35.9158C25.3407 35.9208 25.3524 35.9277 25.361 35.9328C25.5826 36.0643 25.7766 36.1633 25.9653 36.3346C26.2659 36.6075 26.2985 36.6 26.5859 36.9453L27.1764 37.8554C27.4706 38.4888 27.3741 38.4353 27.5192 38.7815C27.5988 38.9713 27.6114 40.5187 27.6114 40.8508H13.459V39.3666V39.3668ZM31.6813 33.6545V27.627H42.3189V33.6545C41.9958 33.5812 41.8796 33.4712 41.71 33.4368C41.295 33.3528 41.3734 33.3328 41.2427 33.3068C41.1348 33.2853 41.0657 33.2984 40.951 33.2757C40.7515 33.2359 40.7032 33.1597 40.469 33.1597H33.5315L32.123 33.499C32.0096 33.5516 31.7956 33.6288 31.6816 33.6545H31.6813ZM50.5976 33.0246V30.9107C50.5976 30.807 50.6299 30.7759 50.7362 30.7759H56.1937C56.3003 30.7759 56.3323 30.8073 56.3323 30.9107V33.0246C56.3323 33.1283 56.3 33.1594 56.1937 33.1594H50.7362C50.6296 33.1594 50.5976 33.128 50.5976 33.0246ZM17.899 30.7756H23.4026C23.5092 30.7756 23.5412 30.807 23.5412 30.9104V33.0243C23.5412 33.128 23.5089 33.1591 23.4026 33.1591C22.537 33.1591 18.2584 33.227 17.7601 33.1143L17.7598 31.2697C17.7576 31.0551 17.6921 30.7753 17.899 30.7753V30.7756ZM48.424 27.537C48.424 27.1615 48.567 26.9574 48.8209 26.7535C49.0818 26.5439 49.4873 26.5475 49.858 26.5475H57.0267C57.3227 26.5475 57.8244 26.5598 58.0107 26.6701C58.5753 27.0043 58.5065 27.3269 58.5065 27.7621C58.5065 27.9379 58.3316 28.172 58.204 28.2778C58.1432 28.3284 58.1677 28.3098 58.0946 28.3514C57.9169 28.4521 57.7884 28.5269 57.5812 28.5269H49.4412C48.8568 28.5269 48.4237 28.0946 48.4237 27.5373L48.424 27.537ZM24.744 28.5266H16.604C15.9517 28.5266 15.5149 28.0237 15.6086 27.3825C15.6415 27.158 15.6354 27.1278 15.75 26.9765L16.1204 26.662C16.3006 26.569 16.7912 26.5472 17.0199 26.5472C18.2989 26.5472 23.9814 26.4916 24.7991 26.5831C25.0474 26.6109 25.14 26.6007 25.3896 26.8183C25.7384 27.1233 25.8165 27.7388 25.471 28.1544C25.3493 28.3009 25.2577 28.3636 25.0776 28.4464C25.0385 28.4644 25.0899 28.4524 24.9816 28.4883C24.9119 28.5116 24.8621 28.5263 24.7431 28.5263L24.744 28.5266ZM27.7964 26.2775C27.8038 26.2856 27.813 26.2892 27.8158 26.3036L28.1088 26.6482C28.1801 26.7239 28.1976 26.7305 28.2794 26.7971C28.3479 26.853 28.414 26.9155 28.4782 26.9636C28.8769 27.2638 29.3223 27.3355 29.3223 27.537V35.2736C29.3223 35.4207 28.9206 35.7271 28.86 35.9483C28.6888 35.9447 28.7131 35.9995 28.5597 35.7908C28.5197 35.7367 28.5182 35.7271 28.4875 35.6811L27.8776 35.0147C27.8118 34.9504 27.7786 34.9205 27.7116 34.861L27.6394 34.7965C27.6323 34.7902 27.6228 34.7809 27.6157 34.7743C27.5637 34.7274 27.5751 34.7349 27.5186 34.6892C27.0366 34.3011 26.8395 34.2007 26.3652 33.9214L26.2493 33.8542C26.2401 33.8494 26.2278 33.844 26.2186 33.8392C26.044 33.7498 26.0296 33.7134 25.8537 33.699V30.5505C26.0163 30.5137 26.02 30.4829 26.1411 30.4249C26.5623 30.2237 27.0046 29.894 27.2951 29.5233C27.4183 29.3663 27.5481 29.1983 27.636 29.0001C27.6624 28.9406 27.6646 28.9269 27.6904 28.873L27.7217 28.8136C28.0055 28.2291 27.8982 28.0976 27.9876 27.6742C28.0135 27.552 27.9406 26.7834 27.8807 26.6456C27.802 26.4644 27.7964 26.578 27.7964 26.2775ZM27.6578 26.1427C27.6412 26.0575 27.7159 25.9828 27.687 26.1143C27.6864 26.1173 27.6882 26.3 27.6578 26.1427ZM29.5077 24.6136C29.5077 24.1738 29.4736 23.975 29.8326 23.6701C29.9593 23.5625 29.9436 23.5696 30.1243 23.5042C30.2513 23.4581 30.3589 23.3989 30.4787 23.3989H43.5211C43.8817 23.3989 44.4925 23.8133 44.4925 24.2085C44.4925 24.7003 44.5481 24.7834 44.1362 25.1666C43.9991 25.294 43.7224 25.4231 43.475 25.4231H30.5252C30.0103 25.4231 29.5077 24.9122 29.5077 24.6136ZM49.7188 22.5445C49.7188 22.3326 49.7366 22.2022 49.7664 22.0061C49.8094 21.7242 50.0157 21.3984 50.1728 21.1419L50.2942 20.9451C50.6941 20.2833 51.308 19.7224 51.8499 19.1747L52.1275 18.9051C52.5658 18.4764 53.0195 18.0393 53.3297 17.5102L53.361 17.4507C53.4557 17.2731 53.602 17.0531 53.6503 16.8773C53.7776 16.9679 53.7311 16.9942 53.7997 17.1368L55.3886 19.1C55.3954 19.1066 55.4049 19.1159 55.4117 19.1224L56.4915 20.2312C56.7049 20.4435 56.8994 20.7347 57.0581 20.9849L57.2852 21.3487C57.3335 21.4405 57.3273 21.442 57.3713 21.535C57.6562 22.1389 57.628 22.1685 57.628 22.8596C57.628 23.0369 57.6218 22.8665 57.5576 23.016C57.4647 23.2312 57.458 23.4193 57.2944 23.7496C57.2068 23.9266 57.0737 24.1036 57.027 24.2991H50.3209C50.2807 24.152 50.2727 24.2079 50.2081 24.094L50.0707 23.8229C50.052 23.7822 50.048 23.7649 50.0298 23.7278C50.0252 23.7185 50.0197 23.7066 50.0148 23.6973L49.8691 23.2994C49.7642 23.0294 49.7197 22.8812 49.7197 22.5451L49.7188 22.5445ZM20.905 16.877C20.905 17.141 21.0111 17.236 21.1362 17.4618L22.0184 18.5828C22.0504 18.6151 22.0897 18.6522 22.1343 18.6949L24.2608 21.0348C24.4176 21.2904 24.5986 21.5589 24.6709 21.8504C24.6847 21.9063 24.6887 21.9493 24.7016 22.0004C24.7397 22.1538 24.7164 22.0369 24.7566 22.172C24.8578 22.5113 24.7788 22.7332 24.7016 23.0429C24.6672 23.1819 24.6623 23.2366 24.6125 23.361C24.5777 23.4477 24.6069 23.3574 24.5611 23.4907L24.3257 24.0261C24.2451 24.1765 24.2427 24.2982 24.0041 24.2982H17.6679C17.3531 24.2982 17.2882 23.9239 17.1813 23.6919L16.9562 23.146C16.8136 22.6722 16.8444 22.1496 17.0276 21.7413L18.2027 20.0055C18.2522 19.9538 18.2448 19.9601 18.2906 19.9114L19.183 19.025C19.6536 18.5771 20.0628 18.1165 20.4313 17.5852C20.4922 17.4973 20.6059 17.3467 20.7074 17.0893C20.7996 16.8558 20.6908 16.987 20.905 16.8767V16.877ZM35.8437 0.999078V1.49384C35.3657 1.49384 34.434 1.40356 34.0165 1.60595L33.4568 2.18622C33.3018 2.51745 33.2988 2.71237 33.4568 3.05049C33.8843 3.96498 34.7364 3.69801 35.7973 3.69801L35.8434 4.91236C35.8434 5.09233 35.6482 5.14674 35.5074 5.2152L34.7533 5.87618C34.6793 5.96497 34.7481 5.87678 34.6744 5.97932C34.643 6.02266 34.5612 6.13925 34.5449 6.16825L34.5151 6.22924C34.5105 6.23881 34.5062 6.25136 34.5016 6.26093L34.3919 6.469C34.0875 7.24029 34.3633 7.14074 34.0648 7.90516C34.0245 8.008 33.995 8.0379 33.9507 8.10905L31.523 10.7856C31.5165 10.7921 31.507 10.802 31.5005 10.8086L31.0606 11.2355C31.0539 11.2421 31.0443 11.2513 31.0373 11.2579L29.678 12.7697L28.6101 14.3852C28.1834 15.2325 28.2142 15.2292 27.9006 16.0791C27.8588 16.1924 27.8595 16.2244 27.8465 16.3413C27.821 16.5724 27.7697 16.6005 27.7276 16.8552C27.663 17.2435 27.6606 18.2103 27.7568 18.5798C27.7983 18.7395 27.7961 18.6585 27.8263 18.7822C27.8656 18.9437 27.8447 19.0659 27.9037 19.2468L28.1189 19.8922C28.1407 19.9595 28.1518 20.0342 28.1785 20.1042L28.3322 20.4495C28.3365 20.4593 28.3421 20.4707 28.3467 20.4803C28.3925 20.5786 28.3983 20.5804 28.4453 20.6991C28.4724 20.7679 28.4579 20.7383 28.485 20.7957C28.5231 20.877 28.4853 20.7906 28.5323 20.8845L28.7152 21.2462C28.7982 21.419 28.6993 21.3631 28.8603 21.4199V21.6447C28.5695 21.72 28.2594 22.001 28.0669 22.2226L27.3274 23.4372C27.2757 23.561 27.2803 23.7388 27.2373 23.8892C27.1005 24.3672 27.1857 24.5702 27.269 25.0366C27.2966 25.1918 27.2699 25.2569 27.3218 25.39C27.4051 25.6025 27.4199 25.3986 27.4266 25.6928L27.2871 25.5586C27.2477 25.5146 27.2643 25.5305 27.2244 25.4847C27.1389 25.3867 27.0897 25.3421 26.9988 25.2542C26.85 25.1098 26.72 24.94 26.5014 24.8832V24.6584C26.6296 24.6133 26.6161 24.5215 26.6619 24.4097C26.6658 24.3995 26.6711 24.3879 26.6757 24.378L27.0565 23.0841V21.8698L26.8955 21.2617C26.8604 21.143 26.8245 21.1146 26.7922 21.0022L26.5576 20.4656C26.3578 20.0883 26.1525 19.7057 25.8746 19.3756L25.0613 18.4124C24.9168 18.2331 24.8286 18.1511 24.6629 17.9903L23.342 16.6659C23.3362 16.6585 23.3285 16.6474 23.3226 16.6396C23.3168 16.6319 23.3094 16.6208 23.3039 16.613C23.1914 16.4552 23.0675 16.3132 23.0325 16.1123C23.0054 15.9556 23.0134 15.9099 22.9854 15.7532L22.9347 15.5775C22.785 15.1736 22.5781 14.7772 22.2123 14.5257C21.893 14.3063 22.015 14.3649 22.015 13.4134C22.7401 13.4134 23.761 13.5769 24.2482 12.9311C24.4926 12.6071 24.4665 12.457 24.4665 12.0639C24.4665 11.8884 24.3088 11.6528 24.1864 11.5267L24.0383 11.4008C23.9995 11.3712 23.9187 11.3072 23.8815 11.2833C23.7662 11.2089 23.6008 11.1945 23.4551 11.1581C23.0481 11.0561 22.4497 11.1192 22.015 11.1192C22.015 10.5649 22.1041 9.90635 21.9043 9.38258C21.888 9.33983 21.8742 9.29678 21.8552 9.25045L21.3624 8.74014C20.7771 8.44836 19.9506 8.69559 19.7603 9.33146C19.7381 9.405 19.7329 9.44536 19.7126 9.50994C19.5838 9.9186 19.7498 10.7524 19.6487 11.022C19.5792 11.2071 19.0683 11.1195 18.8701 11.1195L18.0294 11.2014C17.8006 11.2486 17.7638 11.2573 17.5695 11.4289L17.5228 11.4735C17.3949 11.5999 17.3267 11.7392 17.2547 11.8875C17.0863 12.2349 17.1336 12.3963 17.3094 12.7724C17.6841 13.5736 18.8633 13.4136 19.6564 13.4136L19.61 14.448C19.4142 14.4689 19.5002 14.4773 19.3751 14.5796C19.282 14.6555 19.2494 14.68 19.1633 14.7784C18.5255 15.5042 18.7889 15.9479 18.4702 16.4429C18.2697 16.7541 17.9875 17.0408 17.7263 17.2937C17.3248 17.6821 16.8859 18.0414 16.5382 18.4773C16.465 18.5691 16.438 18.5867 16.3624 18.6659L16.2342 18.8109C15.7992 19.3132 15.3962 19.8659 15.106 20.4576L15.0741 20.5164C15.0692 20.5251 15.0618 20.5359 15.0569 20.5445L14.9281 20.8241C14.8531 20.9795 14.8893 20.9248 14.8312 21.0898C14.7894 21.2091 14.8349 21.0845 14.7728 21.213L14.5693 22.0498V23.0393C14.5693 23.2411 14.6732 23.2447 14.7018 23.4501L14.9444 24.2937C14.9628 24.3314 14.9508 24.2943 14.9852 24.3888L15.0778 24.7036C14.9099 24.7415 14.7971 24.8324 14.6612 24.9284L14.6078 24.9663C14.3243 25.1592 14.1089 25.4109 13.9088 25.6811L13.6044 26.1499C13.547 26.2602 13.5755 26.2273 13.5279 26.3451C13.2731 26.9741 13.2737 27.1968 13.2737 27.8973L13.4932 28.6733C13.5457 28.7789 13.491 28.6512 13.5497 28.7983C13.5915 28.9029 13.5771 28.8844 13.6321 28.9881C13.6404 29.0037 13.6754 29.0662 13.681 29.0754L13.942 29.4515C14.1869 29.7448 14.3145 29.9029 14.6342 30.1277L15.4476 30.5511V33.5648C15.2699 33.6108 15.3759 33.6087 15.2348 33.6727L14.6668 33.9298C14.6348 33.9457 14.5835 33.9675 14.5426 33.989L12.6257 35.5884L12.0383 36.4114C11.7791 36.7971 11.6178 37.2153 11.5105 37.5624L11.476 37.6637C11.4352 37.7654 11.4733 37.632 11.4183 37.7875L11.1493 39.1902C11.0242 40.27 11.1001 43.6057 11.1001 44.8999C11.1001 45.5339 11.7038 46.1264 12.3752 46.0532C14.2214 45.8514 13.0662 43.0559 13.5977 43.0559H29.1837C29.2904 43.0559 29.3223 43.0873 29.3223 43.1907V61.2725C29.3223 61.3763 29.2901 61.4074 29.1837 61.4074H13.5977C13.436 61.4074 13.456 61.2971 13.4538 61.1425L13.459 50.0275C13.4593 49.8071 13.4793 49.5441 13.4083 49.3572C13.258 48.9623 13.0982 48.7094 12.6819 48.5342C12.0819 48.2816 11.3823 48.6646 11.2243 49.2036C11.0998 49.6284 11.1001 49.6693 11.1001 50.1623V60.2827C11.1001 62.0238 11.6248 61.2184 7.76797 61.4053C7.54511 61.416 7.64409 61.4118 7.47656 61.4818C7.29705 61.5568 7.36683 61.5099 7.18178 61.555L6.9872 61.6358C6.97767 61.6402 6.96568 61.6456 6.95584 61.6501L6.44711 61.9201C6.0226 62.2253 5.61868 62.5628 5.36754 63.0292C5.23813 63.2692 5.09335 63.5305 5.03894 63.7891C4.85051 64.6839 4.90246 64.5577 4.90246 65.5906C4.2514 65.5906 2.96312 65.4946 2.38461 65.7057C1.95518 65.8626 2.08121 65.7721 1.60229 66.0244L1.19192 66.3C1.18455 66.306 1.1741 66.3147 1.16703 66.3206L0.69733 66.7634C0.621097 66.8522 0.50275 66.9888 0.436354 67.0943C0.380408 67.1834 0.39086 67.1858 0.345365 67.2755C-0.0185873 67.9957 0.000163628 68.0593 0.000163628 68.874C0.000163628 69.5855 0.0189145 69.6264 0.273128 70.2279C0.428054 70.5942 0.719462 70.9122 1.00534 71.1801C1.15412 71.3197 1.45382 71.5341 1.64441 71.6384L2.23153 71.877C2.28255 71.8916 2.2887 71.891 2.33819 71.9083C2.70491 72.0354 3.15001 71.9777 3.56161 71.9777C7.58938 71.9777 60.2513 72.0375 60.5245 71.9613C60.9828 71.8336 61.107 71.4937 61.2278 71.161C61.2678 71.0513 61.2813 71.2223 61.2813 70.8082C61.2813 70.6916 61.0941 70.3092 60.9915 70.1906C60.9094 70.0955 60.8605 70.0459 60.74 69.9855L60.4292 69.8381C60.1489 69.7574 10.8069 69.819 4.11676 69.819C3.63692 69.819 3.27697 69.8743 2.84416 69.7072L2.68462 69.6375C2.51002 69.5415 2.79221 69.5804 2.49804 69.549C2.47098 69.3093 2.49097 69.5051 2.4258 69.3945C2.41811 69.3813 2.22077 69.0163 2.22077 68.7395C2.22077 68.5984 2.29823 68.4689 2.36155 68.3365C2.48974 68.0686 2.93914 67.7948 3.23824 67.7948H70.7628C71.0659 67.7948 71.5049 68.0758 71.6334 68.3425C72.0247 69.1544 71.5356 69.164 71.5027 69.549C71.314 69.5643 71.3798 69.5989 71.2525 69.6656C70.7579 69.9248 70.0777 69.819 69.5139 69.819C68.8933 69.819 64.7155 69.7622 64.4539 69.8459L64.331 69.906C64.1637 70.0007 64.0131 70.0979 63.8957 70.2474C63.3949 70.8853 63.8284 71.8952 64.4736 71.9774L71.4121 71.9801L71.9106 71.8354C71.997 71.8022 71.9789 71.8001 72.0674 71.7631C72.2045 71.7057 72.2233 71.7116 72.3564 71.639C72.8393 71.375 73.1605 71.0429 73.4854 70.6232C73.6732 70.3807 73.83 70.0725 73.9044 69.7711C73.9539 69.5708 74 69.633 74 69.4145V68.2001C74 68.0139 73.8623 67.6853 73.7787 67.5158L73.6548 67.2764C73.6151 67.1981 73.6207 67.1924 73.5807 67.1233C73.3861 66.7858 73.0873 66.5215 72.7833 66.2797L72.4277 66.0411C72.1267 65.8719 71.9107 65.8148 71.6152 65.7066C71.0509 65.4997 69.7214 65.5915 69.0974 65.5915V64.422L68.9185 63.6513C68.8782 63.5577 68.8662 63.5616 68.8198 63.4322C68.7722 63.2988 68.7817 63.326 68.7218 63.2124C68.5195 62.8283 68.2431 62.4032 67.8746 62.1473C67.8365 62.121 67.8312 62.1213 67.7904 62.0941L67.1415 61.6905C67.1285 61.6845 67.0892 61.6698 67.076 61.6642L66.8175 61.5556C66.2519 61.4181 66.3779 61.408 65.6743 61.408C65.0478 61.408 63.6021 61.4663 63.0796 61.4124C62.7836 61.382 62.8994 60.9775 62.8994 60.2833C62.8994 53.4768 62.8638 46.6684 62.8997 39.8622C62.9013 39.5958 62.8813 39.4831 62.8573 39.2736C62.83 39.0344 62.7762 38.9271 62.7626 38.7361C62.747 38.5145 62.7476 38.3908 62.6686 38.1979C62.569 37.9546 62.5438 37.6243 62.4178 37.3624C62.3621 37.247 62.4005 37.3492 62.3578 37.2407L60.7535 34.9328C60.744 34.9235 60.7169 34.8969 60.7074 34.8877C60.645 34.8279 60.6807 34.8599 60.6121 34.8004L59.4569 33.9896C59.4161 33.9681 59.4056 33.9663 59.3635 33.9457L59.1477 33.8404C58.9599 33.7504 58.9633 33.7053 58.7367 33.7002C58.65 32.6865 58.6903 31.5747 58.6903 30.5517C59.0395 30.4724 59.6245 30.0419 59.8658 29.8058C59.9205 29.7523 59.9602 29.6961 60.0149 29.6357L60.6545 28.5935C60.7489 28.401 60.8642 27.7122 60.8642 27.4931C60.8642 27.2192 60.7388 26.7003 60.6352 26.4563L59.9583 25.3604C59.9515 25.3538 59.9417 25.3448 59.9346 25.3382C59.9279 25.332 59.9174 25.323 59.9104 25.3167C59.7502 25.1738 59.4935 24.8913 59.2916 24.839L59.7416 23.7024C59.7831 23.5134 59.7812 23.5816 59.8194 23.4632C60.002 22.9003 59.9005 21.7179 59.6955 21.1625L58.7669 19.4567C58.7115 19.3739 58.7377 19.4025 58.6749 19.3209L58.409 18.9948C58.4029 18.9876 58.394 18.9777 58.3878 18.9706C58.3817 18.9634 58.3728 18.9532 58.3666 18.9461L57.0983 17.6157C57.0544 17.573 57.0498 17.5688 57.0058 17.5257L56.6843 17.2085C56.6022 17.1207 56.5625 17.0836 56.4817 17.0008C56.2791 16.7936 56.0707 16.567 55.9395 16.3135C55.8731 16.1855 55.8389 16.1784 55.823 16.022C55.8036 15.8346 55.8377 15.692 55.7544 15.5039L55.2878 14.7431C55.2285 14.6809 55.2266 14.6737 55.1787 14.6244L55.1332 14.5787C55.1261 14.5724 55.1163 14.5631 55.1089 14.5571L55.0293 14.4997C54.6761 14.2639 54.8052 14.0355 54.8052 13.4134C55.4064 13.4134 56.3068 13.5353 56.8204 13.1694C56.8315 13.1616 56.8607 13.1371 56.8712 13.1287C57.6756 12.4764 57.3452 11.2699 56.1414 11.1243C54.9444 10.9796 54.7993 11.5078 54.8049 10.5799C54.807 10.2062 54.8891 9.59633 54.7087 9.27885L54.6595 9.19185C54.4966 8.91622 54.2279 8.73804 53.9122 8.65912C53.642 8.59156 53.5977 8.61398 53.3192 8.68453C52.9793 8.77063 52.7081 9.00949 52.5978 9.33236C52.4942 9.63579 52.5388 10.6451 52.5388 11.0744C52.1465 11.1631 51.6298 11.0797 51.1982 11.1198C51.0073 11.1374 51.1174 11.1318 51.0113 11.1631C50.9093 11.193 50.9714 11.1796 50.8263 11.208C50.605 11.2513 50.5232 11.3129 50.3824 11.451C50.312 11.5201 50.3295 11.501 50.2718 11.5685C50.0849 11.7868 49.9948 12.0956 49.9948 12.3787C49.9948 12.5231 50.0255 12.434 50.0845 12.6062L50.2373 12.9075C50.2896 12.9766 50.2671 12.953 50.3185 13.0083C50.4802 13.1829 50.7098 13.298 50.9354 13.3527C51.4315 13.4731 52.0267 13.4131 52.5385 13.4131C52.5385 14.0229 52.6264 14.2597 52.362 14.4561C52.3543 14.4618 52.3424 14.4686 52.3347 14.4743C52.0543 14.6803 51.8296 14.979 51.6765 15.2737C51.375 15.8546 51.6529 16.0522 51.0903 16.7278L49.2595 18.5906C48.9205 18.9577 48.6211 19.3583 48.3426 19.7679C48.337 19.7759 48.3287 19.7861 48.3232 19.7939L47.5529 21.3837L47.4022 22.227C47.373 22.6626 47.4136 23.2958 47.5827 23.7203L47.9134 24.703C47.7395 24.7424 47.6045 24.8471 47.4717 24.9481C47.456 24.9601 47.3976 25.0049 47.3939 25.0076C47.1259 25.1998 46.8837 25.4548 46.6943 25.7215L46.4057 26.2055C46.3301 26.3475 46.3783 26.2698 46.3353 26.407C46.2812 26.5792 46.2185 26.6109 46.2022 26.8175C46.1902 26.9711 46.2077 26.9185 46.169 27.0548C46.1204 27.224 46.1097 27.0336 46.1097 27.2671C46.1097 28.0261 46.1453 27.7343 46.201 28.2578C46.2222 28.456 46.2941 28.5499 46.3537 28.7388C46.3915 28.859 46.3903 28.8378 46.4539 28.9565L46.8351 29.5304C47.1225 29.8581 47.3561 30.0802 47.7484 30.3065L47.927 30.4028C47.9371 30.4073 47.9497 30.4111 47.9602 30.4153C48.0619 30.4563 48.2371 30.4889 48.2371 30.6407V33.5645C48.2371 33.7268 48.0727 33.6999 47.9328 33.7633L47.8108 33.8246C47.7561 33.8518 47.7693 33.8425 47.7186 33.87C47.3008 34.0981 46.9436 34.3531 46.5585 34.6309C46.1834 34.9014 45.7949 35.2673 45.529 35.6539C45.4067 35.8317 45.3931 35.9427 45.138 35.9483C45.0756 35.7211 44.6757 35.5041 44.6757 35.2736V27.537C44.6757 27.3508 45.0691 27.2563 45.2373 27.1385L45.967 26.5436C46.252 26.2163 46.4349 25.8934 46.6082 25.503C46.679 25.3436 46.6707 25.4518 46.7038 25.2811C46.7927 24.8261 46.9033 24.3825 46.7724 23.9236C46.7287 23.7708 46.7204 23.5544 46.6716 23.4372L46.2895 22.6844C45.9806 22.2276 45.7254 22.0363 45.2732 21.6934L45.2222 21.6531C45.1051 21.5335 45.1435 21.6528 45.1383 21.4199C45.2791 21.3703 45.2609 21.2707 45.406 21.0058C45.6959 20.4767 45.8754 19.8441 46.0697 19.3126L46.2314 18.6154C46.3485 18.2202 46.3325 17.1948 46.2498 16.7855L46.1204 16.1918C46.0715 16.0175 46.0848 16.115 46.0433 15.9969L45.8189 15.3156C45.6467 14.8752 45.4131 14.4277 45.1641 14.0181C45.1026 13.9168 45.1199 13.941 45.0584 13.851C44.7325 13.3745 44.4313 12.8525 44.0105 12.4412C43.9601 12.3918 43.981 12.4119 43.9395 12.3754C43.751 12.2095 43.4805 12.0645 43.1956 12.0645C43.0551 12.0645 42.9297 12.132 42.8018 12.1763C42.5516 12.263 42.3324 12.4301 42.2015 12.6719C42.0601 12.9329 42.0392 13.1135 42.0392 13.3688C42.0392 13.4701 42.1886 13.7401 42.2762 13.8582L43.5303 15.7873C43.5491 15.8229 43.5675 15.8525 43.5897 15.9096C43.6139 15.9721 43.6099 15.9834 43.6345 16.0459L43.7928 16.4767C43.913 16.8008 43.8632 16.81 43.9382 17.1C44.0114 17.3834 44.028 17.4307 44.028 17.7326L43.8638 18.7425C43.8307 18.8375 43.8162 18.7834 43.7732 18.9242L42.9438 20.7715C42.8421 20.9218 42.7499 20.9987 42.7329 21.196H31.2629C31.2432 20.9655 31.0877 20.845 30.9819 20.6593L30.7757 20.2752C30.7317 20.1888 30.705 20.1419 30.6669 20.0662C30.6171 19.967 30.6079 19.9625 30.5725 19.8881C30.5344 19.8079 30.5611 19.8623 30.5332 19.7915L29.9679 17.8226C29.9679 17.4976 30.0398 16.8821 30.1394 16.5951L30.3266 16.1024C30.5245 15.6982 30.724 15.2728 30.9795 14.8932L32.2198 13.3108C32.2438 13.2845 32.2656 13.2606 32.2856 13.2397C32.2921 13.2328 32.3016 13.2235 32.3083 13.2166L32.5401 12.9473C32.5463 12.9404 32.5555 12.9302 32.5619 12.9237L32.9545 12.5407C32.9861 12.509 32.9966 12.5001 33.024 12.4734L34.2034 11.3267C34.2102 11.3201 34.2197 11.3108 34.2265 11.3042C34.2332 11.2977 34.2428 11.2884 34.2498 11.2818C34.2876 11.2454 34.287 11.2465 34.3196 11.2149L34.7816 10.7198C35.0838 10.4143 35.5151 9.91292 35.741 9.53893L36.0472 9.02713C36.084 8.95448 36.1083 8.91114 36.1385 8.84596C36.1587 8.80202 36.1591 8.79305 36.1784 8.75C36.1827 8.74014 36.188 8.72818 36.1923 8.71861C36.5516 7.9527 36.3896 7.65016 36.5255 7.33327C36.6684 7.00054 37.2168 6.95629 37.4188 7.24777C37.5881 7.49201 37.5079 7.98439 37.6287 8.25822C37.8602 8.78288 37.6545 8.51144 38.0818 9.25702L39.0516 10.5628C39.4067 10.9356 39.6092 11.031 40.189 11.031C40.3839 11.031 40.4469 10.9927 40.5809 10.9174C40.9639 10.7025 41.2959 10.1898 41.1613 9.77062C41.1422 9.71173 41.1244 9.65283 41.0961 9.56405C40.986 9.22175 40.6777 8.97392 40.453 8.70516C40.283 8.50187 40.1853 8.33027 40.0473 8.11024C39.6234 7.43611 39.9065 7.25435 39.6756 6.71743L39.3827 6.10278C39.2327 5.83642 39.0135 5.63373 38.7842 5.42536C38.1131 4.8158 38.0458 5.50727 38.2005 3.69921C39.0535 3.69921 39.8754 3.90399 40.3759 3.34107C40.4939 3.20833 40.6516 2.93928 40.6516 2.75452C40.6516 2.58023 40.6559 2.42119 40.5874 2.2771C40.5843 2.27052 40.5517 2.21073 40.5406 2.18741C40.513 2.12852 40.5154 2.11746 40.4865 2.06006C40.4699 2.02717 40.3869 1.91148 40.3752 1.89832L40.2099 1.74407C40.1496 1.69713 40.1887 1.72404 40.1296 1.68726C40.1275 1.68607 40.0479 1.64242 40.0408 1.63883C39.9341 1.58203 39.9329 1.57097 39.8127 1.54586C39.2951 1.43824 38.6864 1.49474 38.154 1.49474C38.154 1.17486 38.1651 0.931515 38.0406 0.615224C37.9923 0.492355 37.9017 0.37397 37.8205 0.289366C37.5208 -0.0227394 37.2033 -0.00898762 36.7628 0.00655788L36.5021 0.067843C36.4892 0.073822 36.4548 0.0935529 36.4425 0.0998308C36.3939 0.125242 36.3997 0.118665 36.3518 0.146766C36.0893 0.301025 35.8412 0.689364 35.8412 0.999676L35.8437 0.999078Z" fill="#124285"/>
</svg>
