<svg width="72" height="72" viewBox="0 0 72 72" fill="none" xmlns="http://www.w3.org/2000/svg">
<g id="2 37" clip-path="url(#clip0_16_44)">
<g id="&#208;&#161;&#208;&#187;&#208;&#190;&#208;&#185;_x0020_1">
<path id="Vector" fill-rule="evenodd" clip-rule="evenodd" d="M49.0739 69.2652C49.0739 69.0302 49.1526 68.9808 49.1948 68.7832C49.236 68.5908 49.2116 68.3223 49.2476 68.187C49.3162 67.9261 49.3478 68.0282 49.3531 67.6896L49.7676 65.2301C49.7925 65.1021 49.7614 65.0469 49.9086 65.0469H54.5453C54.7348 65.0469 54.6465 65.1678 54.7314 65.4637L54.991 67.1045C55.1603 67.7884 55.049 67.6618 55.1958 68.151C55.2558 68.3505 55.2136 68.5131 55.2514 68.7443C55.3114 69.1122 55.38 68.8072 55.38 69.5894H49.0744V69.2647L49.0739 69.2652ZM34.8862 15.3086C34.8862 14.7211 34.8497 15.1556 35.0258 14.7062C35.0771 14.5757 35.0258 14.6688 35.1026 14.5513C35.2954 14.2558 35.4595 14.2395 35.6706 14.1455C35.872 14.0558 35.5948 14.0573 36.1383 14.0573C36.3004 14.0573 36.17 14.0712 36.2971 14.1302C36.7931 14.3618 36.785 14.3062 37.0234 14.841C37.1131 15.0424 37.1117 14.7652 37.1117 15.3086C37.1117 15.4549 37.0978 15.3129 36.9721 15.6328C36.903 15.8098 36.8042 15.934 36.6444 16.0467L36.1378 16.2822C35.5501 16.2822 35.9848 16.3187 35.5353 16.1427C35.4048 16.0913 35.4979 16.1427 35.3803 16.0659C35.3424 16.041 35.258 15.9748 35.2254 15.9427C35.0862 15.8036 34.8857 15.3647 34.8857 15.3086H34.8862ZM32.475 14.7522C32.475 15.0472 32.4443 15.6784 32.5211 15.9115L32.7202 16.5005C32.725 16.51 32.7307 16.522 32.7351 16.5316L33.2978 17.452C33.3256 17.4856 33.3525 17.5173 33.3841 17.5513C33.7329 17.9264 33.9752 18.0823 34.3839 18.3134C34.5221 18.3916 34.4842 18.3647 34.6401 18.4281C34.6506 18.4324 34.6626 18.4372 34.6732 18.4415C34.6833 18.4458 34.6953 18.4516 34.7048 18.4564C34.7144 18.4607 34.7255 18.4679 34.7351 18.4722C34.7447 18.4765 34.7552 18.4842 34.7648 18.4885C34.9318 18.5662 34.7595 18.5062 34.9375 18.5475C35.8039 18.7484 35.1093 18.6923 36.4156 18.6923C36.5657 18.6923 36.6324 18.6818 36.7404 18.6463L37.3237 18.4415C37.3338 18.4372 37.3463 18.4324 37.3568 18.4281C37.3674 18.4237 37.3803 18.4199 37.3909 18.4156L37.5842 18.3307C38.1206 18.0324 38.4621 17.7743 38.8397 17.2683L39.2844 16.4611C39.2902 16.4477 39.3079 16.4112 39.3137 16.3978C39.5679 15.7839 39.5219 15.4395 39.5219 14.7518C39.5219 14.1968 39.0325 13.2491 38.6123 12.7872L37.2383 11.8428L36.4151 11.6462C36.1201 11.6462 35.4887 11.6155 35.2556 11.6922C35.0695 11.7536 35.1961 11.7388 34.9769 11.7843L34.1675 12.134C34.0927 12.1752 33.9948 12.2548 33.9243 12.3081L33.4508 12.7158C33.2129 12.9628 33.0042 13.2462 32.8502 13.5522C32.7969 13.6587 32.7897 13.6846 32.7341 13.8069C32.7298 13.8165 32.7235 13.8285 32.7192 13.8381C32.5595 14.1714 32.6645 14.0314 32.5326 14.3935C32.4846 14.5254 32.4741 14.5863 32.4741 14.7518L32.475 14.7522ZM60.387 41.8696H62.6125V48.7301H60.387V41.8696ZM57.9759 41.5454V49.0548C57.9759 49.2548 58.0018 49.3311 58.0608 49.4798L58.2129 49.8381C58.4638 50.3306 58.8994 50.7484 59.4026 50.9666C59.6017 51.053 59.8353 51.1407 60.0627 51.1407C60.6677 51.1407 62.9359 51.2247 63.3628 51.0558C63.9366 50.829 64.1592 50.6755 64.553 50.2064C64.5617 50.1959 64.5857 50.1656 64.5943 50.1551L64.7099 49.9925C64.8145 49.8102 65.0241 49.3254 65.0241 49.1014V41.5454C65.0241 41.1977 64.7661 40.6149 64.5334 40.3674C64.483 40.3137 64.5127 40.3492 64.4657 40.296L64.1395 39.9732C63.9174 39.766 63.7576 39.696 63.4626 39.5837C63.263 39.508 63.1968 39.459 62.9378 39.459C62.3328 39.459 60.0646 39.3751 59.6377 39.5439C59.6242 39.5492 59.5859 39.566 59.572 39.5713L58.4863 40.3401C58.4801 40.3478 58.4719 40.3583 58.4662 40.366C58.4604 40.3737 58.4518 40.3847 58.446 40.3924L58.151 40.8854C58.1251 40.9454 58.1361 40.9267 58.1136 40.9871L58.0757 41.0878C58.0114 41.2499 57.9773 41.3195 57.9773 41.5454H57.9759ZM9.38488 41.8696H11.6104V48.7301H9.38488V41.8696ZM6.97372 41.5454V49.0548C6.97372 49.2548 6.99963 49.3311 7.05864 49.4798C7.06391 49.4937 7.0807 49.5316 7.08598 49.5455L7.21071 49.8381C7.23374 49.8827 7.26013 49.9436 7.28795 49.9925C7.40117 50.1896 7.61513 50.4151 7.78592 50.5609C8.0397 50.7777 7.85932 50.6961 8.24694 50.888C8.49353 51.0103 8.77225 51.1407 9.06057 51.1407C9.66552 51.1407 11.9337 51.2247 12.3607 51.0558L12.5286 50.992C12.9613 50.8261 13.2362 50.5724 13.5298 50.2314C13.536 50.2242 13.5451 50.2136 13.5514 50.2064C13.56 50.1959 13.584 50.1656 13.5926 50.1551C13.7759 49.9239 14.022 49.3532 14.022 49.1009V41.5449C14.022 41.2926 13.9529 41.1598 13.8733 40.9521C13.6301 40.3195 13.0846 39.8202 12.46 39.5837L12.3933 39.5578C12.2311 39.4936 12.1616 39.4595 11.9356 39.4595C11.3307 39.4595 9.06249 39.3756 8.63553 39.5444C8.42397 39.6283 8.12269 39.7454 7.9543 39.8835C7.95382 39.884 7.89721 39.9329 7.87994 39.9478L7.5259 40.2893C7.51966 40.2965 7.51103 40.307 7.50479 40.3147L7.46401 40.3665C7.45826 40.3742 7.44962 40.3852 7.44386 40.3929L7.22702 40.732C7.17425 40.836 7.19728 40.7742 7.14883 40.8859L7.07303 41.0883C7.00874 41.2504 6.97468 41.32 6.97468 41.5459L6.97372 41.5454ZM23.526 17.9508C23.6263 17.9873 23.5663 17.9681 23.6383 18.0242C23.6412 18.0266 23.7271 18.101 23.7371 18.1105L23.9947 18.3628C24.1617 18.5173 25.1245 19.4338 25.195 19.4338C25.4143 19.4338 25.4824 19.2899 25.6043 19.1475L31.5175 12.6361C31.5635 12.5824 31.5573 12.5882 31.6048 12.5383C31.7295 12.4069 31.8188 12.3201 31.9387 12.1771L33.9473 9.96703C34.0068 9.89989 34.0443 9.86584 34.1047 9.79965C34.1138 9.78957 34.1397 9.7608 34.1488 9.7512L34.416 9.46199C34.4223 9.4548 34.4319 9.44473 34.4381 9.43753L35.4245 8.33776C35.4307 8.33056 35.4398 8.32049 35.4465 8.3133L35.6917 8.04854C35.7305 8.00586 35.7377 7.99339 35.778 7.94926C36.0366 7.66437 36.1786 7.91089 36.371 8.12049L37.1908 9.01594C37.2666 9.11379 37.2671 9.13153 37.3535 9.2241C37.4158 9.29077 37.4494 9.31811 37.5137 9.38813C37.554 9.43226 37.5617 9.44185 37.602 9.48549L38.4281 10.3747C38.4631 10.4092 38.4928 10.4371 38.5211 10.4673L40.1623 12.3028C40.23 12.38 40.2712 12.4169 40.3446 12.4913C40.4151 12.5623 40.4387 12.5891 40.4991 12.6611L40.9174 13.1239C40.9237 13.1311 40.9333 13.1407 40.94 13.1479L41.7987 14.0971C41.8054 14.1038 41.8145 14.1139 41.8213 14.121C41.828 14.1278 41.8376 14.1378 41.8438 14.145L42.6008 14.9642C42.6363 15.0002 42.6661 15.028 42.6929 15.0578L43.0105 15.4357C43.0729 15.5024 43.1084 15.5297 43.1712 15.5997C43.2211 15.6554 43.2082 15.6424 43.2566 15.7L46.348 19.0991C46.5937 19.3638 46.6747 19.5571 46.9808 19.2885C47.0072 19.2655 47.0604 19.2185 47.0796 19.2022C47.0868 19.1959 47.0979 19.1873 47.1051 19.1811C47.2859 19.0285 48.3121 18.0079 48.4704 17.9504C48.4646 17.6813 48.3169 17.6448 48.1667 17.4659C48.1605 17.4587 48.1518 17.4477 48.1456 17.4405L46.8887 16.0549C46.8825 16.0477 46.8729 16.0381 46.8661 16.0309L44.4867 13.4035C44.4804 13.3963 44.4704 13.3867 44.4641 13.3795L43.6212 12.4606C43.5339 12.3431 43.5281 12.3359 43.4279 12.2366C43.3506 12.1599 43.3223 12.1287 43.2475 12.0462L41.4149 10.0313C41.4058 10.0212 41.3804 9.99198 41.3713 9.98238L39.9335 8.40682C39.9273 8.39963 39.9177 8.38956 39.9109 8.38284L39.2715 7.6778C39.2647 7.6706 39.2556 7.66101 39.2489 7.65381C39.2398 7.64374 39.2139 7.61497 39.2048 7.60537C39.1295 7.52288 39.0733 7.4754 39.0004 7.3929L38.2506 6.56651C38.1844 6.49649 38.135 6.43797 38.0769 6.36939C38.039 6.32478 38.0265 6.30847 37.992 6.26866L37.495 5.79192C37.4269 5.74108 37.3516 5.67921 37.283 5.63316C37.1889 5.57081 37.2738 5.62453 37.1664 5.56458L37.0157 5.48304C36.3196 5.16361 35.4288 5.21254 34.7706 5.59815L34.5202 5.76458C34.4611 5.8111 34.3791 5.88736 34.3249 5.94012L34.2088 6.05571C34.2021 6.06243 34.192 6.07202 34.1853 6.07873L28.8223 11.9815C28.7456 12.0644 28.6918 12.1081 28.6151 12.191C28.5729 12.2371 28.5657 12.2472 28.5292 12.2903L27.5323 13.3795C27.0013 13.9158 26.5239 14.5028 26.0116 15.0578L24.5738 16.6333C24.5071 16.7033 24.4587 16.7614 24.3996 16.8304L23.6513 17.6583C23.5342 17.7782 23.5313 17.7379 23.5265 17.9508H23.526ZM30.2491 32.599H41.7478V34.824H30.2491V32.599ZM27.8379 32.2743C27.8379 32.8791 27.754 35.1467 27.9228 35.5736C27.9281 35.5875 27.9449 35.6254 27.9502 35.6393C27.966 35.6801 27.9713 35.7002 27.9871 35.7415L28.77 36.7664C28.7772 36.7727 28.7868 36.7827 28.794 36.789C28.9715 36.9487 29.2383 37.0456 29.4671 37.1357C29.6292 37.2 29.6988 37.2341 29.9248 37.2341H42.0726C42.2727 37.2341 42.349 37.2082 42.4977 37.1492C42.7102 37.0652 42.9357 36.9823 43.1209 36.8451L43.8448 36.0854C43.8774 36.0283 43.862 36.0499 43.8908 35.9923C43.9791 35.8192 44.1585 35.4101 44.1585 35.1937C44.1585 34.5841 44.243 32.2762 44.0736 31.8484L44.0098 31.6805C43.9743 31.5879 43.9662 31.5793 43.9215 31.4906C43.7349 31.1218 43.8189 31.2724 43.6001 31.0239L43.2739 30.7011C43.2672 30.6944 43.2576 30.6848 43.2504 30.6781C43.2437 30.6714 43.2341 30.6618 43.2269 30.6551C42.9937 30.4383 42.3998 30.187 42.0722 30.187H29.9243C29.7242 30.187 29.648 30.2129 29.4992 30.2719L28.7187 30.6963L28.3479 31.0676C28.3416 31.0752 28.3335 31.0858 28.3277 31.0935L27.9626 31.7481C27.8868 31.9477 27.8379 32.0139 27.8379 32.2724V32.2743ZM37.2038 51.1407H44.0659V69.5899H37.2038V51.1407ZM27.9305 51.1407H34.7926V69.5899H27.9305V51.1407ZM16.6174 69.2652C16.6174 69.0302 16.696 68.9808 16.7383 68.7832C16.7795 68.5908 16.7551 68.3223 16.791 68.187C16.8596 67.9261 16.8913 68.0282 16.8966 67.6896L17.3111 65.2301C17.336 65.1021 17.3048 65.0469 17.4521 65.0469H22.0888C22.2783 65.0469 22.19 65.1678 22.2749 65.4637C22.319 65.6186 22.343 65.8522 22.3622 66.0253L22.5349 67.1045C22.5824 67.2959 22.6366 67.3697 22.6453 67.5971C22.6596 67.9822 22.6544 67.8666 22.7398 68.1515C22.7997 68.351 22.7575 68.5136 22.7954 68.7448C22.8554 69.1127 22.924 68.8076 22.924 69.5899H16.6183V69.2652H16.6174ZM55.7499 37.2341H67.2487V69.5894H58.0219C57.8243 69.5894 57.902 69.4091 57.8478 69.2072L57.464 66.8095C57.4462 66.6066 57.3834 66.5918 57.3436 66.3735C57.3105 66.1913 57.346 66.0292 57.3081 65.8527C57.2697 65.6723 57.2035 65.6191 57.1886 65.4157C57.1699 65.1587 57.2107 65.1347 57.1363 64.9117C57.062 64.6886 57.0788 64.7342 57.0418 64.4498L56.8993 64.0363C56.7487 63.6378 56.1514 62.9476 55.7499 62.914V37.2336V37.2341ZM13.9745 69.5894H4.74775V37.2341H16.2465V62.9145C15.8843 62.9447 15.5658 63.3601 15.3825 63.5807L15.3394 63.6306C15.3331 63.6383 15.3245 63.6483 15.3182 63.656L15.2588 63.7356C15.0798 63.9932 15.1431 63.9673 15.0285 64.2009C14.9762 64.3078 14.9714 64.2747 14.9532 64.4037C14.8639 65.022 14.8299 64.8445 14.8088 65.3721C14.7992 65.6105 14.7488 65.6205 14.697 65.8167C14.6481 66.0033 14.6864 66.14 14.6591 66.3347C14.6365 66.4939 14.5545 66.6282 14.5358 66.7678C14.5075 66.9764 14.5305 67.0906 14.4897 67.2781L14.1151 69.4067C14.0901 69.5347 14.1213 69.5899 13.974 69.5899L13.9745 69.5894ZM51.1132 32.5985H53.3387V62.6363H51.1132V32.5985ZM18.6572 32.5985H20.8827V62.6363H18.6572V32.5985ZM35.72 46.5047C36.7831 46.5047 36.2635 46.5579 36.7528 46.6308C36.9011 46.6529 36.9006 46.6299 37.0306 46.6778L37.6404 46.9493C37.8889 47.0745 38.1968 47.334 38.3988 47.5354C38.655 47.7915 38.7054 47.8807 38.9049 48.1882L38.9596 48.2726C39.0052 48.3527 39.0234 48.4088 39.0642 48.4927C39.1477 48.6635 39.1333 48.5071 39.1515 48.7297H32.8459C32.8641 48.51 33.0277 48.2841 33.1476 48.1042C33.2052 48.0179 33.2191 47.9973 33.2781 47.9105C33.2997 47.8783 33.3107 47.8606 33.3352 47.8284L33.7401 47.3987C33.778 47.3647 33.7847 47.3603 33.8149 47.3344L34.3566 46.9488C34.4184 46.9176 34.4232 46.9234 34.4856 46.8922C35.1961 46.5407 35.0656 46.7085 35.4662 46.5747C35.578 46.5373 35.5861 46.5042 35.72 46.5042V46.5047ZM40.9592 46.6438C41.0873 46.6097 41.1491 46.5033 41.2648 46.3929L42.1916 45.4653C42.277 45.3795 42.3753 45.2476 42.489 45.2063C42.5591 45.3109 42.6546 45.414 42.7256 45.5263L43.5248 47.1373C43.5286 47.1483 43.5325 47.1608 43.5368 47.1718L43.9263 48.7292H41.7008C41.7008 48.3632 41.5545 48.0966 41.4317 47.793L41.2657 47.4025C41.2609 47.393 41.2556 47.3805 41.2513 47.3709L41.0215 46.9512C40.9433 46.7953 40.9587 46.8577 40.9587 46.6433L40.9592 46.6438ZM30.2951 48.7297H28.0696C28.0696 48.1484 28.1406 48.3839 28.1963 48.0683C28.3109 47.415 28.6386 46.6558 28.8151 46.3229L29.5069 45.2068C29.6393 45.2548 29.9617 45.6227 30.0826 45.744L30.9169 46.5786C30.9883 46.6323 30.9351 46.6169 31.0368 46.6443C31.0368 46.991 30.9231 46.9862 30.772 47.3066L30.7298 47.4035C30.5585 47.7484 30.2946 48.3292 30.2946 48.7301L30.2951 48.7297ZM39.2902 44.9752C38.9654 44.9752 38.9433 44.8634 38.5624 44.6831L37.8083 44.3708C37.5842 44.2955 37.5823 44.2332 37.2038 44.2332V42.0082C37.7852 42.0082 37.5497 42.0792 37.8653 42.1348L39.0086 42.4754C39.117 42.5224 38.9985 42.4763 39.1002 42.5229C39.1098 42.5272 39.1218 42.5334 39.1319 42.5377C39.1419 42.542 39.1544 42.5468 39.165 42.5512L40.3787 43.1919C40.5154 43.2744 40.6114 43.3675 40.7279 43.4457C40.6819 43.5728 40.3974 43.815 40.2837 43.9286L39.6346 44.578C39.5281 44.6869 39.3305 44.826 39.2906 44.9757L39.2902 44.9752ZM31.269 43.4457L32.144 42.8835C32.2333 42.8394 32.2601 42.8231 32.3556 42.7703C32.7485 42.5531 33.6777 42.201 34.0903 42.1401C34.4429 42.0883 34.1982 42.0082 34.7926 42.0082V44.2332C34.6506 44.2332 34.6223 44.2274 34.4928 44.2577L33.7147 44.5459C33.6552 44.5685 33.6705 44.5584 33.6144 44.5848C33.4993 44.639 33.5827 44.6068 33.4959 44.6519L33.2191 44.7924C33.2105 44.7977 33.199 44.8049 33.1903 44.8102C33.1817 44.8155 33.1702 44.8222 33.1611 44.8274L33.0138 44.9119C32.8579 44.99 32.9202 44.9747 32.7053 44.9747C32.6655 44.8251 32.4678 44.686 32.3613 44.5771L31.5271 43.7425C31.4805 43.6965 31.4781 43.6946 31.4335 43.6509L31.2685 43.4452L31.269 43.4457ZM25.5198 69.5894C25.3903 69.4944 25.292 68.6004 25.2094 68.2306L25.0502 67.2776C25.0094 67.0901 25.0324 66.9759 25.0041 66.7673C24.9854 66.6277 24.9034 66.4934 24.8808 66.3342C24.8535 66.1395 24.8919 66.0028 24.8429 65.8162C24.7911 65.6201 24.7407 65.6095 24.7311 65.3716C24.7148 64.9673 24.5685 64.1889 24.3358 63.82L24.1622 63.5764C24.1377 63.5443 24.1296 63.5318 24.1027 63.4968L23.9775 63.3442C23.8086 63.1586 23.5625 62.937 23.2943 62.915V32.599C23.5611 32.599 23.7875 32.576 24.0168 32.4872L24.5743 32.2105L25.2032 31.5875C25.209 31.5798 25.2176 31.5692 25.2234 31.5616C25.2291 31.5539 25.2373 31.5429 25.243 31.5352C25.2689 31.4983 25.2569 31.5227 25.2982 31.4513C25.3308 31.3942 25.3155 31.4158 25.3442 31.3587C25.4018 31.2455 25.4388 31.1678 25.4958 31.0004C25.552 30.8354 25.6119 30.764 25.6119 30.5606V27.9649H46.3835C46.3835 28.5476 46.2957 30.503 46.4685 30.9395C46.4737 30.9529 46.49 30.9913 46.4958 31.0052L46.6205 31.2978C46.6431 31.3424 46.6699 31.4033 46.6978 31.4522L47.3157 32.1328C47.3224 32.139 47.3325 32.1491 47.3397 32.1553C47.4841 32.2853 47.628 32.3472 47.8103 32.4263C47.8712 32.4527 47.8511 32.4412 47.9115 32.4642C48.1667 32.5601 48.4018 32.6009 48.7021 32.6009V62.9169C48.4402 62.9385 48.1777 63.1605 48.0194 63.3466L47.7541 63.6843C47.3752 64.1821 47.45 64.5313 47.3281 64.881C47.2466 65.1145 47.2763 65.0987 47.2653 65.374C47.2557 65.6124 47.2053 65.6225 47.1535 65.8186C47.1046 66.0052 47.143 66.1419 47.1156 66.3366C47.0931 66.4958 47.011 66.6301 46.9923 66.7697C46.964 66.9783 46.987 67.0925 46.9463 67.28L46.6162 69.175C46.5538 69.3913 46.621 69.4858 46.4766 69.5918C46.4766 62.9629 46.4766 56.3346 46.4766 49.7057C46.4766 48.7052 46.3984 48.768 46.3308 48.0438L45.1242 44.7536L44.1619 43.3517C44.1158 43.2965 44.0914 43.262 44.0391 43.1963L43.567 42.6946C43.5133 42.6356 43.4864 42.591 43.4413 42.542L41.6706 41.1142C41.6625 41.1089 41.6509 41.1013 41.6423 41.096L40.4473 40.4365C40.3614 40.3914 40.443 40.4231 40.3288 40.3694L39.672 40.0989C39.5847 40.0624 39.5027 40.0494 39.4254 40.0211L38.4545 39.7406C38.2607 39.7056 38.1311 39.636 37.934 39.612L37.4115 39.5319C36.9548 39.4034 35.1035 39.4159 34.6199 39.5209L33.3419 39.7727C32.8713 39.8705 32.4942 40.0566 32.062 40.2082C32.051 40.212 32.038 40.2154 32.027 40.2192L31.8116 40.3286C31.684 40.3842 31.8778 40.3003 31.7439 40.3535L30.298 41.1329C30.2898 41.1382 30.2783 41.1459 30.2702 41.1511L29.4359 41.754C29.3635 41.8154 29.3304 41.8389 29.256 41.8984L27.8768 43.3008L26.1579 46.2644C25.8979 46.886 25.7362 47.5992 25.6522 48.262C25.6374 48.381 25.6182 48.3939 25.5875 48.5215C25.5021 48.8745 25.5198 49.2846 25.5198 49.7057C25.5198 56.3346 25.5198 62.9629 25.5198 69.5918V69.5894ZM67.9908 34.8235H55.7504V32.5985H69.1499C69.2626 32.5985 69.5672 32.8182 69.5672 33.0623C69.5672 33.1645 69.4689 33.27 69.3763 33.3817L69.1225 33.6383C69.0698 33.6906 69.0511 33.7098 69.0064 33.7544L68.4965 34.2642C68.3674 34.3928 68.0354 34.6556 67.9904 34.8244L67.9908 34.8235ZM2.43015 33.0618C2.43015 32.8182 2.7343 32.598 2.84752 32.598H16.247V34.823H4.00656L3.03797 33.798C3.03078 33.7918 3.0207 33.7822 3.01398 33.776L2.75829 33.5218C2.70312 33.4676 2.43015 33.211 2.43015 33.0618ZM62.7051 25.6449H64.9306V30.1874H62.7051V25.6449ZM48.7957 27.9625H55.6578V30.1874H48.7957V27.9625ZM16.3396 27.9625H23.2017V30.1874H16.3396V27.9625ZM7.06631 25.6449H9.29181V30.1874H7.06631V25.6449ZM56.4455 25.6449H60.294V30.1874H58.0685C58.0685 29.5352 58.1505 27.6339 57.9835 27.2128L57.6228 26.5073C56.8418 25.6411 56.8269 25.8867 56.4455 25.6445V25.6449ZM13.9285 27.6383V30.1879H11.703V25.6454L15.4871 25.6737L15.2626 25.774C14.9661 25.9231 15.0731 25.8377 14.8092 26.0622L14.459 26.4075C14.4528 26.4152 14.4446 26.4258 14.4384 26.4334L14.0532 27.1145C13.9726 27.3275 13.9285 27.374 13.9285 27.6392V27.6383ZM48.7952 23.3274H51.0207V25.5524H48.7952V23.3274ZM41.8404 23.3274H46.384V25.5524H41.8404V23.3274ZM32.5671 23.3274H39.4293V25.5524H32.5671V23.3274ZM25.6124 23.3274H30.1565V25.5524H25.6124V23.3274ZM20.9758 23.3274H23.2013V25.5524H20.9758V23.3274ZM18.6577 20.4995C18.6577 20.2094 19.7246 19.1576 20.0446 18.8266C20.0513 18.8199 20.0609 18.8098 20.0676 18.8031L20.1842 18.688C20.1909 18.6813 20.2005 18.6712 20.2068 18.6645L22.3181 16.418C22.3521 16.381 22.3473 16.3873 22.3852 16.346L25.8082 12.7225C25.8446 12.6827 25.836 12.6899 25.8734 12.6486C25.8796 12.6414 25.8887 12.6313 25.8955 12.6241L26.0806 12.4385C26.1838 12.3311 26.2274 12.2582 26.3421 12.1436L30.4155 7.82552C30.4222 7.81881 30.4323 7.80921 30.439 7.8025L31.174 7.00776C31.2181 6.9574 31.1937 6.98714 31.2412 6.93582L34.7519 3.21395C34.7581 3.20675 34.7677 3.19668 34.7739 3.18997L35.1347 2.80915C35.5122 2.389 36.1906 2.2571 36.643 2.61106C36.6507 2.61682 36.6612 2.62545 36.6689 2.63169L37.0436 2.9986C37.0901 3.05327 37.127 3.09212 37.1769 3.14344L38.1258 4.14154C38.2247 4.24993 38.2923 4.31804 38.3983 4.42547L38.595 4.6461C38.6013 4.6533 38.6099 4.66433 38.6161 4.67152L38.9083 4.98184C39.0258 5.09791 39.0642 5.14443 39.1736 5.27297L39.5641 5.67058C39.5703 5.67777 39.5794 5.68784 39.5862 5.69504L39.921 6.05571C39.9445 6.08065 39.9709 6.10703 39.9896 6.12574L40.4665 6.62215C40.5025 6.66148 40.4977 6.65812 40.5322 6.69553L40.7111 6.88738C40.7174 6.89457 40.727 6.90464 40.7332 6.91136L42.122 8.39675C42.1268 8.40155 42.1739 8.44855 42.1916 8.4663L42.2381 8.51234C42.2449 8.51905 42.2545 8.52865 42.2612 8.53536L44.6906 11.1133C44.7251 11.1512 44.7342 11.1603 44.7572 11.1858L46.1441 12.6731C46.243 12.7815 46.3154 12.8486 46.419 12.9546L48.7755 15.4659C48.7971 15.4889 48.8278 15.5191 48.8441 15.5359L49.6323 16.37C49.6347 16.3724 49.686 16.4232 49.7024 16.4391L51.0494 17.8736C51.0557 17.8808 51.0648 17.8909 51.0715 17.8981C51.0777 17.9053 51.0873 17.9149 51.0941 17.9221C51.1008 17.9288 51.1104 17.9388 51.1171 17.9456L52.3294 19.2367C52.4287 19.3374 52.5155 19.4103 52.6076 19.5149L53.1401 20.0947C53.6429 20.7082 52.9458 20.9163 52.9209 20.9163H19.0741C18.9484 20.9163 18.6567 20.6247 18.6567 20.4991L18.6577 20.4995ZM50.8355 14.0563H62.9834L63.3743 14.5925C63.5226 14.7925 63.6363 14.9561 63.7941 15.1465C63.8003 15.1537 63.8095 15.1637 63.8157 15.1714L65.2357 16.9964C65.2813 17.0549 65.2885 17.0698 65.3355 17.1283L68.6591 21.4075C68.6898 21.4487 68.6898 21.4497 68.7196 21.4861L69.3965 22.3389C69.7596 22.855 69.454 22.785 69.4286 23.0948C69.1336 23.1192 69.42 23.2353 68.5939 23.2339L53.664 23.1874C53.9375 23.1874 53.8708 23.172 54.0603 23.0737C54.3323 22.9327 54.5904 22.7878 54.8192 22.5806L54.8902 22.5125C54.9075 22.4957 54.9535 22.4487 54.9598 22.443L55.3416 21.9442C55.4952 21.7144 55.5647 21.4463 55.6669 21.2032C55.6722 21.1907 55.6794 21.1969 55.7106 21.1082C55.7921 20.8761 55.784 20.0799 55.7163 19.8386L55.628 19.6022C55.5259 19.276 55.3565 18.9686 55.1483 18.6909L54.8254 18.3182C54.7914 18.2813 54.7957 18.287 54.7583 18.2463L51.4961 14.7863C51.4256 14.71 51.4068 14.6745 51.3488 14.6093L51.0087 14.2539C50.9247 14.1652 50.9007 14.1527 50.836 14.0558L50.8355 14.0563ZM16.247 20.1288C16.247 20.8943 16.2206 21.0295 16.5152 21.6684C16.5507 21.7456 16.5598 21.7845 16.5996 21.8622C16.7224 22.0981 16.8985 22.3044 17.0842 22.4905C17.099 22.5053 17.1331 22.5394 17.1542 22.5595C17.3845 22.7754 17.6272 22.9197 17.9059 23.0593C18.0383 23.1255 18.1007 23.1883 18.3329 23.1883V23.2348C17.9275 23.2348 3.357 23.2852 2.93867 23.2353C2.62348 23.1979 2.87582 23.1212 2.56831 23.0957C2.5448 22.8137 2.21762 22.8132 2.64123 22.2876L3.61605 21.0372C3.98833 20.6415 4.28672 20.1892 4.60863 19.7581C4.66907 19.6765 4.72904 19.6022 4.79428 19.5264L7.3484 16.2391C7.35463 16.2319 7.36375 16.2218 7.36999 16.2141L8.16011 15.1964C9.3393 13.7373 8.65136 14.0563 10.8682 14.0563C14.2993 14.0563 17.7304 14.0563 21.1614 14.0563C21.1154 14.1254 21.076 14.1743 21.0185 14.2376L19.5797 15.7657C19.1451 16.24 18.2211 17.123 17.8628 17.5719L16.8688 18.664C16.6634 18.9365 16.4763 19.2391 16.3794 19.5657L16.3583 19.6372C16.3545 19.6482 16.3497 19.6602 16.3458 19.6708C16.3007 19.795 16.247 19.9475 16.247 20.1283V20.1288ZM44.2981 7.10321H62.6125V11.6462H48.61C48.4502 11.6462 47.7268 10.7829 47.6309 10.6783L47.5858 10.6308C47.5584 10.6016 47.5618 10.6069 47.5196 10.5579L44.2981 7.10369V7.10321ZM23.3874 11.6462H9.38488V7.10321H27.6993L26.3896 8.52865C26.333 8.5886 26.308 8.61738 26.2562 8.67349L25.8945 9.05335C25.8878 9.06007 25.8782 9.07014 25.872 9.07686L25.3308 9.64857C25.3241 9.65528 25.3145 9.66535 25.3078 9.67207L24.7657 10.2428C24.7 10.3114 24.6894 10.3306 24.6376 10.3929C24.5983 10.4404 24.6371 10.3987 24.5733 10.4678L24.3877 10.6534C24.3809 10.6601 24.3718 10.6706 24.3651 10.6774L23.8312 11.2563C23.7371 11.3522 23.5097 11.6457 23.3864 11.6457L23.3874 11.6462ZM6.9742 6.77898V12.0169C6.9742 12.3431 7.11333 12.3575 7.11333 12.5268C7.11333 12.6927 7.12868 12.5517 7.03561 12.6807L5.00105 15.2817C4.77605 15.5364 4.58224 15.8674 4.35053 16.1148C4.25314 16.2189 4.20421 16.2722 4.12073 16.3949L4.04686 16.5067C4.0411 16.5148 4.03294 16.5259 4.02719 16.5335L2.27759 18.771C2.18596 18.8899 2.13175 18.9662 2.03964 19.0895L1.7494 19.4477C1.7067 19.4981 1.72589 19.4727 1.68512 19.5226L1.47355 19.8209C1.43805 19.8684 1.42462 19.8823 1.41167 19.8981L1.0984 20.2804C0.729962 20.7705 0.321228 21.2305 0.15284 21.8382L0.04442 22.1466C-0.0193849 22.4219 0.0194737 22.7624 0.0194737 23.0487C0.0194737 23.3125 0.127894 23.6229 0.217125 23.8248C0.221442 23.8344 0.228638 23.8459 0.232956 23.8555L0.561095 24.4545C0.621542 24.5351 0.646968 24.5648 0.710293 24.6301L1.77914 25.4157C1.78874 25.4205 1.79977 25.4272 1.80937 25.432L2.09001 25.5222C2.2656 25.5759 2.32604 25.6454 2.6158 25.6454H4.65564V30.1879C4.16727 30.1879 2.64939 30.1246 2.26943 30.2129C1.80505 30.3208 1.37617 30.5505 1.01349 30.8575C0.932891 30.9256 0.914661 30.9361 0.841261 31.0095C0.778416 31.0723 0.762105 31.0954 0.710293 31.1568C0.704057 31.164 0.695421 31.1745 0.689185 31.1817L0.31691 31.7366C0.295802 31.7803 0.293403 31.7889 0.272294 31.8311L0.0540147 32.4009C-0.0169862 32.6541 -0.0237025 33.4604 0.0736839 33.7031C0.239672 34.116 0.372559 34.5463 0.694462 34.8901L1.36034 35.5688C1.36993 35.5784 1.3968 35.6057 1.40639 35.6158L1.91635 36.1257C2.03388 36.2432 2.17109 36.4484 2.33756 36.4926V70.9803C2.33756 71.1837 2.2301 72 2.47668 72H69.5212C69.7164 72 69.6651 71.7909 69.6618 71.5842C69.6157 68.8038 69.6603 66.0191 69.6603 63.2387V36.4921C69.7769 36.4609 69.8407 36.3688 69.9194 36.2878C69.9261 36.2811 69.9357 36.271 69.9424 36.2643L70.8462 35.3602C70.8918 35.3151 70.8942 35.3127 70.9388 35.2676L71.2641 34.9439C71.4656 34.7405 71.6172 34.4753 71.74 34.2144C72.0086 33.645 71.9779 33.293 71.9779 32.6446C71.9779 32.4167 71.8964 32.3285 71.8527 32.1673C71.8129 32.0201 71.846 32.0781 71.7903 31.9515L70.9839 30.8575L70.0009 30.3107C69.8349 30.2589 69.703 30.1879 69.4747 30.1879H67.3418V25.6454H69.3821C69.6488 25.6454 69.9813 25.5303 70.1885 25.432L71.2645 24.6536C71.4598 24.4564 71.6018 24.2075 71.7184 23.9485L71.7807 23.8257C71.9913 23.349 72.0907 22.4914 71.8925 21.9763C71.7275 21.547 71.6781 21.3163 71.3754 20.9173L70.7085 20.0545C70.7023 20.0473 70.6932 20.0367 70.687 20.0295C70.6577 19.994 70.6548 19.9873 70.6265 19.9509L65.8004 13.7436C65.6344 13.5426 65.4962 13.3445 65.3408 13.1369C65.2136 12.9666 64.8836 12.6731 64.8836 12.4812C64.8836 12.368 65.0227 12.3062 65.0227 12.0174V6.77946C65.0227 6.5056 64.9445 6.34109 64.8486 6.1195C64.802 6.01159 64.7987 6.02598 64.755 5.93485C64.6404 5.69743 64.4696 5.48832 64.2628 5.31422C64.0436 5.12956 63.8622 4.98232 63.5969 4.86769C63.536 4.84131 63.5562 4.85282 63.4957 4.8298L63.395 4.79191C63.1858 4.70941 62.9133 4.69214 62.659 4.6931C60.9637 4.69934 42.1974 4.74778 42.0026 4.67056C41.8975 4.62883 41.8165 4.4955 41.744 4.41924C41.7373 4.41253 41.7277 4.40293 41.721 4.39574L38.4516 0.942935L37.2388 0.208632C37.1889 0.195683 37.176 0.197121 37.1266 0.181774C36.6094 0.0187018 35.5329 -0.102643 35.0013 0.127097L34.4899 0.311272C34.2299 0.435014 33.9972 0.536215 33.7924 0.726625L33.4978 0.988499C33.4964 0.989938 33.4451 1.04174 33.4288 1.05804L33.2215 1.26812C33.209 1.28155 33.1779 1.318 33.1563 1.34198L30.3695 4.30365C30.3421 4.33099 30.3148 4.35689 30.2994 4.37272C29.9828 4.69023 30.0485 4.69694 29.5079 4.69406C26.7043 4.67968 9.19442 4.64418 8.84517 4.71037L7.42372 5.65331C7.40213 5.68161 7.38726 5.70031 7.36375 5.73197C7.30906 5.80631 7.35176 5.73916 7.3057 5.81302C7.24813 5.90559 7.29659 5.82789 7.25725 5.90367L7.08646 6.28881C7.01498 6.47298 6.97468 6.53246 6.97468 6.77946L6.9742 6.77898Z" fill="#124285"/>
</g>
</g>
<defs>
<clipPath id="clip0_16_44">
<rect width="72" height="72" fill="white"/>
</clipPath>
</defs>
</svg>
