<svg width="53" height="52" viewBox="0 0 53 52" fill="none" xmlns="http://www.w3.org/2000/svg">
<path id="Vector" fill-rule="evenodd" clip-rule="evenodd" d="M46.6115 36.4674H49.1654V50.4749H46.6115V36.4674ZM39.7474 18.2339H51.4803V19.8772H37.9915C38.2115 19.555 38.5193 19.3207 38.8096 19.036C38.9913 18.8578 39.5009 18.2339 39.7474 18.2339ZM36.874 18.7815V2.5826L37.6012 3.27821C37.6127 3.28944 37.6301 3.30532 37.6415 3.31694C37.7099 3.38317 37.7004 3.37194 37.7624 3.43313L37.9619 3.62872C38.2534 3.89287 38.5501 4.06174 38.5501 4.46067V16.9813C38.5501 17.2714 37.6324 18.0115 37.3184 18.3563L36.874 18.7811V18.7815ZM40.0666 16.5123V15.1036C40.0666 14.9038 39.9844 15.0544 40.402 14.7283C40.5525 14.6106 40.6473 14.5385 40.8081 14.4219L45.4035 10.9454C46.9939 9.78117 47.5801 10.1573 49.3803 11.607L51.0015 12.8344C51.1765 12.9544 51.4803 13.0555 51.4803 13.3038V16.747H40.3064C40.1223 16.747 40.067 16.6924 40.067 16.5123H40.0666ZM40.0666 13.0691V4.69577H51.4803V11.2692C49.7457 10.1305 48.8352 8.76525 46.8513 8.76525C45.4525 8.76525 44.2891 9.87529 43.2257 10.6886C42.6746 11.1104 42.1765 11.4493 41.6448 11.8777L40.4652 12.7553C40.306 12.8746 40.2282 12.9633 40.067 13.0695L40.0666 13.0691ZM37.9915 1.48728H51.4803V3.13064H39.7474C39.5037 3.13064 39.0269 2.54154 38.8495 2.36764C38.5469 2.07096 38.2214 1.82385 37.9915 1.48728ZM35.2776 0.860994V20.5031C35.2776 21.1081 35.6185 21.442 36.2356 21.442H52.1187C52.6168 21.442 52.9964 21.2181 52.9964 20.7378V0.626283C52.9964 0.24788 52.744 0.000387312 52.3581 0.000387312H35.9962C35.5064 0.000387312 35.278 0.372981 35.278 0.860994H35.2776ZM1.51614 18.2335H13.249C13.4931 18.2335 13.9696 18.8226 14.1469 18.9965C14.4495 19.2932 14.775 19.5407 15.0049 19.8768H1.51614V18.2335ZM14.4464 4.46067C14.4464 4.12642 14.6 4.04663 14.7948 3.86344C14.8066 3.8522 14.8236 3.83632 14.8355 3.8247L15.4027 3.28557C15.5698 3.13645 15.4932 3.19803 15.6354 3.04388L16.1225 2.5826V18.7815C15.8246 18.5677 14.4464 17.1835 14.4464 16.9817V4.46067ZM12.6904 16.7466H1.51614V13.3034C1.51614 13.0586 2.09328 12.7809 2.53532 12.4246L3.6264 11.6163C5.26342 10.3989 5.83069 9.62896 7.54711 10.9121L12.7726 14.8662C12.8836 14.9746 12.9298 14.8643 12.9298 15.1032C12.9298 16.1296 13.0839 16.7466 12.6904 16.7466ZM1.51614 11.2688V4.69538H12.9298V13.0687L10.1836 10.9876C9.98801 10.8498 9.9651 10.818 9.7822 10.6766C8.29451 9.52787 6.69897 8.08397 4.56145 9.09021C3.81483 9.4415 2.37533 10.7045 1.51574 11.2688H1.51614ZM13.249 3.13025H1.51614V1.48689H15.0049C14.7849 1.80913 14.4768 2.04346 14.1868 2.32813C14.0051 2.50629 13.4955 3.13025 13.249 3.13025ZM0 0.625896V20.7375C0 21.2177 0.379627 21.4416 0.877763 21.4416H16.7609C17.3779 21.4416 17.7188 21.1073 17.7188 20.5027V0.860607C17.7188 0.372207 17.4905 0 17.0002 0H0.638373C0.252426 0 0 0.247492 0 0.625896ZM11.8127 49.2219C11.8127 48.5712 12.331 48.2044 12.7706 48.2044H40.227C41.4315 48.2044 41.1846 49.7336 41.1846 50.4737H11.8127V49.2215V49.2219ZM3.83142 36.4666H6.38531V50.4741H3.83142V36.4666ZM17.799 44.6834C17.799 44.3201 18.5235 44.6253 19.6324 44.6857C20.2739 44.7206 21.1694 44.7791 21.8351 44.8736C23.2331 45.0715 24.9523 44.929 26.3538 45.0664C26.7343 45.1036 26.9183 44.9944 27.3738 44.994C28.9176 44.9917 30.3595 45.0235 31.8918 44.8066L35.1986 44.5269V46.7179H17.799V44.6834ZM7.98204 39.2056C8.35455 39.2909 8.6054 39.3834 8.97199 39.4868L15.46 40.8726L18.9837 41.3304C19.2978 41.3618 19.7904 41.4234 20.1182 41.4699C20.5382 41.5295 20.9198 41.5152 21.3689 41.5741L26.4988 41.7875C27.458 41.7875 28.1117 41.7085 29.0527 41.7092C29.5402 41.7096 29.8997 41.7023 30.2718 41.6523C30.5981 41.6085 32.1671 41.5981 32.7486 41.4985C34.0416 41.2766 34.8285 41.3049 36.2806 41.0485C36.6737 40.9791 37.0138 40.9602 37.4104 40.904L42.882 39.7738C43.2715 39.6526 43.5595 39.6104 43.9632 39.5035C44.2962 39.4148 44.63 39.2932 45.0156 39.2053V41.0051C44.7561 41.1275 44.3768 41.1527 44.0667 41.2487C41.305 42.1027 34.8135 43.1589 32.085 43.274C30.2548 43.351 29.2324 43.5095 27.217 43.5095L24.4201 43.5126C22.8191 43.4932 16.6708 42.9262 15.5738 42.6392L9.8778 41.4939C9.38954 41.3947 9.18294 41.3134 8.74761 41.1937C7.82797 40.9408 7.98204 41.5404 7.98204 39.2056ZM35.1986 37.5623V39.6751C34.5879 39.725 33.7702 39.8323 33.1599 39.9454C32.4855 40.0705 31.6967 39.9965 31.0022 40.0996L28.8153 40.2247C27.9616 40.2204 27.3829 40.301 26.4988 40.301C25.6404 40.301 25.0779 40.2192 24.2621 40.2247L19.9176 39.9454C19.2954 39.8308 18.4184 39.7258 17.7986 39.6751V37.5623H35.1986ZM14.9259 35.3713C14.9259 34.6997 15.2439 34.432 16.0435 34.432H36.9549C38.4873 34.432 38.3759 36.0754 37.1943 36.0754H15.8041C15.3059 36.0754 14.9259 35.8515 14.9259 35.3713ZM49.3262 34.9801C48.4417 34.9801 46.4168 35.0281 45.637 34.9189C43.6986 34.6481 43.9427 31.9281 45.7346 31.9281H50.0448C51.8508 31.9281 52.0006 34.6458 50.213 34.9104C49.9247 34.953 49.6912 34.9801 49.3262 34.9801ZM1.51732 33.4932C1.51732 32.5915 2.0597 31.9281 2.95406 31.9281H7.26426C8.13768 31.9281 8.701 32.6651 8.701 33.1802C8.701 33.803 8.72786 34.2047 8.00297 34.6869C7.72171 34.8739 7.77662 34.8619 7.36184 34.9193C6.64999 35.0176 3.56636 35.0184 2.85688 34.9193C2.46382 34.8643 2.40654 34.8294 2.15609 34.6675C1.84441 34.4657 1.51772 34.0044 1.51772 33.4936L1.51732 33.4932ZM23.2271 18.39V15.2597C23.2271 14.4824 23.619 14.0222 24.0437 13.6345C25.0617 12.7046 28.0315 12.7921 28.9263 13.5846C29.4106 14.0137 29.7717 14.5738 29.7717 15.2601V18.3903C29.7717 19.0162 29.3265 19.4876 28.9113 19.7378C28.6276 19.909 28.0789 20.1313 27.8834 20.373C27.0562 21.3932 29.1076 21.9648 30.2457 22.5423C30.4171 22.6295 30.4709 22.6957 30.7059 22.7952L32.2122 23.5094C32.6037 23.6682 33.7729 24.2767 34.0649 24.5885C34.3015 24.8414 34.4801 25.1625 34.595 25.5556C34.7475 26.0777 35.0706 26.3701 34.8411 26.4921C34.7388 26.5464 34.2209 26.4952 33.5786 26.7396C31.9779 27.3481 31.7318 28.9752 31.4822 30.4749C31.3486 31.2754 31.0488 32.1504 31.0488 32.9455H21.95C21.95 32.3111 21.4645 30.2243 21.2792 29.3776C21.1007 28.5627 21.1224 28.1351 20.377 27.3671C19.0979 26.0498 17.8207 26.9507 18.1399 26.1761C19.073 23.9099 19.1654 24.3728 21.7055 23.0803L24.6327 21.6461C24.6998 21.6077 24.7836 21.5578 24.8314 21.528L25.0605 21.361C25.9387 20.4865 24.3372 19.8896 24.0883 19.7382C23.6735 19.4864 23.2279 19.0174 23.2279 18.3903L23.2271 18.39ZM21.6308 15.8856C21.6308 17.3709 21.406 19.0325 22.3818 20.2363C22.6042 20.5109 22.7974 20.5302 22.8282 20.8939C22.5098 20.9199 22.4861 20.9826 22.2518 21.1116L21.1852 21.631C20.488 21.9389 18.5156 22.8789 17.9961 23.3561C17.8725 23.4699 17.7413 23.6373 17.6212 23.7709C17.3084 24.1198 17.2341 24.3824 17.0283 24.8325C16.9248 25.0587 16.8979 25.1536 16.813 25.4038C16.7158 25.6904 16.6558 25.7605 16.555 26.0115C16.4622 26.2423 16.448 26.4007 16.3619 26.6045C16.1489 27.1091 15.9451 27.6215 16.5997 27.9391C17.4474 28.3505 18.862 27.491 19.5537 28.7993C19.6525 28.986 19.7524 29.5143 19.8232 29.7874C20.0989 30.854 20.1858 31.9006 20.4339 32.9447C18.8644 32.9447 17.2898 32.9324 15.7211 32.9413C13.6243 32.9533 12.6016 35.4658 13.9861 36.8407C14.6842 37.534 15.2988 37.5619 16.2837 37.5619V39.44C15.5971 39.4249 14.8363 39.2111 14.1627 39.0937C13.1613 38.9194 10.9657 38.493 10.0003 38.1669L7.98322 37.6405V36.3101C8.98542 36.0812 9.73756 35.4115 10.0508 34.5029C10.4948 33.2151 10.2515 32.1562 9.28209 31.2022C8.70297 30.6325 7.91962 30.3629 6.78627 30.3629C5.66122 30.3629 3.09745 30.2092 2.08222 30.524C0.975336 30.8672 0.0023702 31.9029 0.0023702 33.1016C0.0023702 33.9626 0.112979 34.8038 0.698418 35.3929C1.16614 35.8639 1.4873 36.1389 2.23707 36.3101V50.5527C2.23391 51.2785 2.2351 51.961 2.95564 51.961C8.26291 51.961 7.9848 52.4238 7.98401 50.1611V42.5702C8.61251 42.8661 11.1617 43.3406 12.0098 43.5532L16.2848 44.2918V46.7176H12.9326C11.5681 46.7176 10.2989 47.6165 10.2989 48.9086C10.2989 49.8788 10.1294 51.313 10.5193 51.7441C10.6473 51.8855 10.7666 51.9606 11.0171 51.9606H41.9853C42.3799 51.9606 42.7035 51.643 42.7035 51.2565C42.7035 50.0182 42.9962 48.218 41.9197 47.3299C41.4611 46.9515 40.8934 46.7179 40.0698 46.7179H36.7175V44.2922C37.282 44.2798 39.1912 43.8604 39.9086 43.743L41.9632 43.3313C42.3345 43.2713 44.6601 42.7387 45.018 42.5702V50.0829C45.018 52.4343 44.6964 51.961 50.0463 51.961C50.7365 51.961 50.7696 51.3304 50.7653 50.6313L50.7649 36.3101C51.9543 36.0386 53 35.0324 53 33.7275C53 32.5226 52.7942 31.8153 51.9038 31.0458C51.2255 30.4601 50.3434 30.3625 49.4084 30.3625C48.3113 30.3625 45.7895 30.2053 44.8042 30.5434C43.5907 30.9602 42.7039 32.1353 42.7039 33.4146C42.7039 34.1288 43.0005 34.8027 43.4086 35.3058C43.7207 35.69 44.4013 36.2594 45.0184 36.3097V37.6401L41.0368 38.6665C40.6643 38.7413 40.3262 38.7854 39.9821 38.8842C39.6424 38.9818 39.3046 39.0182 38.9064 39.0817C38.2131 39.1925 37.4396 39.4396 36.7175 39.4396V37.5615C37.6632 37.5615 38.2894 37.5507 38.9747 36.8794C39.2299 36.6296 39.2833 36.563 39.4326 36.2326C40.0998 34.7527 39.0656 32.9769 37.3598 32.9409C35.7809 32.9076 34.1522 32.9444 32.5673 32.9444C32.6447 32.6179 32.6838 32.3216 32.7486 31.9482C32.8375 31.435 33.248 29.2324 33.4214 28.8512C34.0254 27.522 35.4198 28.3164 36.347 27.9635C37.2812 27.608 36.6551 26.6761 36.4608 26.075C36.3936 25.8666 36.3158 25.7582 36.2281 25.5208C36.0124 24.9375 35.8066 24.3611 35.4416 23.8662C34.7388 22.913 33.562 22.4292 32.4535 21.9439C31.9601 21.7278 30.6087 20.9288 30.173 20.8932C30.2204 20.335 31.3704 20.0635 31.3704 17.6847C31.3704 15.1571 31.5142 13.0962 29.1104 11.9187C28.137 11.442 26.8129 11.5024 25.7036 11.5024C23.0893 11.5024 21.6328 13.4219 21.6328 15.8844L21.6308 15.8856Z" fill="white"/>
</svg>
