<svg width="53" height="48" viewBox="0 0 53 48" fill="none" xmlns="http://www.w3.org/2000/svg">
<path id="Vector" fill-rule="evenodd" clip-rule="evenodd" d="M42.6481 26.7054C43.3153 26.7054 43.7189 26.8854 44.1441 27.1721C44.6075 27.4845 44.7769 27.874 45.0293 28.3458H40.4745C40.6666 27.5288 41.6349 26.7054 42.6481 26.7054ZM52.9994 41.2405V42.024C52.891 43.2157 52.1848 43.7852 50.132 44.5739C48.9605 45.0245 47.517 45.4661 45.9607 45.4661C42.1379 45.4661 43.0466 44.806 41.6343 45.6923C38.2808 47.7968 33.219 48.4531 29.3372 47.6792C28.7174 47.5558 28.3851 47.4741 27.8581 47.2986C26.1985 46.7452 26.7515 46.7632 25.064 47.325C21.0271 48.6697 14.8432 47.9511 11.3021 45.6519C10.7485 45.2925 10.7848 45.1447 10.0735 45.2829C9.17916 45.4565 8.01481 45.4661 7.03867 45.4661C4.90857 45.4661 0 44.0057 0 42.2882C0 40.3567 0.299849 38.6829 0.419919 36.8606C0.544532 34.9728 2.06974 35.6773 2.06974 36.1369C2.06974 38.1442 1.71992 40.0854 1.55247 42.0832C2.3988 42.6443 3.36844 43.0898 4.3595 43.4041C7.32035 44.3432 8.14851 43.7235 9.93722 43.7235V38.7002C9.93722 37.936 10.9237 37.5876 11.3683 38.2059C11.5474 38.4553 11.4981 38.4978 11.4975 38.8982L11.4903 43.9292C12.4983 44.196 14.5868 46.3898 20.5994 46.3898C23.2779 46.3898 23.6868 45.925 25.6715 45.4674C25.6715 43.9639 25.6715 42.4598 25.6715 40.9564C25.6715 39.6239 25.2977 37.3684 26.4997 37.3684C27.2921 37.3684 27.3363 38.0003 27.3304 38.8012L27.3278 45.4674C27.7568 45.5664 28.0606 45.7091 28.5091 45.835C35.6659 47.8521 40.8146 44.1131 41.5097 43.9292C41.5097 42.7671 41.5097 41.6056 41.5097 40.4434C41.5097 39.8919 41.474 39.2286 41.5012 38.6925C41.5551 37.6352 43.0621 37.6255 43.0621 38.7009V43.7242C43.7709 43.7242 44.4562 43.9292 45.2357 43.9292C47.556 43.9292 49.6251 43.2916 51.4469 42.0838C51.2944 40.2686 50.5908 32.16 50.3741 31.4594C50.0839 30.5235 49.224 29.8839 48.0311 29.8839H4.96893C3.89739 29.8839 3.09974 30.4149 2.73888 31.1611C2.21317 32.2468 2.83818 33.5748 1.44992 33.5748C0.319969 33.5748 0.609434 30.1835 2.85506 28.8156C4.07912 28.07 6.84072 28.3464 8.3854 28.3464C7.88825 27.6747 6.31501 27.3019 6.31501 26.296C6.31501 25.4854 6.69664 24.8606 7.66044 24.8606H13.4575V21.1698C13.4575 19.2936 14.3824 10.2002 16.6663 10.2002C18.2142 10.2002 18.3012 10.8449 18.7958 12.0893L19.1508 12.8652C19.239 12.4898 19.3338 12.4088 19.5207 12.1041C19.9166 11.4575 20.1386 10.4046 21.1173 10.4046C22.6659 10.4046 22.2557 12.6389 22.2557 13.5825C22.2557 14.9838 22.2557 16.3844 22.2557 17.7856C22.5633 17.929 23.6011 17.6976 23.6011 18.8108V24.8594H25.4645V14.1976C25.4645 13.0966 25.961 12.0116 26.401 11.3322C26.9228 10.5261 27.5602 10.0145 28.363 9.48224C28.363 7.60277 28.363 5.72329 28.363 3.84382C28.363 1.84029 28.0301 0.0508003 30.1225 0.0508003C31.2272 0.0508003 33.6208 -0.319438 34.0907 0.939116C34.31 1.52661 34.1601 7.05898 34.1595 7.94472C34.1588 9.148 33.9356 9.24442 34.6904 9.77663C35.1791 10.1212 35.5659 10.4541 35.9216 10.915C36.5868 11.777 37.1612 12.878 37.1612 14.4033C37.1612 15.1316 37.4396 16.556 36.333 16.556C35.3946 16.556 35.5049 15.1335 35.5049 14.4033H27.0169V21.272C28.1287 21.5285 30.4925 22.7073 31.3648 22.7073C31.4861 22.7073 35.2343 21.4006 35.5055 21.272C35.5055 20.2012 35.2381 18.6064 36.3337 18.6064C36.6654 18.6064 37.1619 18.8121 37.1619 19.2216V28.3458H38.8182C38.8474 27.0358 39.9384 26.0427 40.9561 25.542C42.3067 24.8774 41.9238 25.7817 41.9238 22.6045C40.5355 22.5737 39.3361 21.1788 39.3361 19.7339C39.3361 19.1149 39.475 18.618 39.5606 18.008C39.7047 16.9796 39.8144 15.6034 40.1058 14.6521C40.2525 14.1732 40.6341 13.7876 41.1994 13.7876C44.8586 13.7876 45.141 13.1904 45.607 16.189C45.8134 17.5163 46.0645 18.6746 46.0645 20.0411C46.0645 21.236 44.8002 22.5769 43.5801 22.6039V25.2695C45.2 25.3054 46.3592 26.9574 46.6856 28.3451C47.4223 28.3451 48.6652 28.2866 49.1987 28.4197C50.4948 28.7424 51.4229 29.6815 51.8928 30.8777C52.303 31.9215 52.6028 38.2497 52.8527 39.9736C52.9221 40.4544 52.9753 40.8722 53 41.2398L52.9994 41.2405ZM8.69498 26.5004H27.431C27.2928 26.6874 25.3782 28.3458 24.5325 28.3458H11.5929C10.903 28.3458 10.6388 27.9961 10.0255 27.5404C9.71914 27.3128 8.87022 26.7375 8.69498 26.5004ZM27.0169 23.0146C27.9178 23.0892 30.46 24.3471 31.3648 24.3471C31.8379 24.3471 34.4937 23.2479 35.5055 23.0146V28.3458H27.8458C28.0852 27.991 28.6363 27.6561 29.0302 27.3662C29.2671 27.192 29.4041 27.1026 29.5806 26.886C30.055 26.305 29.9746 25.6127 29.48 25.1891C28.9471 24.7321 27.8471 24.86 27.0176 24.86V23.0146H27.0169ZM22.048 19.8367V24.86H15.8369C16.0497 24.545 16.1964 24.4467 16.5177 24.2018L18.7789 22.2381C19.853 21.3974 20.9291 20.5785 22.0474 19.8367H22.048ZM43.0615 21.067C42.3982 21.067 40.9911 21.1518 40.9911 19.8367C40.9911 18.9908 41.1378 18.413 41.2579 17.6404C41.3773 16.8716 41.4519 16.1099 41.6122 15.4279H43.8896C43.8896 16.063 44.0856 17.0136 44.1849 17.596C44.2531 17.9945 44.2797 18.2323 44.3472 18.6656C44.4536 19.3514 44.8729 21.067 43.0615 21.067ZM17.0797 21.4771L17.8333 19.4555C18.1149 18.7607 18.3499 18.0787 18.6672 17.4109L20.319 14.0235C20.3638 13.9463 20.3839 13.8988 20.4293 13.8255C20.5585 13.6153 20.4657 13.7361 20.5994 13.5838V18.915C20.0042 19.3096 19.4357 19.7281 18.8542 20.1594C18.5011 20.421 17.4633 21.3768 17.0804 21.4777L17.0797 21.4771ZM15.0093 22.5023C15.0093 19.7737 15.4689 15.4273 16.4573 12.9667L16.9765 11.8406L17.917 14.5055C18.0981 15.1747 17.4627 16.2076 17.0447 17.1364C16.3029 18.7845 15.8265 20.1626 15.2839 21.8512L15.1203 22.3043C15.0243 22.5113 15.0859 22.3943 15.01 22.5029L15.0093 22.5023ZM30.0187 9.38004V6.40721H32.6064C32.6064 10.1539 32.2202 9.92126 33.9102 11.1644C34.5391 11.6272 34.8332 12.0887 35.194 12.7636H27.4304C28.6661 10.4503 30.018 10.9863 30.018 9.38068L30.0187 9.38004ZM30.0187 1.69116H32.6064V4.76684H30.0187V1.69116Z" fill="white"/>
</svg>
