<svg width="49" height="52" viewBox="0 0 49 52" fill="none" xmlns="http://www.w3.org/2000/svg">
<g id="Vector">
<path fill-rule="evenodd" clip-rule="evenodd" d="M46.1535 48.9529C41.6628 48.9529 42.1888 49.5092 42.1888 44.5859C42.1888 42.8537 43.7778 43.2655 46.1535 43.2655L46.444 46.1246C46.4924 46.9472 46.1535 48.5173 46.1535 48.9531V48.9529ZM20.3272 0.0001642H28.6705C31.3261 0.0018062 33.8526 2.52671 33.8526 5.17985V10.1564H35.3776C36.3762 10.1564 37.3089 10.9804 37.3089 11.9845C37.3089 13.4508 37.5246 14.2416 36.4957 14.9299C36.963 15.8121 37.2148 16.7806 36.6974 17.7719C36.1966 18.7311 35.1166 19.3986 33.8526 19.3986C33.8526 20.9345 33.788 22.3167 33.1411 23.6642C34.8526 23.6642 45.9533 23.4921 47.0867 23.8492C48.1342 24.1791 49 25.3306 49 26.6096V33.9221C49 35.2186 48.2102 36.165 47.3046 36.5954C46.4947 36.9805 44.4221 36.8673 43.2053 36.8673C43.2382 37.2619 43.2971 37.1319 43.3071 37.5781C45.6268 37.7709 45.2385 39.9912 45.2385 41.7421H46.3569C48.6021 41.7421 48.017 47.7062 47.7027 49.0789C47.3405 50.6621 46.4508 50.4766 45.2385 50.4766C45.2385 51.0168 45.3363 51.9982 44.4275 52H44.4228C43.4805 51.9984 43.6121 51.0951 43.6121 50.4766H43.0022C41.8435 50.4766 40.664 49.2981 40.664 48.1405V44.078C40.664 42.9204 41.8435 41.7421 43.0022 41.7421H43.6121C43.6121 39.1016 43.862 38.8607 42.5943 39.5062C42.2384 39.6873 41.9291 39.7944 41.5438 39.9806L36.3067 42.3656C35.9612 42.5053 35.6113 42.6818 35.2758 42.8591L35.2766 50.3754C35.2816 51.2368 35.3171 51.9979 34.4654 51.9997H34.4596C33.5371 51.9979 33.6467 51.187 33.6492 50.2733L33.6493 42.859C33.2849 42.6664 33.0236 42.56 32.6033 42.3807L27.3815 39.9804C27 39.7958 26.6838 39.682 26.3309 39.5063C26.0714 39.3771 25.6192 39.1724 25.3132 39.1013V49.4606C25.3132 50.5608 25.5811 51.998 24.5017 51.9997H24.4981C23.3831 51.9979 23.6867 50.4992 23.6867 49.359V39.1013C23.009 39.2591 17.4995 41.925 16.3242 42.4099C15.9174 42.5777 15.6914 42.6789 15.3505 42.859L15.3508 50.3749C15.3548 51.2604 15.4276 51.9979 14.5402 51.9995H14.5348C13.6482 51.9979 13.7202 51.1644 13.7237 50.2733L13.724 42.8588L11.5749 41.8575C10.8633 41.5695 10.1878 41.2296 9.48946 40.894L6.33704 39.4724C5.14462 38.8778 5.3877 39.13 5.3877 41.7418H5.99764C7.15638 41.7418 8.33582 42.9201 8.33582 44.0777V48.1401C8.33582 49.2978 7.15638 50.4762 5.99764 50.4762H5.3877C5.3877 51.0948 5.51919 51.9979 4.57708 51.9997H4.57232C3.66341 51.998 3.76137 51.0164 3.76137 50.4762H2.64306C0.397914 50.4762 0.98287 44.512 1.29713 43.1394C1.65937 41.5562 2.54905 41.7418 3.76137 41.7418C3.76137 39.9907 3.37315 37.7706 5.69276 37.5778C5.70262 37.1315 5.76162 37.2614 5.79449 36.867C4.57774 36.867 2.50517 36.9801 1.6952 36.5951C0.789583 36.1647 0 35.2183 0 33.9217V26.6093C0 25.3147 0.899375 24.1205 1.99237 23.8262C3.19679 23.5019 14.1045 23.664 15.859 23.664C15.5801 23.0834 14.7615 20.202 15.1474 19.3984C13.0505 19.3984 11.1219 17.5395 12.5041 14.9297C11.4752 14.2414 11.6909 13.4506 11.6909 11.9843C11.6909 10.9802 12.6236 10.1563 13.6223 10.1563H15.1472V4.97657C15.1472 3.69039 15.9818 2.3653 16.798 1.54775C17.5639 0.780607 18.8422 0.001642 20.3272 0V0.0001642ZM2.84621 43.2654C7.29099 43.2654 6.81089 42.6895 6.81089 47.6324C6.81089 49.3646 5.22186 48.9528 2.84621 48.9528C2.84621 48.4567 2.69895 48.0377 2.65671 47.6186C2.41165 45.1875 2.84621 44.497 2.84621 43.2652V43.2654ZM21.8567 38.1872C21.5766 38.2524 21.2185 38.433 20.9123 38.564C20.5737 38.7092 20.3306 38.8629 20.0256 38.9983L14.5373 41.4372C14.2291 41.4372 7.93232 38.3535 7.21768 38.1872C7.21768 36.4067 8.51612 34.6963 9.63492 34.0004C10.7693 33.2948 13.3521 32.8226 14.7831 32.5421C16.3812 32.229 15.852 32.1372 16.9009 33.1851L21.8569 38.187L21.8567 38.1872ZM44.832 35.2419V25.2888C45.6494 25.2888 47.3735 25.0952 47.3735 26.406V34.1247C47.3735 34.7754 46.7463 35.2419 46.052 35.2419H44.832ZM1.62634 34.1247V26.406C1.62634 25.0952 3.35047 25.2888 4.16783 25.2888V35.2419C3.35047 35.2419 1.62634 35.4355 1.62634 34.1247ZM41.7822 25.2888H43.2053V35.2419C42.3845 35.2419 42.6086 35.2442 42.2435 34.6794C42.1142 34.4794 41.7822 34.147 41.7822 33.9217V25.2888ZM6.20095 35.2419H5.79433V25.2888H7.21752V33.9216C7.21752 33.9787 6.56649 35.2419 6.20095 35.2419ZM17.8672 31.9151C18.1139 31.7839 18.353 31.7502 18.6126 31.6962C18.9788 31.62 19.0943 31.5592 19.4169 31.4842C20.5964 32.2732 23.5719 36.0545 24.3983 36.0545C25.2195 36.0545 25.3755 35.637 25.9486 35.0642C26.6884 34.325 29.1169 31.7958 29.5829 31.4842L31.1078 31.8904C30.6348 32.5962 29.7862 32.7814 29.7862 33.8201C29.7862 34.1071 30.2101 34.4295 30.4979 34.4295C31.296 34.4295 32.5811 32.4152 33.0394 32.2967C33.2221 32.2494 38.15 33.3723 38.9044 33.7498C40.277 34.4368 41.7823 36.1864 41.7823 38.1872C41.2761 38.3049 40.4374 38.7835 39.938 38.9853C39.3458 39.2251 38.6786 39.5375 38.1237 39.8132C37.803 39.9725 34.5538 41.437 34.4627 41.437L28.9874 38.9852C28.6669 38.8556 28.4345 38.7128 28.0877 38.5638C27.7823 38.4328 27.4226 38.2519 27.1433 38.187C27.6121 37.4877 28.7698 36.9209 28.7698 36.1558C28.7698 35.577 28.4519 35.4449 27.9566 35.4449C27.4104 35.4449 27.0253 36.0196 26.7112 36.3335C26.3258 36.7187 25.9109 37.0394 25.6184 37.4762C25.0132 37.186 23.9871 37.186 23.3819 37.4762L17.8675 31.9151H17.8672ZM20.6117 30.3919C20.958 29.7604 21.0434 29.6667 21.0434 28.7419C22.8925 29.1723 22.3662 29.3512 24.8048 29.3512C26.3859 29.3512 26.7866 29.014 27.9562 28.7419C27.9562 29.6665 28.0417 29.7603 28.3629 30.3668L24.5249 34.2511L20.6117 30.3918V30.3919ZM29.4812 28.5388C29.4812 27.316 30.1213 28.0434 31.9738 25.6464C32.1183 25.4595 32.1441 25.2888 32.4293 25.2888H40.1555V32.6012C37.5752 31.2374 30.8513 30.4386 30.0421 29.9082C29.6381 29.6432 29.4812 29.1639 29.4812 28.5389V28.5388ZM8.84418 32.6012V25.2888H16.5704C16.8557 25.2888 16.9967 25.6067 17.2952 25.9866C18.8722 27.9945 19.5187 27.2858 19.5187 28.5388C19.5187 30.0481 18.6865 30.0629 17.6126 30.2908C16.2481 30.5804 11.2594 31.6422 10.1773 32.0032C9.69178 32.1651 9.18506 32.5104 8.84435 32.6012H8.84418ZM33.8526 17.7733V15.3358C35.7255 15.3358 35.6451 16.8791 34.9003 17.4994C34.5847 17.7622 34.3835 17.7732 33.8526 17.7732V17.7733ZM13.6221 16.6563C13.6221 15.5149 14.28 15.3359 15.147 15.3359V17.7735C14.4201 17.7735 13.6221 17.4944 13.6221 16.6564V16.6563ZM13.2155 13.1015C13.2155 12.5955 13.1049 11.7812 13.6221 11.7812H35.3776C35.8946 11.7812 35.7842 12.5955 35.7842 13.1015C35.7842 13.8779 35.2983 13.7183 34.5651 13.7117L22.9692 13.7051C21.2842 13.7063 21.6816 15.3358 22.7717 15.3358H32.3279C32.3279 17.8709 32.6007 20.7293 31.6898 23.0264C31.3489 23.8858 30.7162 24.82 30.1182 25.4173C29.1303 26.4045 27.7291 27.2621 26.2881 27.5833C21.3179 28.6907 16.672 25.093 16.672 19.7028V15.3358C17.6055 15.3358 19.8234 15.5821 19.8234 14.7264C19.8234 13.3117 18.7754 13.7107 16.5702 13.7107C15.9264 13.7107 15.2823 13.7089 14.6385 13.7109C13.8207 13.7135 13.2155 13.9301 13.2155 13.1014V13.1015ZM16.672 5.58592C16.672 3.25017 18.4952 1.52345 20.84 1.52345H28.1595C30.6384 1.52345 32.3277 3.28663 32.3277 5.78903V10.1563H16.672V5.58592Z" fill="white"/>
<path fill-rule="evenodd" clip-rule="evenodd" d="M22.0598 23.5624C22.0598 24.3993 23.8172 24.7719 24.4998 24.7719C25.1823 24.7719 26.9397 24.3993 26.9397 23.5624C26.9397 22.1987 25.422 22.9908 25.3702 23.01C24.0672 23.4909 23.378 22.7499 22.8733 22.7499C22.3815 22.7499 22.0598 23.0711 22.0598 23.5624Z" fill="white"/>
<path fill-rule="evenodd" clip-rule="evenodd" d="M19.5183 17.1642V18.3828C19.5183 19.9191 21.145 19.6475 21.145 18.586C21.145 17.3546 21.375 16.25 20.3316 16.25C19.807 16.25 19.5183 16.6729 19.5183 17.1642Z" fill="white"/>
<path fill-rule="evenodd" clip-rule="evenodd" d="M27.8547 17.0625V18.586C27.8547 19.6475 29.4812 19.9191 29.4812 18.3828C29.4812 17.1157 29.6889 16.25 28.4646 16.25C28.1351 16.25 27.8547 16.6914 27.8547 17.0625Z" fill="white"/>
</g>
</svg>
