<svg width="29" height="29" viewBox="0 0 29 29" fill="none" xmlns="http://www.w3.org/2000/svg">
<path id="&#208;&#154;" fill-rule="evenodd" clip-rule="evenodd" d="M14.5 1.34074C13.7319 0.513476 12.6328 0.0171159 11.4511 0H0V27.2941H11.3979C13.206 27.2941 14.5 29 14.5 29C14.5 29 15.8472 27.2941 17.6021 27.2941H29V0H17.543C16.3672 0.0171159 15.2681 0.513476 14.5 1.34074ZM21.1178 12.6315V13.202H21.9804V12.6315C21.9804 12.4033 21.7855 12.215 21.5491 12.215C21.3128 12.215 21.1178 12.4033 21.1178 12.6315ZM24.1312 13.202V10.7259H18.9729V13.202H20.6155V12.6315C20.6155 12.1352 21.035 11.7244 21.555 11.7244C22.075 11.7244 22.4945 12.1294 22.4945 12.6315V13.202H24.1371H24.1312ZM1.79625 10.5605C2.22759 10.435 3.07844 10.1782 3.89976 9.93862C5.10513 10.4863 6.67094 11.1995 6.61186 11.1995C6.78912 11.7928 7.06683 13.0195 7.10819 13.202H7.63998C7.68134 13.0138 7.92359 11.9069 8.08313 11.3764C8.10085 11.325 8.11267 11.1938 8.22494 11.171C9.07579 11.0569 10.1985 10.7374 10.7302 9.9215C10.9666 9.53925 11.1025 9.15699 11.1557 8.65493C11.2679 7.53669 10.2044 6.21877 10.033 5.37439C10.0212 5.31163 10.0448 4.98072 10.2871 4.82668C10.6534 4.59847 11.0788 4.6384 11.0257 4.43872C10.9725 4.23903 10.1512 4.10781 10.1512 4.10781C10.0566 4.05076 10.033 3.95947 10.0035 3.90813C9.83211 3.58863 9.51304 3.56581 9.18806 3.5601H9.17624C8.85717 3.5601 8.50265 3.74267 8.3313 4.29038C8.15403 4.8495 8.50265 5.56266 8.11267 6.66949C9.1467 6.85206 10.1335 7.49105 10.1925 8.48377C10.228 9.12847 9.80257 9.90439 8.50265 10.1554C8.34311 10.1839 8.17176 10.2011 7.98859 10.2011C6.53504 10.2011 4.52017 9.29392 3.58659 8.83179L1.0163 9.11706V10.4863C1.22311 10.5491 1.424 10.589 1.58945 10.589C1.66626 10.589 1.73716 10.5833 1.80216 10.5605H1.79625ZM22.5536 24.0307C22.1695 24.316 21.165 24.9492 19.871 24.9492C18.5711 24.9492 17.5725 24.316 17.1885 24.0307C16.8044 24.316 15.8058 24.9492 14.5059 24.9492C13.206 24.9492 12.2074 24.316 11.8233 24.0307C11.4393 24.316 10.4407 24.9492 9.14079 24.9492C7.84087 24.9492 6.8423 24.316 6.45823 24.0307C6.07416 24.316 5.07559 24.9492 3.77567 24.9492C2.38121 24.9492 1.32946 24.219 1.0163 23.9736V26.3185H11.3802C12.6033 26.3185 13.7437 26.8491 14.5118 27.7334C15.2799 26.8434 16.4203 26.3185 17.6434 26.3185H28.0073V23.9736C27.6942 24.219 26.6424 24.9492 25.248 24.9492C23.948 24.9492 22.9495 24.316 22.5654 24.0307H22.5536ZM26.3233 18.0744V22.359H24.2907V18.0744C24.2907 17.0931 23.5344 16.2943 22.6068 16.2943C21.6732 16.2943 20.9169 17.0931 20.9169 18.0744V22.359H18.8902V18.0744C18.8902 17.0931 18.1339 16.2943 17.2062 16.2943C16.2785 16.2943 15.5222 17.0931 15.5222 18.0744V22.359H13.4955V18.0744C13.4955 17.0931 12.7392 16.2943 11.8115 16.2943C10.8839 16.2943 10.1275 17.0931 10.1275 18.0744V22.359H8.10085V18.0744C8.10085 17.675 7.97677 17.3099 7.76997 17.0132L7.76406 17.0189C7.44499 16.5682 6.94275 16.2943 6.41096 16.2943C5.48329 16.3 4.73288 17.0931 4.73288 18.0744V22.1137H4.72107V22.359H2.70029V18.0744C2.70029 17.0931 1.94988 16.3 1.02812 16.2943V23.4316L1.0872 23.3689L1.27628 23.5343C1.2881 23.5457 2.35167 24.4586 3.78749 24.4586C5.23513 24.4586 6.29279 23.5457 6.2987 23.5343L6.47005 23.386L6.6414 23.5343C6.65322 23.5457 7.71679 24.4586 9.15261 24.4586C10.6002 24.4586 11.652 23.5457 11.6638 23.5343L11.8352 23.386L12.0065 23.5343C12.0183 23.5457 13.0819 24.4586 14.5177 24.4586C15.9535 24.4586 17.023 23.5457 17.0289 23.5343L17.2003 23.386L17.3716 23.5343C17.3835 23.5457 18.447 24.4586 19.8828 24.4586C21.3246 24.4586 22.3822 23.5457 22.394 23.5343L22.5654 23.386L22.7368 23.5343C22.7486 23.5457 23.8121 24.4586 25.248 24.4586C26.6956 24.4586 27.7473 23.5457 27.7592 23.5343L27.9482 23.3689L28.0073 23.4316V16.2943C27.0856 16.3 26.3352 17.0988 26.3352 18.0744H26.3233ZM1.0163 15.798C2.22168 15.8037 3.20253 16.8192 3.20253 18.0744V21.8684H4.2011V18.0744C4.2011 16.8192 5.18786 15.798 6.39914 15.798H6.41096C6.41687 15.798 6.41687 15.798 6.42278 15.798C6.47596 15.798 6.53504 15.8037 6.58822 15.8094C6.62958 15.8151 6.66504 15.8151 6.7064 15.8208C6.73594 15.8265 6.76548 15.8265 6.79503 15.8322C7.82315 16.0205 8.609 16.9504 8.609 18.0687V21.8627H9.6194V18.0687C9.6194 16.8135 10.6062 15.7922 11.8174 15.7922C13.0287 15.7922 14.0155 16.8135 14.0155 18.0687V21.8627H15.0259V18.0687C15.0259 16.8135 16.0126 15.7922 17.2239 15.7922C18.4352 15.7922 19.422 16.8135 19.422 18.0687V21.8627H20.4264V18.0687C20.4264 16.8135 21.4132 15.7922 22.6245 15.7922C23.8358 15.7922 24.8225 16.8135 24.8225 18.0687V21.8627H25.8329V18.0687C25.8329 16.8192 26.8138 15.8037 28.0191 15.7922V14.1719H1.03403V15.7922L1.0163 15.798ZM6.17461 11.5247C5.93235 11.4049 5.32967 11.1253 3.85839 10.4578C3.10208 10.686 2.33985 10.9085 1.94397 11.0283C1.83761 11.0569 1.71353 11.074 1.58354 11.074C1.39446 11.074 1.19947 11.0397 1.01039 10.9941V13.202H6.58231C6.51141 12.8883 6.32233 12.0667 6.17461 11.5247ZM24.1489 7.95318C23.8062 7.45682 23.3335 7.08027 22.8786 6.71513C22.3763 6.31005 21.8623 5.89927 21.555 5.32874C21.2478 5.89357 20.7337 6.31005 20.2315 6.71513C19.7765 7.08027 19.3097 7.45682 18.967 7.95318C18.2639 8.96872 18.6184 9.83592 18.8665 10.2353H24.2494C24.4976 9.83592 24.8521 8.96872 24.1489 7.95318ZM17.6375 0.98131C16.5621 0.98131 15.5695 1.52902 15.0141 2.41904V13.202H18.4647V10.5491C18.1516 10.0755 17.6434 8.96872 18.5357 7.68503C18.9197 7.13162 19.4161 6.73224 19.9006 6.34428C20.5151 5.84792 21.0528 5.42003 21.2478 4.76392C21.2596 4.71257 21.2655 4.66693 21.2773 4.60988C21.2832 4.59276 21.2891 4.56994 21.3009 4.55282V3.39465H20.8519V2.90399H21.3009V2.45898H21.8091V2.90399H22.2581V3.39465H21.8091V4.55282C21.8209 4.56994 21.8268 4.58705 21.8268 4.60988C21.8386 4.66693 21.8445 4.71257 21.8564 4.76392C22.0513 5.42573 22.5831 5.85363 23.2035 6.34428C23.6821 6.73224 24.1844 7.13162 24.5685 7.68503C25.4607 8.97442 24.9525 10.0755 24.6394 10.5491V13.202H27.9955V0.98131H17.6316H17.6375ZM7.4509 6.93193C7.84087 6.15601 7.81133 5.59119 7.78178 5.08912C7.76406 4.76392 7.74633 4.46154 7.84087 4.15345C8.05359 3.48023 8.54992 3.07515 9.17033 3.07515H9.18806C9.4894 3.07515 10.1098 3.08656 10.4348 3.6628C10.5116 3.67991 10.6062 3.70273 10.7007 3.72556C11.0493 3.82255 11.4156 3.96518 11.5102 4.3075C11.5811 4.56994 11.4688 4.83238 11.2266 4.97502C11.1202 5.03777 11.0079 5.072 10.8898 5.10624C10.7775 5.14047 10.6593 5.1747 10.5648 5.23175C10.553 5.24887 10.5412 5.28881 10.5352 5.32304C10.6002 5.57978 10.7716 5.9278 10.9548 6.29294C11.3211 7.03462 11.7406 7.8733 11.6579 8.70057C11.6047 9.25969 11.4511 9.71611 11.1616 10.1725V10.1839C10.5766 11.0854 9.45986 11.4619 8.54401 11.6217C8.40811 12.1009 8.23085 12.8997 8.16585 13.202H14.0155V2.41904C13.4601 1.52902 12.4674 0.98131 11.392 0.98131H1.02812V8.6207L3.92339 8.3012C5.44193 8.03305 7.16137 7.53099 7.46271 6.93193H7.4509ZM4.46108 8.69487C5.86736 9.32815 7.48044 9.84733 8.4022 9.67047C9.22351 9.51643 9.71393 9.07141 9.68439 8.50659C9.64894 7.91895 9.03443 7.27425 7.91768 7.13161C7.91768 7.13732 7.91769 7.13732 7.91178 7.14303C7.51589 7.93036 5.83782 8.42101 4.46108 8.69487Z" fill="#124285"/>
</svg>
