<svg width="51" height="51" viewBox="0 0 51 51" fill="none" xmlns="http://www.w3.org/2000/svg">
<g id="discount 1" clip-path="url(#clip0_108_9709)">
<g id="&#208;&#161;&#208;&#187;&#208;&#190;&#208;&#185;_x0020_1">
<path id="Vector" fill-rule="evenodd" clip-rule="evenodd" d="M18.7001 3.29383C15.3748 3.29383 12.6452 1.79823 11.1251 5.38777C9.4148 9.42653 9.62455 9.38288 5.46334 11.0948C1.77636 12.6117 3.29367 15.3372 3.29367 18.7002C3.29367 21.3423 0 22.7595 0 25.6066C0 28.1806 3.29367 29.4471 3.29367 32.6191C3.29367 34.7059 2.37659 37.2033 3.68981 38.7041C3.92669 38.975 4.13195 39.1437 4.44009 39.3352C6.13765 40.3906 8.09733 40.7601 9.16872 41.8314C11.0163 43.6791 10.8585 48.0252 14.3438 48.0252C15.8578 48.0252 16.8876 47.7065 18.7001 47.7065C21.3421 47.7065 22.7594 51.0002 25.6064 51.0002C28.1805 51.0002 29.447 47.7065 32.6189 47.7065C35.1184 47.7065 37.8664 48.9225 39.3351 46.5601C40.3904 44.8625 40.7599 42.9028 41.8313 41.8314C43.1631 40.4996 45.9488 40.1704 47.2588 38.7591C48.6423 37.2682 47.7063 34.7852 47.7063 32.3003C47.7063 29.6583 51 28.241 51 25.394C51 22.8199 47.7063 21.5534 47.7063 18.3815C47.7063 16.2946 48.6234 13.7972 47.3102 12.2965C46.0361 10.8403 43.1761 10.514 41.8313 9.16912C39.9837 7.3215 40.1415 2.97532 36.6562 2.97532C35.1422 2.97532 34.1124 3.29407 32.2999 3.29407C29.6579 3.29407 28.2406 0.000396729 25.3936 0.000396729C22.975 0.000396729 21.2347 3.29407 18.6998 3.29407L18.7001 3.29383Z" fill="#00A0E3"/>
</g>
</g>
<defs>
<clipPath id="clip0_108_9709">
<rect width="51" height="51" fill="white"/>
</clipPath>
</defs>
</svg>
