<svg width="30" height="43" viewBox="0 0 30 43" fill="none" xmlns="http://www.w3.org/2000/svg">
<g id="Vector">
<path fill-rule="evenodd" clip-rule="evenodd" d="M6.51629 0.500003H25.6251C27.5218 0.500003 29.0735 2.0534 29.0735 3.95208V38.9332C29.0735 40.8318 27.5218 42.3852 25.6251 42.3852H6.51629C4.61965 42.3852 3.06791 40.8318 3.06791 38.9332V34.4426C1.48324 32.675 0.518772 30.3389 0.518772 27.7768C0.518772 25.2146 1.48324 22.8785 3.06791 21.1109V3.95208C3.06791 2.0534 4.61965 0.500003 6.51629 0.500003Z" fill="white"/>
<path d="M10.5059 17.1921C13.4069 17.1921 16.0335 18.3694 17.9345 20.2724C19.8357 22.1757 21.0116 24.8051 21.0116 27.709C21.0116 30.6131 19.8357 33.2423 17.9345 35.1456C17.217 35.8639 16.3961 36.4786 15.4962 36.9659C15.4002 37.0663 15.2745 37.1338 15.1354 37.1521C13.7387 37.8396 12.1674 38.226 10.5059 38.226C8.9882 38.226 7.54554 37.9036 6.2425 37.3238V38.6042C6.2425 38.8942 6.36161 39.1585 6.55315 39.3502C6.74491 39.5422 7.00888 39.6612 7.29837 39.6612H24.9864C25.2759 39.6612 25.5398 39.542 25.7316 39.35C25.9233 39.158 26.0425 38.894 26.0425 38.604V22.6804H25.3415L23.2287 23.9154C22.9298 24.0901 22.5459 23.989 22.3713 23.6898C22.3039 23.574 22.2778 23.4458 22.288 23.3218V21.5762C22.2865 21.5581 22.2856 21.5397 22.2856 21.5214V18.2421C22.2856 17.9226 22.4156 17.6328 22.6253 17.4229C22.8347 17.2132 23.1244 17.0829 23.4436 17.0829H26.0425V5.06449C26.0425 4.77469 25.9233 4.51044 25.7316 4.31847C25.54 4.12651 25.2761 4.00749 24.9864 4.00749H23.0609V5.18941C23.0609 5.60697 22.8897 5.98784 22.6135 6.26541L22.6098 6.26912C22.3327 6.54473 21.9527 6.71551 21.5365 6.71551H10.7487C10.3309 6.71551 9.95004 6.54364 9.67277 6.2665L9.67168 6.26759C9.39571 5.99133 9.22424 5.60959 9.22424 5.18919V4.00727H7.29881C7.0091 4.00727 6.74513 4.12629 6.55337 4.31825C6.36183 4.51022 6.24272 4.77425 6.24272 5.06449V18.0938C7.54576 17.514 8.9882 17.1921 10.5059 17.1921ZM14.5832 4.00792C14.2507 4.00792 13.9813 3.73821 13.9813 3.40539C13.9813 3.07256 14.2507 2.80285 14.5832 2.80285H20.1521C20.4845 2.80285 20.7539 3.07256 20.7539 3.40539C20.7539 3.73821 20.4845 4.00792 20.1521 4.00792H14.5832ZM12.1329 4.00792C11.8004 4.00792 11.531 3.73821 11.531 3.40539C11.531 3.07256 11.8004 2.80285 12.1329 2.80285H12.7374C13.0699 2.80285 13.3393 3.07256 13.3393 3.40539C13.3393 3.73821 13.0699 4.00792 12.7374 4.00792H12.1329ZM21.8572 3.40539C21.8572 3.07256 22.1266 2.80285 22.459 2.80285H24.9864C25.6083 2.80285 26.1733 3.05728 26.5826 3.46697C26.9921 3.87667 27.246 4.44252 27.246 5.06493V17.0833H28.3647V3.85199C28.3647 3.12476 28.0669 2.46304 27.5876 1.98302C27.1081 1.503 26.4473 1.20512 25.7207 1.20512H6.56406C5.83761 1.20512 5.1766 1.50322 4.69709 1.98302C4.21759 2.46304 3.92002 3.12454 3.92002 3.85199V19.5146C4.27474 19.2285 4.64823 18.9654 5.03872 18.7267V5.06493C5.03872 4.4423 5.29287 3.87645 5.70191 3.46676C6.11117 3.05706 6.67619 2.80285 7.29837 2.80285H9.8257C10.1582 2.80285 10.4276 3.07256 10.4276 3.40539V5.18963C10.4276 5.27742 10.4638 5.35757 10.5223 5.4161L10.5212 5.41719L10.5223 5.41828C10.5792 5.47528 10.6593 5.51066 10.7485 5.51066H21.5362C21.6255 5.51066 21.7055 5.47528 21.7625 5.41828L21.7649 5.41588C21.8218 5.35888 21.8572 5.27873 21.8572 5.18941V3.40539ZM5.03872 36.6916C4.64844 36.4529 4.27474 36.1897 3.92002 35.9036V39.1484C3.92002 39.8757 4.21759 40.5374 4.69709 41.0174C5.1766 41.4974 5.83739 41.7953 6.56406 41.7953H25.7207C26.4471 41.7953 27.1081 41.4972 27.5876 41.0174C28.0671 40.5374 28.3647 39.8759 28.3647 39.1484V22.681H27.246V38.6046C27.246 39.2273 26.9919 39.7929 26.5826 40.2026C26.1733 40.6123 25.6083 40.8667 24.9864 40.8667H7.29837C6.67663 40.8667 6.11139 40.6123 5.70213 40.2026C5.29287 39.7929 5.03872 39.2273 5.03872 38.6046V36.6916ZM2.71625 34.7662C2.63313 34.6743 2.55154 34.5808 2.47148 34.4861L2.4706 34.4854C2.38421 34.4208 2.31768 34.3369 2.27296 34.243C0.849931 32.4487 0 30.1783 0 27.7094C0 24.9938 1.02838 22.5186 2.71625 20.6524V3.85243C2.71625 2.79259 3.14885 1.82949 3.84607 1.13152C4.54308 0.433772 5.50514 0.000488281 6.56406 0.000488281H25.7207C26.7794 0.000488281 27.7417 0.433772 28.4387 1.13152C29.1357 1.82928 29.5685 2.79237 29.5685 3.85243V17.3408C29.6006 17.3668 29.6313 17.3945 29.6606 17.4235C29.87 17.6332 30.0002 17.9232 30.0002 18.2427V21.5221C30.0002 21.8416 29.8702 22.1314 29.6606 22.3412C29.6313 22.3705 29.6006 22.398 29.5685 22.424V39.1487C29.5685 40.2085 29.1357 41.1718 28.4387 41.8696C27.7417 42.5673 26.7796 43.0006 25.7207 43.0006H6.56406C5.50536 43.0006 4.54308 42.5673 3.84607 41.8696C3.14907 41.1718 2.71625 40.2087 2.71625 39.1487V34.7662ZM23.5396 21.5218C23.5396 21.5404 23.5387 21.5587 23.5372 21.5767V22.2823L24.84 21.5207C24.9364 21.4605 25.0501 21.4255 25.1722 21.4255H28.746V18.339H23.5396V21.5218ZM2.85783 32.9309C3.1194 32.697 3.42067 32.5064 3.76186 32.3587C4.32819 32.1137 5.00556 31.9912 5.79397 31.9918V31.9892H7.06516V29.471C7.03222 29.4727 6.99928 29.4736 6.9659 29.4736C6.45171 29.4736 5.98115 29.2602 5.63778 28.9165C5.28458 28.5629 5.06534 28.0726 5.06534 27.531V26.8014C5.05181 25.4207 5.1814 24.2526 5.45387 23.2969C5.75667 22.2357 6.23727 21.4279 6.89522 20.8734L6.92031 20.8533L6.91965 20.8525C7.38411 20.4989 7.91902 20.2362 8.52375 20.0639C9.1036 19.8988 9.75261 19.8173 10.4706 19.8191L10.5436 19.8173C11.6185 19.7981 12.451 20.0156 13.0409 20.4701C13.6524 20.9411 13.9859 21.6284 14.0411 22.5314C14.085 22.567 14.1268 22.604 14.167 22.6422C14.5653 23.0237 14.7667 23.5153 14.7708 24.1167C14.8042 24.6776 14.7276 25.136 14.5409 25.4917C14.4083 25.7442 14.232 25.9377 14.0121 26.0718V28.6979H14.0099C14.0245 29.4528 13.7802 30.0534 13.2767 30.4991C12.9331 30.8034 12.4747 31.0169 11.9021 31.1399V31.9883H12.3297C12.3478 31.9883 12.3655 31.9892 12.3831 31.9907C12.4564 31.991 12.5243 31.9925 12.5862 31.9953C13.6035 32.0442 14.3801 32.4236 14.9163 33.1329C15.3422 33.6964 15.5928 34.4522 15.6685 35.4009C16.1657 35.0659 16.6289 34.6837 17.0512 34.2609C18.7262 32.5841 19.7622 30.2674 19.7622 27.7084C19.7622 25.1495 18.7262 22.8326 17.0512 21.1558C15.3762 19.479 13.062 18.4419 10.5057 18.4419C7.94956 18.4419 5.63516 19.479 3.96017 21.1558C2.28517 22.8326 1.24915 25.1493 1.24915 27.7084C1.24915 29.6452 1.84275 31.4441 2.85783 32.9309ZM8.31934 31.989H10.6479V30.5664C10.6479 30.2019 10.9221 29.9056 11.2629 29.8986C11.827 29.8352 12.2322 29.6946 12.478 29.4771C12.6741 29.3035 12.7684 29.049 12.7603 28.7143L12.7601 28.6985H12.7579V26.2716L8.81258 26.2558C8.84771 26.4028 8.86625 26.5564 8.86625 26.714V27.531C8.86625 27.9503 8.7347 28.3388 8.51153 28.657C8.65835 28.7464 8.80669 28.8254 8.95657 28.894C9.32721 29.0639 9.70549 29.1702 10.0908 29.2131C10.4343 29.2504 10.6846 29.5775 10.6494 29.9436C10.6143 30.3096 10.3072 30.5758 9.96357 30.5385C9.44545 30.4808 8.94479 30.3415 8.46201 30.1202C8.41445 30.0984 8.36689 30.0759 8.31955 30.0523L8.31934 31.989ZM14.4432 36.0978C14.4436 36.0595 14.4436 36.0222 14.4434 35.9859C14.4366 35.0748 14.2691 34.4022 13.9414 33.9685C13.6414 33.5714 13.1718 33.3574 12.5326 33.3266C12.4802 33.324 12.4307 33.3227 12.384 33.3223C12.3661 33.324 12.348 33.3249 12.3297 33.3249H5.79376V33.3223C5.1742 33.3218 4.65346 33.4129 4.23199 33.5952C4.0158 33.6889 3.82665 33.8077 3.66478 33.9517C3.76099 34.0571 3.85938 34.1604 3.96017 34.2615C5.63516 35.9383 7.94935 36.9755 10.5057 36.9755C11.9139 36.9755 13.2485 36.6608 14.4432 36.0978ZM7.09789 24.776C7.30797 24.0479 7.64327 23.4164 8.09136 22.9357C8.66947 22.3157 9.42298 21.9494 10.3277 21.9442H10.3301V21.9416H12.5289C12.5635 21.9416 12.5976 21.9446 12.6309 21.9503C12.5511 21.7889 12.4427 21.6557 12.3057 21.5502C11.9394 21.2681 11.3591 21.134 10.5652 21.148C10.5378 21.149 10.5094 21.1497 10.4819 21.1497C9.87587 21.1475 9.3307 21.2152 8.84727 21.3528C8.38587 21.4841 7.98534 21.6791 7.64567 21.9372C7.20478 22.3192 6.87275 22.901 6.64958 23.6828C6.54901 24.0351 6.47113 24.4258 6.41572 24.8549C6.59024 24.8003 6.77502 24.771 6.96568 24.771C7.01019 24.771 7.05426 24.7728 7.09789 24.776ZM8.37017 24.9232L13.3146 24.9431C13.3788 24.925 13.4233 24.8922 13.4479 24.8451C13.5147 24.7177 13.5391 24.5026 13.521 24.1999H13.5223C13.5215 24.1844 13.521 24.1687 13.521 24.153C13.5232 23.9318 13.4591 23.7586 13.3288 23.6339C13.1582 23.4705 12.8772 23.3517 12.4861 23.2775H10.3301V23.2748C9.78315 23.2786 9.32765 23.5002 8.97838 23.8748C8.7227 24.1491 8.51829 24.5061 8.37017 24.9232ZM6.96568 26.1071C6.7796 26.1071 6.61336 26.1807 6.49512 26.2989C6.38692 26.4072 6.31951 26.5544 6.31951 26.7138V27.5308C6.31951 27.6902 6.3867 27.8374 6.49512 27.9457C6.61336 28.0641 6.77982 28.1375 6.96568 28.1375C7.15177 28.1375 7.318 28.0641 7.43624 27.9457C7.54445 27.8374 7.61186 27.6902 7.61186 27.5308V26.7138C7.61186 26.5544 7.54467 26.4072 7.43624 26.2989C7.318 26.1805 7.15155 26.1071 6.96568 26.1071Z" fill="#124285"/>
</g>
</svg>
