<svg width="27" height="43" viewBox="0 0 27 43" fill="none" xmlns="http://www.w3.org/2000/svg">
<g id="Vector">
<path d="M22.9647 0.499678H3.75045C1.83547 0.499678 0.283073 2.72912 0.283073 5.47928V37.4053C0.283073 40.1554 1.83547 42.3849 3.75045 42.3849H22.9647C24.8797 42.3849 26.4321 40.1554 26.4321 37.4053V5.47928C26.4321 2.72912 24.8797 0.499678 22.9647 0.499678Z" fill="white"/>
<path d="M7.2513 6.47441V16.4194C7.2513 16.7522 6.98034 17.0219 6.64609 17.0219H3.54549V18.6098H6.64609C6.98034 18.6098 7.2513 18.8795 7.2513 19.2123V21.158C7.32982 21.0673 7.41148 20.9796 7.4964 20.8951C7.84902 20.544 8.25566 20.2468 8.70259 20.0163V19.2122C8.70259 18.8778 8.97491 18.6066 9.31079 18.6066H16.4678C16.8037 18.6066 17.076 18.8778 17.076 19.2122V33.4212C17.076 33.7556 16.8037 34.0267 16.4678 34.0267H9.31079C8.97491 34.0267 8.70259 33.7556 8.70259 33.4212V30.4126C8.1227 29.7851 7.63889 29.1409 7.25116 28.4798V33.4213C7.25116 33.7541 6.9802 34.0239 6.64596 34.0239H3.54535V36.1103H23.4542V34.0239H19.5289C19.1981 34.0239 18.9298 33.7541 18.9298 33.4213V28.6431C18.9298 28.3103 19.1981 28.0405 19.5289 28.0405H23.4542V25.2631H19.5289C19.1947 25.2631 18.9237 24.9933 18.9237 24.6606V19.2123C18.9237 18.8795 19.1947 18.6098 19.5289 18.6098H23.4542V16.4327H19.5289C19.1947 16.4327 18.9237 16.1629 18.9237 15.8301V10.3819C18.9237 10.0491 19.1947 9.77933 19.5289 9.77933H23.4542V9.13683H19.5289C19.1947 9.13683 18.9237 8.86706 18.9237 8.53429V6.71518H17.0758V15.83C17.0758 16.1644 16.8035 16.4355 16.4676 16.4355H9.31065C8.97478 16.4355 8.70246 16.1644 8.70246 15.83V6.71518H8.07616C7.77281 6.71518 7.48973 6.6267 7.2513 6.47441ZM11.9322 4.00723C11.598 4.00723 11.327 3.73747 11.327 3.4047C11.327 3.07193 11.598 2.80216 11.9322 2.80216H17.5316C17.8659 2.80216 18.1368 3.07193 18.1368 3.4047C18.1368 3.73747 17.8659 4.00723 17.5316 4.00723H11.9322ZM9.46825 4.00723C9.13401 4.00723 8.86305 3.73747 8.86305 3.4047C8.86305 3.07193 9.13401 2.80216 9.46825 2.80216H10.076C10.4103 2.80216 10.6812 3.07193 10.6812 3.4047C10.6812 3.73747 10.4103 4.00723 10.076 4.00723H9.46825ZM20.1343 6.12064V7.93176H23.4544V5.06434C23.4544 4.77452 23.3346 4.51018 23.1419 4.31832C22.9492 4.12646 22.684 4.00723 22.3927 4.00723H20.4565V5.18899C20.4565 5.53816 20.3361 5.86171 20.1343 6.12064ZM19.2461 3.4047C19.2461 3.07193 19.5171 2.80216 19.8513 2.80216H22.3926C23.0181 2.80216 23.5861 3.05662 23.9975 3.46621C24.4092 3.87594 24.6646 4.44175 24.6646 5.06421V38.6035C24.6646 39.2261 24.4091 39.7918 23.9975 40.2014C23.586 40.6111 23.0178 40.8655 22.3926 40.8655H4.60715C3.98194 40.8655 3.41362 40.6112 3.00207 40.2015C2.59066 39.7919 2.33508 39.2262 2.33508 38.6035V5.06407C2.33508 4.44135 2.59053 3.87567 3.00194 3.46594C3.41348 3.05635 3.98167 2.80203 4.60715 2.80203H7.14841C7.48266 2.80203 7.75362 3.07179 7.75362 3.40456V5.18886C7.75362 5.27652 7.79009 5.35673 7.84888 5.41527C7.90767 5.4738 7.98824 5.51011 8.07629 5.51011H18.9234C19.0115 5.51011 19.0921 5.4738 19.1508 5.41527L19.1521 5.41648L19.1533 5.41527C19.2106 5.35822 19.2461 5.27815 19.2461 5.18886V3.4047ZM15.8596 6.71518H9.91885V15.2245H15.8596V6.71518ZM3.54535 15.8167H6.04075V4.0071H4.60715C4.31578 4.0071 4.05039 4.12619 3.85769 4.31805C3.66498 4.50991 3.54535 4.77412 3.54535 5.06421V15.8167ZM3.54535 37.315V38.6035C3.54535 38.8936 3.66498 39.1577 3.85769 39.3495C4.05039 39.5414 4.31578 39.6606 4.60701 39.6606H22.3924C22.6835 39.6606 22.9489 39.5414 23.1416 39.3495C23.3345 39.1577 23.4541 38.8935 23.4541 38.6036V37.3151L3.54535 37.315ZM23.4542 32.8185V29.2452H20.128V32.8185H23.4542ZM9.91885 31.5833V32.8156H15.8596V19.8175H12.7285C13.3493 20.0632 13.9075 20.4324 14.3719 20.8948C15.2518 21.7708 15.796 22.9809 15.796 24.3175C15.796 24.338 15.7949 24.358 15.793 24.3779C15.7734 25.7973 15.3876 27.154 14.6356 28.448C13.8903 29.7301 12.784 30.9492 11.3167 32.1049C11.2824 32.1329 11.2455 32.1569 11.2068 32.1764L11.2048 32.1775L11.1984 32.1806L11.1966 32.1814L11.1866 32.1862L11.1834 32.1875L11.1729 32.1922L11.1704 32.1932C11.0989 32.2236 11.0232 32.2394 10.9477 32.2411H10.9466L10.9361 32.2412H10.9322L10.9217 32.2411H10.9206C10.8451 32.2394 10.7694 32.2236 10.698 32.1932L10.6954 32.1922L10.6849 32.1875L10.6818 32.1862L10.6717 32.1814L10.67 32.1806L10.6636 32.1775L10.6615 32.1764C10.6227 32.1569 10.5858 32.1331 10.5517 32.1049C10.3327 31.9324 10.1218 31.7586 9.91885 31.5833ZM10.9341 22.1029C11.5483 22.1029 12.1044 22.3508 12.5069 22.7516C12.9095 23.1524 13.1585 23.7062 13.1585 24.3175C13.1585 24.929 12.9095 25.4826 12.5069 25.8834C12.1044 26.2842 11.5482 26.5321 10.9341 26.5321C10.3199 26.5321 9.76384 26.2842 9.36128 25.8834C8.95872 25.4826 8.70967 24.9288 8.70967 24.3175C8.70967 23.706 8.95872 23.1524 9.36128 22.7516C9.76384 22.3508 10.3201 22.1029 10.9341 22.1029ZM7.28233 24.434L7.2826 24.4538C7.31417 25.6278 7.64583 26.7585 8.27757 27.8454C8.88604 28.8924 9.77174 29.9 10.9341 30.8684C12.0966 29.9002 12.9822 28.8924 13.5906 27.8454C14.2384 26.731 14.5706 25.5705 14.5875 24.3644C14.5863 24.3489 14.5857 24.3332 14.5857 24.3175C14.5857 23.3135 14.1771 22.4046 13.5163 21.7468C12.8556 21.089 11.9426 20.6821 10.9342 20.6821C9.92579 20.6821 9.01288 21.089 8.35215 21.7468C7.69142 22.4046 7.28274 23.3135 7.28274 24.3175C7.28274 24.3963 7.28124 24.3539 7.28069 24.3487L7.28151 24.3972L7.28233 24.434ZM26.9999 39.1475C26.9999 40.2075 26.5648 41.1705 25.8639 41.8683C25.163 42.5661 24.1957 42.9993 23.131 42.9993H3.86885C2.80433 42.9993 1.83684 42.5661 1.13597 41.8683C0.435089 41.1705 0 40.2073 0 39.1475V3.85128C0 2.79133 0.435089 1.82825 1.13597 1.13046C1.83684 0.43268 2.80433 -0.000488281 3.86885 -0.000488281H23.131C24.1957 -0.000488281 25.163 0.43268 25.8639 1.13046C26.5648 1.82825 26.9999 2.79146 26.9999 3.85128V39.1475ZM25.7895 39.1475V3.85128C25.7895 3.12396 25.4902 2.46235 25.008 1.98244C24.5258 1.50239 23.8613 1.20444 23.1309 1.20444H3.86871C3.13816 1.20444 2.47362 1.50239 1.99158 1.98244C1.50954 2.46249 1.21027 3.12409 1.21027 3.85128V39.1475C1.21027 39.8748 1.50954 40.5364 1.99158 41.0163C2.47376 41.4964 3.1383 41.7943 3.86871 41.7943H23.1309C23.8614 41.7943 24.526 41.4964 25.008 41.0163C25.49 40.5364 25.7895 39.8748 25.7895 39.1475ZM11.6512 23.6036C11.4677 23.4209 11.2142 23.3079 10.9341 23.3079C10.654 23.3079 10.4005 23.4209 10.217 23.6036C10.0336 23.7862 9.92008 24.0386 9.92008 24.3175C9.92008 24.5963 10.0336 24.8488 10.217 25.0314C10.4005 25.214 10.654 25.327 10.9341 25.327C11.2142 25.327 11.4677 25.214 11.6512 25.0314C11.8346 24.8488 11.9481 24.5963 11.9481 24.3175C11.9481 24.0386 11.8346 23.7862 11.6512 23.6036ZM23.4542 10.9841H20.1341V15.2273H23.4542V10.9841ZM23.4542 19.8144H20.1341V24.0576H23.4542V19.8144ZM6.04075 19.8144H3.54535V32.8184H6.04075V19.8144Z" fill="#124285"/>
</g>
</svg>
