<svg width="33" height="43" viewBox="0 0 33 43" fill="none" xmlns="http://www.w3.org/2000/svg">
<g id="Vector">
<path fill-rule="evenodd" clip-rule="evenodd" d="M3.93647 0.502461H23.4859C25.4265 0.502461 27.014 2.05581 27.014 3.95469V14.3149H30.7319C31.5591 14.3149 32.2357 14.977 32.2357 15.7864V20.9698C32.2357 21.7792 31.5591 22.4413 30.7319 22.4413H27.014V38.9357C27.014 40.8342 25.4265 42.388 23.4859 42.388H3.93647C1.99586 42.388 0.40838 40.8346 0.40838 38.9357V3.95469C0.40838 2.0562 1.99586 0.502461 3.93647 0.502461Z" fill="white"/>
<path d="M26.2401 22.3346C26.2401 22.002 26.5159 21.7321 26.8559 21.7321C27.1958 21.7321 27.4716 22.002 27.4716 22.3346V39.1484C27.4716 40.2081 27.0288 41.1714 26.3158 41.8692C25.6027 42.5669 24.6182 43.0002 23.5352 43.0002H3.93647C2.85346 43.0002 1.86894 42.5669 1.15588 41.8692C0.442813 41.1714 0 40.2081 0 39.1484V3.85232C0 2.7926 0.442813 1.82925 1.15588 1.13151C1.86894 0.43378 2.85346 0.000488281 3.93647 0.000488281H23.5352C24.6182 0.000488281 25.6027 0.43378 26.3158 1.13151C27.0288 1.82925 27.4716 2.7926 27.4716 3.85232V14.3332C27.4716 14.6658 27.1958 14.9357 26.8559 14.9357C26.5159 14.9357 26.2401 14.6658 26.2401 14.3332V3.85232C26.2401 3.1252 25.9354 2.46351 25.4449 1.9836C24.9545 1.50369 24.2783 1.20556 23.5352 1.20556H3.93647C3.19338 1.20556 2.51715 1.50369 2.02669 1.9836C1.53623 2.46351 1.23155 3.1252 1.23155 3.85232V39.1484C1.23155 39.8755 1.53623 40.5372 2.02669 41.0171C2.51715 41.497 3.19338 41.7951 3.93647 41.7951H23.5352C24.2783 41.7951 24.9545 41.497 25.4449 41.0171C25.9354 40.5372 26.2401 39.8755 26.2401 39.1484V22.3346Z" fill="#124285"/>
<path d="M20.198 3.53002C19.8581 3.53002 19.5823 3.26009 19.5823 2.92748C19.5823 2.59488 19.8581 2.32495 20.198 2.32495H22.7837C23.4199 2.32495 23.998 2.57921 24.4168 2.98899C24.8356 3.39878 25.0954 3.96449 25.0954 4.587V14.3325C25.0954 14.6651 24.8196 14.9351 24.4796 14.9351C24.1397 14.9351 23.8639 14.6651 23.8639 14.3325V4.587C23.8639 4.29709 23.7422 4.03304 23.546 3.84108C23.3498 3.64912 23.0799 3.53002 22.7837 3.53002H20.198ZM23.8639 22.3343C23.8639 22.0017 24.1397 21.7318 24.4796 21.7318C24.8196 21.7318 25.0954 22.0017 25.0954 22.3343V38.4127C25.0954 39.0353 24.8356 39.601 24.4168 40.0108C23.998 40.4205 23.4199 40.6748 22.7837 40.6748H4.68757C4.05138 40.6748 3.47324 40.4205 3.05445 40.0108C2.63566 39.601 2.37582 39.0357 2.37582 38.4127V4.587C2.37582 3.96409 2.63566 3.39878 3.05445 2.98899C3.47324 2.57921 4.05138 2.32495 4.68757 2.32495H7.27319C7.6131 2.32495 7.88896 2.59488 7.88896 2.92748C7.88896 3.26009 7.6131 3.53002 7.27319 3.53002H4.68757C4.3909 3.53002 4.12105 3.64912 3.92486 3.84108C3.72868 4.03304 3.60697 4.29709 3.60697 4.58739V38.4131C3.60697 38.703 3.72868 38.9675 3.92486 39.1591C4.12105 39.351 4.3909 39.4701 4.68717 39.4701H22.7833C23.0795 39.4701 23.3494 39.351 23.5456 39.1591C23.7418 38.9671 23.8635 38.703 23.8635 38.4131L23.8639 22.3343Z" fill="#124285"/>
<path d="M19.5823 2.92748C19.5823 2.59488 19.8581 2.32495 20.198 2.32495C20.538 2.32495 20.8138 2.59488 20.8138 2.92748V5.18953C20.8138 5.60716 20.6385 5.98795 20.3562 6.26571L20.3522 6.26963C20.0687 6.54504 19.68 6.71624 19.254 6.71624H8.21727C7.79007 6.71624 7.40011 6.54426 7.11624 6.26728L7.11504 6.26845C6.83278 5.99226 6.65741 5.61029 6.65741 5.18993V2.92788C6.65741 2.59527 6.93327 2.32495 7.27319 2.32495C7.6131 2.32495 7.88896 2.59488 7.88896 2.92748L7.88896 5.18993C7.88896 5.27768 7.9262 5.35799 7.98585 5.41637L7.98465 5.41754L7.98585 5.41872C8.04431 5.47591 8.12598 5.51117 8.21727 5.51117H19.254C19.3453 5.51117 19.4269 5.47591 19.4854 5.41872L19.4878 5.41637C19.5462 5.35917 19.5823 5.27925 19.5823 5.18993L19.5823 2.92748Z" fill="#124285"/>
<path d="M9.63379 4.41266C9.29387 4.41266 9.01802 4.14274 9.01802 3.81013C9.01802 3.47752 9.29387 3.2076 9.63379 3.2076H10.2524C10.5923 3.2076 10.8681 3.47752 10.8681 3.81013C10.8681 4.14274 10.5923 4.41266 10.2524 4.41266H9.63379Z" fill="#124285"/>
<path d="M12.1405 4.41266C11.8006 4.41266 11.5248 4.14274 11.5248 3.81013C11.5248 3.47752 11.8006 3.2076 12.1405 3.2076H17.8378C18.1778 3.2076 18.4536 3.47752 18.4536 3.81013C18.4536 4.14274 18.1778 4.41266 17.8378 4.41266H12.1405Z" fill="#124285"/>
<path d="M8.59642 13.7269H30.8027C31.4269 13.7269 31.9879 13.9702 32.3882 14.3619C32.7654 14.731 32.9996 15.2356 32.9996 15.786V20.8809C32.9996 21.4313 32.7654 21.9359 32.3882 22.305C31.9879 22.6967 31.4269 22.94 30.8027 22.94H8.59642C7.97224 22.94 7.41132 22.6967 7.01094 22.305C6.63379 21.9359 6.39957 21.4313 6.39957 20.8809V15.786C6.39957 15.2356 6.63379 14.731 7.01094 14.3619C7.41132 13.9702 7.97224 13.7269 8.59642 13.7269ZM30.8027 14.9382H8.59642C8.40384 14.9382 8.22167 15.022 8.08354 15.1568C7.92219 15.3147 7.8225 15.5368 7.8225 15.786V20.8809C7.8225 21.1297 7.92259 21.3522 8.08354 21.5101C8.22167 21.6452 8.40344 21.7291 8.59642 21.7291H30.8027C30.9953 21.7291 31.1775 21.6452 31.3156 21.5101C31.477 21.3522 31.5771 21.13 31.5771 20.8809V15.786C31.5771 15.5372 31.477 15.3147 31.316 15.1568C31.1779 15.022 30.9957 14.9382 30.8027 14.9382Z" fill="#124285"/>
<path d="M15.7595 16.1707C15.7595 15.8361 16.0782 15.565 16.471 15.565C16.8637 15.565 17.1824 15.8361 17.1824 16.1707V20.4966C17.1824 20.8311 16.8637 21.1022 16.471 21.1022C16.0782 21.1022 15.7595 20.8311 15.7595 20.4966V16.1707Z" fill="#124285"/>
<path d="M10.3396 18.2725C10.5883 18.0151 11.0351 17.9779 11.3374 18.1898C11.6397 18.4014 11.6833 18.7818 11.4347 19.0392L9.82597 20.6995C9.57734 20.9569 9.13052 20.9941 8.82824 20.7822C8.52596 20.5706 8.48232 20.1902 8.73095 19.9328L10.3396 18.2725Z" fill="#124285"/>
<path d="M11.8643 15.5407C12.4857 15.5407 13.0418 15.7813 13.4389 16.1699C13.8129 16.5358 14.0443 17.0357 14.0443 17.5834C14.0443 18.1307 13.8129 18.631 13.4389 18.9969C13.0418 19.3855 12.4853 19.6261 11.8643 19.6261C11.2429 19.6261 10.6868 19.3855 10.2896 18.9969C9.91565 18.631 9.68424 18.1311 9.68424 17.5834C9.68424 17.0357 9.91565 16.5358 10.2896 16.1699C10.6868 15.7813 11.2429 15.5407 11.8643 15.5407ZM12.3663 16.9648C12.2322 16.8336 12.054 16.7521 11.8643 16.7521C11.6745 16.7521 11.4967 16.8332 11.3622 16.9648C11.2049 17.1188 11.1072 17.3374 11.1072 17.5834C11.1072 17.8294 11.2045 18.0476 11.3622 18.202C11.4963 18.3332 11.6745 18.4147 11.8643 18.4147C12.054 18.4147 12.2318 18.3336 12.3663 18.202C12.5237 18.048 12.6214 17.8294 12.6214 17.5834C12.6214 17.3374 12.5241 17.1192 12.3663 16.9648Z" fill="#124285"/>
</g>
</svg>
