<svg width="97" height="88" viewBox="0 0 97 88" fill="none" xmlns="http://www.w3.org/2000/svg">
<path id="Vector" fill-rule="evenodd" clip-rule="evenodd" d="M61.2208 80.6401C62.8988 78.4928 63.2047 80.0834 63.6091 75.4325C66.7529 75.9074 66.9948 75.5667 69.8207 75.4622C69.8871 77.2879 69.9298 78.4939 71.2094 79.7308L72.1652 80.7018C67.5035 82.1346 67.0873 83.1187 61.222 80.6401H61.2208ZM17.0756 17.1579C17.8262 16.7246 26.5187 18.4149 28.1077 18.6714C33.2129 19.4964 31.5954 19.1402 32.6437 20.6407C33.5141 21.8859 34.8221 22.5269 36.965 22.5696C40.3886 22.6385 39.6854 25.2642 38.3406 25.6856C37.3563 25.9943 36.3388 25.504 35.4625 26.0952C34.6929 26.6139 34.8814 27.7119 34.7557 28.6449C34.2659 32.2999 32.065 34.966 29.7241 36.3703C22.7974 40.5261 15.2932 36.064 13.7516 29.8083C13.1171 27.2371 14.1915 25.8506 11.2055 25.7913C10.1501 25.7699 9.38164 25.7901 8.99861 24.8048C8.60134 23.7828 9.24171 23.0243 9.84176 22.7655C11.6953 21.9654 12.861 23.2356 15.0145 21.4265C16.9961 19.7623 15.7936 17.8974 17.0768 17.1567L17.0756 17.1579ZM10.4383 19.7065C9.86548 15.2799 10.4039 11.5752 13.3306 9.78391C15.2019 8.6384 17.2416 9.32689 18.2353 8.19207C19.069 7.24006 19.139 7.35758 20.7245 7.3647C26.221 7.38963 31.7898 6.53732 35.204 9.19632C38.069 11.428 37.9113 15.1233 37.9113 19.7065C35.3249 19.6839 35.2467 20.0068 34.6063 17.8345C34.1924 16.4302 33.0006 16.6225 31.306 16.3459C28.5714 15.8996 25.8913 15.4188 23.1615 14.9856C20.4932 14.5618 17.059 13.3641 15.094 15.0093C12.2597 17.3822 15.4521 19.9249 10.4394 19.7065H10.4383ZM10.6351 28.8444C11.3763 31.4298 11.3739 32.5124 12.7981 34.6562C13.1219 35.1441 13.3555 35.4729 13.6116 35.7779C16.0474 38.2969 18.514 39.821 21.0127 40.3505C23.752 40.9297 25.0754 41.0318 28.2856 40.1368C30.0193 39.4269 31.7519 38.4049 33.4845 37.0694C33.5509 37.0065 33.6196 36.9401 33.6908 36.87C35.8799 34.693 37.1595 31.9782 37.6314 28.6556C42.1781 28.3565 42.9987 24.1662 41.6764 22.0034C41.1665 21.1689 40.8025 21.2734 40.7266 20.2157C40.538 17.6006 41.1345 14.709 40.2119 11.79C39.3106 8.9411 37.1583 6.732 34.7213 5.56038C31.6879 4.1015 27.6251 4.52528 23.975 4.52528C19.0844 4.52528 19.1781 4.0101 16.5004 5.79067C15.8138 6.24768 14.8046 6.18002 14.0504 6.38776C11.1687 7.18308 8.97726 9.45035 8.0594 12.0892C7.0941 14.8621 7.77597 18.0387 7.54592 20.2288C7.43326 21.3019 6.98737 21.2045 6.49286 22.2242C5.23347 24.8203 6.29245 27.6276 9.92358 28.6046C9.98525 28.6212 10.0434 28.6355 10.1038 28.6533L10.6339 28.8432L10.6351 28.8444ZM36.1183 61.3802C36.3116 59.716 35.8016 59.2174 34.1402 59.405C32.4456 61.2936 34.2458 63.0658 36.1183 61.3802ZM25.0387 59.3979C23.7176 60.8496 24.4742 62.4628 26.0728 62.064C27.4069 61.7304 27.8717 59.113 25.0387 59.3979ZM71.9268 59.3979C69.0772 59.1058 69.5646 61.7221 70.8963 62.0604C72.4759 62.4616 73.2538 60.8496 71.9268 59.3979ZM61.1757 59.4928C61.1828 59.8371 60.3954 60.3273 60.9362 61.4182C61.7058 62.9721 64.9539 61.7648 62.8253 59.405L61.1769 59.4928H61.1757ZM66.8062 29.4842C66.8062 30.2059 66.9936 31.2695 67.2438 31.4761C67.2545 31.4844 69.6333 32.6892 69.6333 29.4842C69.6333 26.6851 66.8062 26.5712 66.8062 29.4842ZM18.2235 24.9342V25.1503C18.2235 27.8947 21.0494 27.9553 21.0494 25.1503V24.9342C21.0494 22.0271 18.2235 22.0996 18.2235 24.9342ZM75.9161 29.4842V29.7014C75.9161 32.5361 78.742 32.4554 78.742 29.7014V29.4842C78.742 26.6602 75.9161 26.5973 75.9161 29.4842ZM28.3935 22.934C27.3084 23.308 27.2491 24.0107 27.3179 25.3663C27.3748 26.4762 27.8705 27.3997 29.1631 27.0911C30.802 26.6994 30.5755 22.1815 28.3923 22.934H28.3935ZM69.7329 34.8663C66.5192 36.2029 71.8746 39.7474 75.8686 37.4018C77.4245 36.4878 76.6501 34.1362 74.4907 34.9233C71.6754 35.9489 71.0338 34.325 69.7318 34.8663H69.7329ZM21.1597 30.257C20.3509 30.606 19.1686 32.4067 22.3408 33.3374C23.9524 33.8098 26.0645 33.6306 27.3405 32.7984C28.8667 31.8025 27.9109 29.6528 25.9589 30.3234C23.1164 31.3016 22.1855 29.8154 21.1597 30.257ZM26.4095 66.0715C23.7603 68.1535 30.1794 71.3348 33.9635 68.4586C34.5565 68.0087 35.1897 66.7944 34.2209 66.0525C33.1145 65.2049 32.3128 66.1878 31.6155 66.5475C28.9485 67.9209 28.0555 64.7776 26.4095 66.0703V66.0715ZM70.5571 65.91C68.1949 65.3616 67.73 67.9363 65.2148 66.4679C64.4523 66.0228 63.5214 65.2251 62.6213 66.1629C60.8982 67.9612 65.082 70.492 68.4854 69.432C70.301 68.867 71.8972 67.6882 70.5559 65.9088L70.5571 65.91ZM94.1358 58.2963C94.1358 66.392 95.0133 65.3782 87.9277 65.3782C87.7677 64.2303 88.1863 62.0794 87.4783 61.2853C86.379 60.0519 85.0259 61.0775 85.0259 62.8451V79.7427C85.0259 82.6083 87.853 82.7424 87.853 79.7427V68.207L92.6167 68.2248C92.6167 70.7674 92.6309 73.3089 92.6131 75.8456C92.6048 77.06 92.3973 78.4263 93.6128 78.7634C95.0026 79.1492 95.4094 78.1271 95.4509 76.9401C95.5363 74.4971 95.458 71.8073 95.4426 69.343C95.413 64.6755 96.9629 67.5208 96.9629 63.0611C96.9629 58.3449 97.5748 54.3683 93.8286 51.682C92.8242 50.9615 88.0368 49.2735 86.564 49.2498C85.0153 49.226 84.4697 51.0173 85.6912 51.809C87.7985 53.1753 94.1358 52.1806 94.1358 58.2951V58.2963ZM4.35118 65.1954L9.11482 65.1717C9.11482 69.6682 9.13498 74.1671 9.11364 78.6613C9.10889 79.6062 8.92627 80.8918 9.52632 81.4865C10.1762 82.1299 11.3775 81.8889 11.7558 81.1138C12.1601 80.2852 11.9419 62.8439 11.9419 61.112C11.9419 59.3349 12.5278 55.5767 10.041 56.3851C8.42109 56.9122 9.27966 60.6205 9.04011 62.3441C2.10158 62.3441 2.84868 63.2368 2.83089 56.3448C2.81904 51.3912 4.21006 50.7894 8.43057 49.6367C9.45161 49.3578 12.4092 48.6978 13.1634 48.2871C14.5852 47.5119 14.3943 45.0191 11.0751 45.9628C1.29756 48.7417 0.0215687 48.4153 0.00259475 59.5973C0.00140888 60.611 -0.0460259 61.3791 0.321594 62.3085C1.55846 65.4376 1.52407 61.0194 1.52407 70.4279C1.52407 72.4519 1.50865 74.4805 1.51458 76.5044C1.52407 79.8139 3.95154 79.1076 4.28121 77.7485C4.65358 76.2124 4.35118 67.4567 4.35118 65.1954ZM57.4936 24.6351C57.5517 15.8296 64.1321 8.85919 72.9455 8.94466C81.0521 9.02419 88.6535 16.1821 88.0167 24.6481C86.8427 24.3989 84.2954 24.444 83.7487 23.8599C82.6186 22.6503 84.3037 21.6841 81.2288 21.1582C78.2226 20.6442 75.1832 20.1742 72.1367 19.6471C69.3203 19.1592 65.4828 17.9342 63.5202 19.8406C61.841 21.4704 62.798 22.0556 61.9904 23.5098C61.3441 24.6731 59.1977 24.2968 57.4936 24.6363V24.6351ZM67.0564 6.97891C68.1202 1.96125 76.9359 1.23596 78.5108 6.95279C71.8592 6.13017 75.0955 5.43099 67.0564 6.97891ZM59.2095 33.2673C59.5843 34.4971 59.8143 36.946 60.6017 37.5098C61.2504 37.9752 62.3236 37.8422 62.6889 37.1656C63.1359 36.3358 62.696 35.5156 62.4719 34.7535C61.9975 33.1427 62.3948 30.9977 61.0856 30.5407C59.1811 29.8759 57.2742 31.1366 57.5861 28.1048C58.3237 26.6792 61.2777 27.5279 63.0138 26.481C65.3879 25.0494 64.5021 22.7964 65.58 21.8752C66.4789 21.2912 71.5592 22.4307 73.0273 22.6848C74.7468 22.9827 79.3539 23.5442 80.5457 24.0178C81.2892 25.1681 81.6628 26.0512 82.8842 26.6744C84.5065 27.5018 86.2011 26.8573 87.2767 27.4805C88.5302 28.2069 88.2088 30.0136 86.7644 30.3496C84.7034 30.8291 83.7203 29.667 83.4807 32.2904C82.7965 39.7854 76.7142 40.8478 79.6207 42.5275C80.9359 43.2872 82.3945 41.4876 82.8534 40.9274C84.918 38.4108 85.1789 37.7461 86.1181 34.0175C86.545 32.3224 87.3751 33.9238 89.2927 32.2097C90.2046 31.3942 90.8367 30.359 90.8889 28.6271C91.1189 20.9778 90.3671 17.1697 86.4964 12.4536C83.3527 8.62297 82.0755 9.88837 81.5513 7.20563C81.0177 4.47542 79.2211 2.3601 77.3273 1.26445C71.6351 -2.0308 65.6559 1.64074 64.2258 6.24175C63.4312 8.79984 64.5139 7.99146 62.4019 9.40405C59.5143 11.3354 57.0109 14.5547 55.7231 18.098C54.5621 21.2924 54.6949 23.765 54.6937 27.3178C54.6926 31.0558 55.4812 32.9338 59.2095 33.2685V33.2673ZM24.8027 80.6924C25.7585 79.2097 26.9586 79.9137 27.1472 75.4717C29.9731 75.5738 30.2506 75.8931 33.3576 75.4266C33.7536 80.0941 34.1319 78.5248 35.7447 80.6449C29.9601 83.051 29.5402 82.207 24.8027 80.6912V80.6924ZM36.5084 55.7964C39.4328 60.7084 39.9605 58.1752 42.9797 59.2554C44.5059 59.8015 44.2296 61.7862 42.9026 62.2242C41.4025 62.7192 39.7968 61.6141 39.4838 63.7615C38.962 67.338 38.4378 68.7316 36.3554 70.6345C34.7462 72.1052 32.0021 73.3184 28.9449 72.8709C26.1 72.4542 23.9809 70.7852 22.7642 69.0961C19.9655 65.2097 22.278 62.591 19.4924 62.3548C17.9175 62.2207 16.3024 62.3845 16.5396 60.5208C16.7495 58.8756 18.5211 59.2151 20.0829 59.0501C23.9643 58.6393 23.975 55.4699 24.1362 53.3487L36.5084 55.7975V55.7964ZM18.0776 56.2367C17.5511 52.158 18.4026 49.5157 20.5632 47.4644C23.1615 44.9978 25.9305 45.4192 30.0881 45.4192C34.3584 45.4192 36.9626 45.0144 39.8336 47.2496C42.2741 49.1489 42.5172 52.1509 42.5172 56.2652C37.6089 56.2652 40.4052 54.2805 38.4746 53.37C37.8888 53.0934 22.814 49.9822 22.0799 50.3312C19.5647 52.3634 23.8493 56.5691 18.0776 56.2367ZM18.3373 65.2595C19.286 72.2358 24.09 73.5416 24.2975 74.5446C24.2975 78.355 24.109 77.7449 20.8858 78.761C18.5603 79.4946 16.9416 79.675 15.4723 81.1399C14.3979 82.2106 13.0531 84.6939 13.7611 87.0039C14.0646 87.9951 15.445 88.3073 16.147 87.4585C17.1538 86.2394 15.4474 83.5187 18.8484 82.3554C23.5018 80.7636 21.021 83.1258 27.044 84.5206C31.3866 85.526 36.7088 84.2606 38.9062 81.6646C39.7921 81.693 42.0286 82.3697 42.6334 82.7804C43.6806 83.489 43.9438 84.5313 44.0387 86.2311C44.2095 89.3139 48.3482 88.3928 46.4685 83.2671C44.9815 79.2121 41.2614 79.6062 37.3741 78.0666C35.944 77.4992 36.1942 76.1911 36.2535 74.3274C36.812 73.7327 37.6374 73.3077 38.2623 72.7557C40.4004 70.8707 41.8354 68.2936 42.1959 65.1907C46.1851 64.8583 47.5512 61.6901 46.5705 59.1331C45.6823 56.8184 45.3254 58.6999 45.3443 55.0473C45.3692 50.1436 44.3838 46.4032 39.9237 43.9009C36.9591 42.2379 33.8793 42.588 30.0881 42.588C26.4463 42.588 23.4579 42.2925 20.5253 43.9579C13.2357 48.0971 15.7901 55.9151 15.0347 57.5283C14.8177 57.9912 14.284 58.2167 13.9259 59.2435C13.3875 60.7891 13.7729 62.3429 14.5805 63.4113C15.5031 64.6328 16.4056 64.85 18.3361 65.2571L18.3373 65.2595ZM60.5259 53.643C62.9474 54.1452 66.2323 55.4723 68.6657 56.2913C71.8746 57.3728 73.8906 57.7799 75.1915 60.3807C76.4806 62.959 75.7702 66.4917 74.3673 68.6082C70.8346 73.9392 64.1238 74.1909 60.393 70.4208C56.8224 66.8145 58.0082 64.1627 57.241 62.9638C56.3919 61.6366 54.0439 62.9792 53.2102 61.5666C52.0516 59.602 54.1838 59.1142 55.6282 59.0869C59.0826 59.0216 60.5176 57.0641 60.527 53.6419L60.5259 53.643ZM53.0466 56.5394C53.1711 47.8526 63.8617 40.5807 72.8779 45.3598C80.937 49.632 80.4722 56.0504 80.4722 63.0611C80.4722 66.2733 81.3379 68.6034 77.7648 68.3898C78.589 64.4416 79.6753 62.2159 77.3522 58.4292C75.5983 55.5696 73.4257 54.861 69.612 53.6086C67.7419 52.9937 61.4449 50.476 59.7622 50.9033C57.3536 51.5158 57.7984 54.4075 57.5932 55.0853C57.107 56.7021 54.9214 56.1311 53.0466 56.5371V56.5394ZM54.7732 65.1907C55.5416 71.7907 60.4772 73.7647 60.7132 74.3274C60.8781 78.6969 59.9839 77.974 56.1073 79.1373C53.0916 80.0419 51.5939 80.5404 50.5503 83.1127C48.5047 88.1565 52.6635 89.3436 52.9232 86.4246C53.0833 84.6286 53.0632 83.7395 54.2087 82.8694C54.8598 82.3756 57.1153 81.693 58.0628 81.6646C60.2614 84.2583 65.5765 85.5165 69.9262 84.5182C75.9955 83.127 73.3653 80.7909 78.1242 82.3519C81.4849 83.4534 79.8034 86.2276 80.8232 87.4585C81.5264 88.3073 82.9008 87.9915 83.2068 87.0015C83.9219 84.6927 82.5617 82.2058 81.498 81.1399C80.031 79.6691 78.4064 79.4911 76.0916 78.7527C72.5446 77.6203 72.6134 78.2292 72.6822 74.0318C74.2049 73.3884 75.3611 71.4619 76.4082 71.2743C78.7705 70.8505 79.865 71.7824 81.7589 70.162C84.1614 68.1072 83.304 62.242 83.2993 58.5123C83.2898 50.2849 78.8784 44.7354 73.0913 42.3316C62.7102 38.0215 50.9084 45.1948 50.1519 56.5537C49.8388 61.2532 49.9111 64.7847 54.7732 65.1907Z" fill="#7EC1BE"/>
</svg>
