<svg width="18" height="20" viewBox="0 0 18 20" fill="none" xmlns="http://www.w3.org/2000/svg">
<path id="Vector" fill-rule="evenodd" clip-rule="evenodd" d="M9.97737 10.4757L12.0017 12.3864C12.1133 12.4852 12.6032 12.9331 12.6568 13.0609L3.57873 18.2607C3.13925 18.5186 2.73705 18.8345 2.08688 18.6995L9.97737 10.4757ZM1.22058 17.7985C1.154 17.2966 1.20055 6.99823 1.20055 5.97759C1.20055 5.23355 1.11357 2.61077 1.25278 2.08641C1.40875 2.18549 2.03335 2.83472 2.2414 3.01738C2.66388 3.38832 3.29804 4.0653 3.72576 4.44074L9.10301 9.61752L1.22058 17.7985ZM13.0889 7.23117C13.337 7.31418 14.6188 8.10343 14.9832 8.30314C15.4581 8.56336 16.5003 9.05295 16.7087 9.55342C16.8811 9.96764 16.7961 10.424 16.5483 10.7111C16.3057 10.9923 15.1191 11.6367 14.7209 11.8554C14.4893 11.9826 13.9872 12.3172 13.7659 12.3801C13.6382 12.2555 13.5074 12.1646 13.389 12.034C13.093 11.7077 12.1371 10.862 11.9253 10.6285L10.8561 9.58213L13.0889 7.23117ZM9.97723 8.71255L7.52188 6.38641C7.36663 6.21004 7.21037 6.11851 7.03389 5.91794C6.76691 5.61452 5.37115 4.37685 5.09949 4.06475C4.83529 3.76125 3.93278 2.97634 3.64089 2.65427C3.44116 2.43387 2.29296 1.41712 2.21671 1.2646C2.81164 1.22747 3.19799 1.51414 3.60296 1.75593C4.42408 2.2462 11.8805 6.48364 11.9956 6.60549L9.97723 8.71255ZM2.04939 0.03678C1.35822 0.164405 0.864121 0.474083 0.52895 0.903331C0.113004 1.43602 -0.000822528 1.91048 0.000133636 2.77412L5.19637e-06 17.3069C-0.00107941 18.1236 0.167562 18.6777 0.562672 19.143C0.88156 19.5186 1.43088 19.8917 2.07958 19.978C2.86104 20.0819 3.36852 19.8009 3.90624 19.5001C4.40496 19.2211 4.92063 18.928 5.40535 18.6391C6.39705 18.048 7.41025 17.5046 8.39971 16.9144C8.89371 16.6197 9.39878 16.3492 9.89685 16.052C10.3809 15.7631 10.8976 15.4695 11.396 15.1911L15.8958 12.6097C16.8853 12.0428 18.0239 11.5471 17.9996 9.96149C17.9758 8.40825 16.8365 7.94317 15.8475 7.36567L5.35774 1.33543C4.85549 1.04918 4.37599 0.758019 3.85707 0.475466C3.31697 0.181379 2.80799 -0.1033 2.04939 0.03678Z" fill="white"/>
</svg>
