<svg width="23" height="25" viewBox="0 0 23 25" fill="none" xmlns="http://www.w3.org/2000/svg">
<g id="Vector">
<path fill-rule="evenodd" clip-rule="evenodd" d="M0.438663 24.6169L11.3262 14.0086C11.596 13.7452 11.8412 13.5057 12.1109 13.2423C12.3071 13.0508 12.7485 12.6676 12.8711 12.4761C12.724 12.2126 2.54752 2.37069 1.24787 1.10153C0.978137 0.838123 0.732922 0.574713 0.463185 0.335249C0.291534 0.622605 0.0463185 0.814176 0.0217969 1.48467C-0.0272462 2.53831 0.0217969 5.02873 0.0217969 6.17816V21.887C0.0217969 22.4138 -0.00272462 22.9406 0.0217969 23.4435C0.0217969 23.6829 0.0953616 23.8985 0.168926 24.09C0.340577 24.4971 0.365099 24.4013 0.487706 24.6408L0.438663 24.6169Z" fill="#00D2FF"/>
<path fill-rule="evenodd" clip-rule="evenodd" d="M0.438663 24.6169C0.536749 24.7126 0.732922 24.8324 0.880051 24.9042C1.00266 24.9521 1.12527 24.9761 1.29692 25H1.6157C2.32682 24.9521 4.09237 23.8027 4.8035 23.4435L9.38903 20.8812C10.4925 20.2347 11.8657 19.5402 12.9692 18.8937C13.3125 18.7021 13.6313 18.5105 13.9991 18.319L16.0344 17.1695C16.4022 16.978 16.6964 16.7864 17.0888 16.6188C17.0152 16.4033 14.3424 13.8889 13.9746 13.5057C13.7048 13.2423 13.1163 12.7395 12.9447 12.4761H12.8956C12.773 12.6916 12.3316 13.0508 12.1354 13.2423C11.8657 13.5057 11.6205 13.7452 11.3507 14.0086L0.463185 24.6169L0.438663 24.6169Z" fill="#F92E49"/>
<path fill-rule="evenodd" clip-rule="evenodd" d="M0.438663 0.335249C0.732922 0.550766 0.953615 0.838123 1.22335 1.10153C2.52299 2.37069 12.6994 12.2366 12.8466 12.4761L12.8956 12.4761C13.0427 12.2605 15.6175 9.79406 16.0344 9.38697C16.4022 9.02778 16.721 8.66858 17.0888 8.35728C16.9417 8.26149 16.7455 8.16571 16.5738 8.09387L15.029 7.25575C14.6612 7.06418 14.3424 6.8726 13.9991 6.68103C12.0128 5.5795 9.80589 4.40613 7.86869 3.28065L4.8035 1.58046C4.43567 1.38889 4.11689 1.22126 3.77359 1.02969C3.28316 0.742337 2.13065 0.0478927 1.6157 0C1.59118 0 1.59118 0 1.56665 0H1.19883C0.880051 0.0239464 0.610314 0.143678 0.38962 0.383142L0.438663 0.335249Z" fill="#00EB6D"/>
<path fill-rule="evenodd" clip-rule="evenodd" d="M12.9201 12.4761C13.1163 12.7395 13.6803 13.2423 13.95 13.5057C14.3424 13.8889 16.9907 16.4033 17.0643 16.6188L20.2766 14.8228C20.5463 14.6791 20.8161 14.5354 21.0613 14.3678C21.7969 13.9368 22.974 13.4579 22.9985 12.5C23.0475 11.5182 21.895 11.0153 21.1839 10.6082L17.0888 8.33333C16.721 8.64464 16.3777 9.00383 16.0344 9.36303C15.6175 9.77011 13.0427 12.2366 12.8956 12.4521L12.9201 12.4761Z" fill="#FFCB00"/>
</g>
</svg>
