<svg width="10" height="10" viewBox="0 0 10 10" fill="none" xmlns="http://www.w3.org/2000/svg">
<path fill-rule="evenodd" clip-rule="evenodd" d="M0.861034 5.61167C0.839193 3.94667 1.10911 3.18534 1.93107 2.2121C3.47039 0.389167 6.5266 0.386539 8.06672 2.2119C8.88488 3.1817 9.1604 3.95051 9.13636 5.61086C8.90031 5.48792 8.92876 5.34718 8.64142 5.25295C7.93327 5.02081 7.37661 4.93669 6.93477 5.59631C6.57449 6.13439 6.70714 7.83923 6.71175 8.63817C6.71496 9.17281 6.88648 9.53093 7.21431 9.77803C7.77798 10.2029 8.65905 9.94789 9.0003 9.58998C9.14537 9.43791 9.26961 9.32548 9.40547 9.16634C9.64512 8.88588 9.85612 8.57225 9.93608 8.08775C10.0429 7.44128 9.98998 5.54656 9.96132 4.81739C9.92365 3.85608 9.61607 2.98172 9.18144 2.30997C6.4761 -1.87034 0.185551 0.00658387 0.0344635 4.86612C0.0124216 5.57224 -0.0458892 7.5252 0.068929 8.12961C0.202383 8.83168 0.618573 9.20517 1.04538 9.63931C1.29285 9.89107 2.23605 10.2542 2.83759 9.73435C3.14958 9.46481 3.28504 9.11619 3.28604 8.58903C3.28764 7.77938 3.43232 6.11599 3.04298 5.56739C2.88047 5.33849 2.44364 4.98987 1.96072 5.07925C1.06422 5.24527 1.1081 5.48529 0.861034 5.61147V5.61167Z" fill="#124285"/>
</svg>
