<svg width="51" height="45" viewBox="0 0 51 45" fill="none" xmlns="http://www.w3.org/2000/svg">
<path id="2 Hotel" fill-rule="evenodd" clip-rule="evenodd" d="M44.6254 40.1218H47.7135V43.4071H44.6254V40.1218ZM27.4924 5.37678C26.0719 5.37678 26.1911 6.94096 27.4924 6.96944C27.6074 8.34878 29.0859 8.31824 29.0859 6.96944C30.7271 6.93268 30.1899 5.37678 29.4843 5.37678H29.0859C29.0859 4.87661 28.9746 4.28169 28.2892 4.28169C27.7727 4.28169 27.5049 4.82018 27.4924 5.37678ZM21.1173 1.49401V1.99159C20.4117 1.99159 19.6232 1.88441 19.6232 2.78792C19.6232 3.68004 20.5868 3.58426 21.1173 3.58426C21.1173 4.51055 21.1074 5.07751 22.1135 5.07751C22.7994 5.07751 22.7113 3.96171 22.7113 3.58426C25.2648 3.58426 24.1308 1.99159 23.6081 1.99159H22.7113C22.7113 1.53958 22.873 0.398928 21.9146 0.398928C21.4105 0.398928 21.1178 0.937928 21.1178 1.49401H21.1173ZM34.0665 3.68419C34.7855 3.51695 35.4802 2.863 35.66 2.09152H35.8595C36.0651 2.86145 36.6826 3.47863 37.453 3.68419C37.1592 4.12274 36.8785 4.0254 36.4765 4.40078C36.1915 4.6664 35.9579 5.05369 35.8595 5.47619C35.4595 5.2085 35.4559 4.78134 35.1217 4.42149C34.8099 4.08598 34.3571 4.07976 34.0665 3.68419ZM31.9746 3.68419C31.9746 4.89939 33.3713 4.95946 33.9375 5.50519C34.3126 5.86659 34.6705 6.96478 35.0565 7.27389C35.4704 7.60578 35.9517 7.65342 36.42 7.33033C36.8178 7.05591 37.1478 6.04885 37.4975 5.62013C37.9285 5.092 39.5449 4.8181 39.5449 3.88301C39.5449 2.2831 37.927 2.89717 37.252 1.49557C37.1302 1.24238 37.0536 1.11035 36.8997 0.851978C36.5138 0.203211 36.421 0.000244141 35.66 0.000244141C34.6902 0.000244141 34.4685 1.50696 33.9769 2.00195C33.8546 2.12518 33.0822 2.49279 32.8263 2.64398C32.4698 2.85472 31.9746 3.18505 31.9746 3.68419ZM51 44.0325V44.396C50.9119 44.7206 50.6001 45.0002 50.2032 45.0002H0.796762C0.432572 45.0002 0 44.7253 0 44.4027C0 43.3672 0.624251 43.4071 1.69351 43.4071V40.0219C0.846494 39.8246 0 39.0604 0 38.0305V32.5551C0 31.2938 1.0532 30.8708 1.69351 30.5638C1.69351 27.862 1.85721 26.9611 3.50979 25.4099C4.01904 24.932 4.36717 24.8843 4.98054 24.5902L4.9738 19.6056C4.99297 18.2289 6.47459 18.5768 6.47459 19.5124V24.291H8.26757V18.9149C8.26757 17.3409 9.68806 15.9284 11.2557 15.9284H21.3162C22.8849 15.9284 24.3043 17.2456 24.3043 18.8155V24.291H26.6951V18.8155C26.6951 17.2431 28.1001 15.9284 29.6833 15.9284H39.7438C41.3119 15.9284 42.7319 17.3409 42.7319 18.9149V24.291H44.5249V13.3396C44.5249 11.8059 43.2178 10.5519 42.0346 10.5519H17.5303C16.8579 10.5519 16.7035 12.7421 15.5379 12.7421C14.4324 12.7421 14.4448 12.1295 13.8283 11.0655C13.6869 10.8211 13.6398 10.5519 13.3465 10.5519H8.96383C8.2598 10.5519 7.71999 10.9444 7.34285 11.3213C6.86469 11.7992 6.69787 11.9918 6.52795 12.7964C6.32281 13.7693 6.93048 16.7242 5.87573 16.7242C5.40275 16.7242 4.97898 16.6921 4.97898 16.0273C4.97898 13.7999 4.68266 12.462 5.64157 10.9154C6.95068 8.8039 9.0664 8.95872 11.1547 8.95872C11.0718 8.78578 10.9552 8.51706 10.9552 8.2618C10.9552 7.69122 11.5644 7.31946 11.9841 7.09992C13.9718 6.05765 13.2445 6.5138 14.1842 4.91855C14.4427 4.48 14.7111 3.88146 15.3379 3.88146C16.8739 3.88146 16.6709 5.9163 17.7246 6.47394C18.5737 6.92336 19.6367 7.3324 19.846 8.04641C19.9584 8.42956 19.8149 8.55486 19.7206 8.95872C26.7267 8.95872 33.7323 8.95872 40.7385 8.95872C41.8792 8.95872 42.2693 8.90591 43.1697 9.21709C43.9094 9.47287 44.2596 9.73641 44.7487 10.2278C46.0448 11.531 46.0184 12.3677 46.0184 14.1359C46.0184 17.6205 46.0184 21.1051 46.0184 24.5892C46.7157 24.9237 46.9442 24.9335 47.5368 25.4611C49.1666 26.9109 49.3055 28.0831 49.3055 30.5627C49.9551 30.8744 50.999 31.3016 50.999 32.5541V38.0295C50.999 39.0588 50.153 39.8236 49.3055 40.0208V43.406H49.7038C50.5203 43.406 50.9026 43.6975 50.999 44.0315L51 44.0325ZM3.28651 40.1218H6.37461V43.4071H3.28651V40.1218ZM1.49354 37.7323V36.3385H49.5059C49.5059 38.8807 49.9157 38.5286 46.0195 38.5286C36.6728 38.5286 27.035 38.612 17.7277 38.526C15.6824 38.5069 16.2124 40.1218 17.2324 40.1218H43.1313V43.4071H7.86919V40.1218H13.547C14.0298 40.1218 14.4438 39.792 14.4438 39.3255C14.4438 38.2552 12.729 38.5291 11.6546 38.5291L2.58507 38.5343C2.18928 38.5385 1.49458 38.5882 1.49458 37.7328L1.49354 37.7323ZM1.49354 33.0532C1.49354 32.4593 1.69662 32.0575 2.2903 32.0575H48.7087C49.7624 32.0575 49.5054 33.4239 49.5054 34.7458H1.49302V33.0532H1.49354ZM28.1892 19.1153C28.1892 18.3407 28.7269 17.5227 29.4843 17.5227H39.7443C40.2344 17.5227 40.4033 17.6319 40.6721 17.8892C40.911 18.1181 41.1389 18.3024 41.1389 18.7172V24.2925H37.0551C36.6111 24.2925 36.1584 24.6959 36.1584 25.0888C36.1584 26.2165 38.127 25.8852 39.2465 25.8852C40.5416 25.8852 41.8362 25.8852 43.1313 25.8852C44.5637 25.8852 45.5817 25.8438 46.3919 26.5091C47.8756 27.7269 47.7135 28.7251 47.7135 30.4649H3.28755C3.28755 28.9436 3.16477 27.3204 4.84584 26.3475C5.93479 25.7169 7.14133 25.8852 8.76645 25.8852L32.875 25.8878C35.0425 25.9064 34.2639 24.292 33.3702 24.292H28.1902V19.1148L28.1892 19.1153ZM9.86109 18.7172C9.86109 18.1947 10.4693 17.5227 11.2557 17.5227H21.5157C22.2731 17.5227 22.8108 18.3407 22.8108 19.1153V24.2925H9.86161V18.7172H9.86109ZM13.0487 8.26387C13.4921 8.02932 14.1588 7.76733 14.5178 7.44268C14.7007 7.27752 15.2783 6.23731 15.3395 5.97429H15.5389C15.7928 7.06212 16.7714 7.98168 17.8297 8.26387C17.5811 8.60301 16.7962 8.84999 16.4144 9.13942C16.1979 9.30355 15.6078 10.3562 15.5384 10.6534C15.1716 10.5555 15.1861 10.3619 15.0074 9.98908C14.2681 8.44613 13.5983 9.01464 13.0481 8.26387H13.0487Z" fill="#124285"/>
</svg>
