<svg width="39" height="52" viewBox="0 0 39 52" fill="none" xmlns="http://www.w3.org/2000/svg">
<path id="2 Kid" fill-rule="evenodd" clip-rule="evenodd" d="M22.9599 49.8046H28.6414C28.5824 50.0283 28.6217 49.9115 28.49 50.0441C28.2698 50.2639 27.914 50.4321 27.5523 50.4321C26.7305 50.4321 23.819 50.5529 23.3374 50.2876C22.9914 50.0976 23.0031 49.8976 22.9599 49.8046ZM20.8583 31.2316C20.8583 32.3996 22.492 32.5283 22.492 31.2316C22.492 30.0973 20.8583 30.2576 20.8583 31.2316ZM22.726 14.9313C22.726 16.121 22.551 16.8119 23.5811 16.8119C23.8917 16.8119 24.281 16.4615 24.281 16.1844C24.281 15.3688 24.4835 14.2245 23.4258 14.2245C23.0405 14.2245 22.726 14.5433 22.726 14.9293V14.9313ZM13.7771 15.0105C13.7771 16.0319 13.5884 16.8119 14.6323 16.8119C15.513 16.8119 15.3322 15.735 15.3322 15.0105C15.3322 13.9989 13.7752 13.9296 13.7752 15.0105H13.7771ZM18.6015 16.1072C18.4226 16.1487 18.2476 16.22 18.1198 16.3269C17.0759 17.2079 18.8629 18.4689 19.8695 17.3049C20.3944 16.6991 20.5143 14.9313 19.38 14.9313C18.7745 14.9313 18.6015 15.4638 18.6015 16.1072ZM15.9553 18.851C15.9553 21.5947 19.207 22.9924 21.1139 21.1454C21.8177 20.4644 22.0261 19.8507 22.0261 18.851C22.0261 17.9799 20.7325 17.8354 20.5025 18.649C20.2627 19.4963 20.4711 20.3396 18.6801 20.3396C18.5327 20.3396 18.0294 20.0209 17.8544 19.7596C17.5025 19.237 17.6912 19.1241 17.5104 18.6174C17.188 17.7226 15.9573 18.1224 15.9573 18.849L15.9553 18.851ZM15.6447 32.1739V30.4497C16.5373 30.6892 17.0445 31.8334 18.6545 30.5031C18.8492 30.3428 18.9455 30.2675 19.1441 30.1349C20.0386 29.5331 21.3813 29.5014 22.2935 30.1012C22.553 30.2715 22.6178 30.3051 22.7967 30.5348C24.1355 32.265 20.8033 33.8467 18.857 32.3066C17.9547 31.5939 17.5615 31.1465 16.3937 31.7523C16.0438 31.9324 15.9947 32.0908 15.6447 32.1719V32.1739ZM17.2784 29.5093L16.3013 28.9273C15.8846 28.6521 15.0707 27.989 14.3394 28.8224C14.1762 29.0105 14.0091 29.4064 14.0091 29.7449C14.0091 30.901 13.8164 33.0945 14.304 33.7596C14.5517 34.0981 14.8898 34.1338 15.2555 34.1338C15.8453 34.1338 16.5274 33.5161 17.2784 33.1142C17.8544 33.5023 17.9114 33.6705 18.6781 34.0546C20.1939 34.8128 21.9573 34.7732 23.3393 33.7319C25.0693 32.4273 25.2836 30.4318 23.473 28.9926C21.8668 27.7158 19.6139 27.7336 17.9881 28.9709C17.7227 29.1728 17.5556 29.3232 17.2784 29.5093ZM17.1231 50.4341H13.3879C12.8866 50.4341 12.4816 50.2084 12.3754 49.8066H18.3675C18.0982 50.2124 17.7954 50.4341 17.1231 50.4341ZM26.3059 47.142C26.3157 47.6092 26.6086 47.8467 27.0215 47.9101C27.4795 47.9794 27.857 47.817 28.2502 48.1615H22.8026V47.142H26.3059ZM12.2201 47.9259V47.142H15.7214C15.9396 48.0863 16.551 47.8923 17.2823 47.9219C17.5025 47.9318 17.4376 47.9101 17.6185 47.9754C17.762 48.0269 17.8171 48.0863 17.9016 48.1615L12.7588 48.1674C12.4678 48.1694 12.2201 48.2288 12.2201 47.9259ZM17.357 42.5967H21.1709V49.3354C21.1709 49.8125 21.3164 50.052 21.4049 50.4321H19.8479C20.8485 48.3337 19.1362 46.3184 17.357 46.2788V42.5947V42.5967ZM22.8046 45.3405V44.5566H26.3059C26.3059 45.2752 26.4042 45.5761 26.0719 45.5761H23.0366C22.8577 45.5761 22.8026 45.5206 22.8026 45.3405H22.8046ZM12.2201 45.3405V44.5566H15.7214V45.5761H12.4521C12.2732 45.5761 12.2181 45.5206 12.2181 45.3405H12.2201ZM22.8046 41.892H26.3059V42.9115H22.8046V41.892ZM12.2201 42.6759V41.892H15.7214V42.9115H12.4521C12.2732 42.9115 12.2181 42.856 12.2181 42.6759H12.2201ZM12.2201 40.0113V39.2274H26.3059V40.2469H12.4541C12.2752 40.2469 12.2201 40.1915 12.2201 40.0113ZM18.2909 25.1205H20.1585C19.9874 25.3541 19.5549 25.556 19.2247 25.556C18.8393 25.556 18.4815 25.4095 18.2909 25.1205ZM27.6289 27.4723C27.5424 27.2882 27.5208 27.0942 27.4579 26.8606C27.2731 26.1598 26.7816 25.556 26.7718 25.1224C27.4265 25.1224 28.8046 24.5206 29.239 24.2376C29.3806 24.1445 29.2921 24.1841 29.471 24.0792C29.9212 23.8159 30.9356 23.0478 31.1853 22.7489C32.4533 21.2364 33.0608 20.302 33.5424 18.2254H35.9546C35.9546 19.1261 35.3294 20.8187 34.9441 21.5947C34.5529 22.3806 34.1951 22.9251 33.6663 23.5981C32.18 25.4887 29.9821 26.92 27.6289 27.4703V27.4723ZM25.4507 23.6318V23.3962C26.2489 23.1824 27.8059 21.0919 28.201 20.2882L28.7967 18.9301C29.7108 18.9301 31.028 18.5144 31.2089 17.8334C31.5627 17.9284 31.3897 18.0433 31.8321 18.1462C31.8321 19.3815 30.6564 21.082 29.6361 21.9689C29.1152 22.4222 28.4861 22.8637 27.8491 23.1468C27.3046 23.3903 26.0955 23.7822 25.4507 23.6318ZM32.3766 16.5011C34.9244 16.5011 33.3419 15.4499 34.2226 14.4403C35.2645 13.2466 36.4244 14.4423 36.4244 15.1688V16.6575L32.3786 16.5011H32.3766ZM29.1859 17.2851C29.1859 16.5862 29.2646 16.1943 29.2646 15.4816V13.4446C30.4952 13.4723 30.277 15.1847 30.277 16.03C30.277 16.6951 29.8406 17.2692 29.1879 17.2831L29.1859 17.2851ZM10.3525 15.3252C10.3525 13.0467 10.0222 13.4446 11.7542 13.4446C14.363 13.4446 16.7653 13.6445 19.0084 12.1281C19.3583 11.8925 19.6925 11.6807 19.9855 11.3897C20.2823 11.0947 20.5241 10.772 20.8603 10.5464C21.3813 11.3303 22.5451 12.1103 23.3767 12.5577C23.9468 12.8645 24.3891 12.9457 25.0457 13.1496C26.0228 13.4545 26.589 13.4446 27.6329 13.4446C27.6329 16.3032 27.8983 18.0274 26.2784 20.3891L25.4153 21.4007C22.9953 23.709 21.0038 23.5546 17.9036 23.5546C14.9803 23.5546 12.863 22.0817 11.5458 20.0843C10.6611 18.7441 10.3564 17.0713 10.3564 15.3272L10.3525 15.3252ZM7.78501 16.03C7.78501 15.0243 7.57663 13.4703 8.79746 13.4446V16.7367C8.79746 17.0059 8.85447 17.0396 8.8761 17.2851C8.13888 17.2851 7.78698 16.6615 7.78698 16.0319L7.78501 16.03ZM1.55897 15.7944C1.55897 13.11 3.89251 13.8187 4.04388 14.9392C4.09696 15.3331 4.00653 15.6301 4.13432 15.9448C4.38595 16.5546 4.83811 16.5011 5.68345 16.5011L1.63564 16.6575C1.63564 16.2596 1.557 16.2299 1.557 15.7964L1.55897 15.7944ZM7.70638 12.1103C6.6841 12.3498 6.14938 13.9474 6.14938 14.9313C5.80337 14.9313 5.67756 14.9095 5.59302 14.5512C5.53405 14.2998 5.54191 14.2602 5.42592 14.0147C5.13103 13.3872 4.62972 12.8348 3.98097 12.5696C3.15726 12.233 2.58518 12.2013 1.7418 12.5319C0.825684 12.8922 0 13.9929 0 15.0105V17.4395C0 17.8097 0.257535 17.877 0.357796 18.4115C0.723456 20.3614 1.25622 21.858 2.2608 23.5486C2.42594 23.8258 2.63236 24.093 2.84468 24.3702C3.83746 25.6589 5.0465 26.815 6.49144 27.6722C7.39576 28.2087 9.48553 29.1946 10.5845 29.1946C10.5845 32.0175 10.4606 48.1476 10.6572 49.5749C10.7064 49.9352 10.7929 50.1213 10.8184 50.4321C9.00191 50.4321 7.18738 50.4321 5.37087 50.4321C4.55895 50.4321 2.04848 50.0362 2.37679 51.4041C2.48295 51.8416 2.76211 52 3.19068 52H38.2901C39.2239 52 39.2023 50.64 38.4257 50.4519C38.2154 50.4005 37.5371 50.4321 37.2776 50.4321H30.1964C30.2357 49.9432 30.7941 49.1671 30.1158 47.8487L29.6597 47.2093C29.3039 46.8213 28.8852 46.5995 28.4055 46.4333C28.2108 46.3659 28.032 46.36 27.8609 46.2769C27.8609 44.9941 27.9474 36.343 27.8629 35.3037C27.798 34.5099 26.8662 34.2961 26.4415 34.8939C26.0759 35.4086 26.6047 37.6575 26.0719 37.6575H12.4521C12.0334 37.6575 12.2181 36.4143 12.2181 36.0896C12.2181 33.9754 12.3027 30.4417 12.2221 28.5611C12.1769 27.5356 11.1723 27.7415 10.4252 27.5495C9.28697 27.2565 8.14085 26.8309 7.17558 26.1994C5.6579 25.2076 4.41544 23.9822 3.45804 22.4202C3.3912 22.3114 3.33812 22.2203 3.28504 22.1233C2.66971 20.9711 2.02489 19.5616 2.02489 18.2194H4.43707C4.51963 19.2211 5.12317 20.5178 5.67952 21.3572C6.29092 22.2836 7.31713 22.0995 7.31713 21.1196C7.31713 20.7831 7.14216 20.6326 6.99472 20.4248C6.86497 20.2387 6.70966 19.9754 6.62513 19.7774C6.51503 19.5141 6.39511 19.3023 6.31255 19.0727C6.21228 18.7975 6.1828 18.455 6.07074 18.2194C6.32434 18.0848 6.52683 17.9581 6.7706 17.8275C7.33089 18.6688 8.21751 18.9242 9.26141 18.9242C9.30663 19.1222 9.43638 19.4468 9.52681 19.6765C10.093 21.1137 11.131 22.3411 12.3302 23.2794C12.5641 23.4635 12.7725 23.5605 12.92 23.7822C11.9645 23.7822 10.8636 23.5071 10.0183 23.0993C9.68998 22.9409 9.60742 22.7627 9.10611 22.7627C8.55369 22.7627 8.27846 23.2913 8.38069 23.7248C8.6048 24.683 11.4691 25.3481 12.3754 25.3481C13.4036 25.3481 13.726 25.4966 14.3983 24.487C15.0648 24.6434 15.6723 25.0353 16.4213 25.0353C16.4508 25.4036 16.4272 25.1541 16.5667 25.4372C17.8112 27.9573 21.4147 27.5891 22.0241 24.9581C22.3917 24.9502 22.2384 24.9364 22.5294 24.8394C22.7535 24.7641 22.8478 24.7582 23.0837 24.6909C23.3177 24.6236 23.3374 24.6018 23.532 24.5107C23.6676 24.4454 23.6381 24.4474 23.7482 24.4157C24.1257 24.3068 24.4147 24.7998 24.6506 25.0551L25.2384 25.8727C25.6512 26.5418 25.8105 27.0704 26.07 27.8563C26.5103 29.1946 26.1231 30.6892 26.3098 31.8473C26.3727 32.2412 26.7364 32.4808 27.1591 32.4808C27.8766 32.4808 27.8629 31.8572 27.8589 31.1485C27.855 30.4695 27.8589 29.7904 27.8589 29.1114C29.009 28.8422 30.108 28.3413 31.1538 27.8049L33.8314 25.7995C35.4395 24.1643 36.7488 22.149 37.2914 19.8804L37.5509 18.7302C37.5843 18.5679 37.5725 18.4629 37.6059 18.3145C37.6924 17.9225 37.8419 18.0532 37.9441 17.7146C38.0581 17.3385 38.0522 14.7967 37.8458 14.2721C37.5843 13.6089 37.197 13.0961 36.5935 12.7121C35.4434 11.9816 34.1951 12.2687 33.2298 13.1219C32.2783 13.9612 32.5339 14.9253 32.1407 14.9253H31.8301C31.8301 13.5119 31.4526 12.6547 30.2731 12.0252C30.2731 11.4016 30.3557 9.54467 30.2574 9.06164C30.0765 8.16882 28.7161 8.3272 28.7161 9.2022V11.8668C26.4376 11.8668 24.3459 11.6431 22.781 10.2415C21.6997 9.27346 21.6506 8.26187 20.7777 8.26187C19.7594 8.26187 19.9678 10.4751 16.264 11.554C14.4927 12.0687 11.2136 11.8668 9.33809 11.8668C9.33809 9.75253 9.22406 8.16883 10.1677 6.27629C10.6749 5.25876 11.1369 4.6906 11.8859 3.9324C12.7195 3.08709 13.8479 2.36255 15.0451 2.01809C16.8695 1.49348 18.4835 1.60038 20.3885 1.60038C20.935 1.60038 21.3911 1.64196 21.9042 1.72114C22.262 1.77657 22.2443 1.78251 22.5274 1.87753L23.7463 2.29524C24.3183 2.513 24.8334 2.83964 25.3367 3.20191C25.9953 3.67703 26.4808 4.21351 26.9861 4.83313C27.4009 5.33992 27.8314 6.61877 28.5608 6.61877C28.9579 6.61877 29.3393 6.28025 29.3393 5.91402C29.3393 4.4966 26.5772 1.90525 25.1637 1.18466C24.7273 0.960961 24.4147 0.80259 23.937 0.618484L22.5608 0.20276C21.1847 -0.0565729 17.3099 -0.0545932 15.8964 0.137432C15.1572 0.238393 14.5379 0.509604 13.8617 0.753099C13.4685 0.895633 13.3466 0.992635 12.9514 1.16882C12.7607 1.25395 12.7254 1.29156 12.5602 1.40242L9.99273 3.59784C9.62314 4.00565 9.20244 4.6807 8.92328 5.18551C8.7719 5.45672 8.58907 5.82295 8.49274 6.08427C7.6356 8.39846 7.70441 9.58229 7.70441 12.1083L7.70638 12.1103Z" fill="#FAC06C"/>
</svg>
