<svg width="58" height="47" viewBox="0 0 58 47" fill="none" xmlns="http://www.w3.org/2000/svg">
<path id="6 museum " fill-rule="evenodd" clip-rule="evenodd" d="M48.7282 31.4625H51.2336V45.4676H48.7282V31.4625ZM44.4977 19.1564H56.0098V20.8005H42.7757C42.9907 20.4784 43.294 20.2445 43.5782 19.9605C43.7573 19.7816 44.2565 19.1588 44.4977 19.1588V19.1564ZM41.6794 19.7052V3.50956L42.3936 4.20635C42.4055 4.21829 42.4222 4.2326 42.4342 4.24454C42.501 4.31135 42.4915 4.29942 42.5536 4.36146L42.7494 4.55714C43.036 4.82201 43.3274 4.98905 43.3274 5.38995V17.9083C43.3274 18.1995 42.427 18.9392 42.1189 19.2828L41.6818 19.7076L41.6794 19.7052ZM44.813 17.4359V16.028C44.813 15.8275 44.7318 15.9779 45.1426 15.6533C45.2907 15.5364 45.3838 15.4624 45.5415 15.3479L50.0507 11.8711C51.6104 10.7066 52.186 11.0836 53.9534 12.5321L55.544 13.7586C55.716 13.8779 56.0145 13.9805 56.0145 14.2287V17.6721H45.0518C44.8703 17.6721 44.8178 17.6172 44.8178 17.4383L44.813 17.4359ZM44.813 5.62142H56.0122V12.1932C54.3092 11.055 53.416 9.69002 51.4694 9.69002C50.0961 9.69002 48.9545 10.7996 47.9131 11.6134C47.3734 12.0357 46.8837 12.3746 46.3631 12.8017L45.2047 13.6799C45.0494 13.7992 44.973 13.8875 44.813 13.9949V5.62142ZM42.7781 2.41188H56.0122V4.05602H44.5001C44.2613 4.05602 43.7932 3.46661 43.6188 3.29241C43.3227 2.99651 43.0026 2.74834 42.7781 2.41188ZM40.115 1.78667V21.4257C40.115 22.0294 40.4494 22.3635 41.0537 22.3635H56.6379C57.1275 22.3635 57.5001 22.1392 57.5001 21.6596V1.55282C57.5001 1.1734 57.2517 0.927612 56.8744 0.927612H40.822C40.3419 0.927612 40.1174 1.29987 40.1174 1.78906L40.115 1.78667ZM2.26927 19.7339H13.7813C14.0201 19.7339 14.4883 20.3234 14.6626 20.4976C14.9588 20.7935 15.2788 21.0416 15.5057 21.3781H2.27166V19.7339H2.26927ZM14.9564 5.96276C14.9564 5.62868 15.1069 5.54993 15.2979 5.36619C15.3099 5.35426 15.3266 5.33994 15.3385 5.32801L15.895 4.78871C16.0598 4.64076 15.9834 4.70042 16.1243 4.54769L16.602 4.08714V20.2828C16.3106 20.068 14.9564 18.6864 14.9564 18.4835V5.96276ZM2.27166 18.2473V14.8039C2.27166 14.5581 2.83771 14.2813 3.27239 13.9258L4.34239 13.1168C5.94739 11.8998 6.50388 11.129 8.19009 12.4129L13.318 16.3669C13.4278 16.4767 13.4732 16.3645 13.4732 16.6032C13.4732 17.6293 13.6237 18.2473 13.2391 18.2473H2.27166ZM2.27166 12.7708V6.199H13.4708V14.5701L10.7767 12.4892C10.5856 12.3508 10.5618 12.3198 10.3826 12.179C8.92332 11.0312 7.35654 9.58751 5.25953 10.5921C4.5263 10.9429 3.11476 12.2053 2.27166 12.7708ZM13.7837 4.6336H2.27166V2.98946H15.5057C15.2908 3.3116 14.9874 3.54546 14.7032 3.82943C14.5241 4.0084 14.0249 4.63121 13.7837 4.63121V4.6336ZM0.783691 2.1304V22.2372C0.783691 22.7168 1.15628 22.9411 1.6459 22.9411H17.2301C17.8368 22.9411 18.1688 22.607 18.1688 22.0033V2.36425C18.1688 1.87507 17.9443 1.50281 17.4642 1.50281H1.41184C1.03208 1.50281 0.78608 1.75098 0.78608 2.12801L0.783691 2.1304ZM14.591 44.2148C14.591 43.5634 15.0997 43.1982 15.5296 43.1982H42.4682C43.6505 43.1982 43.4069 44.7279 43.4069 45.4676H14.5886V44.2148H14.591ZM6.75943 31.4625H9.26485V45.4676H6.75943V31.4625ZM20.464 39.6785C20.464 39.3158 21.1757 39.6212 22.2625 39.6809C22.8906 39.7167 23.7695 39.7739 24.424 39.8694C25.7949 40.0675 27.4835 39.9243 28.8568 40.0627C29.2294 40.1009 29.4109 39.9911 29.8575 39.9911C31.3718 39.9887 32.7881 40.0197 34.2904 39.8026L37.5338 39.5234V41.714H20.4616V39.6809L20.464 39.6785ZM10.8316 34.202C11.1971 34.2879 11.4431 34.381 11.8037 34.4836L18.1688 35.87L21.6272 36.3282C21.9353 36.3592 22.4177 36.4212 22.7401 36.4666C23.1509 36.5262 23.5259 36.5119 23.9678 36.5716L29.0001 36.7839C29.9411 36.7839 30.5836 36.7052 31.5055 36.7052C31.9832 36.7052 32.3367 36.698 32.7021 36.6479C33.0222 36.605 34.5627 36.593 35.1335 36.4952C36.4017 36.2733 37.1732 36.3019 38.599 36.0442C38.9836 35.975 39.3179 35.9559 39.7072 35.8986L45.0764 34.7675C45.4585 34.6458 45.7403 34.6053 46.1368 34.4979C46.464 34.4096 46.7912 34.2879 47.1686 34.1996V35.9989C46.913 36.1206 46.5428 36.1468 46.2371 36.2423C43.5263 37.0965 37.1588 38.1513 34.4815 38.2682C32.6854 38.3446 31.6823 38.5044 29.7047 38.5044L26.9604 38.5068C25.3889 38.4877 19.3582 37.9198 18.281 37.6335L12.6922 36.488C12.2121 36.3878 12.0115 36.3067 11.584 36.1874C10.6812 35.9344 10.8316 36.5334 10.8316 34.1996V34.202ZM20.464 32.5578H37.5362V34.6697C36.9367 34.7198 36.1342 34.8272 35.5347 34.9393C34.8731 35.0634 34.0993 34.9895 33.4186 35.0945L31.2738 35.2185C30.4355 35.2138 29.8695 35.2949 29.0001 35.2949C28.157 35.2949 27.6053 35.2138 26.8052 35.2185L22.5419 34.9393C21.9305 34.8248 21.0707 34.7198 20.464 34.6697V32.5578ZM17.6457 30.3672C17.6457 29.6967 17.9586 29.4294 18.742 29.4294H39.2582C40.7629 29.4294 40.653 31.0736 39.4923 31.0736H18.5055C18.0159 31.0736 17.6433 30.8493 17.6433 30.3696L17.6457 30.3672ZM51.3984 29.9759C50.5314 29.9759 48.5443 30.0236 47.78 29.9139C45.8788 29.6442 46.1177 26.9239 47.8755 26.9239H52.1054C53.8776 26.9239 54.0256 29.6418 52.2702 29.9067C51.9883 29.9496 51.7591 29.9759 51.4008 29.9759H51.3984ZM4.49046 28.4893C4.49046 27.5872 5.02307 26.9239 5.89961 26.9239H10.1294C10.9869 26.9239 11.5386 27.6612 11.5386 28.1766C11.5386 28.7995 11.5649 29.2004 10.8531 29.6824C10.5761 29.8685 10.631 29.8566 10.225 29.9139C9.52757 30.0117 6.50148 30.0117 5.80407 29.9139C5.41954 29.859 5.36222 29.8232 5.11621 29.6609C4.8105 29.4581 4.49046 28.9975 4.49046 28.4869V28.4893ZM25.7901 13.3889V10.2581C25.7901 9.48018 26.1746 9.01963 26.5902 8.63305C27.5886 7.70241 30.5024 7.7907 31.3813 8.58294C31.8566 9.01247 32.2101 9.57086 32.2101 10.2581V13.3889C32.2101 14.0141 31.773 14.4866 31.367 14.7371C31.0876 14.909 30.5502 15.1309 30.3591 15.3719C29.547 16.3908 31.5605 16.9635 32.6758 17.541C32.843 17.6269 32.898 17.6937 33.1272 17.794L34.6057 18.5075C34.9902 18.6673 36.1366 19.2735 36.4232 19.5861C36.6549 19.839 36.8316 20.1588 36.9439 20.5525C37.0943 21.0751 37.4096 21.3662 37.1851 21.4879C37.0848 21.5428 36.5761 21.4903 35.9455 21.7361C34.374 22.3446 34.1328 23.972 33.8891 25.4706C33.7578 26.27 33.464 27.1458 33.464 27.9404H24.5362C24.5362 27.3057 24.0609 25.2201 23.877 24.3729C23.7027 23.5592 23.7242 23.1297 22.9909 22.3637C21.7346 21.0465 20.4831 21.9461 20.796 21.1729C21.7107 18.9084 21.8015 19.3689 24.295 18.0779L27.1658 16.6438C27.2327 16.6056 27.3139 16.5555 27.3617 16.5245L27.5862 16.3574C28.4484 15.4841 26.8768 14.8851 26.6332 14.7348C26.2272 14.4842 25.7901 14.0141 25.7901 13.3865V13.3889ZM24.2233 10.8857C24.2233 12.37 24.0036 14.0308 24.959 15.2359C25.1763 15.5103 25.3674 15.5294 25.396 15.8945C25.0831 15.9207 25.0593 15.9828 24.83 16.1116L23.7839 16.6319C23.1008 16.9397 21.1638 17.8799 20.6551 18.3571C20.5333 18.4717 20.4043 18.6387 20.2873 18.7723C19.9792 19.1207 19.9075 19.3832 19.7045 19.8342C19.6018 20.0609 19.5755 20.154 19.4919 20.4045C19.3964 20.6909 19.3367 20.7601 19.2388 21.0131C19.148 21.2445 19.1337 21.402 19.0501 21.6072C18.8423 22.1107 18.6417 22.6238 19.2841 22.9412C20.1153 23.3516 21.503 22.4925 22.1813 23.8002C22.2792 23.9863 22.3771 24.5161 22.4464 24.7881C22.7163 25.8548 22.8022 26.9 23.0458 27.9452C21.5053 27.9452 19.9601 27.9332 18.4219 27.9404C16.3655 27.9523 15.36 30.4651 16.719 31.8396C17.4045 32.5316 18.0064 32.5602 18.9736 32.5602V34.4382C18.3001 34.4239 17.5526 34.2092 16.8934 34.0922C15.9117 33.918 13.7574 33.4909 12.8092 33.1663L10.8292 32.639V31.3098C11.8133 31.0807 12.5513 30.4126 12.857 29.5034C13.2917 28.2148 13.0528 27.1577 12.1023 26.2032C11.5338 25.6329 10.7648 25.3632 9.65415 25.3632C8.55072 25.3632 6.03574 25.2105 5.03979 25.5255C3.95307 25.8691 3.0001 26.9048 3.0001 28.1027C3.0001 28.9641 3.10997 29.8041 3.68318 30.3935C4.14175 30.8636 4.45702 31.138 5.19264 31.3098V45.5487C5.19025 46.2742 5.19025 46.9566 5.89722 46.9566C11.1039 46.9566 10.8316 47.4196 10.8316 45.1574V37.569C11.4478 37.8649 13.9485 38.3398 14.782 38.5522L18.976 39.2895V41.714H15.6872C14.3497 41.714 13.103 42.6136 13.103 43.9046C13.103 44.8758 12.9358 46.3076 13.3203 46.7395C13.4469 46.8803 13.5639 46.9566 13.8076 46.9566H44.1926C44.5796 46.9566 44.8972 46.6393 44.8972 46.2527C44.8972 45.0142 45.1838 43.215 44.1282 42.3273C43.6791 41.9478 43.1203 41.7164 42.313 41.7164H39.0242V39.2919C39.5783 39.28 41.4508 38.86 42.1554 38.7431L44.1711 38.3326C44.5366 38.273 46.8175 37.7408 47.1686 37.5714V45.0834C47.1686 47.4339 46.8533 46.9614 52.103 46.9614C52.7813 46.9614 52.8123 46.3314 52.8076 45.6322V31.3146C53.9755 31.0426 55.0001 30.0379 55.0001 28.7327C55.0001 27.5276 54.7995 26.8212 53.9253 26.0505C53.259 25.4658 52.3944 25.368 51.4772 25.368C50.4001 25.368 47.9257 25.2105 46.9608 25.5494C45.769 25.967 44.8996 27.141 44.8996 28.42C44.8996 29.1335 45.191 29.8089 45.5922 30.31C45.898 30.6942 46.5667 31.2645 47.171 31.3146V32.6438L43.2636 33.6699C42.8981 33.7438 42.5662 33.7892 42.2294 33.887C41.895 33.9848 41.5654 34.0206 41.1737 34.0851C40.493 34.1948 39.7335 34.443 39.0266 34.443V32.565C39.9556 32.565 40.5695 32.5531 41.2406 31.8825C41.4914 31.632 41.5439 31.5652 41.6896 31.2358C42.344 29.7564 41.329 27.981 39.6571 27.9452C38.107 27.9118 36.5092 27.95 34.9544 27.95C35.0308 27.623 35.069 27.3271 35.1311 26.9549C35.2171 26.4418 35.6207 24.2393 35.7903 23.8575C36.3826 22.5283 37.7512 23.323 38.6611 22.9698C39.5783 22.6142 38.9645 21.6836 38.7734 21.0823C38.7065 20.8746 38.6301 20.7649 38.5441 20.5286C38.3315 19.9464 38.1309 19.3689 37.7727 18.8749C37.0824 17.9228 35.9288 17.4384 34.8421 16.954C34.3573 16.7368 33.0317 15.9398 32.6042 15.904C32.6496 15.3456 33.7793 15.0736 33.7793 12.6969C33.7793 10.1698 33.9202 8.10807 31.5628 6.93164C30.6075 6.45438 29.3082 6.51643 28.2215 6.51643C25.6564 6.51643 24.2281 8.435 24.2281 10.8976L24.2233 10.8857Z" fill="#FAC06C"/>
</svg>
