<svg width="47" height="52" viewBox="0 0 47 52" fill="none" xmlns="http://www.w3.org/2000/svg">
<path id="3 paint" fill-rule="evenodd" clip-rule="evenodd" d="M17.1403 34.3299C17.5214 34.3299 17.6063 34.9004 17.8709 35.5495C18.0487 35.9855 18.2817 36.5732 18.4969 36.9708H14.1113V34.3299H17.1403ZM0.435369 51.4929C0.950736 51.6101 1.40686 51.9616 1.89656 52C2.01504 51.5045 2.28753 51.1223 2.41785 50.5787C1.9637 50.3463 1.40884 50.2023 0.956659 49.9699C0.806591 50.2752 0.443268 51.0992 0.435369 51.4929ZM12.5475 52H14.1133V50.3751H12.5475V52ZM41.8858 16.0491H43.4517V14.4242H41.8858V16.0491ZM40.8413 32.6032H42.4071V30.9784H40.8413V32.6032ZM32.1748 25.2913H33.7407V23.6664H32.1748V25.2913ZM24.239 50.4769C24.2488 50.8707 24.6102 51.6965 24.7603 52C25.3645 51.8636 25.6172 51.6293 26.2215 51.4929C26.1701 50.886 25.8443 50.5768 25.7002 49.9699C25.4375 50.0928 24.547 50.452 24.239 50.4769ZM5.02825 8.02645C7.01073 8.02645 6.69875 8.31071 6.69875 6.70695C6.69875 6.24791 6.16364 6.40157 5.02825 6.40157V8.02645ZM8.15994 14.4242C10.1424 14.4242 9.83044 14.7084 9.83044 13.1047C9.83044 12.6456 9.29533 12.7993 8.15994 12.7993V14.4242ZM5.02825 11.0726C7.01073 11.0726 6.69875 11.3569 6.69875 9.75312C6.69875 9.29408 6.16364 9.44774 5.02825 9.44774V11.0726ZM32.0702 4.5731C33.0199 4.5731 34.0862 4.76132 34.9748 4.99756C35.2848 5.08015 35.5198 5.21268 35.8298 5.28374C35.9581 4.7498 36.3096 4.24466 36.3511 3.76066C36.043 3.69151 35.8752 3.62237 35.5573 3.51673C34.4318 3.14604 33.3043 3.04809 32.0702 3.04809V4.5731ZM20.6887 14.0189C20.6887 15.1867 20.898 15.8301 20.898 16.558C21.4509 16.5139 22.0156 16.2987 22.5685 16.2526C22.2683 15.0023 22.3592 14.6527 22.3592 13.3083C22.3592 12.7974 22.454 12.8531 22.4638 12.394C22.2545 12.2961 21.2179 12.0963 20.898 12.0886C20.7637 12.6476 20.6887 13.3256 20.6887 14.0189ZM8.15994 11.378C9.29533 11.378 9.83044 11.5336 9.83044 11.0726V7.3158C9.83044 6.85676 9.29533 7.01042 8.15994 7.01042V11.378ZM26.1188 9.65133C26.1188 6.68006 30.7136 6.45534 30.7136 9.75312C30.7136 10.8959 29.5506 11.8851 28.4172 11.8851C27.2502 11.8851 26.1208 10.8517 26.1208 9.65133H26.1188ZM28.2079 13.4081C29.6177 13.4081 30.3246 13.1373 31.3159 12.1655C32.3427 11.159 32.7297 9.44197 32.005 7.98611C31.776 7.52515 31.5548 7.26778 31.2093 6.93167C28.6778 4.47514 24.5628 6.21718 24.4661 9.55721C24.4364 10.6021 25.0091 11.6507 25.5679 12.2173C26.1523 12.8108 27.0626 13.4081 28.2079 13.4081ZM38.2309 13.001C35.0024 13.001 35.0064 8.53158 38.2309 8.53158C41.1217 8.53158 41.0703 13.001 38.2309 13.001ZM34.1593 10.7672C34.1593 11.9696 34.6983 12.8704 35.3302 13.4888C37.8636 15.9626 41.9905 13.9517 41.9905 11.0726V10.4638C41.9905 8.57191 40.0791 6.90862 38.1282 6.90862C35.972 6.90862 34.1613 8.63146 34.1613 10.7672H34.1593ZM28.1032 21.329C25.9035 21.329 25.1394 18.811 26.4011 17.5414C27.8781 16.0567 30.3997 17.115 30.3997 18.9934C30.3997 20.2783 29.4025 21.329 28.1032 21.329ZM24.1363 18.9934C24.1363 20.1497 24.5766 20.9141 25.1177 21.594C27.114 24.1024 32.1176 22.7867 32.0307 19.0069C31.9853 17.042 30.3483 15.2366 28.1052 15.2366C25.9667 15.2366 24.1383 16.9383 24.1383 18.9934H24.1363ZM9.93707 2.54104C9.93707 2.14346 10.3261 1.83039 10.7723 1.83039H15.8885C16.9863 1.83039 16.7257 3.25168 16.0978 3.25168H10.565C10.2708 3.25168 9.93904 2.82721 9.93904 2.54104H9.93707ZM8.37122 2.33745C8.37122 3.88358 9.37233 4.87656 10.6677 4.87656H15.7838C19.1189 4.87656 19.1603 0.205511 15.6792 0.205511H11.0843C9.64878 0.205511 8.36925 0.9853 8.36925 2.33745H8.37122ZM25.3902 44.7879C25.3902 45.7406 25.5521 46.3187 26.2471 47.0005C26.6302 47.375 27.4891 47.8341 28.2099 47.8341C29.7066 47.8341 30.4332 46.8411 31.2112 46.0824C31.8115 45.4986 33.2451 44.2425 33.638 43.6701L32.5145 42.5292C32.2005 42.9748 30.1923 44.8359 29.5407 45.4736C29.1991 45.8059 28.9503 46.2092 28.3145 46.2092C27.5563 46.2092 27.0567 45.7713 27.0054 45.0664C26.954 44.3577 27.5069 43.9985 27.9235 43.5952L34.1889 37.5009C34.5483 37.1514 35.2868 36.627 35.4151 36.1545L34.3962 35.1155C33.8986 35.4458 28.2395 41.0541 27.2976 41.9684C26.6006 42.6464 25.3921 43.5414 25.3921 44.786L25.3902 44.7879ZM3.67369 24.8822V4.87464H6.70072V3.24976H2.10587V24.8822H3.67369ZM11.2956 15.64C11.2956 17.1726 9.1729 15.6784 8.27644 18.085C7.74923 19.5005 8.84512 22.6465 7.43329 22.6465C6.94557 22.6465 6.7027 22.4103 6.7027 21.9359V12.492H5.0322V22.0377C5.0322 24.6421 9.6468 25.3873 9.83636 21.6324C9.8877 20.6049 9.83636 19.4275 9.83636 18.3827C10.172 18.1637 9.94496 18.1791 10.3715 18.0907C10.9638 17.9678 11.4595 18.0581 12.1644 17.3974C12.8239 16.7789 12.9681 16.1297 12.9681 14.9293V6.60132C12.9681 6.14228 12.4329 6.29593 11.2976 6.29593V15.64H11.2956ZM42.0971 28.2337V29.7568C43.3174 29.7568 44.435 29.4073 45.3335 28.9444C45.3335 30.5424 45.0827 32.3651 44.5357 33.4502C43.274 35.9548 40.5787 36.531 38.9457 34.5469C38.4797 33.9804 37.7096 33.1545 37.7096 32.1941C37.7096 30.7171 38.8015 29.655 40.5293 29.655L40.6339 28.0301C38.0354 28.0301 36.1437 29.8452 36.1437 31.8887C36.1437 33.3734 36.4419 34.1455 37.4746 35.2672C37.6622 35.4708 37.68 35.5438 37.8439 35.7205L38.7541 36.4599L33.6637 41.4613L34.7615 42.5772C35.4151 42.1393 39.5736 37.8121 40.1818 37.3396C40.7208 36.9228 41.7219 38.1175 44.0342 36.4177C46.7611 34.4144 47 31.2184 47 27.7267C47 27.26 46.6999 27.5231 46.3741 27.5231C46.0068 27.5231 45.9258 27.1159 45.6435 26.9142C44.8082 27.4578 43.4359 28.2049 42.0932 28.2337H42.0971ZM17.5609 14.1169C17.5609 17.4838 18.8563 20.8392 20.9335 23.2266C21.1014 23.4186 21.2277 23.4993 21.3936 23.6933C21.5851 23.9161 21.5832 23.9795 21.8122 24.2003C22.0215 24.4039 22.0729 24.4059 22.2762 24.5614C23.1016 25.2029 23.6229 25.8079 24.9044 26.4725C25.3507 26.703 25.7061 26.8605 26.1563 27.0833C27.6372 27.8093 30.0758 28.3336 32.2834 28.3336C32.2834 25.8848 32.6073 27.0909 29.6612 26.5167C27.0133 26 24.1422 24.5326 22.4836 22.5294C21.8162 21.7246 21.7431 21.7573 21.0895 20.7374C20.9671 20.5453 20.9019 20.3974 20.7933 20.215C17.3141 14.3685 19.7843 6.05393 26.0181 3.04617C28.3461 1.92258 28.1269 2.16459 30.5083 1.62488C30.5083 0.981458 30.4036 0.775947 30.4036 0.101795C28.0262 0.101795 24.9498 1.63832 23.1984 2.94438C19.7251 5.53343 17.5629 9.7512 17.5629 14.1169H17.5609ZM31.9695 1.52308C38.8943 1.52308 44.1823 6.44958 44.9938 12.6187C45.1656 13.9267 45.2742 16.6771 44.2139 17.5971C42.6144 18.9819 41.3606 17.6163 40.8038 17.2034C38.4639 15.4709 34.4752 16.7693 34.4752 20.4128C34.4752 21.1753 34.8741 22.0684 35.2354 22.5159C35.8278 23.2477 36.2504 23.4724 36.2504 24.5768C36.2504 25.783 35.3164 26.4091 34.2284 26.5762C33.251 26.726 33.8493 26.5973 33.8493 28.2337C37.6859 27.9226 38.8153 24.5211 37.1922 22.3411C36.438 21.327 36.1457 21.6094 36.1457 20.0075C36.1457 18.7745 37.5496 17.7354 38.9595 18.0792C40.5095 18.4576 40.1067 19.7021 43.037 19.7021C44.7529 19.7021 46.1272 18.3058 46.4767 16.6502C47.4324 12.1328 45.6059 7.22169 42.4367 4.13903C39.6506 1.42897 36.1892 0 31.9695 0V1.52308ZM9.20844 34.3261H12.5494V36.967H8.16389C8.35937 36.5713 8.51734 36.0931 8.699 35.6609C8.84315 35.3191 9.17093 34.7505 9.20647 34.328L9.20844 34.3261ZM2.21249 31.2799H24.4522C25.1177 31.2799 25.2875 32.7012 24.2429 32.7012H2.4218C1.27259 32.7012 1.51349 31.2799 2.21249 31.2799ZM2.10784 29.655C-0.547973 30.2562 -0.382108 32.8433 0.895447 33.7806C1.3733 34.1321 1.98147 34.2915 2.73378 34.328C4.25224 34.401 5.99382 34.328 7.53795 34.328C7.31482 34.7371 7.16278 35.2173 6.94755 35.6821C6.18338 37.3396 7.25756 36.967 2.84041 36.967V38.5919H5.66012C5.62655 38.9722 4.88411 40.6623 4.68467 41.0964C4.29173 41.9473 3.99357 42.7463 3.63222 43.6259L2.08217 47.2963C1.93605 47.6267 1.61814 48.3066 1.58853 48.6446C1.85115 48.7675 2.74168 49.1267 3.04972 49.1517C3.56114 48.2105 5.71146 42.6944 6.35517 41.2962L7.43527 38.588H12.5514V48.9462H14.1173V38.588H18.9194C19.3479 38.588 20.0351 40.6911 20.2029 41.0983C20.5228 41.8743 23.4748 48.6907 23.5143 49.1497C24.1146 49.1363 24.5115 48.7714 25.0801 48.6427L20.9039 38.588C24.2469 38.588 23.8283 38.9395 23.8283 37.2685C23.8283 36.7884 23.0167 36.9631 22.1578 36.9631C21.4963 36.9631 20.8348 36.9631 20.1733 36.9631L19.1288 34.3222C20.5939 34.3222 22.7442 34.4471 24.1264 34.3088C26.881 34.036 27.1653 31.5814 25.9983 30.383C25.5856 29.9585 25.2164 29.7991 24.5589 29.6512C24.5589 26.8451 24.9064 27.2139 23.2023 27.2139C22.6652 27.2139 22.8884 28.2164 22.8884 29.6512H3.67764V26.2996H2.11179V29.6512L2.10784 29.655Z" fill="#FAC06C"/>
</svg>
