<svg width="28" height="28" viewBox="0 0 28 28" fill="none" xmlns="http://www.w3.org/2000/svg">
<g id="Vector">
<path d="M14 28C21.732 28 28 21.732 28 14C28 6.26801 21.732 0 14 0C6.26801 0 0 6.26801 0 14C0 21.732 6.26801 28 14 28Z" fill="#124285"/>
<path d="M13.1105 10.4107C13.1105 9.69427 12.5877 9.11348 11.9426 9.11348C11.2976 9.11348 10.7747 9.69427 10.7747 10.4107V17.5879C10.7747 18.3044 11.2976 18.8852 11.9426 18.8852C12.5877 18.8852 13.1105 18.3044 13.1105 17.5879V10.4107Z" fill="white"/>
<path d="M17.2239 10.4107C17.2239 9.69427 16.701 9.11348 16.056 9.11348C15.411 9.11348 14.8881 9.69427 14.8881 10.4107V17.5879C14.8881 18.3044 15.411 18.8852 16.056 18.8852C16.701 18.8852 17.2239 18.3044 17.2239 17.5879V10.4107Z" fill="white"/>
</g>
</svg>
