<svg width="63" height="20" viewBox="0 0 63 20" fill="none" xmlns="http://www.w3.org/2000/svg">
<g id="Vector">
<path fill-rule="evenodd" clip-rule="evenodd" d="M52.6533 12.7905C53.0888 11.6445 53.5292 10.4214 53.9668 9.23778C54.2724 8.41182 54.9872 6.34139 55.3522 5.7588L56.8218 12.8566L52.6533 12.7905ZM44.7757 19.7946H50.0985C50.2033 19.3526 50.4526 18.7748 50.6204 18.3589C50.7975 17.9204 51.028 17.3019 51.1425 16.8202H57.6135C57.7237 17.2848 57.8142 17.7929 57.9265 18.2562C58.0268 18.6689 58.2034 19.3645 58.2396 19.7946L62.6383 19.8012C63.274 19.7411 62.9444 19.479 62.6147 17.8545C62.2197 15.9097 61.7812 13.9396 61.3808 11.9901L59.1889 1.73383C59.0297 0.957649 59.0375 0.409819 58.6574 0.409819H54.587C52.5496 0.409819 52.0283 2.47972 51.2609 4.32101C50.95 5.06716 44.8285 19.1761 44.7762 19.7946H44.7757Z" fill="#1B4DA1"/>
<path fill-rule="evenodd" clip-rule="evenodd" d="M32.6682 6.46149C32.6682 9.46481 35.6052 10.9911 37.8876 12.1018C39.6758 12.9717 40.6348 14.3811 38.8265 15.4875C37.3551 16.3877 33.8773 15.7117 32.4291 15.1069C32.0633 14.9544 31.6942 14.7543 31.3118 14.6666C31.2584 15.2945 31.0714 16.0851 30.954 16.7765C30.8328 17.4881 30.6361 18.3249 30.5812 18.9744C32.1429 19.7864 34.6516 20 36.7389 20C39.8825 20 42.7862 18.8722 44.2756 16.5342C45.0694 15.2879 45.3688 13.7197 45.0102 12.1795C44.8872 11.6509 44.7044 11.2766 44.4447 10.8894C43.1397 8.94622 41.8275 8.74526 40.1226 7.75205C38.734 6.94295 38.0959 6.61689 38.0959 5.64107C38.0959 4.35472 40.4483 4.0442 41.3217 4.10372C43.8347 4.27492 44.6162 4.97867 45.193 5.02555C45.345 4.38501 45.4543 3.64676 45.5666 2.93115C45.6861 2.16893 45.8193 1.51812 45.8193 0.717973C45.107 0.659766 43.5935 0 41.2271 0C37.2755 0 32.6682 2.07833 32.6682 6.46149Z" fill="#1B4DA1"/>
<path fill-rule="evenodd" clip-rule="evenodd" d="M12.6293 10.906C12.402 10.5634 12.2412 10.0377 12.0383 9.60651C11.3734 8.19242 10.714 7.41177 9.79151 6.27528C9.2075 5.55599 6.78703 3.40418 5.63669 2.96829L7.84945 11.364C8.53263 14.0771 9.49937 17.1566 10.1249 19.7946H15.448C16.2958 18.0584 18.8334 11.7868 19.5037 10.1388C20.1636 8.51612 20.8325 6.91135 21.4857 5.31711C21.8183 4.50485 22.1276 3.75053 22.4851 2.91456C22.6851 2.44706 23.4524 0.791456 23.4848 0.409819H18.0575L13.3781 12.9398C13.2771 13.2001 13.3074 13.1574 13.1519 13.3331C13.0453 12.8824 12.7783 11.151 12.6301 10.9058L12.6293 10.906Z" fill="#1B4DA1"/>
<path fill-rule="evenodd" clip-rule="evenodd" d="M22.6489 19.7948C27.9991 19.7948 27.4711 20.1572 27.6418 18.8551L30.2526 2.85662C30.3265 2.42178 30.5745 0.637379 30.6854 0.410082H25.4668C25.4668 1.19179 23.0139 15.5376 22.6928 17.5816C22.6162 18.0705 22.5902 18.3586 22.5135 18.843C22.4615 19.1693 22.1713 19.7948 22.6489 19.7948Z" fill="#1B4DA1"/>
<path fill-rule="evenodd" clip-rule="evenodd" d="M5.63616 2.96829C6.78649 3.40418 9.20723 5.556 9.79098 6.27529C10.7135 7.41177 11.3728 8.19243 12.0378 9.60651C12.2407 10.0374 12.4017 10.5634 12.6288 10.906C12.6159 10.2594 12.3093 9.14691 12.1678 8.45291C11.9952 7.60483 11.8478 6.87922 11.6805 6.05984L10.9494 2.47077C10.8379 1.91345 10.8582 1.76306 10.5669 1.30794C10.1528 0.66161 9.62213 0.400601 8.56077 0.407448L2.60541 0.413506C1.99406 0.412453 1.81877 0.277339 1.29801 0.343974C0.705692 0.420354 0.454023 0.510957 0 0.615255C0.294284 0.866783 1.03938 1.04246 1.42184 1.16651C3.73376 1.91767 3.68686 2.01907 5.63562 2.96829H5.63616Z" fill="#F2A82A"/>
</g>
</svg>
