<svg width="28" height="28" viewBox="0 0 28 28" fill="none" xmlns="http://www.w3.org/2000/svg">
<g id="Vector">
<path d="M14.0008 4.57764e-05C6.26928 4.57764e-05 0.00163269 6.26769 0.00163269 13.9992C0.00163269 21.7308 6.26928 27.9984 14.0008 27.9984C21.7324 27.9984 28 21.7308 28 13.9992C28 6.26769 21.7324 4.57764e-05 14.0008 4.57764e-05Z" fill="#124285"/>
<path fill-rule="evenodd" clip-rule="evenodd" d="M19.0189 14.115C19.0907 13.828 19.0287 13.5214 18.8982 13.2849C18.7531 13.0224 18.634 12.9555 18.3666 12.794C17.1255 12.0455 15.7735 11.31 14.4868 10.55C14.0563 10.2956 13.6404 10.0575 13.1903 9.80306C12.5869 9.46221 12.1449 9.56332 11.7502 9.9955C11.3964 10.3836 11.5105 11.2023 11.5105 11.7976C11.5105 12.8576 11.4176 17.411 11.6214 17.8105C11.8236 18.2084 12.3716 18.577 12.9864 18.2998L16.7504 15.9367C17.1728 15.6806 17.587 15.4181 17.9997 15.1441C18.44 14.8538 18.8705 14.6989 19.0189 14.1134V14.115Z" fill="white"/>
</g>
</svg>
