<svg width="62" height="51" viewBox="0 0 62 51" fill="none" xmlns="http://www.w3.org/2000/svg">
<path id="6 museum " fill-rule="evenodd" clip-rule="evenodd" d="M52.4109 33.8006H55.1497V49.3034H52.4109V33.8006ZM47.7863 20.1783H60.3708V21.9983H45.9039C46.1389 21.6417 46.4705 21.3828 46.7811 21.0685C46.977 20.8703 47.5226 20.1809 47.7863 20.1809V20.1783ZM44.7055 20.7858V2.85808L45.4861 3.6294C45.4992 3.6426 45.5175 3.65845 45.5305 3.67166C45.6036 3.74562 45.5932 3.73241 45.6611 3.80109L45.8752 4.01769C46.1885 4.3109 46.507 4.4958 46.507 4.93957V18.7968C46.507 19.119 45.5227 19.9379 45.1859 20.3183L44.7081 20.7885L44.7055 20.7858ZM48.131 18.2738V16.7153C48.131 16.4934 48.0422 16.6598 48.4913 16.3006C48.6531 16.1712 48.755 16.0893 48.9273 15.9625L53.8566 12.1138C55.5616 10.8248 56.1908 11.2421 58.1228 12.8455L59.8617 14.2032C60.0497 14.3353 60.376 14.4489 60.376 14.7236V18.5353H48.3921C48.1936 18.5353 48.1362 18.4745 48.1362 18.2764L48.131 18.2738ZM48.131 5.19579H60.3734V12.4704C58.5119 11.2104 57.5354 9.69952 55.4075 9.69952C53.9062 9.69952 52.6583 10.9278 51.5199 11.8286C50.9298 12.2961 50.3946 12.6712 49.8254 13.144L48.5592 14.1161C48.3895 14.2482 48.3059 14.3459 48.131 14.4648V5.19579ZM45.9065 1.643H60.3734V3.46298H47.789C47.5279 3.46298 47.0161 2.81054 46.8255 2.61771C46.5018 2.29016 46.1519 2.01545 45.9065 1.643ZM42.9954 0.950933V22.6903C42.9954 23.3586 43.3609 23.7284 44.0214 23.7284H61.0575C61.5927 23.7284 62 23.4801 62 22.9492V0.692068C62 0.272073 61.7285 0 61.316 0H43.7682C43.2434 0 42.998 0.412071 42.998 0.953575L42.9954 0.950933ZM1.62397 20.8176H14.2084C14.4695 20.8176 14.9813 21.4701 15.1719 21.6629C15.4956 21.9904 15.8455 22.2652 16.0935 22.6376H1.62658V20.8176H1.62397ZM15.493 5.57364C15.493 5.20383 15.6575 5.11666 15.8664 4.91327C15.8794 4.90006 15.8977 4.88421 15.9107 4.871L16.5191 4.27403C16.6992 4.11026 16.6157 4.1763 16.7697 4.00724L17.2919 3.49743V21.4252C16.9734 21.1874 15.493 19.658 15.493 19.4335V5.57364ZM1.62658 19.172V15.3603C1.62658 15.0883 2.24536 14.7818 2.72054 14.3883L3.89022 13.4928C5.64473 12.1456 6.25307 11.2924 8.09636 12.7136L13.7019 17.0905C13.822 17.212 13.8716 17.0879 13.8716 17.352C13.8716 18.4878 14.0361 19.172 13.6158 19.172H1.62658ZM1.62658 13.1098V5.83515H13.869V15.1015L10.9239 12.7981C10.7151 12.6449 10.689 12.6105 10.4931 12.4547C8.8979 11.1841 7.18516 9.58605 4.8928 10.6981C4.09126 11.0864 2.54822 12.4838 1.62658 13.1098ZM14.211 4.10233H1.62658V2.28235H16.0935C15.8585 2.63895 15.5269 2.89782 15.2162 3.21215C15.0204 3.41027 14.4747 4.09969 14.211 4.09969V4.10233ZM0 1.33142V23.5885C0 24.1195 0.407298 24.3678 0.94253 24.3678H17.9786C18.6417 24.3678 19.0046 23.998 19.0046 23.3297V1.59028C19.0046 1.04878 18.7592 0.63671 18.2344 0.63671H0.686663C0.271532 0.63671 0.00261089 0.911424 0.00261089 1.32878L0 1.33142ZM15.0935 47.9166C15.0935 47.1955 15.6496 46.7914 16.1196 46.7914H45.5678C46.8602 46.7914 46.5938 48.4846 46.5938 49.3034H15.0909V47.9166H15.0935ZM6.53242 33.8006H9.27124V49.3034H6.53242V33.8006ZM21.5137 42.8952C21.5137 42.4937 22.2917 42.8318 23.4797 42.8978C24.1663 42.9375 25.1272 43.0008 25.8425 43.1065C27.3412 43.3257 29.1871 43.1673 30.6883 43.3205C31.0956 43.3627 31.2941 43.2412 31.7823 43.2412C33.4376 43.2386 34.9859 43.2729 36.6281 43.0325L40.1737 42.7235V45.1484H21.5111V42.8978L21.5137 42.8952ZM10.984 36.833C11.3834 36.9281 11.6524 37.0311 12.0466 37.1447L19.0046 38.6794L22.7852 39.1866C23.122 39.2209 23.6494 39.2896 24.0019 39.3397C24.4509 39.4058 24.8608 39.3899 25.3439 39.456L30.845 39.6911C31.8737 39.6911 32.576 39.6039 33.5838 39.6039C34.106 39.6039 34.4924 39.596 34.8919 39.5405C35.2417 39.493 36.9257 39.4798 37.5497 39.3715C38.9361 39.1258 39.7794 39.1575 41.3381 38.8722C41.7585 38.7956 42.124 38.7745 42.5496 38.7111L48.4189 37.459C48.8366 37.3243 49.1447 37.2794 49.5781 37.1605C49.9358 37.0628 50.2935 36.9281 50.706 36.8303V38.822C50.4266 38.9567 50.0219 38.9858 49.6877 39.0915C46.7244 40.0371 39.7638 41.2046 36.837 41.3341C34.8736 41.4186 33.777 41.5956 31.6152 41.5956L28.6153 41.5982C26.8973 41.5771 20.3048 40.9484 19.1273 40.6314L13.0179 39.3635C12.4931 39.2526 12.2738 39.1628 11.8064 39.0307C10.8195 38.7507 10.984 39.4137 10.984 36.8303V36.833ZM21.5137 35.013H40.1763V37.3507C39.521 37.4062 38.6437 37.5251 37.9884 37.6492C37.2652 37.7866 36.4192 37.7047 35.6751 37.8209L33.3306 37.9583C32.4141 37.953 31.7953 38.0428 30.845 38.0428C29.9233 38.0428 29.3202 37.953 28.4456 37.9583L23.7852 37.6492C23.1168 37.5224 22.1768 37.4062 21.5137 37.3507V35.013ZM18.4328 32.5881C18.4328 31.8459 18.7749 31.55 19.6312 31.55H42.0587C43.7036 31.55 43.5835 33.37 42.3146 33.37H19.3728C18.8375 33.37 18.4302 33.1217 18.4302 32.5908L18.4328 32.5881ZM55.3299 32.1549C54.3821 32.1549 52.2099 32.2078 51.3744 32.0862C49.2961 31.7878 49.5572 28.7765 51.4788 28.7765H56.1027C58.04 28.7765 58.2018 31.7851 56.2828 32.0783C55.9748 32.1259 55.7241 32.1549 55.3325 32.1549H55.3299ZM4.05208 30.5093C4.05208 29.5108 4.63431 28.7765 5.5925 28.7765H10.2164C11.1537 28.7765 11.7568 29.5927 11.7568 30.1632C11.7568 30.8527 11.7855 31.2964 11.0075 31.83C10.7046 32.0361 10.7647 32.0229 10.3208 32.0862C9.55844 32.1945 6.25044 32.1945 5.48807 32.0862C5.06771 32.0255 5.00505 31.9859 4.73613 31.8062C4.40194 31.5817 4.05208 31.0719 4.05208 30.5066V30.5093ZM27.336 13.794V10.3284C27.336 9.46725 27.7563 8.95744 28.2106 8.52952C29.302 7.49934 32.4872 7.59708 33.448 8.47405C33.9676 8.94951 34.354 9.56762 34.354 10.3284V13.794C34.354 14.4861 33.8762 15.0091 33.4324 15.2864C33.1269 15.4766 32.5395 15.7223 32.3306 15.9891C31.4429 17.117 33.6439 17.7509 34.8631 18.3902C35.0459 18.4853 35.106 18.5592 35.3566 18.6702L36.9727 19.46C37.3931 19.6369 38.6463 20.3079 38.9596 20.6539C39.2129 20.9339 39.4061 21.2879 39.5288 21.7237C39.6933 22.3022 40.0379 22.6245 39.7925 22.7592C39.6828 22.8199 39.1267 22.7618 38.4375 23.0339C36.7195 23.7075 36.4558 25.509 36.1895 27.1678C36.0459 28.0527 35.7247 29.0221 35.7247 29.9017H25.9652C25.9652 29.1991 25.4457 26.8905 25.2446 25.9527C25.054 25.052 25.0775 24.5765 24.276 23.7286C22.9027 22.2705 21.5346 23.2663 21.8766 22.4105C22.8766 19.9037 22.9758 20.4135 25.7015 18.9845L28.8398 17.397C28.9129 17.3547 29.0017 17.2992 29.0539 17.2649L29.2993 17.08C30.2419 16.1132 28.5239 15.4502 28.2576 15.2838C27.8137 15.0064 27.336 14.4861 27.336 13.7914V13.794ZM25.6232 11.0231C25.6232 12.6661 25.383 14.5046 26.4274 15.8385C26.665 16.1423 26.8738 16.1634 26.9052 16.5676C26.5631 16.5966 26.537 16.6653 26.2864 16.8079L25.1428 17.3838C24.3961 17.7245 22.2787 18.7653 21.7226 19.2936C21.5894 19.4203 21.4484 19.6052 21.3205 19.7532C20.9837 20.1388 20.9053 20.4294 20.6834 20.9286C20.5712 21.1796 20.5424 21.2826 20.4511 21.5599C20.3466 21.8769 20.2813 21.9535 20.1743 22.2335C20.0751 22.4897 20.0594 22.6641 19.968 22.8913C19.7409 23.4486 19.5216 24.0165 20.2239 24.3678C21.1325 24.8222 22.6494 23.8712 23.3909 25.3188C23.498 25.5248 23.605 26.1112 23.6807 26.4123C23.9757 27.5931 24.0697 28.7501 24.336 29.907C22.652 29.907 20.9628 29.8938 19.2814 29.9017C17.0334 29.9149 15.9342 32.6964 17.4198 34.2179C18.1691 34.9839 18.8271 35.0156 19.8845 35.0156V37.0945C19.1482 37.0786 18.331 36.8409 17.6104 36.7115C16.5373 36.5187 14.1823 36.0458 13.1458 35.6866L10.9814 35.1028V33.6315C12.0571 33.3779 12.8638 32.6383 13.198 31.6319C13.6732 30.2055 13.4121 29.0353 12.373 27.9787C11.7516 27.3474 10.9109 27.0489 9.69681 27.0489C8.49058 27.0489 5.74132 26.8799 4.65258 27.2286C3.46463 27.6089 2.42289 28.7553 2.42289 30.0814C2.42289 31.0349 2.54299 31.9647 3.1696 32.6172C3.67089 33.1376 4.01553 33.4413 4.81968 33.6315V49.3932C4.81707 50.1962 4.81707 50.9517 5.58989 50.9517C11.2816 50.9517 10.984 51.4641 10.984 48.96V40.5601C11.6576 40.8877 14.3912 41.4133 15.3024 41.6484L19.8871 42.4646V45.1484H16.2919C14.8298 45.1484 13.4669 46.1442 13.4669 47.5732C13.4669 48.6483 13.2842 50.2332 13.7045 50.7113C13.8429 50.8672 13.9708 50.9517 14.2371 50.9517H47.4528C47.8758 50.9517 48.223 50.6004 48.223 50.1725C48.223 48.8015 48.5364 46.8099 47.3823 45.8272C46.8915 45.4072 46.2805 45.151 45.3981 45.151H41.8029V42.4673C42.4086 42.4541 44.4555 41.9892 45.2257 41.8597L47.4293 41.4054C47.8288 41.3394 50.3222 40.7503 50.706 40.5628V48.8781C50.706 51.48 50.3614 50.957 56.1001 50.957C56.8416 50.957 56.8755 50.2596 56.8703 49.4857V33.6368C58.147 33.3357 59.2671 32.2236 59.2671 30.7787C59.2671 29.4448 59.0478 28.6629 58.0922 27.8097C57.3638 27.1625 56.4186 27.0542 55.416 27.0542C54.2385 27.0542 51.5336 26.8799 50.4788 27.255C49.176 27.7172 48.2257 29.0168 48.2257 30.4327C48.2257 31.2225 48.5442 31.97 48.9828 32.5247C49.317 32.95 50.0481 33.5813 50.7086 33.6368V35.1081L46.4372 36.2439C46.0377 36.3258 45.6748 36.376 45.3067 36.4843C44.9412 36.5926 44.5809 36.6322 44.1527 36.7036C43.4086 36.8251 42.5783 37.0998 41.8055 37.0998V35.0209C42.8211 35.0209 43.4921 35.0077 44.2258 34.2655C44.4999 33.9881 44.5574 33.9142 44.7166 33.5496C45.432 31.9119 44.3224 29.9466 42.4948 29.907C40.8003 29.87 39.0536 29.9123 37.3539 29.9123C37.4375 29.5504 37.4792 29.2229 37.5471 28.8108C37.6411 28.2429 38.0824 25.8048 38.2677 25.3822C38.9152 23.9109 40.4113 24.7905 41.406 24.3995C42.4086 24.006 41.7376 22.9758 41.5287 22.3101C41.4556 22.0803 41.3721 21.9588 41.2781 21.6973C41.0457 21.0528 40.8264 20.4135 40.4348 19.8668C39.6802 18.8128 38.4192 18.2766 37.2312 17.7404C36.7012 17.5 35.2522 16.6177 34.7848 16.5781C34.8344 15.96 36.0694 15.6589 36.0694 13.028C36.0694 10.2306 36.2234 7.94839 33.6465 6.64614C32.6021 6.11785 31.1818 6.18653 29.9938 6.18653C27.1897 6.18653 25.6284 8.31028 25.6284 11.0363L25.6232 11.0231Z" fill="white"/>
</svg>
