<svg width="62" height="62" viewBox="0 0 62 62" fill="none" xmlns="http://www.w3.org/2000/svg">
<g id="Vector">
<path fill-rule="evenodd" clip-rule="evenodd" d="M47.8174 60.0532H41.4717C39.7521 60.0532 40.1431 57.864 40.1431 56.2178H49.146C49.146 57.6842 49.5128 60.0532 47.8174 60.0532ZM12.8401 58.5765V56.2178H21.8431C21.8431 60.8349 22.5974 60.0532 14.1688 60.0532C13.373 60.0532 12.8401 59.3235 12.8401 58.5765ZM46.3434 45.1506H52.5438V48.5434H45.0182C45.1982 47.779 45.4092 47.5404 45.6929 46.8591C45.9317 46.2884 46.2985 45.7074 46.3469 45.1506H46.3434ZM9.44584 45.1506H15.6462C15.6912 45.704 16.0614 46.2884 16.3001 46.8591C16.5838 47.5404 16.7984 47.779 16.9748 48.5434H9.4493V45.1506H9.44584ZM58.4466 14.1694H60.0693V25.0844H58.4466V14.1694ZM1.92031 14.1694H3.54305V25.0844H1.92031V14.1694ZM17.2689 2.95701C17.2689 2.54545 17.8917 1.92292 18.3035 1.92292H43.6896C45.0355 1.92292 44.7241 4.21244 44.7241 5.02173H17.2724V2.95701H17.2689ZM15.2033 3.69367V5.02173C12.8297 5.02173 10.4977 4.64821 8.81612 6.457C7.28679 8.10324 7.52899 10.0746 7.52899 12.25H1.77153C0.975724 12.25 0 13.0454 0 13.872V25.2297C0 27.3532 1.89955 27.0004 3.68838 27.0004C4.82326 27.0004 5.4599 26.243 5.4599 25.3784V14.166H7.52553V21.3942C7.52553 22.0271 7.98225 22.5736 8.56008 22.5736C9.8818 22.5736 9.44584 20.035 9.44584 18.7381C9.44584 17.2198 9.33858 9.97083 9.5531 9.10966C9.85412 7.89919 10.8091 6.93773 12.2519 6.93773H49.7377C51.4193 6.93773 52.5403 8.31075 52.5403 10.0365V43.2277H46.1946C44.8383 43.2277 44.5477 44.6802 44.0321 45.7835C41.4025 51.4035 41.8696 50.4559 52.5438 50.4559C52.5438 52.3408 52.0698 54.2914 49.7412 54.2914H12.2554C9.92332 54.2914 9.45276 52.3408 9.45276 50.4559H17.7187C20.5248 50.4559 18.8571 47.7652 18.0128 45.8838C16.5043 42.5325 17.525 43.2242 9.45622 43.2242C9.45622 40.4505 9.68112 26.6719 9.30744 25.0775C8.7054 24.9392 7.53591 24.5657 7.53591 25.9629V51.3378C7.53591 52.5794 7.95457 53.5962 8.4805 54.3778C9.12406 55.3324 10.1897 55.7059 10.9302 56.0587C10.9302 57.4628 10.7503 59.1679 11.2796 60.1328C11.7502 60.9939 12.764 61.9589 14.0304 61.9589C15.487 61.9589 20.8224 62.1318 21.7912 61.7514C24.1751 60.821 23.7703 58.1026 23.7703 56.2039H38.2332C38.2332 58.2029 37.8318 60.6688 40.1085 61.7064C41.0911 62.156 46.4645 61.9554 47.9766 61.9554C49.2291 61.9554 50.1771 61.0424 50.6719 60.2227C51.2532 59.2543 51.0767 57.5493 51.0767 56.0552C52.8621 55.1975 54.471 54.319 54.471 51.3344V14.1591H56.5366V25.3715C56.5366 25.7865 56.7961 26.2845 57.0107 26.5197C57.6196 27.1941 59.0175 26.9935 60.2285 26.9935C61.3703 26.9935 62 26.3641 62 25.2228V13.8651C62 13.0385 61.0243 12.2431 60.2285 12.2431H54.471C54.471 9.84978 54.7305 6.72331 51.7999 5.47133C50.2117 4.79347 48.8139 5.01481 46.7967 5.01481C46.7967 3.67638 46.8867 2.19268 45.9524 1.13784C45.4784 0.601777 44.6515 0 43.6965 0H18.3104C17.3589 0 16.5285 0.601777 16.0545 1.13784C15.577 1.68083 15.2102 2.71837 15.2102 3.68675L15.2033 3.69367Z" fill="#00A0E3"/>
<path fill-rule="evenodd" clip-rule="evenodd" d="M13.1342 34.3843V14.6156C13.1342 14.2766 13.238 14.1729 13.5771 14.1729H48.4091C48.7481 14.1729 48.8519 14.2766 48.8519 14.6156V34.3843C48.8519 34.7232 48.7481 34.827 48.4091 34.827H13.5771C13.238 34.827 13.1342 34.7232 13.1342 34.3843ZM11.2139 14.3216V34.533C11.2139 35.2247 11.4526 35.7746 11.8402 36.1205C12.2277 36.4698 12.7363 36.7465 13.4283 36.7465H48.5544C49.8138 36.7465 50.7688 35.7919 50.7688 34.533V14.3216C50.7688 13.2356 49.6893 12.2569 48.4091 12.2569H13.5771C12.8955 12.2569 12.3107 12.5405 11.944 12.8379C11.6326 13.0938 11.2139 13.7752 11.2139 14.3216Z" fill="#00A0E3"/>
<path fill-rule="evenodd" clip-rule="evenodd" d="M24.6457 50.4628H37.337C38.9771 50.4628 39.3438 49.0691 40.1846 47.1116C40.4337 46.5271 40.5894 46.1328 40.8386 45.5518C41.5825 43.8156 42.6689 42.3146 42.0634 41.1699C41.8454 40.7618 41.361 40.281 40.7313 40.281H36.6C35.9219 40.281 35.8631 40.9762 35.8631 41.4604C35.8631 42.619 38.9563 42.197 40.1431 42.197C39.9459 43.0444 39.1812 44.49 38.8179 45.2959L37.4858 48.5399H24.4969C24.3723 48.0108 24.0852 47.4678 23.8672 46.9594C23.6181 46.3784 23.4624 45.9806 23.2132 45.3996C22.8153 44.4796 22.0541 43.1101 21.8431 42.197L32.7283 42.1625C33.8216 41.8719 33.7905 40.2776 32.4688 40.2776H21.2514C20.0888 40.2776 19.4626 41.5434 19.8328 42.5671C19.992 43.0063 20.2584 43.5874 20.4625 44.0128C20.722 44.5557 20.9054 44.9915 21.1441 45.5449C21.3829 46.1051 21.5178 46.4268 21.7566 46.9974C22.6077 49.0414 23.0264 50.4525 24.6457 50.4525V50.4628Z" fill="#00A0E3"/>
<path fill-rule="evenodd" clip-rule="evenodd" d="M20.3656 9.74603C20.3656 10.1023 20.895 10.6314 21.2514 10.6314H40.7313C41.6724 10.6314 42.1707 8.71194 40.5825 8.71194H21.3967C20.7082 8.71194 20.3622 9.05433 20.3622 9.74603H20.3656Z" fill="#00A0E3"/>
<path fill-rule="evenodd" clip-rule="evenodd" d="M25.829 45.448C25.829 45.8042 26.3584 46.3334 26.7148 46.3334H35.2748C36.3129 46.3334 36.4616 44.4174 35.4236 44.4174H26.5695C26.092 44.4174 25.8325 44.9535 25.8325 45.4515L25.829 45.448Z" fill="#00A0E3"/>
<path fill-rule="evenodd" clip-rule="evenodd" d="M16.2344 10.6314C17.5284 10.6314 17.3831 8.71194 16.3832 8.71194H16.2344C14.8746 8.71194 15.0061 10.6314 16.2344 10.6314Z" fill="#00A0E3"/>
<path fill-rule="evenodd" clip-rule="evenodd" d="M45.7518 10.6314C46.9386 10.6314 47.1392 8.71194 45.7518 8.71194H45.603C44.603 8.71194 44.4577 10.6314 45.7518 10.6314Z" fill="#00A0E3"/>
</g>
</svg>
