<svg width="62" height="55" viewBox="0 0 62 55" fill="none" xmlns="http://www.w3.org/2000/svg">
<path id="4 theater" fill-rule="evenodd" clip-rule="evenodd" d="M52.0757 44.3929H57.5241V48.2523H52.0757V44.3929ZM31.2477 13.6328C31.2477 15.0455 32.7743 14.293 33.4596 14.8067C33.9368 15.1649 34.2535 16.582 35.3119 16.0007C36.5491 15.3203 35.1581 12.6663 32.4599 12.6663C31.7384 12.6663 31.2499 12.9119 31.2499 13.6306L31.2477 13.6328ZM29.9155 24.7311H31.3675V28.7121H29.9155V24.7311ZM27.9772 24.49V28.9532C27.9772 30.9606 30.006 30.5213 31.9737 30.5213C32.5821 30.5213 33.1837 29.922 33.1837 29.3159V24.1295C33.1837 22.5524 30.7229 22.9242 29.3094 22.9242C28.5427 22.9242 27.9772 23.6924 27.9772 24.4923V24.49ZM45.657 24.7311H47.109V28.7121H45.657V24.7311ZM43.8408 29.3137C43.8408 30.9088 46.1636 30.519 47.7151 30.519C48.5338 30.519 49.0472 29.789 49.0472 28.9509V24.4877C49.0472 22.4916 47.0004 22.9197 45.1729 22.9197C44.5397 22.9197 43.8408 23.4581 43.8408 24.125V29.3137ZM14.0519 25.0916C14.0519 24.8144 14.1356 24.7288 14.4161 24.7288H15.5062V28.7099H14.0542V25.0916H14.0519ZM12.2358 24.2467V29.0726C12.2358 30.9426 13.9954 30.519 16.1101 30.519C16.9582 30.519 17.4422 29.8228 17.4422 28.9509V24.4877C17.4422 22.4939 15.4452 22.9197 13.5679 22.9197C12.86 22.9197 12.2358 23.5415 12.2358 24.2467ZM37.9061 24.7288H38.9962C39.2744 24.7288 39.3604 24.8122 39.3604 25.0916V28.7099H37.9084V24.7288H37.9061ZM35.9678 24.2467V29.192C35.9678 30.9245 38.2974 30.519 39.9642 30.519C40.6337 30.519 41.1743 29.8228 41.1743 29.192V24.2467C41.1743 22.5276 38.8899 22.9197 37.3 22.9197C36.6101 22.9197 35.9678 23.5866 35.9678 24.2467ZM14.0497 35.2233H15.5017V39.0826H14.0497V35.2233ZM12.2335 34.6194V39.6864C12.2335 41.5474 16.3001 41.0923 16.8632 40.68C17.1301 40.484 17.44 39.9928 17.44 39.5648V34.8605C17.44 32.9275 15.4044 33.2924 13.8077 33.2924C12.9799 33.2924 12.2335 33.8467 12.2335 34.6194ZM37.9038 35.2233H39.3559V39.0826H37.9038V35.2233ZM35.9656 34.8605V39.5648C35.9656 41.2613 38.1752 41.0112 39.236 41.0112C40.3781 41.0112 41.1743 40.5831 41.1743 39.4431V34.6172C41.1743 32.9387 38.6638 33.2902 37.542 33.2902C36.5943 33.2902 35.9678 33.9143 35.9678 34.8583L35.9656 34.8605ZM45.6524 35.2233H47.1044V39.0826H45.6524V35.2233ZM43.8363 34.6194V39.6864C43.8363 41.2072 46.0482 41.0134 47.1067 41.0134C48.319 41.0134 49.045 40.5268 49.045 39.3237V34.7389C49.045 32.9184 46.5842 33.2924 45.4127 33.2924C44.5374 33.2924 43.8385 33.7746 43.8385 34.6194H43.8363ZM21.9181 24.7288H23.3702V28.7099H21.9181V24.7288ZM19.9799 24.8505C19.9799 31.1048 19.6022 30.519 23.9763 30.519C24.7747 30.519 25.3084 29.6539 25.3084 28.8293V24.6072C25.3084 22.4893 23.3724 22.9174 21.554 22.9174C20.4096 22.9174 19.9799 23.7082 19.9799 24.8482V24.8505ZM21.9181 35.2233H23.3702V39.0826H21.9181V35.2233ZM19.9799 35.4643C19.9799 40.9684 19.5705 41.0134 23.3702 41.0134C25.8987 41.0134 25.3084 38.7019 25.3084 35.2233C25.3084 32.8486 23.6076 33.2924 21.4341 33.2924C20.2264 33.2924 19.9821 34.4662 19.9821 35.4643H19.9799ZM61.9977 10.7355V15.077C61.8666 16.3477 61.3305 16.404 59.4556 16.404V20.5045C59.4556 21.4012 58.9648 22.0027 58.1234 22.0725C58.1234 23.0774 58.1234 24.0822 58.1234 25.087C58.1234 25.4295 58.1664 26.2361 58.1144 26.5267C57.938 27.5428 56.3073 27.5563 56.3073 26.4141V22.192H53.2789V42.4576H56.3073V30.3951C56.3073 29.5029 58.1234 29.2799 58.1234 30.6362V42.577C58.9987 42.5973 59.4556 43.2597 59.4556 44.1451V48.2455C60.2291 48.2455 61.9977 48.0202 61.9977 49.4509V53.673C61.9977 54.3782 61.3735 55 60.6656 55H1.33214C0.698866 55 0 54.4615 0 53.7946V49.6784C0.113085 48.2703 0.621967 48.2478 2.54215 48.2478V44.1473C2.54215 43.298 3.02616 42.5973 3.87429 42.5793V22.0725C3.03294 22.0027 2.54215 21.4012 2.54215 20.5045V16.404C1.67592 16.404 0 16.5752 0 15.1987V10.7355C0 9.983 0.710174 9.41975 1.68949 9.40173C2.68916 9.3837 3.7205 9.40849 4.72243 9.40849C4.79933 9.1201 5.28107 8.4014 5.47332 8.10401L7.87298 4.34151C9.09656 2.49631 10.1256 0 11.7473 0H49.4068C50.8249 0 51.1936 0.968786 51.7794 1.85872L54.179 5.61896C54.464 6.05153 54.7309 6.48185 54.9706 6.88063L56.5516 9.40849C57.6824 9.40849 58.8155 9.40623 59.9464 9.40398C60.8895 9.40173 62 9.66758 62 10.7355H61.9977ZM21.9159 45.3549H39.3536V48.25H21.9159V45.3549ZM4.47817 44.3907H9.9266V48.25H4.47817V44.3907ZM28.8163 35.2233H32.3287V43.4264H28.8163V35.2233ZM8.71433 32.3282V42.4599H5.68592V22.1942H8.71433C8.71433 23.1923 8.49269 28.2074 8.92693 28.7369C9.0174 28.8473 9.34082 29.0703 9.44034 29.0703C10.8923 29.0703 10.5305 27.5586 10.5305 26.1752C10.5305 24.8077 10.5305 23.4401 10.5305 22.0748C11.3718 22.005 11.8626 21.4034 11.8626 20.5067V16.4063H21.9136C22.3275 17.9541 26.5343 21.1916 30.6325 18.4565C31.2183 18.7652 31.3969 18.9296 32.0981 19.1662C35.5765 20.34 38.9126 18.0397 39.3513 16.404H50.1283V20.5045C50.1283 21.4012 50.6191 22.0027 51.4605 22.0725V42.5793C50.5852 42.5995 50.1283 43.2619 50.1283 44.1473V48.2478H47.5862C46.3377 48.2478 46.3807 50.0569 47.5862 50.0569H60.1793V53.1931H1.81388V50.0569H43.3478C44.741 50.0569 44.4108 48.2478 43.5898 48.2478H41.1675V44.7489C41.1675 44.0707 40.3668 43.4219 39.7155 43.4219H34.267V34.6172C34.267 33.8444 33.5207 33.2902 32.6929 33.2902H28.5766C27.7488 33.2902 27.0024 33.8444 27.0024 34.6172V43.4219H21.6739C19.5298 43.4219 19.9776 45.8348 19.9776 48.2478H11.8649V44.1473C11.8649 43.2619 11.408 42.5995 10.5327 42.5793V32.3259C10.5327 31.1138 8.71659 31.0034 8.71659 32.3259L8.71433 32.3282ZM52.0643 16.4063H57.5128V20.2656H52.0643V16.4063ZM4.47591 16.4063H9.92434V20.2656H4.47591V16.4063ZM42.6195 11.3393H60.1771V14.5971H40.5613C40.697 14.0181 41.6402 12.6573 41.9704 12.0197C42.131 11.711 42.2237 11.3393 42.6195 11.3393ZM1.81162 11.3393H19.0073C19.1408 11.9093 19.6022 12.4703 19.8917 12.9907C20.206 13.5562 20.491 14.1015 20.8235 14.5971H1.81162V11.3393ZM34.2625 17.6116C32.7811 17.6116 31.5666 17.0979 30.8157 16.0999C29.574 14.4439 29.5649 12.8353 30.5488 11.0171L32.2405 8.11978C32.4622 7.7255 32.9575 6.98202 33.0502 6.63506C33.5161 6.94597 34.1313 7.59483 34.6063 7.98009C35.3888 8.61318 36.2822 9.3026 37.2163 9.72165L40.4369 10.8572C39.8105 12.0377 37.6912 16.0007 36.669 16.7532C36.0492 17.2106 35.3029 17.6116 34.2602 17.6116H34.2625ZM25.4238 6.99779C25.4238 7.76831 26.0435 8.44421 27.3123 7.43036C27.733 7.09467 27.7714 6.80178 28.3301 6.75446L29.5401 9.04576C27.4616 12.1369 28.3979 13.6351 26.7537 13.7477C26.636 13.7568 25.1818 13.5585 25.1818 14.7143C25.1818 16.3612 28.1898 15.3293 28.3301 15.3181C28.3821 15.9331 28.9226 16.6473 29.1782 17.1272C27.7239 17.8932 26.0096 17.7581 24.6774 16.7848C23.9808 16.2756 23.6438 15.7732 23.2073 14.9914C22.4112 13.5653 21.5676 12.254 20.8235 10.8527C21.2102 10.8211 22.0177 10.4764 22.4745 10.3277C23.3882 10.0258 23.6076 9.96723 23.6076 9.0435C23.6076 8.73484 23.2706 8.32029 22.6396 8.32029L20.3576 9.06153C20.1201 9.15165 19.8849 9.29133 19.5682 9.36117C18.944 9.49861 8.07879 9.40623 6.90045 9.40623C7.23518 8.77765 7.71692 8.06796 8.11272 7.47767L10.63 3.47186C11.2497 2.4828 11.5143 1.8069 12.229 1.8069H49.0405C49.7031 1.8069 49.9474 2.41971 50.5626 3.4268L53.6475 8.31579C53.8647 8.67852 54.1361 8.9286 54.2469 9.40623H42.8638C42.0586 9.41074 41.9839 9.46481 41.3552 9.21924C39.634 8.54559 38.2024 8.27073 36.7572 7.28617C36.4654 7.08791 36.1488 6.82656 35.8774 6.5945C33.1633 4.2942 32.7562 3.33893 31.1255 6.27683C30.8858 6.70715 30.9785 6.86937 30.5126 6.99328C30.4176 6.64182 29.4564 4.46092 28.3323 4.46092C27.5724 4.46092 26.6247 5.60544 25.9779 6.09434C25.6409 6.34893 25.426 6.45482 25.426 6.99328L25.4238 6.99779Z" fill="#00A0E3"/>
</svg>
