<svg width="62" height="62" viewBox="0 0 62 62" fill="none" xmlns="http://www.w3.org/2000/svg">
<g id="Vector">
<path fill-rule="evenodd" clip-rule="evenodd" d="M2.06985 17.1398C3.59131 18.1568 4.20158 18.0248 5.90865 18.0248V59.9052H4.87653C3.37757 59.9052 2.13172 58.582 2.06704 57.107C1.98548 55.2725 2.07267 53.2103 2.07267 51.3505V17.137L2.06985 17.1398ZM11.3701 46.9284H8.12193V34.9826H10.3352C10.7008 34.9826 10.5658 35.0276 10.878 35.3254C10.9005 35.345 10.9286 35.3788 10.9483 35.4012C11.5107 35.9659 11.5164 36.1935 11.9579 36.3115C11.9579 40.5229 11.4911 39.9525 12.976 41.4893C14.0474 42.599 13.8787 41.8658 13.8787 44.4224C13.8787 44.7988 11.7442 46.9284 11.3701 46.9284ZM56.097 2.09801H57.1291C58.6281 2.09801 59.8739 3.42126 59.9386 4.89622C60.0201 6.73079 59.933 8.79293 59.933 10.6528V44.8663C58.4115 43.8492 57.8012 43.9813 56.0942 43.9813V2.10082L56.097 2.09801ZM17.5684 19.7947C18.0803 19.6571 17.9875 19.6149 18.4712 19.0755C18.4909 19.053 18.5218 19.0193 18.5415 18.9969C18.5612 18.9744 18.5921 18.9435 18.6118 18.921C19.6439 17.8253 19.4246 18.0248 21.2582 18.0248C22.0091 18.0248 22.8809 20.0897 24.0621 20.0897C27.7518 20.0897 27.0572 20.4156 28.7502 18.7243C30.5022 16.974 30.0523 17.6427 30.1029 15.0636C30.1366 13.3948 32.0349 13.4426 32.0349 11.9788V10.0628H53.8809V43.9813C53.8809 46.861 54.9102 45.7793 57.2613 46.0603C61.1619 46.5238 60.5404 51.9433 56.98 51.9433H8.11911V48.9933C13.4681 48.9933 12.0001 49.4681 14.3568 47.1138C16.3985 45.0742 16.092 45.9058 16.092 42.3574C16.092 40.4245 14.0981 40.506 14.0137 38.9777C13.8337 35.6569 14.6718 36.1401 12.9535 34.432C11.1592 32.6452 11.8848 32.9205 8.11911 32.9205V27.0206H9.30028C10.1608 27.0206 11.8482 30.1167 13.1391 30.1167C16.6095 30.1167 16.0892 30.5634 19.1968 27.3184C20.4398 26.0205 20.077 26.2256 20.077 22.8907C20.077 22.4131 18.6315 21.1657 18.3053 20.8286C17.9312 20.4409 18.2012 20.4072 17.5684 20.2386V19.7947ZM26.4244 17.8787C23.8483 17.8787 24.6301 18.0922 23.0581 16.5245C22.1975 15.6677 20.9432 15.9626 19.0449 15.9626C18.1478 15.9626 14.9108 19.4379 14.9108 19.9436C14.9108 21.2219 17.8637 22.7812 17.8637 23.6296C17.8637 26.1188 18.0775 25.408 16.7191 26.7622C15.3636 28.1163 16.0751 27.9056 13.5834 27.9056C12.7313 27.9056 11.1733 24.9557 9.89368 24.9557H8.12193C8.12193 13.8415 8.62252 16.4065 4.74154 15.9458C0.885875 15.4878 1.41178 10.0628 5.02277 10.0628H29.9707V11.0939C29.9707 12.4199 28.019 12.7627 27.9008 14.1871C27.8418 14.9035 28.078 15.9964 27.8305 16.6229C27.7068 16.9319 26.7619 17.8759 26.4272 17.8759L26.4244 17.8787ZM53.8809 1.80583V8.00067H5.01996C2.17953 8.00067 0 10.2033 0 12.7205V57.107C0 59.8491 2.25547 61.973 4.72467 61.973C8.80813 61.973 8.11911 62.8917 8.11911 54.011H56.98C59.8205 54.011 62 51.8084 62 49.2911V4.46076C62 2.50819 59.8233 0.0358761 57.4244 0.0358761C54.6458 0.0358761 53.8809 -0.405207 53.8809 1.80583Z" fill="#00A0E3"/>
<path fill-rule="evenodd" clip-rule="evenodd" d="M23.179 47.0773C22.5462 46.9087 19.9364 42.9643 19.6299 42.3659C18.2968 39.7643 19.4808 36.8762 21.7925 36.2553C26.0728 35.1062 28.3621 39.7559 25.9435 43.057C25.6257 43.4924 23.2999 46.6222 23.179 47.0773ZM16.9779 39.5564C16.9779 42.6693 17.6388 43.3464 19.4246 45.813L21.8235 49.1675C22.4984 50.1143 23.1593 50.5273 24.0677 49.2968C25.9238 46.7795 29.082 43.0682 29.082 40.1492C29.082 36.4407 26.3372 33.9544 22.7346 33.9544C19.8352 33.9544 16.9779 36.6711 16.9779 39.5592V39.5564Z" fill="#00A0E3"/>
<path fill-rule="evenodd" clip-rule="evenodd" d="M41.0399 16.9937C41.0399 16.2043 41.2312 15.6648 41.5236 15.117C42.6767 12.965 44.8787 14.513 44.8787 16.5498C44.8787 17.4826 44.9659 18.6513 44.1419 19.2048C44.1419 17.7017 44.1363 17.8787 42.3701 17.8787C41.7149 17.8787 41.9286 18.671 41.9286 19.3537C41.4027 18.9688 41.0427 17.9293 41.0427 16.9937H41.0399ZM38.9729 16.8476C38.9729 18.6401 39.5044 20.2105 40.784 21.2332C41.2199 21.5815 41.9258 21.6434 41.9258 22.1575V29.0884C44.6875 29.0884 44.1391 29.67 44.1391 25.6974C44.1391 24.4191 44.1391 23.1408 44.1391 21.8625C47.7079 19.9745 47.6826 15.7632 46.0177 13.6448C43.2138 10.074 38.9729 12.729 38.9729 16.8504V16.8476Z" fill="#00A0E3"/>
<path fill-rule="evenodd" clip-rule="evenodd" d="M32.9208 22.5986C32.3021 22.1856 31.8887 21.3736 32.1474 20.5111C32.2712 20.0953 32.4005 19.8453 32.7099 19.5868C34.206 18.3366 35.8737 19.6318 35.8737 20.6825C35.8737 21.663 35.9384 22.0985 34.9878 22.5986V20.9775H32.9208V22.5986ZM29.9679 20.6825C29.9679 21.7866 30.0494 22.7362 30.9578 23.6746C31.4556 24.1887 32.004 24.7927 32.918 24.8124V29.0884H34.985C34.985 22.2895 34.9344 26.1778 37.0127 23.742C38.3598 22.1631 38.4835 19.8284 37.0183 18.3563C33.8826 15.2097 29.9651 18.0416 29.9651 20.6825H29.9679Z" fill="#00A0E3"/>
<path fill-rule="evenodd" clip-rule="evenodd" d="M49.8959 27.6106C49.8959 28.2259 50.4077 28.0545 51.6676 28.0545C52.3116 28.0545 52.1091 27.4308 52.1091 25.9896H49.8959V27.6106Z" fill="#00A0E3"/>
<path fill-rule="evenodd" clip-rule="evenodd" d="M41.1862 32.6255C41.1862 33.2408 41.698 33.0666 42.9579 33.0666C43.6019 33.0666 43.3994 32.4429 43.3994 31.0016H41.1862V32.6255Z" fill="#00A0E3"/>
<path fill-rule="evenodd" clip-rule="evenodd" d="M37.3502 33.0666H38.9729C39.3132 33.0666 39.4172 32.9626 39.4172 32.6255V31.0044H37.0549C37.1139 31.6984 37.3502 32.2912 37.3502 33.0694V33.0666Z" fill="#00A0E3"/>
<path fill-rule="evenodd" clip-rule="evenodd" d="M40.0078 39.4075C40.0078 41.3966 39.8391 41.0286 42.0748 41.0286C42.2661 38.7389 43.0873 38.9636 40.4521 38.9636C40.1119 38.9636 40.0106 39.0676 40.0106 39.4047L40.0078 39.4075Z" fill="#00A0E3"/>
<path fill-rule="evenodd" clip-rule="evenodd" d="M35.674 40.5622C36.4418 40.7532 36.8918 41.0286 37.7917 41.0286H38.2332V38.9636C37.3221 38.9636 37.353 38.7304 36.6105 38.6686L35.674 40.5594V40.5622Z" fill="#00A0E3"/>
<path fill-rule="evenodd" clip-rule="evenodd" d="M44.8787 44.1274L44.7803 45.754C45.534 45.9367 45.9136 46.3188 46.7967 46.3384C46.9795 45.5518 47.092 44.9646 47.092 43.9785L44.8787 44.1246V44.1274Z" fill="#00A0E3"/>
<path fill-rule="evenodd" clip-rule="evenodd" d="M43.4023 41.6213L44.5525 42.6833C45.0334 42.5316 45.9671 41.9472 46.2061 41.6213C45.8996 41.0426 45.1009 40.0284 44.4344 39.8514L43.4023 41.6213Z" fill="#00A0E3"/>
<path fill-rule="evenodd" clip-rule="evenodd" d="M48.5685 30.5605C48.8553 30.9904 49.3784 31.9119 49.7496 32.1816C50.3908 31.8445 51.2992 31.1421 51.3723 30.2656C51.0067 30.1672 49.9915 29.5885 49.6006 29.3806C48.7597 30.6364 48.9931 29.979 48.5685 30.5605Z" fill="#00A0E3"/>
<path fill-rule="evenodd" clip-rule="evenodd" d="M45.174 32.6255C45.174 33.2801 45.863 33.0666 47.3873 33.0666L47.2382 31.0016H45.1712V32.6227L45.174 32.6255Z" fill="#00A0E3"/>
<path fill-rule="evenodd" clip-rule="evenodd" d="M33.3651 34.1005C33.7082 34.2831 34.7516 34.7494 35.1369 34.8365C35.3225 34.7017 36.0284 33.8701 36.169 33.6566C35.8568 33.193 35.2606 32.3333 34.6926 32.1816C34.2285 32.4935 33.5086 33.4796 33.3651 34.0976V34.1005Z" fill="#00A0E3"/>
<path fill-rule="evenodd" clip-rule="evenodd" d="M33.0699 36.4604C33.0699 37.7022 33.3876 38.0252 33.8067 38.8203C34.386 38.6855 35.1088 38.1039 35.5784 37.7893C35.4097 37.07 35.1538 37.188 35.1369 36.3143C34.192 36.3143 33.9164 36.4632 33.0699 36.4632V36.4604Z" fill="#00A0E3"/>
<path fill-rule="evenodd" clip-rule="evenodd" d="M42.6626 47.6673C42.6823 48.5523 43.0676 48.9315 43.2532 49.7322C43.9956 49.5609 44.9518 48.954 45.3202 48.4062C45.1037 48.0803 44.9743 47.996 44.6987 47.701L43.9928 46.9312C43.5654 47.2178 43.2251 47.5381 42.6654 47.6673H42.6626Z" fill="#00A0E3"/>
<path fill-rule="evenodd" clip-rule="evenodd" d="M21.9978 39.9975H24.0649V37.9325H21.9978V39.9975Z" fill="#00A0E3"/>
<path fill-rule="evenodd" clip-rule="evenodd" d="M27.0178 50.0272H29.082V47.9623H27.0178V50.0272Z" fill="#00A0E3"/>
<path fill-rule="evenodd" clip-rule="evenodd" d="M31.0028 50.0272H33.0699V47.9623H31.0028V50.0272Z" fill="#00A0E3"/>
<path fill-rule="evenodd" clip-rule="evenodd" d="M34.9878 50.0272H37.0549V47.9623H34.9878V50.0272Z" fill="#00A0E3"/>
<path fill-rule="evenodd" clip-rule="evenodd" d="M38.9729 50.0272H41.0399V47.9623H38.9729V50.0272Z" fill="#00A0E3"/>
</g>
</svg>
