<svg width="35" height="38" viewBox="0 0 35 38" fill="none" xmlns="http://www.w3.org/2000/svg">
<g id="Vector">
<path fill-rule="evenodd" clip-rule="evenodd" d="M31.8127 4.79138C31.1547 4.79138 27.184 4.81886 26.869 4.7702C26.7571 4.75286 26.6683 4.6997 26.5815 4.61184L26.4772 4.45664C26.3988 4.30931 26.4004 4.07999 26.4854 3.92231C26.4887 3.916 26.4982 3.89753 26.5017 3.89145C26.6877 3.56774 26.9921 3.60063 27.3616 3.60356C27.4135 3.60401 27.4678 3.60672 27.5179 3.5968C27.6767 3.56504 27.7485 3.5254 27.8687 3.40781C27.8943 3.3828 27.9301 3.34789 27.946 3.32041L28.0047 3.1902C28.0964 2.9949 27.9793 2.54595 28.0597 2.34299C28.109 2.21886 28.1251 2.09137 28.2031 1.94247L28.7122 1.39192C28.7473 1.36624 28.7654 1.35385 28.8155 1.33087L29.2252 1.17815C29.678 1.17815 29.6113 1.13872 29.9638 1.25699C30.019 1.27546 30.0042 1.27906 30.0762 1.3088C30.2847 1.39485 30.4466 1.53586 30.5882 1.71382C31.018 2.25401 30.7505 2.6142 31.2402 2.85546C31.3575 2.91335 31.7506 2.89083 31.9059 2.8897C32.1228 2.8879 32.068 2.90029 32.2239 2.94557L32.4671 3.05392C32.4912 3.06946 32.5362 3.10348 32.5621 3.12352C32.7014 3.23188 32.758 3.33212 32.8216 3.50062L32.8501 3.56662C32.9042 3.69502 32.8845 3.83333 32.8845 4.00701L32.7997 4.25322C32.7679 4.33071 32.7882 4.28386 32.7606 4.33207C32.6555 4.51453 32.4368 4.68956 32.2427 4.75466C32.1674 4.77989 31.9136 4.79138 31.8125 4.79138H31.8127ZM26.8949 2.41417C26.7312 2.41417 26.4993 2.48513 26.35 2.54775L26.147 2.64957C26.1426 2.65205 26.1371 2.6561 26.1327 2.65858C26.1282 2.66128 26.1227 2.66534 26.1185 2.66782L25.5244 3.25057L25.3731 3.5718C25.3296 3.71101 25.3258 3.65402 25.3035 3.83356C25.289 3.95002 25.2404 4.06107 25.2404 4.19691C25.2404 4.32914 25.2876 4.4465 25.3035 4.56048L25.5834 5.22591C25.613 5.27254 25.5946 5.24979 25.6306 5.29642C25.643 5.31241 25.6582 5.32931 25.6741 5.3471L26.0763 5.69761C26.1298 5.73366 26.136 5.74537 26.2051 5.78029C26.3555 5.8562 26.515 5.91635 26.6839 5.93369C26.8008 5.94586 26.7752 5.97987 26.8719 5.97987H32.1159L32.9088 5.74267L33.5021 5.27795C33.5067 5.27277 33.52 5.25835 33.5246 5.25339C33.5279 5.24979 33.5328 5.24483 33.5359 5.24123L33.7722 4.91189C33.7749 4.90739 33.7779 4.90108 33.7804 4.89635L33.7956 4.86436C33.798 4.85963 33.8009 4.85333 33.8033 4.84837L33.9655 4.44312C34.0101 4.33635 34.0796 3.88064 34.062 3.75899C34.0355 3.57721 34.024 3.38956 33.9582 3.22151C33.9343 3.16047 33.9469 3.17691 33.9277 3.11001C33.9144 3.06383 33.9153 3.07329 33.8935 3.02621L33.4769 2.38151C33.4736 2.3779 33.469 2.37272 33.4656 2.36912C33.4623 2.36551 33.4575 2.36056 33.4542 2.35718L32.9658 1.97558C32.8183 1.89313 32.6769 1.83096 32.5126 1.79604C32.4057 1.77329 32.4819 1.78929 32.4055 1.76271C32.2568 1.71112 32.0934 1.72509 31.9063 1.72509C31.8951 1.6753 31.8931 1.66719 31.8717 1.61764L31.5463 1.04614C31.5432 1.04231 31.5386 1.03713 31.5355 1.0333C31.3725 0.832366 31.2057 0.661841 31.0105 0.498975L30.4566 0.184282L30.0164 0.0389865C29.8399 -0.0125989 29.1413 -0.0116979 28.9664 0.0340307C28.878 0.0572329 28.9204 0.0525023 28.8624 0.0707487C28.7729 0.0989067 28.7241 0.091473 28.6393 0.128642L28.4378 0.208385C28.3727 0.240598 28.3173 0.271684 28.2523 0.304347C28.2046 0.328451 28.2046 0.326198 28.1602 0.353004C27.9446 0.484108 27.6907 0.682115 27.5345 0.879671L27.1347 1.49397C27.0424 1.69603 26.9686 1.90304 26.9209 2.13169C26.9004 2.2299 26.8951 2.29726 26.8951 2.41417H26.8949ZM2.60887 9.28404C2.60887 9.13266 2.59186 8.94997 2.63582 8.83599C2.68264 8.71435 2.77342 8.54292 2.86706 8.45372L3.02587 8.3305C3.56611 7.99846 4.1715 8.37713 4.47762 7.95701C4.5282 7.8874 4.57259 7.80608 4.58673 7.7117C4.60263 7.60492 4.58297 7.66101 4.61721 7.57631C4.69451 7.38394 4.60285 7.53397 4.723 7.28009C4.77137 7.17782 4.81886 7.05933 5.00372 6.8771L5.11592 6.77775C5.42072 6.54663 5.45429 6.58403 5.72706 6.49775C6.05372 6.39481 6.14891 6.46757 6.43206 6.52613C6.54449 6.54934 6.47226 6.5374 6.56635 6.5793L6.70969 6.6471C6.71411 6.6498 6.71985 6.65341 6.72427 6.65611C6.85215 6.73383 7.00521 6.85051 7.09422 6.96833L7.26053 7.20283C7.33519 7.33055 7.37295 7.42606 7.39372 7.56618C7.42751 7.7946 7.45733 7.5824 7.45688 8.07212C7.45666 8.35528 7.40608 8.52805 7.66936 8.75873C7.74291 8.82315 7.74313 8.81076 7.8392 8.84703C7.8445 8.84906 7.85047 8.85176 7.85599 8.85379C8.05786 8.93015 8.19944 8.90537 8.43598 8.90402C8.62284 8.90312 8.6277 8.88307 8.75757 8.95651C8.77214 8.96484 8.80041 8.98038 8.81631 8.99165C8.81742 8.99232 8.86292 9.03017 8.86778 9.03445C8.95149 9.11036 9.06523 9.32031 9.06523 9.40343C9.06523 9.70078 9.08423 9.55638 8.9961 9.76092C8.9157 9.94767 8.71847 10.0691 8.48259 10.0691C7.8847 10.0691 3.55661 10.0873 3.34413 10.0565C3.21338 10.0375 3.16678 10.0308 3.03514 9.94361C2.99561 9.91726 2.95077 9.88076 2.91477 9.85238C2.79705 9.7598 2.60909 9.48903 2.60909 9.28449L2.60887 9.28404ZM3.58775 7.00189C3.50515 7.00189 3.41238 6.99784 3.3311 7.00167L3.02653 7.07127C2.95166 7.08186 2.9775 7.06361 2.90549 7.09042L2.71975 7.16251C2.47657 7.25847 2.25217 7.4335 2.06399 7.61101L1.81618 7.90497C1.81331 7.90903 1.80911 7.91466 1.80624 7.91872L1.56771 8.36496C1.4586 8.67087 1.42017 8.94727 1.42017 9.28427C1.42017 9.38383 1.44645 9.41514 1.46766 9.49736C1.51139 9.66676 1.49659 9.75259 1.60857 9.99542L1.63662 10.0621C1.63883 10.0671 1.64148 10.0736 1.64391 10.0785C1.72739 10.252 1.84092 10.414 1.96703 10.5572C2.00392 10.5994 1.99707 10.5912 2.03572 10.6298L2.39772 10.9262L2.91786 11.1801C3.00776 11.213 3.04155 11.197 3.13807 11.217C3.30526 11.2517 3.421 11.2812 3.61138 11.2812C4.27221 11.2812 8.30236 11.3143 8.60981 11.2684C8.71052 11.2533 8.72333 11.2504 8.80284 11.2274C8.96341 11.1812 9.06324 11.1785 9.2141 11.1001L9.28919 11.0578C9.34661 11.0262 9.38836 11.0026 9.43717 10.9708C9.56726 10.8857 9.69249 10.7624 9.7974 10.6489L9.92572 10.4707C9.94251 10.4432 9.9551 10.4288 9.97432 10.4016C10.024 10.3311 10.0156 10.334 10.0547 10.2459C10.1585 10.0125 10.2305 9.74786 10.2305 9.49827C10.2305 9.37167 10.1956 9.24507 10.1855 9.11622C10.1724 8.9493 10.1852 9.05269 10.1395 8.94907C10.1146 8.89253 10.1367 8.94952 10.1159 8.87811C10.0942 8.80468 10.115 8.85424 10.0859 8.78981L9.88133 8.42804C9.61607 8.09172 9.36473 7.92683 8.98263 7.77567C8.8638 7.72859 8.74674 7.74504 8.62217 7.71553C8.58043 7.62677 8.57226 7.45602 8.5431 7.3684L8.44261 7.01924C8.35294 6.71085 8.15504 6.40742 7.94875 6.16796C7.82617 6.02582 7.67576 5.87805 7.51983 5.77353C7.48957 5.75325 7.49178 5.75641 7.47632 5.7465L7.39372 5.68815C7.38952 5.68545 7.384 5.6814 7.3798 5.67869L6.77507 5.39216C6.44333 5.27322 6.08553 5.29101 5.73214 5.29101C5.57908 5.29101 5.47395 5.34418 5.33944 5.3658C5.11327 5.40252 4.68877 5.63003 4.49993 5.76947L4.25985 5.97627C4.21391 6.01907 4.18652 6.04745 4.14124 6.09318C4.09243 6.14274 4.071 6.16594 4.0297 6.2173L3.58775 7.00257V7.00189Z" fill="#00A0E3"/>
<path d="M11.6787 17.0964H23.3213C23.6303 17.0964 23.8807 17.3519 23.8807 17.667V37.4294C23.8807 37.7446 23.6303 38 23.3213 38H11.6787C11.3697 38 11.1193 37.7446 11.1193 37.4294V17.667C11.1193 17.3519 11.3697 17.0964 11.6787 17.0964ZM22.7618 18.2374H12.238V36.8586H22.7618V18.2374Z" fill="#00A0E3"/>
<path d="M9.76405 18.2374C9.45506 18.2374 9.2046 17.9819 9.2046 17.6668C9.2046 17.3516 9.45506 17.0962 9.76405 17.0962H25.2359C25.5449 17.0962 25.7954 17.3516 25.7954 17.6668C25.7954 17.9819 25.5449 18.2374 25.2359 18.2374H9.76405Z" fill="#00A0E3"/>
<path d="M10.1135 18.1106C9.87338 18.3074 9.5222 18.2685 9.32895 18.0236C9.13591 17.7787 9.17412 17.4206 9.4142 17.2235L11.2796 15.6928C11.5197 15.4959 11.8709 15.5349 12.0642 15.7797C12.2572 16.0246 12.219 16.3828 11.9789 16.5799L10.1135 18.1106Z" fill="#00A0E3"/>
<path d="M25.5856 17.2235C25.8257 17.4203 25.8639 17.7785 25.6708 18.0236C25.4778 18.2685 25.1266 18.3074 24.8863 18.1106L23.0209 16.5799C22.7808 16.383 22.7426 16.0248 22.9356 15.7797C23.1287 15.5349 23.4798 15.4959 23.7201 15.6928L25.5856 17.2235Z" fill="#00A0E3"/>
<path d="M11.6295 16.7067C11.3205 16.7067 11.07 16.4513 11.07 16.1361C11.07 15.821 11.3205 15.5655 11.6295 15.5655H23.3703C23.6793 15.5655 23.9297 15.821 23.9297 16.1361C23.9297 16.4513 23.6793 16.7067 23.3703 16.7067H11.6295Z" fill="#00A0E3"/>
<path d="M11.1193 25.7326H9.52022C9.21122 25.7326 8.96076 25.4771 8.96076 25.162V23.5953H6.67833V25.162C6.67833 25.4771 6.42787 25.7326 6.11888 25.7326H3.96035C3.65136 25.7326 3.4009 25.4771 3.4009 25.162V23.5953H1.11847V36.8588H11.1191V25.7326H11.1193ZM10.0797 24.5916H11.6787C11.9877 24.5916 12.2382 24.8471 12.2382 25.1622V37.4294C12.2382 37.7445 11.9877 38 11.6787 38H0.559454C0.250462 38 0 37.7445 0 37.4294V23.0249C0 22.7098 0.250462 22.4543 0.559454 22.4543H3.96057C4.26956 22.4543 4.52003 22.7098 4.52003 23.0249V24.5916H5.55964V23.0249C5.55964 22.7098 5.81011 22.4543 6.1191 22.4543H9.52022C9.82921 22.4543 10.0797 22.7098 10.0797 23.0249V24.5916Z" fill="#00A0E3"/>
<path d="M23.3213 24.5916H24.9203V23.0249C24.9203 22.7098 25.1708 22.4543 25.4798 22.4543H28.8809C29.1899 22.4543 29.4404 22.7098 29.4404 23.0249V24.5916H30.48V23.0249C30.48 22.7098 30.7304 22.4543 31.0394 22.4543H34.4405C34.7495 22.4543 35 22.7098 35 23.0249V37.4294C35 37.7445 34.7495 38 34.4405 38H23.3213C23.0123 38 22.7618 37.7445 22.7618 37.4294V25.1622C22.7618 24.8471 23.0123 24.5916 23.3213 24.5916ZM25.4798 25.7326H23.8807V36.8588H33.8813V23.5953H31.5989V25.162C31.5989 25.4771 31.3484 25.7326 31.0394 25.7326H28.8809C28.5719 25.7326 28.3214 25.4771 28.3214 25.162V23.5953H26.039V25.162C26.039 25.4771 25.7886 25.7326 25.4796 25.7326H25.4798Z" fill="#00A0E3"/>
<path d="M0.559454 34.1363C0.250462 34.1363 0 33.8808 0 33.5657C0 33.2505 0.250462 32.9951 0.559454 32.9951H34.4405C34.7495 32.9951 35 33.2505 35 33.5657C35 33.8808 34.7495 34.1363 34.4405 34.1363H0.559454Z" fill="#00A0E3"/>
<path d="M14.2828 19.4405C14.6406 19.4405 14.9654 19.5894 15.2007 19.8291C15.4359 20.069 15.5817 20.4001 15.5817 20.7651V22.6111C15.5817 22.9262 15.3312 23.1817 15.0222 23.1817H13.5431C13.2341 23.1817 12.9836 22.9262 12.9836 22.6111V20.7651C12.9836 20.4001 13.1296 20.0688 13.3646 19.8291C13.5998 19.5892 13.9245 19.4405 14.2823 19.4405H14.2828ZM14.2828 20.5815C14.2337 20.5815 14.1889 20.6024 14.156 20.636C14.1231 20.6696 14.1025 20.7153 14.1025 20.7653V22.041H14.4628V20.7653C14.4628 20.7153 14.4422 20.6696 14.4093 20.636C14.3764 20.6024 14.3316 20.5815 14.2825 20.5815H14.2828Z" fill="#00A0E3"/>
<path d="M17.4999 19.4405C17.8577 19.4405 18.1826 19.5894 18.4178 19.8291C18.653 20.069 18.7988 20.4001 18.7988 20.7651V22.6111C18.7988 22.9262 18.5483 23.1817 18.2393 23.1817H16.7602C16.4512 23.1817 16.2008 22.9262 16.2008 22.6111V20.7651C16.2008 20.4001 16.3467 20.0688 16.5817 19.8291C16.817 19.5892 17.1416 19.4405 17.4994 19.4405H17.4999ZM17.4999 20.5815C17.4509 20.5815 17.406 20.6024 17.3731 20.636C17.3402 20.6696 17.3197 20.7153 17.3197 20.7653V22.041H17.6799V20.7653C17.6799 20.7153 17.6594 20.6696 17.6264 20.636C17.5935 20.6024 17.5487 20.5815 17.4997 20.5815H17.4999Z" fill="#00A0E3"/>
<path d="M20.717 19.4405C21.0748 19.4405 21.3997 19.5894 21.6349 19.8291C21.8702 20.069 22.0159 20.4001 22.0159 20.7651V22.6111C22.0159 22.9262 21.7655 23.1817 21.4565 23.1817H19.9773C19.6684 23.1817 19.4179 22.9262 19.4179 22.6111V20.7651C19.4179 20.4001 19.5639 20.0688 19.7989 19.8291C20.0341 19.5892 20.3588 19.4405 20.7166 19.4405H20.717ZM20.717 20.5815C20.668 20.5815 20.6232 20.6024 20.5902 20.636C20.5573 20.6696 20.5368 20.7153 20.5368 20.7653V22.041H20.897V20.7653C20.897 20.7153 20.8765 20.6696 20.8436 20.636C20.8107 20.6024 20.7658 20.5815 20.7168 20.5815H20.717Z" fill="#00A0E3"/>
<path d="M12.5892 16.524C12.3791 16.7542 12.0259 16.7671 11.8004 16.5531C11.5747 16.3389 11.5621 15.9787 11.7719 15.7487L17.0913 9.91523C17.3013 9.68501 17.6545 9.67217 17.88 9.88617C18.1057 10.1004 18.1183 10.4606 17.9085 10.6906L12.5892 16.524Z" fill="#00A0E3"/>
<path d="M23.2278 15.7484C23.4379 15.9787 23.4251 16.3389 23.1993 16.5529C22.9736 16.7671 22.6205 16.754 22.4106 16.5238L17.0913 10.6904C16.8812 10.4601 16.8941 10.0999 17.1198 9.88595C17.3455 9.67172 17.6987 9.68478 17.9085 9.915L23.2278 15.7484Z" fill="#00A0E3"/>
<path d="M14.2828 23.9124C14.6406 23.9124 14.9654 24.0613 15.2007 24.301C15.4359 24.5409 15.5817 24.8721 15.5817 25.237V27.083C15.5817 27.3982 15.3312 27.6536 15.0222 27.6536H13.5431C13.2341 27.6536 12.9836 27.3982 12.9836 27.083V25.237C12.9836 24.8721 13.1296 24.5407 13.3646 24.301C13.5998 24.0611 13.9245 23.9124 14.2823 23.9124H14.2828ZM14.2828 25.0534C14.2337 25.0534 14.1889 25.0744 14.156 25.1079C14.1231 25.1415 14.1025 25.1872 14.1025 25.2372V26.5129H14.4628V25.2372C14.4628 25.1872 14.4422 25.1415 14.4093 25.1079C14.3764 25.0744 14.3316 25.0534 14.2825 25.0534H14.2828Z" fill="#00A0E3"/>
<path d="M17.4999 23.9124C17.8577 23.9124 18.1826 24.0613 18.4178 24.301C18.653 24.5409 18.7988 24.8721 18.7988 25.237V27.083C18.7988 27.3982 18.5483 27.6536 18.2393 27.6536H16.7602C16.4512 27.6536 16.2008 27.3982 16.2008 27.083V25.237C16.2008 24.8721 16.3467 24.5407 16.5817 24.301C16.817 24.0611 17.1416 23.9124 17.4994 23.9124H17.4999ZM17.4999 25.0534C17.4509 25.0534 17.406 25.0744 17.3731 25.1079C17.3402 25.1415 17.3197 25.1872 17.3197 25.2372V26.5129H17.6799V25.2372C17.6799 25.1872 17.6594 25.1415 17.6264 25.1079C17.5935 25.0744 17.5487 25.0534 17.4997 25.0534H17.4999Z" fill="#00A0E3"/>
<path d="M20.717 23.9124C21.0748 23.9124 21.3997 24.0613 21.6349 24.301C21.8702 24.5409 22.0159 24.8721 22.0159 25.237V27.083C22.0159 27.3982 21.7655 27.6536 21.4565 27.6536H19.9773C19.6684 27.6536 19.4179 27.3982 19.4179 27.083V25.237C19.4179 24.8721 19.5639 24.5407 19.7989 24.301C20.0341 24.0611 20.3588 23.9124 20.7166 23.9124H20.717ZM20.717 25.0534C20.668 25.0534 20.6232 25.0744 20.5902 25.1079C20.5573 25.1415 20.5368 25.1872 20.5368 25.2372V26.5129H20.897V25.2372C20.897 25.1872 20.8765 25.1415 20.8436 25.1079C20.8107 25.0744 20.7658 25.0534 20.7168 25.0534H20.717Z" fill="#00A0E3"/>
<path d="M18.0593 10.3029C18.0593 10.6181 17.8089 10.8735 17.4999 10.8735C17.1909 10.8735 16.9404 10.6181 16.9404 10.3029V6.08484C16.9404 5.7697 17.1909 5.51425 17.4999 5.51425C17.8089 5.51425 18.0593 5.7697 18.0593 6.08484V10.3029Z" fill="#00A0E3"/>
<path d="M17.3141 6.62187C17.0233 6.51735 16.8706 6.19207 16.9733 5.8954C17.0758 5.59872 17.3948 5.44307 17.6856 5.54781L20.6607 6.61849C20.9516 6.72302 21.1042 7.0483 21.0015 7.34497C20.899 7.64164 20.5801 7.7973 20.2892 7.69255L17.3141 6.62187Z" fill="#00A0E3"/>
<path d="M17.6856 8.76301C17.3948 8.86753 17.0758 8.71187 16.9733 8.41542C16.8709 8.11875 17.0235 7.79347 17.3141 7.68895L20.2892 6.61827C20.5801 6.51375 20.899 6.6694 21.0015 6.96585C21.104 7.26252 20.9514 7.5878 20.6607 7.69233L17.6856 8.76301Z" fill="#00A0E3"/>
<path d="M14.2828 28.3846C14.6406 28.3846 14.9654 28.5335 15.2007 28.7732C15.4359 29.0131 15.5817 29.3442 15.5817 29.7092V31.5552C15.5817 31.8703 15.3312 32.1258 15.0222 32.1258H13.5431C13.2341 32.1258 12.9836 31.8703 12.9836 31.5552V29.7092C12.9836 29.3442 13.1296 29.0129 13.3646 28.7732C13.5998 28.5333 13.9245 28.3846 14.2823 28.3846H14.2828ZM14.2828 29.5256C14.2337 29.5256 14.1889 29.5465 14.156 29.5801C14.1231 29.6137 14.1025 29.6594 14.1025 29.7094V30.9851H14.4628V29.7094C14.4628 29.6594 14.4422 29.6137 14.4093 29.5801C14.3764 29.5465 14.3316 29.5256 14.2825 29.5256H14.2828Z" fill="#00A0E3"/>
<path d="M17.4999 28.3846C17.8577 28.3846 18.1826 28.5335 18.4178 28.7732C18.653 29.0131 18.7988 29.3442 18.7988 29.7092V31.5552C18.7988 31.8703 18.5483 32.1258 18.2393 32.1258H16.7602C16.4512 32.1258 16.2008 31.8703 16.2008 31.5552V29.7092C16.2008 29.3442 16.3467 29.0129 16.5817 28.7732C16.817 28.5333 17.1416 28.3846 17.4994 28.3846H17.4999ZM17.4999 29.5256C17.4509 29.5256 17.406 29.5465 17.3731 29.5801C17.3402 29.6137 17.3197 29.6594 17.3197 29.7094V30.9851H17.6799V29.7094C17.6799 29.6594 17.6594 29.6137 17.6264 29.5801C17.5935 29.5465 17.5487 29.5256 17.4997 29.5256H17.4999Z" fill="#00A0E3"/>
<path d="M20.717 28.3846C21.0748 28.3846 21.3997 28.5335 21.6349 28.7732C21.8702 29.0131 22.0159 29.3442 22.0159 29.7092V31.5552C22.0159 31.8703 21.7655 32.1258 21.4565 32.1258H19.9773C19.6684 32.1258 19.4179 31.8703 19.4179 31.5552V29.7092C19.4179 29.3442 19.5639 29.0129 19.7989 28.7732C20.0341 28.5333 20.3588 28.3846 20.7166 28.3846H20.717ZM20.717 29.5256C20.668 29.5256 20.6232 29.5465 20.5902 29.5801C20.5573 29.6137 20.5368 29.6594 20.5368 29.7094V30.9851H20.897V29.7094C20.897 29.6594 20.8765 29.6137 20.8436 29.5801C20.8107 29.5465 20.7658 29.5256 20.7168 29.5256H20.717Z" fill="#00A0E3"/>
</g>
</svg>
