<svg width="38" height="38" viewBox="0 0 38 38" fill="none" xmlns="http://www.w3.org/2000/svg">
<path id="Vector" fill-rule="evenodd" clip-rule="evenodd" d="M4.29981 33.326C4.60676 33.4078 4.81335 33.6392 5.06687 33.7843C5.26499 33.8974 5.67296 34.0613 5.93788 34.1386C9.28701 35.1157 10.913 32.6053 11.2878 32.5017C11.5999 32.4153 22.7164 32.4935 24.7491 32.4828C26.3514 32.4743 25.2692 32.7233 27.1243 33.7839C28.8018 34.7432 31.3513 34.4179 32.6964 33.0783C33.5925 32.1858 33.3667 32.4994 35.778 32.4824C36.3711 32.4782 36.4701 32.3935 36.7732 32.7129C36.59 33.4987 35.4974 32.8693 34.2631 33.1131C33.1783 33.3276 33.1216 34.4228 33.0203 34.8579C32.1024 35.0717 30.7755 34.9264 29.7226 34.9303C28.3156 34.9358 28.2517 36.1242 28.1185 36.6966C27.2813 36.8918 17.2946 36.7732 15.5578 36.7732H4.45231C4.19847 36.7732 3.93224 36.7826 3.68101 36.7787C3.2939 36.7725 3.2574 36.737 3.07362 36.5434C3.25544 35.7627 4.06975 36.5763 4.73743 35.3729C5.33635 34.2934 4.50444 33.632 4.29916 33.3257L4.29981 33.326ZM28.8086 30.0317H30.0342V28.8058H28.8086V30.0317ZM6.75088 30.0317H7.97642V28.8058H6.75088V30.0317ZM12.2653 22.6771H14.7161V21.4513H12.2653V22.6771ZM8.58903 22.6771H11.0398V21.4513H8.58903V22.6771ZM14.7161 2.52866C14.6561 2.14079 15.0185 1.3054 15.8797 1.2451C17.4135 1.13754 17.6256 3.54854 16.0035 3.65936C15.328 3.70531 14.8102 3.13817 14.7161 2.52866ZM13.4905 2.29887C13.4905 3.8898 14.6151 4.90348 15.7116 4.90348C16.507 4.90348 17.0629 4.82232 17.6869 4.19814C19.0666 2.8181 18.4471 0.000651885 15.7881 0.000651885C14.6063 0.000651885 13.4905 1.11668 13.4905 2.29887ZM28.1957 29.4955C28.1605 29.269 28.4039 28.7253 28.5196 28.5936C29.1371 27.8915 30.5487 28.1953 30.6279 29.357C30.6969 30.3684 29.4365 31.0506 28.6102 30.3068C28.4029 30.12 28.2299 29.7185 28.1957 29.4958V29.4955ZM26.9702 29.2657C26.9702 30.8566 28.0947 31.8703 29.1912 31.8703C29.9866 31.8703 30.5425 31.7892 31.1665 31.165C32.5462 29.7849 31.9267 26.9675 29.2678 26.9675C28.0859 26.9675 26.9702 28.0835 26.9702 29.2657ZM6.13763 29.4955C6.07767 29.1076 6.44002 28.2722 7.30125 28.212C8.83505 28.1044 9.04718 30.5154 7.42508 30.6262C7.11323 30.6474 6.74404 30.4792 6.55244 30.3068C6.3452 30.12 6.17217 29.7185 6.13795 29.4958L6.13763 29.4955ZM4.91209 29.2657C4.91209 30.0737 5.04276 30.5698 5.57944 31.1265C7.19633 32.8032 9.81392 31.4222 9.81392 29.649C9.81392 28.8534 9.73278 28.2973 9.10877 27.6732C7.59778 26.1618 4.91241 27.2351 4.91241 29.266L4.91209 29.2657ZM13.4902 16.5484H14.0262C14.4049 16.5484 14.7154 16.8594 14.7154 17.2378V19.6126H13.4899V16.5481L13.4902 16.5484ZM13.4902 14.097H18.4686C19.4234 14.097 19.351 14.995 19.803 16.5928L20.6131 19.6129H19.2344C19.2441 19.1755 19.5156 18.3636 19.6172 17.9275C19.4595 17.8519 18.6139 17.6397 18.3917 17.6211C18.2767 18.1149 17.9427 19.1345 17.9323 19.6129H15.941V17.0083C15.941 16.1654 15.0986 15.3229 14.256 15.3229H13.4902V14.097ZM12.2647 13.4842V20.226C12.2647 20.5966 12.5068 20.8388 12.8773 20.8388H21.4554C22.5698 20.8388 21.8239 19.2463 21.5629 18.2029L20.4068 13.9966C20.2074 13.4751 19.5407 12.8715 18.8512 12.8715H12.8773C12.5068 12.8715 12.2647 13.1136 12.2647 13.4842ZM29.1912 1.30312H29.6506C29.7067 1.54432 29.7947 1.66328 29.8921 1.90448L32.7697 8.75579C32.9369 9.14595 33.7645 10.9989 33.7867 11.2626C33.4762 11.2369 33.0887 11.1042 32.7919 11.0318L29.6444 10.3497C29.1159 10.2444 25.842 9.57717 25.3617 9.57717L29.1912 1.30312ZM24.0596 9.34705C22.9087 9.25122 20.5459 8.73428 19.3875 8.73428C19.4722 8.36988 21.2758 4.90511 21.632 4.16098C21.779 3.85394 21.7913 3.76007 22.1446 3.67793C22.503 3.91815 24.0068 7.19779 24.3431 7.83957C24.5122 8.16225 24.5549 8.24015 24.393 8.60423C24.2672 8.88682 24.13 9.0436 24.0593 9.34705H24.0596ZM6.75023 4.29071C6.75023 3.76431 7.05491 2.94293 7.4228 2.66523C8.57958 1.79171 9.76634 3.97193 8.86568 5.48757C7.95752 7.01591 6.75023 5.52081 6.75023 4.29103V4.29071ZM2.46134 1.2262C3.31573 1.2262 4.14535 2.92533 3.35125 4.26137C2.27332 6.07524 0.526088 3.61666 1.57143 1.8683C1.7601 1.55279 2.055 1.2262 2.46101 1.2262H2.46134ZM0.0105863 2.75845C0.0105863 3.65186 0.0268791 4.3057 0.599405 5.08079C1.86893 6.79981 1.84873 4.69748 1.84873 7.96799H0.0105863V9.19386C8.02498 9.19386 14.3234 9.2069 22.0149 10.32C26.164 10.9204 29.6255 11.5423 33.5876 12.5338C34.2409 12.6974 34.7724 12.8281 35.4264 12.9927C36.0625 13.1528 36.6184 13.3405 37.2329 13.4839C37.6311 11.7737 38.06 12.4862 35.6014 11.745C35.2879 11.6505 35.4085 11.7362 35.2788 11.4549L33.1956 6.49049C32.947 5.86175 32.7182 5.33991 32.4523 4.70596C32.1933 4.08862 31.9606 3.54658 31.6976 2.93283C30.869 0.999991 30.8374 0.000325942 29.1915 0.000325942C28.0598 0.000325942 27.4821 2.02899 26.9715 3.06581L25.6928 5.77081C25.5752 6.00582 25.3389 6.51103 25.2852 6.74212L23.7018 3.72911C23.5787 3.49932 23.5197 3.33798 23.388 3.12351C23.0179 2.51986 22.5545 2.45174 21.9152 2.45174C20.7359 2.45174 20.2396 4.04136 19.6684 5.18411C19.4067 5.7079 18.0861 8.2496 18.0088 8.58043C17.4448 8.3099 11.3933 8.04882 9.81098 8.04687C9.32155 8.04622 9.12408 7.96766 8.58805 7.96766C8.58805 6.58208 8.82462 7.65965 9.80447 6.34968C11.0606 4.6701 10.4692 1.22587 7.82229 1.22587C6.59056 1.22587 5.52469 2.72912 5.52469 3.98399C5.52469 5.09253 5.71858 6.22126 6.67138 6.89759C7.37001 7.39368 7.36284 6.96018 7.36284 7.96766H3.07394C3.07394 4.70074 3.04788 6.78514 4.29036 5.12382C5.54653 3.44423 4.9551 0 2.30819 0C1.07646 0 0.0105863 1.50325 0.0105863 2.75813V2.75845ZM4.29948 33.326C3.56859 33.1555 4.40767 33.0949 2.76764 33.0962C1.96408 33.0969 1.5685 33.2171 1.2358 32.8664C1.36647 32.3055 1.83081 32.4906 3.00128 32.4795C3.56729 32.474 3.48843 32.4573 3.78496 32.7683C3.97689 32.9697 4.1535 33.1079 4.29948 33.3263V33.326ZM12.2647 30.0317H24.5191C24.6194 30.4629 24.7292 30.8439 24.8254 31.2576H11.9584C12.0548 30.8443 12.1643 30.4632 12.2647 30.0317ZM25.7446 29.4189C25.7446 28.0467 26.6782 26.5725 27.9194 26.078C28.9585 25.6641 29.8797 25.6279 30.9221 26.0787C31.6862 26.4088 32.4285 27.1543 32.7603 27.9173C33.1858 28.8955 33.1858 29.9424 32.7603 30.9209C32.614 31.2572 32.247 31.7693 32.0088 32.0079C30.9521 33.0649 29.3378 33.3768 27.9197 32.7595C27.1569 32.4277 26.412 31.6849 26.0815 30.9209C25.9323 30.5754 25.7446 29.8648 25.7446 29.4192V29.4189ZM3.68688 29.4189C3.68688 26.9492 6.26536 24.9555 8.86438 26.0787C9.62851 26.4088 10.3708 27.1543 10.7025 27.9173C12.3367 31.6744 7.59224 34.8253 4.77523 32.0075C4.13753 31.3697 3.68688 30.3469 3.68688 29.4189ZM1.23612 22.6771H2.46166V25.1285H1.23612V22.6771ZM34.9357 20.2257C36.4613 20.3528 36.7738 21.4229 36.7738 22.6771C34.7193 22.6771 34.9357 22.8772 34.9357 20.2257ZM4.83584 16.5484C5.21448 16.5484 5.52502 16.8594 5.52502 17.2378V19.6126H3.9166L4.54518 17.2538C4.58102 17.1097 4.66314 16.5484 4.83551 16.5484H4.83584ZM6.06138 14.097H9.81424V19.6129H6.75056V17.0083C6.75056 16.1521 5.9167 15.3418 5.06557 15.3229C5.24902 14.5357 5.29627 14.097 6.06138 14.097ZM2.46166 20.3026V21.4519H1.23612C1.23612 19.0725 1.22016 19.8597 1.86535 17.5615L3.21504 12.8591C3.47018 12.1583 4.13232 11.6459 5.06557 11.6459H19.4644C21.4153 11.6459 21.5284 13.5644 22.095 15.5263L23.1671 19.2801C23.3007 19.7489 23.3372 20.226 23.9065 20.226H33.7098V22.2179C33.7098 23.0608 34.5521 23.9033 35.3948 23.9033H36.7735V28.1168C36.7735 29.0395 35.5219 28.8061 34.4759 28.8061C34.1266 28.8061 34.3051 28.195 33.8248 27.2354C33.1239 25.8349 31.5008 24.5158 29.7272 24.5158C28.2038 24.5158 27.077 24.8231 25.9932 25.9137C25.3604 26.5506 25.0111 27.121 24.7182 28.0089C24.5178 28.6161 24.6869 28.8058 24.3659 28.8058H12.4178C12.0685 28.8058 12.2471 28.1947 11.7668 27.2351C11.0658 25.8345 9.44277 24.5154 7.66914 24.5154C6.14577 24.5154 5.01897 24.8228 3.93518 25.9134C3.48387 26.3674 3.29259 26.6044 2.99639 27.196C2.78784 27.6122 2.64447 27.9623 2.55453 28.4395C2.47991 28.8361 2.61579 28.8058 1.92498 28.8058C0.98815 28.8058 1.2358 27.4942 1.2358 26.3544C2.5415 26.3544 3.68655 26.5995 3.68655 25.7416V20.8385H10.4265C10.797 20.8385 11.0391 20.5963 11.0391 20.2257V13.4839C11.0391 13.1133 10.797 12.8711 10.4265 12.8711H5.67785C4.99323 12.8711 4.35162 13.4614 4.14405 13.9419C3.93681 14.4217 2.46101 19.95 2.46101 20.3026H2.46166ZM0.0109122 19.6133V28.3469C0.0109122 28.8876 0.39542 29.4486 0.742455 29.6836C1.34105 30.0894 1.53884 30.0323 2.46199 30.0323C2.5604 30.4544 2.67803 30.8703 2.76829 31.2582C2.16253 31.2582 1.34496 31.1617 0.89854 31.3798C-0.597458 32.1109 -0.0630568 34.2031 1.31303 34.3227C2.34631 34.4124 3.2662 34.1082 3.68753 34.5525C3.53601 35.2028 3.29096 34.6897 2.53922 35.1659C1.2068 36.0098 1.98624 38 3.1515 38H28.1198C28.474 38 28.9197 37.662 29.096 37.4443C29.4489 37.0078 29.3658 36.808 29.4985 36.238C31.4275 35.7885 33.0363 36.708 33.9623 35.6467C34.3462 35.207 34.2618 34.9932 34.4003 34.3993C35.1354 34.2279 36.0041 34.4208 36.7679 34.3162C37.2988 34.2432 38 33.604 38 33.0206V32.561C38 31.9665 37.2838 31.3094 36.6982 31.2585C35.937 31.1924 34.818 31.2585 34.0174 31.2585C34.1139 30.8452 34.2233 30.4642 34.3237 30.0327C35.1224 30.0327 36.2609 30.178 36.8778 29.9059C37.4271 29.6637 38 29.0897 38 28.3472V21.8352C38 20.7195 37.1616 19.7717 36.4173 19.3577C35.4805 18.8369 33.9731 19.0005 32.6387 19.0005C29.8813 19.0005 27.1243 19.0005 24.3669 19.0005L23.6777 16.4725C23.3783 15.3998 22.6343 12.2444 22.012 11.5501C21.529 11.011 20.8311 10.4204 19.8483 10.4204H4.68366C3.79669 10.4204 2.96869 10.9856 2.44928 11.6329C1.90543 12.3108 0.750276 16.8851 0.368049 18.2081C0.269966 18.5481 0.0118898 19.2991 0.0118898 19.6139L0.0109122 19.6133Z" fill="#00A0E3"/>
</svg>
