<svg width="38" height="38" viewBox="0 0 38 38" fill="none" xmlns="http://www.w3.org/2000/svg">
<path id="Vector" fill-rule="evenodd" clip-rule="evenodd" d="M25.3236 22.8603C25.3236 22.5854 25.3668 22.8048 25.3935 22.55C25.4106 22.3862 25.4181 22.4483 25.4517 22.3232C25.4883 22.186 25.5172 21.9856 25.5736 21.8511C25.6105 21.7629 25.5838 21.8661 25.609 21.744C25.6234 21.6744 25.6105 21.6978 25.6372 21.6297L25.9256 20.7777C25.9274 20.772 25.9298 20.7657 25.9319 20.7603C25.934 20.7549 25.937 20.7489 25.9391 20.7438C25.9583 20.6991 25.9652 20.7 25.9826 20.6448L26.103 20.3138C26.1222 20.2706 26.1081 20.3135 26.1234 20.2631L26.1531 20.1502C26.1735 20.1001 26.1552 20.1628 26.1849 20.0872L26.4037 19.4273C26.4379 19.3346 26.4205 19.2269 26.5121 19.2269H33.9712C34.0844 19.2269 34.0256 19.3556 34.0592 19.4714C34.0739 19.5219 34.0844 19.5201 34.1009 19.596C34.1177 19.6731 34.1087 19.6941 34.115 19.7718C34.1243 19.8883 34.1705 19.9339 34.1822 20.0371C34.2098 20.2817 34.1552 20.0695 34.2402 20.3354C34.2699 20.4281 34.2504 20.5443 34.2741 20.634C34.2927 20.7048 34.3038 20.7042 34.317 20.7573C34.3338 20.8254 34.3242 20.8632 34.3311 20.9335C34.3422 21.0469 34.3884 21.0937 34.3983 21.199C34.4106 21.3299 34.4067 21.3986 34.4412 21.5126C34.4751 21.6249 34.4664 21.6747 34.4839 21.8025C34.4905 21.8508 34.4926 21.9042 34.501 21.9517C34.5397 22.1701 34.5493 22.0846 34.5658 22.4093C34.5724 22.5395 34.6165 22.5836 34.6366 23.0275C34.6417 23.1406 34.6741 23.2093 34.6954 23.3249C34.7327 23.5271 34.702 23.7507 34.742 23.967C34.787 24.2113 34.7708 24.347 34.7786 24.6191C34.7849 24.8346 34.8512 25.0161 34.8515 25.2352C34.8518 25.5182 34.8434 25.9368 34.8806 26.2276C34.8917 26.3134 34.9196 26.4356 34.9226 26.5418C34.9346 26.9577 34.8815 27.5258 34.9253 27.9168C34.9553 28.1854 34.9439 28.613 34.9457 28.9179C34.9463 29.0343 34.9827 29.2029 34.8743 29.2029H25.2533C25.2533 28.9998 25.2479 29.0835 25.2873 28.9044L25.3239 28.2049C25.3293 28.0977 25.353 28.0845 25.3659 28.0092C25.4322 27.6194 25.3545 27.512 25.4304 27.0996C25.467 26.9007 25.4682 26.6054 25.467 26.3998C25.4658 26.1862 25.5385 25.8507 25.5385 25.4738V23.7636C25.5385 23.6622 25.5111 23.6336 25.4871 23.5538C25.4592 23.4605 25.4802 23.3999 25.458 23.2978C25.4337 23.1859 25.4142 23.2177 25.395 23.0761C25.3656 22.8615 25.3248 22.9561 25.3248 22.8612L25.3236 22.8603ZM17.2467 16.3521V17.3021C17.2467 17.3576 17.286 17.3973 17.3419 17.3973C17.6051 17.3973 18.1882 17.4255 18.4109 17.3735C18.4109 17.2082 18.4541 16.319 18.3899 16.2545C18.3254 16.19 17.4361 16.2335 17.2707 16.2335C17.2584 16.2869 17.247 16.2881 17.247 16.3524L17.2467 16.3521ZM18.4583 26.8509V36.8032H14.5429C14.5399 36.7717 14.5366 36.7417 14.5327 36.7138C14.5282 36.6808 14.5012 36.5695 14.4967 36.5362C14.4628 36.291 14.4919 35.9684 14.4646 35.7133C14.4481 35.5588 14.4184 35.4994 14.4199 35.3307C14.4211 35.1597 14.4004 35.0651 14.3962 34.9268C14.3911 34.7531 14.326 34.4266 14.3242 34.1436C14.3239 34.0671 14.3296 34.0124 14.3155 33.9383C14.2422 33.5545 14.2818 33.373 14.2479 33.1509C14.2182 32.9558 14.1804 32.7875 14.1825 32.575C14.1843 32.3929 14.1621 32.3326 14.1378 32.1921C14.0982 31.9637 14.1129 31.6388 14.0655 31.4095C14.0156 31.1688 14.0495 30.8702 13.9871 30.6092C13.9376 30.4027 13.9871 30.1179 13.9124 29.8289C13.8587 29.6213 13.9205 29.2999 13.847 29.0394C13.7845 28.8182 13.8482 28.4896 13.7926 28.2388C13.7722 28.1463 13.7596 28.1746 13.7545 28.0632C13.7512 27.9942 13.759 27.918 13.7554 27.8487C13.75 27.7457 13.7368 27.7619 13.7314 27.6587C13.7278 27.5897 13.7356 27.5153 13.7305 27.4459C13.7137 27.2242 13.6585 26.9205 13.6597 26.6615C13.6606 26.4926 13.6618 26.3974 13.6366 26.2573C13.5712 25.893 13.5877 25.4198 13.5892 25.0221C13.5898 24.8418 13.5654 24.7536 13.5654 24.5948C13.6189 24.5825 13.6201 24.5711 13.6843 24.5711H24.208C24.29 24.5711 24.2999 24.5888 24.3743 24.5948L24.3035 26.3056C24.3044 26.4806 24.262 26.5382 24.2551 26.6849C24.2518 26.7545 24.2581 26.8299 24.256 26.8998C24.2527 27.0135 24.2371 27.0081 24.2314 27.1126C24.2236 27.2566 24.2476 27.4174 24.2179 27.5504C24.1477 27.8646 24.19 28.1638 24.1546 28.366C24.1435 28.4299 24.1207 28.4518 24.1138 28.5389L24.0214 29.5865C24.0063 29.7245 24.0334 29.8682 24.0123 30.0051C23.9961 30.1107 23.9535 30.2533 23.9463 30.3904C23.9385 30.5419 23.9532 30.7067 23.9295 30.8246C23.865 31.1433 23.8962 31.3696 23.8518 31.6258L23.7335 32.8616C23.7314 33.1086 23.6744 33.2664 23.6621 33.4315C23.6465 33.64 23.669 33.8735 23.6285 34.0866C23.5517 34.4893 23.5991 34.6246 23.564 34.901C23.5547 34.9736 23.5307 34.9997 23.5219 35.0726C23.5123 35.1522 23.5174 35.2125 23.5054 35.2935C23.4847 35.4339 23.4961 35.5897 23.4964 35.7355C23.4967 35.9618 23.4238 36.2253 23.4244 36.5422C23.4244 36.6307 23.422 36.7177 23.4181 36.8035H19.6474V26.8512C19.6474 26.7966 19.6309 26.7801 19.5763 26.7801H18.5309C18.4763 26.7801 18.4598 26.7966 18.4598 26.8512L18.4583 26.8509ZM13.3395 36.8032H11.6303C11.6456 36.7066 11.6597 36.6079 11.6645 36.5185C11.6747 36.3297 11.6558 36.1809 11.6846 36.0158C11.7329 35.7385 11.7308 35.3331 11.7764 35.0624C11.8082 34.8725 11.8001 34.7813 11.8064 34.5697L11.9019 33.6202C11.9031 33.4717 11.9148 33.5092 11.9397 33.397C11.9886 33.1761 11.9361 32.9015 12 32.6734C12.0555 32.4751 12.0081 32.148 12.0594 31.949C12.1144 31.7372 12.0808 31.4584 12.1294 31.2351C12.1678 31.0593 12.1894 30.9837 12.187 30.7703C12.1816 30.2626 12.2929 30.3664 12.6858 30.3664C12.75 30.3664 12.7512 30.3778 12.8046 30.3901C12.8046 30.719 12.8503 30.9912 12.8782 31.2904C12.8908 31.4278 12.8863 31.6132 12.9025 31.7648C12.9169 31.8989 12.9673 32.0364 12.9715 32.1945C12.9769 32.3914 12.9673 32.4928 12.9976 32.6674C13.0411 32.9177 13.0384 33.3129 13.0919 33.5707C13.1357 33.7811 13.1057 34.028 13.1405 34.2585C13.1525 34.3371 13.1774 34.3923 13.184 34.4764C13.202 34.7086 13.1756 34.9484 13.2179 35.1789C13.2827 35.5309 13.2422 35.8178 13.2854 36.1091C13.2962 36.1812 13.323 36.2289 13.3278 36.3282C13.3356 36.493 13.3173 36.6448 13.3395 36.8038V36.8032ZM10.443 36.8032H8.31484V30.4375C8.31484 30.3829 8.33135 30.3664 8.38597 30.3664H10.9754C11.0763 30.3664 11.0333 30.4246 11.0264 30.5083L10.946 31.4059C10.8929 31.7555 10.9094 31.7492 10.88 32.0997L10.8103 32.5288C10.7944 32.7233 10.8232 32.8166 10.7803 32.9975C10.7494 33.1281 10.7362 33.2796 10.7377 33.454C10.7398 33.6754 10.714 33.7127 10.6828 33.8978C10.6597 34.0352 10.6804 34.2138 10.6633 34.377C10.6495 34.5094 10.6021 34.6657 10.5949 34.8077C10.5862 34.9832 10.6009 35.1426 10.5787 35.2905C10.5132 35.7271 10.5384 35.8436 10.4982 36.2076C10.4787 36.3834 10.4565 36.595 10.4427 36.8032H10.443ZM7.12696 36.8032H4.99431C4.9892 36.7279 4.9886 36.6508 4.9889 36.5419C4.9892 36.3708 4.9841 36.2508 4.95499 36.1007L4.91808 35.6389C4.91868 35.5189 4.89707 35.2956 4.87306 35.2089C4.82264 35.0279 4.85715 34.6267 4.78872 34.3194C4.7398 34.1007 4.78782 33.8429 4.7413 33.6304C4.68008 33.3498 4.69659 33.051 4.64196 32.756C4.60295 32.5456 4.63986 32.277 4.59034 32.0712C4.52822 31.8119 4.53902 31.4488 4.4874 31.2C4.45439 31.0404 4.482 30.9002 4.46339 30.7253C4.45769 30.6713 4.43398 30.5734 4.42318 30.5251C4.40277 30.4336 4.36825 30.3661 4.46639 30.3661H7.05583C7.11046 30.3661 7.12696 30.3826 7.12696 30.4372V36.8032ZM5.06033 37.991H32.9256C34.2585 37.991 34.0667 38.0861 34.0658 37.6585C34.0652 37.3146 34.0502 37.2279 34.1132 36.8747C34.1384 36.7342 34.1372 36.6391 34.1363 36.4704C34.1357 36.3189 34.154 36.2469 34.1606 36.0911C34.1642 36.0047 34.2327 35.5708 34.2315 35.3307C34.2306 35.1537 34.2792 35.1324 34.2792 34.8323C34.2792 34.6579 33.9109 34.7413 33.5463 34.6864C33.3812 34.6615 33.4463 34.6423 33.2101 34.6423C32.9986 34.6423 33.0946 35.1834 33.0622 35.3967C33.0421 35.5291 33.0139 35.5831 32.9977 35.7835C32.9854 35.9384 33.0121 36.0983 32.9908 36.2517C32.9247 36.7273 32.9277 36.565 32.9277 36.8035H30.8107V30.3664H33.5187L33.4956 30.7469C33.4797 30.8375 33.455 30.8975 33.4481 30.9846C33.4316 31.1949 33.4511 31.3228 33.4172 31.5238C33.3611 31.8554 33.3962 31.8257 33.3698 32.0226L33.3047 32.5276C33.3038 32.6053 33.2867 32.9705 33.2711 33.0405C33.2435 33.1644 33.2414 33.1293 33.2327 33.2871C33.2119 33.6604 33.1534 33.5842 33.6645 33.6406C33.7558 33.6508 33.85 33.6358 33.9406 33.6496L34.3026 33.6916C34.4121 33.6916 34.4133 33.4513 34.4256 33.3636C34.4469 33.2148 34.4325 33.0762 34.4457 32.9087C34.4556 32.7809 34.5091 32.6542 34.5166 32.5045C34.5259 32.3184 34.5076 32.2212 34.5421 32.055C34.5913 31.8173 34.5856 31.4488 34.6336 31.2201C34.6852 30.9744 34.6369 30.7673 34.7303 30.3667L35.8707 30.367C36.2068 30.3697 36.1555 30.3301 36.1555 30.0579C36.1555 29.7965 36.1555 29.5354 36.1555 29.2741C36.1555 28.9806 36.1315 28.7663 36.1318 28.4902C36.1321 28.2298 36.136 27.9657 36.1327 27.7055C36.1297 27.4567 36.0844 27.2194 36.0844 26.9463C36.1 26.9358 36.1357 26.9064 36.1381 26.9052C36.1909 26.8746 36.1357 26.9007 36.2053 26.8773L36.2771 26.8542C36.2921 26.8479 36.3113 26.8365 36.3401 26.8224C36.3599 26.8125 36.38 26.8038 36.4043 26.7915C36.4439 26.7717 36.4334 26.7753 36.4665 26.7587C36.4908 26.7464 36.5067 26.7407 36.5307 26.7281L36.8509 26.5259C37.0649 26.3866 37.2573 26.1907 37.3929 25.9752C37.4106 25.947 37.4085 25.9473 37.4274 25.9149C37.5088 25.7772 37.609 25.5812 37.627 25.4255C37.6381 25.33 37.6252 25.3444 37.6549 25.2634C37.6813 25.1911 37.6882 25.2145 37.6984 25.1167L37.7597 24.798C37.7801 24.7158 37.7816 24.5432 37.7951 24.4532C37.808 24.3662 37.8155 24.3773 37.832 24.3001C37.8674 24.1369 37.8527 23.9295 37.8665 23.7411C37.8755 23.6177 37.913 23.5577 37.9136 23.4083C37.9142 23.2831 37.9214 22.3532 37.9605 22.2436C37.9623 22.2382 37.9659 22.2325 37.9677 22.2271C38.019 22.0744 37.9842 21.3194 37.9842 21.151C37.9842 20.6499 38.0403 20.7975 37.9412 20.3387C37.9076 20.1821 37.9364 19.8198 37.9364 19.6545C37.9364 19.3013 37.9379 18.922 37.8848 18.5661C37.8659 18.4392 37.8662 18.3389 37.8662 18.1811L37.8071 17.4801C37.7609 17.2379 37.8029 16.9876 37.7648 16.7386L37.7053 16.4181C37.6897 16.2962 37.7099 16.166 37.6966 16.0469C37.6861 15.9529 37.6414 15.8344 37.6309 15.7324C37.6135 15.5643 37.6489 15.5166 37.5955 15.3639C37.5412 15.2087 37.5799 15.1787 37.5475 15.032C37.5343 14.9723 37.5082 14.9401 37.4962 14.8933C37.4791 14.8252 37.4911 14.7877 37.48 14.7196C37.4701 14.6599 37.4418 14.6263 37.4277 14.5818C37.4073 14.5173 37.419 14.4879 37.3995 14.4201C37.3698 14.3178 37.3698 14.3829 37.3464 14.2833C37.2753 13.979 37.1555 13.7056 37.046 13.4199C37.0172 13.3449 37.0253 13.3521 36.9926 13.2831L36.9632 13.2173C36.9607 13.2122 36.9583 13.2056 36.9559 13.2005L36.7122 12.7081C36.7095 12.7036 36.7057 12.6979 36.7029 12.6937C36.7002 12.6892 36.6963 12.6835 36.6939 12.679L35.7915 11.3247C35.7882 11.3208 35.7837 11.3157 35.7807 11.3118C35.7774 11.3079 35.7729 11.3028 35.7699 11.2989L35.4178 10.8908C35.3986 10.8701 35.3923 10.8617 35.3728 10.8407L34.8338 10.3107C34.8143 10.2927 34.8017 10.2816 34.7834 10.2663C34.7369 10.2276 34.7213 10.2222 34.6768 10.1826L33.561 9.37414C33.5208 9.34863 33.4821 9.31532 33.4496 9.29552L33.1405 9.12957C33.1054 9.11577 33.0988 9.11246 33.0433 9.10796C33.0265 8.90631 33.0721 9.01734 33.1999 8.71815L33.2711 8.5519C33.3188 8.44387 33.3185 8.36735 33.3545 8.25542C33.3887 8.14919 33.3818 8.17349 33.4001 8.03996C33.4139 7.94063 33.6546 7.63754 33.7336 7.51811L33.8812 7.28584C33.9109 7.24143 33.8986 7.25943 33.9265 7.21262C34.0553 6.99626 34.2011 6.65086 34.3257 6.4717C34.3257 7.03977 34.2861 7.27204 34.4067 7.79209L34.5115 8.09097C34.6114 8.28753 34.7041 8.48769 34.8458 8.65933C35.1186 8.98913 35.4181 9.25831 35.7909 9.47197L36.3653 9.72884C36.4244 9.74925 36.4562 9.74175 36.5229 9.76125C36.6021 9.78436 36.5934 9.80687 36.6792 9.81857C36.7396 9.82667 36.7966 9.81737 36.8611 9.82667C37.0454 9.85338 37.6402 9.97491 37.79 9.84138C37.8878 9.75405 37.8449 9.41915 37.8746 9.28471C37.9433 8.97383 37.9223 8.5258 37.9524 8.43607L37.9836 8.15849C37.9809 7.72817 38.0202 5.26896 37.9671 5.11081L37.9364 4.83263C37.9373 4.7324 37.922 4.53255 37.9019 4.43952C37.8815 4.34409 37.8707 4.3777 37.8647 4.26277C37.8536 4.0425 37.745 3.40212 37.687 3.18156C37.6711 3.12154 37.6444 3.08373 37.6336 3.02131C37.5856 2.74763 37.5181 2.6447 37.4884 2.52527L37.4202 2.33201C37.362 2.18977 37.4662 2.44695 37.4076 2.2969L37.2834 2.01722C37.2642 1.97911 37.2624 1.96981 37.245 1.9368L37.1519 1.76875C37.1495 1.76395 37.1459 1.75795 37.1435 1.75345C37.1411 1.74864 37.1375 1.74264 37.1351 1.73814C37.1162 1.70273 37.1162 1.69673 37.0937 1.66072L36.8644 1.36723C36.8611 1.36363 36.856 1.35883 36.8527 1.35523L36.4226 0.977722C36.404 0.963618 36.3737 0.944413 36.3518 0.929708L36.1699 0.802772C36.1456 0.786567 36.1213 0.772463 36.0964 0.757459C36.0457 0.72685 36.0028 0.699242 35.9622 0.677936C35.9352 0.663832 35.9238 0.660831 35.8977 0.647327L35.6288 0.512588C35.6231 0.510488 35.6162 0.509287 35.6105 0.507187L35.5292 0.469976C35.5244 0.467575 35.5187 0.463674 35.5139 0.461574L34.9226 0.244911C34.8497 0.217904 34.8239 0.229907 34.7423 0.211602L34.4181 0.132079C34.305 0.116474 34.3248 0.108972 34.2468 0.0897666C34.1309 0.0609583 33.9565 0.0723616 33.8665 0.042353C33.6516 -0.0290676 33.2906 0.0114441 33.0424 0.0114441C32.8347 0.0114441 32.3923 -0.0137632 32.2119 0.0126444C32.0448 0.0369514 32.2414 0.0417528 32.0445 0.0591578C31.7945 0.0813642 31.5691 0.123976 31.3437 0.189695C31.2795 0.208601 31.2275 0.210701 31.1675 0.227206C31.0808 0.251213 31.115 0.258415 31.0127 0.286323C30.9133 0.313331 30.9373 0.298327 30.8482 0.335537L30.1903 0.627822C30.1858 0.630522 30.1801 0.634423 30.1756 0.636824C30.1711 0.639525 30.1654 0.643126 30.1609 0.645827L30.0694 0.696841C30.0073 0.72625 30.0958 0.711546 29.9778 0.724149C29.916 0.730751 29.8293 0.720548 29.7639 0.723849L29.3701 0.757459C29.2101 0.792869 28.9811 0.801872 28.8263 0.854987C28.7158 0.892798 28.5916 0.896399 28.5003 0.93301L27.8326 1.16798C27.8257 1.17098 27.8047 1.17788 27.7978 1.18088L27.3215 1.44106C27.2176 1.50317 27.1657 1.54489 27.0694 1.61661L26.5334 2.12585C26.5003 2.16576 26.4745 2.20388 26.4415 2.24769L25.9727 3.06152C25.9352 3.13864 25.9529 3.13174 25.9253 3.20406L25.8116 3.51765C25.7894 3.59358 25.8053 3.63019 25.7861 3.70581C25.7723 3.75982 25.7404 3.80844 25.7311 3.86455C25.7197 3.93297 25.7302 4.00079 25.723 4.07041C25.7098 4.19615 25.6546 4.27657 25.6546 4.42962C25.6546 4.7168 25.6111 5.0643 25.6999 5.33438C25.7344 5.43911 25.7125 5.45261 25.7314 5.56424C25.7368 5.59605 25.7443 5.61196 25.7618 5.65277L26.5175 7.31975C26.5301 7.34016 26.5304 7.34166 26.5439 7.36476L26.7506 7.68045C26.8125 7.76418 26.8779 7.94033 26.9847 7.96884C26.9847 8.2074 27.0559 8.28603 27.0559 8.46758C26.7152 8.46758 26.4637 8.42077 26.1468 8.37905C25.9874 8.35805 25.8197 8.38776 25.6603 8.36675L25.2203 8.30793C25.0211 8.28123 24.3476 8.33434 24.2329 8.29743C24.1252 8.26262 24.2684 8.03636 24.2762 7.94483C24.2912 7.76808 24.3242 7.66545 24.3242 7.4941V5.47512C24.3242 5.24375 24.2744 5.12702 24.2771 4.88095C24.2786 4.7348 24.2744 4.70269 24.235 4.59046C24.1876 4.45602 24.2119 4.34559 24.1576 4.19285C24.1123 4.06591 24.0859 3.83545 24.0193 3.6659L23.9286 3.42403C23.9055 3.37031 23.9049 3.35771 23.8833 3.30309C23.8674 3.26288 23.8617 3.25478 23.841 3.20286L23.476 2.49886C23.0889 1.90679 22.6336 1.42845 22.061 1.01583L21.9181 0.921306C21.5015 0.670434 21.4397 0.665933 21.0517 0.481079L20.3578 0.248512C20.2716 0.218204 20.1783 0.223005 20.0787 0.195097C20.0195 0.178592 20.0213 0.16929 19.9499 0.157586C19.9073 0.150684 19.841 0.145283 19.8014 0.139881L19.5087 0.0996695C19.3383 0.0480546 18.7929 0.0822645 18.5985 0.0813642C18.4094 0.0804639 18.4436 0.117074 18.3137 0.129078C18.1894 0.140481 18.1231 0.139581 18.0066 0.154585L17.3542 0.30973C17.3011 0.328935 17.3059 0.34304 17.2386 0.360445C17.1621 0.37995 17.1747 0.364046 17.103 0.391053C17.055 0.409059 17.045 0.417161 16.9838 0.438167L16.3776 0.710945C16.3497 0.724749 16.3383 0.728351 16.3128 0.740954L15.8983 0.991826C15.6168 1.17698 15.3323 1.42455 15.1048 1.67122L14.8629 1.9281C14.8116 1.99201 14.7635 2.04873 14.7176 2.11535L14.1882 2.9874C14.1615 3.03752 14.1861 2.9841 14.1645 3.03481C14.1381 3.09633 14.145 3.09273 14.1153 3.15185L13.8133 4.0137C13.7752 4.10222 13.7899 4.20605 13.7578 4.29068C13.7443 4.32609 13.7194 4.3615 13.711 4.41041C13.6888 4.53885 13.717 4.58326 13.6801 4.712C13.6543 4.80202 13.6348 4.87705 13.6348 4.99918V7.8494L13.7509 8.23621C13.7647 8.27342 13.8061 8.30073 13.7062 8.30073H13.0174L12.988 4.57696C12.9742 4.49474 12.9316 4.41971 12.9241 4.30838C12.9151 4.17784 12.8082 3.74182 12.7464 3.60708L12.2368 2.54897C12.2137 2.51416 12.2293 2.54087 12.208 2.50666L11.925 2.10065C11.922 2.09674 11.9175 2.09134 11.9145 2.08744C11.9115 2.08354 11.9067 2.07844 11.9037 2.07454C11.8503 2.01122 11.8085 1.96111 11.7491 1.89659L11.4358 1.56859C11.3725 1.50918 11.3257 1.46176 11.2638 1.40805C11.1411 1.30062 10.8779 1.07885 10.6702 0.956716C10.4454 0.824378 10.2251 0.679737 9.98441 0.573806C9.9457 0.556701 9.97301 0.569305 9.93699 0.550099C9.93249 0.547698 9.92679 0.543497 9.92229 0.541097L8.87277 0.189095C8.44599 0.0624588 7.32834 -0.00836164 6.95379 0.0996695C6.7176 0.167789 6.476 0.175591 6.2233 0.271919C6.10745 0.316032 5.9841 0.337038 5.78212 0.424663L4.58404 1.10316C4.52702 1.14667 4.49941 1.18388 4.44178 1.22229C4.46099 1.2511 4.46159 1.2478 4.482 1.27721C4.49671 1.29881 4.50841 1.31832 4.51982 1.33452L4.85655 1.75795C4.93908 1.85968 5.07324 1.97461 5.10685 2.10125C5.28422 2.10125 5.30793 2.02502 5.42648 1.9458L6.79653 1.34413C6.9766 1.28261 6.77822 1.29341 7.17348 1.29341V3.78743C7.17348 3.96358 6.76292 4.23246 6.64407 4.30328L5.46069 4.83023C5.39227 4.85394 5.41958 4.85184 5.36135 4.87344L4.87456 5.02799C4.83404 5.03879 4.80553 5.03789 4.75361 5.04959C4.58134 5.08831 4.51291 5.16333 4.51291 5.35508C4.51291 5.85713 4.46729 7.73927 4.55553 8.11528C4.58104 8.22451 4.59124 8.36855 4.63056 8.46758L4.7191 8.68784C4.7413 8.73766 4.7266 8.71965 4.75391 8.77157L4.89197 9.00413C4.91477 9.08756 4.85865 9.09146 4.76111 9.14247C4.7251 9.16108 4.7272 9.16258 4.68518 9.18509L3.81363 9.73875C3.80793 9.74295 3.79202 9.75495 3.78662 9.75915L3.65757 9.84408C3.65757 8.5297 3.65757 7.21532 3.65757 5.90124C3.65757 5.58825 3.64196 5.23445 3.65697 4.92686C3.66537 4.75581 3.71849 4.66939 3.7287 4.49984C3.7347 4.39991 3.83164 4.13553 3.86465 4.0182C3.88026 3.96298 3.86885 3.97769 3.88956 3.92427L4.11915 3.41742C4.14767 3.36581 4.18008 3.319 4.20859 3.26948L4.26711 3.16175C4.34214 3.03662 4.45469 2.93789 4.4892 2.78994C4.43368 2.70712 4.35295 2.65971 4.27522 2.60029L3.89166 2.2951C3.86045 2.26959 3.85385 2.26539 3.82414 2.24379C3.7326 2.17777 3.67858 2.11085 3.56303 2.10125C3.53602 2.20207 3.42708 2.2909 3.36585 2.37913L2.65667 3.92667L2.56603 4.33479C2.54502 4.45362 2.53092 4.46923 2.51321 4.61447C2.50091 4.7171 2.4928 4.79152 2.494 4.92806C2.4958 5.14472 2.46999 5.30737 2.47029 5.54564L2.47149 10.7485C2.47029 10.9394 2.41087 11.0165 2.30012 11.1474L2.26621 11.1846C2.26291 11.1882 2.25781 11.193 2.25451 11.1966C2.20559 11.2491 2.15787 11.3025 2.10805 11.3589L1.83914 11.7313C1.65366 11.978 1.46249 12.2445 1.32353 12.5223L0.999402 13.172C0.814527 13.5709 0.679473 13.9499 0.561526 14.3733L0.494299 14.6389C0.475691 14.7412 0.437876 14.7232 0.427372 14.8804C0.416267 15.0434 0.391957 15.0257 0.365247 15.1508C0.344538 15.2483 0.364346 15.3348 0.342438 15.4368C0.319929 15.5424 0.289016 15.5973 0.284214 15.7111C0.27341 15.964 0.239196 16.079 0.216087 16.2842C0.191177 16.506 0.220289 16.7206 0.168968 16.9021C0.136255 17.0182 0.142257 17.0404 0.142857 17.1848L0.0465187 18.3947C0.039916 18.6108 0.0714287 18.8407 0.0417168 19.0549C0.0291117 19.1459 0 19.2221 0 19.3457V23.1223C0 23.2528 0.0450181 23.2537 0.0486195 23.4062C0.0615247 23.9493 0.069628 23.8872 0.122149 24.4013C0.127851 24.4577 0.132953 24.4733 0.141657 24.548L0.283014 25.2856C0.297119 25.4252 0.343338 25.5983 0.395559 25.6958L0.442078 25.7919C0.444479 25.7967 0.44748 25.803 0.450181 25.8075L1.06003 26.504L1.4892 26.7635C1.59754 26.8212 1.70018 26.8878 1.82923 26.8986C1.82923 27.2842 1.87095 28.02 1.81933 28.3612L1.78182 29.8202C1.78182 29.9769 1.72059 30.3664 1.87695 30.3664H3.2311C3.2311 30.4639 3.25001 30.4885 3.25511 30.58C3.25961 30.6641 3.24911 30.7574 3.25571 30.8408C3.26711 30.9888 3.32534 31.1061 3.32714 31.2919C3.32954 31.5226 3.33014 31.5937 3.36795 31.7738C3.40757 31.9625 3.38326 32.064 3.39857 32.2656C3.40967 32.41 3.46219 32.551 3.46909 32.6942C3.4787 32.8946 3.46819 33.0065 3.4961 33.1899L3.53932 33.6694C3.54112 33.8255 3.59184 33.9866 3.60895 34.1223C3.63806 34.3521 3.60205 34.6249 3.65367 34.8377C3.70709 35.057 3.69118 35.3406 3.70739 35.5678C3.71369 35.6551 3.7425 35.7076 3.75121 35.7853C3.76051 35.8679 3.74821 35.9594 3.75511 36.0428L3.84905 36.9941C3.85805 37.1585 3.83464 37.353 3.85235 37.5132C3.86885 37.6615 3.89647 37.8202 3.89647 37.9919H5.06063L5.06033 37.991ZM29.6234 36.8032H27.4901C27.4637 36.4999 27.4592 36.1554 27.4445 36.0839C27.3851 35.7928 27.4016 35.4168 27.353 35.1303C27.3167 34.9169 27.3314 34.6225 27.2996 34.3995C27.2846 34.2939 27.2642 34.2333 27.2533 34.161C27.2299 34.0082 27.2524 33.8018 27.2317 33.6601C27.2023 33.4582 27.1744 33.4333 27.1768 33.1926C27.1783 33.0164 27.1654 32.8616 27.1261 32.7209C27.0643 32.4988 27.121 32.1921 27.061 31.9785C27.0091 31.7936 27.0466 31.4554 26.9955 31.26L26.9385 30.7943C26.931 30.4864 26.8446 30.3661 26.9628 30.3661H29.5523C29.6069 30.3661 29.6234 30.3826 29.6234 30.4372V36.8032ZM24.5961 36.8032L24.6045 36.5353C24.6645 36.246 24.6375 35.7241 24.6771 35.5627C24.7035 35.4552 24.7293 35.2158 24.7308 35.0939C24.7374 34.5478 24.8041 34.5151 24.8011 34.1193C24.7993 33.8861 24.8254 33.8426 24.853 33.6487C24.8761 33.4861 24.8596 33.3285 24.8734 33.1464C24.8845 32.9987 24.94 32.8619 24.9445 32.6951C24.9502 32.4886 24.9349 32.3848 24.9733 32.2011C25.0102 32.025 25.0142 31.9484 25.0142 31.7195C25.0142 31.5433 25.0511 31.4161 25.0772 31.26C25.1075 31.0785 25.0784 30.3664 25.2287 30.3664C25.9022 30.3664 25.657 30.2872 25.744 30.8015C25.8041 31.1577 25.7798 31.2723 25.8152 31.5142C25.8323 31.6303 25.8401 31.6388 25.8605 31.7303C25.8869 31.85 25.8707 32.1063 25.8869 32.2266C25.9106 32.4043 25.9436 32.5132 25.9415 32.6945C25.94 32.8211 25.961 33.0822 25.9862 33.1722C26.0505 33.4009 26.0027 33.6667 26.046 33.8963C26.0886 34.1235 26.0904 34.3701 26.109 34.6171L26.1759 35.0729C26.1957 35.2542 26.166 35.4051 26.2008 35.5705C26.2585 35.8448 26.2464 36.2607 26.2915 36.5251C26.3095 36.6316 26.317 36.7123 26.32 36.8032H24.5961ZM19.4796 17.3735C19.6672 17.4174 20.4559 17.4174 20.6438 17.3735L20.6441 16.4706C20.6483 16.1528 20.7737 16.2335 19.5511 16.2335C19.4337 16.2335 19.4799 16.5234 19.4799 16.756C19.4799 16.9618 19.4799 17.1677 19.4799 17.3735H19.4796ZM1.90066 25.6394C1.62515 25.4552 1.45919 25.3456 1.42557 24.9981C1.41387 24.8763 1.40366 24.8862 1.37425 24.7884C1.34574 24.6936 1.36315 24.6437 1.34874 24.5288C1.31423 24.2554 1.30883 24.5366 1.28332 24.0241C1.27251 23.805 1.21339 23.6607 1.21099 23.5502C1.20678 23.3747 1.22869 23.1535 1.20558 22.9855C1.19388 22.899 1.18848 22.8384 1.18908 22.7172C1.18968 22.5665 1.14106 22.2058 1.14106 21.9103V20.4851C1.14106 20.2364 1.17707 20.0596 1.18878 19.8439C1.19478 19.7322 1.18848 19.6005 1.18818 19.4868C1.18758 19.3346 1.21189 19.2929 1.21339 19.1558C1.21579 18.9514 1.19178 18.6369 1.21819 18.4479C1.28181 17.9902 1.28392 18.0031 1.28392 17.5158C1.56063 17.5221 1.46009 17.5902 1.75901 17.6109C1.90066 17.6208 1.81273 17.6205 1.92527 17.6586C2.06873 17.7072 2.50781 17.6823 2.70949 17.6823C2.84094 17.9566 2.80463 18.3293 2.80463 18.6324C2.80463 18.7978 2.7395 18.8782 2.7332 19.036C2.71639 19.4522 2.67978 19.2842 2.66297 19.4648C2.65367 19.5678 2.66177 19.5942 2.63896 19.6785L2.43008 20.7048C2.41897 20.7969 2.43278 20.8362 2.40787 20.92C2.30463 21.2654 2.38416 21.1912 2.33674 21.3476C2.2281 21.7059 2.31273 21.5985 2.27581 21.7854C2.26591 21.8355 2.22599 21.9169 2.21579 21.9868C2.18908 22.1725 2.22179 22.2343 2.17227 22.4183C2.12305 22.6016 2.15937 22.6908 2.13356 22.8783C2.11495 23.0146 2.06663 23.1376 2.06723 23.3108C2.06783 23.4746 2.06123 23.6285 2.03032 23.7726C1.9898 23.9613 1.93758 24.9393 1.92557 25.1644C1.91747 25.3162 1.90156 25.451 1.90156 25.6394H1.90066ZM14.8473 16.1858L14.8743 15.7618C14.8875 15.6907 14.8959 15.6916 14.9118 15.633C14.9274 15.5751 14.9292 15.5292 14.9442 15.4752L15.446 14.5518C15.4466 14.5509 15.4718 14.5188 15.4775 14.5119L15.521 14.4603C15.6021 14.3667 15.75 14.2806 15.75 14.1431V9.82007C15.9313 9.82007 16.015 9.84378 16.2014 9.84378H16.8191V10.9127C16.8191 11.0618 16.9121 11.2479 16.961 11.3883L17.2812 11.9468C17.2857 11.9519 17.299 11.9666 17.3038 11.9717L17.8089 12.4167C17.868 12.4533 17.9055 12.4731 17.9604 12.5025L18.0063 12.528C18.0111 12.5304 18.0168 12.5341 18.0216 12.5365C18.157 12.6064 18.3503 12.697 18.5084 12.715C18.6873 12.7354 18.8035 12.7654 18.9808 12.7654L19.4994 12.6901C19.759 12.5839 19.6975 12.6466 20.0345 12.465L20.0808 12.4398C20.1576 12.3993 20.1492 12.4065 20.2134 12.3585C20.2536 12.3285 20.2797 12.3114 20.3203 12.2754C20.6621 11.9732 20.8776 11.6788 21.031 11.2521C21.0487 11.2023 21.0481 11.2167 21.0658 11.1681C21.1072 11.0543 21.0874 10.9436 21.1222 10.8206C21.1816 10.6102 21.1435 10.2609 21.1408 10.0079C21.1378 9.73875 21.274 9.86058 21.8089 9.84468C22.2629 9.83117 22.1882 9.69523 22.1882 10.2477C22.1882 11.3403 22.1882 12.4329 22.1882 13.5255C22.1882 14.5233 22.1687 14.0717 22.6969 14.8459L22.8497 15.1208C22.8758 15.1757 22.871 15.1547 22.8833 15.182C23.0727 15.5994 23.1108 16.0721 23.0508 16.5258L22.9142 17.1017C22.9022 17.1554 22.907 17.1791 22.8971 17.2271C22.8782 17.3198 22.8416 17.3237 22.8314 17.4462C22.826 17.511 22.8362 17.5122 22.817 17.574C22.8038 17.616 22.7954 17.5992 22.7729 17.6724C22.7047 17.8924 22.7305 18.7311 22.8068 18.9403C22.8419 19.0363 22.8314 19.1768 22.8737 19.2773L23.3668 20.8506C23.389 20.9137 23.3974 20.9014 23.4214 20.986L23.6171 21.5027C23.6321 21.539 23.6261 21.5231 23.6423 21.5727C23.6531 21.6057 23.6492 21.6033 23.666 21.6441L24.0811 22.773C24.1054 22.8564 24.0877 22.8549 24.1246 22.9431C24.154 23.0131 24.1333 22.948 24.1528 23.0101C24.217 23.2138 24.2314 23.2132 24.2314 23.3828H13.684C13.6972 23.2225 13.9106 22.6155 13.9115 22.6128L14.6795 20.5305C14.7071 20.4677 14.6885 20.5094 14.7074 20.4395L15.0895 19.1351C15.1066 19.0417 15.1162 19.0924 15.1441 18.9757C15.1651 18.8878 15.1558 18.7722 15.1939 18.5979C15.2848 18.1793 15.1741 18.0283 15.1564 17.6826L15.0414 17.2037C15.0162 17.1371 15.0285 17.1875 15.0108 17.0918C15.0009 17.0386 15.0036 17.0326 14.9853 16.9747L14.9265 16.7248C14.9196 16.674 14.9196 16.6485 14.9073 16.6014C14.886 16.5189 14.8884 16.5696 14.8722 16.4703C14.856 16.3701 14.8479 16.304 14.8479 16.1858H14.8473ZM26.6774 18.0148C26.6228 18.0148 26.6063 17.9983 26.6063 17.9437V10.9841C26.6063 10.898 26.6456 10.8572 26.7014 10.8179L28.0901 10.0211C28.3875 9.87168 28.3077 9.9119 28.6099 10.0733L28.7834 10.1613C28.7882 10.1637 28.7939 10.1673 28.799 10.1697L29.9259 10.6105C30.115 10.6789 30.2305 10.6744 30.4232 10.6198L30.9514 10.4352C30.9565 10.4331 30.9625 10.4301 30.9679 10.428L31.004 10.4166C31.0913 10.3896 31.0466 10.4094 31.1258 10.3719L31.8821 10.0118C31.9448 9.97491 31.8995 9.98632 31.9902 9.95061C32.1084 9.90409 32.1927 9.98632 32.2888 10.0289L32.7936 10.2843C32.7996 10.2879 32.817 10.2987 32.823 10.3023C32.8347 10.3095 32.8494 10.3191 32.8671 10.3296L33.3173 10.6159C33.3995 10.6735 33.395 10.6495 33.4142 10.7326C33.4151 10.7371 33.4184 10.7455 33.4193 10.7512C33.4721 11.0357 33.3755 13.7287 33.4376 13.9156L33.5142 14.0291C33.5871 14.1104 33.6225 14.1371 33.6921 14.231L33.9277 14.5656C33.9418 14.5905 33.9448 14.5974 33.9601 14.6284L34.0907 14.878C34.0931 14.8831 34.0961 14.8891 34.0982 14.8942C34.1003 14.8996 34.1027 14.9059 34.1048 14.9113L34.1276 14.9837C34.1303 14.9906 34.1396 15.0095 34.1426 15.0161C34.1456 15.0224 34.1654 15.0578 34.1726 15.0812C34.1957 15.1559 34.1798 15.1622 34.2086 15.2351C34.2525 15.3459 34.2489 15.4311 34.2684 15.5553C34.2915 15.7036 34.3269 15.8047 34.3269 15.9481C34.3269 16.1411 34.263 16.2932 34.2561 16.4949C34.2504 16.6584 34.2408 16.6281 34.2044 16.7521C34.1591 16.9063 34.1444 17.1095 34.0985 17.2637L33.9773 17.7601C33.9556 17.8762 34.0166 18.0148 33.8995 18.0148H26.6774ZM25.4184 11.7679V17.8723C25.4184 18.0535 25.4343 18.3185 25.4181 18.4896C25.4091 18.5865 25.3746 18.6153 25.3566 18.7368C25.3161 19.0132 25.2164 19.2836 25.1255 19.551L24.787 20.4476C24.75 20.5251 24.6819 20.7234 24.6819 20.8176C24.5688 20.7873 24.6174 20.7825 24.5175 20.5545L24.1948 19.5945C24.1615 19.488 24.1624 19.5696 24.1354 19.4402C24.1258 19.3946 24.1357 19.4123 24.1204 19.3604C24.0973 19.283 24.0979 19.3136 24.0844 19.2776C24.0571 19.2047 24.0697 19.1792 24.0511 19.0972C24.0135 18.9307 24.0205 19.0945 23.9715 18.7491C23.9406 18.5313 23.8401 18.2759 23.9337 17.9317L23.9892 17.7021C24.0105 17.5752 24.0265 17.5938 24.0508 17.4786C24.0613 17.4291 24.0589 17.3979 24.0679 17.3534C24.0856 17.267 24.0781 17.3216 24.1075 17.2505C24.151 17.1449 24.1183 17.1092 24.1486 17.0065C24.1606 16.9657 24.1669 16.9807 24.1891 16.9045C24.2272 16.7731 24.1822 16.7254 24.2383 16.5264C24.2957 16.3226 24.278 16.1174 24.278 15.901C24.278 15.7279 24.2314 15.6558 24.2125 15.5388C24.2008 15.4662 24.2137 15.411 24.1975 15.3402C24.1735 15.236 24.1615 15.281 24.139 15.185L23.6972 14.2253C23.6945 14.2208 23.6909 14.2148 23.6882 14.2106C23.6855 14.2064 23.6819 14.2001 23.6792 14.1959C23.6765 14.1917 23.6726 14.1857 23.6699 14.1815C23.6258 14.1158 23.5024 13.9763 23.5105 13.9126L23.585 13.7839C23.6171 13.7371 23.6387 13.7059 23.6714 13.6564C23.8266 13.4202 24.1258 13.0394 24.3311 12.8194C24.3743 12.7732 24.3926 12.7618 24.434 12.7084L25.3491 11.8183C25.3761 11.7955 25.3905 11.7868 25.4178 11.7685L25.4184 11.7679ZM2.44688 15.8296C2.44688 16.052 2.42077 16.3046 2.47059 16.5183C2.16147 16.5183 1.86495 16.4586 1.57893 16.3409C1.54802 16.3283 1.53992 16.3283 1.50961 16.3154C1.39136 16.2647 1.42557 16.2113 1.42557 16.0907C1.42557 15.9019 1.53392 15.3285 1.58134 15.1064C1.59904 15.0236 1.60805 15.0287 1.62755 14.9627C1.64916 14.8897 1.64796 14.8543 1.66447 14.7856L1.90276 14.0738C1.92407 14.0267 1.91147 14.0675 1.93368 14.0099L2.14136 13.5288C2.16387 13.4835 2.17527 13.4475 2.20078 13.398L3.07744 12.0416L3.86255 11.2116C4.03962 11.0642 4.20559 10.9013 4.39707 10.7722C4.43698 10.7452 4.46519 10.7245 4.50601 10.6912C4.56543 10.6432 4.55043 10.6546 4.61645 10.6117C4.88086 10.4406 4.93938 10.3905 5.15997 10.2762L5.7272 9.98812C5.88837 9.90679 5.89737 9.9212 6.04233 10.0016L6.43278 10.2051C6.4685 10.2228 6.45829 10.2198 6.49521 10.2378L6.63056 10.2927C6.68699 10.3185 6.69389 10.3212 6.76352 10.3497L7.20049 10.5067C7.27912 10.5343 7.2164 10.5166 7.26622 10.5361C7.31874 10.5565 7.27342 10.5412 7.33885 10.5583L7.63537 10.6429C7.80734 10.6807 7.92528 10.6309 8.07475 10.5778L8.92679 10.266C9.10146 10.1991 9.55614 9.9293 9.61556 9.9341L9.949 10.0859C9.958 10.0907 9.99492 10.1103 10.0108 10.119L12.1954 11.5213C12.199 11.5246 12.2041 11.5294 12.2077 11.5327L13.214 12.4269L13.7323 13.0013C13.7413 13.0112 13.7506 13.0199 13.7671 13.0379L14.4193 13.9298L13.8908 14.8978C13.8851 14.9098 13.8698 14.9359 13.8608 14.9629L13.7401 15.3888C13.6996 15.4929 13.6588 16.0012 13.6588 16.1627L13.8133 17.1719C13.8557 17.2688 13.829 17.1452 13.8473 17.2805C13.8857 17.5647 14.0147 17.8051 14.0147 18.158C14.0147 18.7906 13.9751 18.5964 13.9241 18.97L13.4859 20.3606C13.467 20.4338 13.4628 20.4305 13.4322 20.4968C13.4049 20.5563 13.3989 20.5752 13.3971 20.6517H13.3019C13.3019 20.4344 13.1381 20.1253 13.0784 19.9015L12.8031 19.0366C12.7683 18.9487 12.7884 18.937 12.7701 18.8323C12.7299 18.6018 12.708 18.7062 12.7089 18.4184C12.7092 18.2618 12.6837 18.1718 12.6843 17.9917V14.2863C12.6858 13.846 12.7485 13.9538 11.6153 13.9538C11.5597 13.9538 11.4964 14.0171 11.4964 14.0726L11.5453 18.7981C11.5549 18.9385 11.5985 19.0171 11.6255 19.1693L12.006 20.4278C12.0081 20.4356 12.015 20.4563 12.018 20.4635L12.0342 20.495C12.0366 20.5001 12.0402 20.5055 12.0423 20.5106C12.0994 20.6406 12.1369 20.8419 12.1963 20.9983L12.3548 21.5048C12.3779 21.5712 12.3662 21.6171 12.3893 21.684C12.4223 21.7794 12.4286 21.7155 12.4484 21.8622C12.4619 21.961 12.4679 21.9532 12.4949 22.0294C12.527 22.1191 12.5066 22.1128 12.524 22.2142C12.5348 22.2764 12.5697 22.322 12.5817 22.3703C12.6024 22.4543 12.5862 22.4933 12.6141 22.5773C12.6684 22.7397 12.6162 22.7205 12.591 22.8867C12.5672 23.0437 12.5775 22.9335 12.5351 23.0449C12.503 23.1295 12.5309 23.1667 12.5072 23.2546C12.4868 23.3312 12.4613 23.3213 12.449 23.4104C12.4397 23.4797 12.4493 23.537 12.4373 23.6126C12.4148 23.7546 12.3752 23.8449 12.3752 24.0019C12.3752 24.5186 12.3614 25.0567 12.4007 25.5677C12.4112 25.7024 12.4454 25.8753 12.4472 26.0199C12.4523 26.4272 12.4457 26.5469 12.5084 26.9565C12.557 27.2749 12.4907 27.506 12.5754 27.8874C12.6102 28.0446 12.5859 28.3732 12.6162 28.6067C12.6282 28.7003 12.6603 28.7132 12.6603 28.8239V29.2039H2.9919V27.4225C2.9919 27.1432 3.04142 26.9583 3.03962 26.6864C3.03782 26.4172 3.06333 26.2117 3.06333 25.9263C3.06333 25.8015 3.05913 25.6694 3.06243 25.5455C3.06933 25.2949 3.13596 25.0819 3.13476 24.81C3.13416 24.6791 3.12366 24.5408 3.14046 24.4121C3.19178 24.0229 3.19388 24.1243 3.20499 23.6928C3.20829 23.567 3.2392 23.471 3.26081 23.3447C3.28122 23.2255 3.26561 23.0992 3.28002 22.9603C3.29082 22.8585 3.33554 22.7394 3.34574 22.6458C3.36225 22.4957 3.34694 22.4129 3.37486 22.271C3.38656 22.2109 3.40607 22.1662 3.41387 22.12C3.43488 21.9934 3.41957 21.8928 3.45079 21.753C3.46879 21.6723 3.4781 21.6987 3.4919 21.5802C3.52612 21.2825 3.56453 21.0433 3.63986 20.7543C3.65187 20.7087 3.65157 20.6352 3.65847 20.5593C3.67107 20.4221 3.7215 20.3669 3.7284 20.2253C3.7362 20.065 3.78332 20.0503 3.79683 19.9138C3.81843 19.6956 3.82354 19.7547 3.86165 19.575C3.89226 19.43 3.86375 19.3712 3.91057 19.22C3.95979 19.0618 3.92948 19.0225 3.94358 18.8491C3.9922 18.2501 3.94599 18.2336 3.94268 17.7547C3.94178 17.6316 3.80523 17.1038 3.75211 16.9714L3.65697 16.449C3.65787 16.1636 3.60175 15.8062 3.70409 15.5457C3.76681 15.3855 3.7446 15.3639 3.87366 15.0977C3.90787 15.0269 3.94148 14.9726 3.985 14.9002C4.00331 14.8699 4.02102 14.8411 4.04052 14.8132L4.30883 14.4639C4.32894 14.4345 4.34815 14.3907 4.36976 14.3586L4.27192 14.2661C4.2395 14.2349 4.20919 14.2082 4.17258 14.1755L3.95619 13.988C3.83494 13.8727 3.65457 13.6963 3.51441 13.6219C3.38086 13.6927 3.31483 13.8085 3.22269 13.9241C3.19088 13.964 3.15787 14.0066 3.13086 14.0459L2.93938 14.3532C2.80253 14.6082 2.65367 14.8507 2.58254 15.1367L2.44538 15.8308L2.44688 15.8296ZM34.588 11.7679L34.6738 11.8246C34.7068 11.8559 34.7203 11.8775 34.7525 11.9123L35.0286 12.2538C35.1633 12.42 35.3014 12.6547 35.4124 12.82C35.4319 12.8491 35.4514 12.8743 35.4707 12.9044L36.0424 14.0903C36.0595 14.1374 36.0706 14.1491 36.0871 14.1881C36.0994 14.2166 36.0913 14.1911 36.1057 14.2409C36.1153 14.2743 36.1114 14.2785 36.1237 14.3178L36.3962 15.3279C36.4169 15.4173 36.4064 15.5085 36.4268 15.606C36.4439 15.688 36.4764 15.7696 36.4854 15.8563C36.4968 15.9649 36.4794 16.0682 36.4974 16.1768C36.5538 16.5192 36.5589 16.3115 36.5589 16.7329C36.5589 16.9693 36.6321 17.0771 36.6318 17.3012C36.6315 17.5314 36.639 17.6955 36.6552 17.8954C36.6804 18.2063 36.7023 17.98 36.7023 18.4899L36.7264 19.1071C36.7243 19.3532 36.7735 19.4699 36.7735 19.7013V22.8129C36.7735 22.9771 36.7324 23.0344 36.7261 23.1931L36.6996 23.8317C36.6906 23.9016 36.6702 23.9301 36.6579 24.0037C36.6078 24.3067 36.6867 24.139 36.5772 24.5882C36.5427 24.7302 36.5952 24.7047 36.5142 24.9528C36.4638 25.1074 36.54 25.1848 36.3236 25.4276C36.3203 25.4312 36.3155 25.4363 36.3122 25.4399C36.3089 25.4435 36.3041 25.4486 36.3008 25.4522L36.145 25.5833C36.0349 25.6403 36.1192 25.6085 36.0844 25.592C35.9872 25.5341 36.0139 25.234 36.0139 25.1398C36.0139 24.9711 35.9887 24.8412 35.9899 24.6413C35.9908 24.4907 35.9592 24.3737 35.9376 24.1708C35.9211 24.0157 35.9307 23.8428 35.9172 23.6688C35.9058 23.5208 35.8476 23.4035 35.8458 23.2177C35.8434 22.9639 35.8425 22.9528 35.7936 22.7475C35.7609 22.6113 35.7864 22.4207 35.7507 22.268C35.7303 22.1806 35.7083 22.1578 35.7038 22.0534C35.6843 21.6021 35.6612 21.7815 35.6357 21.5988C35.624 21.5147 35.6405 21.4376 35.6243 21.3488C35.6066 21.2516 35.5751 21.2243 35.5646 21.1471C35.5529 21.0613 35.5565 20.9587 35.5454 20.905C35.5214 20.7894 35.5052 20.8047 35.4917 20.6976L35.2531 19.3685C35.2492 19.2407 35.2384 19.2443 35.2077 19.1525L35.1105 18.1808L35.2675 17.3876C35.3104 17.2277 35.2888 17.4177 35.3305 17.1182C35.344 17.0203 35.3815 16.9759 35.3944 16.8733C35.4616 16.3436 35.5325 16.0853 35.4713 15.516C35.4662 15.4674 35.4692 15.432 35.4598 15.3849L35.1252 14.3181C35.112 14.2917 35.1153 14.2932 35.1036 14.2686C35.0865 14.2328 35.0988 14.2559 35.0796 14.2214C34.9728 14.0294 34.9214 13.9202 34.7816 13.7356C34.6006 13.497 34.5859 13.5099 34.5871 13.3125L34.588 11.7676V11.7679ZM17.9829 10.3428L18.4586 10.5322C18.6651 10.6129 18.9157 10.6711 19.1312 10.636C19.3179 10.6054 19.2272 10.5892 19.3638 10.5598C19.482 10.5343 19.8326 10.4085 19.9307 10.3428C19.9307 10.7818 19.9865 10.7104 19.8527 11.0249L19.8377 11.0576C19.8182 11.096 19.8368 11.0594 19.811 11.102C19.8083 11.1065 19.8047 11.1122 19.802 11.1167C19.7984 11.1227 19.7878 11.1404 19.7839 11.1462L19.7431 11.2005C19.6192 11.3454 19.3869 11.5057 19.2104 11.5468C18.9958 11.5969 18.8194 11.578 18.6255 11.5051C18.25 11.3643 17.9835 11.0051 17.9814 10.6288C17.9808 10.534 17.9826 10.4376 17.9826 10.3425L17.9829 10.3428ZM23.3755 12.0767C23.3755 11.6599 23.3425 9.73184 23.3992 9.48757C23.4736 9.48127 23.4835 9.46387 23.5655 9.46387H24.5631C24.7437 9.46387 24.8422 9.49838 24.9919 9.51008C25.2341 9.52899 25.7594 9.53079 25.9307 9.5689C26.0121 9.5869 26.3047 9.60641 26.3923 9.60641L24.1657 11.2995C24.1477 11.3145 24.1276 11.3304 24.1141 11.3427C24.1105 11.346 24.1054 11.3508 24.1018 11.3541C24.0982 11.3574 24.0931 11.3625 24.0898 11.3658C24.0847 11.3706 24.0709 11.3847 24.0661 11.3895L23.817 11.6392C23.7789 11.6797 23.7641 11.6986 23.7257 11.7379L23.6342 11.8363C23.5673 11.909 23.4577 12.0545 23.3755 12.0764V12.0767ZM11.5216 9.60641C11.597 9.60641 11.8923 9.5884 11.9631 9.5728C12.2995 9.49868 12.1012 9.55149 12.4007 9.53529L12.853 9.51248C13.0303 9.51068 13.1153 9.46387 13.3034 9.46387H14.3488C14.4334 9.46387 14.5387 9.47557 14.5387 9.55899V12.0293C14.5387 12.1712 14.5099 12.0908 14.4052 11.9732L14.3821 11.9483C14.3788 11.9447 14.3737 11.9399 14.3704 11.9363L14.2356 11.7862C14.1774 11.7226 14.1273 11.6794 14.0664 11.623L13.8401 11.3979C13.8368 11.3946 13.8317 11.3895 13.8281 11.3859L13.6699 11.2353C13.6663 11.232 13.6612 11.2272 13.6579 11.2236L13.3458 10.9418C13.3055 10.9091 13.2932 10.8998 13.2524 10.8689L12.997 10.6492C12.9934 10.6459 12.9886 10.6408 12.985 10.6375C12.9814 10.6342 12.9763 10.6294 12.9727 10.6261L12.8224 10.5154C12.7794 10.4857 12.8046 10.5043 12.768 10.4746C12.6975 10.4172 12.6378 10.3665 12.5694 10.317L11.9529 9.88819C11.9172 9.86358 11.8875 9.84768 11.8515 9.82337C11.8254 9.80597 11.8275 9.80626 11.795 9.78466L11.5222 9.60611L11.5216 9.60641ZM16.9379 8.03876V5.97236C17.1804 5.97236 16.9493 6.00057 17.2029 6.03988C17.2587 6.04858 17.25 6.03958 17.3047 6.05699C17.5541 6.13621 17.2996 6.0999 17.6507 6.1146C17.744 6.1185 17.8224 6.14671 17.8938 6.15661C18.0676 6.18062 20.1735 6.16472 20.5964 6.16202C20.7803 6.16082 20.9763 6.14401 20.9763 6.32856V8.08617C20.9763 8.17169 20.7398 8.49159 20.6369 8.57801L19.5424 9.2412L19.2005 9.37444C19.1564 9.39485 19.1642 9.39755 19.1174 9.41045C19.0078 9.44016 18.8908 9.44196 18.7854 9.39875L18.5159 9.28802C18.5108 9.28561 18.5042 9.28321 18.4991 9.28111L18.0414 9.07375C18.0066 9.05425 18.0096 9.05575 17.9802 9.03984L17.7263 8.8901C17.7218 8.8874 17.7158 8.8841 17.7113 8.8814L17.3881 8.65813C17.3845 8.65483 17.3794 8.65003 17.3758 8.64673L17.0775 8.32744C17.0637 8.30643 16.9385 8.05826 16.9385 8.03906L16.9379 8.03876ZM5.7254 7.99134V6.04348C5.7254 5.95436 5.95709 5.92555 6.11256 5.86043L6.51472 5.69268C6.52132 5.68938 6.53993 5.68038 6.54683 5.67738L6.61436 5.64977C6.94269 5.50273 7.11286 5.3968 7.42018 5.19664L7.44899 5.17803C7.90007 4.88155 7.55704 4.91516 8.18849 5.29116L8.61646 5.52823C8.62156 5.53063 8.62787 5.53333 8.63267 5.53573L9.35656 5.85713C9.40638 5.87783 9.44569 5.88444 9.49792 5.90574C9.72781 6.00057 9.76382 5.95796 9.76382 6.04378V8.06276C9.76382 8.15369 9.62037 8.35445 9.52133 8.46158L8.92529 8.93451C8.91928 8.93811 8.90188 8.94892 8.89557 8.95252C8.68249 9.08006 7.9514 9.44676 7.7254 9.43416C7.68729 9.43206 7.59395 9.40835 7.55493 9.39305L6.74791 9.03594C6.52012 8.91831 6.2209 8.71395 6.05193 8.5441C5.95829 8.45018 5.93368 8.42827 5.85355 8.31484C5.79203 8.22751 5.7251 8.11108 5.7251 7.99194L5.7254 7.99134ZM28.1504 7.89622V6.28115L28.3095 5.91744L28.6732 5.7584H31.714C31.8668 5.7584 32.1192 5.89854 32.1798 6.1002C32.2417 6.30546 32.2128 7.52231 32.2128 7.82479C32.2128 8.11198 32.1723 8.1801 32.0448 8.36945L31.9142 8.52369C31.9109 8.527 31.9058 8.5321 31.9025 8.5357C31.7543 8.68274 31.5784 8.80068 31.3992 8.91141L31.3272 8.95822C31.1054 9.08756 30.8734 9.18689 30.6345 9.28712C30.5772 9.31112 30.6198 9.29942 30.5556 9.32673C30.1669 9.49117 30.1099 9.45006 29.7137 9.27871C29.678 9.26311 29.6645 9.26041 29.6285 9.2451L28.9688 8.90691C28.9643 8.90421 28.9583 8.9009 28.9538 8.8982L28.5067 8.56151C28.5031 8.55821 28.4976 8.5537 28.494 8.5504L28.2885 8.30463C28.2212 8.1903 28.1507 8.03936 28.1507 7.89622H28.1504ZM27.034 5.78211C27.0301 5.60445 26.844 5.33228 26.844 4.83203C26.844 4.69579 26.862 4.22496 26.8854 4.13703C26.9415 3.92457 26.9676 3.73612 27.0547 3.54646C27.1402 3.36041 27.2167 3.16955 27.3461 3.00631L27.4715 2.84666C27.5775 2.70952 27.7224 2.59999 27.8584 2.49736C28.0067 2.38543 28.1837 2.30831 28.3452 2.22398L29.2221 1.96051C29.3368 1.9443 29.4733 1.9539 29.5802 1.9386C30.0661 1.86928 29.9295 1.88668 30.4547 1.88668L31.2299 1.99021C31.3647 2.03703 31.416 2.02382 31.5886 2.08294L31.7906 2.14236C31.9364 2.20958 32.0811 2.24619 32.2203 2.33021L32.4301 2.45295C32.4559 2.47005 32.4767 2.48386 32.501 2.50096C32.7387 2.66961 32.9349 2.87427 33.0952 3.11824L33.1141 3.14675C33.1168 3.15095 33.1204 3.15695 33.1231 3.16145L33.2188 3.3271C33.314 3.53746 33.4226 3.76973 33.449 3.99959C33.4778 4.24926 33.5172 4.0344 33.5181 4.59556C33.5184 4.69339 33.531 4.7354 33.537 4.79212L33.5169 5.21014L33.3527 5.73499C33.2459 5.66357 33.2465 5.56364 33.1825 5.45381L32.8164 5.01208C32.8131 5.00878 32.808 5.00368 32.8044 5.00008L32.1012 4.63428C32.0469 4.61177 32.0469 4.59466 31.9745 4.59466H28.4112C28.3398 4.59466 27.9613 4.73841 27.8869 4.78282C27.8824 4.78552 27.8767 4.78942 27.8725 4.79212L27.6408 4.94066C27.6096 4.96587 27.6234 4.95447 27.6021 4.97337C27.4205 5.13542 27.2404 5.32958 27.1405 5.55674L27.0337 5.78241L27.034 5.78211ZM15.7737 4.28558C15.7737 4.80683 15.741 8.02615 15.7857 8.26382C15.8122 8.40456 15.8833 8.533 15.9163 8.65603C15.789 8.65603 15.7575 8.63143 15.6567 8.60682L15.3563 8.47988C15.2503 8.41176 15.1858 8.32984 15.1036 8.23381L14.97 8.05856C14.8341 7.8314 14.7764 7.57812 14.7764 7.30204C14.7764 6.83901 14.7341 5.56004 14.8098 5.14982C14.8287 5.04629 14.8458 5.04929 14.8482 4.92716L14.8989 4.57396C14.9052 4.55415 14.9007 4.58656 14.9151 4.51874L14.94 4.35369C14.9658 4.24656 14.9487 4.32459 14.9772 4.24866C15.0072 4.16884 15.0027 4.10762 15.0276 4.038C15.0432 3.99389 15.0504 4.00499 15.073 3.94078C15.0844 3.90807 15.0799 3.91107 15.088 3.88436L15.5114 3.04892C15.5267 3.02521 15.5216 3.03211 15.5399 3.00631L16.1978 2.26239C16.2029 2.25789 16.2176 2.24439 16.2227 2.23989L16.7302 1.86838C16.7344 1.86568 16.7401 1.86148 16.7443 1.85878L17.2656 1.5962C17.2966 1.583 17.2902 1.5878 17.3179 1.57699C17.47 1.51758 17.8389 1.37444 17.9838 1.36393C18.1909 1.34863 18.205 1.29431 18.4358 1.29311C18.5595 1.29251 18.5661 1.27451 18.6726 1.26851C18.9604 1.2529 19.2017 1.27991 19.4565 1.29251C19.5412 1.29671 19.6288 1.28231 19.7074 1.30302C19.7927 1.32552 19.796 1.35283 19.9094 1.36213C20.1177 1.37954 20.3899 1.47797 20.5868 1.56349L21.0412 1.77415C21.2017 1.87018 21.3767 1.9581 21.5195 2.07964L21.8419 2.35122C22.1234 2.6375 22.3872 2.94269 22.5817 3.29769C22.6018 3.3346 22.6036 3.3448 22.6207 3.37751C22.6453 3.42463 22.6219 3.37931 22.6468 3.42283L22.7876 3.73342C22.8086 3.77963 22.8086 3.76913 22.8227 3.81684L22.9586 4.20365C23.0265 4.41761 23.0232 4.62767 23.0823 4.86384C23.1885 5.28906 23.1384 6.98605 23.1384 7.51571C23.1384 7.65405 23.1102 7.72607 23.0655 7.8464L22.9229 8.13148C22.9202 8.13538 22.8986 8.16809 22.8944 8.17409C22.8914 8.1783 22.8875 8.184 22.8845 8.1879L22.7317 8.36765C22.5802 8.527 22.2443 8.65573 22.0219 8.65573C22.0766 8.5417 22.1882 8.12248 22.1882 7.99074V6.28055C22.1882 6.00237 22.0159 5.62666 21.8104 5.4235L21.6291 5.24855C21.5997 5.22545 21.5901 5.21974 21.5583 5.20054L21.5129 5.17473C21.2677 5.02799 21.0159 4.97367 20.7395 4.97427C20.2509 4.97547 17.8794 5.02199 17.5856 4.92116L17.1231 4.69489C17.1018 4.67329 17.0369 4.58656 17.0231 4.55745L16.9556 4.3876C16.8551 4.07852 17.1105 4.16704 15.7983 4.16704C15.786 4.22046 15.7746 4.22166 15.7746 4.28588L15.7737 4.28558ZM8.33825 3.85795V1.29251C8.59936 1.29251 8.467 1.29521 8.61976 1.34353C8.68759 1.36483 8.74792 1.35643 8.81994 1.38074C8.90608 1.40985 8.86736 1.41225 8.97961 1.43475L9.10386 1.47677C9.14467 1.49567 9.10686 1.48217 9.15368 1.49807C9.36106 1.56859 9.58345 1.66942 9.77073 1.78345C9.77673 1.78706 9.79414 1.79786 9.80014 1.80146L9.83015 1.81886C9.83465 1.82157 9.84065 1.82487 9.84516 1.82757L10.8287 2.6255L11.2194 3.13714L11.6834 4.14573C11.7224 4.24236 11.6954 4.25197 11.7188 4.34799C11.7302 4.39481 11.7674 4.44582 11.7773 4.50344C11.7899 4.57726 11.7767 4.65288 11.7878 4.7303C11.8058 4.85544 11.8536 4.94577 11.8536 5.11591V8.37005C11.7575 8.37005 11.729 8.38356 11.6393 8.39316C11.5303 8.40486 11.5177 8.42257 11.4442 8.43547L10.892 8.45498C10.7935 8.40306 10.9217 8.47358 10.9277 8.2038C10.9316 8.03245 10.9511 7.92262 10.9511 7.72847V5.18703C10.9511 5.13812 10.9388 5.13482 10.8935 5.10211L10.8305 5.07C10.7434 5.03459 10.7308 5.0532 10.6318 5.03129L9.6999 4.7279C9.4628 4.64868 8.93339 4.381 8.7197 4.23516C8.61856 4.16614 8.33795 3.95998 8.33795 3.85705L8.33825 3.85795ZM32.7351 1.15027C33.5619 1.15027 33.1495 1.15717 33.7363 1.21809C33.8593 1.231 33.9571 1.21959 34.0718 1.2625C34.1975 1.30962 34.3023 1.27571 34.4139 1.32432L34.7041 1.41435C34.7092 1.41645 34.7152 1.41945 34.721 1.42125L34.7582 1.43145C34.7825 1.43745 34.7909 1.43505 34.8185 1.44226C34.8788 1.45786 34.8689 1.46236 34.9181 1.48517C34.9412 1.49597 34.9223 1.48937 34.9689 1.50587C34.9833 1.51098 35.0031 1.51488 35.0241 1.52208C35.1567 1.56709 35.2486 1.62921 35.3755 1.69313L35.9842 2.15346L36.2852 2.66001C36.4028 2.89497 36.4761 3.18726 36.546 3.44443C36.57 3.53266 36.5502 3.58937 36.5745 3.6773C36.6045 3.78713 36.6249 3.74602 36.6318 3.88136C36.6426 4.09142 36.7038 4.17724 36.7038 4.3558C36.7038 4.46473 36.708 4.52684 36.7192 4.60187C36.7471 4.79362 36.7753 4.89775 36.7744 5.09311C36.7732 5.28516 36.7963 5.4034 36.7975 5.59275C36.7987 5.777 36.8458 5.88774 36.8458 6.09089V7.20722C36.8458 7.44729 36.8029 7.61683 36.7975 7.82419L36.7744 8.58491C36.6489 8.58491 36.5421 8.5435 36.4283 8.47958L36.0784 8.25962C36.0733 8.25572 36.0427 8.22871 36.0403 8.22661C36.0367 8.22331 36.0316 8.21851 36.028 8.21491L35.7846 7.93583C35.7597 7.89952 35.7459 7.88001 35.7273 7.8506L35.6222 7.64684C35.4511 7.22672 35.4917 7.23362 35.4917 6.73218C35.4917 6.63135 35.5628 6.48281 35.5628 6.30456C35.5628 6.03028 35.6066 5.65247 35.5247 5.39259L35.0898 4.33089L34.7354 3.87776C34.6759 3.80994 34.6102 3.77753 34.5916 3.689C34.5823 3.64459 34.5907 3.63649 34.5769 3.58487L34.3959 3.07683C34.3935 3.07173 34.3905 3.06572 34.3884 3.06062L34.1678 2.61619C34.049 2.39203 33.8734 2.21798 33.7194 2.01932C33.6228 1.89509 33.5976 1.89329 33.4902 1.79726C33.4337 1.74714 33.4304 1.73604 33.3635 1.68623L33.1756 1.54158C33.0553 1.45966 32.7798 1.2568 32.6405 1.2454C32.6549 1.19168 32.6633 1.15027 32.7357 1.15027H32.7351Z" fill="#00A0E3"/>
</svg>
