<svg width="50" height="45" viewBox="0 0 50 45" fill="none" xmlns="http://www.w3.org/2000/svg">
<path id="3 Rest" fill-rule="evenodd" clip-rule="evenodd" d="M40.2347 25.0367C40.8638 25.0367 41.2453 25.2055 41.6459 25.474C42.0831 25.7668 42.2426 26.1321 42.4807 26.5748H38.1837C38.3648 25.8093 39.2782 25.0372 40.2341 25.0372L40.2347 25.0367ZM50 38.6625V39.3973C49.898 40.5146 49.2318 41.0482 47.2947 41.7883C46.1894 42.2103 44.828 42.6247 43.3593 42.6247C39.7526 42.6247 40.6102 42.0055 39.2782 42.8366C36.114 44.8097 31.3391 45.4247 27.6772 44.6993C27.0924 44.5836 26.7788 44.5075 26.2816 44.3428C24.7163 43.824 25.2375 43.8411 23.6458 44.3676C19.8376 45.6277 14.0035 44.9549 10.6631 42.7988C10.1413 42.4618 10.1749 42.3237 9.50379 42.4529C8.65998 42.6152 7.56129 42.6247 6.64072 42.6247C4.63105 42.6247 0 41.2559 0 39.6452C0 37.8344 0.283069 36.265 0.396416 34.5569C0.513961 32.7869 1.95329 33.4473 1.95329 33.8788C1.95329 35.761 1.62345 37.5806 1.46512 39.4528C2.26335 39.9787 3.17853 40.3966 4.11289 40.6911C6.9064 41.5717 7.68783 40.9903 9.37485 40.9903V36.281C9.37485 35.565 10.3056 35.238 10.7248 35.8176C10.8939 36.0514 10.8472 36.0909 10.8466 36.4663L10.8394 41.1828C11.7899 41.4324 13.76 43.4893 19.4328 43.4893C21.96 43.4893 22.3456 43.0538 24.218 42.6247C24.218 41.2152 24.218 39.8058 24.218 38.3957C24.218 37.1468 23.8653 35.0321 24.9994 35.0321C25.7467 35.0321 25.7886 35.6246 25.7832 36.3754L25.7808 42.6247C26.185 42.7173 26.4717 42.8513 26.8951 42.9694C33.6468 44.8598 38.5039 41.3551 39.1594 41.1828C39.1594 40.0938 39.1594 39.0043 39.1594 37.9153C39.1594 37.3983 39.1258 36.7762 39.1516 36.2739C39.2026 35.2829 40.624 35.2735 40.624 36.2816V40.9909C41.2926 40.9909 41.9391 41.1833 42.675 41.1833C44.864 41.1833 46.8161 40.586 48.5343 39.4534C48.3903 37.7518 47.7271 30.1497 47.5219 29.4934C47.2485 28.6158 46.4371 28.0167 45.3114 28.0167H4.68683C3.67569 28.0167 2.92364 28.5142 2.583 29.2137C2.08703 30.2312 2.67656 31.4766 1.36677 31.4766C0.30106 31.4766 0.573933 28.297 2.69275 27.0145C3.84781 26.3157 6.45301 26.5748 7.90973 26.5748C7.44075 25.945 5.95644 25.5956 5.95644 24.6524C5.95644 23.8928 6.31627 23.3067 7.22605 23.3067H12.6949V19.8468C12.6949 18.088 13.5675 9.56341 15.7223 9.56341C17.1826 9.56341 17.2648 10.1678 17.7308 11.3347L18.066 12.0624C18.1494 11.7106 18.2387 11.6345 18.4151 11.3488C18.7881 10.7427 18.998 9.75582 19.9216 9.75582C21.3825 9.75582 20.9957 11.8505 20.9957 12.7353C20.9957 14.0485 20.9957 15.3623 20.9957 16.6756C21.2859 16.8102 22.2653 16.5929 22.2653 17.6365V23.3067H24.0231V13.3113C24.0231 12.279 24.4914 11.2615 24.9064 10.6246C25.3982 9.86914 26.0003 9.38929 26.7572 8.88997C26.7572 7.12816 26.7572 5.36575 26.7572 3.60394C26.7572 1.72527 26.4429 0.0478565 28.4172 0.0478565C29.4589 0.0478565 31.7169 -0.299194 32.1607 0.880659C32.3676 1.43134 32.226 6.61761 32.2254 7.44865C32.2248 8.57715 32.0143 8.66686 32.7262 9.16619C33.1868 9.48904 33.552 9.80127 33.8879 10.2333C34.5158 11.0413 35.0573 12.0736 35.0573 13.5031C35.0573 14.186 35.32 15.5217 34.2759 15.5217C33.3901 15.5217 33.4945 14.1884 33.4945 13.5031H25.487V19.9425C26.5359 20.1833 28.7656 21.2882 29.5885 21.2882C29.703 21.2882 33.239 20.0634 33.4945 19.9425C33.4945 18.9385 33.242 17.4435 34.2759 17.4435C34.5884 17.4435 35.0573 17.6359 35.0573 18.0201V26.5736H36.6196C36.6472 25.3453 37.6763 24.4146 38.6365 23.9453C39.9103 23.3227 39.5493 24.1696 39.5493 21.192C38.2401 21.163 37.1078 19.8551 37.1078 18.5011C37.1078 17.9209 37.2385 17.4553 37.3195 16.8833C37.4556 15.9189 37.5588 14.6293 37.834 13.7375C37.9726 13.2883 38.3324 12.9271 38.8656 12.9271C42.3176 12.9271 42.5838 12.3676 43.0234 15.1782C43.2177 16.4224 43.4552 17.5084 43.4552 18.7898C43.4552 19.91 42.2624 21.1672 41.1115 21.1925V23.6915C42.6396 23.7252 43.7329 25.2739 44.0412 26.5748C44.7362 26.5748 45.9081 26.5199 46.4119 26.6444C47.6347 26.9466 48.5103 27.8272 48.9535 28.9486C49.3403 29.9272 49.6234 35.8596 49.8591 37.4762C49.9244 37.9265 49.9748 38.3184 49.9982 38.6637L50 38.6625ZM8.20359 24.8442H25.8792C25.7485 25.0195 23.9427 26.5742 23.1451 26.5742H10.9383C10.2876 26.5742 10.0381 26.2466 9.45941 25.8193C9.17034 25.6056 8.36972 25.0668 8.20419 24.8442H8.20359ZM25.4888 21.5768C26.3386 21.6464 28.7369 22.8263 29.5903 22.8263C30.0365 22.8263 32.5421 21.7958 33.4963 21.5768V26.5742H26.2696C26.4957 26.2419 27.0151 25.9273 27.3869 25.6558C27.6106 25.4923 27.7395 25.4085 27.9063 25.2061C28.3536 24.6613 28.2775 24.0126 27.8115 23.6154C27.3083 23.1869 26.2708 23.3067 25.4882 23.3067V21.5768H25.4888ZM20.8013 18.5973V23.3067H14.9421C15.143 23.011 15.2809 22.9195 15.5844 22.6893L17.7176 20.8484C18.7311 20.0599 19.7464 19.2926 20.8013 18.5973ZM40.6252 19.7506C39.9996 19.7506 38.6719 19.8297 38.6719 18.5973C38.6719 17.8047 38.8104 17.2623 38.9237 16.5386C39.0365 15.818 39.1067 15.1038 39.2578 14.4646H41.406C41.406 15.0601 41.5907 15.9508 41.6849 16.4967C41.749 16.8704 41.7742 17.0935 41.8378 17.4995C41.9385 18.1423 42.3338 19.7506 40.6245 19.7506H40.6252ZM16.1139 20.1349L16.8246 18.2397C17.0903 17.5881 17.3122 16.9489 17.6114 16.3226L19.1695 13.1466C19.2115 13.0746 19.2307 13.0298 19.2739 12.9607C19.3956 12.7636 19.308 12.8769 19.4346 12.7341V17.7315C18.8732 18.1016 18.3371 18.4935 17.7877 18.8978C17.4543 19.1433 16.4756 20.0387 16.1139 20.1337V20.1349ZM14.1606 21.0957C14.1606 18.5377 14.5942 14.4634 15.5268 12.1563L16.0162 11.1003L16.9038 13.5988C17.0747 14.2256 16.475 15.1947 16.0803 16.0653C15.3805 17.6105 14.9313 18.9019 14.4191 20.4855L14.2644 20.9098C14.1732 21.104 14.232 20.9942 14.16 21.0957H14.1606ZM28.3207 8.79376V6.00673H30.7621C30.7621 9.51914 30.3981 9.30135 31.9922 10.4664C32.5859 10.9003 32.8629 11.3329 33.203 11.9656H25.8786C27.0445 9.79655 28.3201 10.2994 28.3201 8.79435L28.3207 8.79376ZM28.3207 1.58538H30.7621V4.46862H28.3207V1.58538Z" fill="#124285"/>
</svg>
