<svg width="230" height="305" viewBox="0 0 230 305" fill="none" xmlns="http://www.w3.org/2000/svg">
<path opacity="0.45" d="M44.7256 252.221L53.6175 261.56L110.584 207.349L104.982 201.459L94.7869 211.156L91.4973 207.707C88.9568 205.039 85.7648 203.575 82.41 203.509C79.1204 203.347 75.9285 204.746 72.8994 207.642L45.6702 233.543C42.6737 236.374 41.1428 239.498 41.0126 242.915C40.9474 246.299 42.1525 249.455 44.7908 252.188L44.7256 252.221ZM78.5341 213.597C81.1398 211.124 83.4849 211.124 85.602 213.304L88.8916 216.753L53.9757 249.976L50.6861 246.527C48.5038 244.249 48.797 241.873 51.3049 239.498L78.5341 213.597ZM6.19439 186.264L9.09319 193.617L45.7353 179.3L50.4581 177.445L50.7512 177.315C51.0118 178.845 51.4352 180.537 52.0215 182.033L53.6826 186.264L12.4806 202.273L15.5748 210.115L56.614 193.943L64.2681 190.917L61.239 183.27L59.5779 179.04C58.8614 177.218 58.9591 175.688 60.0339 174.549C60.6527 173.736 61.3367 173.118 62.5419 172.63L69.7074 169.799L70.9126 169.31C73.9416 168.107 75.961 169.083 77.101 171.979C78.2084 174.81 77.329 176.664 74.2999 177.868L69.8703 179.626L72.9645 187.468L77.4918 185.678C81.2049 184.214 83.7129 181.936 85.146 178.812C86.3837 175.753 86.3837 172.499 84.9831 168.985L84.9506 168.887C84.9506 168.887 84.9506 168.887 84.918 168.79C83.5826 165.373 81.2701 162.77 78.3387 161.599C75.1468 160.297 71.8897 160.297 68.144 161.761L66.7435 162.315L6.16182 186.166L6.19439 186.264ZM3.3933 144.027C5.83611 146.468 9.15833 147.737 13.1645 147.834L39.0583 148.485L42.0874 148.55L78.3713 149.461L78.697 136.381C78.7947 132.801 77.6873 129.743 75.3422 127.107C72.8994 124.764 69.5771 123.495 65.5709 123.397L48.2433 122.942L48.0479 131.044L65.3755 131.5C68.7303 131.597 70.652 133.354 70.5543 136.185L70.424 141.066L13.3274 139.602C9.9726 139.504 8.18121 137.942 8.24635 134.591L8.37663 130.035L30.2642 130.589L30.4596 122.486L0.33165 121.738L0.00594197 134.396C-0.0917704 138.398 1.01564 141.554 3.32816 143.995L3.3933 144.027ZM36.9412 82.6254C35.7035 85.3913 33.5539 86.2047 30.4922 84.8055L23.3918 81.5841L12.1223 76.508L8.76748 83.8944L20.037 88.9706L26.8443 92.0618L80.4558 116.271L85.7323 104.622C87.3934 100.978 87.5562 97.7237 86.3185 94.665C85.0157 91.4761 82.6055 88.9381 78.8598 87.246L42.3154 70.7485L36.9412 82.5929V82.6254ZM54.4643 85.196L54.4317 85.2936L75.4725 94.7951C78.6318 96.2269 79.5764 98.3094 78.241 101.271L76.3193 105.501L41.9571 89.9793C42.9342 88.873 43.8137 87.4738 44.4651 86.0095L46.4845 81.5841L54.4969 85.196H54.4643ZM71.5314 34.9877L64.6915 41.4956L47.201 23.1758L41.2406 28.8377L95.5361 85.7167L101.497 80.0548L70.3263 47.3852L77.1661 40.8773L108.336 73.5469L114.232 67.9501L59.9362 11.0712L54.0409 16.6679L71.5314 35.0202V34.9877ZM96.7086 -7.99696C95.3406 -5.00333 95.5035 -1.35891 96.9692 2.38312L106.708 27.048L107.652 29.4559L120.941 63.1017L132.83 58.4161C136.543 56.9518 138.953 54.7391 140.191 51.6804C141.624 48.5566 141.526 44.9773 139.995 41.1702L131.657 20.0195L116.186 -19.4834L104.004 -14.6675C100.585 -13.3009 98.044 -11.1533 96.7412 -7.96442L96.7086 -7.99696ZM123.124 20.5727L132.439 44.1312C133.546 47.5479 132.732 49.5979 129.801 50.7693L125.566 52.4288L115.307 26.4623L114.362 24.0544L104.623 -0.610504C103.353 -3.83191 104.167 -5.91444 107.001 -7.02078L111.528 -8.81045L123.156 20.6052L123.124 20.5727ZM172.859 -26.5444L155.108 -27L154.326 3.61962L154.294 4.27041L153.089 51.5177L178.885 52.1685L179.764 17.3187L179.96 9.08625V8.98863L169.667 8.72832V8.82594L167.192 8.76086V8.66324C164.163 8.59816 162.795 7.13388 162.632 4.10772C162.925 1.08155 164.358 -0.38273 167.42 -0.317652L180.188 0.00774384L180.383 -8.22474L180.839 -26.4143L172.827 -26.6095L172.859 -26.5444ZM166.996 17.0584L171.752 17.1886L171.068 44.2289L161.524 44.0011L162.241 16.1799C163.642 16.6354 165.27 17.0259 166.996 17.0584ZM172.403 -8.35489L167.648 -8.48505C165.922 -8.51759 164.293 -8.35489 162.86 -7.83426L163.12 -18.5397L172.664 -18.312L172.403 -8.35489ZM218.23 -18.4747L215.722 -19.4834L186.865 53.6328L194.519 56.6589L220.412 -8.90806L228.881 -5.5565L220.803 14.8783L228.555 17.937L239.597 -10.0469L237.089 -11.0231L218.23 -18.4421V-18.4747ZM270.734 14.9108C267.445 14.9108 264.188 16.6029 261.419 19.4989L243.082 38.6972L241.29 40.5844L216.309 66.7462L225.559 75.5643C228.457 78.3302 231.487 79.5667 234.776 79.404C238.229 79.404 241.421 77.777 244.254 74.8159L259.953 58.351L261.745 56.4637L289.332 27.6988L279.854 18.6529C277.183 16.1148 274.154 14.7156 270.734 14.8783V14.9108ZM255.882 50.8669L238.392 69.1866C235.753 71.6271 233.538 71.7572 231.259 69.5771L227.969 66.4533L247.251 46.2463L249.042 44.359L267.38 25.1607C269.757 22.6552 272.005 22.525 274.187 24.6076L277.704 27.9591L255.882 50.8344V50.8669ZM317.441 71.6922L312.132 59.9454L240.444 92.3222L243.798 99.7086L256.631 93.9166L258.585 98.2443C260.116 101.596 262.624 104.036 265.784 105.208C268.845 106.444 272.298 106.184 276.141 104.459L310.406 88.9706C314.151 87.2785 316.627 84.8381 317.929 81.6492C319.135 78.4929 319.004 75.1088 317.441 71.6596V71.6922ZM272.754 96.9753C269.497 98.4396 267.249 97.6912 266.012 94.9253L264.057 90.5976L307.995 70.7485L309.95 75.0763C311.252 77.9397 310.178 80.0873 307.018 81.4865L272.754 96.9753ZM327.863 125.61C325.518 123.3 322.033 122.193 318.027 122.291L252.69 123.951L253.016 136.706C253.114 140.708 254.384 143.702 256.827 145.915C259.269 148.355 262.657 149.461 266.793 149.331L292.133 148.68L332 147.769L331.674 134.689C331.577 131.012 330.404 127.888 327.863 125.577V125.61ZM291.938 140.611L266.598 141.261C263.015 141.131 261.354 139.667 261.289 136.511L261.159 131.955L318.255 130.491C321.708 130.393 323.369 131.89 323.466 134.916L323.597 139.797L291.971 140.611H291.938ZM294.837 205.006L301.807 207.74L314.998 212.946L323.336 191.795L307.018 185.352L303.989 192.999L312.653 196.416L310.308 202.371L304.771 200.19L298.029 197.522C295 196.318 295.032 194.821 296.205 191.795L300.862 180.016L258.813 163.453L260.116 160.134L252.462 157.108L244.775 176.534L241.779 184.083L240.378 187.598L248.033 190.624L249.433 187.11L294.804 204.974L294.837 205.006ZM252.462 179.56L255.817 171.1L290.179 184.637L288.518 188.867C287.932 190.364 287.541 191.958 287.443 193.325L252.462 179.528V179.56ZM285.489 249.032C285.489 245.583 284.056 242.329 281.287 239.433L263.406 220.69L261.321 218.51L236.274 192.251L226.796 201.297C224.223 203.77 222.823 206.698 222.595 210.245C222.66 213.629 224.126 216.883 226.894 219.779L238.848 232.307L244.743 226.71L232.789 214.182C230.477 211.742 230.379 209.139 232.431 207.219L235.949 203.867L275.359 245.16C277.672 247.6 277.835 249.976 275.425 252.286L272.135 255.41L257.022 239.596L251.127 245.193L271.907 266.961L281.092 258.208C283.991 255.442 285.456 252.416 285.521 249.065L285.489 249.032ZM217.221 277.309L221.552 275.617C223.279 274.934 224.647 274.283 225.852 273.242L232.757 290.78L240.411 287.754L211.553 214.638L203.899 217.664L217.025 250.887C215.462 251.05 213.963 251.408 212.237 252.058L207.905 253.75L195.04 221.113L187.581 224.042L200.447 256.679L203.443 264.228L203.476 264.326L215.266 259.673C218.198 258.534 220.119 259.282 221.324 262.048C222.334 264.911 221.455 266.766 218.523 267.938L206.733 272.591L206.765 272.688L209.762 280.238L216.439 297.158L223.898 294.229L217.221 277.309ZM178.201 304.382H178.624L178.168 287.071L169.732 287.299L169.96 296.182L163.576 296.345L163.153 279.359L167.159 279.261C171.165 279.164 174.292 278.318 176.507 275.877C178.592 273.209 179.927 270.053 179.829 266.05L179.178 239.661C179.08 235.235 177.582 232.112 175.367 229.899C172.599 227.361 169.407 226.027 165.856 226.124L161.85 226.222L153.414 226.45L155.434 305H155.857L178.266 304.447L178.201 304.382ZM162.013 234.617L166.019 234.52C169.146 234.454 171.068 236.342 171.133 239.791L171.231 243.37L171.817 266.213C171.915 269.792 170.123 271.549 166.964 271.647L162.958 271.745L162.013 234.617ZM91.5624 287.819L96.4155 289.739L99.2491 290.845L115.567 297.288L122.212 280.465L125.241 272.818L125.273 272.721L115.697 268.946L115.665 269.044L113.352 268.133L113.385 268.035C110.649 266.961 109.704 264.944 110.584 262.146C111.887 259.412 113.971 258.599 116.674 259.673L128.563 264.358L131.559 256.809L144.457 224.172L136.999 221.243L124.101 253.881L119.671 252.123C117.945 251.44 116.479 251.082 114.948 251.082L128.107 217.762L120.453 214.736L105.763 251.896L103.027 258.859L102.832 259.347L100.063 266.408L91.595 287.852L91.5624 287.819ZM106.154 273.307C107.294 274.218 108.597 275.096 110.323 275.747L114.753 277.504L111.04 286.876L102.181 283.394L106.154 273.339V273.307Z" fill="white"/>
</svg>
