<svg width="10" height="11" viewBox="0 0 10 11" fill="none" xmlns="http://www.w3.org/2000/svg">
<g id="Vector">
<path fill-rule="evenodd" clip-rule="evenodd" d="M0 4.9821C0 5.80249 0.0946427 6.55706 0.247916 7.23647C0.405946 7.93674 0.700122 8.60122 1.26593 9.0248C2.08353 9.63702 3.35649 9.93207 4.37311 9.98682C4.47148 9.99209 4.57894 9.98302 4.67804 9.98594C4.79911 9.98953 4.83827 10.0106 4.98086 10.0108C5.31412 10.0112 5.79729 9.9735 6.14651 9.93588C6.47823 9.90016 6.91536 9.81781 7.2058 9.73232C7.52377 9.63877 7.84488 9.53857 8.11512 9.40213C9.06587 8.92211 9.44802 8.46288 9.74739 7.26919C10.1241 5.76677 10.1241 3.21266 9.44034 1.85604C9.12772 1.23577 8.78706 0.94555 8.16182 0.632197C7.87731 0.489611 7.58108 0.387868 7.2416 0.289493C6.82306 0.16828 6.10383 0.0491894 5.63618 0.0240099C5.53781 0.0187398 5.43035 0.0278161 5.33125 0.0248883C5.21018 0.0212285 5.17102 0.000221137 5.02843 1.54879e-06C4.8177 -0.00021804 4.67182 0.0229852 4.44257 0.0232779C3.5935 0.0242295 2.21148 0.358663 1.48705 0.832974C1.41884 0.877624 1.36789 0.910416 1.30597 0.955871C0.707368 1.39498 0.461941 1.94409 0.261969 2.74157C0.089153 3.43056 0 4.25512 0 4.98196V4.9821Z" fill="#124285"/>
<path fill-rule="evenodd" clip-rule="evenodd" d="M4.52894 5.20747V2.11552C4.52894 1.72619 5.02287 1.60175 5.21955 1.89081C5.2986 2.00697 5.29179 2.10146 5.29136 2.28489V5.03802C5.3838 5.08692 5.46432 5.16524 5.54549 5.22863L6.8041 6.23603C7.12207 6.48577 7.21854 6.50202 7.21854 6.81698C7.21854 6.97919 7.04045 7.13466 6.83733 7.13466C6.64292 7.13466 6.38674 6.87254 6.19284 6.72029L4.72225 5.54359C4.62198 5.46498 4.52894 5.38439 4.52894 5.20747Z" fill="white"/>
</g>
</svg>
