<svg width="10" height="11" viewBox="0 0 10 11" fill="none" xmlns="http://www.w3.org/2000/svg">
<g id="Vector">
<path fill-rule="evenodd" clip-rule="evenodd" d="M0 4.98196C0 5.80235 0.0946257 6.55694 0.247955 7.23632C0.406005 7.93656 0.700162 8.60104 1.26598 9.02469C2.08361 9.6369 3.35656 9.93194 4.37312 9.98672C4.47147 9.99202 4.57892 9.98289 4.67804 9.98587C4.79913 9.98947 4.83829 10.0106 4.98088 10.0107C5.31414 10.011 5.79735 9.97334 6.14653 9.93576C6.47827 9.90006 6.91536 9.81765 7.20582 9.73221C7.52381 9.63862 7.84491 9.53848 8.11513 9.40205C9.06591 8.922 9.44803 8.46277 9.74739 7.26912C10.1242 5.76673 10.1241 3.21256 9.44031 1.85595C9.12767 1.23566 8.78705 0.945499 8.16183 0.63212C7.87734 0.489511 7.58108 0.387765 7.24164 0.289459C6.82311 0.168232 6.10387 0.0491648 5.63622 0.0239633C5.53787 0.018683 5.43043 0.0278035 5.3313 0.0248433C5.21022 0.0212231 5.17105 0.000141853 5.02846 1.84465e-06C4.81773 -0.00023817 4.67182 0.0230232 4.44261 0.0232832C3.5935 0.0242433 2.21147 0.358644 1.48709 0.832952C1.41887 0.877615 1.36794 0.910397 1.30598 0.95586C0.707403 1.39497 0.461988 1.94406 0.261976 2.74157C0.0891854 3.43055 0 4.25516 0 4.98196Z" fill="#124285"/>
<path fill-rule="evenodd" clip-rule="evenodd" d="M2.29784 5.08481C2.29784 4.78661 2.30456 4.63404 2.37376 4.35037C2.65316 3.20528 3.73759 2.30414 4.91962 2.30414C5.7035 2.30414 6.36112 2.546 6.90976 3.09465C7.02354 3.20842 7.11575 3.31768 7.20787 3.44799C7.25076 3.50867 7.29664 3.57452 7.33428 3.63936C7.76017 4.37297 7.83853 5.37121 7.45143 6.13891C7.41397 6.21322 7.38577 6.27892 7.34404 6.34933C7.29822 6.42661 7.26278 6.47935 7.21408 6.55306C6.77227 7.22164 5.89106 7.70657 5.07847 7.70657C4.61492 7.70657 4.2281 7.64062 3.86545 7.45775C3.27966 7.16239 2.83935 6.77815 2.54997 6.15149C2.42253 5.87552 2.29784 5.49005 2.29784 5.08481ZM4.25224 7.16633C4.15957 6.99118 4.08751 6.82809 4.01968 6.6203C3.93146 6.34993 3.92724 6.23242 3.87089 5.9905H2.93342C2.99222 6.21072 3.313 6.55138 3.46161 6.70169C3.61476 6.85656 4.01074 7.11007 4.25224 7.16633ZM5.74585 7.16633C5.98102 7.11155 6.37897 6.86018 6.52864 6.70973C6.63956 6.59824 6.73151 6.51158 6.82649 6.38793C6.88042 6.31776 7.04173 6.07637 7.06465 5.9905H6.12717C6.01206 6.48463 6.0162 6.65536 5.74585 7.16633ZM6.12719 4.02021H7.06467C7.00596 3.80037 6.69264 3.46695 6.53648 3.30902C6.38933 3.16019 5.92018 2.85887 5.74585 2.84439C6.017 3.35688 6.01298 3.52998 6.12719 4.02021ZM2.9334 4.02021H3.87087C3.98542 3.52854 3.98034 3.3582 4.25224 2.84439C3.86603 2.93436 3.40909 3.31364 3.17155 3.62278C3.10829 3.70515 2.95852 3.92608 2.9334 4.02021ZM6.20663 5.00536L6.19121 5.43485C6.18925 5.51266 6.17639 5.50807 6.17485 5.57738H7.22356C7.24818 5.28142 7.28712 5.41697 7.28712 4.89412C7.28712 4.69257 7.23474 4.56762 7.22356 4.43333H6.17485L6.19307 4.71701C6.20334 4.80897 6.20663 4.89092 6.20663 5.00536ZM2.71092 4.89414C2.71092 5.41961 2.74923 5.27378 2.77449 5.5774H3.82319L3.80499 5.29372C3.77981 5.06793 3.80115 4.79993 3.80685 4.5759C3.80879 4.49809 3.82167 4.50267 3.82319 4.43337H2.77449C2.76347 4.56598 2.71092 4.69057 2.71092 4.89414ZM4.99902 7.29348C5.38025 7.29348 5.69816 6.26744 5.69816 5.99052H4.2999C4.2999 6.19778 4.44835 6.613 4.51769 6.77375C4.59162 6.94516 4.78011 7.29348 4.99902 7.29348ZM4.29988 4.02022H5.69814C5.69814 3.60784 5.10775 1.86865 4.51767 3.237C4.44833 3.39777 4.29988 3.81297 4.29988 4.02022ZM4.20453 4.94182L4.23634 5.5774H5.76171C5.80533 5.05323 5.80533 4.95752 5.76171 4.43335H4.23634C4.22236 4.60134 4.20453 4.75127 4.20453 4.94182Z" fill="white"/>
</g>
</svg>
