<svg width="68" height="70" viewBox="0 0 68 70" fill="none" xmlns="http://www.w3.org/2000/svg">
<path id="Vector" d="M4.08089 0.000244141H63.9196C65.0425 0.000244141 66.063 0.455513 66.802 1.18888C67.5412 1.92225 67.9998 2.93434 67.9998 4.04828V61.9554C67.9998 63.0694 67.5409 64.0817 66.802 64.8148C66.0627 65.5482 65.0425 66.0034 63.9196 66.0034H42.2662V66.001C40.6228 66.0445 39.1605 66.3439 37.8795 66.8998C36.611 67.4501 35.5149 68.257 34.5914 69.3197L33.9999 70.0005L33.4085 69.3197C32.4853 68.257 31.3892 67.4501 30.1203 66.8998C28.8394 66.3439 27.377 66.0445 25.7336 66.001V66.0034H4.08026C2.95737 66.0034 1.93683 65.5482 1.19788 64.8148C0.458618 64.0814 0 63.0694 0 61.9554V4.04828C0 2.93434 0.458929 1.92194 1.19788 1.18888C1.93715 0.455513 2.95737 0.000244141 4.08026 0.000244141L4.08089 0.000244141ZM63.9196 1.5568H4.08089C3.39109 1.5568 2.76322 1.83737 2.30771 2.28924C1.85221 2.74112 1.56938 3.36399 1.56938 4.04828V61.9554C1.56938 62.6397 1.85221 63.2626 2.30771 63.7144C2.76322 64.1663 3.39109 64.4469 4.08089 64.4469H25.7342L25.7526 64.45C27.6119 64.4969 29.2765 64.8392 30.746 65.4769C31.9694 66.0078 33.0544 66.7399 34.0002 67.6736C34.9464 66.7399 36.031 66.0078 37.2544 65.4769C38.7242 64.8392 40.3888 64.4969 42.2479 64.45L42.2662 64.4469H63.9196C64.6094 64.4469 65.2373 64.1663 65.6928 63.7144C66.1483 63.2626 66.4311 62.6397 66.4311 61.9554V4.04828C66.4311 3.36399 66.1483 2.74112 65.6928 2.28924C65.2373 1.83737 64.6094 1.5568 63.9196 1.5568Z" fill="#124285"/>
</svg>
