<svg width="94" height="84" viewBox="0 0 94 84" fill="none" xmlns="http://www.w3.org/2000/svg">
<g id="Vector">
<path d="M24.683 49.2981L32.9833 74.8382C33.5761 76.6495 35.7958 77.3042 37.2563 76.0894L62.0415 55.5031C62.0415 55.5031 35.7018 45.1663 35.7018 45.7264C35.7018 46.2938 24.683 49.2981 24.683 49.2981Z" fill="#A6CBD4"/>
<path d="M90.0874 0.203783C73.899 6.64156 21.6535 28.1881 1.87171 36.3499C-0.738397 37.4265 -0.579333 41.1946 2.10307 42.0602L24.683 49.2981L32.9544 74.7583C33.2869 75.784 34.1256 76.4387 35.0656 76.6205C35.8247 76.766 36.9527 56.0051 36.9527 56.0051C36.9527 56.0051 60.6894 73.7181 71.9468 82.0835C74.7232 84.1422 78.6854 82.5927 79.3361 79.1884C82.6909 61.7955 91.078 18.3096 93.9411 3.44813C94.3749 1.21491 92.1842 -0.618215 90.0802 0.218332L90.0874 0.203783Z" fill="#FEFEFE"/>
<path d="M35.0728 76.6204C35.832 76.7659 36.9527 56.0051 36.9527 56.0051L75.9524 19.1533C76.2127 18.906 75.9018 18.4841 75.5909 18.6732L24.6902 49.3054L32.9616 74.7655C33.2942 75.7912 34.1329 76.4458 35.0728 76.6277V76.6204Z" fill="#CDDDE6"/>
</g>
</svg>
