<svg width="52" height="46" viewBox="0 0 52 46" fill="none" xmlns="http://www.w3.org/2000/svg">
<path id="4 theater" fill-rule="evenodd" clip-rule="evenodd" d="M43.6764 37.1286H48.246V40.3565H43.6764V37.1286ZM26.2077 11.402C26.2077 12.5835 27.4881 11.9541 28.0629 12.3837C28.4631 12.6833 28.7287 13.8686 29.6165 13.3824C30.6541 12.8134 29.4875 10.5936 27.2245 10.5936C26.6193 10.5936 26.2096 10.799 26.2096 11.4001L26.2077 11.402ZM25.0904 20.6842H26.3082V24.0138H25.0904V20.6842ZM23.4648 20.4825V24.2154C23.4648 25.8943 25.1663 25.5269 26.8166 25.5269C27.3269 25.5269 27.8315 25.0256 27.8315 24.5188V20.1811C27.8315 18.862 25.7676 19.1729 24.5821 19.1729C23.939 19.1729 23.4648 19.8155 23.4648 20.4844V20.4825ZM38.2929 20.6842H39.5107V24.0138H38.2929V20.6842ZM36.7697 24.5169C36.7697 25.851 38.7178 25.525 40.0191 25.525C40.7058 25.525 41.1364 24.9145 41.1364 24.2135V20.4807C41.1364 18.8112 39.4197 19.1692 37.887 19.1692C37.3559 19.1692 36.7697 19.6195 36.7697 20.1773V24.5169ZM11.7855 20.9857C11.7855 20.7539 11.8557 20.6823 12.0909 20.6823H13.0052V24.0119H11.7874V20.9857H11.7855ZM10.2623 20.279V24.3153C10.2623 25.8792 11.7381 25.525 13.5117 25.525C14.223 25.525 14.629 24.9427 14.629 24.2135V20.4807C14.629 18.813 12.954 19.1692 11.3796 19.1692C10.7858 19.1692 10.2623 19.6892 10.2623 20.279ZM31.7922 20.6823H32.7065C32.9398 20.6823 33.0119 20.752 33.0119 20.9857V24.0119H31.7941V20.6823H31.7922ZM30.1666 20.279V24.4151C30.1666 25.8642 32.1204 25.525 33.5184 25.525C34.0799 25.525 34.5332 24.9427 34.5332 24.4151V20.279C34.5332 18.8413 32.6174 19.1692 31.2838 19.1692C30.7053 19.1692 30.1666 19.7269 30.1666 20.279ZM11.7836 29.4594H13.0014V32.6873H11.7836V29.4594ZM10.2604 28.9544V33.1923C10.2604 34.7487 13.671 34.3681 14.1434 34.0233C14.3672 33.8593 14.6271 33.4485 14.6271 33.0905V29.1561C14.6271 27.5393 12.9199 27.8446 11.5806 27.8446C10.8864 27.8446 10.2604 28.3081 10.2604 28.9544ZM31.7903 29.4594H33.0081V32.6873H31.7903V29.4594ZM30.1647 29.1561V33.0905C30.1647 34.5094 32.0179 34.3003 32.9076 34.3003C33.8655 34.3003 34.5332 33.9422 34.5332 32.9888V28.9526C34.5332 27.5487 32.4277 27.8427 31.4868 27.8427C30.692 27.8427 30.1666 28.3647 30.1666 29.1542L30.1647 29.1561ZM38.2891 29.4594H39.5069V32.6873H38.2891V29.4594ZM36.7659 28.9544V33.1923C36.7659 34.4642 38.6211 34.3021 39.5088 34.3021C40.5256 34.3021 41.1345 33.8951 41.1345 32.8889V29.0543C41.1345 27.5318 39.0707 27.8446 38.0881 27.8446C37.354 27.8446 36.7678 28.2478 36.7678 28.9544H36.7659ZM18.383 20.6823H19.6008V24.0119H18.383V20.6823ZM16.7573 20.784C16.7573 26.0149 16.4405 25.525 20.1091 25.525C20.7788 25.525 21.2264 24.8014 21.2264 24.1117V20.5805C21.2264 18.8093 19.6027 19.1673 18.0776 19.1673C17.1177 19.1673 16.7573 19.8287 16.7573 20.7822V20.784ZM18.383 29.4594H19.6008V32.6873H18.383V29.4594ZM16.7573 29.6611C16.7573 34.2645 16.414 34.3021 19.6008 34.3021C21.7215 34.3021 21.2264 32.3688 21.2264 29.4594C21.2264 27.4734 19.7999 27.8446 17.977 27.8446C16.9641 27.8446 16.7592 28.8263 16.7592 29.6611H16.7573ZM51.9981 8.97878V12.6099C51.8881 13.6726 51.4385 13.7197 49.866 13.7197V17.1492C49.866 17.8991 49.4543 18.4023 48.7487 18.4607C48.7487 19.3011 48.7487 20.1415 48.7487 20.9819C48.7487 21.2683 48.7847 21.9429 48.7411 22.186C48.5932 23.0358 47.2255 23.0471 47.2255 22.0918V18.5605H44.6855V35.51H47.2255V25.4213C47.2255 24.6752 48.7487 24.4886 48.7487 25.623V35.6099C49.4828 35.6268 49.866 36.1808 49.866 36.9213V40.3508C50.5147 40.3508 51.9981 40.1624 51.9981 41.3589V44.8901C51.9981 45.4799 51.4746 46 50.8808 46H1.11728C0.586145 46 0 45.5496 0 44.9919V41.5492C0.0948455 40.3715 0.52165 40.3527 2.13213 40.3527V36.9232C2.13213 36.2128 2.53807 35.6268 3.24941 35.6117V18.4607C2.54376 18.4023 2.13213 17.8991 2.13213 17.1492V13.7197C1.40561 13.7197 0 13.8629 0 12.7116V8.97878C0 8.34942 0.59563 7.87834 1.41699 7.86326C2.25543 7.84819 3.12042 7.86892 3.96075 7.86892C4.02524 7.62772 4.42929 7.02663 4.59052 6.7779L6.60314 3.63108C7.62937 2.08783 8.49247 0 9.85255 0H41.438C42.6274 0 42.9366 0.810257 43.4279 1.55456L45.4405 4.69949C45.6795 5.06128 45.9033 5.42119 46.1044 5.75471L47.4303 7.86892C48.3788 7.86892 49.3291 7.86703 50.2776 7.86515C51.0686 7.86326 52 8.08561 52 8.97878H51.9981ZM18.3811 37.9332H33.0062V40.3546H18.3811V37.9332ZM3.75588 37.1267H8.32554V40.3546H3.75588V37.1267ZM24.1685 29.4594H27.1144V36.3202H24.1685V29.4594ZM7.30879 27.0381V35.5119H4.76883V18.5624H7.30879C7.30879 19.3972 7.1229 23.5917 7.4871 24.0345C7.56298 24.1268 7.83424 24.3134 7.9177 24.3134C9.13552 24.3134 8.83201 23.049 8.83201 21.892C8.83201 20.7482 8.83201 19.6045 8.83201 18.4626C9.53766 18.4041 9.94929 17.901 9.94929 17.1511V13.7216H18.3792C18.7263 15.0161 22.2545 17.7239 25.6918 15.4363C26.1831 15.6945 26.3329 15.832 26.9209 16.0299C29.8384 17.0116 32.6363 15.0877 33.0043 13.7197H42.0431V17.1492C42.0431 17.8991 42.4547 18.4023 43.1604 18.4607V35.6117C42.4263 35.6287 42.0431 36.1827 42.0431 36.9232V40.3527H39.911C38.8639 40.3527 38.8999 41.8658 39.911 41.8658H50.473V44.4888H1.52132V41.8658H36.3562C37.5247 41.8658 37.2477 40.3527 36.5591 40.3527H34.5276V37.4263C34.5276 36.8592 33.8561 36.3165 33.3097 36.3165H28.7401V28.9526C28.7401 28.3062 28.1141 27.8427 27.4198 27.8427H23.9675C23.2732 27.8427 22.6472 28.3062 22.6472 28.9526V36.3165H18.1781C16.3798 36.3165 16.7554 38.3346 16.7554 40.3527H9.95119V36.9232C9.95119 36.1827 9.56801 35.6287 8.83391 35.6117V27.0362C8.83391 26.0224 7.31069 25.9301 7.31069 27.0362L7.30879 27.0381ZM43.6669 13.7216H48.2365V16.9494H43.6669V13.7216ZM3.75399 13.7216H8.32364V16.9494H3.75399V13.7216ZM35.7454 9.48378H50.4711V12.2085H34.0192C34.133 11.7242 34.924 10.5861 35.201 10.0528C35.3356 9.79469 35.4134 9.48378 35.7454 9.48378ZM1.51943 9.48378H15.9416C16.0536 9.96051 16.4405 10.4297 16.6833 10.865C16.947 11.3379 17.186 11.794 17.4649 12.2085H1.51943V9.48378ZM28.7363 14.7297C27.4938 14.7297 26.4752 14.3001 25.8454 13.4653C24.804 12.0804 24.7964 10.735 25.6216 9.21432L27.0405 6.79109C27.2264 6.46133 27.6418 5.8395 27.7195 5.54932C28.1103 5.80936 28.6263 6.35204 29.0246 6.67426C29.681 7.20375 30.4302 7.78035 31.2137 8.13084L33.9149 9.08053C33.3894 10.0679 31.612 13.3824 30.7546 14.0118C30.2348 14.3943 29.6089 14.7297 28.7344 14.7297H28.7363ZM21.3232 5.85269C21.3232 6.49713 21.8429 7.06243 22.9071 6.21448C23.2599 5.93372 23.2922 5.68876 23.7607 5.64919L24.7755 7.56554C23.0323 10.1508 23.8176 11.4039 22.4386 11.4981C22.3399 11.5057 21.1202 11.3398 21.1202 12.3065C21.1202 13.6839 23.6431 12.8209 23.7607 12.8115C23.8043 13.3259 24.2577 13.9232 24.472 14.3246C23.2523 14.9653 21.8145 14.8522 20.6972 14.0382C20.1129 13.6123 19.8303 13.1921 19.4642 12.5383C18.7965 11.3455 18.0889 10.2488 17.4649 9.07677C17.7892 9.05038 18.4664 8.76208 18.8496 8.63772C19.6159 8.38522 19.7999 8.33623 19.7999 7.56366C19.7999 7.3055 19.5173 6.95879 18.9881 6.95879L17.0741 7.57873C16.8749 7.6541 16.6776 7.77093 16.4121 7.82935C15.8885 7.94429 6.77576 7.86703 5.78747 7.86703C6.06822 7.34131 6.47226 6.74775 6.80422 6.25405L8.91548 2.90374C9.43523 2.07652 9.65717 1.51122 10.2566 1.51122H41.1307C41.6865 1.51122 41.8914 2.02376 42.4073 2.86605L44.9947 6.95502C45.1768 7.2584 45.4044 7.46756 45.4974 7.86703H35.9502C35.2749 7.8708 35.2123 7.91602 34.685 7.71063C33.2415 7.14722 32.0407 6.91734 30.8286 6.09389C30.5839 5.92807 30.3183 5.70949 30.0907 5.5154C27.8144 3.59151 27.4729 2.79256 26.1053 5.24971C25.9042 5.60962 25.982 5.74529 25.5912 5.84893C25.5115 5.55497 24.7054 3.73095 23.7626 3.73095C23.1252 3.73095 22.3304 4.68819 21.7879 5.09708C21.5053 5.31001 21.3251 5.39857 21.3251 5.84893L21.3232 5.85269Z" fill="#FAC06C"/>
</svg>
