<svg width="36" height="21" viewBox="0 0 36 21" fill="none" xmlns="http://www.w3.org/2000/svg">
<path id="Vector" d="M17.6133 20.9106H19.7646C19.7646 20.9106 20.4154 20.8374 20.746 20.4716C21.0515 20.1359 21.0413 19.5053 21.0413 19.5053C21.0413 19.5053 20.9981 16.5531 22.3396 16.1187C23.6606 15.6914 25.3576 18.9722 27.1556 20.2347C28.0904 20.8908 28.8696 20.9977 29.2661 21C29.2751 21 29.2842 21 29.2922 21C29.4557 20.9988 29.5466 20.9803 29.5466 20.9803L34.3558 20.9117C34.3558 20.9117 36.8718 20.7526 35.6791 18.7307C35.5826 18.5646 34.984 17.2348 32.1034 14.5021C29.0877 11.6405 29.4932 12.105 33.1246 7.15524C35.3361 4.14147 36.2209 2.30069 35.9438 1.51327C35.6802 0.763024 34.0537 0.961619 34.0537 0.961619L28.6436 0.994138C28.6436 0.994138 28.2426 0.938392 27.9439 1.12073C27.6531 1.30074 27.4669 1.71419 27.4669 1.71419C27.4669 1.71419 26.6093 4.0474 25.4666 6.03103C23.0563 10.2166 22.0908 10.4373 21.6978 10.1771C20.7823 9.57206 21.0118 7.74289 21.0118 6.44564C21.0118 2.38895 21.6126 0.697987 19.8396 0.26131C19.25 0.116138 18.8184 0.0197434 17.3123 0.00348413C17.1555 0.00232275 17.001 0 16.85 0H16.2434C14.7838 0.00929101 13.5696 0.098717 12.8211 0.47268C12.2043 0.780445 11.7295 1.46914 12.0203 1.50747C12.3781 1.55624 13.188 1.73045 13.6185 2.32856C14.1739 3.09971 14.1546 4.83365 14.1546 4.83365C14.1546 4.83365 14.4738 9.60806 13.4095 10.2015C12.678 10.6092 11.6773 9.77879 9.52822 5.97993C8.42758 4.03578 7.59499 1.88491 7.59499 1.88491C7.59499 1.88491 7.43483 1.48424 7.14973 1.27055C6.8033 1.0104 6.31715 0.92794 6.31715 0.92794L1.17284 0.960458C1.17284 0.960458 0.401594 0.983685 0.117629 1.32629C-0.134531 1.63173 0.0971838 2.26236 0.0971838 2.26236C0.0971838 2.26236 4.12494 11.896 8.68428 16.7528C12.8677 21.2044 17.6155 20.9129 17.6155 20.9129L17.6133 20.9106Z" fill="white"/>
</svg>
