<svg width="16" height="16" viewBox="0 0 16 16" fill="none" xmlns="http://www.w3.org/2000/svg">
<g id="Vector">
<path fill-rule="evenodd" clip-rule="evenodd" d="M0 1.66667V5.26666C0 6.12555 0.807016 6.93333 1.66508 6.93333H5.26165C6.11972 6.93333 6.92674 6.12555 6.92674 5.26666V1.66667C6.92674 0.807785 6.11972 0 5.26165 0H1.66508C0.807016 0 0 0.807785 0 1.66667Z" fill="#CBD1DC"/>
<path fill-rule="evenodd" clip-rule="evenodd" d="M9.05804 1.66667V5.26667C9.05804 6.12555 9.86505 6.93334 10.7231 6.93334H14.3197C15.1778 6.93334 15.9848 6.12555 15.9848 5.26667V1.66667C15.9848 0.807791 15.1778 6.20866e-06 14.3197 6.20866e-06H10.7231C9.86505 6.20866e-06 9.05804 0.807791 9.05804 1.66667Z" fill="#CBD1DC"/>
<path fill-rule="evenodd" clip-rule="evenodd" d="M1.53955e-07 10.7333V14.3333C1.53955e-07 15.1922 0.807017 16 1.66508 16H5.26165C6.11972 16 6.92674 15.1922 6.92674 14.3333V10.7333C6.92674 9.87445 6.11972 9.06667 5.26165 9.06667H1.66508C0.807017 9.06667 1.53955e-07 9.87445 1.53955e-07 10.7333Z" fill="#CBD1DC"/>
<path fill-rule="evenodd" clip-rule="evenodd" d="M9.05804 12.3333C9.05804 13.1877 9.18793 13.861 9.68554 14.5386C10.2802 15.3482 11.2938 16 12.3216 16C12.9915 16 13.4162 15.9709 14.0201 15.6668C14.7808 15.2839 15.2693 14.7949 15.6519 14.0335C16.3852 12.5742 15.9339 10.7441 14.5437 9.70908C13.5699 8.98402 12.1141 8.84783 11.0227 9.39986C10.2563 9.78752 9.77853 10.2654 9.39091 11.0332C9.23759 11.3369 9.05804 11.881 9.05804 12.3333Z" fill="#CBD1DC"/>
</g>
</svg>
