<svg width="16" height="16" viewBox="0 0 16 16" fill="none" xmlns="http://www.w3.org/2000/svg">
<path id="Vector" fill-rule="evenodd" clip-rule="evenodd" d="M0 6.4651C0 7.36216 0.573907 7.51961 1.27329 7.6915C2.71884 8.04677 4.3891 8.54383 5.8665 8.93135L6.80104 9.19671L8.4194 15.1436C8.49433 15.4401 8.65611 15.6961 8.91284 15.85C9.38995 16.1359 10.0475 16.0053 10.3612 15.5241C10.5798 15.189 15.1545 3.41197 15.6571 2.15656C15.8429 1.69238 16 1.45173 16 0.999743C16 0.476294 15.5236 0 15 0C14.5506 0 14.3182 0.152536 13.8667 0.333248C13.5489 0.460395 13.2364 0.578637 12.9096 0.709405C12.5804 0.841131 12.285 0.952463 11.9524 1.08548L1.43364 5.23241C1.1392 5.3494 0.754372 5.46727 0.488275 5.6203C0.246156 5.75952 0 6.09672 0 6.4651Z" fill="#CBD1DC"/>
</svg>
