<svg width="90" height="49" viewBox="0 0 90 49" fill="none" xmlns="http://www.w3.org/2000/svg">
<path id="&#208;&#144;&#208;&#178;&#209;&#130;&#208;&#190;&#208;&#177;&#209;&#131;&#209;&#129;" fill-rule="evenodd" clip-rule="evenodd" d="M27.8075 41.2879L27.7153 42.1881C27.6846 42.3508 27.7051 42.5896 27.6477 42.7397C27.3978 43.3852 27.4603 43.4676 27.0576 44.1629C26.9603 44.3319 27.1263 44.054 27.0269 44.2136L25.5599 45.7689C25.2863 45.9559 24.9483 46.163 24.6317 46.2633L24.1728 46.4113C23.9802 46.4556 24.0672 46.4514 23.9423 46.5053C23.8675 46.537 22.9536 46.6363 22.8225 46.6363C22.6309 46.6363 21.7489 46.5624 21.5952 46.4916L21.2192 46.3817C21.0768 46.3468 21.1946 46.3806 21.0758 46.3225L20.5687 46.0996C20.5595 46.0964 20.5472 46.0932 20.538 46.0901L20.2798 45.9422C20.1835 45.8883 20.2071 45.8946 20.1323 45.846C20.1251 45.8407 20.1149 45.8354 20.1077 45.8302C19.8403 45.6622 19.5975 45.454 19.3609 45.2311C19.3117 45.1846 19.2871 45.1666 19.2349 45.1127C19.1826 45.0588 19.1652 45.0335 19.1201 44.9828L19.0617 44.9183C19.031 44.8835 19.0269 44.8792 19.0033 44.8539L18.6017 44.315C18.3979 44.0202 18.0506 43.2975 17.9994 42.9869C17.9502 42.6847 17.8375 42.5252 17.8354 42.2019C17.8334 41.7222 17.7566 40.7956 17.8846 40.3835C17.9256 40.2535 17.9666 40.2039 17.9912 40.0369L18.7564 38.4214C18.9705 38.1055 19.3557 37.6607 19.6836 37.4282L21.1875 36.5745C21.8257 36.3611 22.5531 36.2988 23.221 36.3569C23.7988 36.4076 24.0396 36.4583 24.5713 36.6654C24.6563 36.6981 24.6809 36.6908 24.7557 36.7246C24.9175 36.7985 24.7618 36.7362 24.8807 36.8027L26.0752 37.6026C26.0813 37.6089 26.0895 37.6174 26.0957 37.6227L26.3815 37.9079C26.4727 38.0094 26.5331 38.0537 26.6181 38.1615L26.9101 38.5651C27.1591 38.9666 27.2554 39.0585 27.4049 39.5055L27.5299 39.833C27.5514 39.9228 27.5432 39.9366 27.574 40.0369C27.6262 40.2081 27.6754 40.1827 27.6867 40.4184C27.6969 40.6381 27.6938 40.6698 27.7358 40.8653C27.7635 40.9942 27.8065 41.1083 27.8065 41.29L27.8075 41.2879ZM2.21344 24.763H64.2415L63.5397 23.5205C63.5172 23.4772 63.5233 23.4814 63.4987 23.4381L62.7447 22.1015C62.6976 22.0244 62.7048 22.0445 62.6525 21.9483L62.507 21.6831C62.4528 21.5817 62.4282 21.5933 62.3954 21.4665H2.21344V24.763ZM65.5518 27.0854H2.21344V41.6609H15.4638C15.4638 41.4295 15.4945 41.3946 15.5038 41.2045C15.5478 40.3433 15.4986 40.9931 15.6093 40.3592C15.6482 40.1331 15.6113 39.9577 15.6984 39.7464C15.7599 39.5974 15.766 39.3586 15.8429 39.1906C15.8992 39.067 15.8695 39.1705 15.9054 39.0068L17.0968 36.7932C17.1019 36.7869 17.1101 36.7774 17.1163 36.771C17.4564 36.3717 17.775 36.004 18.1756 35.6659C18.1817 35.6606 18.192 35.6532 18.1981 35.6479C18.2043 35.6426 18.2145 35.6352 18.2206 35.6299L18.6847 35.2792C18.6919 35.2739 18.7011 35.2675 18.7083 35.2623L18.8251 35.1746C18.862 35.1492 18.8609 35.1524 18.8999 35.127L21.0441 34.1877C21.2438 34.0905 22.3789 33.9479 22.6207 33.9479C23.7046 33.9479 23.7783 34.0895 24.1103 34.1116C24.5405 34.1402 24.3695 34.174 24.6368 34.2321C24.6922 34.2437 24.7506 34.2427 24.8161 34.2553C25.0231 34.2934 25.5414 34.5121 25.7484 34.6209C25.8805 34.6906 25.9379 34.6854 26.0629 34.753C26.1664 34.809 26.237 34.8692 26.3323 34.9315L27.2103 35.519C27.2175 35.5243 27.2267 35.5317 27.2338 35.5359L27.7153 35.9511C27.7604 35.9913 27.7778 36.0061 27.8229 36.0473L28.455 36.7637C28.4878 36.8101 28.4755 36.7975 28.5032 36.8387C28.5083 36.8461 28.5144 36.8556 28.5195 36.863L28.9068 37.4166C28.9488 37.4906 28.9457 37.4832 28.9846 37.5445L29.7755 39.3829C29.8032 39.5773 29.7632 39.4379 29.8268 39.5784C29.9067 39.7538 30.0593 40.674 30.0593 40.8315V41.6609H41.3673C41.52 41.6609 41.9236 41.9483 41.9994 42.0455C42.1254 42.2071 42.1777 42.373 42.2422 42.5822C42.359 42.9584 42.1828 43.4011 41.9164 43.6768L41.7535 43.7994C41.7105 43.8227 41.7156 43.8153 41.6726 43.8406L41.312 43.9663C40.8243 44.0371 30.1935 43.9822 29.6567 43.9822L29.2049 45.0081L28.5738 46.0161C28.5667 46.0256 28.5441 46.052 28.537 46.0615L28.3485 46.3225C28.2286 46.481 28.1302 46.5729 28.0042 46.7145L27.2564 47.3949C26.6704 47.8281 26.3333 48.0352 25.7053 48.3659L25.5578 48.4209C25.4523 48.4589 25.5199 48.4336 25.4451 48.4705L24.9237 48.6787C24.853 48.6988 24.7075 48.6998 24.6143 48.7326C24.5108 48.7706 24.5395 48.8065 24.3858 48.8287C24.265 48.8467 24.182 48.8308 24.0498 48.8551C23.7271 48.9143 23.4915 48.9988 23.1442 48.9988C22.3339 48.9988 22.3308 49.0221 21.5481 48.8615C21.462 48.8435 21.3493 48.8446 21.2151 48.8319C21.0184 48.8129 21.0768 48.778 20.9498 48.7326C20.8484 48.6966 20.7418 48.7051 20.6445 48.6745C20.5308 48.6385 20.5062 48.6005 20.3904 48.5635L19.616 48.2434C19.536 48.2085 19.5586 48.2201 19.4828 48.1736L19.0679 47.938C19.0566 47.9327 19.0259 47.9148 19.0156 47.9084L18.3979 47.4668C18.3887 47.4583 18.3651 47.4351 18.3559 47.4266L17.9994 47.1308C17.9625 47.098 17.9512 47.0896 17.9113 47.0558C17.6039 46.7906 17.356 46.4609 17.0978 46.1524L16.894 45.9062C16.8028 45.79 16.8161 45.7889 16.7526 45.678L16.7219 45.6273C16.7167 45.6199 16.7096 45.6104 16.7055 45.603L16.6542 45.5311C16.6491 45.5237 16.643 45.5132 16.6389 45.5058L16.433 45.1381C16.4289 45.1307 16.4217 45.1201 16.4176 45.1127L15.9074 43.9801C14.7641 43.9801 2.38453 44.0477 1.37236 43.9378C1.21254 43.9209 1.24738 43.903 1.106 43.8396L1.04761 43.8163C0.836567 43.7339 0.684947 43.6082 0.522057 43.4465L0.462639 43.3831C-0.0793011 42.7756 0.00470468 42.5294 0.00470468 41.6577V6.69978C0.00470468 6.50854 -0.00144208 6.21798 0.0569522 6.09013L0.193205 5.81542C0.235208 5.74252 0.200377 5.81014 0.237257 5.73618C0.263893 5.68124 0.264918 5.65905 0.302823 5.59671C0.350972 5.51852 0.450345 5.42977 0.516935 5.36109C0.600941 5.27445 0.655237 5.22268 0.756659 5.15189C1.00253 4.97861 1.12854 4.96805 1.38363 4.88563C1.53422 4.83703 1.53422 4.79899 1.73297 4.79054C2.61708 4.74933 19.9755 4.7916 20.8648 4.7916C21.2889 4.7916 21.5399 4.90782 21.5532 4.58979C21.5768 4.03086 21.4897 3.26062 21.5655 2.7355C21.6403 2.21672 21.5092 2.62139 21.6854 2.11317L21.7141 1.97687C21.755 1.78775 21.8769 1.61975 21.9671 1.44964C21.9712 1.44119 21.9763 1.43062 21.9804 1.42217L22.007 1.36617C22.0992 1.19818 22.005 1.34927 22.1115 1.22459L22.3933 0.892825C22.3984 0.886485 22.4066 0.876976 22.4127 0.870636C22.6443 0.611775 22.9496 0.420534 23.2528 0.286349C23.5571 0.151107 23.8357 0.0200909 24.2414 0.0200909C25.439 0.0200909 33.5568 -0.0369643 34.0311 0.0412225C34.0383 0.0422791 34.1572 0.0644672 34.1674 0.0665804L34.8394 0.285292C34.8487 0.289518 34.8589 0.293745 34.8681 0.296914C34.9286 0.322272 34.9224 0.311706 34.987 0.340234L35.3742 0.563172L36.6824 1.95152C36.6876 1.95891 36.6947 1.96842 36.6999 1.97476L36.9703 2.31815C37.4242 3.03768 38.298 4.01924 38.798 4.78737H62.8421C63.4629 4.78632 63.1023 4.75884 63.5377 4.89937C63.7651 4.97227 63.9177 5.10435 64.0724 5.30193L64.1073 5.34841C64.1124 5.35581 64.1185 5.36532 64.1236 5.37272C64.1749 5.45724 64.1462 5.41392 64.1872 5.5143C64.3326 5.86297 64.3408 6.09436 64.1933 6.42929C64.1892 6.43775 64.1851 6.44937 64.181 6.45888C64.1769 6.46839 64.1739 6.47895 64.1698 6.48846C63.9751 6.94173 63.4035 7.19214 63.1238 7.19214H2.21754V19.1346C2.98076 19.1346 4.41808 19.1621 4.66907 19.1526C5.08091 19.1368 4.98563 19.0205 4.98461 18.5123C4.98358 17.2719 4.93236 10.9462 4.99997 10.6493C5.03481 10.4971 5.05734 10.5214 5.10959 10.3893C5.15262 10.2795 5.15364 10.2404 5.21716 10.1273C5.38107 9.83676 5.62285 9.59797 5.90355 9.42575C6.00702 9.36236 6.0521 9.37503 6.17196 9.3296C6.30924 9.27783 6.2908 9.225 6.39222 9.225H57.3745C57.5149 9.225 57.5456 9.281 57.6757 9.3296C58.0691 9.47435 58.3559 9.74378 58.6069 10.0692C58.7749 10.2879 58.8856 10.5468 59.0259 10.7982L59.5423 11.7175C59.5699 11.765 59.5853 11.802 59.616 11.8485C59.658 11.9129 59.6201 11.8464 59.6673 11.9193C59.6724 11.9267 59.6785 11.9362 59.6836 11.9436C60.0104 12.4888 60.2717 13.0635 60.6046 13.6056L61.6393 15.4408C61.6434 15.4482 61.6506 15.4578 61.6557 15.4662L62.1557 16.3601C62.212 16.4763 62.1618 16.3844 62.2294 16.4911C62.2704 16.5566 62.2612 16.5376 62.3052 16.62C62.3267 16.6601 62.3278 16.6644 62.3483 16.7003L63.2508 18.2989C63.2867 18.3559 63.2949 18.3771 63.3236 18.431L63.9864 19.6133C63.9905 19.6207 63.9966 19.6312 64.0007 19.6397L64.388 20.318C64.3921 20.3254 64.3992 20.336 64.4033 20.3434L64.6994 20.8674C64.7332 20.9287 64.7342 20.9446 64.7691 21.0027L65.1307 21.625C65.1625 21.6842 65.1645 21.7064 65.1963 21.7645L65.644 22.5463C65.6798 22.6097 65.647 22.5453 65.69 22.6224L67.0157 24.9881C67.0813 25.1191 67.0802 25.1149 67.1479 25.2248L67.8916 26.5307C67.9131 26.5751 67.908 26.5719 67.9305 26.6142C67.9367 26.6247 67.9541 26.6554 67.9603 26.6659C67.9674 26.6786 67.99 26.7124 68.0064 26.7431L68.744 28.0564C68.7481 28.0648 68.7532 28.0754 68.7573 28.0839L69.038 28.5815C69.0677 28.6417 69.0687 28.6523 69.1077 28.7168C69.1476 28.7823 69.1159 28.7231 69.1568 28.7907L69.8545 30.0206C69.8596 30.028 69.8658 30.0375 69.8709 30.0449L70.1926 30.6249C70.1967 30.6323 70.2028 30.644 70.2069 30.6514L70.2684 30.7538C70.2725 30.7612 70.2796 30.7718 70.2837 30.7792L70.9875 32.0439C70.9927 32.0513 70.9998 32.0608 71.0039 32.0682L71.9311 33.7239C71.9352 33.7323 71.9403 33.7429 71.9454 33.7513C71.9495 33.7598 71.9557 33.7693 71.9598 33.7778L72.2271 34.2479C72.2773 34.3536 72.3183 34.4244 72.3736 34.5121L73.0303 35.6595C73.0611 35.7124 73.0692 35.7441 73.099 35.7958L74.0445 37.4737C74.0722 37.5212 74.0773 37.5371 74.1029 37.5793L74.7432 38.7014C74.7483 38.7088 74.7545 38.7183 74.7596 38.7257L76.2809 41.4697C76.3424 41.5711 76.369 41.6461 76.4725 41.6461C77.3064 41.6461 81.688 41.7137 82.1419 41.6049C82.1419 40.9054 82.2177 39.0068 82.1019 38.4943C81.5887 38.4943 80.9975 38.5229 80.4935 38.4943C80.3163 38.4848 80.3255 38.4563 80.1329 38.451C80.0141 38.4478 79.8501 38.4679 79.7385 38.4426L79.0695 38.1372C79.0623 38.133 79.0521 38.1256 79.0449 38.1203L78.6976 37.8562C78.2469 37.4557 78.1383 37.0817 77.9406 36.5629C77.8064 36.2111 77.8791 33.4333 77.8791 32.8533L78.0502 32.2003C78.0871 32.1052 78.0778 32.1485 78.1229 32.0682L78.3483 31.6783L79.5848 30.7559C79.593 30.7517 79.6022 30.7454 79.6104 30.7412C79.7129 30.6947 79.6135 30.7169 79.7702 30.6989C80.0284 30.6704 80.2405 30.6556 80.5335 30.6566C81.0559 30.6577 81.5784 30.6566 82.1019 30.6566C82.2074 30.1896 82.1419 29.0792 82.1419 28.5414C82.1419 28.2825 82.0343 28.2867 81.7823 28.2899C81.5938 28.2931 81.4053 28.292 81.2168 28.292L74.2197 28.2931C73.9697 28.2931 73.9083 28.2476 73.6593 28.2487C73.1707 28.2508 72.8951 28.1367 72.4894 27.9624C72.1759 27.8282 71.8594 27.6633 71.592 27.4362L71.2211 27.1139C71.215 27.1076 71.2068 27.0991 71.2006 27.0928C71.1945 27.0865 71.1873 27.078 71.1812 27.0717C71.176 27.0653 71.1678 27.0558 71.1627 27.0495C71.1269 27.0072 71.1474 27.0305 71.1084 26.9808L70.9599 26.8022C70.9537 26.7959 70.9455 26.7874 70.9404 26.7811C70.5849 26.3912 70.3626 25.865 70.0983 25.4107L70.0676 25.3589C70.0215 25.2808 70.045 25.3272 70.0082 25.2543C69.9805 25.1994 69.9877 25.2015 69.9559 25.1423L68.872 23.2331C68.8679 23.2247 68.8628 23.2141 68.8587 23.2056L68.37 22.3414C68.3301 22.2706 68.3373 22.2928 68.3075 22.2399L68.1467 21.9494C68.074 21.8247 68.0258 21.7011 67.9469 21.5753C67.9234 21.5384 67.8998 21.5088 67.8814 21.4771L67.8404 21.3947C67.8363 21.3862 67.8322 21.3746 67.8281 21.3651L67.3323 20.5071C67.32 20.486 67.3056 20.4649 67.2872 20.43C67.239 20.3391 67.2421 20.3244 67.1899 20.2398C67.1509 20.1754 67.1735 20.2261 67.1264 20.1395C67.1028 20.0961 67.1089 20.1014 67.0854 20.057L66.8344 19.6112C66.8006 19.5393 66.8446 19.6238 66.8098 19.5531L66.358 18.7754C66.3539 18.768 66.3478 18.7574 66.3426 18.749C66.3385 18.7416 66.3314 18.731 66.3273 18.7236C66.2812 18.6455 66.3047 18.6919 66.2679 18.619C66.2474 18.5789 66.2535 18.5821 66.2289 18.5345L64.8357 16.0737C64.807 16.0146 64.8172 16.0167 64.7875 15.9575C64.7629 15.9068 64.7588 15.9068 64.7424 15.8793C64.7004 15.8085 64.681 15.7673 64.6379 15.6976L64.5703 15.6014C64.5652 15.5941 64.559 15.5845 64.5539 15.5761L63.8788 14.3653C63.8378 14.2902 63.8255 14.2459 63.7846 14.1719L62.4886 11.9003C62.4384 11.7988 62.4384 11.8136 62.3882 11.7132C62.3677 11.672 62.3585 11.6446 62.3349 11.6023L62.2397 11.41C62.1854 11.2209 62.1167 11.0148 62.1167 10.8321C62.1167 10.6472 62.1434 10.6915 62.1936 10.4971C62.2571 10.2467 62.2304 10.2509 62.3503 10.0365L62.4067 9.92868C62.4466 9.85895 62.4763 9.81774 62.5245 9.75963L62.9271 9.42892C63.1893 9.27043 63.4024 9.21232 63.7251 9.21549C68.4161 9.24719 73.1071 9.20809 77.7982 9.21549C78.5358 9.21655 78.4897 9.2567 78.1444 8.9841L77.5349 8.5752L75.2524 7.52919C75.2175 7.51863 75.0854 7.49961 75.0465 7.49221C74.8231 7.45206 74.8508 7.42353 74.6776 7.37493C74.5404 7.33584 74.3068 7.34323 74.2064 7.3221C73.9923 7.27667 74.0343 7.2418 73.8171 7.22595C72.5673 7.13826 71.1525 7.18475 69.836 7.18475C69.2685 7.18475 68.3424 7.28618 67.8937 7.11396C67.6652 7.02626 67.7103 7.10656 67.529 6.95124C67.3405 6.78959 67.1561 6.61314 67.0884 6.36801C66.9491 5.86086 66.9788 5.99187 67.1028 5.52803C67.1643 5.29981 67.4214 5.01137 67.6437 4.92473L68.0658 4.77998H73.0918C73.4247 4.77998 73.647 4.89726 73.9749 4.90571C74.4307 4.91627 74.4328 4.95431 74.819 5.03039C74.9532 5.0568 75.1335 5.0494 75.2749 5.09906C75.3651 5.13076 75.3374 5.1445 75.4429 5.17514C75.529 5.20049 75.5638 5.19098 75.655 5.20578L76.4131 5.46147C76.4223 5.46569 76.4325 5.46886 76.4428 5.47203C76.6292 5.53543 76.284 5.42977 76.5063 5.48894C76.7932 5.56501 77.0042 5.6918 77.289 5.80169C77.8227 6.00772 78.337 6.32364 78.8144 6.63427L79.3492 6.99562C79.6955 7.24286 80.0397 7.49749 80.347 7.79122L81.436 8.90697C81.643 9.11512 81.7987 9.36024 81.98 9.58952L82.7258 10.7275C82.7955 10.8542 82.8078 10.7782 82.8231 10.9588C83.0147 10.9757 83.1315 11.0011 83.3856 11.0001C84.4448 10.9958 86.7499 10.9377 87.5264 11.0001C87.717 11.0159 87.8205 11.0941 88.0049 11.129C88.2097 11.168 88.3911 11.2642 88.5704 11.3751L88.9976 11.6815C89.0037 11.6868 89.0129 11.6953 89.0191 11.7006C89.0252 11.7058 89.0344 11.7143 89.0406 11.7196L89.5477 12.3165C89.5795 12.3662 89.5764 12.3704 89.6081 12.4201L89.855 12.9114C89.8878 13.0245 89.8714 13.0139 89.9206 13.1343C89.978 13.2749 89.9677 13.1312 89.9821 13.3615C90.0138 13.8951 90.0077 18.0749 89.9288 18.2873L89.9063 18.3464C89.9042 18.3517 89.8765 18.4796 89.8765 18.4817C89.8243 18.7553 89.7044 19.01 89.5835 19.2572L89.4954 19.4146C89.4913 19.4231 89.4852 19.4326 89.4811 19.4411L89.3633 19.6513C89.3582 19.6577 89.35 19.6672 89.3448 19.6735L88.8121 20.3677C88.807 20.374 88.7978 20.3825 88.7927 20.3888L88.3665 20.8199C88.3593 20.8252 88.3491 20.8305 88.3419 20.8357C88.3347 20.841 88.3245 20.8463 88.3163 20.8516C88.3091 20.8569 88.2989 20.8622 88.2917 20.8674C88.1657 20.9498 88.1012 20.9932 87.9311 20.9932C87.6053 20.9932 87.4547 21.0185 87.1843 20.8505C87.1771 20.8463 87.1658 20.84 87.1586 20.8357C86.9507 20.7079 86.6444 20.3856 86.6444 20.1225C86.6444 19.8235 86.6003 19.4949 86.7612 19.2477L86.9425 19.0205C87.1494 18.7553 87.3932 18.4859 87.5377 18.1827C87.5418 18.1742 87.5469 18.1636 87.551 18.1552L87.7692 17.4684V13.9437C87.7692 13.8137 87.7272 13.7672 87.6709 13.6721C87.6647 13.6616 87.6463 13.632 87.6391 13.6214C87.5408 13.4746 87.4814 13.426 87.3011 13.39C86.8585 13.3023 84.6405 13.3626 84.03 13.3626C83.8804 13.3626 83.9224 13.4513 83.9398 13.5284C83.9705 13.6679 83.9664 13.5918 83.989 13.7778C84.0207 14.0409 84.0873 14.0092 84.1191 14.2659L84.2318 14.772C84.284 14.9337 84.2553 15.1355 84.2768 15.3479C84.2943 15.5264 84.3701 15.7071 84.3885 15.855C84.41 16.0357 84.3854 16.2851 84.3916 16.4742C84.3977 16.695 84.4346 16.7859 84.4336 17.0532C84.3875 25.2776 84.4326 33.5031 84.4326 41.7275C84.4326 42.0127 84.4418 42.3308 84.3445 42.5484L84.1949 42.933C84.1908 42.9404 84.1836 42.951 84.1795 42.9584C84.0299 43.2172 83.8568 43.4444 83.6171 43.623L83.5454 43.6737C83.3989 43.7783 83.2247 43.8755 83.0547 43.9146C82.5076 44.0392 68.9888 43.9663 67.9469 43.9663L67.7216 44.5633C67.7175 44.5718 67.7123 44.5823 67.7082 44.5908L67.6263 44.7556C67.5269 45.0124 67.3825 45.2374 67.236 45.472C67.0516 45.7668 66.8764 46.0573 66.6449 46.313L65.2096 47.6527C65.2024 47.658 65.1932 47.6644 65.186 47.6697L65.0692 47.7563C65.0621 47.7616 65.0518 47.7669 65.0436 47.7711L64.8684 47.881C64.8613 47.8862 64.852 47.8926 64.8449 47.8979L63.2139 48.6628C63.1443 48.6819 62.9988 48.6829 62.9045 48.7167C62.7755 48.7632 62.84 48.7949 62.6392 48.816C62.4886 48.8319 62.4323 48.8277 62.3134 48.853C61.9754 48.928 61.7459 48.983 61.3935 48.983C60.1989 48.983 60.4715 48.9333 59.5085 48.8118C59.365 48.7939 59.3435 48.7516 59.239 48.7157C59.1345 48.6797 59.0321 48.6819 58.9399 48.6512C58.7995 48.6047 58.8333 48.5815 58.6889 48.5371L57.1399 47.7711C57.1327 47.7658 57.1225 47.7595 57.1153 47.7552L56.7803 47.5196C56.7455 47.4921 56.726 47.4731 56.6932 47.4435L56.514 47.2967C56.5078 47.2914 56.4986 47.2829 56.4924 47.2766L55.258 45.9791C55.1904 45.8988 55.2498 45.9823 55.1914 45.8819L54.9711 45.528C54.9281 45.4582 54.9578 45.5111 54.9097 45.4255L54.4784 44.6267C54.4743 44.6172 54.4712 44.6056 54.4681 44.5961L54.3103 44.1777C54.2601 44.0371 54.2284 44.09 54.1956 43.9642H46.5162C46.2427 43.9642 45.9057 44.0033 45.6567 43.8554C45.499 43.7614 45.7612 43.9188 45.6075 43.8237C45.3371 43.6547 45.207 43.4539 45.0871 43.1581C44.9539 42.8316 45.0164 42.6192 45.1445 42.3012C45.1834 42.2061 45.1844 42.2019 45.2439 42.1131C45.25 42.1036 45.3135 42.0191 45.3135 42.0191C45.3545 41.9715 45.3176 42.0117 45.374 41.9578C45.7797 41.5669 46.128 41.6429 46.6771 41.6429H53.2306C53.9118 41.644 53.7776 41.757 53.792 41.102L53.9098 40.1035C53.9323 39.8911 53.9989 39.852 54.0286 39.646C54.0706 39.3586 54.1239 39.2456 54.1987 38.992C54.2509 38.8155 54.2386 38.9254 54.2909 38.7976C54.3216 38.7225 54.3267 38.638 54.3503 38.5693L55.4813 36.6675C55.5202 36.62 55.5161 36.6263 55.5571 36.5798L55.8819 36.21C55.9146 36.173 55.9187 36.1656 55.9587 36.1234L56.6922 35.4704C56.7096 35.4577 56.7537 35.4292 56.7649 35.4207L58.1295 34.5892C58.2043 34.5459 58.2299 34.5427 58.3027 34.5184C58.4697 34.4624 58.3836 34.4825 58.4983 34.4307L59.1058 34.2279C59.2882 34.2015 59.196 34.2331 59.3343 34.1729C59.5484 34.0799 59.8015 34.1064 60.0135 34.044L60.495 33.9606C60.6466 33.9405 60.7778 33.931 60.9888 33.931C62.0092 33.931 62.0542 34.0662 62.4394 34.0937C62.6997 34.1116 62.6064 34.0747 62.8113 34.1655C62.9793 34.2405 63.0551 34.2067 63.2068 34.2553L64.7865 34.9897C65.1655 35.2295 65.5302 35.4799 65.8632 35.7874L66.6428 36.6009L67.7062 38.3242C67.7103 38.3327 67.7154 38.3432 67.7195 38.3517L67.8015 38.5577C67.9357 38.8324 67.9726 39.1536 68.0996 39.4526C68.1815 39.6449 68.1631 39.8541 68.2194 40.0338C68.3414 40.4173 68.3506 40.8906 68.3444 41.3154C68.3414 41.4918 68.3045 41.645 68.4674 41.645H73.6942C73.6901 41.4475 73.6409 41.4401 73.5518 41.2943L73.2875 40.8209C73.2577 40.7639 73.2905 40.8167 73.2444 40.7406L73.1942 40.6677C73.1379 40.579 73.1553 40.5959 73.1082 40.5082L73.0334 40.3782C73.0293 40.3698 73.0242 40.3592 73.0191 40.3507L72.9299 40.1944C72.9248 40.187 72.9176 40.1775 72.9135 40.1701L72.0427 38.6211C72.0386 38.6127 72.0325 38.6032 72.0284 38.5947L71.9085 38.3866C71.8911 38.358 71.8788 38.339 71.8634 38.3094L70.1383 35.2369C70.1147 35.1936 70.1208 35.1989 70.0973 35.1545L69.3546 33.8464C69.3505 33.839 69.3433 33.8285 69.3392 33.8211L68.5719 32.456C68.5678 32.4486 68.5616 32.438 68.5565 32.4296L66.0701 27.9856C66.0445 27.9338 66.0425 27.9349 66.0251 27.9074L65.5507 27.0695L65.5518 27.0854ZM21.7765 41.7444V41.2055C21.7765 41.0777 21.8042 41.1506 21.8585 41.0407C21.8626 41.0322 21.8677 41.0217 21.8718 41.0132L21.9087 40.9266C21.9128 40.9181 21.9179 40.9065 21.922 40.8991L22.1669 40.6128C22.4701 40.3539 23.0284 40.3285 23.3276 40.5166C23.3378 40.523 23.3686 40.5409 23.3788 40.5473C23.4362 40.5842 23.3819 40.5399 23.4526 40.5948C24.3305 41.2721 23.7753 42.8274 22.5049 42.5262C22.3236 42.4829 22.0542 42.2642 21.9487 42.1047L21.7765 41.7433V41.7444ZM22.6607 44.9373L23.6165 44.8454L25.0774 44.0297C25.0835 44.0234 25.0917 44.0149 25.0978 44.0097L25.7781 43.0936C25.7976 43.0492 25.7935 43.0471 25.8129 43.0049C26.1848 42.2019 26.0168 42.2896 26.1285 41.962C26.318 41.402 26.109 41.0734 26.0762 40.6688C26.0619 40.4849 26.0383 40.4923 25.9779 40.355L25.3171 39.1705C25.2812 39.1293 25.3068 39.1568 25.2577 39.1071L24.9913 38.8419C24.9216 38.7807 24.8469 38.7268 24.7628 38.6634C24.5067 38.469 23.9781 38.2133 23.6749 38.1266C23.5909 38.1023 23.4444 38.1076 23.3071 38.0907C22.968 38.0485 23.0202 37.9407 22.4342 38.0717C22.2181 38.1203 21.9415 38.0696 21.4426 38.3348C20.9283 38.6084 20.6845 38.7838 20.3105 39.1991C20.3054 39.2054 20.2962 39.2139 20.2911 39.2202C20.2849 39.2265 20.2767 39.235 20.2716 39.2413L19.7922 40.0317C19.7881 40.0401 19.7819 40.0496 19.7768 40.0581C19.7727 40.0655 19.7655 40.075 19.7614 40.0834C19.7471 40.1088 19.7502 40.0813 19.7153 40.1605C19.6713 40.262 19.7 40.2102 19.6733 40.3243C19.6364 40.4807 19.6057 40.4881 19.5627 40.6244C19.4736 40.9023 19.4838 41.8437 19.5319 42.1924C19.5586 42.3804 19.7952 42.97 19.912 43.1686C19.9161 43.176 19.9233 43.1866 19.9274 43.194L19.9571 43.2458C20.3392 43.9051 20.8217 44.3129 21.4897 44.651L21.795 44.7503C22.1392 44.9099 21.9087 44.8127 22.2918 44.8602C22.4496 44.8792 22.4691 44.9373 22.6586 44.9373H22.6607ZM60.787 40.4173H61.3904C61.499 40.4173 61.8176 40.6508 61.9743 40.8938C62.1444 41.1569 62.1362 41.5003 62.0829 41.7951C62.0379 42.0487 61.8627 42.2663 61.6547 42.3899C61.458 42.5062 61.2828 42.6108 60.9294 42.5537C60.7378 42.5231 60.788 42.54 60.6466 42.4692C60.494 42.3931 60.5155 42.4206 60.3987 42.3107L60.2235 42.1173C60.0944 41.9525 59.9439 41.5352 60.0443 41.2298L60.2604 40.7882C60.3833 40.6434 60.6395 40.4184 60.786 40.4184L60.787 40.4173ZM57.771 40.915C57.771 41.3217 57.6941 41.9715 57.8437 42.3318L58.3037 43.3916C58.3723 43.4888 58.3908 43.5162 58.4584 43.605C58.6909 43.9082 58.9255 44.1196 59.2288 44.3446L59.5843 44.5591C59.6683 44.6014 59.6488 44.595 59.7164 44.6299L60.2778 44.8391C60.4008 44.8623 60.495 44.8444 60.6149 44.8644C61.0933 44.9468 60.9796 44.9923 61.5266 44.8718C61.6598 44.8423 61.7623 44.8644 61.8975 44.8391C62.1044 44.801 62.0419 44.7767 62.1843 44.7197C62.2653 44.6869 62.2663 44.7017 62.3401 44.6732L62.9885 44.3055C63.0736 44.2358 63.1258 44.1977 63.216 44.1248C63.2918 44.0625 63.2611 44.0879 63.3236 44.0287L63.3645 43.9885C63.3901 43.9632 63.3942 43.96 63.426 43.9273C63.47 43.8818 63.4629 43.8892 63.5049 43.8427L63.8686 43.3884C63.9003 43.3377 63.9136 43.3123 63.9454 43.2606L63.9772 43.2098C64.138 42.933 64.2507 42.7111 64.3029 42.3846C64.4054 41.7444 64.4464 42.1036 64.4464 41.2467C64.4464 40.9562 64.3583 40.8716 64.3091 40.6011L64.1093 39.9778L63.427 39.0226C63.4188 39.0142 63.3942 38.9899 63.386 38.9814L63.3451 38.9402C62.9681 38.5715 62.7703 38.5007 62.5255 38.376C62.5173 38.3718 62.5071 38.3665 62.4989 38.3623L62.1843 38.2302C61.5072 37.9872 61.9897 38.1657 61.5205 38.0854C61.0349 38.002 61.1998 37.965 60.6897 38.078C60.285 38.1678 60.3649 38.0379 59.7717 38.2925L58.8467 38.9148C58.8088 38.9518 58.8047 38.9571 58.7637 38.9951L58.1828 39.7643C58.0517 40.0274 57.771 40.6402 57.771 40.916V40.915ZM16.0365 11.5558V19.1611C11.7655 19.1568 7.81929 19.1452 7.51298 19.1452C7.37467 19.1452 7.35726 19.1146 7.23125 19.104V12.3028C7.23125 12.1464 7.21998 11.951 7.22715 11.8009C7.23637 11.6097 7.29169 11.5569 7.47302 11.5569H16.0375L16.0365 11.5558ZM18.3385 19.1621V11.5558H26.9316C27.0259 11.5558 27.1324 11.6668 27.1324 11.7629C27.1324 13.0223 27.1959 18.2714 27.0925 19.1029C26.8958 19.1505 22.76 19.1621 18.3385 19.1621ZM66.0947 41.0396V41.9102L65.8929 42.9045C65.772 43.213 65.7505 43.4011 65.5845 43.7064L65.3346 44.1946C65.1327 44.5274 64.9063 44.8158 64.6441 45.099C64.6379 45.1053 64.6297 45.1138 64.6246 45.1201C64.4013 45.3505 64.1493 45.5871 63.8778 45.7604L63.1043 46.2063C62.9691 46.2781 63.0244 46.2327 62.8933 46.2781C62.7888 46.3141 62.8984 46.2739 62.7826 46.3299L62.2089 46.5264C62.0624 46.5782 61.8176 46.5539 61.6557 46.5782C60.9437 46.6849 60.872 46.5592 60.2666 46.555C60.0197 46.5528 60.075 46.5729 59.8906 46.4873C59.7144 46.406 59.5289 46.4049 59.3691 46.3193L59.1929 46.2528C58.902 46.1598 58.6141 45.9591 58.3457 45.7995C58.2914 45.7668 58.3273 45.7911 58.274 45.7488C57.9369 45.4836 57.6245 45.2131 57.3345 44.893L56.6502 43.8575C56.6062 43.7709 56.6154 43.8195 56.5642 43.698L56.2988 43.0186C56.2578 42.895 56.2619 42.764 56.2271 42.6361C56.181 42.4681 56.1339 42.4639 56.1247 42.2441C56.1083 41.8627 56.0745 40.7364 56.1708 40.4648C56.2312 40.2937 56.221 40.3359 56.263 40.1035C56.2998 39.8985 56.3367 39.8964 56.3869 39.7337L56.5969 39.2043C56.8172 38.7574 57.0846 38.3189 57.4309 37.9502L58.3488 37.1556C58.357 37.1514 58.3682 37.1472 58.3764 37.143C58.3846 37.1387 58.3959 37.1356 58.4051 37.1303L58.5742 37.0151C58.608 36.9919 58.6868 36.9475 58.7288 36.9253C59.2544 36.6421 59.2708 36.677 59.7492 36.527C59.8721 36.4879 59.9479 36.4266 60.074 36.4055C60.4991 36.3336 61.8709 36.3083 62.2018 36.4319C62.3339 36.4815 62.2233 36.4499 62.338 36.4985C62.4108 36.5291 62.4784 36.5418 62.5286 36.5513C62.8031 36.5999 62.838 36.6443 63.0449 36.7246C63.1586 36.7689 63.1146 36.7605 63.2047 36.808C63.26 36.8376 63.3113 36.8587 63.3676 36.8883L64.0396 37.3152C64.681 37.8731 65.2127 38.3559 65.5456 39.1621L65.8212 39.8309C65.8611 40.0147 65.899 40.0084 65.941 40.2049C65.9687 40.3328 65.9656 40.5008 66.0005 40.6413C66.0415 40.8072 66.0968 40.842 66.0968 41.0396H66.0947ZM80.1267 35.8973V33.2843C80.1267 33.1871 80.2097 33.1607 80.2476 32.9938C80.8142 32.9938 81.6563 32.9198 82.1378 33.035V36.1456C81.7597 36.2364 80.8111 36.1868 80.3685 36.1868C80.2415 36.1868 80.1278 35.949 80.1278 35.8962L80.1267 35.8973ZM74.4174 11.7217C74.4174 11.6245 74.484 11.5558 74.5783 11.5558H80.2876C80.516 11.5558 80.5642 11.6055 80.6574 11.7544L81.8857 14.7171C81.9196 14.8935 81.8868 15.0119 81.936 15.163C81.978 15.294 81.9769 15.238 82.0025 15.3426C82.0159 15.3954 82.0271 15.5021 82.0353 15.5581L82.1367 17.4019V25.9443H74.4164V11.7206L74.4174 11.7217ZM51.5392 11.5558H56.6051C56.7066 11.5558 56.81 11.6012 56.8643 11.6615L57.0006 11.8939C57.0313 11.9499 57.0272 11.951 57.0559 12.0027L57.4831 12.7645C57.4872 12.7719 57.4933 12.7836 57.4974 12.791L59.3435 16.0706C59.3732 16.1308 59.3732 16.1403 59.4132 16.2058C59.446 16.2586 59.4357 16.2343 59.4777 16.3051L60.9099 18.8504C60.9519 18.9297 61.0042 19.0427 61.0277 19.1442H51.5392V11.5558ZM49.2475 19.1029C49.1573 19.1241 49.1553 19.1442 49.0467 19.1442H40.4822V11.5558H49.0467C49.1553 11.5558 49.1573 11.5759 49.2475 11.597C49.352 12.0587 49.2874 17.9175 49.2874 18.8959C49.2874 18.9487 49.2618 19.0702 49.2475 19.1029ZM29.3852 18.8547V11.8464C29.3852 11.7037 29.4149 11.6858 29.4252 11.5558C32.1052 11.5558 34.7862 11.5569 37.4672 11.5558C38.3595 11.5558 38.1904 11.3646 38.1904 12.8829V19.1029C37.0789 19.198 34.9716 19.1442 33.8478 19.1442C32.3736 19.1442 30.8994 19.1442 29.4252 19.1442C29.4149 19.0142 29.3852 18.9973 29.3852 18.8536V18.8547ZM65.1297 11.5558H72.0048C72.2169 11.5558 72.1257 12.0651 72.1257 12.2193V24.3277C72.0899 24.2844 72.1237 24.3362 72.0745 24.2559L71.7938 23.7572C71.7754 23.7213 71.761 23.6832 71.7395 23.6473L71.5674 23.3694C71.5203 23.2912 71.5561 23.3694 71.5059 23.2669C71.4772 23.2078 71.4865 23.2099 71.4578 23.1507C71.2549 22.7312 70.6484 21.8099 70.4876 21.4549L70.0922 20.7428C70.043 20.6582 70.0379 20.6255 69.9969 20.5505L69.7121 20.057C69.707 20.0496 69.6998 20.0401 69.6947 20.0338L68.5606 18.0104C68.5555 18.003 68.5473 17.9946 68.5422 17.9872L68.4776 17.8879C68.4735 17.8794 68.4694 17.8678 68.4653 17.8594C68.4612 17.8509 68.4571 17.8393 68.453 17.8308L68.0268 17.0669C67.9746 16.9602 68.0197 17.0437 67.9705 16.9592L67.909 16.8567C67.866 16.7827 67.8916 16.8229 67.8476 16.7542L67.3886 15.9417C67.3282 15.8455 67.3405 15.8582 67.2892 15.7547C67.2523 15.6817 67.2759 15.7282 67.2298 15.6501L67.1694 15.5465C67.1345 15.4873 67.1684 15.5412 67.1233 15.4694L65.9124 13.3182C65.9083 13.3097 65.9031 13.2992 65.899 13.2907C65.8929 13.2791 65.8786 13.2453 65.8734 13.2337L65.3233 12.2669C65.3059 12.2299 65.2997 12.2098 65.269 12.157L65.144 11.9541C65.0948 11.8728 64.8664 11.5579 65.1266 11.5579L65.1297 11.5558ZM23.7958 2.97217C23.7958 2.71225 24.0816 2.39211 24.4791 2.39211H33.4851C33.6357 2.39211 33.8601 2.44388 33.9994 2.48403C34.1192 2.5189 34.0854 2.51467 34.1838 2.58441C34.191 2.58969 34.2002 2.59603 34.2073 2.60131C34.4686 2.78727 34.6827 3.14122 34.9163 3.44552C35.0156 3.57653 35.0699 3.69276 35.1703 3.80581C35.1755 3.81215 35.1847 3.8206 35.1908 3.82694L35.4623 4.16927C35.5074 4.23267 35.5269 4.28127 35.5709 4.34784L35.8475 4.69122C35.8547 4.7039 35.9991 4.79794 35.6979 4.79794H23.9166C23.8244 4.79794 23.7958 4.76941 23.7958 4.67326V2.97217Z" fill="#124285"/>
</svg>
