<svg width="52" height="30" viewBox="0 0 52 30" fill="none" xmlns="http://www.w3.org/2000/svg">
<path id="1 bus" fill-rule="evenodd" clip-rule="evenodd" d="M18.6154 24.9363H38.23C38.3324 26.1912 39.5364 27.5049 40.7909 28.0376L41.3438 28.24C41.3564 28.2458 41.3831 28.2558 41.3999 28.2673L15.6756 28.1668C16.6902 27.838 17.6682 27.2321 18.1902 26.2142C18.3769 25.8523 18.6028 25.3656 18.6112 24.9378L18.6154 24.9363ZM0.753542 29.7189C0.753542 30.1194 1.26573 29.9744 2.25642 29.9744C2.66195 29.9744 2.50619 29.3527 2.50619 28.2659H0.753542V29.7189ZM34.0567 2.73226C34.0567 4.5327 33.6891 4.18381 35.8094 4.18381V2.47526C34.7148 2.47526 34.0567 2.31014 34.0567 2.73082V2.73226ZM10.6015 6.6605H12.1872V9.90533H10.6015V6.6605ZM8.93165 5.72152V10.9305C8.93165 11.4373 9.45225 11.6986 9.76658 11.6986H13.0221C13.4417 11.6986 13.857 11.2736 13.857 10.8443V5.80623C13.857 5.37693 13.4417 4.95195 13.0221 4.95195H9.68378C9.27123 4.95195 8.93305 5.29797 8.93305 5.72008L8.93165 5.72152ZM4.92538 6.6605H6.51105V9.90533H4.92538V6.6605ZM3.25553 5.72152V10.9305C3.25553 11.3913 3.66808 11.6986 4.09046 11.6986H7.42877C7.55506 11.6986 7.82308 11.5033 7.91149 11.4229C8.07426 11.275 8.18091 11.1358 8.18091 10.8443V5.80623C8.18091 5.37693 7.76555 4.95195 7.34598 4.95195H4.00766C3.59511 4.95195 3.25693 5.29797 3.25693 5.72008L3.25553 5.72152ZM21.9523 6.6605H23.538V9.90533H21.9523V6.6605ZM20.2825 5.72152V10.8458C20.2825 11.275 20.6978 11.7 21.1174 11.7H24.3729C24.6901 11.7 25.2079 11.4416 25.2079 10.9319V5.72295C25.2079 5.30084 24.8697 4.95482 24.4571 4.95482H21.0346C20.6221 4.95482 20.2839 5.30084 20.2839 5.72295L20.2825 5.72152ZM16.2762 6.6605H17.8619V9.90533H16.2762V6.6605ZM14.6064 10.9305C14.6064 11.2191 14.6906 11.3181 14.8491 11.4502C14.9838 11.5622 15.1859 11.6986 15.4399 11.6986H18.6954C19.115 11.6986 19.5303 11.2736 19.5303 10.8443V5.72008C19.5303 5.29797 19.1922 4.95195 18.7796 4.95195H15.3571C14.9445 4.95195 14.6064 5.29797 14.6064 5.72008V10.9305ZM42.0678 21.6915C45.6714 21.6915 45.2518 26.5587 42.2348 26.5587C40.2128 26.5587 39.0607 23.9902 40.4583 22.5214C40.8863 22.072 41.3662 21.6915 42.0678 21.6915ZM14.4394 21.6915C18.0359 21.6915 17.6486 26.5587 14.6064 26.5587C13.8809 26.5587 13.3519 26.2285 12.9561 25.8567C12.5534 25.4776 12.2952 24.932 12.2166 24.2199C12.1465 23.5896 12.5043 22.8631 12.8313 22.5214C13.2592 22.072 13.7392 21.6915 14.4408 21.6915H14.4394ZM49.4124 23.2292H48.7445V22.4611H50.3301C50.2095 22.9894 50.0565 23.2292 49.4124 23.2292ZM33.3032 12.7252C33.3032 12.5285 33.3607 12.4696 33.553 12.4696H35.7238V20.754H33.3032V12.7252ZM29.2969 12.4696H31.6347V20.754H29.2969V12.4696ZM38.2286 23.2306H37.3936C37.447 20.7511 40.0514 19.1315 42.1506 19.1315C42.8438 19.1315 43.4781 19.301 43.9973 19.4618C45.604 19.9614 47.0746 21.3699 47.0746 23.2306H46.2397C46.2046 21.6499 44.1054 19.8997 42.5674 19.8997C40.391 19.8997 38.7085 21.1143 38.2272 23.2306H38.2286ZM9.76517 23.2306C9.91392 21.3986 11.247 20.016 12.653 19.5235C14.4773 18.8846 16.4151 19.1071 17.8759 20.2285C18.6238 20.8028 19.449 21.9169 19.449 23.2306H18.614C18.5789 21.6384 16.4881 19.8997 14.9417 19.8997C13.4403 19.8997 12.7639 20.2112 11.7437 21.1545C11.7311 21.166 11.7115 21.1818 11.6988 21.1947C11.1404 21.7087 10.7741 22.4683 10.6015 23.2306H9.76517ZM8.09671 22.9751V23.2306H2.58758C1.94349 23.2306 1.78914 22.9909 1.66986 22.4625H7.34598V20.754H1.66986V16.6549H27.6285V20.754H22.1193C21.7348 20.754 21.8696 21.2335 21.8696 22.2055C21.8696 22.4022 21.9271 22.4611 22.1193 22.4611H35.7252V23.2292H21.1188C21.1188 21.1732 20.1113 19.6972 18.7487 18.7367C16.6733 17.2737 14.3033 17.0526 11.9248 17.9212C10.7166 18.3634 9.42839 19.5063 8.76887 20.6692C8.46717 21.2019 8.09812 22.1395 8.09812 22.9722L8.09671 22.9751ZM1.66986 14.1782H27.6285V14.9463H1.66986V14.1782ZM49.5808 12.9822C49.9765 13.0769 50.3315 13.3411 50.3315 13.8364V14.092H49.5808V12.9822ZM33.3046 6.66194H35.7252V10.761H33.3046V6.66194ZM29.2983 6.66194H31.6361V10.761H29.2983V6.66194ZM42.319 4.18525C42.319 5.16157 42.493 6.1063 42.6179 7.03955L42.9028 9.9082H41.3999C41.3999 9.41573 41.2624 9.06541 41.2329 8.54135C41.2034 8.03309 40.8456 4.44656 40.732 4.18525H42.319ZM4.09046 1.70856H39.6487C40.5088 1.70856 41.4701 1.98997 41.8195 2.47669H37.3123C37.3123 4.58439 36.9137 4.18525 39.0649 4.18525C39.0649 5.05532 39.3975 6.88161 39.4789 8.11637L39.8213 11.0109C40.071 12.3131 42.1492 11.3698 44.3593 11.8336C44.7087 11.9068 44.9389 11.9254 45.2757 12.0058L47.9124 12.639C47.9124 13.2952 47.9166 13.9499 47.9095 14.606C47.8969 16.0691 48.4386 15.7991 50.3329 15.7991V20.7525H48.3291C48.0948 20.7525 48.1593 20.6836 48.0372 20.5386C47.2598 19.614 47.4647 19.4689 46.0264 18.4969C44.2485 17.2952 41.3255 17.0482 39.3133 18.0203L38.2987 18.6046C37.9956 18.8372 37.6925 19.0971 37.3936 19.301L37.3964 6.1465C37.4021 5.45303 37.2856 4.95338 36.6429 4.95338H28.3792C27.9666 4.95338 27.6285 5.2994 27.6285 5.72152V12.4682H1.66986V4.18381H32.5538V2.47526H2.08803C2.44726 1.92679 3.45619 1.70712 4.09186 1.70712L4.09046 1.70856ZM0 3.16011V22.6319C0 23.1991 0.141728 23.5121 0.391505 23.8538C1.39763 25.235 2.33079 24.9378 4.17325 24.9378C6.316 24.9378 8.45735 24.9378 10.6001 24.9378C10.8723 26.1323 11.5768 27.2135 12.6011 27.7576L13.7153 28.24C13.7279 28.2458 13.7546 28.2558 13.7714 28.2673H4.00626C4.00626 29.3542 3.8519 29.9759 4.25604 29.9759H50.9981C51.4036 29.9759 51.2479 29.3542 51.2479 28.2673H43.0684C43.0866 28.2558 43.1147 28.2214 43.1245 28.2386C43.1343 28.2558 43.168 28.217 43.182 28.2113C43.6367 28.0376 42.8312 28.319 43.3041 28.1654C43.8247 27.9959 43.5539 28.1797 44.1895 27.7906L45.1213 27.1216C45.5325 26.7684 46.2257 25.6485 46.2411 24.9363C47.2472 24.9363 49.9737 25.0813 50.6403 24.7411C51.405 24.3505 52 23.5322 52 22.6305V13.4919C52 12.7711 51.4822 12.0575 51.036 11.746C50.1716 11.1444 46.0138 10.3992 44.6554 10.0762L44.3453 7.14866C44.2794 6.61743 44.2864 6.19101 44.205 5.66983L43.9875 4.18381H44.7382L45.4889 9.30805C46.0166 9.30805 46.62 9.097 47.1588 9.05249L46.4039 3.67699C46.2144 2.168 45.8103 2.47669 43.8205 2.47669C43.5469 1.94833 43.3644 1.52478 42.9028 1.10984C42.7821 1.00073 42.6193 0.864329 42.4874 0.766697C41.9865 0.397706 41.0996 0 40.2324 0H3.67369C1.93928 0 0.00140324 1.40561 0.00140324 3.16011H0Z" fill="#FAC06C"/>
</svg>
