<svg width="64" height="37" viewBox="0 0 64 37" fill="none" xmlns="http://www.w3.org/2000/svg">
<path id="&#208;&#156;&#208;&#176;&#209;&#136;&#208;&#184;&#208;&#189;&#208;&#176;" fill-rule="evenodd" clip-rule="evenodd" d="M43.997 29.7824C43.997 24.2987 51.4506 22.7244 53.5367 27.6865C54.1149 29.0602 54.1165 30.3714 53.5742 31.7869C52.4476 34.7237 48.3832 36.1327 45.5315 33.4687C44.6736 32.6679 43.997 31.0454 43.997 29.7808V29.7824ZM30.9976 17.4589C30.9976 18.8022 32.4946 18.486 33.9978 18.486C35.3401 18.486 35.3401 16.4318 33.9978 16.4318C32.4961 16.4318 30.9976 16.1157 30.9976 17.4589ZM11.9978 17.4589C11.9978 18.8022 13.4947 18.486 14.998 18.486C16.3403 18.486 16.3403 16.4318 14.998 16.4318C13.4963 16.4318 11.9978 16.1157 11.9978 17.4589ZM47.9973 29.7824C47.9973 28.4857 49.9974 28.4857 49.9974 29.7824C49.9974 31.0791 47.9973 31.0791 47.9973 29.7824ZM45.9971 29.5256C45.9971 33.9999 51.9976 33.9999 51.9976 29.5256C51.9976 27.9545 50.6834 26.7011 48.7473 26.7011C47.3722 26.7011 45.9971 28.1134 45.9971 29.5256ZM13.9979 29.7824C13.9979 28.4857 15.998 28.4857 15.998 29.7824C15.998 31.0791 13.9979 31.0791 13.9979 29.7824ZM11.9978 29.5256C11.9978 33.9999 17.9982 33.9999 17.9982 29.5256C17.9982 27.9545 16.684 26.7011 14.748 26.7011C13.3729 26.7011 11.9978 28.1134 11.9978 29.5256ZM30.9976 14.3761C30.9976 14.9971 31.3929 15.4032 31.9977 15.4032H46.9972C49.4177 15.4032 46.5925 11.6414 45.7877 10.226C44.7142 8.33709 43.6219 9.60169 43.6219 10.0109C43.6219 11.5147 44.8158 12.1694 45.1221 13.349H32.9977V5.13224H38.4981C41.8531 5.13224 41.0046 8.21352 42.9985 8.21352C43.411 8.21352 43.8735 7.61652 43.8735 7.18643C43.8735 6.8799 43.3329 6.02613 43.1641 5.73245C42.3953 4.39242 40.878 3.07806 39.1232 3.07806H31.9977C31.3929 3.07806 30.9976 3.48408 30.9976 4.10515V14.3761ZM21.4984 5.13385H26.9989V13.3506H14.8745L18.9233 6.33908C19.4233 5.649 20.3812 5.13385 21.5 5.13385H21.4984ZM11.9993 14.3777C11.9993 14.9987 12.3947 15.4048 12.9994 15.4048H27.9989C28.6037 15.4048 28.999 14.9987 28.999 14.3777V4.10836C28.999 3.48729 28.6037 3.08127 27.9989 3.08127H20.8734C19.3327 3.08127 18.3967 3.89011 17.5903 4.71659C16.9403 5.3826 16.1231 6.95533 15.6168 7.82515C14.998 8.88754 14.3698 9.95636 13.7416 11.0348C13.4275 11.5756 11.9993 13.8031 11.9993 14.3793V14.3777ZM63.9984 24.0066V27.8919C63.8609 29.6733 63.3093 31.185 61.4154 32.2651C59.8966 33.1317 57.5292 32.8637 55.3728 32.8637C53.1273 37.2224 48.216 38.1404 44.8345 35.5983C42.9453 34.178 42.9531 32.8637 42.3734 32.8637H21.6235C21.2734 32.8637 21.1297 33.2906 20.9593 33.5939C18.5842 37.8162 11.6133 38.6684 8.62407 32.8637C7.49899 32.8637 6.37234 32.8589 5.24882 32.8653C2.14078 32.8829 0 30.6009 0 28.115V20.2834C0 18.6529 0.876627 17.6194 1.71575 16.7817C3.68464 14.8174 7.3896 15.6904 8.82252 13.5528L13.5057 5.14027C13.7666 4.67166 14.1448 4.00084 14.4792 3.57235C15.8418 1.8263 18.242 0 21.25 0H38.7497C41.5718 0 43.3376 1.3304 45.0314 3.04757C46.2425 4.27527 49.8208 11.1006 50.71 12.7488C52.4788 16.029 55.0025 13.9749 59.3762 16.3002C61.6139 17.491 64 20.5226 64 24.005L63.9984 24.0066ZM9.99917 29.784C9.99917 24.3003 17.4528 22.726 19.5389 27.6881C20.6421 30.3104 19.5108 33.2697 17.1263 34.4075C14.6151 35.6063 11.629 34.4765 10.4961 31.9682C10.2883 31.5076 9.99761 30.4484 9.99761 29.784H9.99917ZM3.24868 22.5944H1.99858V20.5402H3.6237C3.60651 21.3362 3.26586 21.7984 3.24868 22.5944ZM58.248 20.5402H60.8732C61.4482 21.6572 61.4576 21.9717 61.7483 22.5944C60.7669 22.5944 60.1106 22.5061 59.4528 22.129C59.0543 21.9011 58.6918 21.479 58.4683 21.0875C58.2996 20.7938 58.3496 20.7697 58.2496 20.5418L58.248 20.5402ZM22.1235 2.05418H37.8731C40.7155 2.05418 42.8797 3.33965 44.0251 5.10657C44.6455 6.06465 45.1924 7.11421 45.7408 8.09315C46.3112 9.11222 46.8534 10.0671 47.416 11.1231L49.0973 14.1466C49.6646 15.087 50.4881 16.0018 51.5116 16.4174C53.2898 17.1396 57.8496 17.2262 58.7481 18.486C56.7385 18.486 55.9979 18.1891 55.9979 19.8983C55.9979 22.267 58.3168 24.6486 60.6232 24.6486H61.9983C61.9983 27.0029 62.4983 30.8111 58.7481 30.8111H55.9979C55.9979 28.9254 56.1135 28.2177 55.2494 26.4444C53.3164 22.4837 48.0035 20.9141 44.2095 24.4801L43.886 24.7898C43.8688 24.8091 43.8438 24.8379 43.8266 24.8572C43.2422 25.4991 43.15 25.6211 42.7484 26.446C41.8843 28.2177 42 28.927 42 30.8127H22C22 28.927 22.1157 28.2193 21.2516 26.446C20.7515 25.4205 20.5281 25.2648 19.7811 24.4897C17.1825 21.7888 12.9463 21.7791 10.0117 24.663L9.88666 24.7914C8.10216 26.6883 7.99902 28.4295 7.99902 30.8127C5.63948 30.8127 1.99858 31.3311 1.99858 27.4747V24.6502C5.03318 24.6502 4.7441 24.9278 5.34883 22.4419C6.34265 18.3544 6.59736 18.4876 2.99866 18.4876C3.52682 17.7478 5.15975 17.4846 6.14889 17.2294C7.37085 16.9165 8.4725 16.7079 9.33818 16.0114C10.7742 14.8559 11.7524 12.5048 12.8494 10.632C15.4183 6.24439 16.4465 2.05579 22.1235 2.05579V2.05418Z" fill="#124285"/>
</svg>
