<svg width="53" height="52" viewBox="0 0 53 52" fill="none" xmlns="http://www.w3.org/2000/svg">
<g id="Vector">
<path fill-rule="evenodd" clip-rule="evenodd" d="M10.0129 48.8635H42.7545C43.1708 49.1075 43.3099 49.9753 43.427 50.4524L9.42394 50.4822C9.44924 50.0084 9.63951 49.0798 10.0129 48.8635ZM9.77809 39.7219L42.964 39.7154L42.9722 44.2857L18.7242 44.2938L18.7346 45.8062L45.6987 45.8187L47.2308 50.3575C44.5571 50.3922 45.1978 50.6963 44.5725 48.9367C44.3839 48.406 44.187 47.8851 44.0556 47.3647L8.7107 47.3376C8.60512 47.7761 7.87428 50.2957 7.53938 50.3803L5.54262 50.3748L7.056 45.8718L17.064 45.816L17.1222 44.2927L9.83253 44.2922L9.77754 39.7208L9.77809 39.7219ZM27.1599 37.2625C27.1599 36.0667 27.6801 35.6585 28.8575 35.6585H40.3997C42.0836 35.6585 43.0789 36.5166 43.0712 38.1591C41.9422 38.2822 29.3623 38.1998 27.1495 38.1987L27.1599 37.2625ZM25.6102 38.1987L9.68351 38.1976C9.44099 35.8439 9.77314 35.6558 12.1334 35.6585H22.7331C25.2874 35.6579 25.6102 35.5642 25.6102 38.1987ZM48.4687 44.2868L44.5731 44.2943C44.1881 42.4703 44.666 38.0247 44.886 36.1014C45.1538 33.7623 45.0322 30.2935 47.9028 30.5792C49.0224 30.6909 49.9342 31.6493 49.943 32.85L48.4681 44.2868H48.4687ZM8.18883 44.2906L4.29101 44.2938C3.80048 42.7993 3.52332 38.5326 3.27421 36.6966C3.0097 34.7478 1.86917 30.8812 4.86457 30.5787C6.18603 30.4453 7.10824 31.3116 7.37055 32.3171C7.87483 34.2529 8.54682 42.4643 8.18883 44.29V44.2906ZM25.6086 34.4068L23.9203 34.0859L11.1611 34.1428C10.0871 34.1428 9.90622 34.4518 9.25017 34.5407C9.15668 33.9536 9.09454 33.3877 9.01426 32.7952C8.92022 32.1041 8.66671 31.5333 8.60567 31.0947C8.52043 30.486 8.82783 28.1317 8.89767 27.3679C9.10609 25.089 9.41845 22.9646 12.7218 22.9646H23.0273C26.6562 22.9646 25.3804 26.7136 25.6322 29.5308L27.1286 29.5558C27.3546 26.7169 26.1618 22.9641 29.799 22.9641H40.0456C43.4265 22.9641 43.6739 25.2701 43.8851 27.6352C44.3624 32.9682 44.0836 29.8165 43.575 34.1255C43.5579 34.2713 43.5409 34.5071 43.5117 34.6421L43.3429 35.0953C42.3651 34.4621 41.9395 34.1434 40.3986 34.1434L27.1484 34.3683L27.1473 31.1565L25.6097 31.0958L25.608 34.4068H25.6086ZM38.3491 2.56457L47.3892 2.58246L49.1236 11.5344L36.5981 11.511L38.3496 2.56512L38.3491 2.56457ZM34.7499 13.0543L42.017 13.0554C42.2013 13.6268 42.154 20.6928 42.0775 21.7005C39.6584 21.2083 36.2 21.4392 33.5675 21.4392C32.19 21.4392 30.5523 21.3601 29.2061 21.456C27.6631 21.5661 27.1478 22.2973 26.3834 22.9028C25.85 22.5277 25.4673 21.804 24.0776 21.526C23.1406 21.3384 14.7774 21.4408 13.4279 21.4392C7.55642 21.4327 7.49923 24.7838 7.15993 29.4967C6.56822 29.4473 4.50218 28.2244 2.47298 30.0632C1.13008 31.2801 1.21257 32.7172 1.48478 34.8855C1.75039 36.9991 2.56592 44.3334 2.88762 45.8122L5.43154 45.836L3.86427 50.4784L0 50.4822L0.118782 52H53L52.7646 50.4838L48.8971 50.4616L47.3853 45.823L49.8677 45.7829C50.2213 44.0526 50.9922 37.1497 51.2804 34.854C51.5499 32.7101 51.6247 31.2725 50.2933 30.0626C49.8517 29.6609 48.9988 29.1774 48.1283 29.069C46.7584 28.8982 46.5302 29.3948 45.5992 29.5043C45.5112 28.2472 45.4111 26.4415 45.167 25.2506C45.0394 24.6288 44.7738 24.045 44.4757 23.607C44.1254 23.0926 43.6712 22.956 43.6332 22.1792C43.5788 21.0804 43.5414 13.63 43.7267 13.0543L45.4634 13.0587L45.5189 19.9154L47.0048 19.9187L47.0614 13.0571L51.017 13.0386L48.643 1.03483L37.0793 1.03429L34.7499 13.0543Z" fill="white"/>
<path fill-rule="evenodd" clip-rule="evenodd" d="M0.0714893 18.4421L26.324 18.441L26.3433 0.0390297L18.6565 0.00271039L18.6516 1.47174L24.7947 1.52541L24.8024 16.8798L1.62171 16.9145L1.60961 1.58395C2.80458 1.26196 14.2583 1.73519 17.0717 1.49017L17.0689 0.0238515L0.0797381 0L0.0714893 18.4421Z" fill="white"/>
<path fill-rule="evenodd" clip-rule="evenodd" d="M21.3907 10.3407L21.3929 13.5287L5.05925 13.5644C5.00205 13.1541 4.95861 10.918 5.0279 10.5586C5.21542 9.58721 8.43464 7.73926 11.7462 8.61146C13.3608 9.03645 14.7004 9.71622 16.2182 10.2502C19.4495 11.3869 19.8086 10.5949 21.3902 10.3407H21.3907ZM5.02625 4.87654L21.3962 4.91557L21.3825 8.43691C19.064 10.4047 15.8118 8.38054 13.4235 7.5414C12.0399 7.05516 10.4908 6.68329 8.84763 6.87139C6.77554 7.10828 6.15413 7.87044 5.01525 8.29652L5.02625 4.87654ZM3.47163 15.0318L22.9206 15.0888L22.9382 3.39396L3.47438 3.36143L3.47108 15.0313L3.47163 15.0318Z" fill="white"/>
<path fill-rule="evenodd" clip-rule="evenodd" d="M19.1262 29.0684L20.6489 29.0907C20.7765 27.4151 20.8457 27.4628 19.1685 27.5978L19.1262 29.0684Z" fill="white"/>
<path fill-rule="evenodd" clip-rule="evenodd" d="M13.6704 29.0858L14.1345 29.1031L14.7235 29.1004L15.1601 29.089L15.2096 27.6086L13.649 27.5853L13.6704 29.0858Z" fill="white"/>
<path fill-rule="evenodd" clip-rule="evenodd" d="M37.6826 29.0917L38.161 29.102L38.75 29.1004L39.1751 29.0852L39.2174 27.62L37.6655 27.5793L37.6826 29.0917Z" fill="white"/>
<path fill-rule="evenodd" clip-rule="evenodd" d="M32.2114 29.0625L33.7259 29.0934L33.7397 27.601L32.2466 27.5831L32.2114 29.0625Z" fill="white"/>
</g>
</svg>
