<svg width="52" height="52" viewBox="0 0 52 52" fill="none" xmlns="http://www.w3.org/2000/svg">
<g id="Vector">
<path fill-rule="evenodd" clip-rule="evenodd" d="M50.2118 47.0126C50.0515 48.6672 48.3884 50.1392 46.5845 50.2969C45.6399 50.3795 41.0281 50.3127 39.7015 50.3127C30.5608 50.3127 21.4203 50.3127 12.2796 50.3127C10.1154 50.3127 7.48766 50.4492 5.37973 50.2986C3.69001 50.1779 1.93725 48.6929 1.75627 47.0364L50.2118 47.0126ZM2.49515 43.7518L32.751 43.7131L31.9877 45.3442L3.66039 45.3638L2.49515 43.7518ZM47.0921 39.5817L47.084 23.1016C48.1155 23.0626 48.759 23.0974 49.4001 23.6281C49.8873 24.0318 50.2993 24.6236 50.3286 25.5643C50.3871 27.4517 50.33 29.4426 50.33 31.3417C50.33 33.2407 50.3873 35.2316 50.3286 37.119C50.2667 39.1129 48.7982 39.6467 47.0921 39.5817ZM6.52948 40.4042L8.13414 40.4133C8.22654 38.8322 8.59937 37.8454 9.47086 36.9806C10.1364 36.3204 11.4744 35.3948 12.6824 35.4827C12.2451 36.1192 11.8435 36.2355 11.2272 37.5268C10.8337 38.3515 10.5755 39.3676 10.5864 40.4042L12.1908 40.4133C12.281 38.8712 12.637 37.8818 13.4864 37.0215C14.149 36.3507 15.4523 35.4437 16.6732 35.4733C16.3262 36.0601 15.9069 36.2355 15.2914 37.5365C14.9161 38.3297 14.643 39.4204 14.643 40.4039L16.2487 40.4133C16.4036 38.3642 17.3259 36.7428 19.0059 35.7786C20.3122 35.0288 22.6573 36.7969 23.4894 38.1714C23.937 38.9107 24.7672 40.9664 24.2057 42.0395L3.41501 42.0643C2.89869 40.4227 3.82752 38.462 4.63107 37.5033C5.39196 36.5952 6.96075 35.4609 8.61187 35.4946C7.4825 36.9221 6.5053 38.0274 6.52976 40.4039L6.52948 40.4042ZM16.8974 33.793L10.775 33.8173C10.8464 33.2546 11.3826 32.7396 11.8003 32.4967C12.6302 32.0144 15.0052 32.0133 15.8398 32.4981C16.2414 32.7316 16.7642 33.2587 16.8977 33.793H16.8974ZM18.3773 21.849C17.7192 22.7446 14.6313 23.8726 13.1296 23.8003C13.2965 23.5602 15.015 22.6974 15.3816 22.5407C16.0699 22.2468 17.2001 21.7757 18.0072 21.7083C18.2015 21.5882 18.4521 21.4906 18.6776 21.6089C18.5007 21.8432 18.6523 21.7097 18.3773 21.849ZM11.7981 22.6604L11.4801 22.9087C11.4859 22.7968 11.4606 22.8427 11.5041 22.7065C11.5698 22.5012 11.5492 22.6203 11.6196 22.5283C12.4913 21.3271 13.7139 20.7439 15.2987 20.6881C15.1569 20.8732 15.1471 20.8613 14.8316 20.9878C13.3375 21.5868 12.5016 22.336 11.7981 22.6601V22.6604ZM27.6137 18.9779C33.6516 18.8906 40.2542 18.9697 46.3541 18.9697L45.4535 18.9779C45.5677 22.0841 45.4617 25.4073 45.4617 28.5375C45.4617 31.7268 45.4617 34.9161 45.4617 38.1053C45.4617 39.6793 45.5087 41.3283 45.4603 42.8929C45.4179 44.2654 44.4318 45.2693 43.1923 45.3558L33.8388 45.3539C34.0182 44.6831 34.8084 43.5985 34.8943 43.0346C35.0818 41.8052 33.4937 42.0646 32.5619 42.0646C31.2526 42.0646 26.8653 42.129 25.9194 42.0447C26.1813 38.9679 24.8873 36.3944 22.4853 34.8989C22.1823 34.7102 21.8491 34.5682 21.5611 34.3942C21.722 34.0074 22.4522 33.3869 22.9174 33.0869C24.8631 31.8318 27.2466 31.8887 29.0654 33.0849C32.269 35.1921 31.5689 38.3092 31.6793 41.2391L33.2837 41.2319C33.4361 37.0784 33.2804 33.4093 29.3249 31.3334C26.8077 30.0125 23.7375 30.3181 21.4714 32.1083C20.5858 32.8078 20.3453 33.3457 19.8249 33.89L18.5999 33.8112C18.3757 32.67 17.7031 31.8196 17.0148 31.3113C16.0305 30.5841 15.3028 30.5173 13.8212 30.5173C12.3313 30.5173 11.55 30.6106 10.5823 31.348C9.92223 31.8508 9.26895 32.657 9.04096 33.8104C7.62571 33.8651 6.48872 34.1345 5.46016 34.726C4.99793 34.9918 4.46041 35.3528 4.12263 35.6675C3.75632 36.0087 3.22152 36.7044 3.03076 36.7552C2.1897 35.0954 1.06114 31.4698 1.9522 29.3525C2.75249 27.4509 4.91776 26.2386 7.36293 25.7543C9.51271 25.3286 13.6193 25.4811 15.5417 26.2234C16.6474 26.6506 17.6096 27.2548 18.2817 27.9615C19.1994 28.9265 19.3898 29.521 19.5045 31.2602L21.0893 31.3986C21.2624 29.6083 20.62 28.2726 19.7486 27.2117C18.8542 26.1232 17.9817 25.5958 16.5449 24.8675C16.7376 24.6711 16.892 24.6382 17.1254 24.5437L18.6069 23.7538C19.2648 23.3226 19.7907 22.8457 20.2045 22.3266C21.807 20.317 21.2934 19.901 18.9078 19.3194C17.1314 18.8865 15.3398 18.808 13.537 19.3274C11.6166 19.8808 11.066 20.5099 10.0894 21.934C9.70864 21.8752 9.42385 21.5987 8.90454 21.4989C8.43333 21.4083 7.85098 21.4332 7.33222 21.4525L7.33929 23.0855C8.36024 23.1242 9.23662 23.0328 9.52331 23.9014C6.88792 24.1078 5.55256 24.2531 3.49354 25.4573C2.02204 26.3179 0.595373 27.7554 0.158134 29.6652C-0.382096 32.0252 0.553252 35.4194 1.58317 37.5103C1.7829 37.9161 2.1859 38.3462 2.07285 38.7767C1.72257 40.1108 1.58697 40.4874 1.72176 42.0428C1.13696 42.0997 0.61983 41.9455 0.270908 42.3074C-0.432641 43.0382 0.750268 44.125 1.61904 45.3296C0.863043 45.4539 0.199168 45.2345 0.052425 46.036C-0.0383381 46.5327 0.170363 47.5989 0.326073 48.026C2.01715 52.6646 6.15393 51.962 10.0086 51.962C16.0123 51.962 22.016 51.962 28.0194 51.962C34.0432 51.962 40.0906 52.0162 46.1114 51.962C49.59 51.9305 51.8681 49.2571 51.9469 46.4347C52.0007 44.5079 49.5107 45.7896 46.3025 45.3337C47.2609 43.688 47.0131 43.4225 47.093 41.2479C48.4547 41.1963 49.0593 41.2474 50.0857 40.5763C50.7441 40.1459 51.3779 39.4533 51.7102 38.5081C52.1444 37.2732 51.9523 33.0032 51.9523 31.3419C51.9523 29.6509 52.1594 25.4684 51.7105 24.181C51.38 23.2336 50.7471 22.5347 50.0871 22.1062C49.0504 21.4329 48.4582 21.4879 47.0927 21.4359C47.0639 20.6541 47.0837 19.8377 47.0845 19.0523C47.0854 18.3027 47.1767 17.546 46.4875 17.3582C46.0405 17.2363 30.5292 17.3203 28.2623 17.3203C25.8751 17.3203 25.9908 17.1965 25.9908 19.6297C25.9908 22.6521 25.8889 25.8599 26.0009 28.8663L27.6126 28.8591L27.614 18.9779H27.6137Z" fill="white"/>
<path fill-rule="evenodd" clip-rule="evenodd" d="M34.3807 1.46037C34.2712 1.90766 33.3013 2.5312 33.2932 4.37062C33.2869 5.78485 33.7801 6.41752 34.4114 7.27313C35.0565 8.14753 35.1025 9.35815 34.4185 10.3016C33.8081 11.1434 33.2845 11.7935 33.3016 13.1867L34.9082 13.195C35.0071 11.7811 35.8068 11.428 36.2413 10.3428C36.7234 9.13879 36.5778 7.89143 36.0829 6.89188C35.5277 5.77049 33.9307 4.81625 35.6612 2.57209C36.0193 2.10768 36.2085 1.6557 36.3941 1.16642L36.5579 0.013261L34.922 0.000276272C34.8826 0.555859 34.7745 1.19598 34.3807 1.46037Z" fill="white"/>
<path fill-rule="evenodd" clip-rule="evenodd" d="M39.2485 1.46037C39.139 1.90766 38.1688 2.5312 38.161 4.37062C38.1547 5.78485 38.6479 6.41752 39.2792 7.27313C39.9243 8.14753 39.9702 9.35816 39.2863 10.3016C38.6919 11.121 38.1523 11.7783 38.1694 13.1867L39.7759 13.195C39.8749 11.7811 40.6746 11.428 41.1091 10.3428C41.5825 9.16034 41.4483 7.89695 40.9507 6.89188C40.3952 5.77021 38.7987 4.81597 40.5289 2.57181C40.8871 2.1074 41.0762 1.65542 41.2618 1.16614L41.4257 0.0129848L39.7898 0C39.7507 0.555583 39.6422 1.1957 39.2485 1.4601V1.46037Z" fill="white"/>
<path fill-rule="evenodd" clip-rule="evenodd" d="M23.6348 34.5616H25.1009L25.1014 33.0706H23.6329L23.6348 34.5616Z" fill="white"/>
<path fill-rule="evenodd" clip-rule="evenodd" d="M42.2948 22.1896H43.7595L43.7614 20.6986H42.2929L42.2948 22.1896Z" fill="white"/>
<path fill-rule="evenodd" clip-rule="evenodd" d="M26.8805 34.5616H28.3466L28.346 33.0706H26.8802L26.8805 34.5616Z" fill="white"/>
<path fill-rule="evenodd" clip-rule="evenodd" d="M42.2948 25.4888H43.7619L43.7614 23.9978H42.2977L42.2948 25.4888Z" fill="white"/>
<path fill-rule="evenodd" clip-rule="evenodd" d="M42.2929 20.6986H43.7614L43.7595 22.1896H42.2948L42.2929 20.6986ZM42.2086 22.2692L43.8394 22.2772L43.8475 20.6187L42.2116 20.6107L42.2086 22.2692Z" fill="white"/>
<path fill-rule="evenodd" clip-rule="evenodd" d="M26.8802 33.0706H28.346L28.3466 34.5616H26.8805L26.88 33.0706H26.8802ZM26.8023 34.6492L28.433 34.6412L28.4249 32.9827L26.7941 32.9907L26.8023 34.6492Z" fill="white"/>
<path fill-rule="evenodd" clip-rule="evenodd" d="M23.6329 33.0706H25.1014L25.1009 34.5616H23.6348L23.6329 33.0706ZM23.5568 34.6492L25.1875 34.6412L25.1794 32.9827L23.5486 32.9907L23.5568 34.6492Z" fill="white"/>
<path fill-rule="evenodd" clip-rule="evenodd" d="M42.2977 23.9978L43.7611 23.9978L43.7619 25.4888H42.2948L42.2977 23.9978ZM42.2083 25.5684L43.8339 25.5764L43.8472 23.918L42.2165 23.9099L42.2083 25.5681V25.5684Z" fill="white"/>
<path fill-rule="evenodd" clip-rule="evenodd" d="M18.0072 21.7086L18.3648 21.6713C18.4792 21.8097 18.4317 21.6094 18.3776 21.8492C18.6526 21.71 18.5007 21.8434 18.6779 21.6091C18.4523 21.4909 18.2015 21.5884 18.0075 21.7086H18.0072Z" fill="white"/>
<path fill-rule="evenodd" clip-rule="evenodd" d="M11.7984 22.6604C11.4924 22.7833 11.6921 22.7582 11.6201 22.5286C11.5494 22.6206 11.5701 22.5015 11.5046 22.7068C11.4609 22.843 11.4864 22.7971 11.4807 22.909L11.7986 22.6606L11.7984 22.6604Z" fill="white"/>
</g>
</svg>
