<svg width="52" height="52" viewBox="0 0 52 52" fill="none" xmlns="http://www.w3.org/2000/svg">
<g id="Vector">
<path fill-rule="evenodd" clip-rule="evenodd" d="M4.75896 24.3994H47.2411C47.9413 24.3994 48.9968 25.5292 49.3286 26.0724L2.67378 26.0745C3.0151 25.5312 4.06373 24.3994 4.75896 24.3994ZM50.4658 2.67041L50.4709 24.9392C50.2252 24.8008 49.0219 23.6648 48.8863 23.4154C48.6315 22.9465 48.7846 9.04806 48.7846 7.42286C48.7846 6.76355 48.6579 4.72513 48.8519 4.26589C48.9533 4.0257 50.2103 2.82203 50.4658 2.67041ZM1.53044 24.9406L1.53016 2.66847C1.7742 2.80751 2.97401 3.94336 3.11087 4.19151C3.366 4.65397 3.21538 18.5609 3.21538 20.181C3.21538 20.8468 3.34434 22.8722 3.15291 23.3431C3.0455 23.6074 1.80956 24.7869 1.53044 24.9406ZM30.0658 19.1372C30.3374 18.7435 30.6649 18.5472 31.0411 18.1423L36.487 13.149C37.8764 12.4158 38.7844 13.6017 39.3754 14.1242C41.0361 15.5924 43.241 17.8825 44.6878 19.1352L46.8538 21.1463C47.4376 21.6589 47.2731 21.8692 47.2556 22.8669L34.2365 22.8714C33.5719 22.7882 33.1895 22.0794 32.7425 21.6792C32.3347 21.314 30.3768 19.5794 30.0658 19.1372ZM4.74493 4.74366C10.5956 4.63945 16.5406 4.73754 22.4018 4.73754L35.6345 4.73815C36.2631 4.74093 37.1236 4.87797 37.3381 4.24075C37.6096 3.43405 36.9134 3.21461 36.2208 3.20532C30.3634 3.12681 24.437 3.21161 18.5714 3.21161L5.3372 3.21294C4.20973 3.22229 4.31212 3.27448 3.72108 2.66201C3.38231 2.31099 2.8945 1.90728 2.6686 1.52738L49.3336 1.52933C49.1685 1.80947 48.2929 2.69217 47.9956 2.95712C47.5212 3.37986 46.321 3.21161 45.4999 3.21161C43.6944 3.21161 41.8358 3.16748 40.0375 3.20621C39.5043 3.21767 39.2027 3.23609 39.0161 3.61916C38.2955 5.09819 41.222 4.7376 41.7856 4.7376C43.6028 4.7376 45.4397 4.71128 47.2557 4.74366C47.2846 7.32995 47.3682 17.4547 47.2353 19.345C46.6243 18.984 45.6769 17.9193 45.0607 17.3739C43.7975 16.2557 39.8907 12.1542 38.6042 11.6455C37.4371 11.184 36.022 11.5137 35.235 12.1276L33.1301 14.086C32.4062 14.859 31.8309 15.2825 31.0596 16.071C30.8114 16.3247 29.1448 17.8878 28.9016 18.0267C28.0638 17.5008 27.3208 16.5687 26.5638 15.9049C25.8104 15.244 25.0993 14.52 24.343 13.8338C23.207 12.8032 21.0165 10.3195 19.5753 10.012C17.2014 9.50557 15.877 11.4623 14.1113 13.057C13.7059 13.4231 13.4045 13.7983 12.9968 14.1464C12.1381 14.8799 9.46681 16.8604 10.9106 17.5016C11.755 17.6646 12.0503 17.0765 12.509 16.6738C13.9837 15.3791 16.0917 13.2096 17.4565 11.9914C19.2052 10.4307 20.7864 12.5964 21.8705 13.6339C24.3181 15.9764 29.6264 20.6735 31.6439 22.8436L6.01077 22.8641C6.2385 22.4159 8.7992 20.2078 9.35862 19.6752C10.315 18.7646 9.37499 17.3924 7.99856 18.7826L4.75456 21.7874L4.74471 4.74377L4.74493 4.74366ZM0 1.04388V26.5601C0 27.4392 0.284249 27.611 1.16072 27.611H50.8393C51.7406 27.611 52 27.473 52 26.5601V1.04388C52 0.219771 51.7801 0 50.9553 0H1.04462C0.217711 0 0 0.217601 0 1.04388Z" fill="white"/>
<path fill-rule="evenodd" clip-rule="evenodd" d="M50.2893 50.4446L44.1039 50.4436C44.5244 49.2411 45.6018 49.1244 47.125 49.1257C48.6901 49.1269 49.8784 49.1151 50.2893 50.4446ZM25.0714 49.1258C26.9298 49.1258 28.4268 48.8352 29.0965 50.4105L22.9024 50.4193C23.257 49.5713 23.9094 49.1258 25.0714 49.1258ZM7.89712 50.4353L1.71028 50.4451C2.10745 49.1609 3.23487 49.125 4.75902 49.1257C6.35755 49.1263 7.43664 49.1484 7.89712 50.4353ZM4.35322 47.6019C4.17125 47.1419 4.15739 37.5001 4.34236 36.9342L5.27384 36.9519C5.41627 37.5099 5.40597 47.1335 5.26537 47.6116L4.35322 47.6019ZM25.5198 36.9743L26.4881 36.9724L26.4879 47.5896L25.5112 47.5806L25.5198 36.9743ZM25.3485 31.5375C27.825 30.5928 29.1558 34.4334 26.7504 35.309C24.187 36.2421 22.7285 32.5368 25.3485 31.5375ZM46.5634 31.5221C49.163 30.615 50.2755 34.5537 47.8921 35.3345C45.303 36.1826 43.985 32.4217 46.5634 31.5221ZM4.24414 31.4753C6.93245 30.7448 7.73598 34.6826 5.41838 35.3604C2.65997 36.1672 1.86814 32.121 4.24414 31.4753ZM47.7468 43.5273C47.7563 44.3544 47.8858 46.9976 47.6467 47.6177L46.7356 47.5909C46.5725 47.0668 46.5654 37.5801 46.7262 36.9397L47.6578 36.9402C47.8893 37.641 47.7367 39.8827 47.7566 40.7735L47.8828 41.2178C49.4689 41.684 49.2135 40.6459 49.2124 39.2021C49.2108 37.0526 48.9367 36.6632 49.6737 35.9505C51.1336 34.5387 51.0284 32.071 49.6104 30.8038C47.9249 29.2977 45.6048 29.7221 44.3914 31.2542C43.0954 32.8905 43.7564 35.5679 45.1579 36.2886C45.2673 38.0449 44.9853 38.4617 43.5979 40.0856C42.8549 40.9552 41.8788 41.7692 40.5748 42.3984C36.3609 44.4316 31.8918 42.8797 29.1925 39.6048C28.3211 38.5476 27.9377 37.9932 28.0073 36.7612C28.0381 36.2159 28.1727 36.2363 28.4574 35.9776C30.7269 33.9155 29.2356 29.8728 26.0033 29.8719C22.7069 29.871 21.2804 33.9798 23.6082 36.0292C25.8004 37.9592 18.8266 46.0283 11.3489 42.3592C10.0023 41.6984 9.13762 40.9256 8.3493 40.0228C7.00188 38.4796 6.73172 37.9923 6.84314 36.2905C7.85096 35.7739 8.80621 33.9218 8.14985 32.2191C6.85973 28.8728 2.27199 29.2653 1.37687 32.4527C0.678078 34.9409 2.70674 36.0703 2.78815 36.5346L2.7872 47.6773C1.64091 48.0569 0.876968 48.6129 0.38581 49.5689C0.169603 49.9897 -0.0463819 50.6761 0.0169826 51.2514C0.0992784 51.9988 0.593109 51.9671 1.38945 51.964C2.78341 51.9585 4.17743 51.9604 5.57151 51.9604C6.67921 51.9604 9.05249 52.17 9.42711 51.625C10.0186 50.7648 9.15143 48.2932 6.81942 47.7003L6.84921 40.7203C7.93804 41.5864 8.14222 42.4129 10.3728 43.5691C14.1476 45.5259 19.2377 45.1153 22.3999 42.2169C22.642 41.995 23.8263 40.797 23.9831 40.7367L23.9829 47.6392C23.1555 48.04 22.6404 48.1804 22.1258 48.7842C21.7373 49.2399 21.2921 49.9642 21.2216 50.8076C21.1099 52.1422 21.9967 51.964 23.0982 51.9607L29.0183 51.961C30.0966 51.9659 30.8828 52.0902 30.7775 50.8072C30.6144 48.8206 29.1964 48.2126 28.0167 47.6387L28.0196 40.7367C28.1627 40.7926 29.4343 42.0666 29.6595 42.2732C32.7091 45.0708 37.8563 45.5663 41.7006 43.5242C43.9645 42.3217 44.1363 41.5006 45.1767 40.7203L45.1785 47.7004C43.745 48.0653 42.4929 49.2635 42.4111 50.9341C42.3504 52.174 43.2243 51.9636 44.3392 51.9606L50.2594 51.9612C51.3882 51.9668 52.0924 52.1127 51.9794 50.8255C51.8305 49.129 50.6279 48.1501 49.2134 47.6774C49.2101 46.5127 49.2164 45.3483 49.2174 44.1839C49.2188 42.444 47.9241 42.6815 47.7469 43.5275L47.7468 43.5273Z" fill="white"/>
<path fill-rule="evenodd" clip-rule="evenodd" d="M27.1732 10.0905C26.7032 7.61354 30.3154 7.29434 30.6365 9.40531C31.0002 11.7962 27.5689 12.1767 27.1732 10.0905ZM28.3841 6.47913C26.7246 6.77551 25.3073 8.2393 25.66 10.3158C26.3673 14.4787 32.9607 13.5056 32.1366 9.07621C31.8456 7.51211 30.2581 6.14446 28.3841 6.47913Z" fill="white"/>
</g>
</svg>
