<svg width="65" height="67" viewBox="0 0 65 67" fill="none" xmlns="http://www.w3.org/2000/svg">
<g id="check shield 1" clip-path="url(#clip0_105_1830)">
<g id="&#208;&#161;&#208;&#187;&#208;&#190;&#208;&#185;_x0020_1">
<g id="_2179434913344">
<path id="Vector" fill-rule="evenodd" clip-rule="evenodd" d="M3.22496 0H61.7749C63.5487 0 64.9998 1.44889 64.9998 3.22001V60.2477C64.9998 62.0188 63.5487 63.4677 61.7749 63.4677H41.4321H40.5881C37.1533 63.5549 34.4573 64.7322 32.4999 66.9998C30.5426 64.7324 27.8465 63.5549 24.4118 63.4677H23.5678H3.22496C1.45112 63.4677 0 62.0188 0 60.2477V3.22001C0 1.44889 1.45112 0 3.22496 0Z" fill="#1698DE"/>
<path id="Vector_2" fill-rule="evenodd" clip-rule="evenodd" d="M28.1301 37.139C27.6309 36.9246 26.5137 35.7714 25.9399 35.2829C24.6399 34.1762 20.4914 30.0085 19.426 29.5769C17.0239 28.604 14.7608 31.1363 15.8974 33.4373C16.3046 34.2616 19.1307 36.7329 20.038 37.4833C20.4267 37.8047 20.6845 38.1305 21.0828 38.4543L25.3865 42.3369C26.5373 43.4771 27.9256 44.5752 29.6633 43.4901C30.3298 43.0738 37.2002 36.1731 37.9651 35.4267C38.3227 35.0778 38.5659 34.7179 38.924 34.3689L46.1038 27.3113C46.8097 26.6171 47.4307 26.0035 48.1391 25.3108C51.5771 21.9497 47.2125 18.2902 44.4914 20.7703C42.364 22.7095 38.5407 26.6933 36.2912 28.9393C35.6531 29.5766 28.4824 36.6298 28.1297 37.139H28.1301Z" fill="white"/>
</g>
</g>
</g>
<defs>
<clipPath id="clip0_105_1830">
<rect width="65" height="67" fill="white"/>
</clipPath>
</defs>
</svg>
