<svg width="141" height="141" viewBox="0 0 141 141" fill="none" xmlns="http://www.w3.org/2000/svg">
<path id="&#208;&#154;" fill-rule="evenodd" clip-rule="evenodd" d="M70.5 6.51879C66.7653 2.49656 61.4218 0.0832186 55.676 0H0V132.706H55.4175C64.2084 132.706 70.5 141 70.5 141C70.5 141 77.0501 132.706 85.5825 132.706H141V0H85.2952C79.5782 0.0832186 74.2347 2.49656 70.5 6.51879ZM102.676 61.4153V64.1892H106.87V61.4153C106.87 60.3057 105.922 59.3903 104.773 59.3903C103.624 59.3903 102.676 60.3057 102.676 61.4153ZM117.328 64.1892V52.1503H92.2476V64.1892H100.234V61.4153C100.234 59.002 102.274 57.0047 104.802 57.0047C107.33 57.0047 109.37 58.9742 109.37 61.4153V64.1892H117.356H117.328ZM8.7335 51.3459C10.8307 50.7356 14.9676 49.4873 18.9609 48.3222C24.8215 50.9852 32.4346 54.4527 32.1473 54.4527C33.0092 57.3376 34.3594 63.3016 34.5605 64.1892H37.1461C37.3472 63.2738 38.5251 57.8924 39.3007 55.3126C39.3869 55.063 39.4444 54.4249 39.9902 54.314C44.1271 53.7592 49.5856 52.2058 52.1711 48.239C53.3203 46.3805 53.981 44.5219 54.2396 42.0809C54.7854 36.6439 49.6143 30.2361 48.7812 26.1306C48.7237 25.8255 48.8386 24.2166 50.0165 23.4676C51.7977 22.3581 53.8661 22.5522 53.6076 21.5813C53.349 20.6105 49.3557 19.9725 49.3557 19.9725C48.8961 19.6951 48.7812 19.2512 48.6375 19.0016C47.8044 17.4482 46.2531 17.3372 44.673 17.3095H44.6155C43.0642 17.3095 41.3405 18.1971 40.5073 20.8601C39.6455 23.5786 41.3405 27.046 39.4444 32.4275C44.4719 33.3152 49.2696 36.422 49.5568 41.2487C49.7292 44.3832 47.6608 48.1558 41.3405 49.3763C40.5648 49.515 39.7317 49.5983 38.8411 49.5983C31.7738 49.5983 21.9774 45.1877 17.4383 42.9408L4.94132 44.3278V50.9852C5.94682 51.2904 6.92359 51.4845 7.72799 51.4845C8.10147 51.4845 8.44621 51.4568 8.76222 51.3459H8.7335ZM109.657 116.839C107.79 118.226 102.906 121.305 96.6143 121.305C90.294 121.305 85.4389 118.226 83.5715 116.839C81.7041 118.226 76.849 121.305 70.5287 121.305C64.2084 121.305 59.3533 118.226 57.4859 116.839C55.6186 118.226 50.7634 121.305 44.4432 121.305C38.1229 121.305 33.2677 118.226 31.4004 116.839C29.533 118.226 24.6779 121.305 18.3576 121.305C11.5776 121.305 6.46394 117.754 4.94132 116.561V127.962H55.3313C61.2781 127.962 66.8227 130.542 70.5574 134.842C74.2922 130.514 79.8368 127.962 85.7836 127.962H136.174V116.561C134.651 117.754 129.537 121.305 122.757 121.305C116.437 121.305 111.582 118.226 109.715 116.839H109.657ZM127.986 87.8788V108.711H118.103V87.8788C118.103 83.1076 114.426 79.2241 109.916 79.2241C105.377 79.2241 101.699 83.1076 101.699 87.8788V108.711H91.8453V87.8788C91.8453 83.1076 88.1681 79.2241 83.6577 79.2241C79.1473 79.2241 75.47 83.1076 75.47 87.8788V108.711H65.6161V87.8788C65.6161 83.1076 61.9389 79.2241 57.4285 79.2241C52.9181 79.2241 49.2408 83.1076 49.2408 87.8788V108.711H39.3869V87.8788C39.3869 85.937 38.7836 84.1617 37.7781 82.7193L37.7494 82.747C36.198 80.5556 33.7561 79.2241 31.1705 79.2241C26.6601 79.2518 23.0116 83.1076 23.0116 87.8788V107.518H22.9542V108.711H13.129V87.8788C13.129 83.1076 9.48044 79.2518 4.99878 79.2241V113.926L5.28606 113.621L6.20538 114.426C6.26284 114.481 11.434 118.919 18.415 118.919C25.4535 118.919 30.596 114.481 30.6247 114.426L31.4578 113.704L32.291 114.426C32.3484 114.481 37.5196 118.919 44.5006 118.919C51.5391 118.919 56.6528 114.481 56.7103 114.426L57.5434 113.704L58.3765 114.426C58.434 114.481 63.6051 118.919 70.5862 118.919C77.5672 118.919 82.7671 114.481 82.7958 114.426L83.629 113.704L84.4621 114.426C84.5195 114.481 89.6907 118.919 96.6718 118.919C103.682 118.919 108.824 114.481 108.881 114.426L109.715 113.704L110.548 114.426C110.605 114.481 115.776 118.919 122.757 118.919C129.796 118.919 134.91 114.481 134.967 114.426L135.886 113.621L136.174 113.926V79.2241C131.692 79.2518 128.043 83.1353 128.043 87.8788H127.986ZM4.94132 76.8107C10.802 76.8385 15.5709 81.7761 15.5709 87.8788V106.326H20.426V87.8788C20.426 81.7761 25.2237 76.8107 31.1131 76.8107H31.1705C31.1993 76.8107 31.1993 76.8107 31.228 76.8107C31.4865 76.8107 31.7738 76.8385 32.0324 76.8662C32.2335 76.894 32.4059 76.894 32.607 76.9217C32.7506 76.9494 32.8942 76.9494 33.0379 76.9772C38.0367 77.8926 41.8576 82.4141 41.8576 87.8511V106.298H46.7702V87.8511C46.7702 81.7484 51.5678 76.783 57.4572 76.783C63.3466 76.783 68.1442 81.7484 68.1442 87.8511V106.298H73.0568V87.8511C73.0568 81.7484 77.8545 76.783 83.7439 76.783C89.6332 76.783 94.4309 81.7484 94.4309 87.8511V106.298H99.3148V87.8511C99.3148 81.7484 104.112 76.783 110.002 76.783C115.891 76.783 120.689 81.7484 120.689 87.8511V106.298H125.601V87.8511C125.601 81.7761 130.37 76.8385 136.231 76.783V68.905H5.02751V76.783L4.94132 76.8107ZM30.0214 56.0338C28.8435 55.4513 25.9132 54.0921 18.7598 50.8465C15.0825 51.9561 11.3765 53.038 9.45171 53.6205C8.9346 53.7592 8.3313 53.8424 7.69927 53.8424C6.77995 53.8424 5.83191 53.676 4.91259 53.4541V64.1892H32.0037C31.6589 62.6636 30.7396 58.6691 30.0214 56.0338ZM117.414 38.6689C115.748 36.2556 113.449 34.4247 111.237 32.6494C108.795 30.6799 106.296 28.6827 104.802 25.9087C103.308 28.6549 100.809 30.6799 98.3667 32.6494C96.1546 34.4247 93.8851 36.2556 92.2188 38.6689C88.8001 43.6065 90.5238 47.8229 91.7304 49.7647H117.902C119.109 47.8229 120.833 43.6065 117.414 38.6689ZM85.7549 4.7712C80.5263 4.7712 75.6999 7.43419 72.9994 11.7616V64.1892H89.7769V51.2904C88.2543 48.988 85.7836 43.6065 90.1216 37.3651C91.989 34.6744 94.4022 32.7326 96.7579 30.8463C99.7457 28.433 102.36 26.3525 103.308 23.1625C103.366 22.9128 103.394 22.6909 103.452 22.4135C103.48 22.3303 103.509 22.2194 103.567 22.1361V16.505H101.383V14.1194H103.567V11.9557H106.037V14.1194H108.221V16.505H106.037V22.1361C106.095 22.2194 106.123 22.3026 106.123 22.4135C106.181 22.6909 106.21 22.9128 106.267 23.1625C107.215 26.3803 109.801 28.4607 112.817 30.8463C115.144 32.7326 117.586 34.6744 119.454 37.3651C123.792 43.6343 121.321 48.988 119.798 51.2904V64.1892H136.116V4.7712H85.7262H85.7549ZM36.2268 33.7035C38.1229 29.9309 37.9792 27.1847 37.8356 24.7437C37.7494 23.1625 37.6632 21.6923 38.1229 20.1944C39.1571 16.9211 41.5703 14.9516 44.5868 14.9516H44.673C46.1381 14.9516 49.1546 15.0071 50.7347 17.8088C51.1082 17.892 51.5678 18.003 52.0275 18.1139C53.7225 18.5855 55.5037 19.279 55.9633 20.9433C56.3081 22.2194 55.7622 23.4954 54.5843 24.1889C54.0672 24.494 53.5214 24.6604 52.9468 24.8269C52.401 24.9933 51.8264 25.1597 51.3667 25.4371C51.3093 25.5204 51.2518 25.7145 51.2231 25.881C51.5391 27.1293 52.3722 28.8214 53.2628 30.5967C55.044 34.2028 57.0837 38.2805 56.6815 42.3028C56.423 45.0212 55.676 47.2404 54.2683 49.4596V49.515C51.4242 53.8979 45.9945 55.7287 41.5416 56.5054C40.8808 58.8355 40.0189 62.7191 39.7029 64.1892H68.1442V11.7616C65.4438 7.43419 60.6174 4.7712 55.3888 4.7712H4.99878V41.9144L19.0758 40.361C26.459 39.0572 34.8191 36.6162 36.2842 33.7035H36.2268ZM21.6901 42.275C28.5275 45.3541 36.3704 47.8784 40.8521 47.0185C44.8454 46.2695 47.2298 44.1058 47.0862 41.3596C46.9138 38.5025 43.926 35.3679 38.4963 34.6744C38.4963 34.7021 38.4963 34.7021 38.4676 34.7299C36.5428 38.5579 28.3839 40.9435 21.6901 42.275Z" fill="white"/>
</svg>
