<svg width="23" height="23" viewBox="0 0 23 23" fill="none" xmlns="http://www.w3.org/2000/svg">
<g id="discount 1" clip-path="url(#clip0_111_12268)">
<g id="&#208;&#161;&#208;&#187;&#208;&#190;&#208;&#185;_x0020_1">
<path id="Vector" fill-rule="evenodd" clip-rule="evenodd" d="M8.43337 1.4857C6.93373 1.4857 5.70276 0.811216 5.01721 2.43003C4.24589 4.25143 4.34048 4.23174 2.46386 5.0038C0.801106 5.68786 1.48538 6.91703 1.48538 8.43369C1.48538 9.62519 0 10.2643 0 11.5483C0 12.7092 1.48538 13.2803 1.48538 14.7108C1.48538 15.6519 1.07179 16.7782 1.66403 17.455C1.77086 17.5772 1.86343 17.6533 2.00239 17.7397C2.76796 18.2156 3.65174 18.3822 4.13491 18.8654C4.96815 19.6986 4.89697 21.6587 6.46875 21.6587C7.15154 21.6587 7.61598 21.5149 8.43337 21.5149C9.62487 21.5149 10.264 23.0003 11.548 23.0003C12.7088 23.0003 13.28 21.5149 14.7105 21.5149C15.8377 21.5149 17.077 22.0633 17.7393 20.9979C18.2153 20.2324 18.3819 19.3486 18.8651 18.8654C19.4657 18.2648 20.722 18.1163 21.3128 17.4798C21.9367 16.8075 21.5146 15.6877 21.5146 14.5671C21.5146 13.3756 23 12.7364 23 11.4524C23 10.2916 21.5146 9.72042 21.5146 8.28994C21.5146 7.34881 21.9282 6.22254 21.336 5.54571C20.7614 4.88899 19.4716 4.74184 18.8651 4.13534C18.0318 3.3021 18.103 1.34206 16.5313 1.34206C15.8485 1.34206 15.384 1.48581 14.5666 1.48581C13.3751 1.48581 12.736 0.000427246 11.452 0.000427246C10.3613 0.000427246 9.57645 1.48581 8.43326 1.48581L8.43337 1.4857Z" fill="#00A0E3"/>
</g>
</g>
<defs>
<clipPath id="clip0_111_12268">
<rect width="23" height="23" fill="white"/>
</clipPath>
</defs>
</svg>
