<svg width="50" height="45" viewBox="0 0 50 45" fill="none" xmlns="http://www.w3.org/2000/svg">
<g id="4 Dost">
<path d="M16.6838 16.044H33.316C33.7573 16.044 34.1151 16.3978 34.1151 16.8343V44.2097C34.1151 44.6462 33.7573 45 33.316 45H16.6838C16.2425 45 15.8847 44.6462 15.8847 44.2097V16.8343C15.8847 16.3978 16.2425 16.044 16.6838 16.044ZM32.517 17.6246H17.4829V43.4194H32.517V17.6246Z" fill="#124285"/>
<path d="M13.9486 17.6246C13.5073 17.6246 13.1495 17.2707 13.1495 16.8343C13.1495 16.3978 13.5073 16.044 13.9486 16.044H36.0514C36.4927 16.044 36.8505 16.3978 36.8505 16.8343C36.8505 17.2707 36.4927 17.6246 36.0514 17.6246H13.9486Z" fill="#124285"/>
<path d="M14.448 17.4486C14.105 17.7214 13.6032 17.6674 13.3274 17.3282C13.0515 16.9889 13.1061 16.4927 13.4491 16.2199L16.1142 14.0995C16.4572 13.8267 16.9589 13.8806 17.2348 14.2199C17.5107 14.5591 17.4561 15.0553 17.1131 15.3282L14.448 17.4486Z" fill="#124285"/>
<path d="M36.5508 16.2199C36.8938 16.4927 36.9484 16.9889 36.6725 17.3282C36.3967 17.6674 35.8949 17.7214 35.5519 17.4486L32.8868 15.3282C32.5438 15.0553 32.4892 14.5591 32.7651 14.2199C33.041 13.8806 33.5427 13.8267 33.8857 14.0995L36.5508 16.2199Z" fill="#124285"/>
<path d="M16.6136 15.5042C16.1723 15.5042 15.8145 15.1503 15.8145 14.7139C15.8145 14.2774 16.1723 13.9236 16.6136 13.9236H33.3863C33.8276 13.9236 34.1854 14.2774 34.1854 14.7139C34.1854 15.1503 33.8276 15.5042 33.3863 15.5042H16.6136Z" fill="#124285"/>
<path d="M15.8847 28.0071H13.6003C13.159 28.0071 12.8012 27.6532 12.8012 27.2168V25.0464H9.54053V27.2168C9.54053 27.6532 9.18273 28.0071 8.74142 28.0071H5.65793C5.21662 28.0071 4.85882 27.6532 4.85882 27.2168V25.0464H1.59812V43.4193H15.8846V28.007L15.8847 28.0071ZM14.3994 26.4265H16.6838C17.1251 26.4265 17.4829 26.7804 17.4829 27.2168V44.2097C17.4829 44.6462 17.1251 45 16.6838 45H0.799108C0.357795 45 0 44.6462 0 44.2097V24.2562C0 23.8198 0.357795 23.4659 0.799108 23.4659H5.65803C6.09934 23.4659 6.45713 23.8198 6.45713 24.2562V26.4266H7.9424V24.2562C7.9424 23.8198 8.3002 23.4659 8.74151 23.4659H13.6004C14.0417 23.4659 14.3995 23.8198 14.3995 24.2562V26.4266L14.3994 26.4265Z" fill="#124285"/>
<path d="M33.3161 26.4265H35.6005V24.2561C35.6005 23.8197 35.9583 23.4658 36.3996 23.4658H41.2585C41.6998 23.4658 42.0576 23.8197 42.0576 24.2561V26.4265H43.5429V24.2561C43.5429 23.8197 43.9007 23.4658 44.342 23.4658H49.2009C49.6422 23.4658 50 23.8197 50 24.2561V44.2096C50 44.6461 49.6422 44.9999 49.2009 44.9999H33.3162C32.8749 44.9999 32.5171 44.6461 32.5171 44.2096V27.2167C32.5171 26.7803 32.8749 26.4264 33.3162 26.4264L33.3161 26.4265ZM36.3996 28.0071H34.1152V43.4194H48.4017V25.0465H45.141V27.2169C45.141 27.6533 44.7832 28.0072 44.3419 28.0072H41.2584C40.8171 28.0072 40.4593 27.6533 40.4593 27.2169V25.0465H37.1986V27.2169C37.1986 27.6533 36.8408 28.0072 36.3995 28.0072L36.3996 28.0071Z" fill="#124285"/>
<path d="M0.799108 39.6482C0.357795 39.6482 0 39.2944 0 38.8579C0 38.4215 0.357795 38.0676 0.799108 38.0676H49.2008C49.6421 38.0676 49.9999 38.4215 49.9999 38.8579C49.9999 39.2944 49.6421 39.6482 49.2008 39.6482H0.799108Z" fill="#124285"/>
<path d="M20.4041 19.2909C20.9153 19.2909 21.3794 19.4971 21.7153 19.8293C22.0511 20.1615 22.2597 20.6205 22.2597 21.126V23.6832C22.2597 24.1197 21.9019 24.4735 21.4606 24.4735H19.3477C18.9064 24.4735 18.5486 24.1197 18.5486 23.6832V21.126C18.5486 20.6205 18.7571 20.1616 19.093 19.8293C19.4289 19.4972 19.893 19.2909 20.4041 19.2909ZM20.4042 20.8715C20.3343 20.8715 20.27 20.9004 20.223 20.9469C20.176 20.9933 20.1468 21.0568 20.1468 21.126V22.8929H20.6615V21.126C20.6615 21.0569 20.6323 20.9933 20.5853 20.9469C20.5383 20.9004 20.4742 20.8715 20.4042 20.8715Z" fill="#124285"/>
<path d="M24.9999 19.2909C25.5111 19.2909 25.9752 19.4971 26.311 19.8293C26.6469 20.1615 26.8555 20.6205 26.8555 21.126V23.6832C26.8555 24.1197 26.4977 24.4735 26.0564 24.4735H23.9434C23.5021 24.4735 23.1443 24.1197 23.1443 23.6832V21.126C23.1443 20.6205 23.3528 20.1616 23.6888 19.8293C24.0246 19.4972 24.4888 19.2909 24.9999 19.2909ZM25 20.8715C24.93 20.8715 24.8658 20.9004 24.8188 20.9469C24.7718 20.9933 24.7425 21.0568 24.7425 21.126V22.8929H25.2573V21.126C25.2573 21.0569 25.228 20.9933 25.181 20.9469C25.1341 20.9004 25.07 20.8715 25 20.8715Z" fill="#124285"/>
<path d="M29.5958 19.2909C30.1069 19.2909 30.5711 19.4971 30.9069 19.8293C31.2427 20.1615 31.4513 20.6205 31.4513 21.126V23.6832C31.4513 24.1197 31.0935 24.4735 30.6522 24.4735H28.5393C28.098 24.4735 27.7402 24.1197 27.7402 23.6832V21.126C27.7402 20.6205 27.9487 20.1616 28.2846 19.8293C28.6205 19.4972 29.0847 19.2909 29.5958 19.2909ZM29.5958 20.8715C29.5259 20.8715 29.4616 20.9004 29.4146 20.9469C29.3676 20.9933 29.3384 21.0568 29.3384 21.126V22.8929H29.8531V21.126C29.8531 21.0569 29.8239 20.9933 29.7769 20.9469C29.7299 20.9004 29.6658 20.8715 29.5958 20.8715Z" fill="#124285"/>
<path d="M17.9846 15.251C17.6846 15.5699 17.1801 15.5878 16.8578 15.2911C16.5354 14.9945 16.5173 14.4955 16.8172 14.1767L24.4163 6.09607C24.7163 5.77723 25.2208 5.75931 25.5431 6.05597C25.8655 6.35263 25.8836 6.85162 25.5837 7.17036L17.9846 15.251Z" fill="#124285"/>
<path d="M33.1828 14.1767C33.4827 14.4956 33.4645 14.9945 33.1422 15.2911C32.8198 15.5878 32.3153 15.5698 32.0154 15.251L24.4163 7.17036C24.1163 6.85153 24.1346 6.35254 24.4569 6.05597C24.7792 5.75931 25.2838 5.77733 25.5837 6.09607L33.1828 14.1767Z" fill="#124285"/>
<path d="M20.4041 25.4858C20.9153 25.4858 21.3794 25.692 21.7153 26.0242C22.0511 26.3564 22.2597 26.8155 22.2597 27.3209V29.8781C22.2597 30.3146 21.9019 30.6684 21.4606 30.6684H19.3477C18.9064 30.6684 18.5486 30.3146 18.5486 29.8781V27.3209C18.5486 26.8155 18.7571 26.3565 19.093 26.0242C19.4289 25.6921 19.893 25.4858 20.4041 25.4858ZM20.4042 27.0664C20.3343 27.0664 20.27 27.0953 20.223 27.1418C20.176 27.1882 20.1468 27.2517 20.1468 27.3209V29.0878H20.6615V27.3209C20.6615 27.2518 20.6323 27.1882 20.5853 27.1418C20.5383 27.0953 20.4742 27.0664 20.4042 27.0664Z" fill="#124285"/>
<path d="M24.9999 25.4858C25.5111 25.4858 25.9752 25.692 26.311 26.0242C26.6469 26.3564 26.8555 26.8155 26.8555 27.3209V29.8781C26.8555 30.3146 26.4977 30.6684 26.0564 30.6684H23.9434C23.5021 30.6684 23.1443 30.3146 23.1443 29.8781V27.3209C23.1443 26.8155 23.3528 26.3565 23.6888 26.0242C24.0246 25.6921 24.4888 25.4858 24.9999 25.4858ZM25 27.0664C24.93 27.0664 24.8658 27.0953 24.8188 27.1418C24.7718 27.1882 24.7425 27.2517 24.7425 27.3209V29.0878H25.2573V27.3209C25.2573 27.2518 25.228 27.1882 25.181 27.1418C25.1341 27.0953 25.07 27.0664 25 27.0664Z" fill="#124285"/>
<path d="M29.5958 25.4858C30.1069 25.4858 30.5711 25.692 30.9069 26.0242C31.2427 26.3564 31.4513 26.8155 31.4513 27.3209V29.8781C31.4513 30.3146 31.0935 30.6684 30.6522 30.6684H28.5393C28.098 30.6684 27.7402 30.3146 27.7402 29.8781V27.3209C27.7402 26.8155 27.9487 26.3565 28.2846 26.0242C28.6205 25.6921 29.0847 25.4858 29.5958 25.4858ZM29.5958 27.0664C29.5259 27.0664 29.4616 27.0953 29.4146 27.1418C29.3676 27.1882 29.3384 27.2517 29.3384 27.3209V29.0878H29.8531V27.3209C29.8531 27.2518 29.8239 27.1882 29.7769 27.1418C29.7299 27.0953 29.6658 27.0664 29.5958 27.0664Z" fill="#124285"/>
<path d="M25.7991 6.63321C25.7991 7.06965 25.4413 7.4235 25 7.4235C24.5587 7.4235 24.2009 7.06965 24.2009 6.63321V0.790291C24.2009 0.353848 24.5587 0 25 0C25.4413 0 25.7991 0.353848 25.7991 0.790291V6.63321Z" fill="#124285"/>
<path d="M24.7346 1.53429C24.3192 1.38934 24.1011 0.938759 24.2477 0.527907C24.3943 0.117056 24.8499 -0.0985784 25.2653 0.046379L29.5155 1.5294C29.9309 1.67436 30.149 2.12493 30.0024 2.53579C29.8558 2.94664 29.4002 3.16227 28.9848 3.01731L24.7346 1.53429Z" fill="#124285"/>
<path d="M25.2653 4.50024C24.8499 4.6452 24.3943 4.42956 24.2477 4.01871C24.1011 3.60786 24.3192 3.15728 24.7346 3.01232L28.9848 1.52931C29.4002 1.38435 29.8558 1.59998 30.0024 2.01083C30.149 2.42169 29.9309 2.87226 29.5155 3.01722L25.2653 4.50024Z" fill="#124285"/>
<path d="M20.4041 31.6807C20.9153 31.6807 21.3794 31.8869 21.7153 32.2192C22.0511 32.5513 22.2597 33.0104 22.2597 33.5158V36.0731C22.2597 36.5095 21.9019 36.8633 21.4606 36.8633H19.3477C18.9064 36.8633 18.5486 36.5095 18.5486 36.0731V33.5158C18.5486 33.0104 18.7571 32.5514 19.093 32.2192C19.4289 31.887 19.893 31.6807 20.4041 31.6807ZM20.4042 33.2613C20.3343 33.2613 20.27 33.2902 20.223 33.3367C20.176 33.3832 20.1468 33.4466 20.1468 33.5158V35.2828H20.6615V33.5158C20.6615 33.4467 20.6323 33.3832 20.5853 33.3367C20.5383 33.2902 20.4742 33.2613 20.4042 33.2613Z" fill="#124285"/>
<path d="M24.9999 31.6807C25.5111 31.6807 25.9752 31.8869 26.311 32.2192C26.6469 32.5513 26.8555 33.0104 26.8555 33.5158V36.0731C26.8555 36.5095 26.4977 36.8633 26.0564 36.8633H23.9434C23.5021 36.8633 23.1443 36.5095 23.1443 36.0731V33.5158C23.1443 33.0104 23.3528 32.5514 23.6888 32.2192C24.0246 31.887 24.4888 31.6807 24.9999 31.6807ZM25 33.2613C24.93 33.2613 24.8658 33.2902 24.8188 33.3367C24.7718 33.3832 24.7425 33.4466 24.7425 33.5158V35.2828H25.2573V33.5158C25.2573 33.4467 25.228 33.3832 25.181 33.3367C25.1341 33.2902 25.07 33.2613 25 33.2613Z" fill="#124285"/>
<path d="M29.5958 31.6807C30.1069 31.6807 30.5711 31.8869 30.9069 32.2192C31.2427 32.5513 31.4513 33.0104 31.4513 33.5158V36.0731C31.4513 36.5095 31.0935 36.8633 30.6522 36.8633H28.5393C28.098 36.8633 27.7402 36.5095 27.7402 36.0731V33.5158C27.7402 33.0104 27.9487 32.5514 28.2846 32.2192C28.6205 31.887 29.0847 31.6807 29.5958 31.6807ZM29.5958 33.2613C29.5259 33.2613 29.4616 33.2902 29.4146 33.3367C29.3676 33.3832 29.3384 33.4466 29.3384 33.5158V35.2828H29.8531V33.5158C29.8531 33.4467 29.8239 33.3832 29.7769 33.3367C29.7299 33.2902 29.6658 33.2613 29.5958 33.2613Z" fill="#124285"/>
</g>
</svg>
