<svg width="29" height="43" viewBox="0 0 29 43" fill="none" xmlns="http://www.w3.org/2000/svg">
<g id="Vector">
<path fill-rule="evenodd" clip-rule="evenodd" d="M3.85039 0.500256H22.9808C24.8796 0.500256 26.4331 2.05365 26.4331 3.95231V11.4421L27.1084 11.7064C28.2292 12.145 28.7873 13.4207 28.3488 14.5414L26.433 19.4366V38.9333C26.433 40.832 24.8795 42.3854 22.9807 42.3854H3.85032C1.95148 42.3854 0.397989 40.832 0.397989 38.9333V3.95231C0.397989 2.05365 1.95155 0.500256 3.85039 0.500256Z" fill="white"/>
<path d="M25.7059 19.5379C25.7138 19.5131 25.7233 19.4889 25.7343 19.4656L27.6874 14.4856C27.8482 14.0756 27.8267 13.637 27.6624 13.2608C27.4983 12.8851 27.1919 12.5715 26.7827 12.4111L26.096 12.1418C26.0716 12.134 26.0481 12.1248 26.0252 12.1141L23.773 11.2309C23.7473 11.2227 23.7223 11.2129 23.6983 11.2016L19.9557 9.73395C19.5456 9.5732 19.107 9.59473 18.7308 9.75892C18.3551 9.92297 18.0415 10.2294 17.8811 10.6385L15.2037 17.4651C15.0429 17.8752 15.0645 18.3138 15.2287 18.69C15.3928 19.0657 15.6992 19.3792 16.1084 19.5397L22.9354 22.2169C23.2193 22.3282 23.5169 22.3521 23.798 22.3018C23.8219 22.2953 23.8464 22.2903 23.8714 22.2869C23.9705 22.2644 24.0673 22.2325 24.1603 22.192C24.5358 22.028 24.8493 21.7218 25.0097 21.313L25.7059 19.5379ZM17.4511 16.4656C17.1418 16.3447 16.989 15.9959 17.1099 15.6866C17.2307 15.3773 17.5796 15.2245 17.8889 15.3454L19.0788 15.812L21.5777 13.8474L21.4329 12.9327C21.381 12.6052 21.6043 12.2975 21.9319 12.2455C22.2594 12.1936 22.5671 12.4169 22.6192 12.7444L22.6592 12.9972L22.8608 12.8387C23.122 12.6334 23.5004 12.6787 23.7057 12.94C23.9111 13.2012 23.8658 13.5796 23.6045 13.7849L22.8747 14.3587L23.3715 17.4954L24.4809 17.9305C24.7903 18.0513 24.9431 18.4001 24.8222 18.7094C24.7014 19.0188 24.3525 19.1716 24.0432 19.0507L23.5896 18.8728L23.704 19.5953C23.756 19.9228 23.5326 20.2305 23.2051 20.2825C22.8775 20.3344 22.5698 20.1111 22.5178 19.7836L22.2931 18.3644L19.2816 17.1834L18.1516 18.0718C17.8904 18.2772 17.512 18.2319 17.3066 17.9706C17.1013 17.7094 17.1466 17.331 17.4079 17.1257L17.9824 16.674L17.4511 16.4656ZM20.378 16.3214L22.0749 16.9868L21.7934 15.2086L20.378 16.3214ZM26.8826 19.8319V39.1485C26.8826 40.2084 26.4494 41.1715 25.7515 41.8693C25.0537 42.5671 24.0905 43.0003 23.0306 43.0003H3.85223C2.79235 43.0003 1.82911 42.5671 1.13125 41.8693C0.433387 41.1715 0.000244141 40.2084 0.000244141 39.1485V3.85232C0.000244141 2.79242 0.433458 1.82932 1.13125 1.1315C1.82911 0.433676 2.79235 0.000488281 3.85223 0.000488281H23.0306C24.0905 0.000488281 25.0537 0.433676 25.7515 1.1315C26.4494 1.82932 26.8826 2.79242 26.8826 3.85232V11.1583L27.2205 11.2908C27.9388 11.5724 28.4764 12.1221 28.7639 12.7807C29.0513 13.4389 29.089 14.2061 28.8077 14.9233L26.8826 19.8319ZM25.6776 10.6857V3.85232C25.6776 3.12502 25.3796 2.4634 24.8996 1.98342C24.4196 1.50345 23.7578 1.20547 23.0306 1.20547H3.85223C3.12496 1.20547 2.4633 1.50345 1.98323 1.98342C1.50322 2.4634 1.20523 3.12502 1.20523 3.85232V20.8782C1.27341 20.8459 1.34417 20.8186 1.41665 20.7967C1.65447 20.7249 1.9139 20.7107 2.16903 20.7665L2.32515 20.8007V5.06525C2.32515 4.44254 2.57949 3.87679 2.98917 3.46714C3.39892 3.05749 3.96463 2.80315 4.58737 2.80315H7.11754C7.45031 2.80315 7.72011 3.07294 7.72011 3.40568V5.19002C7.72011 5.27773 7.75645 5.35793 7.81491 5.41638L7.81369 5.41759L7.81491 5.41881C7.87193 5.47583 7.95199 5.51124 8.04128 5.51124H18.8412C18.9305 5.51124 19.0106 5.47583 19.0676 5.41881L19.07 5.41645C19.127 5.35943 19.1624 5.27937 19.1624 5.19009V3.40576C19.1624 3.07301 19.4322 2.80323 19.765 2.80323H22.2952C22.9179 2.80323 23.4836 3.0577 23.8932 3.46735C24.303 3.87715 24.5574 4.4429 24.5574 5.06539V10.2467L25.6776 10.6857ZM23.3525 9.77394V5.06518C23.3525 4.77529 23.2333 4.51108 23.0414 4.31913C22.8495 4.12726 22.5854 4.00807 22.2954 4.00807H20.3677V5.18987C20.3677 5.60747 20.1962 5.98836 19.9199 6.26587L19.9161 6.26959C19.6387 6.54524 19.2583 6.71608 18.8414 6.71608H8.0415C7.62331 6.71608 7.24189 6.54417 6.96422 6.26709L6.963 6.2683C6.68669 5.99201 6.51512 5.61026 6.51512 5.18995V4.00814H4.58745C4.29732 4.00814 4.0331 4.12726 3.84122 4.31906C3.6494 4.51094 3.53028 4.77514 3.53028 5.06525V21.065L8.33419 22.1181C8.3568 22.1216 8.37934 22.1266 8.40173 22.1329L9.95443 22.4733L9.95472 22.4718C10.6384 22.6039 11.0597 22.7129 11.3573 22.8607C11.7538 23.0576 11.9285 23.2886 12.0585 23.6317C12.0715 23.6617 12.0822 23.6932 12.0901 23.726C12.1801 24.0961 12.1688 24.388 11.9423 24.7806C11.7794 25.0629 11.4923 25.3831 11.0023 25.8657L9.8806 27.0257C9.86936 27.0384 9.8577 27.0505 9.84554 27.062L5.45166 31.606C5.27215 31.7916 5.04885 31.9225 4.81074 31.9944C4.57285 32.0661 4.31893 32.0792 4.07753 32.0295C3.88858 31.9907 3.70714 31.9143 3.54602 31.799V38.6046C3.54602 38.8988 3.66242 39.1644 3.8513 39.3551C4.03868 39.5442 4.29854 39.6616 4.58752 39.6616H22.2954C22.5853 39.6616 22.8495 39.5424 23.0414 39.3505C23.2333 39.1586 23.3525 38.8944 23.3525 38.6046V23.5249C23.0803 23.509 22.8063 23.453 22.5389 23.3529C22.5122 23.3447 22.4862 23.3346 22.4612 23.3229L15.6706 20.66C14.9525 20.3784 14.4148 19.8287 14.1272 19.1702C13.8399 18.512 13.8021 17.7447 14.0834 17.0275L16.7607 10.201C17.0423 9.48277 17.5921 8.9452 18.2507 8.65767C18.909 8.37036 19.6762 8.33265 20.3935 8.61381L23.3525 9.77394ZM24.5576 23.3278V38.6045C24.5576 39.2271 24.3031 39.7927 23.8933 40.2024C23.4836 40.6121 22.9179 40.8666 22.2953 40.8666H4.58745C3.96599 40.8666 3.40535 40.6123 2.99926 40.2023C2.59194 39.7911 2.34089 39.2252 2.34089 38.6045V28.9553C2.34089 28.9157 2.34475 28.8771 2.35205 28.8397L1.2053 25.0415V39.1485C1.2053 39.8757 1.50329 40.5373 1.9833 41.0174C2.4633 41.4973 3.12496 41.7953 3.85231 41.7953H23.0306C23.758 41.7953 24.4196 41.4973 24.8996 41.0174C25.3796 40.5374 25.6776 39.8758 25.6776 39.1485V22.5162C25.3947 22.8559 25.0374 23.1199 24.6405 23.2933C24.6131 23.3052 24.5854 23.3167 24.5576 23.3278ZM3.94825 30.0284L6.21198 25.4554L1.79577 22.8991L3.94825 30.0284ZM6.73184 24.405L7.37153 23.1128C5.8159 22.7734 4.25948 22.4193 2.70685 22.0751L6.73184 24.405ZM8.56314 23.3698L7.75695 24.9985L9.3274 25.9075L10.1425 25.0646L10.1608 25.0466C10.5752 24.6386 10.8074 24.386 10.9108 24.2069C10.9474 24.1435 10.9521 24.0893 10.9393 24.0222C10.9149 23.9666 10.8829 23.9284 10.8231 23.8987C10.6403 23.808 10.3052 23.7262 9.72713 23.6146L9.72742 23.6129C9.33949 23.5334 8.95135 23.4522 8.56314 23.3698ZM7.23695 26.0488L5.18765 30.1887L8.48959 26.7739L7.23695 26.0488ZM11.8804 4.00814C11.5476 4.00814 11.2778 3.73835 11.2778 3.40561C11.2778 3.07287 11.5476 2.80308 11.8804 2.80308H17.4554C17.7882 2.80308 18.058 3.07287 18.058 3.40561C18.058 3.73835 17.7882 4.00814 17.4554 4.00814H11.8804ZM9.42721 4.00814C9.09444 4.00814 8.82464 3.73835 8.82464 3.40561C8.82464 3.07287 9.09444 2.80308 9.42721 2.80308H10.0323C10.3651 2.80308 10.6349 3.07287 10.6349 3.40561C10.6349 3.73835 10.3651 4.00814 10.0323 4.00814H9.42721Z" fill="#124285"/>
</g>
</svg>
