<svg width="31" height="43" viewBox="0 0 31 43" fill="none" xmlns="http://www.w3.org/2000/svg">
<g id="Vector">
<path fill-rule="evenodd" clip-rule="evenodd" d="M4.00402 0.499991H23.5128C25.4492 0.499991 27.0333 2.0533 27.0333 3.95208V10.8715C28.8618 10.9648 30.3283 12.4602 30.3283 14.2753V24.5451C30.3283 26.3601 28.8618 27.8556 27.0333 27.9489V38.9332C27.0333 40.832 25.4492 42.3853 23.5128 42.3853H4.00402C2.06758 42.3853 0.483475 40.832 0.483475 38.9332V3.95208C0.483475 2.0533 2.06758 0.499991 4.00402 0.499991Z" fill="white"/>
<path d="M16.466 31.3197C16.1301 31.6628 15.8039 31.8819 15.513 31.9835C15.2573 32.073 15.012 32.0822 14.787 32.0148C14.5301 31.9379 14.3295 31.7752 14.1964 31.5316C14.0881 31.3337 14.0301 31.0818 14.0325 30.7826L14.0279 29.2299L14.0307 28.3735C13.0381 28.3341 12.1398 27.9204 11.4799 27.2732C10.7859 26.5924 10.3548 25.6529 10.3548 24.6191V14.2757C10.3548 13.2416 10.7859 12.3023 11.4799 11.6215C12.1742 10.9407 13.1324 10.5183 14.1866 10.5183H23.8144V5.06521C23.8144 4.77547 23.6928 4.51107 23.497 4.31911C23.3013 4.12714 23.0319 4.00791 22.7364 4.00791H20.7705V5.18981C20.7705 5.60742 20.5957 5.98837 20.3139 6.26588L20.31 6.26946C20.0269 6.54519 19.6391 6.71599 19.2141 6.71599H8.2007C7.7742 6.71599 7.38539 6.54399 7.10207 6.26707L7.10086 6.26827C6.81905 5.99194 6.64426 5.6101 6.64426 5.18981V4.00791H4.67864C4.38285 4.00791 4.11321 4.12714 3.91774 4.31881C3.72197 4.51077 3.60068 4.77487 3.60068 5.06491V38.6042C3.60068 38.8943 3.72228 39.1584 3.91774 39.3503C4.11352 39.5423 4.38285 39.6615 4.67864 39.6615H22.7367C23.0322 39.6615 23.3019 39.5423 23.4973 39.3503C23.6931 39.1584 23.8147 38.8943 23.8147 38.6045V28.3764H19.1016L16.4857 31.2985L16.466 31.3197ZM12.1152 4.00791C11.776 4.00791 11.5009 3.73814 11.5009 3.40548C11.5009 3.07282 11.776 2.80306 12.1152 2.80306H17.8005C18.1398 2.80306 18.4149 3.07282 18.4149 3.40548C18.4149 3.73814 18.1398 4.00791 17.8005 4.00791H12.1152ZM9.61366 4.00791C9.27441 4.00791 8.99929 3.73814 8.99929 3.40548C8.99929 3.07282 9.27441 2.80306 9.61366 2.80306H10.2308C10.57 2.80306 10.8451 3.07282 10.8451 3.40548C10.8451 3.73814 10.57 4.00791 10.2308 4.00791H9.61366ZM19.5415 3.40548C19.5415 3.07282 19.8166 2.80306 20.1558 2.80306H22.7361C23.3712 2.80306 23.9479 3.05762 24.3658 3.46719C24.7838 3.87705 25.0431 4.44281 25.0431 5.06521V10.5183H26.1852V3.85231C26.1852 3.12499 25.8812 2.46354 25.3918 1.98333C24.9024 1.50342 24.2275 1.20534 23.4858 1.20534H3.92838C3.18664 1.20534 2.51208 1.50342 2.02235 1.98333C1.53292 2.46324 1.22892 3.12499 1.22892 3.85231V39.1485C1.22892 39.8759 1.53292 40.5373 2.02235 41.0175C2.51178 41.4974 3.18664 41.7955 3.92838 41.7955H23.4858C24.2275 41.7955 24.9021 41.4974 25.3918 41.0175C25.8812 40.5376 26.1852 39.8759 26.1852 39.1485V28.3764H25.0431V38.6045C25.0431 39.2272 24.7835 39.7927 24.3658 40.2026C23.9482 40.6124 23.3712 40.8667 22.7361 40.8667H4.67803C4.04329 40.8667 3.46601 40.6124 3.04832 40.2026C2.63064 39.793 2.37103 39.2272 2.37103 38.6045V5.06521C2.37103 4.44251 2.63033 3.87675 3.04802 3.46719C3.46571 3.05762 4.04269 2.80336 4.67773 2.80336H7.25802C7.59728 2.80336 7.87239 3.07312 7.87239 3.40578V5.1901C7.87239 5.27774 7.90948 5.35792 7.96906 5.41635L7.96784 5.41754L7.96906 5.41873C8.02712 5.47567 8.1089 5.51114 8.19979 5.51114H19.2132C19.3044 5.51114 19.3858 5.47567 19.4439 5.41873L19.4463 5.41635C19.5044 5.35941 19.5406 5.27923 19.5406 5.1901L19.5415 3.40548ZM27.4143 10.5261C28.3713 10.586 29.2355 10.9941 29.8754 11.6215C30.5697 12.3023 31.0005 13.2416 31.0005 14.2757V24.6191C31.0005 25.6529 30.5694 26.5924 29.8754 27.2732C29.2355 27.9007 28.3713 28.3088 27.4143 28.3687V39.1485C27.4143 40.2085 26.9726 41.1716 26.2609 41.8694C25.5493 42.5672 24.5671 43.0004 23.4861 43.0004H3.92869C2.84769 43.0004 1.86549 42.5672 1.15384 41.8694C0.44219 41.1716 0.000488281 40.2085 0.000488281 39.1485V3.85231C0.000488281 2.79233 0.44219 1.82922 1.15384 1.13141C1.86549 0.433602 2.84769 0.000488281 3.92869 0.000488281H23.4861C24.5671 0.000488281 25.5493 0.433602 26.2609 1.13141C26.9726 1.82922 27.4143 2.79233 27.4143 3.85231V10.5261ZM18.0169 19.3448C18.01 19.2921 18.01 19.2396 18.0169 19.1883V16.4821C18.0169 16.1986 18.1209 15.9133 18.2884 15.682C18.459 15.4465 18.7034 15.2581 18.9809 15.1735L24.2582 13.5623C24.3707 13.5281 24.4804 13.5117 24.585 13.5117C24.8063 13.5117 25.0106 13.5817 25.1812 13.7087C25.3462 13.8315 25.4693 14.0014 25.5341 14.2056C25.5684 14.3132 25.5867 14.4277 25.5867 14.5463V22.1051C25.5928 22.2911 25.5687 22.4804 25.5162 22.6673C25.3909 23.1126 25.0994 23.5445 24.6665 23.882C24.5914 23.9407 24.5115 23.9967 24.4269 24.0498C23.8928 24.3857 23.2788 24.5342 22.7185 24.502C22.1093 24.4671 21.5524 24.2233 21.1918 23.7788C21.1548 23.7332 21.1204 23.6858 21.0885 23.6372C20.8079 23.2086 20.7501 22.7057 20.8879 22.2166C21.0131 21.7712 21.3046 21.3393 21.7375 21.0019C21.8126 20.9432 21.8926 20.8871 21.9771 20.8341C22.5112 20.4978 23.1249 20.3497 23.6855 20.3819C23.9202 20.3953 24.147 20.4397 24.3576 20.5148V18.1463L19.2454 19.707V22.8631C19.2487 23.0411 19.2244 23.2217 19.1742 23.4006C19.049 23.8459 18.7575 24.2775 18.3246 24.6152C18.2495 24.674 18.1695 24.73 18.085 24.7831C17.5509 25.119 16.9369 25.2674 16.3766 25.2352C15.7674 25.2004 15.2105 24.9565 14.8499 24.5121C14.8129 24.4665 14.7785 24.4194 14.7469 24.3708C14.4663 23.9422 14.4085 23.4393 14.5463 22.9499C14.6715 22.5045 14.963 22.0726 15.3959 21.7352C15.471 21.6767 15.551 21.6204 15.6352 21.5673C16.1693 21.2311 16.7833 21.083 17.3436 21.1152C17.5786 21.1286 17.8057 21.1733 18.0166 21.2481L18.0169 19.3448ZM19.2457 18.4473L24.3579 16.8866V14.7916L19.3457 16.322C19.3305 16.3265 19.3089 16.3479 19.2867 16.3789C19.2615 16.4138 19.2457 16.4511 19.2457 16.4824V18.4473ZM24.3601 22.2023C24.3585 22.1853 24.3576 22.168 24.3576 22.1507V22.1081C24.3494 22.0318 24.3248 21.9599 24.2832 21.8961C24.274 21.8821 24.2634 21.8678 24.2518 21.8535C24.1187 21.6893 23.8861 21.5977 23.618 21.5822C23.3013 21.5641 22.9498 21.6508 22.6392 21.8461C22.5905 21.8768 22.5443 21.9092 22.5005 21.9432C22.2747 22.1194 22.1266 22.3295 22.0686 22.5367C22.0227 22.7001 22.037 22.8601 22.1205 22.988C22.1297 23.002 22.1403 23.0163 22.1519 23.0306C22.285 23.1949 22.5176 23.2864 22.7857 23.3019C23.1024 23.3201 23.4539 23.2336 23.7645 23.0381C23.8132 23.0077 23.8594 22.9749 23.9032 22.9409C24.129 22.7647 24.2771 22.5546 24.3351 22.3474C24.3488 22.2985 24.3573 22.25 24.3601 22.2023ZM18.0194 22.9072C18.0179 22.8893 18.0169 22.8715 18.0169 22.8533V22.8485C18.0093 22.7695 17.9847 22.6953 17.9416 22.6294C17.9324 22.6151 17.9218 22.6008 17.9102 22.5868C17.7771 22.4225 17.5445 22.331 17.2764 22.3155C16.9597 22.2973 16.6082 22.3841 16.2976 22.5793C16.2489 22.6097 16.2027 22.6422 16.1592 22.6765C15.9334 22.8527 15.7853 23.0631 15.727 23.27C15.6811 23.4333 15.6953 23.5937 15.7789 23.7213C15.7881 23.7353 15.7987 23.7496 15.81 23.7639C15.9431 23.9282 16.1757 24.0197 16.4438 24.0352C16.7605 24.0534 17.112 23.9666 17.4226 23.7714C17.4713 23.7407 17.5175 23.7082 17.5613 23.6742C17.7871 23.498 17.9349 23.2879 17.9932 23.0807C18.0097 23.022 18.0188 22.9636 18.0194 22.9072ZM15.2564 30.7677C15.3503 30.7054 15.4585 30.6132 15.5798 30.4898L18.3319 27.4157C18.4438 27.2676 18.6234 27.1716 18.8256 27.1716H27.1684C27.8836 27.1716 28.5342 26.8842 29.0063 26.4213C29.4784 25.9584 29.7714 25.3205 29.7714 24.6191V14.2757C29.7714 13.5743 29.4784 12.9364 29.0063 12.4734C28.5342 12.0105 27.8836 11.7232 27.1684 11.7232H14.1863C13.471 11.7232 12.8205 12.0105 12.3484 12.4734C11.8763 12.9364 11.5832 13.5743 11.5832 14.2757V24.6191C11.5832 25.3205 11.8763 25.9584 12.3484 26.4213C12.8205 26.8842 13.471 27.1716 14.1863 27.1716H14.6441V27.174C14.9822 27.174 15.2561 27.4425 15.2561 27.774L15.2564 30.7677Z" fill="#124285"/>
</g>
</svg>
