<svg width="34" height="43" viewBox="0 0 34 43" fill="none" xmlns="http://www.w3.org/2000/svg">
<g id="Vector">
<path fill-rule="evenodd" clip-rule="evenodd" d="M6.71532 0.500209H26.0769C27.9986 0.500209 29.5709 2.05364 29.5709 3.95229V14.0991H30.995C32.2808 14.0991 33.3328 15.1385 33.3328 16.4088V29.208C33.3328 30.4784 32.2808 31.5178 30.995 31.5178H29.5709V38.9333C29.5709 40.8319 27.9986 42.3853 26.0769 42.3853H6.71532C4.79358 42.3853 3.22128 40.8319 3.22128 38.9333V33.7999C1.75646 33.6298 0.610234 32.3907 0.610234 30.8997V14.7171C0.610234 13.2261 1.75643 11.987 3.22128 11.8169V3.95226C3.22128 2.05361 4.79358 0.500209 6.71532 0.500209Z" fill="white"/>
<path d="M30.0704 31.8732V39.1485C30.0704 40.2084 29.632 41.1715 28.9257 41.8693C28.2194 42.5671 27.2446 43.0003 26.1718 43.0003H6.76174C5.68899 43.0003 4.71411 42.5671 4.00786 41.8693C3.3016 41.1715 2.86316 40.2084 2.86316 39.1485V34.0502C2.16185 33.9104 1.53334 33.5661 1.04502 33.0836C0.400203 32.4466 0 31.5697 0 30.6071V14.7191C0 13.7564 0.400203 12.8796 1.04502 12.2426C1.53334 11.7601 2.16185 11.4158 2.86316 11.276V3.85233C2.86316 2.79244 3.30157 1.8293 4.00786 1.13149C4.71411 0.433707 5.68899 0.000488281 6.76174 0.000488281H26.1718C27.2446 0.000488281 28.2194 0.433707 28.9257 1.13149C29.632 1.82937 30.0704 2.79248 30.0704 3.85233V13.4529H31.0455C31.8595 13.4529 32.5991 13.7816 33.1349 14.311C33.6686 14.8383 34 15.5638 34 16.36V28.966C34 29.7622 33.6686 30.4878 33.1349 31.0151C32.5991 31.5445 31.8595 31.8731 31.0455 31.8731L30.0704 31.8732ZM4.08279 34.1195V39.1485C4.08279 39.8758 4.38436 40.5374 4.87014 41.0174C5.35591 41.4973 6.02559 41.7953 6.76171 41.7953H26.1718C26.9079 41.7953 27.5775 41.4974 28.0633 41.0174C28.5492 40.5374 28.8508 39.8758 28.8508 39.1485V31.8732H27.7173V38.6046C27.7173 39.2271 27.4597 39.7928 27.045 40.2025C26.6303 40.6122 26.0578 40.8666 25.4277 40.8666H7.50583C6.8758 40.8666 6.30309 40.6123 5.88838 40.2026C5.47376 39.793 5.21626 39.2273 5.21626 38.6046V34.1195L4.08279 34.1195ZM6.43589 34.1195V38.6045C6.43589 38.8946 6.55649 39.1587 6.75069 39.3506C6.94493 39.5425 7.21236 39.6616 7.50583 39.6616H25.4277C25.7211 39.6616 25.9885 39.5424 26.1827 39.3505C26.377 39.1586 26.4976 38.8944 26.4976 38.6046V31.8732H20.8226C20.6415 32.3299 20.3658 32.7414 20.0194 33.0836C19.3725 33.7228 18.4797 34.1195 17.4973 34.1195H6.43589ZM21.0628 30.7078H31.0455C31.5255 30.7078 31.9623 30.5134 32.2792 30.2002C32.5982 29.885 32.7963 29.4482 32.7963 28.9661V26.2695H21.0643V26.9672H26.4969C26.8293 26.9672 27.0987 27.2281 27.0987 27.5499C27.0987 27.8717 26.8293 28.1326 26.4969 28.1326H21.0643V28.4602H24.7672C25.0996 28.4602 25.3691 28.7211 25.3691 29.0429C25.3691 29.3647 25.0996 29.6256 24.7672 29.6256H21.0643V30.607C21.0643 30.6407 21.0639 30.6743 21.0628 30.7078ZM19.8605 27.0568H1.20383V30.6071C1.20383 31.2557 1.47079 31.8438 1.90086 32.2686C2.3288 32.6915 2.91866 32.9539 3.56707 32.9539H17.4973C18.1457 32.9539 18.7356 32.6915 19.1635 32.2686C19.5936 31.8438 19.8605 31.2557 19.8605 30.6071L19.8605 27.0568ZM1.20383 24.9149L4.42183 21.7356L4.42067 21.7344C4.43122 21.7242 4.44196 21.7146 4.45295 21.7054C5.05318 21.1304 5.83437 20.8428 6.61497 20.8428C7.40907 20.8428 8.20381 21.1404 8.80805 21.7355L8.8092 21.7344C8.82134 21.7461 8.83273 21.7582 8.84351 21.7705L10.3498 23.2588L11.8916 21.7356L11.8904 21.7344C11.9009 21.7242 11.9117 21.7146 11.9227 21.7054C12.5229 21.1304 13.3041 20.8428 14.0847 20.8428C14.8788 20.8428 15.6735 21.1404 16.2778 21.7355L16.2789 21.7344C16.2911 21.7461 16.3025 21.7582 16.3132 21.7705L19.8606 25.2753V14.7191C19.8606 14.0705 19.5937 13.4825 19.1636 13.0576C18.7356 12.6347 18.1458 12.3723 17.4974 12.3723H3.56717C2.91873 12.3723 2.32886 12.6347 1.90096 13.0576C1.47089 13.4825 1.20393 14.0705 1.20393 14.7191L1.20383 24.9149ZM21.0644 25.1041H25.8598L23.3867 22.6606C23.1191 22.3962 22.7653 22.264 22.4112 22.264C22.057 22.264 21.7033 22.3962 21.4357 22.6606L21.0644 23.0274L21.0644 25.1041ZM21.0644 21.4696C21.4762 21.2223 21.9439 21.0986 22.4112 21.0986C23.0744 21.0986 23.7383 21.3477 24.2424 21.8458L25.3746 22.9644L26.5067 21.8458C27.0108 21.3477 27.6746 21.0986 28.3379 21.0986C29.0012 21.0986 29.6649 21.3477 30.1691 21.8458L32.7963 24.4415V16.3601C32.7963 15.878 32.5983 15.4412 32.2792 15.126C31.9623 14.8129 31.5255 14.6184 31.0455 14.6184H21.0629C21.0639 14.6519 21.0644 14.6854 21.0644 14.7191L21.0644 21.4696ZM20.8226 13.453H26.4976V5.06532C26.4976 4.77544 26.377 4.51121 26.1827 4.31928C25.9886 4.1274 25.7212 4.00822 25.4278 4.00822H23.4768V5.19003C23.4768 5.60761 23.3032 5.98851 23.0235 6.26603L23.0197 6.26975C22.7389 6.54536 22.3539 6.71626 21.932 6.71626H11.0016C10.5783 6.71626 10.1923 6.54432 9.91132 6.26724L9.91013 6.26841C9.63049 5.99212 9.45684 5.61039 9.45684 5.19003V4.00822H7.5059C7.21226 4.00822 6.94489 4.12734 6.75069 4.31918C6.55652 4.51105 6.43596 4.77524 6.43596 5.06532V11.2068H17.4974C18.4798 11.2068 19.3726 11.6035 20.0195 12.2426C20.3659 12.5849 20.6415 12.9963 20.8226 13.453ZM5.21626 11.2068V5.06532C5.21626 4.44261 5.47366 3.87688 5.88831 3.46718C6.30299 3.05754 6.87559 2.80319 7.50587 2.80319H10.0666C10.4034 2.80319 10.6765 3.07298 10.6765 3.40571V5.19003C10.6765 5.27773 10.7133 5.35795 10.7724 5.41641L10.7712 5.41758L10.7724 5.41875C10.8301 5.47576 10.9112 5.5112 11.0015 5.5112H21.932C22.0223 5.5112 22.1034 5.47576 22.1611 5.41875L22.1635 5.41637C22.2212 5.35936 22.2571 5.27927 22.2571 5.19V3.40567C22.2571 3.07295 22.5301 2.80316 22.8669 2.80316H25.4277C26.058 2.80316 26.6304 3.05761 27.045 3.46724C27.4598 3.87701 27.7173 4.44281 27.7173 5.06526V13.453H28.8508V3.85236C28.8508 3.1251 28.5492 2.4635 28.0633 1.98349C27.5776 1.50354 26.9079 1.20551 26.1718 1.20551H6.76171C6.02562 1.20551 5.35595 1.50351 4.87014 1.98349C4.38436 2.4635 4.08279 3.1251 4.08279 3.85236V11.2067L5.21626 11.2068ZM18.8032 25.8913L15.4557 22.5839C15.4462 22.5758 15.4369 22.5674 15.4278 22.5586L15.4289 22.5574L15.4255 22.5541C15.0574 22.1903 14.5713 22.0085 14.0847 22.0085C13.6103 22.0085 13.1364 22.1814 12.7718 22.5271C12.7622 22.5378 12.7522 22.5484 12.7416 22.5586L12.7404 22.5575L11.1902 24.0891L13.0142 25.8913L18.8032 25.8913ZM11.3336 25.8913L7.98605 22.5839C7.97656 22.5758 7.9672 22.5674 7.95815 22.5586L7.95923 22.5574L7.95581 22.5541C7.58768 22.1903 7.10156 22.0085 6.61501 22.0085C6.14059 22.0085 5.66668 22.1814 5.30211 22.5271C5.29251 22.5378 5.28248 22.5484 5.27193 22.5586L5.27068 22.5575L1.89642 25.8913L11.3336 25.8913ZM10.5322 14.4743C11.3134 14.4743 12.0208 14.7873 12.5329 15.2932C13.0429 15.797 13.3583 16.4907 13.3583 17.2546C13.3583 18.0185 13.0429 18.7121 12.5329 19.2159C12.0208 19.7219 11.3134 20.0349 10.5322 20.0349C9.75102 20.0349 9.04362 19.7219 8.53153 19.2159C8.02155 18.7121 7.70607 18.0185 7.70607 17.2546C7.70607 16.4907 8.02155 15.797 8.53153 15.2932C9.04358 14.7872 9.75102 14.4743 10.5322 14.4743ZM11.677 16.1082C11.3842 15.8188 10.9794 15.6398 10.5322 15.6398C10.085 15.6398 9.68023 15.8188 9.3874 16.1082C9.0924 16.3996 8.90993 16.8048 8.90993 17.2546C8.90993 17.7043 9.09244 18.1095 9.3874 18.4009C9.68023 18.6903 10.085 18.8693 10.5322 18.8693C10.9794 18.8693 11.3842 18.6903 11.677 18.4009C11.972 18.1095 12.1545 17.7043 12.1545 17.2546C12.1545 16.8048 11.972 16.3996 11.677 16.1082ZM2.77077 29.4051C2.43837 29.4051 2.16884 29.1441 2.16884 28.8223C2.16884 28.5005 2.43834 28.2395 2.77077 28.2395H11.7645C12.0969 28.2395 12.3665 28.5005 12.3665 28.8223C12.3665 29.1441 12.097 29.4051 11.7645 29.4051H2.77077ZM2.77077 31.2868C2.43837 31.2868 2.16884 31.0259 2.16884 30.704C2.16884 30.3822 2.43834 30.1213 2.77077 30.1213H9.58452C9.91691 30.1213 10.1865 30.3822 10.1865 30.704C10.1865 31.0259 9.91695 31.2868 9.58452 31.2868H2.77077ZM27.5402 25.1041H31.7865L29.3134 22.6607C29.0457 22.3962 28.692 22.264 28.3378 22.264C27.9836 22.264 27.6299 22.3962 27.3623 22.6607L26.2147 23.7945L27.5402 25.1041ZM25.5192 16.0456C26.1735 16.0456 26.766 16.3078 27.195 16.7315C27.6218 17.1532 27.8859 17.7333 27.8859 18.3718C27.8859 19.0103 27.6218 19.5904 27.195 20.0122C26.766 20.4359 26.1735 20.6981 25.5192 20.6981C24.865 20.6981 24.2724 20.4359 23.8435 20.0122C23.4166 19.5904 23.1526 19.0103 23.1526 18.3718C23.1526 17.7333 23.4166 17.1532 23.8435 16.7315C24.2725 16.3077 24.865 16.0456 25.5192 16.0456ZM26.3393 17.5464C26.1296 17.3392 25.8395 17.211 25.5192 17.211C25.1989 17.211 24.9089 17.3392 24.6992 17.5464C24.4874 17.7557 24.3562 18.0474 24.3562 18.3718C24.3562 18.6962 24.4873 18.988 24.6992 19.1973C24.9089 19.4045 25.1989 19.5327 25.5192 19.5327C25.8395 19.5327 26.1295 19.4045 26.3393 19.1973C26.5511 18.988 26.6822 18.6962 26.6822 18.3718C26.6822 18.0474 26.5511 17.7557 26.3393 17.5464ZM30.0417 28.1327C29.7094 28.1327 29.4399 27.8718 29.4399 27.55C29.4399 27.2282 29.7094 26.9673 30.0417 26.9673H31.6773C32.0097 26.9673 32.2792 27.2282 32.2792 27.55C32.2792 27.8718 32.0097 28.1327 31.6773 28.1327H30.0417ZM14.887 4.00822C14.5502 4.00822 14.2771 3.73844 14.2771 3.40571C14.2771 3.07298 14.5502 2.80319 14.887 2.80319H20.5294C20.8661 2.80319 21.1392 3.07298 21.1392 3.40571C21.1392 3.73844 20.8661 4.00822 20.5294 4.00822H14.887ZM12.4041 4.00822C12.0674 4.00822 11.7943 3.73844 11.7943 3.40571C11.7943 3.07298 12.0674 2.80319 12.4041 2.80319H13.0166C13.3534 2.80319 13.6265 3.07298 13.6265 3.40571C13.6265 3.73844 13.3534 4.00822 13.0166 4.00822H12.4041Z" fill="#124285"/>
</g>
</svg>
