<svg width="47" height="45" viewBox="0 0 47 45" fill="none" xmlns="http://www.w3.org/2000/svg">
<path id="5 Gift" fill-rule="evenodd" clip-rule="evenodd" d="M17.4427 13.4634H20.5641V43.6445H17.4427V13.4634ZM5.87595 26.476C5.87595 27.6048 6.63147 27.3796 8.26284 27.3796C9.36837 27.3796 9.34144 25.9335 8.35455 25.9335C7.5763 25.9335 5.87595 25.7257 5.87595 26.476ZM5.14145 29.6389C5.14145 30.0066 5.21381 30.4522 5.87595 30.4522H9.08904C10.0011 30.4522 10.3224 29.0061 8.62967 29.0061C7.99193 29.0061 6.02402 28.9275 5.54446 29.1312C5.34926 29.2148 5.14145 29.4153 5.14145 29.638V29.6389ZM28.2742 40.663C28.2742 41.1003 28.5645 41.386 29.0087 41.386H32.5886C33.6209 41.386 33.4502 40.0302 32.772 40.0302H28.8244C28.5653 40.0302 28.2734 40.4071 28.2734 40.663H28.2742ZM26.0707 43.0126V32.0787C26.0707 31.8684 26.3156 31.6265 26.5301 31.6265H32.4052C32.624 31.6265 35.3962 33.885 35.7731 34.1848C36.9022 35.0843 37.9497 35.9058 39.0779 36.8052L45.4435 41.8349C45.6951 42.0817 45.6244 41.7786 45.6244 43.0126C45.6244 43.4341 45.4107 43.6453 44.9816 43.6453H26.7144C26.2861 43.6453 26.0716 43.435 26.0716 43.0126H26.0707ZM3.67247 33.2531V24.7591H11.2V33.5239H3.94843C3.73725 33.5239 3.67331 33.461 3.67331 33.2531H3.67247ZM45.3476 31.6265C45.8036 32.2974 45.6227 33.5165 45.6227 34.7894C45.2828 34.7 42.975 32.7603 42.5813 32.4514C42.349 32.2692 41.7214 31.8112 41.5834 31.6265H45.3476ZM34.883 31.6265C36.1921 31.6265 37.5307 31.5984 38.8364 31.6207C39.47 31.6315 39.459 31.769 40.0942 32.28L45.0329 36.1833C45.3039 36.3978 45.3005 36.5121 45.6227 36.5965V40.1205C45.2996 40.0352 45.1869 39.829 44.9286 39.6294C44.6804 39.4373 44.5046 39.2973 44.2673 39.106L41.6129 37.0198C40.9406 36.4839 35.0605 31.8874 34.883 31.6265ZM4.68208 19.7891H6.79301V23.3131H4.68208V19.7891ZM8.17029 13.4634H15.9729V18.3431H8.17029V13.4634ZM36.0768 18.3431H22.0323V13.4634H36.0768C36.2905 13.4634 36.5362 13.7044 36.5362 13.9156V17.8918C36.5362 18.1021 36.2914 18.3439 36.0768 18.3439V18.3431ZM1.37728 17.6201V14.0961C1.37728 13.7914 1.53966 13.4634 1.83665 13.4634H6.79385V18.3431H2.02007C1.58089 18.3431 1.37728 18.0375 1.37728 17.6201ZM15.9729 7.04736C16.4323 6.7931 16.9253 7.11113 17.4739 7.28671C18.4355 7.5948 19.4838 7.55836 20.4539 7.30162C22.0575 6.87675 22.1484 6.51152 21.8733 8.06604L21.1135 12.0174H16.7991C16.7991 11.5146 16.1883 8.56461 16.0083 7.63786L15.9729 7.04736ZM22.5825 12.0174C22.7062 10.5589 23.0983 11.624 26.4409 10.1224C27.0669 9.84169 29.2249 8.93316 28.2523 8.06273C27.5246 7.41094 26.8162 8.71949 24.3603 9.43008C24.0035 9.5336 23.2842 9.64292 23.041 9.75804C23.0478 9.47729 23.1008 9.27686 23.1529 8.96463C23.28 8.20021 23.2177 8.59857 24.9172 7.9004C26.0118 7.45069 26.3972 7.02003 27.2267 6.37818C27.5936 6.09493 28.6831 4.6928 28.954 4.28284C29.2502 3.83479 30.1815 2.2753 30.2926 1.80571C31.0523 2.30677 31.3939 3.3387 31.3939 4.42612C31.3939 5.15493 30.6157 5.8473 31.4309 6.28708C31.9122 6.54713 33.4089 6.0792 33.5982 8.22505C33.6496 8.81224 33.7497 8.83709 33.3955 9.1957C30.7351 11.8923 26.1851 12.0165 22.5808 12.0165L22.5825 12.0174ZM5.14145 4.06586C5.14145 4.90399 5.19193 4.65636 5.23316 5.14996C4.45323 5.21373 3.76754 5.89948 3.43268 6.4494C3.07848 7.03162 2.79074 8.45778 2.85047 9.02426C2.89927 9.48805 3.1685 9.71995 3.40913 10.0173C3.98545 10.7303 4.80071 11.2836 5.63196 11.7151C5.73797 11.7706 5.79265 11.7888 5.87679 11.8352L5.99289 11.9014C6.16789 12.0116 6.05768 11.9362 6.15107 12.0165C4.83436 12.0165 3.51682 12.0165 2.20011 12.0132C1.5018 12.0116 1.05084 12.1648 0.665503 12.4911C0.346634 12.7611 0 13.2679 0 13.8237V17.8901C0 19.8479 2.16057 19.7875 3.3048 19.7875C3.3048 24.7633 3.43437 22.9032 2.64266 23.8341C2.44074 24.0709 2.29519 24.3467 2.29519 24.7575V33.6134C2.29519 33.8445 2.4887 34.2354 2.60564 34.3919C2.77055 34.6122 3.07091 34.7563 3.3048 34.8789C3.3048 35.558 3.17776 37.6359 3.48653 37.9556C3.68509 38.161 3.96021 38.2157 4.21766 38.1328C5.00095 37.8802 4.61561 36.5659 4.6703 35.3195C4.69386 34.7894 4.77631 34.8656 5.31645 34.8714C6.78712 34.8871 8.25947 34.8797 9.73098 34.8797C10.5513 34.8797 12.6681 35.2491 12.6681 33.4337V24.8494C12.6681 22.8618 10.1432 23.3131 8.17029 23.3131V19.7891H15.9729V43.6445H5.41657C3.75828 43.6445 5.56886 39.94 4.03929 39.94C2.99603 39.94 3.3048 41.3653 3.3048 43.0126C3.3048 44.158 4.19662 45.0002 5.14061 45.0002H45.2559C46.1629 45.0002 47 44.1762 47 43.2834V31.9885C47 30.8919 46.024 30.1813 44.8891 30.1813H34.6996V26.2955C34.6996 25.2743 33.2306 25.2743 33.2306 26.2955V30.1813H26.8044C25.6517 30.1813 24.6934 30.9375 24.6934 31.8982V43.6453H22.0314V19.79H33.2306V22.8626C33.2306 24.1877 34.6996 23.9442 34.6996 22.9529V19.79H35.8009C36.9855 19.79 38.0043 18.9345 38.0043 17.8023V14.0978C38.0043 12.9458 37.1336 12.0389 35.9893 12.0149C34.5969 11.9859 33.1599 12.019 31.7624 12.019C31.9929 11.8219 32.7931 11.5188 33.6916 10.8463C34.6558 10.1258 35.0664 9.61311 35.0664 8.67559C35.0664 7.76706 34.8409 6.95377 34.4791 6.36161C34.1729 5.85973 33.4594 5.20711 32.7712 5.15079C32.7712 4.20582 33.138 3.26333 32.0384 1.62516C31.6699 1.07607 30.7444 0.000244141 30.0175 0.000244141C29.3293 0.000244141 29.1593 0.96592 28.6402 1.98791C27.8998 3.44637 27.0172 4.77313 25.7182 5.79844C24.8483 6.48501 24.2492 6.60427 23.4996 6.95791C23.227 6.39888 23.0057 5.51188 21.5721 5.51188C21.1102 5.51188 20.6979 5.74212 20.3664 5.86138C19.9987 5.99389 19.3787 6.09825 18.99 6.10736C17.7145 6.13634 17.3544 5.51188 16.2472 5.51188C15.4218 5.51188 14.5653 6.21668 14.5031 6.95791C14.2271 6.82706 13.9571 6.77654 13.6449 6.62829C13.0804 6.35996 12.3669 5.85227 12.0893 5.82329C11.3649 5.74875 11.3817 6.38563 11.3817 6.68709C11.3817 7.27263 13.8729 8.38572 14.6865 8.40394C14.7891 8.83875 14.8598 9.32738 14.9616 9.7597C13.9747 9.5336 13.3117 9.36217 12.4292 8.99942C12.0548 8.84537 11.6669 8.65489 11.3279 8.45695C11.0982 8.32278 10.4142 7.8623 10.1878 7.8623C9.57786 7.8623 9.19168 8.68305 9.84204 9.19653L11.4103 10.0926C12.2761 10.5158 14.2692 11.185 15.2367 11.2057C15.2561 11.4302 15.3419 11.8575 15.4202 12.019C11.7494 12.019 9.30274 11.9412 6.2697 10.4537C5.86417 10.255 4.31273 9.26278 4.31273 8.85614C4.31273 5.32057 6.88303 7.06889 6.88303 5.78353C6.88303 5.06135 5.91717 4.10727 7.2995 2.12705C7.48628 1.86037 7.38868 1.89184 7.70924 1.80819C7.74457 2.23057 9.13784 4.80875 9.69985 5.00586C10.1584 5.16736 10.611 4.73752 10.6102 4.33999C10.6093 4.02942 9.63423 2.61983 9.39108 2.1403C8.82233 1.01975 8.63555 0.00107234 7.89265 0.00107234C6.94445 0.00107234 5.13893 2.08564 5.13893 4.06751L5.14145 4.06586Z" fill="#124285"/>
</svg>
