<svg width="35" height="45" viewBox="0 0 35 45" fill="none" xmlns="http://www.w3.org/2000/svg">
<path id="1 Location" fill-rule="evenodd" clip-rule="evenodd" d="M11.058 33.4854C11.7293 33.9725 19.4308 40.987 19.4395 41.0062C18.2075 41.095 13.5626 41.0192 11.9679 41.0192C10.8902 41.0192 4.99804 41.1447 4.45108 40.9844C4.23416 40.9209 4.07054 40.7361 4.04562 40.469C4.01182 40.1065 4.20013 40.038 4.37133 39.8746C4.69964 39.5612 5.01083 39.2378 5.30034 38.964L11.0578 33.4852L11.058 33.4854ZM16.3952 21.7786C15.9718 21.9339 11.572 26.2792 10.8608 26.9548C10.6816 27.1251 10.0737 27.6395 9.9946 27.8686C9.81647 28.3843 10.267 28.8897 10.8567 28.7007C11.1618 28.603 14.065 25.7093 14.5513 25.2532C15.127 24.7132 15.7338 24.1066 16.3551 23.5188C16.5358 23.3477 17.14 22.8357 17.2193 22.604C17.4016 22.0726 16.9144 21.5878 16.395 21.7786H16.3952ZM9.62685 12.2252C11.5798 11.739 12.3079 14.6324 10.4408 15.1709C8.42999 15.7508 7.54432 12.7437 9.62685 12.2252ZM9.3031 16.4796C9.43854 18.2297 8.90328 20.2757 9.97207 20.2864C10.8036 20.2947 10.654 19.4053 10.6538 18.778C10.6536 18.0456 10.6259 17.2566 10.6634 16.5312L10.8163 16.4419C11.3826 16.163 11.7137 16.1464 12.2821 15.4327C13.666 13.6956 12.4867 10.9044 10.0434 10.8566C6.78369 10.7928 5.80743 15.441 9.30332 16.4798L9.3031 16.4796ZM22.0235 3.99529C22.6125 3.94452 24.1567 3.85491 24.4128 4.20694C24.7793 4.71065 24.2791 8.69174 24.667 9.22469C24.8575 9.48647 25.2838 9.57415 25.5843 9.36422C25.9222 9.12847 25.8767 8.7837 25.8743 8.31732C25.87 7.45155 25.8737 6.58471 25.8737 5.71873C25.8737 4.7849 25.9822 4.09493 25.4812 3.43675C25.0252 2.83809 24.5234 2.66122 23.5213 2.66421C22.7639 2.66656 21.5393 2.47198 21.0624 2.94967C20.5865 3.42629 20.8155 4.1935 19.7468 4.26817C18.7995 4.33431 13.6623 4.08085 13.2151 4.41815C12.9637 4.60782 12.8607 5.04966 13.1195 5.35667C13.4441 5.74156 14.9021 5.58538 15.534 5.58538C16.6381 5.58538 19.9062 5.73558 20.7299 5.3682C21.4995 5.02513 21.6184 4.69103 22.0237 3.99529H22.0235ZM23.0218 19.6205C22.7371 17.5745 24.3199 16.0134 26.0507 15.7992C28.1142 15.5439 29.6545 17.0958 29.8879 18.7364C30.1718 20.7332 28.6637 22.3011 26.9236 22.5584C24.8363 22.8669 23.2552 21.2985 23.0218 19.6208V19.6205ZM25.6522 14.5388C23.2632 14.9418 21.2628 17.1372 21.7238 19.9724C22.0943 22.252 24.3461 24.3025 27.2317 23.8374C29.5966 23.4563 31.6614 21.2215 31.1799 18.4002C30.7853 16.0877 28.5335 14.0526 25.6522 14.5388ZM26.4449 29.4651C25.7083 29.0567 22.9943 25.9841 22.3136 25.1638C21.3053 23.9487 19.6085 21.6928 19.2663 19.7859C18.8249 17.3251 20.5295 15.2787 20.523 14.8488C20.5132 14.2051 19.7099 13.9994 19.3153 14.4972C18.0346 16.1124 17.4846 19.0392 18.2602 21.1505C19.2327 23.7977 21.6514 26.5537 23.5367 28.5217C26.127 31.2254 26.3437 31.5636 28.4093 29.4875C30.4407 27.446 32.647 25.1002 34.0705 22.4246C37.668 15.6627 30.1536 8.41546 22.9865 11.4489C22.4833 11.6618 21.2112 12.2329 21.1848 12.8145C21.1705 13.1275 21.3632 13.3814 21.6059 13.4537C22.2712 13.6519 22.8864 12.6944 24.6855 12.2653C30.0669 10.9818 34.2872 15.7391 33.6469 19.7492C33.3517 21.5974 31.6059 23.9266 30.6141 25.1313C29.9475 25.941 27.1903 29.0621 26.4449 29.4653V29.4651ZM4.04757 0.080557C2.06862 0.411674 0.535871 1.66147 0.124348 3.67698C-0.0579003 4.5692 0.0335491 9.80969 0.0335491 11.125C0.0335491 12.0693 -0.0631012 39.9945 0.0716892 41.0226C0.332819 43.0149 1.89071 44.5113 3.72772 44.871C4.83226 45.0873 17.3578 44.9662 18.8141 44.9662C20.074 44.9662 21.3339 44.9662 22.5936 44.9662C23.9775 44.9662 24.8437 45.0295 25.972 44.4917C26.8542 44.0712 27.4963 43.4042 27.9163 42.6944C28.5014 41.7056 28.5385 40.8848 28.5383 39.5601C28.538 38.5832 28.6698 32.5136 28.4371 32.1247C28.1506 31.6462 27.4209 31.7853 27.2647 32.2233C27.0514 32.8217 27.4389 40.1428 27.0603 41.3729C26.7699 42.3168 26.1012 42.9918 25.2567 43.3703C24.1021 43.8879 19.586 43.6534 17.9583 43.6534H6.54791C5.29493 43.6534 4.10565 43.7866 3.12831 43.2801C1.02952 42.1922 1.36043 40.3041 1.36043 37.5239V7.61454C1.36043 4.91483 0.973831 2.95181 2.98832 1.79289C3.99448 1.21408 5.00671 1.34465 6.33381 1.34465H17.7442C19.3302 1.34465 24.0457 1.13621 25.1462 1.58275C28.1085 2.78518 27.012 6.0443 27.2146 8.81293C27.2608 9.44401 27.8439 9.71539 28.2968 9.36721C28.6674 9.08217 28.5378 8.22323 28.5378 7.68452C28.5378 7.05258 28.5378 6.42086 28.5378 5.78892C28.5378 4.47789 28.5643 3.53318 28.0481 2.53258C26.9596 0.423195 25.209 0.0312734 23.0214 0.0317001C20.9818 0.0319134 4.91981 -0.065587 4.04714 0.0803436L4.04757 0.080557ZM24.532 38.8834C24.1261 38.7957 23.5352 38.0846 23.2225 37.8173L14.6323 30.0817L18.7066 26.1842C19.5433 25.3972 18.7326 24.5948 18.0586 24.982L13.9586 28.8822C13.6472 29.1777 12.6362 29.8308 13.1355 30.5489C13.3418 30.8457 14.1605 31.4821 14.5003 31.8011L21.5972 38.1537C21.9216 38.4415 24.2746 40.4227 24.4105 40.7536C24.1214 41.1596 23.2936 41.0181 22.4514 41.019C21.2715 41.0201 21.4819 41.0344 20.8147 40.3999C20.067 39.6888 19.1905 39.0199 18.4556 38.299C17.9052 37.759 11.5035 32.0473 11.307 31.9894C10.6475 31.7955 10.1452 32.5072 9.8635 32.785C9.42185 33.2205 9.10806 33.5147 8.70651 33.891C7.94089 34.6085 7.19651 35.3441 6.42829 36.0719C5.97321 36.5028 4.35031 38.1507 4.04476 38.2508C4.035 37.614 3.95916 35.9535 4.04736 35.4182C4.1037 35.0762 5.17964 34.2066 5.47002 33.9341C6.51346 32.9561 7.48256 32.0342 8.44083 31.1019C8.58147 30.9649 9.05172 30.5301 9.13927 30.3887C9.36746 30.02 9.16614 29.5536 8.81681 29.4431C8.2887 29.2759 8.03039 29.6503 7.81477 29.8547C7.10745 30.5252 4.36483 33.2375 4.04887 33.3805C3.94984 30.8039 4.04107 28.0448 4.04107 25.4482V5.43839C4.04064 4.80218 3.8961 4.09002 4.56485 3.99103C5.0416 3.92041 6.09218 3.97972 6.62874 3.97972C7.06909 4.71705 7.28341 5.18727 8.22933 5.48276C8.63045 5.608 10.8049 5.70273 11.1546 5.47572C11.4606 5.27731 11.5501 4.75247 11.2456 4.4653C10.7617 4.00938 9.1111 4.50819 8.42804 4.14848C7.98228 3.9138 7.97773 3.61831 7.7879 3.22873C7.39826 2.42974 6.22762 2.66741 5.19351 2.66506C2.33821 2.65888 2.70119 4.39916 2.70119 6.42128V34.2947C2.70119 36.291 2.60844 38.5075 2.70509 40.4765C2.81886 42.7973 5.42235 42.3334 7.11893 42.3334H22.8081C23.9411 42.3334 24.6826 42.4416 25.3533 41.7141C26.0045 41.0077 25.8739 40.2719 25.8739 39.1392L25.8754 32.9593C25.8821 31.4008 24.5853 31.7569 24.5348 32.6111C24.4185 34.5846 24.5528 36.8677 24.5322 38.8838L24.532 38.8834Z" fill="#124285"/>
</svg>
