<svg width="12" height="12" viewBox="0 0 12 12" fill="none" xmlns="http://www.w3.org/2000/svg">
<path id="Navigation" fill-rule="evenodd" clip-rule="evenodd" d="M11.0109 0.0322722C10.3344 0.22508 9.49779 0.612703 8.82866 0.874131C8.09895 1.15933 7.38904 1.43431 6.67208 1.72068C6.10462 1.94729 0.472161 4.10298 0.246152 4.30249C-0.0107313 4.52927 -0.106202 5.04978 0.154372 5.37581C0.391791 5.67289 0.770656 5.70821 1.20657 5.82352L4.75846 6.77969C5.18917 6.88664 5.10394 6.80697 5.33481 7.70373L6.28986 11.2447C6.55664 12.2298 7.54323 12.2404 7.90247 11.341C8.04542 10.9833 8.18032 10.6213 8.32445 10.2624L11.7237 1.66394C11.8594 1.31782 12.1049 0.895052 11.9507 0.504583C11.8295 0.198133 11.4737 -0.0996134 11.0109 0.0322722Z" fill="white"/>
</svg>
