<svg width="45" height="28" viewBox="0 0 45 28" fill="none" xmlns="http://www.w3.org/2000/svg">
<g id="Vector">
<path fill-rule="evenodd" clip-rule="evenodd" d="M22.5881 2.93679C22.7772 3.66949 27.8258 6.62118 27.8122 14.0102C27.8061 17.3666 26.5969 20.5513 24.6014 22.9332C23.9247 23.7412 22.6891 24.7205 22.5509 25.0833C22.8712 25.2864 22.971 25.3958 23.2628 25.5961C27.6605 28.6148 33.2028 28.6963 37.678 26.3621C42.0433 24.0856 44.7967 19.5337 45 14.5754V13.3924C44.9504 12.1803 44.7471 10.9532 44.3767 9.73751C41.6887 0.915605 30.5048 -3.2095 22.5881 2.93679Z" fill="#F79D1A"/>
<path fill-rule="evenodd" clip-rule="evenodd" d="M22.4754 25.0831C22.4053 24.8281 21.9642 24.5303 21.448 24.0101C15.696 18.2135 15.7927 9.59973 21.4963 3.95152C21.9463 3.50567 22.4114 3.1656 22.5122 2.93679C19.9712 1.34637 18.9078 0.592116 15.5591 0.104479C12.5578 -0.332588 9.0204 0.681651 7.32762 1.66356C2.94741 4.20421 0.00528891 8.41023 0 13.9944V14.0339C0.00479307 17.0919 0.975473 19.7501 2.20713 21.591C3.63679 23.7276 5.09884 25.0634 7.32762 26.3563C8.18012 26.8509 9.74547 27.4354 10.8887 27.6818C14.2906 28.4148 17.9968 27.8806 20.9547 26.088C21.5417 25.7321 21.946 25.4087 22.4754 25.0831Z" fill="#EA001B"/>
<path fill-rule="evenodd" clip-rule="evenodd" d="M22.4754 25.0831L22.5509 25.0833C22.6891 24.7205 23.9247 23.7412 24.6014 22.9332C26.5969 20.5513 27.8061 17.3666 27.8122 14.0102C27.8258 6.62118 22.7772 3.66949 22.5881 2.93679L22.5122 2.93679C22.4114 3.1656 21.9463 3.50567 21.4963 3.95152C15.7927 9.59973 15.696 18.2135 21.448 24.0101C21.9642 24.5303 22.4053 24.8281 22.4754 25.0831Z" fill="#FF5F00"/>
</g>
</svg>
