<svg width="71" height="20" viewBox="0 0 71 20" fill="none" xmlns="http://www.w3.org/2000/svg">
<g id="Vector">
<path fill-rule="evenodd" clip-rule="evenodd" d="M0.000536976 19.9995H6.22087V8.10508H6.74818C6.78523 8.54684 8.34676 13.1473 8.60128 14.0442L9.97648 18.4603C10.1483 18.9674 10.3218 19.5025 10.4377 19.9995H14.8656C15.067 19.6194 15.1964 19.0725 15.3543 18.5927L16.7762 14.0126C16.9454 13.5113 17.0807 13.0701 17.2525 12.4879L18.2266 9.46093C18.3436 9.09369 18.4564 8.10508 18.8715 8.10508C19.1142 8.10508 19.1878 8.17853 19.1878 8.42085V19.9989H25.4076V0H18.5547C15.8993 0 15.3811 3.48908 14.8517 5.14462C14.4951 6.25761 14.2019 7.37864 13.8486 8.564L12.8622 12C12.257 11.9496 12.5588 11.9373 12.111 10.5396C11.6368 9.05884 9.89647 2.80177 9.47172 1.91234C9.26767 1.48506 8.89877 0.973596 8.51215 0.659965C8.20231 0.40906 7.3802 0.00107224 6.85289 0.00107224H0L0.000536976 19.9995Z" fill="#3DA536"/>
<path fill-rule="evenodd" clip-rule="evenodd" d="M28.1494 19.9995H34.6854C36.1508 19.9995 36.8317 17.9215 37.3929 16.8079L39.6106 11.8644C39.755 11.5266 39.8732 11.3588 40.0181 11.0082L41.1141 8.52379C41.2935 8.08792 41.2403 8.00054 41.8551 8.00054V20H48.0755V0.00107224H41.6446C40.2485 0.00107224 39.2718 2.84948 38.6585 4.07238L35.565 10.5621C35.412 10.8656 35.3293 11.0302 35.18 11.3363L34.824 11.8858C34.3085 12.1619 34.4723 11.2596 34.4755 10.6324V0.00107224H28.1499L28.1494 19.9995Z" fill="#3DA536"/>
<path fill-rule="evenodd" clip-rule="evenodd" d="M70.847 8.21069C71.7282 4.43319 68.6857 0.000536121 64.7319 0.000536121H50.2883C50.3259 1.6786 51.641 4.03056 52.5265 4.9232C53.8775 6.28441 54.9176 6.97118 56.9683 7.64616C59.8272 8.58652 66.9362 8.21069 70.8459 8.21069H70.847Z" fill="#008CD2"/>
<path fill-rule="evenodd" clip-rule="evenodd" d="M51.0267 9.15802V19.6837C51.0267 19.926 51.1003 19.9995 51.343 19.9995H57.3523V13.684H63.8883C65.7404 13.684 67.0227 13.1376 68.1503 12.3603C68.9633 11.7995 70.4325 10.2238 70.5302 9.0524L53.4501 9.0508C52.5834 9.04597 51.9868 9.15802 51.0267 9.15802Z" fill="#3DA536"/>
</g>
</svg>
