<svg width="52" height="83" viewBox="0 0 52 83" fill="none" xmlns="http://www.w3.org/2000/svg">
<path id="Vector" fill-rule="evenodd" clip-rule="evenodd" d="M34.0563 40.0999C34.3098 39.5538 35.9773 38.1576 36.5215 37.6446C37.4717 36.7469 37.9602 36.0333 38.6177 34.8646C41.8848 29.0666 38.5683 29.4534 42.4145 28.9053C42.4207 31.1868 42.3279 33.6297 42.4825 35.8926C42.6412 38.201 43.3111 39.802 43.5626 41.6947C33.6255 46.0033 34.0563 45.5359 34.0563 40.102V40.0999ZM19.6381 25.2048C19.6401 28.3385 22.668 28.4068 22.668 25.2048C22.668 21.9179 19.6381 21.9448 19.6381 25.2048ZM29.4 24.9731V25.4385C29.4 28.1027 32.4279 28.5578 32.4279 25.2048V24.9731C32.4279 22.0152 29.4 22.071 29.4 24.9731ZM22.5444 31.0296C19.2011 33.3959 26.4215 35.5492 29.4247 33.549C30.9232 32.5499 30.3337 30.0884 27.7778 30.951C25.0096 31.8859 23.7069 30.2063 22.5444 31.0296ZM17.9376 40.102C17.8427 39.8993 17.5521 39.5766 17.1955 39.227C16.639 38.7905 16.1154 38.3107 15.6269 37.7894C15.5692 37.7356 15.5156 37.688 15.4703 37.6446C14.5201 36.7469 14.0316 36.0333 13.374 34.8646C11.7766 32.0287 11.7539 30.6738 11.6962 29.9623C11.6632 29.8092 11.6323 29.6541 11.6034 29.4969C11.4509 29.1887 11.0284 29.1121 9.6659 28.9177C9.64735 29.7099 9.72361 30.5208 9.58963 31.164C9.60406 32.7526 9.61231 34.364 9.50718 35.8905C9.34847 38.199 8.67858 39.8 8.42711 41.6926C18.3642 46.0013 17.9334 45.5338 17.9334 40.0999L17.9376 40.102ZM26.6668 60.1662V60.1497C32.1373 59.918 37.0553 56.8877 39.7411 52.5191C40.31 51.5944 40.5903 50.5623 41.2849 49.6439C45.597 50.2189 48.8929 51.5117 48.9279 56.1554C48.9877 64.2742 50.1193 63.6413 42.2269 63.6413C42.1321 61.699 42.7649 58.8776 40.7923 58.7824C38.5971 58.679 39.1619 61.8107 39.1619 63.6123C39.1619 65.3436 38.8671 81.573 39.469 82.4334C39.9719 83.1574 41.1819 83.1926 41.792 82.51C42.8494 81.3289 41.5756 71.274 42.2846 66.7006L47.2192 66.7047C47.8973 71.7042 45.766 81.908 49.6576 79.4838C51.7497 78.1806 49.0722 67.1577 50.7645 64.9734C52.3599 62.9152 51.9538 61.3825 51.9538 58.4928C51.9538 55.8348 52.0775 53.7146 50.9417 51.5924C48.5116 47.0541 43.7192 47.5816 40.9057 46.2247C42.4969 45.3311 45.1394 44.7974 46.1226 43.3267C47.2439 41.6471 45.8918 38.8112 45.6094 36.6497C44.1913 25.8108 48.0045 16.9536 41.7199 8.01567C41.6024 7.85019 41.4828 7.68471 41.3633 7.52337L41.353 7.50889C41.2355 7.35169 41.1139 7.19862 40.9923 7.04555L40.9716 7.01866C40.8521 6.86973 40.7284 6.72287 40.6047 6.57807L40.5779 6.54705C40.4563 6.40639 40.3327 6.26573 40.2069 6.12921L40.1719 6.08991C40.0462 5.95339 39.9204 5.82101 39.7906 5.68863L39.7535 5.65139C39.6277 5.52315 39.502 5.39904 39.3742 5.277L39.3185 5.22322C39.1928 5.10325 39.0671 4.98741 38.9393 4.87158L38.8774 4.81573C38.7538 4.70403 38.626 4.5944 38.5002 4.48684L38.4219 4.42065C38.2962 4.31515 38.1704 4.2138 38.0427 4.11244L37.9602 4.04832C37.8345 3.94903 37.7087 3.85388 37.5809 3.75873C37.55 3.73598 37.5191 3.71116 37.4861 3.6884C37.3604 3.59739 37.2347 3.50638 37.1089 3.4195L37.0017 3.34504C36.8781 3.26023 36.7523 3.17749 36.6287 3.09475L36.5091 3.01822C36.3854 2.93961 36.2618 2.86308 36.1381 2.78655L36.0082 2.70794C35.8866 2.63555 35.765 2.56522 35.6413 2.49489C35.5939 2.468 35.5465 2.44111 35.4991 2.41422C35.3796 2.34803 35.2621 2.2839 35.1425 2.22185C35.0869 2.19289 35.0312 2.16393 34.9735 2.13497C34.8581 2.07499 34.7426 2.01707 34.6272 1.96122C34.5674 1.93226 34.5097 1.9033 34.45 1.87641C34.3366 1.82263 34.2212 1.76885 34.1078 1.71714C34.0439 1.68818 33.98 1.65922 33.914 1.63233C33.8027 1.58476 33.6914 1.53718 33.5801 1.48961C33.5121 1.46065 33.442 1.43376 33.3719 1.4048C33.2648 1.36136 33.1596 1.31999 33.0524 1.27862C32.9741 1.24966 32.8979 1.22071 32.8195 1.19175C32.733 1.16072 32.6443 1.12762 32.5557 1.09866C32.4588 1.06557 32.3599 1.0304 32.263 0.999377C32.1929 0.976624 32.1228 0.953871 32.0528 0.931117C31.9373 0.893885 31.8219 0.858721 31.7065 0.823556C31.6508 0.807009 31.5931 0.790461 31.5354 0.773913C31.4014 0.734612 31.2674 0.697379 31.1335 0.662215L31.0118 0.631188C30.8634 0.591886 30.713 0.554654 30.5646 0.521558L30.4697 0.498805C30.311 0.463641 30.1523 0.428476 29.9936 0.395381L29.9132 0.378833C29.7483 0.345737 29.5814 0.31471 29.4165 0.285751L29.3567 0.275409C29.1835 0.24645 29.0104 0.21956 28.8352 0.194738L28.794 0.188533C28.6147 0.163711 28.4353 0.140957 28.256 0.120273L28.223 0.116136C28.0375 0.0954508 27.852 0.078903 27.6644 0.0623551H27.6603C27.4707 0.0478757 27.279 0.0354649 27.0894 0.0251224H27.0729C26.7286 0.00857459 26.3824 0.000300661 26.0361 0.000300661C20.0235 -0.032795 14.0398 2.66657 10.2801 8.0136C9.84935 8.62587 9.46802 9.24021 9.12586 9.85248C8.01693 11.7679 7.39238 13.5468 7.04403 15.5243C6.45246 18.4243 6.46071 21.3739 6.56171 24.4436C6.45865 26.6527 6.3123 29.35 6.73691 30.982C6.73073 32.8147 6.64622 34.7012 6.39063 36.6497C6.10824 38.8112 4.75402 41.6471 5.87738 43.3267C6.86058 44.7995 9.50306 45.3332 11.0943 46.2247C8.28076 47.5816 3.48844 47.0541 1.05826 51.5924C-0.0774671 53.7146 0.0441445 55.8348 0.0462058 58.4928C0.0462058 61.3825 -0.359854 62.9152 1.23553 64.9734C2.92985 67.1577 0.252327 78.1806 2.3424 79.4838C6.23397 81.908 4.10268 71.7042 4.78082 66.7047L9.71537 66.7006C10.4244 71.274 9.15059 81.3309 10.208 82.51C10.8202 83.1926 12.0281 83.1574 12.531 82.4334C13.1308 81.5709 12.836 65.3416 12.8381 63.6123C12.8381 61.8107 13.4029 58.679 11.2077 58.7824C9.23304 58.8755 9.8679 61.699 9.77308 63.6413C1.88069 63.6413 3.01229 64.2742 3.07207 56.1554C3.10505 51.5117 6.40299 50.2189 10.7151 49.6439C11.4097 50.5643 11.69 51.5944 12.2589 52.5191C14.4479 56.0768 18.1148 58.7473 22.3547 59.7401C23.138 60.0752 24.2614 60.1559 25.3332 60.1662H26.0216C26.2401 60.1683 26.4627 60.1683 26.6895 60.1662H26.6668ZM26.6668 57.0676V57.0097C26.4442 57.0263 26.2195 57.0428 25.9969 57.0532H25.966L25.9413 57.0511L25.8732 57.047H25.8691L25.8382 57.0449L25.8032 57.0428L25.7702 57.0408H25.7681L25.6733 57.0345H25.6651L25.595 57.0304L25.5744 57.0283H25.562L25.4919 57.0242L25.4775 57.0221L25.4589 57.0201L25.3888 57.0159H25.3785L25.3538 57.0139L25.3188 57.0118C24.7148 56.9642 24.1171 56.9022 23.5544 56.8773C19.1083 55.9982 14.6334 52.4736 13.8419 48.6489C19.3845 47.7326 20.9614 46.3964 20.9614 41.4361C21.1366 41.4568 21.3056 41.4775 21.4684 41.5003C22.1548 41.7236 22.87 41.8974 23.6059 42.0174C24.2531 42.1229 24.8138 42.1829 25.3188 42.2035H25.3229L25.4053 42.2077H25.4321L25.5146 42.2097H25.5393L25.6218 42.2118H25.6259L25.7186 42.2139H25.9206L25.9866 42.2118C26.1989 42.216 26.4215 42.2139 26.6586 42.2035V42.1787C26.7987 42.1663 26.9348 42.1518 27.0708 42.1353L27.1429 42.1249L27.1533 42.1229L27.2357 42.1105L27.2439 42.1084L27.3181 42.098H27.3223L27.3903 42.0877L27.4088 42.0856L27.4727 42.0753L27.4892 42.0732L27.5614 42.0608L27.7221 42.0319L27.784 42.0215L27.8025 42.0174L27.8376 42.0112L27.8809 42.0029L27.9612 41.9884L28.0334 41.9739L28.0416 41.9719L28.122 41.9553L28.1323 41.9533L28.3632 41.9057L28.4271 41.8912L28.4436 41.8871L28.524 41.8705H28.526L28.6043 41.854L28.625 41.8498L28.6847 41.8374L28.7239 41.8291L28.7672 41.8209L28.8249 41.8085L28.8496 41.8023L28.928 41.7857L28.9341 41.7836L29.0187 41.765L29.0331 41.763L29.1032 41.7485L29.1361 41.7423L29.2392 41.7216L29.2722 41.7154L29.3443 41.7009L29.3588 41.6988L29.4474 41.6823L29.4536 41.6802L29.536 41.6637L29.5628 41.6595L29.6659 41.6409L29.6741 41.6388L29.7174 41.6306L29.7854 41.6182L29.8102 41.614L29.9009 41.5975H29.9029L29.9977 41.5809L30.0163 41.5768L30.0472 41.5706L30.1235 41.5582L30.1523 41.554L30.2451 41.5396L30.2595 41.5375L30.3584 41.523L30.3791 41.5209L30.3914 41.5189L30.4924 41.5044L30.5027 41.5023L30.5151 41.5003L30.6285 41.4837H30.6346L30.7295 41.4713L30.7831 41.4651L30.8841 41.4527H30.8902L31.0242 41.4382C31.0242 46.3984 32.599 47.7347 38.1437 48.651C37.2965 52.7425 32.23 56.4926 27.4954 57.0242C27.4645 57.0283 27.4356 57.0304 27.4047 57.0345H27.3944C27.2728 57.047 27.1512 57.0552 27.0275 57.0614H27.0172L26.9245 57.0656L26.8296 57.0676H26.8235L26.7554 57.0697H26.6606L26.6668 57.0676ZM26.6668 39.1691V39.1649C26.4504 39.1794 26.2298 39.1877 26.0113 39.1877H25.9948C25.9165 39.1877 25.8361 39.1856 25.7578 39.1836L25.6939 39.1815C25.6073 39.1794 25.5228 39.1753 25.4363 39.1711H25.4301L25.327 39.1649C20.3698 38.8423 16.0928 35.1666 14.9199 30.4897C14.4067 28.4399 14.8973 27.0478 13.9264 26.4417C13.6647 26.0673 13.3349 26.0818 12.8793 26.1356C12.7041 26.117 12.5104 26.1045 12.2939 26.1004C9.12586 26.0342 9.30519 24.125 10.1585 23.2128C10.5687 22.8756 11.1994 22.6419 12.0899 22.6254C12.4485 22.6192 12.7866 22.6005 13.1102 22.5716V22.5405C14.079 22.5674 14.957 22.5385 16.2803 21.2974C17.9829 19.7005 17.4594 17.2411 18.5126 16.7364C18.9001 16.5502 22.2517 17.0611 25.325 17.5783L25.3703 17.5865L25.4301 17.5969L25.5352 17.6155L25.6176 17.63L25.6403 17.6341L25.8506 17.6713L25.865 17.6734L25.9557 17.6879L26.0608 17.7065L26.1639 17.7231L26.2669 17.7417L26.3535 17.7561L26.37 17.7582L26.473 17.7768L26.5741 17.7955L26.5947 17.7996L26.675 17.8141L26.776 17.8306L26.8317 17.841L26.875 17.8492L26.9739 17.8658L27.0646 17.8823L27.0729 17.8844L27.2666 17.9175L27.2914 17.9216L27.3614 17.934L27.4562 17.9506L27.516 17.9609L27.5511 17.9671L27.6459 17.9837L27.7366 18.0002H27.7386L27.8314 18.0168L27.9221 18.0333L27.9509 18.0395L28.0107 18.0499L28.0993 18.0664L28.1591 18.0768L28.1859 18.0809L28.3591 18.1099H28.3632L28.4436 18.1243L28.526 18.1388L28.559 18.145L28.6085 18.1533L28.6889 18.1678L28.7486 18.1781L28.7692 18.1823L28.8476 18.1967L28.9238 18.2112L28.9321 18.2133L29.0001 18.2257L29.0743 18.2381L29.1073 18.2443L29.1464 18.2505L29.2186 18.2629L29.2763 18.2733L29.2887 18.2753L29.3567 18.2877L29.4226 18.3002L29.433 18.3022L29.4865 18.3126L29.5504 18.3229L29.5834 18.3291L29.6123 18.3353L29.6721 18.3457L29.7236 18.3539L29.7318 18.356L29.7895 18.3664L29.8452 18.3767L29.8576 18.3788L29.8988 18.387L29.9503 18.3953L29.9792 18.4015L29.9998 18.4057L30.0472 18.4139L30.0905 18.4222H30.0925L30.1791 18.4387L30.1915 18.4408L30.2203 18.445L30.2595 18.4512L30.2822 18.4553L30.2945 18.4574L30.3296 18.4636L30.3626 18.4698C31.3622 18.6415 32.3187 18.7863 33.3307 18.9662C35.0168 19.2641 34.3551 19.4358 35.1652 20.6417C36.1834 22.1579 37.6964 22.5902 39.8916 22.6336C42.9463 22.6915 42.971 25.2958 41.3241 25.9432C38.6857 26.9816 38.0117 24.3525 37.4181 29.0397C36.9193 32.9885 34.5056 35.9464 32.0981 37.4212C31.9847 37.4915 31.8714 37.5577 31.7559 37.6239L31.7498 37.6281C31.6385 37.6922 31.5292 37.7522 31.4179 37.8122L31.3994 37.8225C31.2901 37.8804 31.1809 37.9363 31.0716 37.99L31.0572 37.9983C30.9459 38.0521 30.8346 38.1059 30.7233 38.1576L30.7068 38.1659C30.5975 38.2155 30.4904 38.2631 30.3811 38.3086L30.3502 38.321C30.2451 38.3644 30.142 38.4058 30.0369 38.4472L30.0039 38.4596C29.9009 38.4989 29.7999 38.5361 29.6968 38.5713L29.6535 38.5858C29.5525 38.6209 29.4536 38.654 29.3526 38.6851L29.2907 38.7037C29.1939 38.7326 29.097 38.7616 29.0022 38.7885L28.9403 38.805C28.8496 38.8298 28.7589 38.8526 28.6703 38.8754L28.5899 38.896C28.5054 38.9167 28.4188 38.9353 28.3343 38.954L28.2271 38.9767C28.1509 38.9933 28.0746 39.0077 27.9983 39.0201C27.9571 39.0284 27.9138 39.0346 27.8726 39.0429C27.8005 39.0553 27.7304 39.0657 27.6582 39.0781C27.615 39.0843 27.5717 39.0905 27.5305 39.0967C27.4583 39.107 27.3862 39.1153 27.312 39.1256C27.2604 39.1318 27.211 39.1381 27.1594 39.1422C27.0997 39.1484 27.0399 39.1546 26.978 39.1587C26.9203 39.1629 26.8647 39.1691 26.809 39.1711C26.7596 39.1753 26.7101 39.1773 26.6606 39.1815L26.6668 39.1691ZM13.1123 19.4999V19.4792C12.8814 19.5309 12.632 19.5702 12.3723 19.6033C11.6158 19.6819 10.7851 19.7088 10.1008 19.7977C9.95447 19.8122 9.81431 19.8308 9.68033 19.8495C9.40825 10.8247 16.5895 3.43191 25.327 3.05338L25.395 3.05131C25.5187 3.04717 25.6444 3.04304 25.7702 3.04097H25.799C25.867 3.04097 25.9371 3.0389 26.0052 3.0389H26.0196C26.2381 3.0389 26.4545 3.04511 26.6709 3.05338V3.04924C35.6455 3.38641 42.3836 10.6695 42.4145 19.8639C40.8954 19.6136 38.3065 19.7833 37.6696 18.8359C36.4452 17.0156 38.0839 16.604 34.8292 16.1179L34.6808 16.0952H34.6767L34.5324 16.0724L34.5242 16.0703L34.384 16.0497L34.3716 16.0476L34.2356 16.0269L34.2191 16.0248L34.0872 16.0041L34.0666 16.0021L33.9388 15.9814L33.9161 15.9773L33.7904 15.9566L33.7636 15.9524L33.642 15.9338L33.611 15.9297L33.4935 15.9111L33.4585 15.9049L33.3451 15.8862L33.306 15.88L33.1967 15.8614L33.1535 15.8552L33.0483 15.8387L33.0009 15.8304L32.8999 15.8138L32.8484 15.8056L32.7515 15.789L32.6959 15.7807L32.6031 15.7663L32.5433 15.7559L32.4526 15.7414L32.3887 15.7311L32.3022 15.7166L32.2362 15.7063L32.1538 15.6918L32.0837 15.6794L32.0054 15.667L31.8569 15.6422L31.7786 15.6298L31.7085 15.6173L31.4117 15.5677L31.321 15.5532L31.2633 15.5429L31.1685 15.5263L31.1149 15.5181L30.9665 15.4932L30.8634 15.4746L30.8181 15.4663L30.7109 15.4477L30.6676 15.4394L30.5563 15.4208L30.5172 15.4146L30.4038 15.3939L30.2513 15.3671L30.2203 15.3608L30.0987 15.3402L30.0719 15.336L29.9462 15.3133L29.9235 15.3091L29.7937 15.2864L29.7751 15.2822L29.6411 15.2595L29.6267 15.2574L29.4886 15.2326L29.4783 15.2305L29.3361 15.2057L29.3299 15.2036L29.1835 15.1788H29.1815L28.8847 15.1292H28.8805L28.7363 15.1044L28.728 15.1023L28.5879 15.0775L28.4394 15.0526L28.423 15.0506L28.291 15.0278L28.2704 15.0237L28.1426 15.0009L27.9942 14.9761L27.9654 14.972L27.8458 14.9513L27.8128 14.9451L27.6974 14.9244L27.549 14.8996L27.5078 14.8934L27.4006 14.8748L27.3573 14.8665L27.2542 14.8479L27.2068 14.8396L27.1058 14.823L27.0543 14.8148L26.9574 14.7982L26.9018 14.7879L26.809 14.7734L26.7493 14.7631L26.6606 14.7486L26.5967 14.7382L26.5122 14.7238L26.4442 14.7134L26.3638 14.701L26.2917 14.6886L26.1391 14.6638L26.067 14.6514L25.9887 14.6389L25.9206 14.6286L25.8382 14.6141L25.7743 14.6038L25.6877 14.5893L25.628 14.579L25.5373 14.5645L25.4795 14.5562L25.3847 14.5417L25.3311 14.5335L25.0817 14.4942C21.8456 13.9812 18.0365 12.5746 15.9073 14.8623C14.6314 16.2337 15.1034 17.9382 14.3778 18.9207C14.1532 19.2227 13.6894 19.3944 13.1164 19.4999H13.1123Z" fill="#A0B7D6"/>
</svg>
