<svg width="24" height="24" viewBox="0 0 24 24" fill="none" xmlns="http://www.w3.org/2000/svg">
<g id="&#208;&#162;&#208;&#181;&#208;&#187;&#208;&#181;&#209;&#132;&#208;&#190;&#208;&#189;">
<rect id="Rectangle 161" x="0.5" y="0.5" width="23" height="23" rx="4.5" stroke="#CBD1DC"/>
<path id="Vector" fill-rule="evenodd" clip-rule="evenodd" d="M8.4401 7.01844C7.99026 7.19203 7.35448 7.96105 7.13256 8.58676C6.4508 10.5103 8.56606 13.2675 9.66967 14.3393C10.9152 15.5483 14.344 18.1844 16.2853 16.3961C17.377 15.3909 17.0471 15.3707 16.4273 14.7409C14.8878 13.1787 15.0198 12.9001 14.1601 13.8004C12.9505 15.0659 12.7766 15.0417 10.8672 13.2069C8.77798 11.1986 9.16185 10.9503 10.2535 9.85635C11.1192 8.98641 10.7313 8.97026 9.99156 8.22344C9.49973 7.72691 8.84596 6.86302 8.4421 7.01844H8.4401Z" fill="#CBD1DC"/>
</g>
</svg>
