<svg width="7" height="8" viewBox="0 0 7 8" fill="none" xmlns="http://www.w3.org/2000/svg">
<path id="Vector" fill-rule="evenodd" clip-rule="evenodd" d="M6.97373 4.10838C7.04092 3.84637 6.98164 3.56884 6.86108 3.35342C6.72669 3.1147 6.61602 3.0526 6.36899 2.90704C5.21879 2.22583 3.9678 1.55626 2.7761 0.865347C2.37689 0.634395 1.99152 0.417029 1.5765 0.186078C1.01721 -0.124446 0.608117 -0.0332299 0.242505 0.360746C-0.0855586 0.713967 0.0191845 1.45728 0.0191846 1.99876C0.0191846 2.96332 -0.0657955 7.10299 0.121952 7.46591C0.309699 7.82689 0.815628 8.16265 1.3848 7.91229L4.86899 5.76385C5.26029 5.53096 5.64369 5.29225 6.02511 5.04383C6.43223 4.77988 6.83144 4.64015 6.96978 4.10644L6.97373 4.10838Z" fill="#124285"/>
</svg>
