<svg width="26" height="26" viewBox="0 0 26 26" fill="none" xmlns="http://www.w3.org/2000/svg">
<g id="Vector">
<path d="M13 26C20.1797 26 26 20.1797 26 13C26 5.8203 20.1797 0 13 0C5.8203 0 0 5.8203 0 13C0 20.1797 5.8203 26 13 26Z" fill="#00A0E3"/>
<path fill-rule="evenodd" clip-rule="evenodd" d="M17.0733 12.8921C17.1405 13.1597 17.0817 13.444 16.9612 13.6625C16.8267 13.9063 16.7147 13.9693 16.4682 14.1178C15.3154 14.8125 14.0603 15.4961 12.8655 16.202C12.4649 16.4387 12.0797 16.6601 11.6623 16.8954C11.102 17.2119 10.6916 17.1181 10.3246 16.7161C9.99687 16.3561 10.1019 15.5955 10.1019 15.0436C10.1019 14.0589 10.0165 9.83159 10.2056 9.4604C10.3933 9.09202 10.9017 8.74884 11.4732 9.00517L14.968 11.1987C15.3602 11.4368 15.7454 11.6805 16.1278 11.9341C16.5354 12.2044 16.9374 12.3473 17.0747 12.8921H17.0733Z" fill="white"/>
</g>
</svg>
