<svg width="62" height="62" viewBox="0 0 62 62" fill="none" xmlns="http://www.w3.org/2000/svg">
<g id="Vector">
<path fill-rule="evenodd" clip-rule="evenodd" d="M43.4017 54.7735H59.9361V59.9396H43.4017V54.7735ZM24.8 50.6392H25.8319V53.7382C25.8319 54.3627 26.2394 54.7701 26.8639 54.7701H28.9311V59.9362H24.7967V50.6359L24.8 50.6392ZM2.06388 54.7735H18.5983V59.9396H2.06388V54.7735ZM49.6 30.7495C49.9373 30.9733 50.0709 31.1703 50.475 31.4241C50.8757 31.6779 51.1663 31.7948 51.6672 31.9117V52.7063H49.6V30.7462V30.7495ZM46.5008 50.6426H47.5328V52.7097H46.5008V50.6426ZM14.4639 39.2751H22.7328V59.9429H20.6656V53.7416C20.6656 53.1171 20.2581 52.7097 19.6336 52.7097H14.4672V39.2751H14.4639ZM10.3294 31.9117C10.787 31.8048 11.0541 31.708 11.4415 31.4742C11.8824 31.207 12.0427 30.9866 12.3967 30.7495V52.7097H10.3294V31.9117ZM34.0975 49.6073H38.2319V50.6392H34.0975V49.6073ZM36.9395 36.1728C38.419 36.1728 39.7648 37.0644 40.0387 38.2399H32.2874C32.5613 37.0644 33.9071 36.1728 35.3866 36.1728H36.9395ZM14.4639 31.6512C15.6261 32.2656 17.5831 32.1688 18.7252 31.521C19.3264 31.1803 19.5267 30.8197 20.0177 30.4891C20.6221 30.8931 20.916 31.3974 22.0548 31.8081C22.4589 31.9551 22.7294 31.8282 22.7294 32.2957V37.2047H14.4605V31.6512H14.4639ZM29.9664 38.8844C29.9664 39.5122 29.9964 40.3037 30.9983 40.3037H41.3311C43.6588 40.3037 42.0859 34.1023 37.1967 34.1023V32.0352C38.9266 32.0352 39.8851 32.1488 41.2777 31.0801C41.5949 30.8364 41.6617 30.6961 41.9757 30.4857C42.4465 30.7996 42.6002 31.1169 43.1879 31.4709C44.3501 32.1688 46.3339 32.2823 47.5294 31.6512V48.5721C43.956 48.5721 44.4303 48.1246 44.4303 52.7063C40.5897 52.7063 41.3311 51.8548 41.3311 59.9396H37.1967V52.7063C40.7701 52.7063 40.2958 53.1538 40.2958 48.5721C40.2958 47.9476 39.8884 47.5402 39.2639 47.5402H33.0622C31.6162 47.5402 32.0303 49.4704 32.0303 51.6745C32.0303 53.0269 33.5799 52.7063 35.1294 52.7063V59.9396H30.995V53.7382C30.995 52.3858 29.4487 52.7063 27.8958 52.7063C27.8958 48.1246 28.3701 48.5721 24.7967 48.5721V31.9083C25.8286 31.8849 26.8271 31.1202 27.2513 30.4891C27.7055 30.793 28.0294 31.1837 28.5804 31.4842C30.0031 32.2623 31.9869 32.2623 33.4129 31.4842C33.9639 31.1837 34.2912 30.793 34.742 30.4891C34.919 30.7562 35.1294 30.823 35.1294 31.1336V34.1057C32.1739 34.1057 29.963 36.5134 29.963 38.8844H29.9664ZM33.0689 18.604C33.0689 19.9364 33.4696 23.9905 33.4563 25.4499C33.4463 26.2346 34.3146 29.9715 31.0017 29.9715C27.6888 29.9715 28.5571 26.2346 28.5471 25.4499C28.5404 24.6718 28.6205 24.3512 28.6673 23.7634L28.9311 18.604H33.0689ZM35.263 18.604H39.3975C39.4208 19.6626 40.8168 26.3983 40.8168 27.6472C40.8168 30.065 37.1466 30.8731 36.0278 28.6891C35.5335 27.724 35.7506 26.7689 35.6437 25.4565C35.4701 23.336 35.263 20.8448 35.263 18.604ZM23.7681 29.9715C22.509 29.9715 21.1832 28.993 21.1832 27.7741C21.1832 26.2814 22.5792 19.7428 22.6025 18.604H26.737L26.3696 25.3397C26.2427 26.4617 26.8104 29.9715 23.7681 29.9715ZM41.5949 18.604H45.7294C45.7862 19.2719 46.6578 22.0971 46.8916 22.9954L48.0538 27.517C48.0538 30.1418 44.3668 30.8931 43.2748 28.5489C43.061 28.088 42.2595 22.8618 42.1092 21.9635C42.0124 21.3891 41.9322 20.9049 41.8321 20.3038C41.7519 19.8129 41.5916 19.1784 41.5916 18.6073L41.5949 18.604ZM16.5344 29.9715C15.1251 29.9715 13.9496 28.9128 13.9496 27.517L15.0851 23.0989C15.3288 22.1405 16.2172 19.3086 16.274 18.604H20.4084C20.4084 19.4656 20.0477 21.0117 19.9108 21.8499L19.0993 26.7222C18.9323 27.734 18.7954 29.9681 16.5344 29.9681V29.9715ZM47.9235 18.604H51.9277C52.4253 19.5457 55.1571 26.9359 55.1571 27.1296C55.1571 28.0045 55.2005 28.639 54.4792 29.2935C53.0999 30.5425 51.1496 29.8846 50.5819 28.3485L47.9235 18.6073V18.604ZM9.17059 29.9715C8.00172 29.9715 6.84622 28.9863 6.84622 27.7741C6.84622 26.1445 7.7045 24.8421 8.4125 22.8818C8.67299 22.1572 8.9268 21.5127 9.22736 20.7246L10.0756 18.604H14.0798L11.9291 26.5285C11.7621 27.1029 11.6586 27.6138 11.4849 28.1515C11.1243 29.2768 10.1458 29.9715 9.17059 29.9715ZM10.3328 2.07045H51.6672V16.5369H10.3328V2.07045ZM4.64875 27.3867C4.64875 29.8279 6.45548 31.8682 8.26555 31.9083V52.703H1.03194C0.407433 52.703 0 53.1104 0 53.7349V60.9681C0 61.5926 0.407433 62 1.03194 62H60.9681C61.5926 62 62 61.5926 62 60.9681V53.7349C62 53.1104 61.5926 52.703 60.9681 52.703H53.7344V31.9083C55.5378 31.8682 57.3512 29.7945 57.3512 27.3867C57.3512 25.7137 53.8313 18.2667 53.7344 17.0512C53.5908 15.2145 53.7344 5.89411 53.7344 2.9721C53.7344 1.60627 54.0651 0 52.7025 0H9.30084C7.93827 0 8.26889 1.60627 8.26889 2.9721V14.9841C8.26889 17.0578 8.47595 16.7974 7.78799 18.5072C7.38389 19.5123 7.08667 20.3973 6.68257 21.4058C6.2885 22.3876 5.91446 23.3493 5.57048 24.2977C5.25322 25.176 4.65209 26.2747 4.65209 27.3834L4.64875 27.3867Z" fill="#00A0E3"/>
<path fill-rule="evenodd" clip-rule="evenodd" d="M25.1907 12.406H36.8159C36.6156 13.1574 35.6905 13.4379 34.7487 13.4379C33.0188 13.4379 27.0542 13.655 25.9588 13.1841C25.1707 12.8468 25.2508 12.5229 25.1874 12.4027L25.1907 12.406ZM35.0092 10.3389H27.0008C27.7088 8.86287 28.5804 7.24992 31.005 7.24992C32.0069 7.24992 32.9654 7.68071 33.5531 8.17828C34.5784 9.04654 34.5584 9.40052 35.0092 10.3389ZM29.9697 5.17279C29.5222 5.38651 28.9645 5.38317 28.0728 5.85737C26.6602 6.61209 25.6015 7.83098 25.1072 9.35042C24.987 9.71776 24.9403 10.0584 24.8033 10.3389C23.2371 10.3389 22.7361 10.2988 22.7361 11.6313C22.7361 12.7333 23.2972 13.6683 23.8616 14.2527C24.3892 14.797 25.4813 15.5083 26.4832 15.5083H35.5268C37.2868 15.5083 39.2739 13.7551 39.2739 11.3741C39.2739 10.2387 38.3355 10.3422 37.2067 10.3422C36.9929 9.89475 36.9963 9.33707 36.5221 8.44544C35.0359 5.66369 32.9553 5.61359 32.0403 5.17613C32.0403 4.0474 32.1438 3.10902 31.0083 3.10902C29.8729 3.10902 29.9764 4.0474 29.9764 5.17613L29.9697 5.17279Z" fill="#00A0E3"/>
<path fill-rule="evenodd" clip-rule="evenodd" d="M40.3025 7.37014C40.2023 6.71561 40.8135 5.30637 42.2662 5.20618C44.8544 5.02585 45.2117 9.08995 42.4733 9.27696C41.3344 9.35377 40.4595 8.39869 40.3025 7.37014ZM38.2353 6.98276C38.2353 8.24507 38.3889 8.98309 39.1737 9.91813C39.5979 10.419 40.5463 11.1804 41.3344 11.2472V15.5083H43.4017V11.2472C44.1664 11.1838 45.0815 10.4658 45.5023 9.98826C47.5328 7.69406 46.5509 3.10902 42.1092 3.10902C40.1155 3.10902 38.2353 4.98912 38.2353 6.98276Z" fill="#00A0E3"/>
<path fill-rule="evenodd" clip-rule="evenodd" d="M15.5025 7.2399C15.5025 8.41872 17.5597 8.933 18.6017 9.17677V15.505H20.6689V9.17677C24.3725 8.3152 23.7681 7.78089 23.7681 4.1409H21.7008C21.7008 6.77906 21.9647 6.67887 20.6689 6.98276V4.1409H18.6017V6.98276C17.3026 6.67887 17.5697 6.77906 17.5697 4.1409H15.5025V7.2399Z" fill="#00A0E3"/>
</g>
</svg>
