<svg width="42" height="61" viewBox="0 0 42 61" fill="none" xmlns="http://www.w3.org/2000/svg">
<g id="Vector">
<path fill-rule="evenodd" clip-rule="evenodd" d="M20.0039 49.3888H22.0402L22.0686 58.2046L21.8866 59.0328L20.1177 59.0385L20.0096 58.1989V49.3888H20.0039ZM23.8205 39.8752L28.6439 39.8866L31.0271 47.6018L10.9885 47.5904L11.5573 45.6446C15.2715 45.2532 27.0171 46.3197 27.5746 45.0319C28.2742 43.4208 24.6054 43.8009 23.8262 43.8009V39.8695L23.8205 39.8752ZM20.0039 39.8752H22.0402V43.8066H20.0096V39.8752H20.0039ZM13.3661 39.8752H18.2179V43.8066L12.183 43.7669L13.3661 39.8752ZM38.8083 59.0328H36.9654C36.2828 58.6244 36.5444 58.874 36.2259 57.9776L30.538 39.8809C33.7517 39.8696 32.6653 39.6313 34.2465 44.5271C35.3727 48.0273 38.285 56.514 38.8083 59.0328ZM3.23015 59.0328C3.73069 56.5821 6.72824 47.7777 7.84308 44.3455C9.37313 39.637 8.29242 39.8639 11.489 39.8866C10.8975 42.1955 6.00018 57.9549 5.30057 59.0158L3.22446 59.0328H3.23015ZM5.78404 36.0743H36.3454L36.3738 38.0996H5.69303L5.78404 36.0743ZM27.6371 23.9115C31.5049 22.5273 33.0464 28.1889 29.7018 29.3519C25.7999 30.7077 24.4064 25.0688 27.6371 23.9115ZM1.87642 28.864C3.96959 29.783 4.83415 31.0027 7.9284 31.1332C16.6025 31.4963 17.6036 21.977 24.2585 24.5923C24.1902 26.8615 23.411 27.6557 25.0776 29.7036C27.8988 33.1641 32.2557 29.8965 32.2557 29.8908C32.6937 29.8114 34.0816 30.3503 34.8381 30.4184C37.665 30.6567 38.2906 29.749 40.1677 28.8356V36.1935C36.334 36.1935 39.013 34.8263 36.6411 34.3441L11.7393 34.293C2.55898 34.293 5.20956 34.1512 3.64537 36.1935H1.87642V28.864ZM1.87642 9.42278L10.0671 9.45682C11.5857 9.92768 10.0784 11.3232 12.9281 11.3232H29.116C30.555 11.3232 30.7484 11.102 31.2376 10.2227C31.8121 9.19019 30.9248 9.64403 32.1875 9.41711L40.1677 9.42278C40.1677 12.0437 40.2701 14.9029 35.4524 15.5609C32.3752 15.9807 30.4697 14.7894 27.694 14.7213C24.9638 14.6533 22.8194 15.5496 20.7547 16.6161C19.3782 17.3252 16.3352 18.9817 15.8631 20.2127C16.4489 21.5402 17.0917 21.0807 18.0871 20.3773C26.9603 14.1257 28.3197 17.2969 33.8711 17.4217C37.2384 17.4954 38.029 16.5934 40.1165 15.5212L40.1677 24.0136C40.1677 28.0585 36.9654 29.0796 33.1715 28.2457C33.4047 26.0275 33.5014 24.9043 32.0794 23.4293C31.1125 22.4252 29.5085 21.6253 27.6201 22.0394C26.6417 22.255 25.9307 22.9131 25.4814 22.9868C24.3324 23.174 22.1312 20.9502 18.2293 23.5995C15.8801 25.1936 16.6196 25.0688 14.9587 26.5097C9.4357 31.3034 5.92055 29.3689 1.89917 26.4927L1.91055 21.4154C2.83768 21.8012 3.61693 22.5443 4.84553 23.0492C9.07736 24.7852 14.5321 23.6903 14.2136 22.1869C13.8837 20.6269 11.8189 21.9714 10.5505 22.1189C6.72255 22.5727 1.87642 20.2468 1.87642 17.8301V9.41711V9.42278ZM12.3309 7.51667H29.6677L29.827 9.54192H12.3707L12.3309 7.51667ZM20.1575 1.80967H21.9947L22.0345 5.74103H19.9868L20.1632 1.80967H20.1575ZM18.2179 5.73536C16.9438 5.73536 12.3479 5.45171 11.3924 6.09843L10.306 7.64148C8.48013 7.64148 6.6543 7.64148 4.82847 7.64148C-1.03012 7.6358 0.0847196 7.1536 0.0847196 19.498V35.8871C0.226918 38.2074 1.58634 37.9691 3.63969 37.9691C3.6795 38.0202 3.71932 38.0429 3.73638 38.128C3.75344 38.2414 3.88995 38.3946 3.91839 38.4513C4.14591 38.8768 4.33361 39.376 4.85691 39.6426C5.58496 40.0171 6.42678 39.7958 7.34254 39.9887C6.47797 42.672 0.852592 59.1746 1.23368 60.5985C2.42246 60.9616 6.22201 61.4098 6.95576 60.071L8.58251 55.0447C8.82709 54.2902 9.94762 49.5646 10.7837 49.3774H18.2805C18.2179 51.7317 17.9506 58.908 18.4056 60.5645C18.7981 60.7007 23.5191 61.9033 23.8262 59.6058L23.8205 49.3774H31.2547C31.9884 49.5419 32.068 50.6312 32.4833 51.97L34.7698 59.186C34.8267 59.3902 34.9291 59.7533 35.003 59.9064C35.8164 61.631 40.2985 60.746 40.8047 60.5929C41.1915 59.1463 35.5434 42.6323 34.6959 39.983C36.954 39.5122 36.9426 40.556 38.2053 38.2811L38.3987 37.9634C42.7102 37.9634 41.948 37.5209 41.948 30.651C41.948 28.1492 42.1471 9.6497 41.766 8.76472C41.146 7.32946 39.1666 7.6358 37.4431 7.6358C35.5377 7.6358 33.6322 7.6358 31.7324 7.6358C31.6926 7.59042 31.6471 7.44859 31.6358 7.48263C31.5675 7.66417 31.5277 5.75805 28.8942 5.71834C27.2219 5.68998 25.5041 5.72969 23.8262 5.72969C23.8262 2.4961 24.7363 0 21.0277 0C17.3192 0 18.2293 2.4961 18.2293 5.72969L18.2179 5.73536Z" fill="#00A0E3"/>
<path fill-rule="evenodd" clip-rule="evenodd" d="M8.7759 17.9265C8.36637 16.5594 9.03755 15.8956 10.4937 16.3041L10.3685 17.9776L8.7759 17.9265ZM9.02617 14.3639C5.37451 15.1468 6.52916 20.5872 10.1581 19.81C13.6334 19.0611 12.6778 13.5867 9.02617 14.3639Z" fill="#00A0E3"/>
</g>
</svg>
