<svg width="62" height="62" viewBox="0 0 62 62" fill="none" xmlns="http://www.w3.org/2000/svg">
<g id="Vector">
<path fill-rule="evenodd" clip-rule="evenodd" d="M5.81626 51.7042V49.2823H8.23813C9.54106 49.2823 10.7802 48.0432 10.7802 46.7403V45.7716H18.41C18.41 46.8342 18.3499 47.7804 19.2361 48.5764C20.2987 49.5302 21.7518 49.2823 23.3739 49.2823C23.3739 52.7481 23.4715 54.9409 20.7418 57.6707C15.3836 63.0288 5.81626 59.0825 5.81626 51.7042ZM13.8291 61.9962H13.8028C9.89026 61.9925 5.3056 58.4254 4.35938 54.3664C2.67345 54.3664 2.29797 54.3551 1.27665 53.5741C0.0112646 52.6054 -0.398014 50.7092 0.506904 49.1772C1.45688 47.5739 1.45312 49.5302 1.45312 45.7641C0.690891 45.749 0.00375485 45.152 0 44.4348V43.1957C0.0300388 41.9003 0.262839 41.2582 1.81735 40.4359C1.81735 37.9953 1.88869 36.6248 3.54833 34.6572C4.56214 33.4557 6.53343 32.3217 8.71875 32.3217H20.4639C22.653 32.3217 24.6205 33.4557 25.6343 34.6572C26.145 35.2618 26.7458 36.2155 27.0199 37.0265C27.3841 38.1079 27.3653 38.9678 27.3653 40.4359C27.861 40.6988 28.2965 40.864 28.6307 41.3484C29.3516 42.3922 29.8135 45.7152 27.7258 45.7641V47.9419C27.7258 48.2498 30.1589 50.0859 28.7696 52.4965C27.7896 54.2012 26.7345 54.3589 24.8195 54.3589C24.3427 56.409 22.7844 58.4367 21.3463 59.6044C18.9469 61.5532 17.0282 61.985 13.8216 61.9887L13.8291 61.9962ZM25.1913 52.5528L25.3114 49.2823C27.3465 49.2823 27.8046 51.3137 26.6256 52.1698C26.2351 52.4552 25.8559 52.5491 25.1913 52.5491V52.5528ZM1.94125 51.0997C1.94125 49.8906 2.64717 49.2823 3.87875 49.2823L3.99891 52.5528C3.08273 52.5528 1.94125 52.1586 1.94125 51.0997ZM20.2274 46.2559V45.7716H25.7958V47.465H21.4364C20.569 47.465 20.2274 47.1195 20.2274 46.2522V46.2559ZM7.87767 47.4688H3.39813V45.7753H8.96657V46.1395C8.96657 46.9281 8.66243 47.4725 7.87767 47.4725V47.4688ZM12.3572 41.0517C12.3572 42.5199 13.4423 42.1406 15.7478 42.1406H24.2225C26.9973 42.1406 27.3691 41.8778 27.3691 43.958H1.81735C1.81735 41.7877 2.06892 42.1406 5.57219 42.1406C6.42078 42.1406 7.26938 42.1369 8.11422 42.1406C9.08673 42.1444 9.77762 42.2458 9.9203 41.4047C10.1606 40.0116 9.69126 37.9878 10.078 36.5985C10.8815 33.7072 13.6188 34.2705 16.3448 34.2705C17.9895 34.2705 19.2511 35.8775 19.2511 37.7813V40.3233H13.0744C12.7815 40.3233 12.3497 40.7588 12.3497 41.048L12.3572 41.0517ZM19.987 34.2705C21.6579 34.2705 22.7581 34.4845 24.016 35.6898C25.2701 36.8914 25.5555 38.3482 25.5555 40.327H21.0759C21.0759 38.3933 21.3688 36.5271 20.3888 34.8375C20.2011 34.5145 20.1635 34.5371 19.9833 34.2742L19.987 34.2705ZM8.12173 37.0566V40.327H3.6422C3.6422 37.5522 4.36313 35.7236 6.78876 34.6347C7.58854 34.278 8.06541 34.2742 9.21064 34.2742C9.03416 34.5408 8.99285 34.5183 8.80511 34.8375C8.68496 35.044 8.5648 35.2955 8.48219 35.4833C8.29821 35.8963 8.12173 36.4558 8.12173 37.0566Z" fill="#00A0E3"/>
<path fill-rule="evenodd" clip-rule="evenodd" d="M55.0986 58.8497C55.9059 57.6406 56.6681 57.3703 57.558 54.8921C57.7833 54.265 57.4754 54.3702 59.2177 54.3702C59.2177 59.105 59.4692 58.8497 55.1024 58.8497H55.0986ZM62 50.758V51.2649C61.9737 51.6779 61.8798 52.0722 61.7221 52.3951C60.9186 54.0435 61.0275 51.9971 61.0312 56.4278C61.0312 57.896 61.1063 58.1137 60.5431 59.09C60.1751 59.7246 59.6682 60.1827 58.9023 60.4755C57.543 60.9975 54.6405 60.5168 52.917 60.667C52.3275 60.7196 51.4489 61.3279 50.6604 61.5607C49.8869 61.786 49.0195 61.9962 48.0883 62H48.0057C45.1107 61.9962 44.8329 61.8536 42.5011 60.7909C41.3859 60.284 37.6461 61.1552 35.9451 60.4455C32.5057 59.0111 34.5934 54.8545 33.8049 53.2625C33.5495 52.7518 32.9375 52.5979 32.9375 50.8594C32.9375 48.8731 33.9325 49.5977 33.91 47.7166C33.8912 46.1621 33.9175 45.2008 34.2179 43.9092C34.8863 41.0329 36.775 38.0103 38.9866 36.3281C39.2006 36.1667 39.3696 36.0352 39.6174 35.87C39.7788 35.7649 40.1093 35.5772 40.2069 35.4908C40.6988 35.059 40.4998 33.91 41.3033 32.9525C41.6675 32.5207 42.3284 32.1152 42.9704 32.134C43.9767 32.1602 44.938 33.0689 45.6514 33.5458C46.2447 33.4069 46.6164 33.0614 47.3448 33.0614C48.5164 33.0614 48.4675 33.3543 49.2823 33.5458C49.9958 33.0689 50.9532 32.1602 51.9633 32.134C52.9921 32.1077 53.6605 32.9901 53.683 33.0201L54.1636 33.9926C55.0085 36.1817 53.6492 34.5408 55.9247 36.3469C59.5256 39.2043 61.0763 42.993 61.0237 47.7166C61.0087 48.8956 61.0688 48.5426 61.5382 49.2598C61.8085 49.6691 61.9587 50.2135 61.9963 50.7618L62 50.758ZM35.7236 54.3702C38.2506 54.3702 36.3769 54.081 38.9415 57.8134C39.2644 58.2865 39.5573 58.4329 39.8389 58.8534C37.5485 58.8534 35.7236 59.3228 35.7236 56.9159V54.3702ZM38.6298 50.8594V49.4062C41.1231 49.4062 42.625 49.4701 44.784 48.0545C45.5425 47.5551 47.1083 46.0607 47.3486 45.167H47.5889C47.8292 46.0607 49.395 47.5551 50.1535 48.0545C52.3125 49.4701 53.8182 49.4062 56.3077 49.4062C56.3077 52.8795 56.1199 55.1136 53.7957 57.4304C53.0259 58.1963 52.275 58.8722 51.2236 59.3378C45.2647 61.9775 38.6298 57.9711 38.6298 50.8594ZM58.125 52.5528V49.4062C60.8435 49.4062 60.8435 52.5528 58.125 52.5528ZM34.7548 50.9795C34.7548 50.0558 35.6335 49.4062 36.8125 49.4062V52.5528C35.6297 52.5528 34.7548 51.8995 34.7548 50.9795ZM39.7188 47.5889H35.7236C35.7236 45.0394 36.2267 43.3084 37.0941 41.5736C37.8789 40.0041 39.1893 38.4609 40.5673 37.5372C40.6837 38.919 41.7764 40.4922 43.4661 40.0792C45.137 39.6699 45.0168 38.4308 46.2597 38.979C48.1972 39.8352 48.7191 38.4346 49.5564 38.949C50.4126 39.4747 51.9032 41.0104 53.4765 39.5423C53.8933 39.1518 54.3176 38.2281 54.3739 37.5334C57.5468 39.6587 59.2177 43.5374 59.2177 47.5852C57.0361 47.5852 53.8557 47.8142 52.0722 46.9806C51.7493 46.8304 51.2574 46.515 50.9457 46.2897C49.8606 45.4937 49.012 44.2696 48.6365 42.9066C48.3324 41.8027 48.7266 40.3195 47.4688 40.3195C46.2034 40.3195 46.6089 41.6225 46.286 42.8878C45.9443 44.2246 45.1145 45.4562 44.0631 46.2372C42.7865 47.1871 41.5436 47.5852 39.7188 47.5852V47.5889ZM46.2559 36.208C46.2559 34.5145 48.6778 34.6835 48.6778 36.0878C48.6778 37.7813 46.2559 37.6123 46.2559 36.208ZM50.3712 34.9989C50.9157 34.8525 51.325 34.2029 52.0647 34.0302C53.2287 35.7687 52.4552 37.1054 52.1848 38.2694C51.5916 38.2206 50.9007 37.5822 50.3675 37.3006C50.604 36.2906 50.4914 35.9639 50.3675 34.9989H50.3712ZM44.4386 35.8475C44.4386 36.7862 44.3785 36.5196 44.5588 37.3006C44.0256 37.5822 43.3384 38.2206 42.7414 38.2694C42.4786 37.1354 41.6976 35.7724 42.8616 34.0302C43.605 34.2029 44.0105 34.8525 44.555 34.9989C44.525 35.3782 44.4348 35.4307 44.4348 35.8475H44.4386Z" fill="#00A0E3"/>
<path fill-rule="evenodd" clip-rule="evenodd" d="M55.4628 27.0048C57.3064 24.2525 56.3189 26.0887 57.5805 23.3101C57.8209 22.7806 57.558 22.8895 59.2177 22.8895C59.2177 27.1062 59.4204 27.0048 55.4628 27.0048ZM46.5 0H48.5164C49.5151 0.0563227 50.2774 0.315407 51.2574 1.29918C53.1874 3.23668 51.2837 3.12779 53.2287 3.44319C54.2275 3.60465 55.5154 4.1078 56.2438 4.54712C57.2877 5.17793 57.6369 5.51211 58.4592 6.32691C61.3767 9.21814 61.0688 12.2408 61.0275 16.1083C61.0162 17.1934 61.0913 17.0357 61.5194 17.6741C61.7935 18.0871 61.9399 18.5039 62 18.9056V19.7918C61.8348 20.9783 61.0801 21.887 61.065 21.9471C60.9674 22.3 61.0312 24.4178 61.035 24.9434C61.0388 26.3477 60.9975 26.5918 60.4079 27.4667C58.6657 30.0538 54.8132 28.0712 52.8382 29.0963C49.1096 31.03 45.8204 31.0225 42.1068 29.0963C40.7363 28.3829 37.7963 29.1001 36.2981 28.7283C35.4457 28.518 34.9125 28.0262 34.4882 27.3916C33.2867 25.5968 34.3268 23.1073 33.8499 21.857C33.5608 21.1022 32.945 21.2825 32.945 19.1309C32.945 18.4964 33.1891 18.0157 33.4744 17.6027C33.9513 16.9118 33.925 17.0883 33.9138 15.9844C33.9025 14.7378 33.8236 13.0744 33.9175 11.8728C34.1653 8.6399 36.253 5.94767 38.7913 4.51708C39.6699 4.02144 40.7213 3.58212 41.8215 3.42817C42.9892 3.26672 42.4373 3.39438 42.8728 2.42187C43.3872 1.27289 44.8666 0.00375485 46.5038 0H46.5ZM35.7273 25.0673V22.8895C37.785 22.8895 36.8313 22.4652 38.1079 24.9885C38.5322 25.8258 39.0128 26.3064 39.4822 27.0048C37.2931 27.0048 35.7273 27.3578 35.7273 25.0673ZM58.1288 21.0722V17.8017C59.3115 17.8017 60.1113 18.3387 60.1489 19.39C60.1864 20.4939 59.3153 21.0722 58.1288 21.0722ZM36.8163 17.8017V21.0722C35.6335 21.0722 34.8337 20.5352 34.7962 19.4839C34.7586 18.38 35.6297 17.8017 36.8163 17.8017ZM35.7273 15.9844C35.7273 14.1032 35.5959 11.7414 36.2605 10.1005C36.6135 9.23316 37.1504 8.32074 37.755 7.71996C39.1405 6.34569 40.8039 5.20797 42.993 5.20797H51.952C52.9846 5.20797 54.3101 5.63602 55.0197 6.01526C57.6707 7.43459 59.2177 9.96911 59.2177 13.4423V15.9844C53.2587 15.9844 56.5855 16.0557 55.0535 13.8516C54.1674 12.575 51.2236 12.7515 51.2236 13.8066C51.2236 15.1133 52.2637 14.8955 53.5253 14.8955C53.5816 15.1433 53.5779 17.8017 55.4628 17.8017H56.3114C56.3114 21.2599 56.1612 23.5954 53.7994 25.946C47.9832 31.7284 38.6336 27.7896 38.6336 19.375V17.8017C39.6549 17.8017 40.098 17.7679 40.7851 16.9231C41.292 16.2998 41.1043 15.729 41.2995 14.8955L47.7241 14.903C49.3537 14.8805 49.425 12.958 47.3523 12.958H42.1444C41.1493 12.958 40.267 13.2058 39.8201 13.7803C38.9227 14.9368 39.7676 15.9844 38.8777 15.9844H35.7273ZM46.9881 1.81735H47.9569C49.241 1.81735 49.9319 2.42938 50.3788 3.27047H44.5663C45.0131 2.42938 45.704 1.81735 46.9881 1.81735Z" fill="#00A0E3"/>
<path fill-rule="evenodd" clip-rule="evenodd" d="M5.81625 20.2236V17.8017C7.94901 17.8017 8.35828 16.7053 8.35828 14.8955C10.048 14.8955 19.6679 15.0907 20.8319 14.5313C20.8319 15.485 20.8206 16.0782 21.1698 16.7353C21.703 17.7454 22.5328 17.798 23.3739 17.798C23.3739 21.2637 23.4715 23.4565 20.7418 26.1863C15.3836 31.5445 5.81625 27.5981 5.81625 20.2198V20.2236ZM0.00375485 19.5027V19.4952C0.00750969 17.2272 1.46439 17.475 1.46439 15.9956C1.46439 14.3773 1.45312 12.759 1.45312 11.1406C1.45312 6.34569 5.92515 6.58975 6.50715 6.38324C7.74249 5.94767 7.68241 5.1892 9.13929 4.04772C10.1569 3.2517 10.8515 2.74104 12.0343 2.09896C13.5888 1.25412 20.9971 -1.01381 23.2237 1.00254C23.6518 1.38929 23.9822 2.00133 23.9822 2.78609C24.5567 2.73728 24.8984 2.54578 25.5555 2.54578C29.5394 2.54578 31.5069 7.42333 29.1639 10.2733C28.8072 10.7088 28.6682 10.8064 28.2477 11.1707C27.9323 11.4448 27.4629 11.7001 27.2527 11.9892C27.3465 12.3872 27.4291 12.4135 27.5455 12.9054C27.9323 14.5087 27.6507 14.7828 27.7258 16.236C27.7558 16.8029 27.8046 16.7429 28.1238 17.047C29.1451 18.0195 29.5394 19.6979 28.7771 21.0234C27.7971 22.7281 26.742 22.8858 24.827 22.8858C24.3502 24.9359 22.7919 26.9635 21.3538 28.1313C18.9507 30.0838 17.0282 30.5156 13.8066 30.5156C9.89402 30.5156 5.3056 26.9448 4.36313 22.8858C2.6772 22.8858 2.30172 22.8745 1.2804 22.0935C0.642079 21.6054 0.00750969 20.554 0.00375485 19.4989V19.5027ZM25.1913 21.0722L25.3114 17.8017C27.861 17.8017 28.0299 21.0722 25.1913 21.0722ZM1.94125 19.6191C1.94125 18.41 2.64717 17.8017 3.87875 17.8017L3.99891 21.0722C3.08273 21.0722 1.94125 20.6779 1.94125 19.6191ZM22.7694 14.0506C23.8583 13.9605 24.812 13.1607 25.6756 12.9617C25.6869 13.5099 25.7958 13.4423 25.7958 14.0506V15.9881C22.6868 15.9881 22.7694 16.2322 22.7544 15.2747C22.7506 14.8805 22.7694 14.4524 22.7694 14.0506ZM6.06032 15.9881H3.39438V10.66C3.39438 8.16303 6.29688 8.44465 7.00654 8.2156C9.48849 7.42333 9.42466 4.98643 14.3097 3.16909C16.9043 2.20409 18.5865 2.18156 21.3163 2.18156C22.3113 2.18156 22.0409 2.91751 22.2925 3.62718C22.9158 5.37694 24.613 4.48328 25.6756 4.48328C27.7708 4.48328 29.5994 7.49843 27.1025 9.66497C25.5029 11.0543 23.4152 12.0606 20.9783 12.6238C17.4 13.4499 9.297 12.5637 7.80257 13.1307C7.26187 13.3372 6.84884 13.739 6.6273 14.2534C6.19925 15.2447 6.72493 15.9844 6.05657 15.9844L6.06032 15.9881Z" fill="#00A0E3"/>
<path fill-rule="evenodd" clip-rule="evenodd" d="M43.4736 24.0986C43.4736 25.21 45.8542 26.1563 47.833 26.1563C49.042 26.1563 51.4639 25.0899 51.4639 24.0986C51.4639 23.6781 50.9157 23.1298 50.4952 23.1298C49.8981 23.1298 48.3211 25.1312 45.8467 23.9033C45.4336 23.6968 44.8253 23.1298 44.4386 23.1298C44.018 23.1298 43.4698 23.6781 43.4698 24.0986H43.4736Z" fill="#00A0E3"/>
<path fill-rule="evenodd" clip-rule="evenodd" d="M10.66 24.0986C10.66 25.2401 13.1157 26.1562 14.1708 26.1562C15.4249 26.1562 16.0257 26.1337 17.0958 25.5705C18.9732 24.583 18.793 23.5654 17.9294 23.2312C16.9456 22.8482 16.7166 24.2413 14.6401 24.2938C13.8216 24.3164 12.9617 23.9784 12.406 23.5617C11.2533 22.6943 10.6562 23.479 10.6562 24.0986H10.66Z" fill="#00A0E3"/>
<path fill-rule="evenodd" clip-rule="evenodd" d="M10.66 55.4591V55.8233C10.66 56.5893 12.9805 57.6406 14.0506 57.6406H15.0194C16.8067 57.6406 19.3525 56.1011 18.2936 54.9747C17.1822 53.7919 16.0745 56.8784 12.9993 55.4253C12.4924 55.185 11.6851 54.3213 10.9641 54.9146C10.8703 54.9935 10.6638 55.2901 10.6638 55.4628L10.66 55.4591Z" fill="#00A0E3"/>
<path fill-rule="evenodd" clip-rule="evenodd" d="M46.9881 57.6406C48.4525 57.6406 49.2072 57.6181 50.5703 56.7432C50.9119 56.5217 51.3362 56.2288 51.4226 55.7782C51.5578 55.0648 50.773 54.2162 49.6353 55.0798C49.3161 55.3201 49.4288 55.2826 49.0383 55.4516C47.7316 56.0148 46.4324 55.9322 45.3135 55.0798C44.2471 54.2688 43.4548 54.9634 43.5149 55.6881C43.5975 56.7019 45.9555 57.6406 46.9919 57.6406H46.9881Z" fill="#00A0E3"/>
<path fill-rule="evenodd" clip-rule="evenodd" d="M41.7802 19.4952C41.7802 20.0246 41.5323 21.9546 42.9216 21.6166C44.0669 21.3388 43.7327 19.3375 43.5187 18.9732C43.0418 18.1659 41.7839 18.4926 41.7839 19.4989L41.7802 19.4952Z" fill="#00A0E3"/>
<path fill-rule="evenodd" clip-rule="evenodd" d="M41.7802 50.9795C41.7802 51.7305 41.5849 53.1573 42.6288 53.1573C44.1945 53.1573 43.9955 50.0108 42.7489 50.0108C42.1632 50.0108 41.7802 50.3938 41.7802 50.9795Z" fill="#00A0E3"/>
<path fill-rule="evenodd" clip-rule="evenodd" d="M51.2236 51.3438C51.2236 54.0585 53.1611 53.27 53.1611 52.1923C53.1611 51.3851 53.3864 50.0145 52.1923 50.0145C51.5803 50.0145 51.2236 50.6716 51.2236 51.3475V51.3438Z" fill="#00A0E3"/>
<path fill-rule="evenodd" clip-rule="evenodd" d="M51.2236 19.8594C51.2236 22.5366 53.1611 21.7668 53.1611 20.5841C53.1611 19.4952 53.3639 18.5264 52.0722 18.5264C51.8094 18.5264 51.5465 18.7667 51.4264 18.9695C51.2987 19.1873 51.2236 19.5402 51.2236 19.8556V19.8594Z" fill="#00A0E3"/>
<path fill-rule="evenodd" clip-rule="evenodd" d="M8.96282 50.7355C8.96282 51.6892 8.69998 53.1573 9.81141 53.1573C11.0017 53.1573 10.7802 51.9107 10.7802 50.9795C10.7802 49.5865 8.96282 49.9169 8.96282 50.7355Z" fill="#00A0E3"/>
<path fill-rule="evenodd" clip-rule="evenodd" d="M18.41 50.9795C18.41 51.7305 18.2148 53.1573 19.2586 53.1573C20.509 53.1573 20.2274 51.9295 20.2274 50.7355C20.2274 49.9094 18.41 49.5865 18.41 50.9795Z" fill="#00A0E3"/>
<path fill-rule="evenodd" clip-rule="evenodd" d="M18.41 19.4952V20.7042C18.41 21.9583 20.2274 21.8156 20.2274 20.9483C20.2274 19.9082 20.4864 18.5264 19.3788 18.5264C18.793 18.5264 18.41 18.9094 18.41 19.4952Z" fill="#00A0E3"/>
<path fill-rule="evenodd" clip-rule="evenodd" d="M8.96282 19.2548V20.9483C8.96282 21.8194 10.7802 21.9583 10.7802 20.7042C10.7802 19.5214 10.9979 18.5264 9.69125 18.5264C9.39838 18.5264 8.96657 18.962 8.96657 19.2548H8.96282Z" fill="#00A0E3"/>
</g>
</svg>
