<svg width="39" height="30" viewBox="0 0 39 30" fill="none" xmlns="http://www.w3.org/2000/svg">
<path id="Vector" fill-rule="evenodd" clip-rule="evenodd" d="M3.88503 8.03614C3.88503 10.5172 4.53126 12.2617 5.63689 14.3117C4.60553 14.9891 4.62965 14.6054 3.6113 14.8652C2.58147 15.128 2.14657 15.9664 1.55623 16.7343C1.35027 17.002 1.19215 17.1946 1.00533 17.4642C0.566599 18.0961 0.152369 18.523 0.152369 19.4666C0.152369 20.103 0.705952 20.7218 1.05854 21.0432C1.07003 21.0537 1.08687 21.0683 1.09836 21.0788C1.37362 21.3387 1.45134 21.5215 1.45172 21.9274C1.45248 22.3513 1.44751 22.7771 1.44751 23.2017C0.146627 23.4991 0.0114851 23.8907 0 24.8609V25.4429C0 26.1736 0.575787 26.718 0.971258 27.1051C1.50838 27.6312 1.91265 28.1324 2.81845 28.1324C3.7319 28.1324 5.17979 26.5663 5.17979 25.7418V25.5176C6.29346 25.5176 6.25518 25.708 7.06488 26.5078C7.90023 27.3327 8.43237 27.3109 9.59773 27.3109C11.0039 27.3109 10.672 25.8818 11.0659 25.613C11.2772 25.4692 11.7703 25.5176 12.1114 25.5176C12.2473 26.0902 12.3174 26.5491 12.8733 26.8622C13.3599 27.1367 14.0635 26.8746 14.3989 27.5324C14.632 27.9894 14.3246 28.5357 14.8503 29.2562C15.1075 29.6091 15.7074 30 16.3008 30C17.5248 30 18.112 28.6554 18.586 28.6554C19.0316 28.6554 19.2521 29.2532 20.2617 29.2532C21.4446 29.2532 22.1437 27.6845 22.6992 27.6845C23.1295 27.6845 23.3094 28.4317 24.2225 28.4317C25.2336 28.4317 26.1612 28.4666 26.5788 27.3807C26.7527 26.9294 26.428 25.2939 26.9648 25.2939C27.2121 25.2939 27.856 26.0557 28.0501 26.2464C28.4647 26.6534 28.6347 26.9414 29.369 27.0499C30.3299 27.1915 30.8613 26.5363 31.4007 25.9836C31.7253 25.6509 31.6147 25.6385 32.0684 25.7422C32.0684 26.5701 32.0021 27.1716 32.3183 27.7382C33.1342 29.2006 35.801 29.0857 35.801 26.4143C35.801 24.5215 35.3941 23.8889 34.1824 22.6975C33.6943 22.2173 33.4129 21.9593 32.5733 21.8103C31.9049 21.6916 30.8498 21.9593 30.8498 20.9606C30.8498 19.8833 32.1445 19.7512 32.1445 18.5699C32.1445 17.9489 31.8352 17.736 31.9922 17.076C32.8735 16.8747 32.9309 17.3726 33.6112 18.0281C33.8796 18.2868 33.9802 18.2921 34.053 18.7153C34.3233 20.2836 35.1184 20.4266 36.5625 20.6621C37.3304 20.7871 37.8932 20.9459 38.5238 20.4191C38.8151 20.1758 38.9613 19.8863 39 19.5867V19.2465C38.9472 18.8125 38.7014 18.3841 38.3721 18.0653C38.0314 17.7353 37.7075 17.3001 37.1716 17.3001C36.9564 17.3001 36.7145 17.6117 36.7145 17.8231C36.7145 18.4295 37.4813 18.6807 37.7596 19.1241C38.3461 20.0587 35.8871 19.375 35.7195 19.322C35.1383 19.1392 35.2719 18.2696 34.9902 17.7961C34.7873 17.4548 34.1835 16.9472 33.8773 16.6464C33.5381 16.3138 33.0886 15.8061 32.4489 15.8061C31.5075 15.8061 30.697 16.4977 30.697 17.3748C30.697 17.9485 30.9256 18.1588 30.9256 18.645C30.9256 18.93 29.8372 19.5559 29.6974 20.6591C29.5784 21.5959 30.032 22.3258 30.7468 22.7057C31.6495 23.1856 32.5408 22.6705 33.2915 23.4225C33.5614 23.6925 33.8007 24.0135 34.0687 24.3037C34.7321 25.0231 34.5821 25.925 34.5821 26.8633C34.5821 27.6871 33.4014 27.7329 33.2919 26.9335C33.1966 26.2374 33.4362 25.518 32.8643 24.9623C32.5312 24.6387 32.1564 24.5474 31.6874 24.5474C30.5573 24.5474 30.333 25.892 29.4785 25.892C28.7851 25.892 28.1247 23.7548 26.5256 24.1892C24.4725 24.7472 26.5991 27.3113 24.6034 27.3113C23.7547 27.3113 23.8944 26.5641 22.5468 26.5641C21.1939 26.5641 20.7578 28.6817 19.7387 27.8996C17.8371 26.4402 17.1879 28.8053 16.3004 28.8053C15.3874 28.8053 15.8778 27.4269 15.2549 26.6929L15.0378 26.4574C14.7258 26.1533 14.4245 25.969 13.9468 25.8841C13.3863 25.7842 13.4127 25.9509 13.3139 25.4587C13.2599 25.1891 13.1394 24.9469 12.9632 24.7566C12.4606 24.2129 10.1551 24.0165 9.73746 25.5807C9.56442 26.2288 9.72636 26.1901 9.06405 26.1901C7.45078 26.1901 7.44657 24.3225 5.71231 24.3225C4.33104 24.3225 4.26213 24.6604 3.99108 25.6975C3.90724 26.0174 3.01101 27.0559 2.66531 27.012C2.58645 27.0019 1.142 25.9727 1.142 25.1444C1.142 23.8675 1.35371 24.734 2.14772 24.1138C2.81232 23.5945 2.66531 22.5589 2.66531 21.7825C2.66531 20.1927 0.671879 20.0061 1.5658 18.6871L2.94899 16.8311C3.23765 16.4512 3.26943 16.2593 3.75104 16.049C4.24145 15.8354 5.13499 15.9492 5.764 15.6326C5.99791 15.5148 6.05036 15.4198 6.32141 15.3578C6.39261 15.6199 6.59399 15.838 6.75707 16.0513C7.02276 16.3986 7.39258 17.1315 7.81907 17.2562C8.39256 17.4236 8.53038 16.9442 8.53038 16.5533C8.53038 16.3487 7.41632 14.9729 7.23907 14.682C5.90718 12.4945 4.71885 10.0205 5.13231 7.31825C5.6411 3.99158 8.09739 1.16317 11.8821 1.16317C13.0249 1.16317 14.271 1.43764 15.1324 1.86004C15.5596 2.06955 15.8717 2.25917 16.2254 2.5066C17.8406 3.63714 19.0427 6.00635 19.0427 8.40974C19.0427 11.9452 16.7269 15.3206 14.454 17.7304C13.8955 18.3225 12.6623 19.577 12.0345 19.9892C11.5188 19.6506 11.0831 19.1684 10.6444 18.7378C10.4296 18.5271 10.2061 18.2024 9.90476 18.113C9.53609 18.0037 9.13985 18.3064 9.13985 18.6443C9.13985 19.179 10.9361 20.6091 11.4801 21.0559C12.1229 21.5838 12.6486 20.9865 13.1773 20.587C14.5807 19.5266 18.3678 15.2707 18.738 13.7136C20.3091 13.7136 19.2892 13.8278 19.8329 14.8066C20.393 15.8151 21.9569 15.5816 23.0039 15.5816C24.4495 15.5816 25.2481 13.6855 26.3388 13.0997C26.6994 12.906 26.9912 13.0025 27.3667 12.9124C28.6883 12.5955 29.5994 10.7493 30.5944 10.3254C31.5795 9.90561 31.7694 10.6126 33.1162 9.28721C33.3244 9.0822 33.4806 8.93277 33.6866 8.72626C34.8937 7.51424 34.2287 9.33114 34.7842 10.3036C35.1521 10.9479 35.5728 11.0144 35.5728 11.9955C35.5728 13.1204 34.2019 13.2638 34.2019 14.9838C34.2019 15.5756 34.8631 16.6385 35.4859 16.5867C35.7283 16.5664 36.0299 16.274 36.0299 16.1046C36.0299 15.3146 35.4205 15.713 35.4205 14.685C35.4205 13.9351 36.7152 13.6066 36.7152 12.2196C36.7152 11.4435 36.7351 10.9183 36.2604 10.2751C35.9607 9.86956 35.7585 9.8628 35.6655 9.21474C35.5652 8.51637 35.7918 8.43414 35.4484 7.85892C35.1119 7.29572 34.5828 7.21387 33.9733 7.21387C32.9665 7.21387 32.4531 8.83815 31.3218 9.021C30.5098 9.15204 30.1852 9.11262 29.5853 9.55905C28.9425 10.0374 27.9299 11.4402 27.2741 11.7004C27 11.8092 26.6589 11.798 26.3116 11.8768C25.9943 11.9489 25.7646 12.0781 25.5379 12.2384C25.1306 12.5268 23.4331 14.3857 23.1571 14.3857C19.504 14.3857 21.5928 14.4965 20.5714 13.1114C20.3313 12.7855 19.9213 12.5178 19.3482 12.5178C20.4538 10.2574 20.4799 6.89997 19.3995 4.62312C17.4604 0.536135 12.8576 -1.01268 8.71529 0.669803C7.79533 1.0434 6.99711 1.65841 6.30226 2.33764C5.60742 3.01686 5.04809 3.87331 4.64764 4.74891C4.27514 5.56255 3.88503 6.86543 3.88503 8.03539V8.03614ZM8.22679 10.2026H15.8441C15.7779 10.4455 15.4272 10.8597 15.2549 11.044C13.4437 12.9803 9.61036 12.7671 8.22679 10.2026ZM11.6547 3.62813H12.3404C13.8817 3.62813 15.3097 4.72901 15.8445 5.71987C14.067 5.71987 13.1784 5.4668 13.1784 6.46706C13.1784 6.69497 13.4724 6.8658 13.6501 6.90072L16.3774 6.91537C16.6764 8.17394 16.4528 8.19422 16.3774 9.08183H7.76968C7.46111 8.45141 7.68354 7.35504 7.69349 6.91537H11.0452C11.4135 6.91537 11.6547 6.6792 11.6547 6.31762C11.6547 5.63201 10.9756 5.71837 10.2838 5.71987C9.59811 5.72137 8.91245 5.71987 8.22679 5.71987C8.96681 4.63589 10.2447 3.62813 11.6547 3.62813ZM6.39874 7.96105C6.39874 10.9986 9.06099 13.4895 11.6547 13.4895C13.2492 13.4895 14.4693 13.2375 15.6749 12.2027C16.0642 11.8686 16.2893 11.6973 16.6381 11.2051C16.8464 10.9111 16.9474 10.7328 17.1147 10.4024C18.9233 6.83089 16.2782 2.43263 12.0352 2.43263C8.94308 2.43263 6.39836 4.92838 6.39836 7.96105H6.39874Z" fill="#00A0E3"/>
</svg>
