<svg width="36" height="38" viewBox="0 0 36 38" fill="none" xmlns="http://www.w3.org/2000/svg">
<path id="Vector" fill-rule="evenodd" clip-rule="evenodd" d="M27.2497 28.8366C28.4195 28.8366 27.864 30.7698 28.0041 32.4323C28.1031 33.6078 28.065 34.468 28.0797 35.6306C28.0854 36.0959 28.1662 36.1945 28.1662 36.6909H7.83293C7.83293 36.2122 7.90603 36.1326 7.91882 35.7119C7.95141 34.6412 7.86187 33.6021 7.98734 32.5065C8.17495 30.8673 7.54086 28.8366 8.74935 28.8366H27.2497ZM10.6665 30.8003C10.6665 31.6558 11.6652 31.4548 12.6666 31.4548C12.6666 31.9928 12.5408 32.7639 13.3333 32.7639C14.1257 32.7639 13.9999 31.9928 13.9999 31.4548H24.6665C25.561 31.4548 25.561 30.1457 24.6665 30.1457H11.3332C10.93 30.1457 10.6665 30.4044 10.6665 30.8003ZM9.99986 8.7918C9.99986 10.5019 11.6737 9.07736 11.8991 8.93831C12.2 8.75292 12.7238 8.49398 13.0713 8.37108C14.9699 7.69979 17.6056 7.89176 19.8328 7.89176C21.0404 7.89176 21.9449 8.03648 22.8656 8.35045C23.2478 8.48082 23.7199 8.71196 24.0488 8.90692C24.9698 9.45322 24.7648 9.6099 25.4994 9.6099C25.9414 9.6099 25.9995 9.10038 25.9995 8.7918C25.9995 8.10585 22.7593 6.58266 20.833 6.58266H15.1664C13.2331 6.58266 9.99986 8.10466 9.99986 8.7918ZM6.49988 36.5273C5.92823 36.4807 5.39982 35.8919 5.225 35.4063C5.02399 34.8484 5.16896 33.0205 5.1647 32.0254C5.16257 31.5018 5.24723 31.3577 5.25332 30.8852C5.26398 30.0318 5.23627 29.24 5.32124 28.4973C5.40439 27.771 5.27556 26.8799 5.33769 26.1407C5.40134 25.386 5.41261 24.631 5.41383 23.7608C5.41444 23.2549 5.50215 23.1269 5.50276 22.621L5.58316 19.0182C6.12101 19.2977 6.58272 19.6727 7.4166 19.6727H15.3333V21.7999C15.3333 22.3109 15.9796 22.9454 16.5001 22.9454H19.5C20.0204 22.9454 20.6667 22.3109 20.6667 21.7999V19.6727H28.5834C29.4173 19.6727 29.8787 19.2977 30.4168 19.0182C30.4168 19.8862 30.5049 20.5261 30.5006 21.3083C30.4985 21.7183 30.4997 22.1282 30.4982 22.5379L30.7482 30.7196C30.7461 31.2431 30.8307 31.3873 30.8368 31.8597C30.8472 32.6835 30.9446 34.8236 30.7829 35.3313C30.6647 35.7027 30.5658 35.8707 30.316 36.1003C30.1053 36.2938 29.8498 36.498 29.5001 36.5265C29.5001 34.64 29.4109 33.0253 29.4188 31.1247C29.4203 30.7276 29.3323 29.0062 29.1694 28.6698C28.9047 28.1238 28.3017 27.5267 27.5004 27.5267H8.50052C7.73121 27.5267 7.13549 28.0834 6.85926 28.6151C6.65551 29.0077 6.57998 30.6161 6.58211 31.1247C6.59003 33.0253 6.50079 34.64 6.50079 36.5265L6.49988 36.5273ZM31.9162 23.0277C32.789 23.2274 33.3592 23.5462 33.8608 24.1454C34.3779 24.7631 34.666 25.3749 34.666 26.4637V32.6817C34.666 33.6595 33.336 33.4182 32.2494 33.4182C32.2494 30.332 31.9162 26.1377 31.9162 23.0277ZM3.74972 33.4182C2.66306 33.4182 1.33305 33.6595 1.33305 32.6817V26.4637C1.33305 25.4213 1.60868 24.7772 2.10054 24.1899C2.65879 23.5234 3.21492 23.2259 4.08291 23.0274C4.08291 25.3534 3.83134 28.4718 3.83286 30.8C3.83347 31.782 3.74942 32.5056 3.74942 33.4182H3.74972ZM16.6663 17.7094H19.333V21.6366H16.6663V17.7094ZM15.333 17.5458V18.3639H7.91638C6.4877 18.3639 5.66631 17.5715 5.66631 16.1548C5.66631 14.3894 5.83046 12.8758 6.35613 11.596C6.64059 10.904 6.85743 10.4304 7.23234 9.83805C8.95767 7.11102 12.1513 5.27327 15.9994 5.27327C20.8181 5.27327 24.0759 4.85854 27.5634 8.31935C27.727 8.48142 27.7239 8.49338 27.8683 8.67458C28.2459 9.14912 28.288 9.10487 28.7342 9.78812C29.1021 10.3518 29.3411 10.8622 29.6189 11.5377C30.2292 13.022 30.3328 14.5437 30.3328 16.4819C30.3328 17.5643 29.3609 18.3636 28.0827 18.3636H20.6661V17.5455C20.6661 17.0345 20.0198 16.4 19.4993 16.4H16.4994C15.979 16.4 15.3327 17.0345 15.3327 17.5455L15.333 17.5458ZM30.4162 2.65538C30.4278 2.67183 30.4427 2.67901 30.447 2.70711L31.4931 6.91607C31.805 8.43776 31.985 9.88709 32.2137 11.5266C32.6569 14.7016 32.666 18.2383 32.666 21.8005C32.4239 21.7452 32.158 21.6923 31.9159 21.6369C31.7344 20.8724 31.9016 19.8928 31.8282 19.0232C31.7563 18.1707 31.8008 17.2465 31.7496 16.3186C31.7264 15.8961 31.6628 15.6333 31.6655 15.0921C31.6683 14.5365 31.6421 14.2237 31.5897 13.7758C31.4091 12.2332 30.9593 10.9304 30.2234 9.63532C29.5659 8.47783 29.6472 9.08842 29.8254 7.55775C29.9207 6.73815 30.0118 5.993 30.1296 5.15665L30.4156 2.65568L30.4162 2.65538ZM4.08321 21.6366C3.84109 21.692 3.57521 21.7449 3.33309 21.8002C3.33309 15.8459 3.54963 10.3799 4.98379 4.76674L5.58316 2.65538L5.85818 5.08519C5.96173 5.85486 6.07685 6.72769 6.1734 7.55746C6.34212 9.00469 6.46455 8.48859 5.79666 9.57402C3.90261 12.6512 4.43894 15.7616 4.17092 18.9413C4.096 19.8303 4.26808 20.8574 4.08321 21.6369V21.6366ZM15.9997 3.47349C15.9997 2.84347 16.2235 2.3163 16.5582 1.97662C17.8441 0.670813 19.9997 1.54932 19.9997 3.47349V3.96448H15.9997V3.47349ZM28.4996 7.31884C28.041 7.01713 27.6253 6.39727 25.9012 5.37015C25.504 5.13363 25.2384 5.05559 24.8328 4.86452L25.098 2.75226C25.3048 1.08973 25.1437 1.34629 28.4162 1.34629C29.1005 1.34629 29.1453 1.88601 29.0938 2.33125L28.6729 5.60757C28.6041 6.19932 28.4993 6.68612 28.4993 7.31884H28.4996ZM7.58319 1.34629C11.2845 1.34629 10.6492 0.983584 11.025 3.7761C11.0576 4.0177 11.1602 4.58494 11.1666 4.86422C9.65663 5.57558 9.67856 5.56122 8.33271 6.58177C8.02206 6.81709 7.80339 7.1194 7.50005 7.31884C7.50005 6.59702 7.03073 3.39395 6.91347 2.4069C6.86596 2.00652 6.81662 1.34629 7.58319 1.34629ZM2.00003 22.4547C0.902101 23.1766 0 24.5317 0 25.973V32.9272C0 33.8272 0.916416 34.7273 1.83344 34.7273H3.75003C3.75003 36.6 5.30388 38 6.83337 38H29.1666C30.6961 38 32.25 36.6003 32.25 34.7273H34.1666C35.0833 34.7273 36 33.8275 36 32.9272V25.973C36 24.5317 35.1046 23.1811 34 22.4547C34 20.3042 34.155 17.6316 33.9287 15.6521C33.8982 15.3851 33.9226 15.1115 33.9199 14.8427C33.9104 13.9092 33.4426 10.2402 33.319 9.37817C33.058 7.55925 32.2686 2.528 31.1813 1.16808C29.9935 -0.317137 27.7312 0.0368986 25.667 0.0368986C24.8346 0.0368986 24.0634 0.791616 23.8835 1.47666L23.5003 4.37323L21.3337 3.96418C21.3337 2.6204 21.2761 1.97901 20.6046 1.24373C19.7025 0.255778 19.0979 0.0371976 17.7503 0.0371976C16.6764 0.0371976 15.9768 0.636426 15.4362 1.20157C14.7327 1.93774 14.6669 2.5902 14.6669 3.96418L12.5003 4.37323L12.133 1.54304C11.9722 0.810155 11.195 0.0368986 10.3337 0.0368986C8.26906 0.0368986 6.00711 -0.317137 4.81933 1.16808C3.71104 2.55402 3.00508 7.50094 2.6792 9.37577L2.16632 14.0267C2.14896 14.3873 2.09232 14.3687 2.08105 14.7611C2.07252 15.0571 2.10511 15.3573 2.0716 15.6518C1.84562 17.6313 2.00034 20.3039 2.00034 22.4544L2.00003 22.4547Z" fill="#00A0E3"/>
</svg>
