<svg width="37" height="40" viewBox="0 0 37 40" fill="none" xmlns="http://www.w3.org/2000/svg">
<path id="Vector" fill-rule="evenodd" clip-rule="evenodd" d="M1.27002 29.7311C1.27002 29.611 1.32265 29.5837 1.34579 29.2825L1.51564 28.6286C1.53827 28.556 1.56522 28.4983 1.5881 28.4265C1.63616 28.2753 1.67989 28.158 1.76735 28.0571C1.76964 28.1649 1.76278 28.1195 1.80168 28.1976C1.8271 28.249 1.81388 28.2114 1.83677 28.2623C1.85482 28.3021 1.85126 28.3031 1.86423 28.3345C1.99441 28.6521 2.16196 28.7622 2.41368 28.9315C2.41368 29.1719 2.39486 31.3133 2.4241 31.4443C2.49148 31.7473 2.4536 31.8068 2.50064 31.992L2.64582 32.5706C2.66616 32.6403 2.64073 32.5611 2.67658 32.6395L2.92042 33.2439C3.06789 33.5443 3.37834 34.071 3.60463 34.3053C3.60819 34.3089 3.61353 34.3142 3.61709 34.3178C3.62065 34.3214 3.62599 34.3265 3.6298 34.3301L3.78363 34.5002C3.78719 34.504 3.79202 34.5094 3.79558 34.5132C3.79914 34.517 3.80422 34.5222 3.80778 34.526L4.08975 34.7924C4.31096 35.0026 4.34096 35.0121 4.55912 35.1702C5.04806 35.5243 5.02238 35.3015 5.18281 35.8425L5.27333 36.1762C5.3046 36.3481 5.31935 36.2857 5.34325 36.4055C5.38927 36.6347 5.52937 37.0286 5.59395 37.3029L5.74193 37.8038C5.77218 37.9579 5.74879 37.8473 5.7938 37.9515C5.83422 38.0447 5.80549 38.0396 5.83193 38.138C5.87058 38.282 5.93771 38.422 5.97279 38.621C5.99059 38.7222 5.99593 38.7025 6.04399 38.7745H1.7671C1.66972 38.7745 1.56191 38.7796 1.46657 38.7768C1.37808 38.7743 1.39868 38.785 1.34249 38.7518C1.24663 38.6951 1.27002 38.6708 1.27002 38.6499V29.7311ZM20.4414 12.6437V13.0434C20.4414 13.1512 20.4399 13.0332 20.4767 13.1328C20.5164 13.2401 20.537 13.3168 20.6468 13.4115C20.8599 13.5955 21.0407 13.6317 21.3003 13.5319C21.4615 13.4698 21.5901 13.3221 21.6438 13.1525C21.6702 13.0695 21.6845 13.1239 21.6845 13.0434V12.6437C21.6845 12.5295 21.6962 12.6848 21.6329 12.4955C21.5591 12.2748 21.2741 12.094 21.0379 12.094C20.85 12.094 20.5817 12.2633 20.4831 12.5359C20.4544 12.6153 20.4411 12.5635 20.4411 12.6434L20.4414 12.6437ZM11.266 12.6937C11.266 12.8999 11.2436 12.9742 11.2985 13.1106C11.3178 13.1587 11.3216 13.1699 11.3402 13.2184L11.4587 13.3993C11.4991 13.4399 11.5805 13.4979 11.6354 13.5214C11.7968 13.5904 11.8157 13.5929 11.9619 13.5929C12.0323 13.5929 11.9914 13.5768 12.0687 13.5502C12.1157 13.5342 12.1386 13.5334 12.1818 13.514C12.2494 13.4838 12.3064 13.4235 12.3572 13.3653C12.3605 13.3615 12.3654 13.3556 12.3687 13.3518C12.372 13.3479 12.3766 13.3421 12.3799 13.338C12.5108 13.175 12.5339 12.9747 12.5339 12.7683C12.5339 12.6552 12.4925 12.5911 12.4661 12.5119C12.4386 12.4294 12.4673 12.4804 12.4223 12.4059L12.3911 12.3622C12.3532 12.3121 12.3883 12.3525 12.3458 12.3075L12.1594 12.1701C11.9428 12.0768 11.7274 12.0712 11.5418 12.2214C11.4589 12.2884 11.3776 12.3696 11.3399 12.4682C11.3069 12.5553 11.2657 12.6263 11.2657 12.6932L11.266 12.6937ZM13.6034 12.6437V13.668C13.6034 13.7758 13.6018 13.6578 13.6387 13.7574C13.8098 14.2195 14.3023 14.3615 14.6423 14.0376C14.7638 13.9217 14.8464 13.7204 14.8464 13.6683V12.6439C14.8464 12.5767 14.7457 12.3668 14.6407 12.2758C14.2362 11.9254 13.7859 12.1473 13.6451 12.5361C13.6163 12.6156 13.6031 12.5637 13.6031 12.6437H13.6034ZM18.104 12.6937C18.104 12.9226 18.0656 13.5594 18.1365 13.7352C18.2026 13.8989 18.2532 14.0519 18.4737 14.1459C18.6351 14.2149 18.654 14.2175 18.8002 14.2175C18.8706 14.2175 18.8296 14.2014 18.9069 14.1748C18.954 14.1587 18.9769 14.1579 19.0201 14.1385C19.0877 14.1084 19.1447 14.0481 19.1955 13.9899C19.1988 13.986 19.2037 13.9804 19.207 13.9763C19.2103 13.9725 19.2148 13.9666 19.2182 13.9625C19.4406 13.6859 19.3722 13.1799 19.3722 12.7683C19.3722 12.6552 19.3308 12.5911 19.3043 12.5119C19.2769 12.4294 19.3056 12.4804 19.2606 12.4059L19.2296 12.3622C19.1917 12.3121 19.2268 12.3525 19.1843 12.3075L18.998 12.1701C18.6822 12.0339 18.4409 12.1098 18.2311 12.3714C18.1864 12.4271 18.104 12.6225 18.104 12.6935V12.6937ZM15.8413 12.8187C15.8413 13.2003 15.7905 14.0673 15.897 14.3866L16.1795 14.7521C16.3791 14.865 16.5065 14.8701 16.7396 14.7705C16.9494 14.6808 17.1093 14.4014 17.1093 14.2425V12.6937C17.1093 12.5412 16.9578 12.2549 16.7366 12.1691C16.5365 12.0914 16.5047 12.0449 16.2154 12.1703L16.1131 12.2426C16.074 12.2753 16.0603 12.2845 16.0219 12.3259C15.9024 12.4546 15.8413 12.6498 15.8413 12.8189V12.8187ZM12.7579 9.39622V9.54617C12.7579 9.62663 12.7722 9.57171 12.7986 9.65524C12.8507 9.82 12.9776 9.96024 13.136 10.0157C13.299 10.0731 13.3954 10.0956 13.5787 10.0956H19.3972C19.5111 10.0956 19.6107 10.0854 19.7061 10.056C19.8805 10.0024 20.0013 9.96126 20.1246 9.75206C20.3331 9.39801 20.1444 8.99773 19.778 8.86362C19.7267 8.84498 19.7745 8.86286 19.7239 8.84293C19.6634 8.81918 19.7816 8.82148 19.6707 8.82148H13.3051C13.2525 8.82148 13.0374 8.9165 12.9425 9.00693L12.8271 9.16581C12.8111 9.19979 12.7579 9.35842 12.7579 9.39622ZM18.5764 38.7743L21.2016 36.7652C21.2301 36.7432 21.2321 36.7425 21.2576 36.7215L21.9197 36.2127C22.1981 35.9802 22.284 36.0763 22.9776 36.0763L25.6138 36.0765C26.2332 36.0801 26.4833 35.8464 26.4083 36.1723C26.3872 36.2643 26.3677 36.2597 26.3466 36.3378C26.3216 36.4296 26.3438 36.438 26.3097 36.5256L26.0084 37.5719C25.9758 37.7065 25.986 37.5538 25.9324 37.8204L25.7485 38.4353C25.7007 38.5377 25.7279 38.4971 25.7023 38.6136C25.6865 38.6856 25.6649 38.7242 25.6384 38.7743H18.5764ZM14.374 38.7743H7.31223L7.16985 38.2677C7.14264 38.139 7.14493 38.199 7.11365 38.0994C7.09484 38.0394 7.0923 37.9798 7.07018 37.9183C6.9728 37.6483 6.90618 37.3083 6.81541 37.0751L6.53394 36.0318C6.56624 35.969 6.80346 36.0201 6.88558 36.0303C7.45995 36.101 7.57412 36.0763 8.18256 36.0763L10.8383 36.0814C10.9108 36.0967 11.2728 36.3874 11.3621 36.4546L13.0092 37.7226C13.0147 37.7275 13.0308 37.7407 13.0364 37.7451L13.5924 38.1607C13.5965 38.164 13.6023 38.1684 13.6064 38.1717L13.9039 38.3975C14.031 38.5181 14.1948 38.6054 14.3135 38.7104C14.359 38.7508 14.3377 38.7247 14.374 38.7745V38.7743ZM28.5723 36.5759C28.5723 36.9249 28.6115 37.0462 28.7366 37.3354C28.8172 37.5218 28.9034 37.4329 28.76 37.7137C28.5906 38.045 28.5723 38.1589 28.5723 38.5495C28.5723 38.6749 28.5947 38.6614 28.5973 38.7743H26.9313C26.9875 38.6675 26.9705 38.6391 27.0064 38.525L27.4994 36.8469C27.5367 36.7552 27.5128 36.8127 27.5322 36.7049L27.6489 36.3225C27.6738 36.2566 27.6486 36.3363 27.6695 36.2681C27.6768 36.2444 27.6827 36.2114 27.6883 36.1871L27.8446 35.6699C27.8706 35.5222 27.821 35.5038 28.061 35.3878C28.1429 35.3483 28.1063 35.3687 28.1729 35.3253C28.1772 35.3225 28.2026 35.3056 28.2179 35.2956L28.3666 35.1952C28.4485 35.1355 28.4841 35.0992 28.5723 35.0522C28.6148 35.1411 28.641 35.3725 28.7798 35.5945C28.8851 35.7628 28.8228 35.7807 28.7605 35.8906C28.6555 36.076 28.5723 36.3504 28.5723 36.5762V36.5759ZM29.7907 33.0286C29.7907 32.8268 29.9995 32.6789 30.2133 32.6789C30.6051 32.6789 32.1566 32.6275 32.4416 32.7634C32.4452 32.7652 32.477 32.7831 32.4907 32.789C32.5718 32.8247 32.5739 32.8063 32.6613 32.8674C32.7305 32.9154 32.7732 32.9571 32.8424 33.0102L32.9219 33.0802C33.0069 33.1701 33.0501 33.2789 33.1121 33.3888C33.1513 33.4585 33.1434 33.4138 33.1642 33.4863L33.2471 33.9027V37.5499C33.2471 37.672 33.1737 37.9464 33.1137 38.0654C33.0989 38.0945 33.1037 38.0904 33.091 38.1175L32.9832 38.2841C32.8185 38.4838 32.628 38.6511 32.3628 38.7099C32.269 38.7306 32.1948 38.7738 32.1281 38.7738H30.1142C30.0544 38.7738 30.0679 38.7554 30.0114 38.727C29.998 38.7201 29.9687 38.7061 29.9619 38.702C29.926 38.6805 29.9397 38.6912 29.9179 38.6711C29.7633 38.5288 29.7488 38.3479 29.925 38.209C30.0417 38.117 30.0872 38.1405 30.1915 38.0769C30.5248 37.8733 30.4872 37.6524 30.4872 37.3747C30.4872 37.3088 30.4633 37.3272 30.4269 37.2602C30.2487 36.9333 30.1274 37.0232 29.9349 36.8801C29.6929 36.7003 29.8467 36.4929 29.851 36.4855C29.8797 36.4347 29.8894 36.4091 29.9558 36.3659C30.0506 36.3044 30.0325 36.3532 30.1635 36.2747L30.2532 36.215C30.2573 36.2117 30.2626 36.2065 30.2665 36.2032L30.2914 36.1784C30.2949 36.1749 30.3 36.1695 30.3036 36.1657L30.4086 36.0464C30.5289 35.8574 30.5256 35.604 30.4091 35.4042C30.39 35.3718 30.404 35.3868 30.3692 35.3444C30.1983 35.136 30.0564 35.1485 29.9542 35.0869L29.8421 34.9498C29.7412 34.763 29.8413 34.5921 30.0333 34.5206C30.0931 34.4984 30.089 34.5002 30.1526 34.4654C30.5217 34.2647 30.4869 34.0355 30.4869 33.7773C30.4869 33.6953 30.418 33.5987 30.3743 33.5407L30.0514 33.3154C29.9054 33.2582 29.7907 33.1382 29.7907 33.0278V33.0286ZM30.462 30.5303H32.5507C32.6466 30.5303 32.6283 30.61 32.6275 30.703L32.6255 31.5296C32.404 31.511 32.555 31.4527 32.1281 31.4545C31.7338 31.4563 30.6341 31.4875 30.3875 31.4298C30.3875 31.2716 30.3875 31.1133 30.3875 30.9551C30.3875 30.7329 30.3435 30.5306 30.462 30.5306V30.5303ZM9.97279 28.8066C10.118 28.8186 10.255 28.9979 10.3633 29.0889C10.6568 29.3351 10.8553 29.7185 11.2848 29.8368C11.5596 29.9124 11.6295 29.9058 11.9372 29.9058L12.3969 29.7433C12.5245 29.6756 12.6613 29.5576 12.7508 29.4496L13.1106 28.9617C13.1404 28.9141 13.1559 28.8868 13.1874 28.839L13.415 28.4183C13.4566 28.3435 13.4467 28.3647 13.479 28.2829C13.5131 28.1974 13.5327 28.2089 13.553 28.1325H13.6028C13.6229 28.2078 13.6707 28.2232 13.7376 28.272L14.9222 29.1303C14.9268 29.1331 14.9329 29.1369 14.9375 29.14C14.942 29.143 14.9481 29.1469 14.9525 29.1499L16.0315 29.8143C16.0361 29.8171 16.0425 29.821 16.047 29.8238L16.3046 29.9398C16.4325 29.9786 16.2899 29.9809 16.5619 29.9809L16.9553 29.8016C17.0236 29.7607 17.0709 29.7316 17.1414 29.6889L18.2133 29.0171C18.2176 29.014 18.2232 29.0094 18.2276 29.0066L18.7783 28.6107C18.7956 28.5984 18.8085 28.5905 18.823 28.5808C18.8594 28.556 18.868 28.5494 18.9097 28.5182L19.1035 28.3632C19.1073 28.3598 19.1131 28.355 19.117 28.3517C19.2057 28.2763 19.3094 28.1624 19.4211 28.1325C19.4333 28.2806 19.582 28.4812 19.6565 28.6204L19.7338 28.7675C19.7623 28.8207 19.745 28.7877 19.7719 28.8291C19.897 29.0204 20.0107 29.2163 20.1569 29.3916C20.1843 29.4243 20.1889 29.4322 20.2126 29.4605L20.3542 29.5931C20.5088 29.7244 20.6875 29.8108 20.8858 29.8585C21.1917 29.9321 21.0778 29.9063 21.435 29.9063C21.524 29.9063 21.4444 29.8907 21.5431 29.8649C21.6771 29.8299 21.7948 29.8036 21.9108 29.7346C22.029 29.6639 22.1658 29.5663 22.2583 29.4593C22.2616 29.4554 22.2665 29.4496 22.2698 29.4457C22.4709 29.2071 22.7175 28.9566 22.9769 28.7821C22.9959 28.8643 23.0231 28.8937 23.0681 28.965L23.1833 29.1492C23.1861 29.1538 23.1902 29.1599 23.193 29.1645L23.2957 29.3361C23.3527 29.4317 23.3748 29.4386 23.3748 29.5566C23.3748 29.6289 23.1073 29.8087 23.0341 29.8636C23.0071 29.8838 23.0013 29.8853 22.9751 29.9042L22.7251 30.1027C22.699 30.1216 22.6934 30.1232 22.6651 30.1426C22.6222 30.1719 22.5901 30.1975 22.5505 30.2274C22.5146 30.2545 22.4859 30.2769 22.4533 30.3045C22.4478 30.3091 22.4322 30.3232 22.4269 30.3278L22.117 30.5661C21.9982 30.6785 21.8571 30.7597 21.748 30.845C21.744 30.8484 21.7384 30.853 21.734 30.856C21.73 30.8593 21.7244 30.8639 21.7203 30.867C21.7162 30.8703 21.7107 30.8749 21.7066 30.8783L21.4526 31.0726C21.4185 31.1015 21.4394 31.0862 21.3982 31.1179L21.0732 31.3661C21.0272 31.4006 21.0173 31.4057 20.9713 31.4384L19.2611 32.743C19.0249 32.9527 18.7661 33.1313 18.5116 33.3142L17.1411 34.3607C17.0473 34.4248 16.6356 34.7104 16.6112 34.8026C16.5184 34.8026 16.4203 34.8205 16.3458 34.7697L15.6562 34.2381C15.6524 34.2345 15.6473 34.2292 15.6438 34.2256C15.5876 34.1725 15.5708 34.165 15.5022 34.118L14.6847 33.4902C14.6659 33.4743 14.6306 33.4462 14.6151 33.4352L14.4124 33.2891C14.4066 33.2848 14.39 33.272 14.3842 33.2677C14.3481 33.2411 14.3486 33.2406 14.3102 33.2171C14.0165 33.0383 13.5932 33.1956 13.4533 33.5037C13.3852 33.6534 13.3933 33.9311 13.4851 34.0713C13.6735 34.3592 14.525 34.9038 14.8762 35.1968L15.0981 35.3735C15.121 35.393 15.1269 35.3968 15.1541 35.4172L15.3959 35.5991C15.6036 35.7598 15.8258 35.9424 16.0859 36.005C16.4389 36.0898 16.4264 36.097 16.7826 36.0247L17.0285 35.947C17.061 35.933 17.0559 35.9376 17.0829 35.9268C17.0885 35.9245 17.0953 35.9225 17.1009 35.9199C17.1065 35.9176 17.1131 35.9151 17.1185 35.9125L19.2497 34.3066C19.2665 34.2938 19.2754 34.2874 19.2924 34.2746C19.2967 34.2716 19.3023 34.267 19.3066 34.2639C19.3125 34.2596 19.3293 34.2468 19.3351 34.2427L20.282 33.5203C20.3488 33.4692 20.3903 33.4501 20.4554 33.3946L20.5088 33.3484C20.5126 33.3451 20.5182 33.3402 20.522 33.3369L21.147 32.8656C21.1828 32.8372 21.1393 32.8722 21.1744 32.8434C21.2449 32.7856 21.2927 32.7545 21.3577 32.7029C21.3895 32.6776 21.3649 32.6973 21.3984 32.6687L22.0791 32.1532C22.1091 32.1271 22.1192 32.1141 22.1587 32.0832L22.2909 31.9912C22.3476 31.9478 22.3827 31.8995 22.4541 31.8804L23.2947 33.2843C23.3379 33.3561 23.2843 33.3303 23.3743 33.3543V33.554L22.9474 33.8746C22.8734 33.9351 22.8052 33.9752 22.7318 34.0327C22.7277 34.0358 22.7221 34.0406 22.718 34.044L22.6789 34.0797C22.6623 34.0943 22.644 34.1101 22.6247 34.1252C22.584 34.1571 22.5556 34.1781 22.5111 34.2108L22.3933 34.2923C22.3893 34.2953 22.3834 34.2999 22.3794 34.3032L21.8719 34.6928C21.3824 35.031 20.4554 35.7779 19.9212 36.1805C19.7742 36.2914 19.641 36.3905 19.4983 36.5052L17.3521 38.1461C17.3481 38.1492 17.3422 38.1538 17.3379 38.1569L16.689 38.6542C16.6092 38.7219 16.5515 38.775 16.4114 38.775C16.39 38.7158 16.3511 38.7073 16.2944 38.6677C16.2464 38.634 16.2105 38.6049 16.1663 38.5717L13.1149 36.2413C13.1106 36.2382 13.1048 36.2339 13.1004 36.2308C13.0831 36.2186 13.0697 36.2106 13.0554 36.2009L12.5797 35.8295C12.5535 35.8078 12.5639 35.8147 12.5393 35.7953L12.4218 35.7135C12.4175 35.7105 12.4116 35.7061 12.4076 35.7031L12.2942 35.6172C12.2901 35.6142 12.2843 35.6096 12.2799 35.6065L12.0554 35.4323C12.0509 35.4295 12.0442 35.4262 12.0397 35.4231L9.77905 33.6973C9.77473 33.6943 9.76888 33.6899 9.76456 33.6868L9.73684 33.6649C9.60717 33.5619 9.5375 33.4863 9.63616 33.3185L9.92881 32.8375C10.103 32.5494 10.3684 32.1644 10.5179 31.8806L11.4694 32.5987C11.6568 32.733 11.8724 32.7874 12.0824 32.6778C12.0875 32.6753 12.0936 32.6717 12.0987 32.6692L12.4157 32.3381C12.4795 32.2165 12.4577 32.2932 12.4577 32.0055C12.4577 31.9148 12.417 31.8752 12.3794 31.8096L12.2482 31.6418C12.2443 31.6382 12.2387 31.6336 12.2347 31.6303C11.893 31.3309 10.7246 30.467 10.2873 30.1392C10.1259 30.0182 9.97279 29.9096 9.81846 29.786C9.46555 29.5029 9.56598 29.4976 9.79863 29.1098L9.97101 28.8084L9.97279 28.8066ZM27.2792 29.1813V28.2819C27.2792 28.2244 27.2965 28.2071 27.3537 28.2071H35.7333V29.2064C35.7333 29.2639 35.716 29.2812 35.6588 29.2812H27.3786C27.3204 29.2812 27.2792 29.2398 27.2792 29.1813ZM8.35647 29.506C8.35647 29.6322 8.373 29.6746 8.38113 29.8059C8.38825 29.9203 8.37681 29.8603 8.41342 29.9482C8.43275 29.9942 8.44216 30.0253 8.46275 30.0733L8.51487 30.1709C8.61048 30.3663 8.7582 30.5188 8.9283 30.655L8.97051 30.6874C8.97635 30.6918 8.99339 30.704 8.99924 30.7086L9.46428 31.0657C9.49733 31.089 9.49631 31.0898 9.52479 31.1048C9.47216 31.205 9.43148 31.2821 9.37427 31.3782C9.34808 31.4223 9.32316 31.4665 9.2896 31.5179C9.26672 31.5529 9.26723 31.5485 9.24917 31.5774C9.24638 31.582 9.24256 31.5884 9.23977 31.593C9.23697 31.5976 9.23341 31.6042 9.23061 31.6088C9.22782 31.6134 9.22426 31.6201 9.22171 31.6247L8.5909 32.6646C8.56623 32.7093 8.57005 32.6978 8.54361 32.742C8.53699 32.7529 8.50776 32.8058 8.50776 32.8058L8.40224 33.0495C8.34452 33.2135 8.36613 33.5162 8.37859 33.68C8.3913 33.8455 8.42919 33.9658 8.50674 34.1009L8.79329 34.4877C8.82024 34.5135 8.84592 34.5365 8.87211 34.5584C8.9522 34.6256 9.12789 34.7352 9.17671 34.8021C8.77066 34.8021 8.36435 34.8021 7.9583 34.8021C7.57818 34.8021 7.07729 34.8611 6.75439 34.7628C6.62522 34.7234 6.51437 34.7265 6.3913 34.6777C6.20544 34.6041 6.1401 34.6284 5.82507 34.4721L5.59166 34.3569C5.58683 34.3541 5.58073 34.3505 5.5759 34.3477C5.55428 34.3357 5.54971 34.3347 5.52682 34.3221L4.71574 33.6881C4.71218 33.6846 4.70684 33.6792 4.70328 33.6756C4.68726 33.6598 4.68396 33.657 4.66565 33.6383C4.51513 33.4861 4.37605 33.2983 4.26468 33.1167L4.24536 33.0861C4.24256 33.0815 4.23849 33.0756 4.23544 33.071L4.14264 32.9144C4.00763 32.6653 3.90008 32.4147 3.81846 32.1409L3.69184 31.6438C3.63972 31.4009 3.6415 28.7241 3.68065 28.6301C3.72667 28.5195 3.9672 28.3974 4.06662 28.3432L4.30638 28.2094C4.31147 28.2068 4.31808 28.2038 4.32316 28.2012C4.32825 28.1986 4.3346 28.1951 4.33944 28.1925C4.34427 28.1897 4.35037 28.1861 4.3552 28.1833L4.57412 28.0786C4.76507 27.98 5.09865 27.851 5.30206 27.8106C5.45894 27.7797 5.35647 27.7915 5.46529 27.7498C5.54894 27.7179 5.57488 27.7391 5.66819 27.7289C5.82482 27.7118 5.84465 27.6546 6.04399 27.6569C6.597 27.6635 6.57259 27.5529 7.22299 27.6466C7.37503 27.6686 7.51615 27.6364 7.63641 27.6811C7.69286 27.7021 7.71548 27.7202 7.7882 27.7286C8.00407 27.7534 7.97025 27.7759 8.15459 27.8101C8.33181 27.8431 8.48614 27.9258 8.65421 27.9825C8.9494 28.0822 8.98322 28.0801 8.84617 28.2985L8.53471 28.8102C8.5281 28.8217 8.49402 28.884 8.49072 28.8909C8.39639 29.0835 8.35673 29.2802 8.35673 29.5055L8.35647 29.506ZM26.0359 27.8822V29.5809C26.0359 29.6848 26.1106 29.8672 26.1546 29.9612C26.2352 30.1336 26.3598 30.2711 26.5189 30.3694L27.1546 30.5303L28.9466 30.5288C29.0521 30.527 29.1442 30.504 29.1442 30.6052C29.1442 30.8034 29.1838 31.7113 29.1175 31.8275C29.0768 31.8987 28.9756 31.9624 28.9222 32.0308C28.7574 32.2423 28.6334 32.4783 28.5889 32.7453C28.5678 32.872 28.5945 33.0889 28.5721 33.2531C28.552 33.399 28.4002 33.5267 28.3013 33.6304L27.462 34.3112C27.2446 34.4432 27.0071 34.5319 26.7775 34.6228C26.5693 34.7051 26.1429 34.8036 25.912 34.8024C25.208 34.7983 24.5027 34.8021 23.7984 34.8021C23.8233 34.7679 23.8012 34.797 23.8335 34.7625C23.9647 34.6215 24.1363 34.5408 24.2619 34.3934L24.2848 34.3666C24.5024 34.1065 24.5828 33.8613 24.6072 33.494C24.6196 33.3065 24.5736 33.0827 24.4971 32.9011C24.4175 32.7121 24.2967 32.5149 24.1813 32.344L24.1391 32.2863C24.136 32.2819 24.132 32.2758 24.1292 32.2712C23.9789 32.0306 23.9949 32.0173 23.8108 31.7417C23.8078 31.7373 23.804 31.7309 23.8009 31.7266L23.7714 31.6814C23.7404 31.6318 23.729 31.5994 23.7007 31.5524C23.6781 31.5146 23.6618 31.4972 23.6316 31.4471C23.6011 31.3968 23.5978 31.3876 23.5657 31.3386L23.4251 31.1051C23.5177 31.0803 24.0735 30.6328 24.1363 30.5704C24.1398 30.5669 24.1449 30.5615 24.1485 30.5579L24.2105 30.4953C24.2141 30.4918 24.2194 30.4864 24.2227 30.4828C24.2421 30.4626 24.236 30.469 24.2586 30.444C24.3127 30.3845 24.358 30.3495 24.3979 30.2841C24.5878 29.9709 24.6084 29.6935 24.5934 29.3318C24.5871 29.178 24.5576 29.105 24.5034 28.9724C24.4714 28.8942 24.4872 28.9328 24.4554 28.871L24.2347 28.4932C24.2316 28.4888 24.2271 28.4832 24.224 28.4789L24.177 28.4012C24.1383 28.3302 24.0036 28.1843 24.0465 28.1077C24.1144 28.0147 24.0389 28.0926 24.1393 28.051L24.3534 27.9665C24.4424 27.9358 24.4116 27.9373 24.4737 27.9123C24.5332 27.8883 24.5324 27.8967 24.5909 27.8801L25.4877 27.6571C25.729 27.6528 25.88 27.6254 26.0854 27.6083C26.0854 27.7938 26.0356 27.7728 26.0356 27.8832L26.0359 27.8822ZM2.43834 25.6337C2.43834 25.3796 2.44165 25.2628 2.48131 25.0273C2.49936 24.92 2.51208 24.8434 2.51284 24.7343C2.51437 24.5346 2.52098 24.604 2.56649 24.4633C2.59624 24.3713 2.5792 24.2888 2.61556 24.1877L3.19553 22.8218C3.19832 22.8172 3.20188 22.8106 3.20468 22.806L3.97025 21.8264C3.98525 21.8113 4.00432 21.7952 4.02238 21.7788L4.29291 21.526C4.65497 21.1931 5.10959 20.8919 5.57234 20.7129C5.60259 20.7011 5.59369 20.7073 5.627 20.6927L6.46072 20.4061C6.77218 20.3277 7.3491 20.2625 7.66056 20.2625L8.5314 20.3371C8.70404 20.3885 8.67989 20.6592 8.72311 20.7941C8.75006 20.8782 8.76456 20.9668 8.79354 21.048C8.81388 21.1045 8.81159 21.07 8.83753 21.1535L9.0267 21.6882C9.05187 21.7413 9.02619 21.6805 9.05416 21.7354L9.07729 21.7873C9.0867 21.8103 9.08543 21.8136 9.09738 21.8422L9.1523 21.962C9.15459 21.9674 9.15713 21.9743 9.15967 21.9796L9.62497 22.7861C9.67201 22.8479 9.70938 22.9061 9.75769 22.9776L9.97305 23.2607C9.97635 23.2645 9.98093 23.2704 9.98424 23.2742C9.98754 23.278 9.99237 23.2837 9.99568 23.2877C10.0114 23.3064 10.0117 23.3069 10.03 23.3281L11.1022 24.3494C11.1406 24.3805 11.1602 24.3987 11.1983 24.4278C11.5515 24.6986 11.9471 24.9142 12.3527 25.0917L12.7551 25.2618C12.8507 25.3058 12.7577 25.2986 12.8823 25.3091C12.8823 26.0716 12.8342 25.7924 12.8085 26.3592C12.8022 26.4971 12.7785 26.4601 12.748 26.573C12.7216 26.6706 12.7485 26.7268 12.7152 26.8147L12.5167 27.3894C12.5088 27.4114 12.5067 27.4234 12.4991 27.4469C12.4671 27.5452 12.4488 27.5572 12.415 27.6372L12.2797 27.9258C12.2766 27.9317 12.2588 27.9654 12.2535 27.9746L12.0793 28.2743C11.9092 28.5568 11.8116 28.8148 11.5123 28.509L11.0946 28.0794C10.924 27.908 10.7282 27.7641 10.5347 27.6178C10.4767 27.5738 10.4628 27.5646 10.4025 27.5258L10.3143 27.4648C10.3102 27.4617 10.3043 27.4568 10.3003 27.4538L10.1297 27.3503C10.0821 27.3194 10.044 27.2842 9.99644 27.2594C9.96745 27.2443 9.95601 27.2418 9.92855 27.2277L9.1284 26.8325C9.12255 26.8302 9.11594 26.8282 9.1101 26.8259L9.07552 26.8108C8.98093 26.7669 9.02949 26.7845 8.91101 26.7513L8.20671 26.5347C7.99136 26.5091 7.9222 26.4678 7.63336 26.4363C7.46885 26.4182 7.42537 26.3814 7.23824 26.3837C7.05314 26.386 6.97661 26.3589 6.79049 26.3589C6.56446 26.3589 6.42741 26.3814 6.19247 26.3827L5.62293 26.4601C5.51665 26.4716 5.46885 26.514 5.3669 26.5275L4.60488 26.7362C4.59954 26.7385 4.59319 26.7416 4.58759 26.7439C4.58174 26.7462 4.57513 26.7482 4.56929 26.7503L3.45106 27.2757C3.44648 27.2785 3.44038 27.2824 3.4358 27.2852C3.43122 27.288 3.42487 27.2918 3.42029 27.2944L2.91177 27.6328L2.66641 26.9799C2.64531 26.8739 2.60564 26.8369 2.59166 26.7301C2.55301 26.4315 2.53776 26.5459 2.51259 26.185C2.49936 25.9972 2.43936 25.8516 2.43936 25.634L2.43834 25.6337ZM25.2899 20.2628L26.4701 20.401C26.6479 20.4332 26.7887 20.4919 26.9664 20.5517C26.9896 20.5596 27.0015 20.5614 27.0234 20.5696L27.3778 20.7131C27.3834 20.7154 27.3903 20.7175 27.3959 20.7198L27.4477 20.7428C27.6984 20.8631 27.9397 20.9888 28.1676 21.1438L28.8017 21.6557C28.8594 21.7091 28.9697 21.7559 28.9697 21.8366V26.9327C28.7656 26.9327 28.5939 26.8136 28.4063 26.7493C28.3575 26.7327 28.3969 26.7467 28.3542 26.7268L27.3972 26.4642C27.2721 26.4438 27.1348 26.4504 27.0181 26.4203C26.8696 26.3822 26.8007 26.3883 26.6318 26.3835C26.4381 26.3778 26.1297 26.3482 25.9296 26.3758C25.8152 26.3916 25.6985 26.3722 25.5886 26.383L25.2977 26.4404C24.9237 26.4882 24.5474 26.5814 24.1833 26.6949L23.7018 26.8857C23.6224 26.926 23.5477 26.9498 23.4602 26.9927L22.8983 27.3026C22.8754 27.3161 22.8673 27.3204 22.8513 27.3301L22.3768 27.653C22.3577 27.6678 22.3544 27.6701 22.3351 27.686L21.6448 28.2916C21.6023 28.3353 21.596 28.3448 21.5614 28.3826C21.431 28.5249 21.405 28.6043 21.2927 28.6395C21.1767 28.6758 21.1192 28.6311 21.0585 28.5358L20.6377 27.8344C20.6351 27.829 20.6323 27.8224 20.6301 27.817L20.4844 27.5136C20.4607 27.4566 20.4783 27.4957 20.4628 27.4354C20.4274 27.2974 20.3529 27.1902 20.3201 27.054L20.0928 25.7334C20.0943 25.5574 20.0402 25.3911 20.1312 25.2968C20.1838 25.2419 20.2466 25.247 20.3084 25.225L20.7226 25.0414C20.9736 24.9062 21.0514 24.8861 21.3346 24.7067L21.5357 24.5839C21.8378 24.3721 22.1294 24.1542 22.3913 23.8944L22.8935 23.3749C22.8983 23.3695 22.9128 23.3547 22.9176 23.3493C23.0796 23.1715 23.2166 22.9608 23.3549 22.7643L23.4869 22.5472C23.491 22.5411 23.5027 22.5235 23.5067 22.5173C23.5098 22.513 23.5139 22.5069 23.5167 22.5023C23.5195 22.4977 23.5235 22.4918 23.5266 22.4872L23.6445 22.281C23.8569 21.9247 24.1185 21.317 24.1993 20.9147C24.2276 20.7742 24.2573 20.8268 24.2713 20.6373C24.2863 20.4342 24.3313 20.3519 24.4816 20.3238L25.2904 20.262L25.2899 20.2628ZM11.0915 22.6609C11.2141 22.6162 11.0671 22.6568 11.1859 22.6057L12.7989 22.0279C12.8477 22.0113 12.8085 22.0253 12.851 22.0054C13.1022 21.8889 13.1739 22.0683 13.5678 22.4961L15.1299 24.1494C15.1693 24.1915 15.1851 24.2127 15.225 24.2536C15.3003 24.3307 15.3626 24.3862 15.4353 24.4669L15.7267 24.7737C15.8251 24.8797 15.9275 24.9481 16.059 25.0143C16.2034 25.0868 16.2967 25.1029 16.4635 25.1078C16.6387 25.1126 16.8154 25.0656 16.9497 24.9992C17.1299 24.9101 17.2479 24.7535 17.3839 24.6112L18.5406 23.3999C18.5441 23.3963 18.5495 23.3909 18.553 23.3874L18.6728 23.2579C18.6906 23.24 18.6896 23.2413 18.7104 23.2206L19.0758 22.8382C19.0793 22.8343 19.0842 22.829 19.0877 22.8251L19.5144 22.3794C19.5848 22.3089 19.6641 22.2389 19.7231 22.1646C19.8185 22.0445 19.8604 21.961 20.0178 21.961L20.3748 22.102C20.3814 22.104 20.3883 22.105 20.3949 22.1068C20.4391 22.1186 20.4272 22.1089 20.4755 22.1257L20.8139 22.2604C20.8647 22.2767 20.893 22.2775 20.9491 22.2994L21.6364 22.5585C21.7007 22.5863 21.6885 22.5715 21.7506 22.5935C21.8233 22.6193 21.792 22.6164 21.8579 22.6606C21.7686 22.7945 21.6496 22.8987 21.537 23.0126L21.2138 23.2875C21.0931 23.4019 20.868 23.5511 20.7188 23.6395C20.7142 23.6423 20.7079 23.6459 20.703 23.6487L20.6415 23.687C20.6367 23.6898 20.6303 23.6934 20.6257 23.6959L20.4973 23.7667C20.4414 23.7953 20.4396 23.7887 20.3796 23.8234L19.4531 24.2165C19.0926 24.4102 19.0549 24.5264 18.9179 24.8281C18.8932 24.8822 18.8741 24.8809 18.8741 24.9591C18.8741 25.3668 18.8235 26.0376 18.9278 26.4039C18.9591 26.5137 18.9344 26.5817 18.956 26.7028C18.9799 26.8371 19.0295 26.7991 18.9242 26.9061L18.3842 27.3649C18.3801 27.3679 18.374 27.3723 18.3697 27.3754C18.3654 27.3784 18.3593 27.3825 18.3549 27.3856C17.9062 27.6967 17.6837 27.899 17.1721 28.2209C17.149 28.2354 17.1437 28.239 17.1269 28.2502C17.1091 28.2623 17.0745 28.286 17.0671 28.2904L16.7257 28.4968C16.6184 28.5683 16.5484 28.6314 16.4122 28.6314C16.3842 28.5535 16.4094 28.5994 16.3191 28.5501C16.314 28.5473 16.3074 28.5448 16.3023 28.542L15.6578 28.1402C15.6346 28.1251 15.625 28.1184 15.598 28.1003L15.4645 28.0096C15.4602 28.0066 15.4541 28.0025 15.45 27.9994C15.4457 27.9963 15.4399 27.992 15.4358 27.9889L15.3783 27.9468C15.3738 27.9437 15.3677 27.9401 15.3631 27.9371C15.3333 27.9179 15.3382 27.924 15.3013 27.8993L14.942 27.6356C14.938 27.6326 14.9321 27.628 14.9278 27.6249C14.9237 27.6219 14.9176 27.6175 14.9136 27.6142C14.9095 27.6111 14.9036 27.6065 14.8993 27.6035L14.0669 26.9403C13.9781 26.8691 13.9794 26.8438 13.9947 26.7293C14.0089 26.6226 14.0135 26.5229 14.0318 26.4144C14.0386 26.3735 14.0618 26.3176 14.0686 26.2764C14.0783 26.2187 14.0732 26.1709 14.0793 26.1122C14.1149 25.7699 14.1465 25.1211 14.0333 24.801C14.0208 24.766 14.0219 24.7596 14.0089 24.7256L13.9484 24.6117C13.6804 24.19 13.326 24.18 12.9258 23.9905C12.9207 23.9879 12.9146 23.9846 12.9092 23.982C12.7081 23.8903 12.4989 23.8122 12.313 23.6816C12.3117 23.6809 12.2899 23.6633 12.27 23.6497L12.1309 23.5647C11.9486 23.4581 11.7816 23.3128 11.6168 23.182L11.2545 22.8463C11.251 22.8425 11.2461 22.8371 11.2426 22.8333L11.1711 22.7551C11.1312 22.7115 11.1231 22.7079 11.0913 22.6604L11.0915 22.6609ZM13.3542 20.4625L13.5164 19.9759C13.5474 19.9052 13.553 19.8822 13.553 19.7879C13.6087 19.7749 13.6102 19.7629 13.6773 19.7629H19.3219C19.4228 19.7629 19.4279 19.9266 19.4607 19.9981C19.5001 20.0845 19.4691 19.9989 19.4938 20.0899L19.5634 20.2697C19.6443 20.5037 19.5746 20.5078 19.4172 20.683L19.1248 20.9888C19.1213 20.9926 19.1162 20.9977 19.1126 21.0015L18.5434 21.6039C18.5055 21.6458 18.4846 21.6659 18.4452 21.705C18.3733 21.7768 18.316 21.831 18.2459 21.9043L16.8907 23.3406C16.8223 23.4152 16.7602 23.4666 16.6921 23.5409L16.5517 23.6995C16.4943 23.7427 16.5878 23.7345 16.4872 23.7345C16.417 23.7345 16.316 23.6019 16.269 23.5539L14.9143 22.1171C14.8421 22.0448 14.7846 21.9901 14.7175 21.9153L14.5711 21.7628C14.5489 21.7387 14.5464 21.7339 14.5243 21.7099L14.5001 21.6841C14.4966 21.6805 14.4915 21.6751 14.4877 21.6716L14.401 21.5837C14.3961 21.5783 14.3824 21.5627 14.3776 21.5574L13.9901 21.1471C13.9865 21.1436 13.9812 21.1382 13.9776 21.1346C13.9741 21.131 13.9687 21.1257 13.9652 21.1221L13.3539 20.462L13.3542 20.4625ZM14.7714 18.4141V16.4907C14.7714 16.3614 14.8553 16.4424 14.896 16.461L15.9476 16.8577C16.2777 17.0067 16.3216 16.965 16.7112 16.965C16.7826 16.965 17.5487 16.66 17.7109 16.5954L18.1782 16.4156V18.489H14.8462C14.789 18.489 14.7717 18.4716 14.7717 18.4141H14.7714ZM20.8635 18.489H19.4462V15.9409L19.7501 15.8214C19.8009 15.7979 19.7516 15.8155 19.822 15.7938L21.6428 15.0998C21.8096 15.0431 21.9825 14.934 21.9825 15.0663V17.3896C21.9825 17.5066 21.9565 17.5196 21.9222 17.6039C21.776 17.9635 21.5698 18.2302 21.2103 18.3876L20.9911 18.467C20.9532 18.4803 20.9275 18.4887 20.8635 18.4887V18.489ZM10.9669 17.115V15.0666C10.9669 14.922 11.1836 15.0643 11.2476 15.0844L12.9868 15.7356C13.0481 15.7616 13.0191 15.758 13.0707 15.7762C13.1709 15.8114 13.2403 15.8171 13.4035 15.8916C13.405 15.8924 13.4783 15.9376 13.48 15.9394C13.5161 15.9736 13.5283 15.9432 13.5283 16.0158V18.4139C13.5283 18.4714 13.5111 18.4887 13.4539 18.4887H12.0613C11.9835 18.4887 12.0041 18.4798 11.9451 18.4555C11.8772 18.4277 11.9059 18.4366 11.8352 18.4162L11.627 18.3258C11.4795 18.243 11.2865 18.068 11.2019 17.9285L11.1274 17.8036C11.0615 17.6948 11.0048 17.5546 10.9893 17.4179C10.9766 17.3078 10.9675 17.2542 10.9675 17.115H10.9669ZM10.3453 13.3428V11.9688H22.6041V13.4177L21.9481 13.658C21.9207 13.6688 21.9049 13.6818 21.8998 13.6844C21.8574 13.7061 21.8986 13.6905 21.8495 13.7089C21.8047 13.7255 21.8024 13.7178 21.7531 13.737C21.6771 13.7669 21.7376 13.7518 21.6695 13.7778C21.5789 13.8123 21.5558 13.8036 21.4643 13.8463C21.4335 13.8606 21.4167 13.8678 21.375 13.8816L20.8009 14.1043C20.7676 14.1158 20.7689 14.1117 20.7419 14.1199C20.7356 14.1219 20.7287 14.1232 20.7226 14.1252C20.7165 14.1273 20.7099 14.1296 20.704 14.1316L20.1243 14.3488C20.0748 14.3643 20.0872 14.3618 20.0369 14.3858L19.7869 14.4844C19.7653 14.4923 19.7529 14.4946 19.73 14.502L19.4424 14.6129C19.4038 14.629 19.4249 14.6264 19.3549 14.6499L18.1083 15.1212C18.077 15.1304 18.0376 15.1368 17.9924 15.1544C17.7229 15.2602 16.8624 15.615 16.6631 15.6676C16.6135 15.6806 16.6206 15.674 16.566 15.6949C16.4999 15.7205 16.5439 15.7185 16.462 15.7404L16.2065 15.6224C16.137 15.5923 16.1594 15.6073 16.0918 15.5877L15.624 15.4081C15.5375 15.3641 15.6438 15.4002 15.5395 15.368C15.4968 15.3547 15.4818 15.3575 15.4401 15.3429L13.0036 14.4185C12.9128 14.3945 12.9703 14.4129 12.9118 14.3858L12.7653 14.3329C12.7592 14.3309 12.7526 14.3286 12.7468 14.3265L12.3537 14.172C12.3163 14.1574 12.3082 14.1493 12.3038 14.1472C12.2611 14.1278 12.3 14.1416 12.2515 14.125C12.2016 14.1081 12.2062 14.1173 12.1548 14.0971L11.7605 13.9439C11.703 13.9206 11.7201 13.9229 11.6745 13.9053L11.3219 13.7847C11.266 13.763 11.3227 13.7858 11.271 13.761L10.9448 13.6389C10.9385 13.6368 10.9316 13.6356 10.9255 13.6335C10.9194 13.6315 10.9128 13.6292 10.9069 13.6271L10.4956 13.4659C10.4902 13.4636 10.4841 13.4603 10.4788 13.4578C10.4737 13.4552 10.4673 13.4519 10.4622 13.4493C10.4572 13.4468 10.4508 13.4437 10.4457 13.4409L10.4132 13.4238C10.3631 13.3914 10.345 13.4223 10.345 13.3423L10.3453 13.3428ZM9.72362 10.6198V9.6956C9.72362 9.59675 9.73532 9.6532 9.77701 9.62433C9.90389 9.53595 10.0633 9.51194 10.208 9.45779L13.0953 8.31161C13.1325 8.29756 13.1203 8.30471 13.1533 8.29475C13.4223 8.21403 13.8352 8.03343 14.1012 7.92308L14.7689 7.66968C14.775 7.66764 14.7821 7.66611 14.7879 7.66381L15.3193 7.44821C15.5446 7.36928 15.733 7.26532 15.9624 7.19481L16.3028 7.06198C16.3082 7.05943 16.3148 7.05687 16.3204 7.05432C16.326 7.05176 16.3328 7.04946 16.3384 7.04717C16.4943 6.98458 16.4775 7.00323 16.5945 7.03899C16.8655 7.12176 17.1149 7.24973 17.3804 7.34987L18.6018 7.82141C18.6313 7.83317 18.6234 7.82755 18.6562 7.84185L20.1401 8.42452C20.1643 8.43576 20.1452 8.42911 20.1932 8.44597L20.6773 8.63398C20.745 8.66387 20.6834 8.6442 20.7623 8.67357L23.1121 9.58551C23.193 9.62306 23.1149 9.61156 23.2263 9.62076L23.2271 10.4709C23.2288 10.582 23.2565 10.6949 23.1515 10.6949H9.79888C9.74167 10.6949 9.72438 10.6775 9.72438 10.6201L9.72362 10.6198ZM11.0165 7.77186C11.0539 7.61093 11.0503 7.41577 11.1114 7.26761C11.1536 7.16544 11.1259 7.11511 11.1615 7.01805L11.3572 6.46527C11.3814 6.40549 11.3722 6.41801 11.4002 6.35849L11.6438 5.85373C11.6623 5.81721 11.673 5.79192 11.6931 5.75335C11.8057 5.53571 11.9672 5.32369 12.1165 5.1293L12.7852 4.40205C13.0331 4.17036 13.3158 3.95247 13.6072 3.77902L14.3824 3.38385C14.5332 3.32535 14.9408 3.16366 15.0692 3.14935C15.2499 3.12943 15.3038 3.08881 15.5693 3.05229C15.6979 3.0344 15.7224 3.00299 15.8408 3.00043V5.92321C15.6906 5.92654 15.7877 5.92449 15.689 5.97047C15.6336 5.99627 15.6003 6.00036 15.5449 6.02539L15.4005 6.08006C15.3501 6.09589 15.3931 6.07955 15.3293 6.10841L14.9364 6.26321C14.79 6.32988 15.0595 6.21391 14.9031 6.27981L13.7218 6.74191C13.7165 6.74421 13.7107 6.74779 13.7053 6.75009C13.6997 6.75238 13.6934 6.75545 13.6878 6.75749L13.0791 6.99531C13.0536 7.00527 13.029 7.01089 13.0046 7.02034L12.3933 7.25561C12.3308 7.27655 12.3954 7.25305 12.3244 7.28626L11.8009 7.48474C11.7707 7.49521 11.7473 7.50901 11.7325 7.5159L11.6448 7.55269C11.4966 7.61093 11.1607 7.77186 11.0175 7.77186H11.0165ZM28.9695 20.1877L28.3682 19.8175C28.3636 19.8147 28.3572 19.8112 28.3524 19.8084L27.6715 19.4931C27.6344 19.4796 27.6438 19.4829 27.6189 19.4712C27.6138 19.4689 27.6077 19.465 27.6026 19.4625C27.5975 19.4599 27.5917 19.4561 27.5866 19.4535L26.7551 19.1897C26.6303 19.1774 26.6522 19.1963 26.5431 19.1529C26.4256 19.1064 26.4635 19.1141 26.3087 19.1135C26.0974 19.1128 26.028 19.0384 25.8363 19.0384H24.7671C24.5828 19.0384 24.4828 19.11 24.2698 19.1133L23.7765 19.2173L23.5065 19.3708C23.4162 19.4385 23.3562 19.5194 23.298 19.6109C23.2754 19.6461 23.2593 19.6617 23.2398 19.7023L23.0305 20.5164C23.0099 20.567 23.0122 20.5435 22.9916 20.6273L22.6039 21.5868C22.5042 21.5599 22.612 21.5878 22.551 21.5648C22.4958 21.5441 22.5535 21.5633 22.4956 21.5454L22.1604 21.4325C22.1042 21.4097 22.1304 21.4115 22.059 21.3847L21.5032 21.1936C21.4658 21.1775 21.4724 21.1653 21.4025 21.1448L21.1793 21.0695C21.1518 21.0608 21.148 21.0633 21.12 21.0539C21.0712 21.0373 21.1103 21.0513 21.0676 21.0317L20.838 20.9624C20.838 20.838 20.853 20.7392 20.8823 20.6306C20.91 20.5277 20.9095 20.6186 20.8963 20.5062C20.8871 20.4296 20.8762 20.3936 20.8665 20.3346C20.8553 20.2656 20.8546 20.2411 20.8411 20.1851C20.8116 20.062 20.6814 19.8431 20.7137 19.7887C20.774 19.6868 21.192 19.711 21.3107 19.664L21.6588 19.5391C21.8614 19.4684 22.0542 19.3442 22.2276 19.2111C22.3992 19.0791 22.5281 18.9485 22.6672 18.7784L23.0031 18.2415L23.2281 17.4184C23.2883 17.13 23.2499 14.8946 23.2499 14.4926C23.3221 14.4578 23.3102 14.476 23.3822 14.4254L23.7196 14.065C23.7221 14.0601 23.7254 14.0535 23.7279 14.0486C23.7305 14.0438 23.734 14.0374 23.7368 14.0325C23.7407 14.0259 23.7518 14.008 23.7557 14.0014C23.8284 13.8741 23.8736 13.6729 23.8721 13.4938C23.8711 13.3725 23.8337 11.9918 23.8963 11.8694C23.9519 11.7606 23.9756 11.8605 24.2344 11.5846C24.3255 11.4875 24.4933 11.1335 24.4933 10.995V9.42126C24.4933 9.34309 24.4566 9.30682 24.4338 9.20617C24.4259 9.17092 24.4175 9.11754 24.4045 9.08586L23.9944 8.62351L23.7999 8.51903C23.7943 8.51673 23.7879 8.51392 23.7821 8.51188L23.7445 8.49987C23.7142 8.48991 23.7221 8.49579 23.6875 8.48225C23.6407 8.46411 23.6468 8.45721 23.5861 8.43422L23.3677 8.35401C23.3288 8.33971 23.2863 8.33103 23.2499 8.3226C23.2499 8.14404 23.1805 7.83802 23.1762 7.57236C23.1734 7.39534 23.1131 7.37183 23.1022 7.22214C23.0862 7.004 23.045 7.02341 23.0277 6.87219C23.013 6.74344 23.0409 6.81471 22.9908 6.70921C22.9334 6.58839 22.9087 6.38225 22.8416 6.23486L22.2357 4.9699C22.192 4.89429 22.2385 4.97118 22.1953 4.91064C22.1111 4.79186 22.0697 4.69428 21.9644 4.59312C21.8159 4.45033 21.5436 4.40384 21.3631 4.47868C21.2626 4.52032 21.1678 4.57958 21.0969 4.66107C20.9385 4.8432 20.9621 4.95994 20.9621 5.20031C20.9621 5.31654 21.36 5.9084 21.4539 6.13038C21.4808 6.1945 21.4661 6.15439 21.4958 6.21314L21.6575 6.60014C21.6715 6.64127 21.6702 6.64944 21.6883 6.69414L21.8935 7.38716C21.9283 7.54681 21.8917 7.63724 21.9568 7.77339C21.805 7.77339 21.3488 7.57696 21.1833 7.50109C21.1373 7.47989 21.1604 7.49189 21.1119 7.47273L20.2021 7.11281C20.1681 7.09953 20.1419 7.09417 20.1081 7.08242C20.014 7.04972 20.0516 7.05253 19.9697 7.02162C19.9362 7.00911 19.9296 7.01038 19.8937 6.99812C19.8118 6.97028 19.8759 6.99122 19.8055 6.96185L17.9062 6.22183C17.8238 6.19501 17.8927 6.22055 17.8365 6.19194L17.7325 6.14673C17.7264 6.14468 17.7196 6.14315 17.7134 6.14085L17.6776 6.12706C17.5983 6.09283 17.6372 6.101 17.5329 6.07265C17.4699 6.05528 17.5078 6.06958 17.4579 6.04787C17.4526 6.04557 17.4467 6.04174 17.4416 6.03944C17.3557 6.0001 17.1081 5.95361 17.1081 5.85016V3.00222L17.6265 3.0809C17.7287 3.09878 17.6712 3.11512 17.7897 3.14195C17.8632 3.15855 17.896 3.14297 17.9647 3.16621L18.4292 3.32408C18.4722 3.34145 18.4269 3.32842 18.4953 3.35754L19.1513 3.67276C19.1576 3.67659 19.1765 3.68706 19.1831 3.69064L19.2164 3.70724C19.2215 3.7098 19.2278 3.71312 19.2329 3.71567C19.238 3.71823 19.2441 3.7218 19.2492 3.72436C19.3422 3.77315 19.4742 3.82679 19.595 3.82679C19.673 3.82679 19.8525 3.74939 19.9207 3.70418L20.0046 3.63878C20.1869 3.46585 20.2141 3.20427 20.1485 2.9708C20.0664 2.67857 19.4068 2.39605 19.1081 2.26731L18.8012 2.15108C18.7404 2.12426 18.7813 2.13039 18.6995 2.10331L18.4755 2.02847C18.4244 2.01238 18.4264 2.01825 18.3743 2.00522C18.2642 1.97815 18.3427 1.99705 18.2632 1.96691C18.1632 1.92885 18.1111 1.94238 18.0175 1.91403C17.9695 1.89947 17.997 1.901 17.9288 1.87827C17.8744 1.86013 17.8655 1.85911 17.8027 1.85502C17.625 1.84302 17.6776 1.85094 17.5502 1.80879C17.3834 1.75361 17.1833 1.7978 17.0086 1.75336C16.7798 1.69537 16.192 1.70125 15.9619 1.75106C15.7966 1.78682 15.5703 1.76102 15.4355 1.79678C15.3049 1.83152 15.3549 1.84608 15.1937 1.85375C14.9639 1.86473 14.5197 2.02821 14.2881 2.09284L13.2677 2.54165C13.1991 2.58329 13.1643 2.60424 13.0971 2.64485L12.0788 3.37057C12.0409 3.40608 12.0353 3.40659 11.9977 3.43903L10.7254 4.95866C10.7226 4.96326 10.7188 4.96964 10.716 4.97424L10.1686 6.09794C10.0908 6.35951 9.97534 6.60295 9.92601 6.87857L9.84745 7.24922C9.83194 7.44106 9.7704 7.5205 9.77295 7.74912C9.77396 7.84057 9.73811 8.19155 9.69819 8.27355C9.67633 8.3346 9.69184 8.30522 9.63895 8.3392L9.01602 8.58774L8.77524 8.77064C8.63819 8.90884 8.56878 9.05291 8.52047 9.23913C8.49504 9.33747 8.47953 9.25982 8.47953 9.34794V11.0216C8.47953 11.1424 8.50725 11.1286 8.53216 11.2436L8.74193 11.6073C8.79583 11.6743 8.836 11.6967 8.89957 11.7489L8.97229 11.8005C9.11162 11.8784 9.10348 11.8773 9.1017 12.12C9.09992 12.3517 9.06763 13.5671 9.11493 13.7306L9.17366 13.9464C9.19502 14.0014 9.18942 13.9766 9.19959 13.9955L9.22654 14.0433C9.26392 14.1122 9.29494 14.1608 9.34579 14.2233L9.45894 14.3345C9.48589 14.3597 9.46936 14.3462 9.49708 14.3712C9.55581 14.4244 9.59954 14.4609 9.69819 14.4691L9.72311 14.9938C9.72311 15.3315 9.69108 17.2864 9.73481 17.455L9.77396 17.6905C9.78159 17.7972 9.81948 17.8302 9.83905 17.8999L10.0264 18.386C10.0514 18.4341 10.0503 18.4264 10.0821 18.48C10.1096 18.5263 10.0984 18.5133 10.1281 18.5587C10.1411 18.5784 10.177 18.6251 10.1917 18.6448L10.7951 19.2627C10.8464 19.2998 10.8309 19.2878 10.8869 19.3202L10.9186 19.3383C10.9491 19.3567 10.9324 19.3468 10.9641 19.3675C10.9652 19.3682 10.9954 19.3884 11.0089 19.3973C11.0132 19.4004 11.0193 19.4045 11.0236 19.4076C11.0297 19.4117 11.0473 19.4234 11.0536 19.4272L11.238 19.5166C11.2431 19.5192 11.2492 19.5228 11.2543 19.5251L11.6407 19.6615C11.7363 19.7016 11.987 19.7184 12.1159 19.7338C12.4155 19.769 12.1607 19.8934 12.1081 20.263C12.058 20.6156 12.0458 20.3839 12.1068 20.7433C12.1261 20.8572 12.1287 20.8825 12.1096 20.964L11.7885 21.0662C11.7099 21.0876 11.7508 21.0761 11.6812 21.1081L11.4658 21.1916C11.4605 21.1939 11.4541 21.1969 11.4485 21.1992L11.1315 21.3055C11.045 21.3331 11.0882 21.3252 11.0264 21.3497C10.9392 21.3844 10.893 21.3947 10.8085 21.4304C10.7368 21.4608 10.7676 21.445 10.6951 21.4664C10.6145 21.4904 10.6527 21.4823 10.5876 21.5083C10.495 21.5454 10.4539 21.5433 10.3689 21.5883L10.0847 20.9995C10.0448 20.9147 10.0763 21.0041 10.0435 20.8912L9.94457 20.5407C9.88736 20.4117 9.90974 20.3131 9.85736 20.1785C9.81973 20.0814 9.81185 19.9179 9.76939 19.8173L9.73532 19.7266C9.64861 19.5335 9.47852 19.3677 9.2924 19.2724C9.18408 19.217 8.81134 19.1171 8.70328 19.1148C8.47114 19.1097 8.36766 19.0402 8.18078 19.0402H7.11162C6.98093 19.0402 6.91762 19.0732 6.79558 19.0975C6.72337 19.1118 6.54691 19.1008 6.45741 19.1325C6.25502 19.204 6.31452 19.1626 6.15154 19.1999C6.05594 19.2219 6.07602 19.2395 6.00915 19.2566C5.9316 19.2765 5.91203 19.262 5.84058 19.287L5.5642 19.3841C5.52123 19.404 5.5614 19.3902 5.51208 19.4065L4.53318 19.8472C4.52835 19.85 4.5225 19.8538 4.51767 19.8566L3.61302 20.4715C3.58836 20.4919 3.58225 20.4983 3.55962 20.518L3.2718 20.7783C3.26824 20.7818 3.2629 20.7872 3.25934 20.7908L2.99415 21.0488C2.99059 21.0524 2.98525 21.0577 2.98169 21.0613C2.97813 21.0649 2.97279 21.0702 2.96923 21.0738C2.76481 21.2777 2.4002 21.7196 2.25756 21.9827C2.21637 22.0586 2.23773 22.0376 2.1851 22.1096L1.806 22.8032C1.80346 22.8083 1.80015 22.8144 1.79761 22.8198L1.72565 22.9723C1.68675 23.053 1.70481 23.0458 1.67607 23.1222L1.39156 23.9856C1.38317 24.06 1.38495 24.0789 1.36817 24.1371C1.34528 24.2163 1.3341 24.2089 1.32138 24.2899C1.3013 24.4168 1.30867 24.5256 1.2746 24.6426L1.23646 24.979C1.1818 25.39 1.22654 25.8887 1.25731 26.2951C1.26672 26.4182 0.969998 26.8573 0.868294 27.0323C0.865497 27.0371 0.861937 27.0433 0.859141 27.0481C0.856344 27.053 0.853038 27.0594 0.850496 27.0645L0.778032 27.1914C0.764811 27.2144 0.754132 27.2361 0.743453 27.2566C0.711162 27.3174 0.719298 27.2939 0.687007 27.3748L0.230613 28.6153L0.0983982 29.2319C0.0597508 29.3466 0.0444953 29.7597 0.0269514 29.9096C0.0119502 30.0378 0 30.1117 0 30.2573V38.6759C0 38.7983 0.0424612 38.927 0.0762777 39.0491C0.106026 39.1569 0.17137 39.2504 0.22807 39.3465L0.46148 39.6366C0.465294 39.6402 0.470633 39.6453 0.474193 39.6486C0.478007 39.6522 0.483092 39.6573 0.486906 39.6609C0.49072 39.6645 0.495805 39.6696 0.499619 39.6732C0.599034 39.7644 0.738876 39.8525 0.867785 39.9028C0.899059 39.9151 0.937452 39.9273 0.976354 39.9434C1.22883 40.0484 1.96974 39.9751 2.28757 39.9751C5.77473 39.9751 32.386 40.0068 32.5388 39.9649L32.7684 39.8957C32.8274 39.8727 32.7963 39.877 32.8731 39.851C33.4127 39.6675 33.8398 39.266 34.1266 38.787L34.2077 38.6435C34.266 38.5196 34.33 38.4021 34.361 38.2728C34.3651 38.2557 34.3674 38.2291 34.3712 38.2082C34.3771 38.176 34.386 38.1359 34.4033 38.0907C34.4742 37.9058 34.4635 37.6015 34.4635 37.3767C34.4635 36.7961 34.5062 33.8496 34.4322 33.4613C34.4223 33.4089 34.3849 33.3231 34.3715 33.2475C34.3679 33.2281 34.3649 33.1987 34.361 33.1831L33.9914 32.4554C33.9436 32.3935 33.8917 32.3596 33.8917 32.2556V30.6067C33.8917 30.4726 34.2423 30.5319 34.3392 30.5319L35.9062 30.5321C36.0664 30.5334 36.2019 30.5112 36.3494 30.4527C36.5133 30.3875 36.6313 30.281 36.7496 30.1553C36.8599 30.0381 36.9102 29.9124 36.9504 29.7576C36.9723 29.6731 37 29.6335 37 29.5326V27.9338C37 27.851 36.9336 27.6201 36.9041 27.5554L36.6275 27.1838C36.5078 27.0813 36.2174 26.9345 36.0552 26.9345H34.0659V17.3916C34.0659 17.2639 34.0198 17.1941 33.953 17.1053C33.9499 17.1012 33.9453 17.0953 33.9423 17.0912C33.939 17.0871 33.9344 17.0812 33.9311 17.0774L33.8584 17.0005C33.8546 16.9969 33.8492 16.9921 33.8454 16.9885L33.6219 16.8633C33.3 16.7517 32.8472 17.0332 32.8472 17.3919V26.9347H32.1261V4.77627C32.1261 4.63706 32.0155 4.46029 31.9377 4.39106C31.704 4.18364 31.3928 4.17598 31.1391 4.35913L30.9949 4.51419C30.9522 4.58341 30.9077 4.64319 30.9077 4.72646V26.935H30.1866V5.00132C30.1866 4.93746 30.2377 4.8902 30.2619 4.82711L30.2756 4.79083C30.2825 4.77474 30.2947 4.7515 30.3 4.74051C30.3206 4.69683 30.3257 4.67742 30.3455 4.63629C30.3481 4.63118 30.3514 4.6248 30.3539 4.61969L30.39 4.55608C30.4101 4.51419 30.4061 4.51087 30.4251 4.46642L30.5525 4.19488C30.5726 4.1438 30.5647 4.15171 30.5866 4.1042L30.6789 3.92207C30.7053 3.86664 30.6901 3.89729 30.7145 3.83292C30.734 3.78132 30.7376 3.77953 30.762 3.73074L30.8927 3.43724C30.8952 3.43213 30.8986 3.42574 30.9011 3.42064L31.3003 2.54753C31.3239 2.50078 31.3229 2.50232 31.3463 2.44382C31.3804 2.35901 31.3959 2.33883 31.435 2.25811C31.4536 2.2198 31.4574 2.21418 31.4775 2.17586L31.5294 2.07828C31.5383 2.18684 31.5919 2.25632 31.6362 2.34573L31.6715 2.4101C31.6906 2.44842 31.6883 2.44893 31.7018 2.47984L31.9275 2.97744C31.9301 2.98281 31.9326 2.98945 31.9352 2.99481L32.7135 4.71088C32.716 4.71599 32.7193 4.72237 32.7221 4.72723C32.7246 4.73208 32.7287 4.73821 32.7312 4.74307C32.7338 4.74792 32.7381 4.75379 32.7407 4.75865C32.7867 4.84499 32.837 4.92877 32.8477 5.02584C32.8749 5.27158 32.8477 11.8352 32.8477 12.1456C32.8477 12.7786 32.8477 13.4113 32.8477 14.0443C32.8477 14.5056 32.7407 14.9307 33.0923 15.2226C33.2512 15.3547 33.4925 15.3733 33.686 15.311L34.0056 15.0075C34.0417 14.9416 34.0664 14.9238 34.0664 14.8438V4.72646C34.0664 4.62965 34.0282 4.6156 33.9992 4.54408L33.6013 3.66969C33.599 3.66433 33.5965 3.65743 33.5942 3.65207C33.5917 3.6467 33.5894 3.63981 33.5868 3.63444L33.5611 3.58514C33.5586 3.58029 33.5543 3.57441 33.5517 3.56956L32.9052 2.14572C32.8869 2.1005 32.898 2.11736 32.8772 2.07394C32.8746 2.06883 32.8711 2.0627 32.8685 2.05759C32.866 2.05274 32.8619 2.04686 32.8594 2.04201C32.8568 2.03715 32.8528 2.03128 32.85 2.02642C32.8474 2.02157 32.8436 2.01544 32.8411 2.01033L32.2405 0.6902C32.2382 0.685091 32.2344 0.678961 32.2319 0.673852C32.1327 0.461578 32.0636 0.20639 31.8563 0.0766251C31.6895 -0.0278512 31.5174 0.00484553 31.331 0.00484553C31.2265 0.00484553 31.0714 0.150959 30.9952 0.267186C30.9921 0.271529 30.9883 0.277915 30.9855 0.282257C30.9825 0.286855 30.9784 0.29273 30.9756 0.297328C30.9728 0.301671 30.9685 0.307801 30.9657 0.312144L30.7155 0.86007C30.5639 1.18423 30.4083 1.58272 30.2451 1.88619L29.8096 2.84742C29.7869 2.898 29.7818 2.89621 29.7521 2.96467C29.7414 2.98894 29.7412 2.99481 29.7302 3.01755L29.5675 3.37849C29.5431 3.42625 29.5617 3.37721 29.5311 3.44209L28.9799 4.66209C28.9375 4.80463 28.969 19.9218 28.969 20.1897L28.9695 20.1877Z" fill="#00A0E3"/>
</svg>
