<svg width="105" height="105" viewBox="0 0 105 105" fill="none" xmlns="http://www.w3.org/2000/svg">
<path id="&#208;&#160;&#209;&#131;&#209;&#129;&#209;&#140; &#208;&#186;&#209;&#128;&#209;&#131;&#208;&#179;" d="M14.1452 88.3079L16.9573 91.2614L34.9738 74.1164L33.202 72.2537L29.9778 75.3205L28.9374 74.2296C28.1339 73.3858 27.1244 72.9227 26.0634 72.9021C25.023 72.8506 24.0135 73.2932 23.0555 74.2091L14.4439 82.4008C13.4962 83.2961 13.012 84.284 12.9708 85.3646C12.9502 86.4349 13.3314 87.4331 14.1658 88.2976L14.1452 88.3079ZM24.8376 76.0923C25.6617 75.3102 26.4033 75.3102 27.0729 75.9997L28.1133 77.0906L17.0706 87.5978L16.0302 86.5069C15.3401 85.7865 15.4328 85.0353 16.226 84.284L24.8376 76.0923ZM1.95907 67.4478L2.87586 69.7736L14.4645 65.2455L15.9581 64.6589L16.0508 64.6178C16.1332 65.1014 16.2672 65.6366 16.4526 66.11L16.9779 67.4478L3.94716 72.511L4.92576 74.9912L17.905 69.8765L20.3258 68.9194L19.3678 66.501L18.8424 65.1632C18.6158 64.5869 18.6467 64.1032 18.9866 63.743C19.1823 63.4857 19.3987 63.2902 19.7798 63.1358L22.046 62.2405L22.4272 62.0861C23.3852 61.7054 24.0238 62.0141 24.3843 62.93C24.7346 63.8253 24.4565 64.4119 23.4985 64.7927L22.0975 65.3484L23.0761 67.8286L24.508 67.2626C25.6823 66.7995 26.4755 66.0791 26.9287 65.0911C27.3201 64.1238 27.3201 63.0947 26.8772 61.9832L26.8669 61.9524C26.8669 61.9524 26.8669 61.9524 26.8566 61.9215C26.4342 60.8409 25.7029 60.0176 24.7758 59.6472C23.7663 59.2355 22.7362 59.2355 21.5516 59.6986L21.1086 59.8736L1.94877 67.4169L1.95907 67.4478ZM1.07318 54.09C1.84576 54.8618 2.89646 55.2632 4.16348 55.294L12.3528 55.4998L13.3108 55.5204L24.7861 55.8086L24.8891 51.6716C24.92 50.5395 24.5698 49.5722 23.8281 48.7386C23.0555 47.9976 22.0048 47.5963 20.7378 47.5654L15.2577 47.4213L15.1959 49.9838L20.676 50.1279C21.737 50.1588 22.3448 50.7145 22.3138 51.6098L22.2726 53.1535L4.21499 52.6904C3.15399 52.6595 2.58743 52.1655 2.60803 51.1056L2.64924 49.6648L9.57151 49.8397L9.63332 47.2773L0.104889 47.0406L0.00187924 51.0438C-0.0290238 52.3096 0.32121 53.3078 1.05258 54.0797L1.07318 54.09ZM11.6832 34.6707C11.2918 35.5454 10.6119 35.8027 9.64362 35.3602L7.398 34.3414L3.83385 32.736L2.77285 35.072L6.337 36.6774L8.48991 37.6551L25.4454 45.3117L27.1141 41.6275C27.6395 40.4749 27.691 39.4458 27.2995 38.4784C26.8875 37.4699 26.1252 36.6672 24.9406 36.132L13.3829 30.9144L11.6832 34.6604V34.6707ZM17.2252 35.4837L17.2149 35.5146L23.8693 38.5195C24.8685 38.9724 25.1672 39.631 24.7449 40.5675L24.1371 41.9053L13.2696 36.9965C13.5786 36.6466 13.8567 36.2041 14.0627 35.741L14.7014 34.3414L17.2355 35.4837H17.2252ZM22.6229 19.6045L20.4597 21.6627L14.928 15.8689L13.0429 17.6595L30.2147 35.6483L32.0998 33.8577L22.2417 23.5254L24.405 21.4672L34.263 31.7995L36.1275 30.0294L18.9557 12.0406L17.0912 13.8106L22.6229 19.6148V19.6045ZM30.5856 6.01C30.1529 6.95678 30.2044 8.10938 30.668 9.29286L33.748 17.0935L34.0467 17.855L38.2495 28.496L42.0094 27.0141C43.1837 26.551 43.946 25.8512 44.3374 24.8839C44.7906 23.8959 44.7597 22.7639 44.2756 21.5598L41.6385 14.8706L36.7456 2.37724L32.893 3.90032C31.8114 4.33255 31.0079 5.01176 30.5959 6.02029L30.5856 6.01ZM38.9397 15.0456L41.8858 22.4963C42.236 23.5769 41.9785 24.2252 41.0514 24.5957L39.7122 25.1206L36.4674 16.9083L36.1687 16.1467L33.0887 8.34608C32.687 7.32726 32.9445 6.66863 33.8407 6.31873L35.2725 5.75272L38.95 15.0559L38.9397 15.0456ZM54.6693 0.144075L49.0552 0L48.808 9.68392L48.7977 9.88974L48.4166 24.8324L56.575 25.0382L56.8531 14.0165L56.9149 11.4128V11.3819L53.6598 11.2996V11.3305L52.8769 11.3099V11.279C51.9189 11.2585 51.4863 10.7954 51.4348 9.83828C51.5275 8.88121 51.9807 8.41811 52.949 8.43869L56.987 8.5416L57.0488 5.93796L57.193 0.18524L54.659 0.123493L54.6693 0.144075ZM52.8151 13.9341L54.3191 13.9753L54.1027 22.5272L51.0845 22.4552L51.3112 13.6563C51.7541 13.8004 52.2692 13.9238 52.8151 13.9341ZM54.5251 5.8968L53.0211 5.85563C52.4752 5.84534 51.9601 5.8968 51.5069 6.06145L51.5893 2.67568L54.6075 2.74772L54.5251 5.8968ZM69.0186 2.69627L68.2254 2.37724L59.0987 25.5013L61.5195 26.4584L69.7088 5.72185L72.387 6.78183L69.8324 13.2446L72.284 14.212L75.7761 5.36166L74.9829 5.05293L69.0186 2.70656V2.69627ZM85.6238 13.2549C84.5834 13.2549 83.5533 13.7901 82.6777 14.706L76.8783 20.7777L76.3117 21.3746L68.4108 29.6486L71.3363 32.4375C72.2531 33.3123 73.2111 33.7033 74.2515 33.6519C75.3434 33.6519 76.3529 33.1373 77.2491 32.2008L82.2142 26.9935L82.7807 26.3966L91.5057 17.2993L88.5081 14.4384C87.6634 13.6357 86.7054 13.1932 85.6238 13.2446V13.2549ZM80.9266 24.6266L75.3949 30.4205C74.5605 31.1923 73.8601 31.2335 73.139 30.544L72.0986 29.556L78.1968 23.1652L78.7634 22.5684L84.5628 16.4966C85.3148 15.7042 86.0256 15.663 86.7157 16.3217L87.8282 17.3817L80.9266 24.6163V24.6266ZM100.395 31.2129L98.7164 27.4978L76.0439 37.7374L77.1049 40.0735L81.1635 38.2417L81.7815 39.6104C82.2657 40.6704 83.0589 41.4422 84.0581 41.8127C85.0264 42.2038 86.1183 42.1214 87.3338 41.576L98.1704 36.6774C99.355 36.1423 100.138 35.3705 100.55 34.3619C100.931 33.3637 100.89 32.2934 100.395 31.2026V31.2129ZM86.2625 39.2091C85.2324 39.6722 84.5216 39.4355 84.1302 38.5607L83.5121 37.192L97.4082 30.9144L98.0262 32.2832C98.4383 33.1888 98.0983 33.868 97.0991 34.3105L86.2625 39.2091ZM103.692 48.2652C102.95 47.5345 101.848 47.1847 100.581 47.2155L79.9171 47.7404L80.0201 51.7745C80.051 53.0403 80.4527 53.9871 81.2253 54.6869C81.9979 55.4587 83.0692 55.8086 84.3774 55.7674L92.3916 55.5616L105 55.2734L104.897 51.1364C104.866 49.9735 104.495 48.9856 103.692 48.2549V48.2652ZM92.3298 53.0094L84.3156 53.2152C83.1825 53.1741 82.6571 52.711 82.6365 51.7127L82.5953 50.272L100.653 49.8089C101.745 49.778 102.27 50.2514 102.301 51.2085L102.342 52.7521L92.3401 53.0094H92.3298ZM93.2466 73.3755L95.451 74.2399L99.6229 75.8865L102.26 69.1973L97.0991 67.1597L96.1411 69.5781L98.8812 70.6586L98.1395 72.5419L96.3884 71.8524L94.2561 71.0085C93.2981 70.6278 93.3084 70.1544 93.6792 69.1973L95.1522 65.4719L81.8537 60.2338L82.2657 59.1841L79.845 58.227L77.4139 64.3708L76.4662 66.7583L76.0233 67.8698L78.444 68.8268L78.887 67.7154L93.2362 73.3652L93.2466 73.3755ZM79.845 65.3278L80.906 62.6522L91.7735 66.9333L91.2482 68.2711C91.0627 68.7445 90.9391 69.2487 90.9082 69.681L79.845 65.3176V65.3278ZM90.2902 87.2993C90.2902 86.2085 89.8369 85.1794 88.9613 84.2635L83.3061 78.3358L82.6468 77.6463L74.7253 69.3414L71.7278 72.2023C70.914 72.9844 70.471 73.9106 70.3989 75.0323C70.4195 76.1026 70.8831 77.1317 71.7587 78.0476L75.5391 82.0097L77.4036 80.2396L73.6231 76.2776C72.8918 75.5057 72.8609 74.6824 73.5098 74.0753L74.6223 73.0153L87.0865 86.0747C87.8179 86.8465 87.8694 87.5978 87.1072 88.3284L86.0668 89.3164L81.2871 84.3149L79.4226 86.085L85.9946 92.9697L88.8995 90.2014C89.8163 89.3267 90.2799 88.3696 90.3005 87.3096L90.2902 87.2993ZM68.6993 96.2423L70.0693 95.7071C70.6153 95.491 71.0479 95.2852 71.429 94.9559L73.6128 100.503L76.0336 99.5457L66.9069 76.4216L64.4862 77.3787L68.6375 87.8859C68.143 87.9374 67.6692 88.0506 67.1232 88.2564L65.7532 88.7915L61.6843 78.4696L59.3254 79.3958L63.3942 89.7177L64.3419 92.1053L64.3522 92.1361L68.0812 90.6645C69.0083 90.3043 69.6161 90.541 69.9972 91.4158C70.3165 92.3214 70.0384 92.908 69.1113 93.2784L65.3823 94.7501L65.3926 94.7809L66.3403 97.1685L68.452 102.52L70.811 101.594L68.6993 96.2423ZM56.3587 104.804H56.4926L56.3484 99.3296L53.6804 99.4016L53.7525 102.211L51.7335 102.263L51.5996 96.8906L52.8666 96.8597C54.1336 96.8289 55.1225 96.5613 55.823 95.7895C56.4823 94.9456 56.9046 93.9474 56.8737 92.6816L56.6677 84.3355C56.6368 82.9359 56.1629 81.948 55.4625 81.2482C54.5869 80.4455 53.5774 80.0235 52.4546 80.0544L51.1876 80.0853L48.5196 80.1573L49.1583 105H49.2922L56.3793 104.825L56.3587 104.804ZM51.2391 82.7404L52.5061 82.7095C53.495 82.6889 54.1027 83.2858 54.1233 84.3767L54.1542 85.5087L54.3397 92.733C54.3706 93.865 53.804 94.4208 52.8048 94.4516L51.5378 94.4825L51.2391 82.7404ZM28.958 99.5663L30.4928 100.173L31.389 100.523L36.5498 102.561L38.6512 97.2405L39.6092 94.8221L39.6195 94.7912L36.591 93.5975L36.5807 93.6283L35.8494 93.3402L35.8597 93.3093C34.9944 92.9697 34.6957 92.3317 34.9738 91.4466C35.3858 90.5822 36.0451 90.3249 36.9001 90.6645L40.6599 92.1464L41.6076 89.7589L45.6868 79.4369L43.3279 78.5107L39.2487 88.8327L37.8478 88.277C37.3018 88.0609 36.8383 87.9477 36.3541 87.9477L40.5157 77.4096L38.095 76.4525L33.4492 88.2049L32.584 90.4072L32.5221 90.5616L31.6466 92.7948L28.9683 99.5766L28.958 99.5663ZM33.5728 94.9765C33.9334 95.2646 34.3454 95.5425 34.8914 95.7483L36.2923 96.304L35.118 99.2679L32.3161 98.1667L33.5728 94.9868V94.9765Z" fill="#FAC06C"/>
</svg>
