<svg width="63" height="60" viewBox="0 0 63 60" fill="none" xmlns="http://www.w3.org/2000/svg">
<g id="&#209;&#135;&#208;&#176;&#208;&#185;&#208;&#186;&#208;&#176; 1" clip-path="url(#clip0_349_13)">
<g id="&#208;&#161;&#208;&#187;&#208;&#190;&#208;&#185;_x0020_1">
<path id="Vector" d="M46.8072 39.4266C60.2426 36.7808 57.6799 22.832 44.2386 20.719C44.0352 21.2164 43.8083 21.7233 43.5564 22.2434C40.9416 27.6209 29.0379 30.7581 20.52 32.3488C26.6742 35.3726 39.3129 40.9002 46.8072 39.4258V39.4266Z" fill="#EC674E"/>
<path id="Vector_2" d="M56.2289 11.2383C56.1643 10.8675 56.2965 8.78902 57.7541 7.8355C59.9291 6.41406 62.4977 6.66053 62.1679 5.42744C61.8419 4.19582 56.9243 3.37621 56.9243 3.37621C56.364 3.03041 56.2135 2.44624 56.0461 2.15489C55.032 0.162512 53.1023 0.0241939 51.177 0.00138604C49.248 -0.023629 47.1067 1.09322 46.0655 4.52837C44.945 8.2225 47.3895 13.0452 44.2371 20.7204C57.6784 22.832 60.2404 36.7816 46.8057 39.4265C39.3122 40.9002 26.6749 35.3726 20.5185 32.3488C20.379 32.376 20.2358 32.4017 20.0941 32.4289L3.14794 35.3211C-3.78972 36.1621 2.21685 44.8982 7.02063 43.4356C9.60096 42.6491 14.7007 41.0761 19.5896 39.5671C26.8864 42.9949 36.3397 47.4755 35.7956 47.3879C36.9448 51.3984 38.8018 59.9793 38.8018 59.9793L41.9013 60.0007C41.9013 60.0007 43.5351 52.1077 44.5844 48.4915C44.6865 48.1708 44.7702 47.3438 45.4193 47.2268C50.5249 46.5124 57.2423 44.537 60.4115 39.4758C61.836 37.106 62.6563 34.7325 62.9507 31.6093C63.6138 24.6618 57.2599 16.5047 56.2282 11.239L56.2289 11.2383Z" fill="#FEFEFE"/>
</g>
</g>
<defs>
<clipPath id="clip0_349_13">
<rect width="63" height="60" fill="white"/>
</clipPath>
</defs>
</svg>
