<svg width="24" height="24" viewBox="0 0 24 24" fill="none" xmlns="http://www.w3.org/2000/svg">
<g id="&#208;&#159;&#208;&#190;&#208;&#184;&#209;&#129;&#208;&#186;">
<rect id="Rectangle 162" x="0.5" y="0.5" width="23" height="23" rx="4.5" stroke="#CBD1DC"/>
<path id="Vector" fill-rule="evenodd" clip-rule="evenodd" d="M10.7406 7.68747C12.9035 7.28323 14.581 8.88171 14.9128 10.5958C15.3449 12.8283 13.7598 14.6118 11.9748 14.9319C7.25378 15.7784 5.737 8.62282 10.7406 7.68747ZM14.4496 15.6347C15.6763 16.3485 16.7487 18.7489 17.7624 17.7677C18.6914 16.8683 16.6657 15.7418 15.6504 14.4477C16.0132 13.4593 16.917 12.5684 16.5405 10.3991C15.7766 5.99802 10.4597 4.63107 7.54492 7.52913C4.51135 10.5455 6.19913 15.8461 10.3979 16.5509C12.3874 16.8851 13.0878 16.2674 14.4496 15.6347Z" fill="#CBD1DC"/>
</g>
</svg>
