<svg width="10" height="11" viewBox="0 0 10 11" fill="none" xmlns="http://www.w3.org/2000/svg">
<g id="Vector">
<path fill-rule="evenodd" clip-rule="evenodd" d="M0 4.98199C0 5.80239 0.0946075 6.55697 0.247943 7.23635C0.405985 7.93661 0.700154 8.60107 1.26596 9.02472C2.08357 9.63694 3.35656 9.93199 4.37312 9.98675C4.47145 9.99204 4.5789 9.98292 4.67803 9.98587C4.79913 9.98949 4.83828 10.0106 4.98087 10.0107C5.31411 10.0111 5.79734 9.97337 6.14654 9.93576C6.47829 9.90007 6.91537 9.81767 7.20581 9.73221C7.52381 9.63864 7.84493 9.53848 8.11513 9.40206C9.06591 8.92202 9.44804 8.46279 9.74737 7.26912C10.1241 5.76673 10.124 3.21254 9.4403 1.85595C9.12765 1.23564 8.78704 0.945492 8.16181 0.63212C7.87732 0.489504 7.58105 0.387768 7.24161 0.289463C6.82307 0.168231 6.10385 0.0491807 5.63621 0.0239662C5.53788 0.0186733 5.43043 0.0277963 5.3313 0.024844C5.2102 0.0212267 5.17105 0.000134824 5.02846 1.83609e-06C4.81772 -0.000237542 4.67181 0.0230087 4.44259 0.0233013C3.59349 0.0242588 2.21145 0.35867 1.48707 0.832985C1.41885 0.877642 1.36794 0.910437 1.30594 0.955892C0.707362 1.39499 0.461947 1.9441 0.261933 2.7416C0.0891551 3.43058 0 4.25519 0 4.98199Z" fill="#124285"/>
<path fill-rule="evenodd" clip-rule="evenodd" d="M2.29877 6.31506V3.69568C2.29877 3.35709 2.51203 3.10633 2.80628 3.10633H7.19371C7.3509 3.10633 7.48546 3.18916 7.56126 3.279C7.65768 3.39327 7.70119 3.49373 7.70119 3.69568V6.31506C7.70119 6.65394 7.48852 6.90444 7.19368 6.90444H2.80626C2.51419 6.90444 2.29877 6.65673 2.29877 6.31506ZM5 5.00537C5.03263 4.98351 5.07285 4.948 5.10945 4.91834C5.15245 4.88355 5.18559 4.85603 5.22695 4.82302C5.26502 4.79262 5.29925 4.77046 5.33872 4.73833C5.38159 4.70341 5.41489 4.67599 5.45625 4.64303L6.84994 3.53195H3.15008L4.88164 4.91087C4.9185 4.94103 4.96579 4.98244 5 5.00537ZM2.80628 6.47877H7.19371C7.29417 6.47877 7.27587 6.3211 7.27558 6.21684L7.27555 3.76116C7.19095 3.78375 5.4283 5.2015 5.20161 5.38707C5.0566 5.5058 4.96077 5.52224 4.80722 5.39455L3.2927 4.19149C3.20838 4.12895 2.80913 3.78087 2.72439 3.76114V6.20043C2.72423 6.30791 2.70295 6.47877 2.80628 6.47877Z" fill="white"/>
</g>
</svg>
