<svg width="10" height="11" viewBox="0 0 10 11" fill="none" xmlns="http://www.w3.org/2000/svg">
<g id="Vector">
<path fill-rule="evenodd" clip-rule="evenodd" d="M0 4.982C0 5.8024 0.0946077 6.55698 0.247943 7.23636C0.405986 7.93662 0.700156 8.60108 1.26597 9.02473C2.08358 9.63696 3.35657 9.932 4.37313 9.98677C4.47146 9.99206 4.57891 9.98294 4.67804 9.98589C4.79914 9.98951 4.83829 10.0106 4.98088 10.0107C5.31412 10.0111 5.79735 9.97339 6.14655 9.93578C6.4783 9.90009 6.91538 9.81769 7.20583 9.73223C7.52383 9.63866 7.84494 9.53849 8.11514 9.40207C9.06593 8.92204 9.44806 8.4628 9.74739 7.26913C10.1241 5.76674 10.1241 3.21254 9.44032 1.85596C9.12766 1.23565 8.78705 0.945494 8.16182 0.632121C7.87734 0.489504 7.58106 0.387768 7.24163 0.289464C6.82309 0.168232 6.10386 0.0491808 5.63622 0.0239663C5.53789 0.0186734 5.43044 0.0277963 5.33131 0.024844C5.21021 0.0212267 5.17105 0.000134824 5.02846 1.8361e-06C4.81773 -0.000237542 4.67182 0.0230088 4.4426 0.0233013C3.5935 0.0242589 2.21146 0.358671 1.48707 0.832986C1.41885 0.877643 1.36794 0.910438 1.30594 0.955893C0.707364 1.39499 0.461947 1.9441 0.261933 2.7416C0.0891552 3.43059 0 4.25519 0 4.982Z" fill="#124285"/>
<path fill-rule="evenodd" clip-rule="evenodd" d="M4.4721 3.88458C4.35515 4.00153 4.34602 4.03558 4.32302 4.20072C4.28756 4.45547 4.24945 4.91997 4.27652 5.16087C4.28224 5.21151 4.27823 5.24955 4.27847 5.30138L4.30384 5.58242C4.35376 6.05572 4.39547 6.33529 5.04586 6.25166C5.6658 6.17195 5.5552 6.37292 5.5552 7.03433C5.5552 7.12627 5.57568 7.58173 5.52592 7.6315C5.40498 7.75243 5.39075 7.71932 5.19808 7.71932C5.09584 7.71929 5.00634 7.72921 4.90534 7.70927C4.44196 7.61772 4.21234 7.40209 4.00055 6.98749L3.8358 6.61281C3.74157 6.35414 3.69215 6.11652 3.64071 5.86342C3.62786 5.80022 3.61831 5.74301 3.61196 5.67609C3.56661 5.19813 3.54626 5.15294 3.57616 4.6457C3.60225 4.20336 3.63361 4.06691 3.74159 3.62701C3.77417 3.49442 3.82444 3.38606 3.87107 3.25233C4.08973 2.62508 4.46292 2.32144 5.1044 2.32144C5.64736 2.32147 5.5552 2.26673 5.5552 3.40452C5.5552 3.84942 5.52462 3.79676 4.98729 3.79678C4.84726 3.79678 4.59625 3.76045 4.4721 3.88458Z" fill="white"/>
</g>
</svg>
