<svg width="10" height="10" viewBox="0 0 10 10" fill="none" xmlns="http://www.w3.org/2000/svg">
<g id="Vector">
<path fill-rule="evenodd" clip-rule="evenodd" d="M0 4.97663C0 5.79616 0.0946202 6.54993 0.247949 7.22859C0.405996 7.92808 0.70015 8.59184 1.26596 9.01503C2.08358 9.62659 3.35656 9.92133 4.37312 9.97604C4.47147 9.98134 4.57892 9.9722 4.67803 9.97516C4.79912 9.97877 4.83828 9.99983 4.98087 10C5.31412 10.0003 5.79734 9.96269 6.14654 9.92514C6.47829 9.88948 6.91536 9.80717 7.20582 9.7218C7.52381 9.62832 7.84493 9.52826 8.11514 9.39199C9.06591 8.91246 9.44804 8.45372 9.74739 7.26133C10.1242 5.76053 10.1241 3.20909 9.44031 1.85396C9.12767 1.23433 8.78706 0.944463 8.16182 0.631444C7.87732 0.488991 7.58105 0.387337 7.24163 0.289144C6.8231 0.168046 6.10386 0.0491066 5.63622 0.0239445C5.53787 0.0186715 5.43042 0.0277839 5.33131 0.0248343C5.21022 0.0212091 5.17106 0.000166489 5.02847 1.7078e-06C4.81773 -0.000228986 4.67182 0.0229887 4.44261 0.0232689C3.59351 0.0242246 2.21148 0.35827 1.48708 0.832066C1.41886 0.876689 1.36794 0.909431 1.30596 0.954844C0.707392 1.39348 0.461966 1.94198 0.261954 2.73865C0.0891766 3.4269 0 4.25061 0 4.97663Z" fill="#124285"/>
<path fill-rule="evenodd" clip-rule="evenodd" d="M4.02354 4.6315C3.95039 4.05962 4.37422 3.60308 4.86651 3.53742C5.44672 3.46002 5.90242 3.88763 5.96845 4.37797C6.14309 5.67445 4.18739 5.9123 4.02354 4.6315ZM2.79283 4.6315C2.83077 5.37336 3.24698 5.94418 3.63565 6.2437C4.22667 6.69919 4.38603 6.93071 4.76969 7.54571C4.85166 7.67707 5.0343 7.77583 5.17747 7.61459C5.24347 7.54027 5.35061 7.33176 5.41293 7.22944C6.0181 6.23578 6.72173 6.27391 7.07789 5.24002C7.58235 3.77574 6.5656 2.53309 5.3442 2.33206C3.91519 2.09681 2.72277 3.26139 2.79283 4.6315Z" fill="white"/>
</g>
</svg>
