<svg width="10" height="10" viewBox="0 0 10 10" fill="none" xmlns="http://www.w3.org/2000/svg">
<g id="Vector">
<path fill-rule="evenodd" clip-rule="evenodd" d="M0.00346798 4.98001C0.00346798 5.79961 0.0982593 6.55447 0.25085 7.23304C0.409221 7.93357 0.702843 8.59711 1.26812 9.02136C2.08541 9.63288 3.35816 9.92881 4.37427 9.98315C4.47253 9.98893 4.58004 9.97968 4.67945 9.98199C4.80083 9.98546 4.84014 10.0063 4.98233 10.0063C5.31525 10.0063 5.79846 9.96927 6.14756 9.93113C6.47933 9.89529 6.9163 9.81322 7.20645 9.72767C7.52435 9.63404 7.84572 9.53347 8.11506 9.39706C9.06529 8.91732 9.44792 8.45839 9.74732 7.26541C10.1242 5.76377 10.1242 3.21019 9.43983 1.85421C9.12771 1.2346 8.78669 0.944445 8.1613 0.631172C7.87693 0.488985 7.58099 0.387257 7.24113 0.288998C6.82266 0.167619 6.10364 0.0485517 5.63662 0.0231198C5.53836 0.0173399 5.43085 0.0265878 5.33143 0.0242758C5.21006 0.0208079 5.17075 0 5.02856 0C4.81817 0 4.67252 0.0231198 4.44248 0.0231198C3.59398 0.0242758 2.21257 0.358357 1.48776 0.832314C1.41956 0.877398 1.36869 0.909766 1.30627 0.954849C0.707467 1.39413 0.462397 1.94322 0.26241 2.7397C0.0901674 3.42867 0 4.25289 0 4.97886L0.00346798 4.98001Z" fill="#00A0E3"/>
<path fill-rule="evenodd" clip-rule="evenodd" d="M4.94533 3.44486C4.20319 3.44486 4.22284 2.30389 4.94533 2.30389C5.13838 2.30389 5.30138 2.31661 5.45513 2.4796C5.79036 2.83565 5.55454 3.44486 5.04128 3.44486H4.94533Z" fill="white"/>
<path fill-rule="evenodd" clip-rule="evenodd" d="M4.37427 7.09548V4.52802C4.37427 4.21128 4.6494 3.91997 4.96383 3.91997C5.33721 3.91997 5.62968 4.16504 5.62968 4.52802V7.09548C5.62968 7.43881 5.3638 7.70353 4.96383 7.70353C4.64709 7.70353 4.37427 7.41222 4.37427 7.09548Z" fill="white"/>
</g>
</svg>
