<svg width="8" height="7" viewBox="0 0 8 7" fill="none" xmlns="http://www.w3.org/2000/svg">
<g id="spoiler 2" clip-path="url(#clip0_7_506)">
<g id="&#208;&#161;&#208;&#187;&#208;&#190;&#208;&#185;_x0020_1">
<path id="Vector" fill-rule="evenodd" clip-rule="evenodd" d="M3.89529 6.97257C4.15729 7.03976 4.43482 6.98048 4.65025 6.85992C4.88896 6.72553 4.95107 6.61486 5.09662 6.36783C5.77783 5.21763 6.4474 3.96664 7.13831 2.77494C7.36927 2.37573 7.58663 1.99036 7.81758 1.57534C8.12811 1.01605 8.03689 0.606958 7.64292 0.241345C7.2897 -0.0867179 6.54638 0.0180251 6.0049 0.0180251C5.04034 0.0180251 0.900676 -0.0669551 0.537751 0.120792C0.176768 0.308539 -0.158986 0.814468 0.0913738 1.38364L2.23981 4.86783C2.4727 5.25913 2.71142 5.64253 2.95983 6.02395C3.22378 6.43107 3.36351 6.83028 3.89723 6.96862L3.89529 6.97257Z" fill="#124285"/>
</g>
</g>
<defs>
<clipPath id="clip0_7_506">
<rect width="8" height="7" fill="white" transform="translate(0 0.000244141)"/>
</clipPath>
</defs>
</svg>
