<svg width="66" height="68" viewBox="0 0 66 68" fill="none" xmlns="http://www.w3.org/2000/svg">
<path id="Vector" d="M3.96087 0.000244141H62.0397C63.1296 0.000244141 64.1201 0.442504 64.8374 1.15492C65.5549 1.86733 66 2.85049 66 3.9326V60.185C66 61.2671 65.5546 62.2506 64.8374 62.9627C64.1198 63.6751 63.1296 64.1174 62.0397 64.1174H41.0232V64.115C39.4281 64.1572 38.0088 64.4481 36.7655 64.9881C35.5343 65.5227 34.4704 66.3065 33.5741 67.3388L33 68.0002L32.4259 67.3388C31.5299 66.3065 30.466 65.5227 29.2345 64.9881C27.9912 64.4481 26.5719 64.1572 24.9768 64.115V64.1174H3.96027C2.87039 64.1174 1.87987 63.6751 1.16265 62.9627C0.445129 62.2503 0 61.2671 0 60.185V3.9326C0 2.85049 0.445431 1.86703 1.16265 1.15492C1.88018 0.442504 2.87099 0.000244141 3.96087 0.000244141Z" fill="white"/>
</svg>
