<svg width="65" height="50" viewBox="0 0 65 50" fill="none" xmlns="http://www.w3.org/2000/svg">
<path id="&#208;&#159;&#208;&#190;&#208;&#181;&#208;&#183;&#208;&#180;" fill-rule="evenodd" clip-rule="evenodd" d="M45.3224 45.1389C45.6418 45.3571 45.7157 45.5929 45.9853 45.8902C46.6035 46.5747 47.4793 47.0533 48.3379 47.3824L42.07 47.5267C43.1278 47.1096 45.0168 46.3178 45.3242 45.1371L45.3224 45.1389ZM0.00171721 48.7813C0.00171721 50.4124 3.3022 50.4001 3.3022 48.7813C3.3022 47.2451 0.00171721 47.1149 0.00171721 48.7813ZM61.5724 48.9115C61.5724 50.2681 64.8729 50.4916 64.8729 48.7813C64.8729 47.2047 61.5724 47.0903 61.5724 48.9115ZM40.4988 41.1059C41.5446 41.1059 40.8388 42.6403 40.1742 41.9593C39.8806 41.6584 40.0506 41.1059 40.4988 41.1059ZM37.8337 41.3663C37.8337 45.4803 43.2927 45.2128 43.2927 41.4965C43.2927 40.0959 41.9807 38.7656 40.6276 38.7656C39.1989 38.7656 37.8354 39.9182 37.8354 41.3681L37.8337 41.3663ZM49.7666 41.6267C49.7666 41.3223 49.9778 41.1059 50.2749 41.1059C50.572 41.1059 50.7832 41.3223 50.7832 41.6267C50.7832 42.2672 49.7683 42.2672 49.7683 41.6267H49.7666ZM50.0207 44.3576C54.3069 44.3576 53.5977 38.7639 50.2749 38.7639C46.6687 38.7639 46.7821 44.3576 50.0207 44.3576ZM65 41.9963V42.452C64.933 43.1347 64.5621 43.7506 63.8855 44.1271C63.0887 44.5705 56.7814 44.3576 55.6051 44.3576C55.0264 45.4785 54.0459 46.5642 52.94 47.0903L51.9337 47.4897L58.4986 47.6375C59.5444 47.8399 59.8501 48.9783 59.1271 49.6575C58.9005 49.8704 58.5501 49.9514 58.1449 49.9514H6.72976C5.11558 49.9514 4.9078 48.1179 6.17339 47.6903C6.68855 47.5161 10.7017 47.6094 11.4263 47.6094L10.8682 47.4C8.47617 46.726 6.26955 44.5952 5.71317 42.1458C4.31192 42.1458 2.67714 42.3271 1.73267 41.8009C0.91871 41.3487 0 40.351 0 39.1545V36.3902C0.0635369 35.5632 0.254148 34.8083 0.760726 34.0798C0.927296 33.8405 1.21922 33.4077 1.42529 33.2C1.7258 32.8991 2.15854 32.8129 2.15854 32.3906V12.3576C2.15854 11.5623 0 11.9441 0 8.58506C0 7.1334 1.50256 5.59375 2.91926 5.59375H27.2934C29.7525 5.59375 31.2258 8.96338 29.6717 10.8937C29.2768 11.3846 28.8544 11.8069 28.1812 11.9688V18.8629C29.6323 18.8629 29.2253 18.942 29.7267 18.1045C30.7931 16.322 32.8898 16.651 34.6551 16.651C37.2584 16.651 37.2945 18.8629 37.9556 18.8629C39.5371 18.8629 38.9567 18.9156 39.6264 17.8441C40.5589 16.3554 41.7764 16.1724 42.6522 15.7413C42.2246 13.8638 39.9871 5.91224 39.9871 4.29341C39.9871 1.9901 42.0546 0 44.3041 0H50.651C52.4575 0 53.663 0.855163 54.4117 2.00066C55.4454 3.5843 55.2291 4.65941 54.7654 6.55625L53.0396 13.5031C52.9314 13.9536 52.6051 15.3665 52.43 15.7396C52.77 15.9067 53.201 15.949 53.5754 16.1267C53.9257 16.2921 54.1781 16.4962 54.4992 16.7408C55.928 17.8229 55.8764 18.9297 56.3143 19.4347C56.8381 20.04 57.4889 20.2494 58.5278 21.7204C59.577 23.2073 59.5393 24.2912 59.5393 26.7969C59.5393 28.7923 59.5393 30.7859 59.5393 32.7813C60.9302 33.1613 61.4436 35.6336 61.6583 36.2037L64.5175 40.6871C64.7957 41.1059 64.9554 41.5564 64.9983 41.9963H65ZM32.1205 44.3576H35.2939C35.5687 45.5682 37.2206 46.8316 38.4879 47.3296L39.1027 47.6111L27.8137 47.4915L28.9471 47.092C30.1096 46.5606 31.5298 45.5049 32.1205 44.3594V44.3576ZM19.5522 43.967C19.8836 45.2392 22.0301 46.807 23.5327 47.3014C23.6873 47.3525 23.7783 47.3718 23.9225 47.4211C23.962 47.4352 24.0753 47.4739 24.1114 47.488C24.1389 47.4985 24.1767 47.5161 24.2007 47.5267C24.2247 47.5372 24.2694 47.5583 24.2883 47.5671C24.3072 47.5759 24.3467 47.5918 24.3741 47.6094L15.3416 47.3296C16.1453 47.0393 16.7119 46.7577 17.4314 46.2193C18.7898 45.2005 19.1195 44.2925 19.5505 43.967H19.5522ZM46.5932 42.0156C46.5932 40.9546 46.509 40.7082 46.9675 39.7985C47.1186 39.4976 47.1083 39.5099 47.3196 39.2478C49.3304 36.7544 52.4386 37.6465 53.5376 39.7123C54.592 41.6918 53.9446 45.3976 49.8937 45.3976C48.3722 45.3976 46.5932 43.7365 46.5932 42.0156ZM40.88 45.3976C39.5972 45.3976 38.8485 45.2269 37.9401 44.377C35.5086 42.1018 37.2429 37.7222 40.4988 37.7222C43.868 37.7222 45.4873 41.8467 43.327 44.1324C42.7775 44.7148 41.9327 45.3958 40.8783 45.3958L40.88 45.3976ZM26.1532 40.9739H12.9512C11.5878 40.9739 11.5878 38.8923 12.9512 38.8923H26.1532C26.6288 38.8923 26.9946 39.5187 26.9929 39.934C26.9895 40.3018 26.5945 40.9739 26.1532 40.9739ZM54.9715 37.7222H59.9222C60.4013 38.4542 60.8529 39.1528 61.3441 39.9076C61.66 40.3933 62.5942 41.6778 62.7144 42.1458H56.2405C56.2405 40.7698 56.177 39.7915 55.454 38.5299C55.2651 38.2008 55.1501 38.0688 54.9715 37.724V37.7222ZM5.33367 39.934H3.55635C2.60501 39.934 2.16026 39.4783 2.16026 38.5035V37.7222H5.71489C5.53973 38.0952 5.33367 39.3657 5.33367 39.934ZM25.5195 34.4705C27.2058 34.4705 28.5418 34.7643 29.8074 36.0611C30.2006 36.4623 30.5561 37.0712 30.8103 37.6342C31.4525 39.0489 31.5074 40.49 30.927 41.9628C30.4496 43.1752 29.5653 44.2397 28.3993 44.8362C26.1274 45.9976 23.0107 45.3043 21.7107 43.316C23.2683 43.316 25.456 43.5377 26.7679 43.1646C29.9911 42.2514 30.0135 37.7222 26.8933 36.7034C25.8424 36.3603 23.0879 36.5503 21.7107 36.5503C22.3118 35.63 24.0084 34.4687 25.5195 34.4687V34.4705ZM9.65074 39.934C9.65074 41.2836 10.5729 42.5681 11.8969 43.096C13.0405 43.5517 15.6301 43.316 17.1412 43.316C16.1161 44.8855 14.5397 45.3976 12.5717 45.3976C9.99247 45.3976 7.621 42.9851 7.621 39.6736C7.621 37.0553 10.0474 34.4705 12.5717 34.4705C14.2838 34.4705 15.151 34.6623 16.4234 35.7268C16.9197 36.1421 16.7961 36.0224 17.143 36.5521C15.5408 36.5521 13.3307 36.3268 11.9862 36.7298C10.5763 37.1539 9.65418 38.6689 9.65418 39.934H9.65074ZM2.54148 35.5104C4.3497 32.7443 4.31879 36.2582 4.31879 30.0468H57.2571V33.2986C57.2571 34.4406 58.7459 34.4054 59.0344 35.5104C56.3693 35.5104 53.7024 35.5104 51.0373 35.5104C46.758 35.5086 46.9847 36.8424 45.3242 37.9826C44.888 37.314 44.3385 36.7843 43.6241 36.3427C41.2097 34.8505 37.8113 35.4066 36.0941 37.4987C35.1273 38.6759 34.5349 40.0185 34.5349 42.1441H33.2659C33.3586 41.0109 33.52 41.405 33.52 39.4132C33.52 38.2976 33.1474 37.3351 32.7971 36.5116C31.2859 32.9625 26.5464 30.7243 22.0525 33.2563C21.2505 33.7086 19.7926 34.9913 19.5556 35.901C19.2448 35.667 19.2483 35.5245 18.9958 35.1725C18.7932 34.8893 18.618 34.7414 18.3811 34.5021C17.8367 33.9479 17.6581 33.7613 16.9936 33.3232C13.7429 31.18 9.2369 32.0968 7.18998 34.9385C6.81734 35.4558 6.79845 35.5209 5.98106 35.5209C4.83568 35.5209 3.69029 35.5121 2.54491 35.5121L2.54148 35.5104ZM4.31879 25.6232H57.2571V27.7048H4.31879V25.6232ZM29.5807 21.1996C32.67 21.1996 30.1251 18.8576 33.0083 18.8576H34.1502C36.7261 18.8576 34.4731 21.1996 37.4507 21.1996C42.3276 21.1996 40.3082 20.853 41.4347 19.1673C41.9378 18.4159 43.1244 17.8177 44.3058 17.8177H50.7798C51.4855 17.8177 52.5056 18.152 52.9692 18.4353C53.7334 18.9033 53.8106 19.3133 54.0493 20.1914C54.2313 20.8618 54.6486 21.0254 55.4248 21.6448C55.8318 21.9703 56.6286 22.8272 56.7471 23.2812H28.1829V21.1996H29.5807ZM23.8676 12.2239H25.899V23.2812H23.8676V12.2239ZM17.3937 12.2239H21.5837V23.2812H17.3937V12.2239ZM8.63415 12.2239H15.1081V23.2812H8.63415V12.2239ZM4.31708 12.2239H6.47562V23.2812H4.31708V12.2239ZM3.55463 7.80028H26.9139C28.4474 7.80028 28.4474 10.0121 26.9139 10.0121H3.55463C1.71721 10.0121 1.71721 7.80028 3.55463 7.80028ZM52.43 6.76036L50.2715 15.4756H44.9395C44.7643 15.1008 44.6115 14.251 44.4844 13.7319C43.8199 11.0274 42.7878 7.46068 42.2383 4.83713C42.1353 4.34444 42.2847 3.6494 42.5955 3.18839C42.8325 2.83647 43.54 2.3385 44.0517 2.3385H50.9068C52.1209 2.3385 52.8456 3.2834 52.9383 4.4201C51.5422 4.4201 50.1461 4.4201 48.7483 4.4201C47.2869 4.4201 45.6281 4.09106 45.3911 5.4002C45.2898 5.96151 45.6058 6.45068 46.0694 6.64423C46.6275 6.8765 51.5937 6.76036 52.43 6.76036Z" fill="#124285"/>
</svg>
